<svg width="16" height="16" version="1.1" xmlns="http://www.w3.org/2000/svg">
  <defs>
    <style type="text/css">.ColorScheme-Text { color:#ebdbb2; } .ColorScheme-Highlight { color:#458588; }</style>
  </defs>
  <path class="ColorScheme-Text" d="m-2e-3 3.166v9.668c0 0.92 0.746 1.666 1.667 1.666h12.67c0.921 0 1.667-0.746 1.667-1.666v-9.668c0-0.92-0.746-1.666-1.667-1.666h-12.67c-0.921 0-1.667 0.746-1.667 1.666zm15 4.834c0 0.553-0.446 1-1 1-0.553 0-1-0.447-1-1 0-0.553 0.447-1 1-1 0.554 0 1 0.447 1 1zm-3-4.5v9h-10v-9z" fill="currentColor"/>
</svg>
