<svg xmlns="http://www.w3.org/2000/svg" width="1200px" height="1200px" viewBox="0 0 1200 1200" fill="none">
<ellipse style="fill:#ebdbb2;fill-opacity:1;stroke:#ebdbb2;stroke-width:37.76398468;stroke-miterlimit:4;stroke-dasharray:none;stroke-opacity:1" id="path4659-3-6-7-5" cx="603.58685" cy="248.6098" rx="57.000645" ry="55.126842"></ellipse>
<path style="fill:none;stroke:#ebdbb2;stroke-width:25.80109406;stroke-linecap:round;stroke-linejoin:miter;stroke-miterlimit:4;stroke-dasharray:none;stroke-opacity:1" d="m 307.68999,777.41781 c 616.02061,0 616.02061,0 616.02061,0 v 0" id="path5312"></path>
<path style="display:inline;fill:none;stroke:#ebdbb2;stroke-width:25.80109406;stroke-linecap:round;stroke-linejoin:miter;stroke-miterlimit:4;stroke-dasharray:none;stroke-opacity:1" d="m 358.39631,697.08663 c 492.72817,0 492.72817,0 492.72817,0 v 0" id="path5312-9"></path>
<path style="display:inline;fill:none;stroke:#ebdbb2;stroke-width:25.80109406;stroke-linecap:round;stroke-linejoin:miter;stroke-miterlimit:4;stroke-dasharray:none;stroke-opacity:1" d="m 428.78604,607.27164 c 351.94871,0 351.94871,0 351.94871,0 v 0" id="path5312-9-5"></path> 
<path style="display:inline;fill:none;stroke:#ebdbb2;stroke-width:25.80109406;stroke-linecap:round;stroke-linejoin:miter;stroke-miterlimit:4;stroke-dasharray:none;stroke-opacity:1" d="m 499.17579,514.01661 c 211.16919,0 211.16919,0 211.16919,0 v 0" id="path5312-9-5-4"></path>
    <path style="display:inline;fill:none;stroke:#ebdbb2
;stroke-width:25.80109406;stroke-linecap:round;stroke-linejoin:miter;stroke-miterlimit:4;stroke-dasharray:none;stroke-opacity:1" d="m 569.5655,427.64185 c 70.38975,0 70.38975,0 70.38975,0 v 0" id="path5312-9-5-4-0"></path>
<path style="display:inline;fill:none;stroke:#ebdbb2;stroke-width:25.80109406;stroke-linecap:round;stroke-linejoin:miter;stroke-miterlimit:4;stroke-dasharray:none;stroke-opacity:1" d="m 262.88847,716.02582 c 299.5301,-419.31407 299.5301,-419.31407 299.5301,-419.31407 v 0" id="path5312-5"></path>
<path style="display:inline;fill:none;stroke:#ebdbb2;stroke-width:25.80109406;stroke-linecap:round;stroke-linejoin:miter;stroke-miterlimit:4;stroke-dasharray:none;stroke-opacity:1" d="M 720.62074,393.13996 C 946.11133,704.8254 946.11133,704.8254 946.11133,704.8254 v 0" id="path5312-5-2"></path>
<ellipse style="display:inline;fill:none;fill-opacity:1;stroke:#ebdbb2;stroke-width:37.76398468;stroke-miterlimit:4;stroke-dasharray:none;stroke-opacity:1" id="path4659-3-6-7-5-4" cx="244.23289" cy="767.40747" rx="57.000645" ry="55.126842"></ellipse>
<ellipse style="display:inline;fill:none;fill-opacity:1;stroke:#ebdbb2;stroke-width:37.76398468;stroke-miterlimit:4;stroke-dasharray:none;stroke-opacity:1" id="path4659-3-6-7-5-7" cx="976.63232" cy="767.40747" rx="57.000645" ry="55.126842"></ellipse>
<path style="display:inline;fill:none;stroke:#ebdbb2;stroke-width:25.80109406;stroke-linecap:round;stroke-linejoin:miter;stroke-miterlimit:4;stroke-dasharray:none;stroke-opacity:1" d="m 602.56048,972.95412 c 2.2412,-541.74896 2.2412,-541.74896 2.2412,-541.74896 v 0" id="path5312-9-7"></path>
<path style="display:inline;fill:none;stroke:#ebdbb2;stroke-width:25.80109406;stroke-linecap:round;stroke-linejoin:miter;stroke-miterlimit:4;stroke-dasharray:none;stroke-opacity:1" d="m 496.88742,1077.5257 c 2.33553,-560.8292 2.33553,-560.8292 2.33553,-560.8292 v 0" id="path5312-9-7-5"></path>
<path style="display:inline;fill:none;stroke:#ebdbb2;stroke-width:25.80109406;stroke-linecap:round;stroke-linejoin:miter;stroke-miterlimit:4;stroke-dasharray:none;stroke-opacity:1" d="m 708.31397,1165.7892 c 2.03232,-649.67596 2.03232,-649.67596 2.03232,-649.67596 v 0" id="path5312-9-7-4"></path>

</svg>
