<svg width="256" height="256" style="isolation:isolate" version="1.1" xmlns="http://www.w3.org/2000/svg">
  <g transform="translate(.004997 -.1131)" filter="url(#a)">
    <linearGradient id="b" x1=".5002" x2=".5002" y2="1" gradientTransform="matrix(244 0 0 228 5.981 12.12)" gradientUnits="userSpaceOnUse">
      <stop stop-color="#504945" offset="0"/>
      <stop stop-color="#3c3836" offset="1"/>
    </linearGradient>
    <path d="m165 12.12c72 0 85 15 85 87v56c0 70-13 85-85 85h-74c-72 0-85-15-85-85v-56c0-72 13-87 85-87z" fill="url(#b)"/>
  </g>
  <g transform="translate(0 -2.655e-5)" style="isolation:isolate">
    <g opacity=".2">
      <path d="m160.6 186.5c-38 22.13-83.38 17.19-111.9-8.873-0.849-0.775-1.429-1.788-1.669-2.916-8.082-37.94 10.32-80.08 48.35-102.2 38-22.13 83.38-17.19 111.9 8.873 0.849 0.774 1.429 1.787 1.669 2.916 8.082 37.94-10.32 80.08-48.35 102.2z"/>
    </g>
    <path d="m160.6 183.5c-38 22.13-83.38 17.19-111.9-8.874-0.849-0.774-1.429-1.787-1.669-2.915-8.082-37.94 10.32-80.08 48.35-102.2 38-22.13 83.38-17.19 111.9 8.873 0.849 0.774 1.429 1.787 1.669 2.916 8.082 37.94-10.32 80.08-48.35 102.2z" fill="#79740e"/>
    <g opacity=".2">
      <path d="m84.44 154.6c-13.88-24.04-5.631-54.84 18.41-68.72 24.04-13.88 54.84-5.632 68.72 18.41 13.88 24.04 5.632 54.84-18.41 68.72s-54.84 5.632-68.72-18.41z"/>
    </g>
    <path d="m84.44 151.7c-13.88-24.04-5.631-54.84 18.41-68.72 24.04-13.88 54.84-5.632 68.72 18.41 13.88 24.04 5.631 54.84-18.41 68.72s-54.84 5.632-68.72-18.41z" fill="#b8bb26"/>
    <g opacity=".957">
      <path d="m107.5 138.4c-6.533-11.32-2.65-25.8 8.664-32.34 11.32-6.532 25.8-2.65 32.34 8.665 6.532 11.32 2.65 25.8-8.665 32.34-11.32 6.533-25.8 2.65-32.34-8.664z" fill="#3c3836"/>
    </g>
    <g opacity=".1">
      <path d="m147.5 55.5c-17.42-0.183-35.46 4.327-52.08 14.01-32.14 18.72-50.19 51.7-50.16 84.36 1.035-31.68 19-63.25 50.16-81.4 16.62-9.683 34.66-14.19 52.08-14.01 22.4 0.236 43.78 8.216 59.85 22.88 0.848 0.775 1.435 1.796 1.676 2.925 1.2 5.635 1.743 11.36 1.785 17.1 2e-3 0.037 5e-3 0.073 6e-3 0.11 0.171-6.766-0.377-13.53-1.791-20.17-0.241-1.129-0.828-2.15-1.676-2.925-16.07-14.66-37.45-22.64-59.85-22.88z" fill="#ebdbb2"/>
    </g>
    <g opacity=".2">
      <path d="m126.8 76.23c-8.426 0.199-16.67 2.513-23.97 6.728-16.16 9.346-25.82 26.88-25.08 45.53 0.336-17.6 9.849-33.75 25.08-42.57 11.55-6.671 25.28-8.479 38.17-5.026 12.89 3.454 23.88 11.88 30.54 23.44 4.072 7.074 6.361 15.03 6.67 23.19 0.199-9.16-2.107-18.2-6.67-26.15-9.197-15.93-26.36-25.57-44.75-25.14z" fill="#ebdbb2"/>
    </g>
  </g>
  <defs>
    <linearGradient id="linearGradient31" x1=".5002" x2=".5002" y2="1" gradientTransform="matrix(244,0,0,228,5.986,12)" gradientUnits="userSpaceOnUse">
      <stop stop-color="#928374" offset="0"/>
      <stop stop-color="#928374" stop-opacity=".09804" offset=".1"/>
      <stop stop-opacity=".09804" offset=".9"/>
      <stop stop-opacity=".498" offset="1"/>
    </linearGradient>
  </defs>
  <g transform="translate(.009993 -.1091)" opacity=".4">
    <path transform="translate(-.004996 .116)" d="m91 12c-72 0-85 15-85 87v56c0 70 13 85 85 85h74c72 0 85-15 85-85v-56c0-72-13-87-85-87zm0 4h74c68 0 80 15 80 83v56c0 66-12 81-80 81h-74c-68 0-80-15-80-81v-56c0-68 12-83 80-83z" fill="url(#linearGradient31)" opacity="1"/>
  </g>
</svg>
