<svg width="256" height="256" style="isolation:isolate" version="1.1" xmlns="http://www.w3.org/2000/svg">
  <g filter="url(#a)">
    <linearGradient id="b" x1=".50002" x2=".50002" y1="-.00051239" y2="1" gradientTransform="matrix(244.65,0,0,228.34,5.676,11.947)" gradientUnits="userSpaceOnUse">
      <stop stop-color="#b16286" offset="0"/>
      <stop stop-color="#b16286" offset="1"/>
    </linearGradient>
    <path d="m165.68 11.947c72.707 0 84.639 12.053 84.639 84.544v59.251c0 72.561-11.932 84.543-84.639 84.543h-75.37c-72.294 0-84.639-11.982-84.639-84.543v-59.251c0-72.491 12.329-84.544 84.639-84.544z" fill="url(#b)"/>
  </g>
  <defs>
    <filter id="a" x="-.042124" y="-.045133" width="1.0842" height="1.1078" color-interpolation-filters="sRGB">
      <feGaussianBlur in="SourceGraphic" stdDeviation="4.294"/>
      <feOffset dy="4" result="pf_100_offsetBlur"/>
      <feFlood flood-opacity=".4"/>
      <feComposite in2="pf_100_offsetBlur" operator="in" result="pf_100_dropShadow"/>
      <feBlend in="SourceGraphic" in2="pf_100_dropShadow"/>
    </filter>
    <filter id="g" x="-.061012" y="-.058993" width="1.122" height="1.118" color-interpolation-filters="sRGB">
      <feGaussianBlur stdDeviation="1.096"/>
    </filter>
    <radialGradient id="h" cx="27.638" cy="264.03" r="13.175" gradientTransform="matrix(1.2548 -.014 .01468 1.3176 -9.751 -85.304)" gradientUnits="userSpaceOnUse">
      <stop stop-color="#ebdbb2" offset="0"/>
      <stop stop-color="#458588" offset="1"/>
    </radialGradient>
    <radialGradient id="i" cx="41.095" cy="272.14" r="13.175" gradientTransform="matrix(-.30644 -.76788 .61418 -.24543 -110.96 371.59)" gradientUnits="userSpaceOnUse">
      <stop stop-color="#ebdbb2" offset="0"/>
      <stop stop-color="#458588" stop-opacity="0" offset="1"/>
    </radialGradient>
    <linearGradient id="n" x1="127.64" x2="127.3" y1="159.87" y2="140.36" gradientUnits="userSpaceOnUse">
      <stop stop-color="#ebdbb2" offset="0"/>
      <stop stop-color="#d5c4a1" offset="1"/>
    </linearGradient>
  </defs>
  <g opacity=".4">
    <linearGradient id="c" x1=".517" x2=".517" y2="1" gradientTransform="matrix(244.65,0,0,228.34,5.68,11.95)" gradientUnits="userSpaceOnUse">
      <stop stop-color="#d5c4a1" offset="0"/>
      <stop stop-color="#ebdbb2" stop-opacity=".098" offset=".125"/>
      <stop stop-color="#282828" stop-opacity=".098039" offset=".925"/>
      <stop stop-color="#282828" stop-opacity=".49804" offset="1"/>
    </linearGradient>
    <path d="m165.07 11.951c4.328-0.01 8.656 0.04 12.984 0.138 3.875 0.078 7.7436 0.25854 11.62 0.48454 3.453 0.196 6.8876 0.5327 10.33 0.9057 3.06 0.335 6.0892 0.83409 9.1192 1.3941 2.7131 0.50032 5.3525 1.181 7.9999 1.9571 2.3983 0.69679 4.7544 1.61 7.0323 2.6338 2.1121 0.94124 4.0427 2.0439 5.9631 3.3319 1.8405 1.2399 3.5996 2.7014 5.1741 4.2652 1.5652 1.5692 2.886 3.1628 4.1277 4.9987 1.2864 1.9174 2.4086 3.8707 3.3603 5.9744 1.0207 2.2746 1.9193 4.5772 2.628 6.9675 0.77696 2.6443 1.4779 5.3272 1.9787 8.0374 0.56201 3.0246 1.0626 6.0601 1.3989 9.1181 0.374 3.439 0.70873 6.8493 0.90573 10.297 0.226 3.861 0.42171 7.7394 0.51071 11.6 0.088 4.323 0.138 8.646 0.128 12.96v58.21c0.01 4.324-0.04 8.637-0.128 12.96-0.085 3.8668-0.28821 7.7331-0.51114 11.595-0.19655 3.4488-0.53822 6.9467-0.91224 10.38-0.33634 3.0613-0.82936 6.0316-1.3914 9.0596-0.50199 2.7066-1.1867 5.3458-1.9626 7.987-0.7071 2.3908-1.5665 4.6263-2.5888 6.9002-0.94995 2.1048-2.1624 4.2292-3.4512 6.1454-1.2392 1.8377-2.5377 3.3902-4.1052 4.9572-1.5746 1.5638-3.412 3.0712-5.2525 4.3111-1.9201 1.2879-3.8611 2.3701-5.9729 3.3114-2.3498 1.0736-4.5744 1.8717-6.9323 2.584-2.6776 0.81656-5.2934 1.4166-7.976 1.948-3.0309 0.56603-6.051 1.0612-9.1165 1.3921-3.5041 0.40869-6.8203 0.68433-10.336 0.90377-3.875 0.226-7.789 0.40013-11.665 0.48813-4.328 0.088-8.6314 0.15082-12.959 0.14082h-74.126c-4.328 0.01-8.6566-0.0545-12.985-0.14247-3.9049-0.0955-7.7449-0.24667-11.628-0.49085-3.4941-0.21923-7.0445-0.5149-10.452-0.92805-3.1873-0.37665-5.9337-0.7937-8.9951-1.3902-2.833-0.56139-5.3421-1.1637-7.9464-1.9566-2.4295-0.73175-4.8105-1.6266-7.0523-2.6548-2.139-0.97893-4.0617-2.0635-5.9983-3.3731-1.8405-1.2399-3.5141-2.6495-5.0886-4.2133-1.5676-1.5671-2.9061-3.1787-4.1454-5.0164-1.2884-1.9162-2.4021-3.8332-3.3518-5.9379-1.0223-2.2739-1.9238-4.5236-2.6309-6.9144-0.77585-2.6412-1.4977-5.3053-1.9996-8.0119-0.56202-3.028-1.0938-6.1087-1.4301-9.17-0.37402-3.4341-0.72617-6.8459-0.92272-10.295-0.22292-3.8613-0.42179-7.7427-0.50684-11.61-0.09185-4.3194-0.13452-8.6396-0.128-12.96v-58.21c-0.01-4.314 0.04-8.637 0.128-12.96 0.089-3.86 0.28015-7.7353 0.50615-11.596 0.197-3.448 0.54883-6.857 0.92283-10.296 0.335-3.055 0.87336-6.1638 1.4344-9.1898 0.50085-2.7102 1.1807-5.2262 1.9577-7.8705 0.70872-2.3902 1.7549-4.9868 2.7756-7.2614 0.95209-2.1037 1.9632-3.7998 3.2499-5.7172 1.2418-1.8358 2.594-3.4604 4.1593-5.0296 1.5745-1.5638 3.3273-3.0214 5.1678-4.2614 1.9201-1.2879 3.8238-2.3848 5.9356-3.3261 2.278-1.0238 4.5428-1.9236 6.9411-2.6204 2.6474-0.77617 5.2743-1.4761 7.9874-1.9764 3.0317-0.56124 6.1381-1.085 9.203-1.4208 3.443-0.373 6.8398-0.71288 10.293-0.90888 3.875-0.226 7.7331-0.41514 11.609-0.49314 4.328-0.098 8.6625-0.14613 12.991-0.13613zm0.01 4.009c4.298-0.01 8.597 0.039 12.895 0.127 3.827 0.089 7.6466 0.26854 11.474 0.48454 3.383 0.197 6.7724 0.43946 10.136 0.81246 2.971 0.315 5.9391 0.74869 8.8701 1.2987 2.5807 0.47339 5.1059 1.0723 7.6238 1.8101 2.2193 0.6492 4.4135 1.4563 6.5231 2.4032 1.9054 0.85272 3.7179 1.8543 5.4527 3.0153 1.6245 1.0927 3.1568 2.3505 4.5413 3.7347 1.3858 1.385 2.6374 2.8981 3.738 4.519 1.1601 1.7266 2.1737 3.5473 3.03 5.443 0.94487 2.1083 1.7467 4.2779 2.4 6.494 0.74152 2.5113 1.352 5.0594 1.829 7.634 0.54 2.928 0.974 5.875 1.298 8.842 0.374 3.36 0.65 6.73 0.846 10.11 0.217 3.822 0.374 7.634 0.453 11.456 0.088 4.293 0.137 8.577 0.137 12.87v58.212c0 4.293-0.049 8.577-0.137 12.87-0.082 3.8211-0.0546 7.643-0.27458 11.459-0.196 3.38-0.65042 6.7474-1.0244 10.117-0.3245 2.9589-0.75746 5.9049-1.298 8.832-0.47731 2.5747-1.0881 5.1228-1.83 7.634-0.65169 2.2166-1.4536 4.3863-2.4 6.494-0.8542 1.8968-1.8678 3.7176-3.03 5.443-1.0976 1.6263-2.349 3.1432-3.737 4.53-1.3876 1.3779-2.9027 2.6211-4.525 3.713-1.7345 1.161-3.564 2.1732-5.469 3.026-2.1078 0.95119-4.2802 1.7522-6.501 2.397-2.5179 0.7378-5.0723 1.3446-7.653 1.818-2.931 0.55-5.8828 0.98162-8.8538 1.3056-3.364 0.364-6.7562 0.64938-10.139 0.83638-3.827 0.216-7.6776 0.36018-11.505 0.43918-4.298 0.098-8.5724 0.14982-12.87 0.14982h-74.146c-4.298 0-8.5976-0.0545-12.896-0.15147-3.8291-0.082-7.6582-0.26152-11.482-0.48085-3.3834-0.19001-6.7587-0.42545-10.127-0.79268-2.97-0.32174-5.9265-0.7574-8.863-1.306-2.5807-0.47339-5.1351-1.0802-7.653-1.818-2.2208-0.64482-4.3673-1.4321-6.4751-2.3833-1.9053-0.85272-3.7547-1.8723-5.4895-3.0333-1.622-1.0922-3.1431-2.3423-4.5303-3.7205-1.3882-1.3864-2.64-2.903-3.738-4.529-1.1622-1.7254-2.1758-3.5462-3.03-5.443-0.94645-2.1077-1.7483-4.2774-2.4-6.494-0.74152-2.5113-1.352-5.0594-1.829-7.634-0.54054-2.9271-0.9735-5.8731-1.298-8.832-0.374-3.37-0.65-6.74-0.846-10.12-0.21993-3.8156-0.37096-7.6349-0.453-11.456-0.08992-4.2894-0.13559-8.5796-0.137-12.87v-58.212c0-4.293 0.049-8.577 0.137-12.87 0.079-3.822 0.236-7.634 0.453-11.456 0.197-3.38 0.472-6.75 0.846-10.11 0.324-2.967 0.757-5.914 1.298-8.842 0.47732-2.5747 1.0915-5.1375 1.8334-7.6487 0.65331-2.2161 1.4517-4.371 2.3966-6.4793 0.85634-1.8957 1.8699-3.7164 3.03-5.443 1.1003-1.6212 2.3515-3.1346 3.737-4.52 1.3849-1.3839 2.9002-2.6307 4.525-3.723 1.7345-1.161 3.564-2.1732 5.469-3.026 2.1096-0.94691 4.2817-1.7478 6.501-2.397 2.5179-0.7378 5.0723-1.3446 7.653-1.818 2.931-0.55 5.892-0.982 8.863-1.297 3.364-0.373 6.7432-0.64645 10.126-0.84345 3.8239-0.21443 7.6549-0.36667 11.484-0.45355 4.298-0.088 8.597-0.137 12.895-0.127z" fill="url(#c)" fill-rule="evenodd"/>
  </g>
  <g transform="matrix(3.7797 0 0 3.7797 1.4785 -2.3483)">
    <g opacity=".5">
      <g fill="#ebdbb2" opacity=".895">
        <path d="m33.076 16.783v34.396h1.058v-34.396zm2.209 10.451v13.494h0.794v-13.494zm2.09-5.954v25.401h0.794v-25.4zm2.117 7.938v9.525h0.794v-9.525zm2.108 3.175v3.175h0.793v-3.175zm2.099 1.191v0.794h0.794v-0.794zm-12.7-10.848v22.49h0.794v-22.49z"/>
        <path d="m52.14 22.868v22.225h0.793v-22.225z" opacity=".3"/>
        <path d="m50.032 23.662v20.638h0.794v-20.638z" opacity=".5"/>
        <path d="m47.906 28.425v11.112h0.794v-11.112z" opacity=".75"/>
        <path d="m45.79 29.218v9.525h0.793v-9.525z" opacity=".9"/>
        <path d="m54.256 16.783v34.396h0.794v-34.396zm2.09 6.879v20.638h0.794v-20.638z" opacity=".2"/>
        <path d="m58.463 28.425v11.112h0.794v-11.112z" opacity=".15"/>
        <path d="m60.58 29.218v9.525h0.793v-9.525z" opacity=".25"/>
        <path d="m62.67 21.28v25.401h0.793v-25.4z" opacity=".5"/>
        <path d="m28.882 24.06v19.843h0.794v-19.844zm-2.116 4.63v10.583h0.793v-10.584zm-2.117 1.322v7.938h0.794v-7.938zm-2.117 3.572v0.794h0.794v-0.794z"/>
        <path d="m20.416 32.658v2.646h0.793v-2.646z" opacity=".9"/>
        <path d="m18.299 29.35v9.261h0.794v-9.26z" opacity=".75"/>
        <path d="m16.182 21.413v25.137h0.794v-25.137zm-2.116 5.953v13.23h0.793v-13.23zm-2.117-4.63v22.49h0.794v-22.49zm-2.117-5.953v34.396h0.794v-34.396z" opacity=".5"/>
        <path d="m7.716 24.06v19.843h0.793v-19.844z"/>
        <path d="m5.599 29.35v9.261h0.794v-9.26z" opacity=".75"/>
        <path d="m3.482 32.658v2.646h0.794v-2.646z" opacity=".9"/>
      </g>
    </g>
    <g transform="matrix(1.0088,0,0,1.0088,-2.07,-229.2)" fill="#282828" filter="url(#g)" opacity=".3">
      <path d="m34.955 242.1c-9.336 0-16.923 9.673-17.38 21.77h0.692c0.454-11.704 7.77-20.962 16.688-20.962 8.919 0 16.236 9.258 16.69 20.962h0.692c-0.456-12.097-8.046-21.77-17.382-21.77z"/>
      <path d="m49.338 268.82c0 7.936-6.43 14.37-14.36 14.37-7.932 0-14.361-6.434-14.361-14.37 0-5.645 7.882-13.59 10.478-20.957 1.05-2.98 1.588-5.68 2.014-9.261 0.41 0.711 2.542 5.388 4.11 7.913 4.538 7.31 12.119 14.926 12.119 22.305z"/>
      <path d="m49.338 268.82c0 7.936-6.43 14.37-14.36 14.37-7.932 0-14.361-6.434-14.361-14.37 0-5.645 7.882-13.59 10.478-20.957 1.05-2.98 1.588-5.68 2.014-9.261 0.41 0.711 2.542 5.388 4.11 7.913 4.538 7.31 12.119 14.926 12.119 22.305z"/>
      <rect transform="matrix(-.99778 .06661 .06652 .99778 0 0)" x="-35.04" y="263.53" width="1.51" height="1.877" rx=".577" ry=".577"/>
      <path d="m47.46 263.58c0-0.584 0.605-1.057 1.351-1.057h1.08c0.746 0 1.35 0.473 1.35 1.057v12.586c0 0.584-0.604 1.057-1.35 1.057h-1.08c-0.746 0-1.35-0.473-1.35-1.057z"/>
      <path d="m54.58 275.64v-11.552c0-2.396-3.669-2.114-3.669-2.114-0.3 0.023-0.528 0.232-0.528 0.465v14.85c0 0.233 0.227 0.442 0.528 0.465 0 0 3.669 0.282 3.669-2.114z"/>
      <path d="m54.71 275.62s0.347 0.054 0.695-0.12c1.091-1.301 1.107-3.544 1.138-5.417-0.026-1.576-0.014-5.187-1.138-5.848-0.348-0.173-0.694-0.119-0.694-0.119-0.074 0.011-0.133 0.067-0.173 0.136a0.495 0.495 0 0 0-0.064 0.248l0.064 10.986c0.04 0.069 0.099 0.123 0.173 0.134zm-2.61-13.608c-0.19-0.021-0.286-0.034-0.477-0.043v15.778c0.19-8e-3 0.286-0.022 0.477-0.042z"/>
      <rect transform="matrix(.99778 .066605 -.066518 .99779 0 0)" x="34.77" y="258.8" width="1.51" height="1.877" rx=".577" ry=".577"/>
      <path d="m22.512 276.14c0 0.584-0.604 1.057-1.35 1.057h-1.08c-0.745 0-1.35-0.473-1.35-1.057v-12.585c0-0.584 0.605-1.058 1.35-1.058h1.08c0.746 0 1.35 0.474 1.35 1.058z"/>
      <path d="m15.393 264.08v11.552c0 2.396 3.669 2.114 3.669 2.114 0.3-0.023 0.528-0.232 0.528-0.464v-14.851c0-0.233-0.227-0.442-0.528-0.465 0 0-3.669-0.282-3.669 2.114z"/>
      <path d="m15.262 264.1s-0.346-0.054-0.694 0.119c-1.091 1.302-1.107 3.545-1.138 5.417 0.026 1.576 0.014 5.188 1.138 5.848 0.348 0.173 0.694 0.12 0.694 0.12 0.074-0.012 0.133-0.068 0.173-0.137a0.495 0.495 0 0 0 0.064-0.247l-0.064-10.986c-0.04-0.07-0.099-0.123-0.173-0.134zm2.611 13.608c0.191 0.02 0.286 0.034 0.477 0.042v-15.779c-0.19 8e-3 -0.286 0.022-0.477 0.043z"/>
      <path d="m35.44 264.02c-4.807 0-9.42 0.428-13.716 1.208v1.066c4.285-0.792 8.901-1.228 13.717-1.228 4.47 0 8.768 0.378 12.79 1.065v-1.065a77.419 77.419 0 0 0-12.79-1.046z"/>
      <path d="m33.755 264.58-0.136 0.01-10.926 0.768-4e-3 0.13s-0.015 0.513 2e-3 1.146c0.017 0.634 0.064 1.387 0.202 1.898 0.154 0.569 0.436 1.105 0.784 1.573 0.457 0.615 1.016 1.196 1.692 1.587 0.704 0.407 1.444 0.659 2.346 0.711 1.489 0.086 2.235-0.045 3.656-0.29 1.192-0.204 2.226-0.949 2.471-1.991 0.206-0.874 0.183-2.213 0.115-3.347-0.068-1.135-0.185-2.06-0.185-2.06zm2.444 0-0.017 0.135s-0.117 0.925-0.185 2.06c-0.068 1.134-0.09 2.473 0.115 3.346 0.245 1.043 1.28 1.787 2.471 1.992 1.42 0.244 2.167 0.376 3.656 0.29a5.124 5.124 0 0 0 2.348-0.712c0.676-0.39 1.233-0.972 1.69-1.587 0.348-0.467 0.63-1.003 0.784-1.572 0.138-0.511 0.185-1.264 0.202-1.898s2e-3 -1.146 2e-3 -1.146l-4e-3 -0.13z"/>
      <path transform="matrix(1.09,0,0,1.0907,-1.602,-25.691)" d="m32.321 266.27-9.903 0.696s-0.057 1.864 0.183 2.75c0.136 0.503 0.386 0.98 0.697 1.398 0.412 0.555 0.913 1.073 1.512 1.42a4.554 4.554 0 0 0 2.095 0.634c1.355 0.079 2.019-0.04 3.322-0.264 1.054-0.181 1.952-0.837 2.162-1.725 0.361-1.537-0.068-4.91-0.068-4.91zm2.475 0s-0.429 3.372-0.067 4.909c0.21 0.888 1.108 1.544 2.161 1.725 1.303 0.224 1.968 0.343 3.323 0.264a4.554 4.554 0 0 0 2.095-0.635c0.598-0.346 1.099-0.864 1.511-1.419 0.311-0.417 0.561-0.895 0.698-1.397 0.24-0.887 0.182-2.751 0.182-2.751z" stroke="#282828" stroke-width=".265"/>
    </g>
    <g transform="matrix(1.0088,0,0,1.0088,-2.07,-229.2)">
      <path d="m34.955 242.1c-9.336 0-16.923 9.673-17.38 21.77h0.692c0.454-11.704 7.77-20.962 16.688-20.962 8.919 0 16.236 9.258 16.69 20.962h0.692c-0.456-12.097-8.046-21.77-17.382-21.77z" fill="#282828"/>
      <path d="m49.338 268.82c0 7.936-6.43 14.37-14.36 14.37-7.932 0-14.361-6.434-14.361-14.37 0-5.645 7.882-13.59 10.478-20.957 1.05-2.98 1.588-5.68 2.014-9.261 0.41 0.711 2.542 5.388 4.11 7.913 4.538 7.31 12.119 14.926 12.119 22.305z" fill="url(#h)"/>
      <path d="m49.338 268.82c0 7.936-6.43 14.37-14.36 14.37-7.932 0-14.361-6.434-14.361-14.37 0-5.645 7.882-13.59 10.478-20.957 1.05-2.98 1.588-5.68 2.014-9.261 0.41 0.711 2.542 5.388 4.11 7.913 4.538 7.31 12.119 14.926 12.119 22.305z" fill="url(#i)"/>
      <rect transform="matrix(-.99778 .06661 .06652 .99778 0 0)" x="-35.04" y="263.53" width="1.51" height="1.877" rx=".577" ry=".577" fill="#282828"/>
      <path transform="matrix(-1.09,0,0,-1.0907,71.182,565.41)" d="m21.763 276.72c0 0.536-0.555 0.97-1.24 0.97h-0.99c-0.684 0-1.239-0.434-1.239-0.97v-11.538c0-0.536 0.555-0.97 1.24-0.97h0.99c0.684 0 1.239 0.434 1.239 0.97z" fill="#1d2021"/>
      <path transform="matrix(-1.09,0,0,-1.0907,71.182,565.41)" d="m15.23 265.67v10.591c0 2.197 3.367 1.938 3.367 1.938 0.276-0.02 0.485-0.212 0.485-0.426v-13.615c0-0.213-0.21-0.405-0.485-0.426 0 0-3.366-0.259-3.366 1.938z" fill="#1d2021"/>
      <g fill="#282828">
        <path d="m54.71 275.62s0.347 0.054 0.695-0.12c1.091-1.301 1.107-3.544 1.138-5.417-0.026-1.576-0.014-5.187-1.138-5.848-0.348-0.173-0.694-0.119-0.694-0.119-0.074 0.011-0.133 0.067-0.173 0.136a0.495 0.495 0 0 0-0.064 0.248l0.064 10.986c0.04 0.069 0.099 0.123 0.173 0.134z"/>
        <path d="m52.1 262.01c-0.19-0.021-0.286-0.034-0.477-0.043v15.778c0.19-8e-3 0.286-0.022 0.477-0.042z"/>
        <rect transform="matrix(.99778 .066605 -.066518 .99779 0 0)" x="34.77" y="258.8" width="1.51" height="1.877" rx=".577" ry=".577"/>
      </g>
      <path transform="matrix(1.09,0,0,1.0907,-1.209,-25.691)" d="m21.763 276.72c0 0.536-0.555 0.97-1.24 0.97h-0.99c-0.684 0-1.239-0.434-1.239-0.97v-11.538c0-0.536 0.555-0.97 1.24-0.97h0.99c0.684 0 1.239 0.434 1.239 0.97z" fill="#1d2021"/>
      <path transform="matrix(1.09,0,0,1.0907,-1.209,-25.691)" d="m15.23 265.67v10.591c0 2.197 3.367 1.938 3.367 1.938 0.276-0.02 0.485-0.212 0.485-0.426v-13.615c0-0.213-0.21-0.405-0.485-0.426 0 0-3.366-0.259-3.366 1.938z" fill="#1d2021"/>
      <path d="m15.262 264.1s-0.346-0.054-0.694 0.119c-1.091 1.302-1.107 3.545-1.138 5.417 0.026 1.576 0.014 5.188 1.138 5.848 0.348 0.173 0.694 0.12 0.694 0.12 0.074-0.012 0.133-0.068 0.173-0.137a0.495 0.495 0 0 0 0.064-0.247l-0.064-10.986c-0.04-0.07-0.099-0.123-0.173-0.134z" fill="#282828"/>
      <path d="m17.873 277.71c0.191 0.02 0.286 0.034 0.477 0.042v-15.779c-0.19 8e-3 -0.286 0.022-0.477 0.043z" fill="#282828"/>
      <path d="m33.628 264.73-10.794 0.76s-0.063 2.033 0.2 3.001c0.148 0.548 0.42 1.069 0.759 1.524 0.45 0.605 0.995 1.17 1.648 1.548a4.961 4.961 0 0 0 2.283 0.693c1.477 0.085 2.2-0.045 3.622-0.289 1.148-0.197 2.128-0.913 2.356-1.881 0.394-1.676-0.074-5.356-0.074-5.356zm2.697 0s-0.467 3.68-0.072 5.356c0.228 0.968 1.207 1.684 2.355 1.881 1.421 0.244 2.145 0.374 3.622 0.289a4.962 4.962 0 0 0 2.284-0.693c0.652-0.377 1.197-0.943 1.647-1.548 0.339-0.455 0.612-0.976 0.76-1.524 0.262-0.968 0.2-3 0.2-3z" fill="none"/>
      <path transform="matrix(.26228 0 0 .26228 2.052 227.21)" d="m122.32 143.16a439.11 439.11 0 0 0-43.082 2.82c-0.093 0.83-0.17 1.626-0.17 2.481 0 12.421 10.079 22.5 22.5 22.5 12.422 0 22.5-10.079 22.5-22.5 0-1.84-0.258-3.589-0.675-5.3-0.357 3e-3 -0.716-0.01-1.073 0zm5.426 0c-0.417 1.712-0.678 3.46-0.678 5.301 0 12.421 10.079 22.5 22.5 22.5 12.422 0 22.5-10.079 22.5-22.5 0-0.855-0.075-1.65-0.168-2.48a439.15 439.15 0 0 0-43.083-2.82c-0.357-0.01-0.714 3e-3 -1.07 0z" fill="url(#n)"/>
      <path d="m35.44 264.02c-4.807 0-9.42 0.428-13.716 1.208v1.066c4.285-0.792 8.901-1.228 13.717-1.228 4.47 0 8.768 0.378 12.79 1.065v-1.065a77.419 77.419 0 0 0-12.79-1.046z" fill="#282828"/>
    </g>
  </g>
</svg>
