<svg width="256" height="256" style="isolation:isolate" version="1.1" xmlns="http://www.w3.org/2000/svg">
  <g transform="translate(.007136 -.1198)" filter="url(#a)">
    <linearGradient id="b" x1=".5002" x2=".5002" y2="1" gradientTransform="matrix(244,0,0,228,5.981,12.12)" gradientUnits="userSpaceOnUse">
      <stop stop-color="#ebdbb2" offset="0"/>
      <stop stop-color="#ebdbb2" offset="1"/>
    </linearGradient>
    <path d="m165 12.12c72 0 85 15 85 87v56c0 70-13 85-85 85h-74c-72 0-85-15-85-85v-56c0-72 13-87 85-87z" fill="url(#b)"/>
  </g>
  <g stroke-width=".38">
    <path d="m126.9 79.95c5.293-0.08739 10.6-0.114 15.9 0.01519 4.495 13.7 8.801 27.46 13.27 41.17 2.478 7.961 5.191 15.85 7.573 23.84-4.017 0.0722-8.037 0.0456-12.05 0.0228-1.9-5.635-3.602-11.34-5.392-17.01-7.452-0.1596-14.91-0.0418-22.36-0.0608-0.1824 0.4446-0.3686 0.8892-0.513 1.353-1.455 5.24-2.987 10.46-4.495 15.68-3.929 0.1026-7.866 0.0722-11.8 0.0114 0.1862-1.136 0.5092-2.246 0.893-3.329 4.153-13.58 8.307-27.17 12.46-40.75 2.223-6.962 4.131-14.03 6.521-20.94m7.794 8.447c-2.633 10.02-5.647 19.94-8.223 29.97 5.59 0.0798 11.18 0.0759 16.77 0-2.177-8.12-4.583-16.18-6.855-24.27-0.6194-1.885-0.9234-3.868-1.691-5.704z" fill="#ebdbb2" style="isolation:isolate"/>
    <path d="m193.2 83.56c3.211-0.3952 6.467-0.1938 9.694-0.133 0.1634 8.493 0.0227 16.99 0.0683 25.49 0 27.1 3e-3 54.21 0 81.32-0.019 2.018 0.0721 4.036-0.0647 6.053-41.81 0.0684-83.62-3e-3 -125.4 0.0342-2.481-9e-3 -5.206-0.2356-7.132-1.98-1.444-1.357-2.565-3.226-2.519-5.263-0.01141-4.469-0.0039-8.934-0.0075-13.4 3.192-2.136 6.445-4.176 9.64-6.304 1.425 0.1558 2.861 0.1482 4.294 0.1254 25.08-3e-3 50.16-3e-3 75.24-3e-3 12.05-0.0342 24.11 0.0722 36.16-0.0494 0.228-2.82 0.0418-5.647 0.095-8.47-0.0229-25.81 0.0456-51.61-0.0342-77.42z" fill="#9d0006" style="isolation:isolate"/>
    <path d="m53.02 72.38c8.155-5.301 16.32-10.58 24.46-15.9-0.0152 37.63 0.02661 75.27-0.019 112.9-3.196 2.128-6.448 4.169-9.64 6.304-4.115 2.561-8.177 5.214-12.21 7.915-0.7942 0.5548-1.649 1.011-2.542 1.383-0.03799-37.53 0.0532-75.07-0.0494-112.6z" fill="#fb4934" style="isolation:isolate"/>
    <path d="m77.47 56.48c35.98 0.0039 71.96-0.0075 107.9 0.0039 3.754 0.0494 7.372 3.006 7.68 6.84 0.1444 6.741-0.095 13.49 0.1178 20.24 0.0798 25.81 0.0114 51.61 0.0342 77.42-0.0533 2.823 0.133 5.65-0.095 8.47-12.05 0.1216-24.11 0.0153-36.16 0.0494-25.08 0-50.16 0-75.24 3e-3 -1.433 0.0229-2.869 0.0304-4.294-0.1254 0.0456-37.63 0.0039-75.27 0.019-112.9m49.43 23.47c-2.39 6.908-4.298 13.98-6.521 20.94-4.15 13.58-8.303 27.17-12.46 40.75-0.3838 1.083-0.7068 2.193-0.893 3.329 3.929 0.0608 7.866 0.0912 11.8-0.0114 1.509-5.225 3.04-10.44 4.495-15.68 0.1444-0.4636 0.3306-0.9082 0.513-1.353 7.452 0.0191 14.91-0.0988 22.36 0.0608 1.79 5.673 3.492 11.38 5.392 17.01 4.017 0.0228 8.037 0.0494 12.05-0.0227-2.383-7.991-5.096-15.88-7.573-23.84-4.469-13.71-8.774-27.47-13.27-41.17-5.293-0.1292-10.6-0.1026-15.9-0.0152z" fill="#cc241d" style="isolation:isolate"/>
    <path d="m134.7 88.4c0.7676 1.835 1.072 3.819 1.691 5.704 2.272 8.09 4.678 16.15 6.855 24.27-5.586 0.076-11.18 0.0798-16.77 0 2.576-10.03 5.59-19.95 8.223-29.97z" fill="#e51050" style="isolation:isolate"/>
  </g>
  <defs>
    <linearGradient id="linearGradient31" x1=".5002" x2=".5002" y2="1" gradientTransform="matrix(244,0,0,228,5.988,12.12)" gradientUnits="userSpaceOnUse">
      <stop stop-color="#d5c4a1" offset="0"/>
      <stop stop-color="#d5c4a1" stop-opacity=".09804" offset=".1"/>
      <stop stop-color="#282828" stop-opacity=".1" offset=".9"/>
      <stop stop-color="#282828" stop-opacity=".4" offset="1"/>
    </linearGradient>
  </defs>
  <g transform="translate(.007189 -.1198)" opacity=".5">
    <path d="m91 12.12c-72 0-85 15-85 87v56c0 70 13 85 85 85h74c72 0 85-15 85-85v-56c0-72-13-87-85-87zm0 4h74c68 0 80 15 80 83v56c0 66-12 81-80 81h-74c-68 0-80-15-80-81v-56c0-68 12-83 80-83z" fill="url(#linearGradient31)" opacity="1"/>
  </g>
</svg>
