<svg width="256" height="256" style="isolation:isolate" version="1.1" viewBox="0 0 256 256" xmlns="http://www.w3.org/2000/svg">
  <defs>
    <filter id="RTkllDXpTgCRQRaUCK6YezuamZ7BeWcy" x="-.04212" y="-.04513" width="1.084" height="1.108" color-interpolation-filters="sRGB">
      <feGaussianBlur in="SourceGraphic" stdDeviation="4.294"/>
      <feOffset dx="0" dy="4" result="pf_100_offsetBlur"/>
      <feFlood flood-opacity=".4"/>
      <feComposite in2="pf_100_offsetBlur" operator="in" result="pf_100_dropShadow"/>
      <feBlend in="SourceGraphic" in2="pf_100_dropShadow"/>
    </filter>
  </defs>
  <g filter="url(#RTkllDXpTgCRQRaUCK6YezuamZ7BeWcy)">
    <path d="m165.7 11.95c74.06 0 84.64 10.56 84.64 84.54v59.25c0 73.99-10.58 84.54-84.64 84.54h-75.37c-74.06 0-84.64-10.56-84.64-84.54v-59.25c0-73.99 10.58-84.54 84.64-84.54h75.37z" fill="#fabd2f"/>
  </g>
  <defs>
    <filter id="zUWBiddUJvTekztFWxI7yXJmwQaCUzwj" x="-.04212" y="-.04513" width="1.084" height="1.108" color-interpolation-filters="sRGB">
      <feGaussianBlur in="SourceGraphic" stdDeviation="4.294"/>
      <feOffset dx="0" dy="4" result="pf_100_offsetBlur"/>
      <feFlood flood-opacity=".4"/>
      <feComposite in2="pf_100_offsetBlur" operator="in" result="pf_100_dropShadow"/>
      <feBlend in="SourceGraphic" in2="pf_100_dropShadow"/>
    </filter>
  </defs>
  <g filter="url(#zUWBiddUJvTekztFWxI7yXJmwQaCUzwj)">
    <linearGradient id="_lgradient_60" x1=".5" x2=".5" y2="1" gradientTransform="matrix(244.6 0 0 228.3 5.68 11.95)" gradientUnits="userSpaceOnUse">
      <stop stop-color="#8ec07c" offset="0"/>
      <stop stop-color="#83a598" offset="1"/>
    </linearGradient>
    <path d="m165.7 11.95c74.06 0 84.64 10.56 84.64 84.54v59.25c0 73.99-10.58 84.54-84.64 84.54h-75.37c-74.06 0-84.64-10.56-84.64-84.54v-59.25c0-73.99 10.58-84.54 84.64-84.54h75.37z" fill="url(#_lgradient_60)"/>
  </g>
  <g opacity=".4">
    <linearGradient id="_lgradient_61" x2="0" y2="1" gradientTransform="matrix(61.45 0 0 97.3 50.16 142.3)" gradientUnits="userSpaceOnUse">
      <stop stop-color="#ebdbb2" offset="0"/>
      <stop stop-color="#d5c4a1" offset="1"/>
    </linearGradient>
    <path d="m63.54 239.4c0.55 0.036 1.021 0.098 1.581 0.131 0.435 0.025 1.027 0.011 1.468 0.035l-0.039-7.592 26.63-24.46v-8.156l12.29-12.23v-6.115l6.144-6.117v-16.31l-8.193-8.156h-16.39l-8.193-8.154h-20.48l-8.195 8.154v20.39l16.44 14.34-0.055 18.28-6.144 6.117v26.5l3.134 3.35z" fill="url(#_lgradient_61)"/>
    <linearGradient id="_lgradient_62" x2="0" y2="1" gradientTransform="matrix(12.29 0 0 8.156 93.18 81.15)" gradientUnits="userSpaceOnUse">
      <stop stop-color="#ebdbb2" offset="0"/>
      <stop stop-color="#d5c4a1" offset="1"/>
    </linearGradient>
    <path d="m99.32 81.15-6.144 6.117h6.144l2.049 2.039h2.048l2.049-2.039-6.146-6.117z" fill="url(#_lgradient_62)"/>
    <linearGradient id="_lgradient_63" x2="0" y2="1" gradientTransform="matrix(96.27 0 0 102 138.2 109.7)" gradientUnits="userSpaceOnUse">
      <stop stop-color="#ebdbb2" offset="0"/>
      <stop stop-color="#d5c4a1" offset="1"/>
    </linearGradient>
    <path d="m177.2 109.7h-24.58l-14.34 14.27v20.39l10.24 10.19h14.34l6.145 6.116v6.116l4.097 4.077v24.46l15.56 16.36 25.69-25.57-0.277-23.42 20.48-20.39h-8.194l-20.48-20.39v-8.155h-24.58l-4.097-4.078z" fill="url(#_lgradient_63)"/>
    <linearGradient id="_lgradient_64" x2="0" y2="1" gradientTransform="matrix(102.4 0 0 104.8 148.5 33.39)" gradientUnits="userSpaceOnUse">
      <stop stop-color="#ebdbb2" offset="0"/>
      <stop stop-color="#d5c4a1" offset="1"/>
    </linearGradient>
    <path d="m250.9 117.8v-21.47c0-9.248-0.167-17.5-0.603-24.88-0.218-3.684-0.503-7.146-0.869-10.4s-0.812-6.298-1.352-9.147c-0.54-2.848-1.174-5.501-1.914-7.97-0.739-2.469-1.585-4.756-2.551-6.871-0.614-1.347-1.365-2.511-2.08-3.723l-2.922 2.908h-12.29l-12.29 12.23-8.193-8.155h-24.58l-12.29 12.23v10.19h12.29v-6.117h8.193v8.156l-4.098 4.076-16.38 0.276-6.146 5.841h-8.193v8.155l-6.146 6.117v12.23h12.29l8.195-8.154h8.193v4.078l8.192 8.155h4.098v-4.079l-8.193-8.154h8.193l8.192 8.154h10.24l-6.144-6.115 6.144-6.115h6.146l6.144 6.115h-6.144l-6.146 6.115 6.034 6.006 0.112 6.227h-8.193l24.58 24.46h4.095l4.097-4.076 8.193-8.157-8.193-8.154h12.29z" fill="url(#_lgradient_64)"/>
    <linearGradient id="_lgradient_65" x2="0" y2="1" gradientTransform="matrix(6.145 0 0 12.23 156.7 58.72)" gradientUnits="userSpaceOnUse">
      <stop stop-color="#ebdbb2" offset="0"/>
      <stop stop-color="#d5c4a1" offset="1"/>
    </linearGradient>
    <path d="m156.7 70.95v-6.116l6.145-6.116v12.23h-6.145z" fill="url(#_lgradient_65)"/>
    <linearGradient id="_lgradient_66" x2="0" y2="1" gradientTransform="matrix(8.194 0 0 20.39 220.2 170.9)" gradientUnits="userSpaceOnUse">
      <stop stop-color="#ebdbb2" offset="0"/>
      <stop stop-color="#d5c4a1" offset="1"/>
    </linearGradient>
    <path d="m220.2 191.2v-12.78l8.194-7.604v20.39h-8.194z" fill="url(#_lgradient_66)"/>
    <linearGradient id="_lgradient_67" x2="0" y2="1" gradientTransform="matrix(55.3 0 0 48.93 80.89 11.83)" gradientUnits="userSpaceOnUse">
      <stop stop-color="#ebdbb2" offset="0"/>
      <stop stop-color="#d5c4a1" offset="1"/>
    </linearGradient>
    <path d="m136.2 11.83h-46.06c-0.789 0-1.348 0.049-2.123 0.051l-7.125 8.104 12.29 12.23v12.78l14.34 15.76h8.193v-8.154l12.29-12.23v-8.156l8.193-8.154v-12.23z" fill="url(#_lgradient_67)"/>
    <linearGradient id="_lgradient_68" x2="0" y2="1" gradientTransform="matrix(12.29 0 0 6.116 126 56.68)" gradientUnits="userSpaceOnUse">
      <stop stop-color="#ebdbb2" offset="0"/>
      <stop stop-color="#d5c4a1" offset="1"/>
    </linearGradient>
    <path d="m126 56.68h6.146l6.145 6.116h-12.29v-6.116z" fill="url(#_lgradient_68)"/>
    <linearGradient id="_lgradient_69" x2="0" y2="1" gradientTransform="matrix(12.29 0 0 6.117 58.36 124)" gradientUnits="userSpaceOnUse">
      <stop stop-color="#ebdbb2" offset="0"/>
      <stop stop-color="#d5c4a1" offset="1"/>
    </linearGradient>
    <path d="m70.65 124h-6.145l-6.146 6.117h12.29v-6.117z" fill="url(#_lgradient_69)"/>
    <linearGradient id="_lgradient_70" x2="0" y2="1" gradientTransform="matrix(92.18 0 0 115.5 5.098 30.84)" gradientUnits="userSpaceOnUse">
      <stop stop-color="#ebdbb2" offset="0"/>
      <stop stop-color="#d5c4a1" offset="1"/>
    </linearGradient>
    <path d="m16 30.84c-0.107 0.152-0.245 0.268-0.35 0.422-1.217 1.788-2.301 3.732-3.267 5.848-0.965 2.115-1.811 4.402-2.551 6.871s-1.373 5.122-1.913 7.97c-0.54 2.849-0.986 5.893-1.352 9.147s-0.652 6.716-0.87 10.4c-0.436 7.37-0.602 15.63-0.602 24.88v21.47l8.193 8.154h12.29l20.48 20.39v-24.46l12.29-12.23h8.193l12.29-12.23h12.29l-6.144-6.117 12.29-14.27-12.29-12.23h-18.44v16.31h-8.193l-8.195-8.155v-8.154l12.29-12.23h10.24v-8.157l-12.29-12.23h-20.48v12.23h-10.24l-13.68-13.61z" fill="url(#_lgradient_70)"/>
    <linearGradient id="_lgradient_71" x2="0" y2="1" gradientTransform="matrix(28.25 0 0 11.67 38.3 12.4)" gradientUnits="userSpaceOnUse">
      <stop stop-color="#ebdbb2" offset="0"/>
      <stop stop-color="#d5c4a1" offset="1"/>
    </linearGradient>
    <path d="m66.55 12.4c-0.429 0.023-1.005 8e-3 -1.429 0.033-3.705 0.217-7.189 0.5-10.46 0.863-3.272 0.364-6.334 0.808-9.199 1.344-2.559 0.479-4.906 1.063-7.159 1.699l7.765 7.729h20.48v-11.67z" fill="url(#_lgradient_71)"/>
  </g>
  <g opacity=".4">
    <linearGradient id="_lgradient_72" x1=".517" x2=".517" y2="1" gradientTransform="matrix(244.6 0 0 228.3 5.68 11.95)" gradientUnits="userSpaceOnUse">
      <stop stop-color="#ebdbb2" offset="0"/>
      <stop stop-color="#ebdbb2" stop-opacity=".098" offset=".125"/>
      <stop stop-color="#282828" stop-opacity=".098" offset=".925"/>
      <stop stop-color="#282828" stop-opacity=".498" offset="1"/>
    </linearGradient>
    <path d="m165.1 11.95c4.328-0.01 8.656 0.04 12.98 0.138 3.875 0.078 7.751 0.226 11.63 0.452 3.453 0.196 6.905 0.481 10.35 0.854 3.059 0.335 6.118 0.786 9.148 1.346 2.715 0.502 5.4 1.14 8.046 1.916 2.4 0.698 4.751 1.562 7.023 2.584 2.115 0.943 4.141 2.063 6.059 3.35 1.84 1.238 3.561 2.653 5.135 4.215 1.564 1.572 2.98 3.282 4.219 5.119 1.289 1.916 2.41 3.94 3.364 6.042 1.023 2.28 1.889 4.618 2.597 7.005 0.777 2.643 1.417 5.325 1.918 8.037 0.561 3.026 1.013 6.072 1.348 9.127 0.374 3.439 0.659 6.878 0.856 10.33 0.226 3.861 0.373 7.732 0.462 11.59 0.088 4.323 0.138 8.646 0.128 12.96v58.21c0.01 4.323-0.04 8.636-0.128 12.96-0.089 3.871-0.236 7.732-0.462 11.59-0.197 3.448-0.482 6.897-0.856 10.33-0.335 3.055-0.787 6.111-1.348 9.137-0.501 2.702-1.141 5.384-1.918 8.027-0.708 2.387-1.574 4.735-2.597 7.005-0.954 2.112-2.075 4.126-3.364 6.042-1.239 1.837-2.655 3.557-4.219 5.119-1.574 1.562-3.295 2.977-5.135 4.215-1.918 1.287-3.944 2.407-6.059 3.35-2.272 1.022-4.623 1.886-7.023 2.594-2.646 0.776-5.331 1.414-8.046 1.906-3.03 0.569-6.089 1.011-9.148 1.346-3.443 0.373-6.895 0.658-10.35 0.854-3.875 0.226-7.751 0.374-11.63 0.462-4.328 0.088-8.656 0.138-12.98 0.128h-74.13c-4.328 0.01-8.656-0.04-12.98-0.128-3.875-0.088-7.751-0.236-11.63-0.462-3.453-0.196-6.905-0.481-10.35-0.854-3.059-0.335-6.118-0.777-9.148-1.346-2.715-0.492-5.4-1.13-8.046-1.906-2.4-0.708-4.751-1.572-7.023-2.594-2.115-0.943-4.141-2.063-6.059-3.35-1.84-1.238-3.561-2.653-5.135-4.215-1.564-1.562-2.98-3.282-4.219-5.119-1.289-1.916-2.41-3.93-3.364-6.042-1.023-2.27-1.889-4.618-2.597-7.005-0.777-2.643-1.417-5.325-1.918-8.027-0.561-3.026-1.013-6.082-1.348-9.137-0.374-3.429-0.659-6.878-0.856-10.33-0.226-3.861-0.373-7.722-0.462-11.59-0.088-4.323-0.138-8.636-0.128-12.96v-58.21c-0.01-4.313 0.04-8.636 0.128-12.96 0.089-3.861 0.236-7.732 0.462-11.59 0.197-3.448 0.482-6.887 0.856-10.33 0.335-3.055 0.787-6.101 1.348-9.127 0.501-2.712 1.141-5.394 1.918-8.037 0.708-2.387 1.574-4.725 2.597-7.005 0.954-2.102 2.075-4.126 3.364-6.042 1.239-1.837 2.655-3.547 4.219-5.119 1.574-1.562 3.295-2.977 5.135-4.215 1.918-1.287 3.944-2.407 6.059-3.35 2.272-1.022 4.623-1.886 7.023-2.584 2.646-0.776 5.331-1.414 8.046-1.916 3.03-0.56 6.089-1.011 9.148-1.346 3.443-0.373 6.895-0.658 10.35-0.854 3.875-0.226 7.751-0.374 11.63-0.452 4.328-0.098 8.656-0.148 12.98-0.138h74.13zm0.01 4.009c4.298-0.01 8.597 0.039 12.9 0.127 3.827 0.089 7.653 0.236 11.48 0.452 3.384 0.197 6.767 0.472 10.13 0.845 2.971 0.315 5.932 0.747 8.863 1.297 2.577 0.472 5.134 1.081 7.653 1.818 2.223 0.648 4.396 1.454 6.501 2.397 1.909 0.855 3.738 1.867 5.469 3.026 1.623 1.091 3.138 2.338 4.525 3.724 1.387 1.385 2.636 2.898 3.738 4.519 1.16 1.729 2.174 3.547 3.029 5.443 0.945 2.112 1.751 4.284 2.4 6.494 0.748 2.515 1.348 5.06 1.83 7.634 0.541 2.928 0.974 5.875 1.298 8.842 0.374 3.36 0.65 6.73 0.846 10.11 0.217 3.822 0.374 7.634 0.453 11.46 0.088 4.293 0.137 8.577 0.137 12.87v58.21c0 4.293-0.049 8.577-0.137 12.87-0.079 3.822-0.236 7.644-0.453 11.46-0.196 3.38-0.472 6.75-0.846 10.12-0.324 2.957-0.757 5.904-1.298 8.832-0.482 2.574-1.082 5.119-1.83 7.634-0.649 2.22-1.455 4.382-2.4 6.494-0.855 1.896-1.869 3.724-3.029 5.443-1.102 1.631-2.351 3.144-3.738 4.529-1.387 1.376-2.902 2.623-4.525 3.714-1.731 1.159-3.56 2.171-5.469 3.026-2.105 0.953-4.278 1.749-6.501 2.397-2.519 0.737-5.076 1.346-7.653 1.818-2.931 0.55-5.892 0.982-8.863 1.306-3.364 0.364-6.747 0.649-10.13 0.836-3.826 0.216-7.652 0.373-11.48 0.452-4.298 0.098-8.597 0.137-12.9 0.137h-0.01-74.13-0.01c-4.298 0-8.597-0.039-12.9-0.137-3.827-0.079-7.653-0.236-11.48-0.452-3.384-0.187-6.767-0.472-10.13-0.836-2.971-0.324-5.932-0.756-8.863-1.306-2.577-0.472-5.134-1.081-7.653-1.818-2.223-0.648-4.396-1.444-6.501-2.397-1.909-0.855-3.738-1.867-5.469-3.026-1.623-1.091-3.138-2.338-4.525-3.714-1.387-1.385-2.636-2.898-3.738-4.529-1.16-1.719-2.174-3.547-3.029-5.443-0.945-2.112-1.751-4.274-2.4-6.494-0.748-2.515-1.348-5.06-1.83-7.634-0.541-2.928-0.974-5.875-1.298-8.832-0.374-3.37-0.649-6.74-0.846-10.12-0.217-3.812-0.374-7.634-0.453-11.46-0.088-4.293-0.137-8.577-0.137-12.87v-58.21c0-4.293 0.049-8.577 0.137-12.87 0.079-3.822 0.236-7.634 0.453-11.46 0.197-3.38 0.472-6.75 0.846-10.11 0.324-2.967 0.757-5.914 1.298-8.842 0.482-2.574 1.082-5.119 1.83-7.634 0.649-2.21 1.455-4.382 2.4-6.494 0.855-1.896 1.869-3.714 3.029-5.443 1.102-1.621 2.351-3.134 3.738-4.519 1.387-1.386 2.902-2.633 4.525-3.724 1.731-1.159 3.56-2.171 5.469-3.026 2.105-0.943 4.278-1.749 6.501-2.397 2.519-0.737 5.076-1.346 7.653-1.818 2.931-0.55 5.892-0.982 8.863-1.297 3.364-0.373 6.747-0.648 10.13-0.845 3.826-0.216 7.652-0.363 11.48-0.452 4.298-0.088 8.597-0.137 12.9-0.127h0.01 74.13 0.01z" fill="url(#_lgradient_72)" fill-rule="evenodd"/>
  </g>
  <defs>
    <filter id="1ElVfjXFOPDyN8J5MzQxWgUqRQwSv96D" x="-.08292" y="-.07107" width="1.166" height="1.142" color-interpolation-filters="sRGB">
      <feGaussianBlur stdDeviation="4.294"/>
    </filter>
  </defs>
  <g filter="url(#1ElVfjXFOPDyN8J5MzQxWgUqRQwSv96D)" opacity=".4">
    <path d="m138.4 101.1c0 15.24-12.75 13.8-28.48 13.8s-28.48 1.443-28.48-13.8c0-15.24 12.75-27.59 28.48-27.59s28.48 12.35 28.48 27.59zm-24.81 101.9h36.25c22.27 0 40.35-18.08 40.35-40.35v-7.338c0-20.88-15.9-38.09-36.25-40.14v-16.82c0-22.27-18.08-40.35-40.35-40.35h-7.338c-22.27 0-40.35 18.08-40.35 40.35v56.96 7.338c0 22.27 18.08 40.35 40.35 40.35h7.338zm-11.44-36.25c0 4.287 3.481 7.768 7.768 7.768s7.768-3.481 7.768-7.768v-11.28c1.611-1.826 2.589-4.224 2.589-6.848 0-5.716-4.641-10.36-10.36-10.36s-10.36 4.641-10.36 10.36c0 2.624 0.978 5.022 2.589 6.848v11.28z" fill-rule="evenodd"/>
  </g>
  <path d="m138.4 98.63c0 15.24-12.75 13.8-28.48 13.8s-28.48 1.443-28.48-13.8c0-15.24 12.75-27.59 28.48-27.59s28.48 12.35 28.48 27.59zm-24.81 101.9h36.25c22.27 0 40.35-18.08 40.35-40.35v-7.338c0-20.88-15.9-38.09-36.25-40.14v-16.82c0-22.27-18.08-40.35-40.35-40.35h-7.338c-22.27 0-40.35 18.08-40.35 40.35v56.96 7.338c0 22.27 18.08 40.35 40.35 40.35h7.338zm-11.44-36.25c0 4.287 3.481 7.768 7.768 7.768s7.768-3.481 7.768-7.768v-11.28c1.611-1.826 2.589-4.224 2.589-6.848 0-5.716-4.641-10.36-10.36-10.36s-10.36 4.641-10.36 10.36c0 2.624 0.978 5.022 2.589 6.848v11.28z" fill="#ebdbb2" fill-rule="evenodd"/>
</svg>
