<svg width="256" height="256" style="isolation:isolate" version="1.1" xmlns="http://www.w3.org/2000/svg">
  <g filter="url(#a)">
    <linearGradient id="b" x1=".5" x2=".5" y1="2.082e-17" y2="1" gradientTransform="matrix(244.6 0 0 228.3 5.676 11.95)" gradientUnits="userSpaceOnUse">
      <stop stop-color="#504945" offset="0"/>
      <stop stop-color="#3c3836" offset="1"/>
    </linearGradient>
    <path d="m165.7 11.95c74.06 0 84.64 10.56 84.64 84.54v59.25c0 73.99-10.58 84.54-84.64 84.54h-75.37c-74.06 0-84.64-10.56-84.64-84.54v-59.25c0-73.99 10.58-84.54 84.64-84.54z" fill="url(#b)"/>
  </g>
  <defs>
    <filter id="a" x="-.04212" y="-.04513" width="1.084" height="1.108" color-interpolation-filters="sRGB">
      <feGaussianBlur in="SourceGraphic" stdDeviation="4.294"/>
      <feOffset dy="4" result="pf_100_offsetBlur"/>
      <feFlood flood-opacity=".4"/>
      <feComposite in2="pf_100_offsetBlur" operator="in" result="pf_100_dropShadow"/>
      <feBlend in="SourceGraphic" in2="pf_100_dropShadow"/>
    </filter>
    <filter id="w3PNYmSU7M9YQV1cUNZoqMdSRZNEa0my" x="-.07644" y="-.07234" width="1.153" height="1.145" color-interpolation-filters="sRGB">
      <feGaussianBlur stdDeviation="4.294"/>
    </filter>
    <linearGradient id="_lgradient_93" x2="0" y2="1" gradientTransform="matrix(93.54 0 0 112.2 100.3 85.77)" gradientUnits="userSpaceOnUse">
      <stop stop-color="#fb4934" offset="0"/>
      <stop stop-color="#fb4934" offset=".5"/>
      <stop stop-color="#fb4934" offset="1"/>
    </linearGradient>
    <linearGradient id="_lgradient_94" x1=".187" x2=".19" y1=".005" y2=".999" gradientTransform="matrix(133.2 0 0 65.97 62.23 55.5)" gradientUnits="userSpaceOnUse">
      <stop stop-color="#83a598" offset="0"/>
      <stop stop-color="#458588" offset="1"/>
    </linearGradient>
    <linearGradient id="_lgradient_95" x2="0" y2="1" gradientTransform="matrix(66.31 0 0 99.06 61.63 98.14)" gradientUnits="userSpaceOnUse">
      <stop stop-color="#8ec07c" offset="0"/>
      <stop stop-color="#8ec07c" offset="1"/>
    </linearGradient>
    <linearGradient id="_lgradient_96" x2="0" y2="1" gradientTransform="matrix(84.77 0 0 100.9 86.27 79.78)" gradientUnits="userSpaceOnUse">
      <stop stop-color="#ebdbb2" offset="0"/>
      <stop stop-color="#d5c4a1" offset="1"/>
    </linearGradient>
  </defs>
  <g opacity=".4" style="isolation:isolate">
    <linearGradient id="c" x1=".517" x2=".517" y2="1" gradientTransform="matrix(244.6 0 0 228.3 5.68 11.95)" gradientUnits="userSpaceOnUse">
      <stop stop-color="#665c54" offset="0"/>
      <stop stop-color="#665c54" stop-opacity=".09804" offset=".125"/>
      <stop stop-opacity=".09804" offset=".925"/>
      <stop stop-opacity=".498" offset="1"/>
    </linearGradient>
    <path d="m165.1 11.95c4.328-0.01 8.655 0.01719 12.98 0.1152 3.875 0.078 7.739 0.2007 11.62 0.4267 3.453 0.196 6.908 0.4369 10.35 0.8099 3.06 0.335 6.139 0.713 9.169 1.273 2.713 0.5003 5.466 1.06 8.113 1.836 2.398 0.6968 4.776 1.462 7.054 2.486 2.112 0.9412 4.279 2.042 6.199 3.33 1.84 1.24 3.645 2.679 5.22 4.243 1.565 1.569 3.038 3.422 4.28 5.258 1.286 1.917 2.322 3.969 3.274 6.073 1.021 2.275 1.818 4.742 2.526 7.132 0.777 2.644 1.33 5.349 1.831 8.059 0.562 3.025 0.9336 6.024 1.27 9.082 0.374 3.439 0.6234 6.945 0.8204 10.39 0.226 3.861 0.3403 7.72 0.4293 11.58 0.088 4.323 0.1364 8.653 0.1264 12.97v58.21c0.01 4.324-0.0382 8.627-0.1262 12.95-0.085 3.867-0.2076 7.747-0.4305 11.61-0.1966 3.449-0.4396 6.887-0.8136 10.32-0.3363 3.061-0.716 6.121-1.278 9.149-0.502 2.707-1.078 5.496-1.854 8.137-0.7071 2.391-1.484 4.78-2.506 7.054-0.95 2.105-1.973 4.134-3.262 6.05-1.239 1.838-2.692 3.673-4.259 5.24-1.575 1.564-3.448 3.058-5.289 4.298-1.92 1.288-4.03 2.354-6.142 3.296-2.28 1.023-4.61 1.936-7.008 2.64-2.646 0.7775-5.443 1.193-8.157 1.685-3.031 0.566-6.097 0.9426-9.163 1.274-3.443 0.373-6.911 0.6159-10.36 0.8119-3.875 0.226-7.749 0.3393-11.62 0.4273-4.328 0.088-8.655 0.1332-12.98 0.1232h-74.13c-4.328 0.01-8.656-0.04-12.98-0.128-3.878-0.0853-7.754-0.2394-11.63-0.462-3.456-0.1964-6.906-0.4812-10.35-0.854-3.066-0.331-6.117-0.78-9.148-1.346-2.714-0.4923-5.4-1.128-8.046-1.906-2.397-0.7046-4.744-1.571-7.023-2.594-2.112-0.9412-4.14-2.062-6.06-3.35-1.84-1.24-3.911-2.331-5.486-3.894-1.568-1.567-3.068-3.465-4.307-5.303-1.288-1.916-2.313-3.969-3.263-6.074-1.022-2.274-1.799-4.698-2.506-7.088-0.7758-2.641-1.314-5.278-1.816-7.985-0.562-3.028-0.9482-6.114-1.284-9.175-0.374-3.434-0.6209-6.917-0.8174-10.37-0.2229-3.861-0.3442-7.713-0.4292-11.58-0.09185-4.319-0.1229-8.639-0.1164-12.96v-58.21c-0.01-4.314 0.02844-8.648 0.1164-12.97 0.089-3.86 0.2041-7.731 0.4301-11.59 0.197-3.448 0.4391-6.878 0.8131-10.32 0.335-3.055 0.7145-6.112 1.276-9.138 0.5008-2.71 1.063-5.45 1.84-8.094 0.7087-2.39 1.502-4.839 2.523-7.114 0.9521-2.104 2.004-4.176 3.291-6.094 1.242-1.836 2.722-3.684 4.287-5.253 1.574-1.564 3.389-2.999 5.229-4.239 1.92-1.288 4.013-2.348 6.125-3.289 2.278-1.024 4.695-1.806 7.093-2.502 2.647-0.7762 5.401-1.336 8.114-1.836 3.032-0.5612 6.073-0.9336 9.138-1.269 3.443-0.373 6.883-0.6374 10.34-0.8334 3.875-0.226 7.79-0.3282 11.67-0.4062 4.328-0.098 8.656-0.125 12.98-0.115zm0.01 4.009c4.298-0.01 8.596 0.01619 12.89 0.1042 3.827 0.089 7.642 0.2107 11.47 0.4267 3.383 0.197 6.768 0.4279 10.13 0.8009 2.971 0.315 5.953 0.674 8.884 1.224 2.581 0.4734 5.202 1.001 7.72 1.738 2.219 0.6492 4.422 1.352 6.532 2.299 1.905 0.8527 3.874 1.845 5.609 3.006 1.624 1.093 3.226 2.368 4.61 3.752 1.386 1.385 2.698 3.037 3.798 4.658 1.16 1.727 2.085 3.578 2.941 5.474 0.9449 2.108 1.676 4.405 2.329 6.621 0.7415 2.511 1.265 5.081 1.742 7.656 0.54 2.928 0.8959 5.83 1.22 8.797 0.374 3.36 0.6144 6.797 0.8104 10.18 0.217 3.822 0.3413 7.622 0.4203 11.44 0.088 4.293 0.1354 8.584 0.1354 12.88v58.21c0 4.293-0.0471 8.567-0.1352 12.86-0.082 3.821-0.2016 7.656-0.4215 11.47-0.196 3.38-0.4296 6.745-0.8036 10.12-0.3245 2.959-0.6874 5.917-1.228 8.844-0.4773 2.575-1.024 5.233-1.766 7.744-0.6517 2.217-1.363 4.435-2.309 6.543-0.8542 1.897-1.766 3.726-2.928 5.451-1.098 1.626-2.388 3.264-3.776 4.651-1.388 1.378-3.058 2.704-4.68 3.796-1.734 1.161-3.647 2.119-5.552 2.972-2.108 0.9512-4.265 1.799-6.486 2.444-2.518 0.7378-5.183 1.124-7.764 1.597-2.931 0.55-5.922 0.8279-8.893 1.152-3.364 0.364-6.748 0.6885-10.13 0.8755-3.827 0.216-7.652 0.3383-11.48 0.4173-4.298 0.098-8.596 0.1322-12.89 0.1322h-74.15c-4.298 0-8.597-0.04-12.9-0.137-3.829-0.082-7.656-0.2327-11.48-0.452-3.383-0.19-6.761-0.4688-10.13-0.836-2.97-0.3217-5.926-0.7574-8.863-1.306-2.581-0.4734-5.135-1.08-7.653-1.818-2.221-0.6448-4.393-1.446-6.501-2.397-1.905-0.8527-3.735-1.865-5.47-3.026-1.622-1.092-3.489-2.015-4.876-3.393-1.388-1.386-2.727-3.087-3.825-4.713-1.162-1.725-2.076-3.578-2.93-5.474-0.9464-2.108-1.657-4.361-2.309-6.578-0.7415-2.511-1.25-5.017-1.727-7.592-0.5405-2.927-0.91-5.911-1.234-8.87-0.374-3.37-0.6114-6.78-0.8074-10.16-0.2199-3.816-0.3382-7.621-0.4202-11.44-0.08992-4.289-0.124-8.579-0.1254-12.87v-58.21c0-4.293 0.03744-8.588 0.1254-12.88 0.079-3.822 0.2041-7.633 0.4211-11.46 0.197-3.38 0.4291-6.741 0.8031-10.1 0.324-2.967 0.6845-5.925 1.226-8.853 0.4773-2.575 1.01-5.18 1.752-7.691 0.6533-2.216 1.381-4.495 2.326-6.603 0.8563-1.896 1.796-3.768 2.957-5.495 1.1-1.621 2.418-3.269 3.804-4.654 1.385-1.384 2.995-2.655 4.62-3.747 1.734-1.161 3.63-2.112 5.535-2.965 2.11-0.9469 4.352-1.666 6.571-2.315 2.518-0.7378 5.141-1.265 7.721-1.738 2.931-0.55 5.882-0.9053 8.853-1.22 3.364-0.373 6.735-0.6274 10.12-0.8244 3.824-0.2144 7.691-0.3193 11.52-0.4062 4.298-0.088 8.597-0.114 12.9-0.104z" fill="url(#c)" fill-rule="evenodd"/>
  </g>
  <g transform="translate(.0001158 -1.272)" style="isolation:isolate">
    <path d="m128 56.77c-9.139 0-22.58 2.386-34.98 8.157-0.753 0.35-1.516 0.669-2.259 1.045-3.156 1.595-6.214 3.421-9.093 5.5-0.083 0.06-0.162 0.124-0.245 0.184-0.443 0.323-0.88 0.649-1.314 0.984-0.241 0.186-0.469 0.39-0.707 0.581-0.494 0.394-0.977 0.799-1.457 1.209-0.209 0.179-0.433 0.344-0.64 0.526-0.065 0.057-0.132 0.113-0.197 0.171-0.251 0.223-0.482 0.468-0.728 0.696-0.454 0.42-0.896 0.849-1.334 1.285-0.468 0.464-0.926 0.938-1.375 1.421-0.457 0.492-0.904 0.991-1.341 1.503-0.204 0.239-0.426 0.46-0.626 0.703-0.181 0.221-0.354 0.453-0.531 0.677-0.083 0.106-0.155 0.221-0.238 0.328-0.323 0.416-0.637 0.841-0.946 1.27-0.21 0.29-0.437 0.565-0.64 0.861-0.37 0.541-0.727 1.086-1.075 1.647v6e-3h-7e-3c-0.695 1.121-1.343 2.28-1.94 3.478-0.51 1.024-0.969 2.08-1.402 3.163-0.073 0.183-0.154 0.362-0.224 0.546-0.245 0.638-0.479 1.289-0.694 1.947-0.152 0.463-0.285 0.935-0.422 1.408-0.059 0.2-0.129 0.398-0.184 0.601-0.897 3.269-1.453 6.769-1.586 10.53-0.137 3.888 0.23 7.92 1 12.02 3.9 20.75 18.39 43.28 33.03 58.34 5.934 6.103 16.58 15.71 26.92 18.39 1.086 0.282 2.16 0.5 3.233 0.615 0.669 0.072 1.34 0.123 2 0.123 11.8 0 25.21-11.98 32.16-19.13 14.09-14.49 28.03-35.91 32.54-55.99 0.52-2.32 0.917-4.628 1.171-6.9 0.282-2.532 0.4-5.027 0.313-7.467-1.341-38.1-45.17-50.42-66.18-50.42zm-5.125 23.86c2.04-0.034 4.025 0.033 5.989 0.15-1.963-0.117-3.95-0.184-5.989-0.15zm0 0c-1.92 0.032-3.881 0.147-5.874 0.314 1.99-0.166 3.957-0.282 5.874-0.314zm7.602 0.273c1.5 0.123 2.978 0.299 4.437 0.513-1.46-0.214-2.936-0.389-4.437-0.513zm-15.03 0.205c-1.487 0.149-2.996 0.331-4.526 0.554 1.532-0.223 3.037-0.405 4.526-0.554zm21.01 0.533c1.819 0.309 3.616 0.676 5.377 1.127-1.762-0.451-3.557-0.818-5.377-1.127zm-27.52 0.328c-1.535 0.252-3.095 0.543-4.676 0.868 1.58-0.325 3.142-0.616 4.676-0.868zm34.11 1.148c1.4 0.387 2.784 0.819 4.152 1.298-1.367-0.479-2.753-0.911-4.152-1.298zm-40.49 0.061c-1.993 0.438-4.023 0.932-6.091 1.483 2.069-0.551 4.098-1.045 6.091-1.483zm46.37 1.872c1.42 0.542 2.825 1.134 4.213 1.776-1.39-0.642-2.792-1.233-4.213-1.776zm5.084 2.159c1.682 0.806 3.34 1.697 4.982 2.651-1.643-0.954-3.299-1.845-4.982-2.651zm6.344 3.484c1.222 0.745 2.436 1.53 3.641 2.357-1.205-0.827-2.419-1.612-3.641-2.357zm5.179 3.423c1.587 1.141 3.167 2.328 4.73 3.614-1.563-1.286-3.143-2.472-4.73-3.614zm-51.15 17.63c1.785 1.97 3.55 3.925 5.206 5.91-1.66-1.99-3.417-3.936-5.206-5.91zm6.118 7.016c0.578 0.715 1.131 1.451 1.681 2.186-0.55-0.735-1.104-1.47-1.681-2.186zm2.716 3.594c0.538 0.763 1.043 1.559 1.545 2.357-0.502-0.798-1.006-1.593-1.545-2.357zm2.443 3.785c0.755 1.3 1.47 2.642 2.11 4.064-0.64-1.422-1.354-2.764-2.11-4.064zm2.205 4.324c0.596 1.347 1.139 2.759 1.613 4.242-0.474-1.482-1.018-2.896-1.613-4.242zm2.042 5.862c0.303 1.089 0.597 2.194 0.83 3.368-0.233-1.175-0.525-2.28-0.83-3.368zm1.484 7.487c0.024 0.214 0.045 0.439 0.068 0.656-0.022-0.217-0.044-0.442-0.068-0.656zm0.258 10.62c-0.071 1.529-0.208 3.145-0.374 4.796 0.166-1.652 0.303-3.266 0.374-4.796zm-0.646 7.46c-0.237 1.864-0.575 3.851-0.933 5.876 0.358-2.023 0.696-4.013 0.933-5.876zm-1.375 8.478c-0.583 2.959-1.27 6.058-2.117 9.373 0.847-3.316 1.534-6.412 2.117-9.373z" fill="#504945"/>
    <g filter="url(#w3PNYmSU7M9YQV1cUNZoqMdSRZNEa0my)" opacity=".4">
      <path d="m128 58.04c-9.305 0-22.99 2.429-35.61 8.305-0.767 0.357-1.544 0.682-2.301 1.064-3.212 1.624-6.326 3.483-9.258 5.6-0.084 0.061-0.165 0.126-0.249 0.188-0.452 0.328-0.896 0.66-1.338 1.001-0.245 0.19-0.478 0.398-0.72 0.592-0.503 0.401-0.995 0.813-1.483 1.231-0.214 0.183-0.441 0.35-0.652 0.535-0.066 0.059-0.135 0.115-0.201 0.174-0.255 0.228-0.49 0.478-0.741 0.71-0.462 0.427-0.912 0.864-1.358 1.307-0.477 0.473-0.943 0.955-1.4 1.447-0.466 0.501-0.92 1.01-1.365 1.531-0.208 0.243-0.435 0.468-0.638 0.716-0.184 0.224-0.36 0.461-0.54 0.689-0.085 0.107-0.158 0.225-0.243 0.334-0.329 0.424-0.648 0.857-0.963 1.293-0.214 0.295-0.445 0.575-0.651 0.877-0.378 0.551-0.741 1.106-1.095 1.676v7e-3h-7e-3c-0.708 1.141-1.368 2.321-1.975 3.541-0.52 1.043-0.988 2.118-1.428 3.22-0.074 0.187-0.157 0.369-0.229 0.557-0.248 0.649-0.487 1.312-0.706 1.982-0.155 0.471-0.29 0.952-0.43 1.433-0.059 0.204-0.131 0.406-0.187 0.612-0.913 3.329-1.48 6.892-1.615 10.72-0.139 3.959 0.234 8.063 1.019 12.24 3.97 21.13 18.72 44.07 33.63 59.4 6.042 6.214 16.89 16 27.41 18.72 1.106 0.287 2.199 0.509 3.292 0.626 0.682 0.073 1.365 0.125 2.037 0.125 12.01 0 25.67-12.2 32.74-19.48 14.35-14.76 28.54-36.56 33.13-57.01 0.53-2.362 0.934-4.712 1.192-7.025 0.287-2.579 0.407-5.119 0.319-7.603-1.365-38.79-45.99-51.34-67.38-51.34zm-5.218 24.29c2.077-0.035 4.098 0.033 6.098 0.153-1.998-0.12-4.022-0.188-6.098-0.153zm0 0c-1.954 0.032-3.951 0.149-5.98 0.32 2.026-0.17 4.028-0.288 5.98-0.32zm7.741 0.278c1.527 0.125 3.032 0.304 4.518 0.522-1.487-0.218-2.99-0.397-4.518-0.522zm-15.3 0.209c-1.514 0.152-3.05 0.336-4.608 0.563 1.56-0.227 3.092-0.412 4.608-0.563zm21.39 0.542c1.852 0.314 3.681 0.689 5.474 1.148-1.794-0.46-3.622-0.834-5.474-1.148zm-28.02 0.334c-1.563 0.257-3.151 0.553-4.76 0.883 1.608-0.33 3.198-0.626 4.76-0.883zm34.73 1.169c1.426 0.394 2.835 0.834 4.228 1.321-1.392-0.487-2.803-0.927-4.228-1.321zm-41.22 0.062c-2.029 0.446-4.096 0.949-6.202 1.51 2.107-0.561 4.172-1.064 6.202-1.51zm47.21 1.906c1.445 0.552 2.875 1.155 4.289 1.809-1.415-0.655-2.843-1.256-4.289-1.809zm5.176 2.198c1.712 0.821 3.4 1.728 5.073 2.699-1.674-0.971-3.36-1.878-5.073-2.699zm6.458 3.548c1.245 0.758 2.481 1.558 3.708 2.399-1.227-0.841-2.463-1.641-3.708-2.399zm5.274 3.485c1.615 1.162 3.225 2.37 4.816 3.679-1.592-1.309-3.2-2.517-4.816-3.679zm-52.08 17.95c1.818 2.005 3.614 3.996 5.301 6.016-1.691-2.025-3.479-4.006-5.301-6.016zm6.23 7.143c0.588 0.728 1.151 1.478 1.711 2.226-0.56-0.748-1.124-1.497-1.711-2.226zm2.764 3.659c0.548 0.778 1.063 1.588 1.573 2.4-0.511-0.813-1.024-1.621-1.573-2.4zm2.488 3.854c0.769 1.324 1.497 2.69 2.148 4.138-0.651-1.448-1.378-2.814-2.148-4.138zm2.245 4.403c0.607 1.371 1.16 2.808 1.643 4.319-0.483-1.51-1.037-2.948-1.643-4.319zm2.079 5.968c0.309 1.109 0.609 2.234 0.846 3.429-0.238-1.196-0.535-2.321-0.846-3.429zm1.511 7.623c0.025 0.219 0.047 0.447 0.069 0.668-0.022-0.221-0.044-0.45-0.069-0.668zm0.263 10.82c-0.072 1.556-0.212 3.202-0.381 4.883 0.169-1.683 0.308-3.326 0.381-4.883zm-0.658 7.596c-0.241 1.898-0.585 3.92-0.949 5.982 0.364-2.059 0.708-4.086 0.949-5.982zm-1.4 8.632c-0.593 3.013-1.293 6.168-2.155 9.543 0.863-3.376 1.562-6.529 2.155-9.543z"/>
    </g>
    <path d="m134 85.77c-4.047-0.047-8.116 0.308-12.25 1.064-2e-3 1e-3 -5e-3 0-7e-3 0-6.889 1.261-13.95 3.638-21.36 7.13 1.014 1.668 2.063 3.244 3.139 4.744 1.075 1.5 2.179 2.92 3.291 4.292 7.786 9.6 16.17 16.5 21.01 27.27 1e-3 2e-3 -1e-3 5e-3 0 7e-3 2.419 5.381 3.953 11.73 4.082 19.86v7e-3c0.129 8.134-1.146 18.05-4.345 30.57-1.292 5.058-2.891 10.53-4.844 16.49 1.106 0.287 2.199 0.509 3.291 0.626 0.682 0.073 1.366 0.125 2.038 0.125 12.01 0 25.67-12.2 32.74-19.48 14.35-14.76 28.54-36.56 33.13-57.01-7.604-9.816-13.58-17.49-22.83-24.27-12.2-8.945-24.85-11.29-37.08-11.43z" fill="url(#_lgradient_93)"/>
    <path d="m62.23 96.12c-0.913 3.329-1.482 6.892-1.617 10.72-0.139 3.958 0.231 8.106 1.016 12.28 11.05-8.674 21.18-15.65 30.65-20.93-2.083-3.262-4.132-7.039-6.011-11.43 0-1e-3 -20.05-4.36-24.04 9.367z" fill="#689d6a"/>
    <path d="m195.4 106.8c-1.365-38.79-45.99-51.34-67.38-51.34-9.87 0-24.68 2.681-37.91 9.368-3.213 1.624-6.325 3.487-9.257 5.604-8.428 6.57-15.25 14.55-18.57 25.62 8.545-3.773 16.51-6.877 24.01-9.339 3.099-1.019 6.112-1.919 9.052-2.713 31.88-8.619 54.71-4.116 75.72 13.16 7.736 6.364 15.23 14.45 22.83 24.27 0.529-2.362 0.93-4.707 1.188-7.02 0.288-2.579 0.409-5.121 0.321-7.606z" fill="url(#_lgradient_94)"/>
    <path d="m92.24 98.14c-9.465 5.285-19.56 12.26-30.61 20.93 3.971 21.13 18.72 44.07 33.63 59.4 6.042 6.214 16.89 16 27.41 18.73 1.953-5.96 3.555-11.43 4.846-16.49v-3e-3 -2e-3c0.118-1.907 0.211-3.749 0.28-5.529v-3e-3c0.068-1.781 0.114-3.501 0.135-5.161v-2e-3c0.022-1.661 0.019-3.263-5e-3 -4.809v-2e-3c-0.049-3.093-0.187-5.963-0.407-8.634v-2e-3c-0.11-1.335-0.242-2.621-0.392-3.859v-3e-3c-0.3-2.478-0.679-4.77-1.128-6.898-2.022-9.582-5.477-15.86-9.679-21.03v-2e-3c-0.467-0.574-0.944-1.134-1.429-1.683-0.969-1.099-1.969-2.154-2.997-3.19-2.056-2.074-4.215-4.072-6.416-6.183-1.101-1.056-2.211-2.141-3.326-3.278-0.556-0.568-1.114-1.149-1.671-1.746l-3e-3 -2e-3c-1.674-1.794-3.344-3.732-4.99-5.898-1.097-1.443-2.182-2.986-3.248-4.655z" fill="url(#_lgradient_95)"/>
    <path d="m80.83 70.47c-0.536 0.387-1.066 0.781-1.59 1.185-0.975 0.754-1.927 1.542-2.851 2.357-0.067 0.059-0.135 0.115-0.201 0.174l-3e-3 3e-3c-1.974 1.758-3.822 3.657-5.504 5.708-1e-3 0 0 2e-3 0 2e-3 -0.184 0.225-0.36 0.457-0.541 0.685-0.642 0.814-1.267 1.645-1.856 2.505-0.377 0.551-0.743 1.111-1.097 1.681 0 1e-3 1e-3 1e-3 0 3e-3 -0.707 1.14-1.369 2.321-1.976 3.54-0.52 1.043-0.991 2.121-1.431 3.223-0.075 0.187-0.158 0.367-0.23 0.555v3e-3c-0.249 0.649-0.483 1.308-0.702 1.979-0.155 0.47-0.294 0.953-0.434 1.434-0.059 0.204-0.126 0.403-0.183 0.609 0 1e-3 1e-3 2e-3 0 3e-3 8.546-3.774 16.54-6.909 24.04-9.37-1.98-4.629-3.815-9.988-5.439-16.28z" fill="#3c3836"/>
    <g opacity=".2">
      <path d="m92.39 63.8c-0.767 0.357-1.544 0.682-2.301 1.065-3.213 1.624-6.326 3.483-9.258 5.599-0.086 0.062-0.165 0.132-0.249 0.195 0.084-0.062 0.164-0.127 0.249-0.188 1.624 6.292 3.46 11.65 5.44 16.28 3.099-1.019 6.11-1.919 9.05-2.713 0.197-0.053 0.385-0.094 0.582-0.146-2.18-6.386-3.324-13.09-3.513-20.09z" fill="#3c3836"/>
    </g>
    <path d="m122.8 79.79c-8.416 0.141-17.5 1.557-27.46 4.25-2.94 0.794-5.951 1.694-9.05 2.713 1.878 4.391 3.887 8.126 5.97 11.39 1.066 1.669 2.149 3.209 3.246 4.653 1.646 2.165 3.316 4.105 4.99 5.899h7e-3c0.557 0.596 1.034 1.102 1.591 1.669 1.114 1.138 2.303 2.301 3.404 3.358 2.201 2.111 4.287 4.036 6.343 6.109 1.028 1.037 2.101 2.165 3.07 3.264 0.485 0.55 0.962 1.109 1.429 1.683 4.202 5.167 7.656 11.45 9.678 21.03 0.449 2.129 0.829 4.423 1.129 6.901 0.15 1.239 0.285 2.525 0.395 3.86 0.22 2.671 0.353 5.539 0.402 8.632v7e-3c0.024 1.546 0.028 3.146 7e-3 4.807-0.021 1.66-0.07 3.38-0.138 5.161-0.069 1.781-0.159 3.63-0.278 5.537 0.864-3.382 1.584-6.555 2.177-9.573 0.181-0.918 0.3291-1.706 0.4861-2.593 0.365-2.063 0.6846-4.132 0.9256-6.032 0.118-0.931 0.2199-1.801 0.3089-2.696 0.17-1.682 0.2937-3.321 0.3667-4.879 0.076-1.639 0.1043-3.279 0.0803-4.79v-0.014c-0.03-1.876-0.1294-3.609-0.3024-5.305-0.023-0.225-0.0492-0.4781-0.0752-0.7001-0.167-1.461-0.3809-2.844-0.6459-4.184-0.246-1.244-0.5251-2.418-0.8491-3.569-0.139-0.493-0.2931-1.009-0.4451-1.487-0.485-1.52-1.015-2.953-1.624-4.332-0.037-0.082-0.1029-0.2007-0.1389-0.2817v-8e-3c-0.651-1.448-1.337-2.803-2.107-4.127-0.289-0.499-0.5615-0.9246-0.8665-1.41-0.511-0.813-1.084-1.674-1.632-2.453-0.342-0.485-0.6948-0.9717-1.05-1.446-0.582-0.779-1.192-1.557-1.805-2.314-0.275-0.339-0.5438-0.6658-0.8238-1.002-1.697-2.035-3.511-4.045-5.341-6.063-0.592-0.653-1.161-1.292-1.759-1.956-1.874-2.076-3.766-4.195-5.627-6.49-1e-3 -1e-3 1e-3 -5e-3 0-7e-3 -1.112-1.371-2.216-2.791-3.292-4.291-1.075-1.501-2.124-3.077-3.139-4.744 1.715-0.808 3.407-1.538 5.087-2.226 0.437-0.179 0.868-0.344 1.302-0.515 1.241-0.488 2.477-0.948 3.701-1.37 0.53-0.183 1.06-0.358 1.587-0.529 1.145-0.37 2.284-0.703 3.416-1.015 0.513-0.142 1.028-0.295 1.538-0.425 1.522-0.385 3.036-0.729 4.539-1.008 0.065-0.012 0.13-0.03 0.194-0.042h8e-3c1.811-0.331 3.6-0.553 5.391-0.73 0.508-0.051 1.017-0.095 1.524-0.133 1.784-0.133 3.565-0.222 5.336-0.201 12.23 0.141 24.88 2.483 37.08 11.43-14.44-11.88-29.74-17.72-48.26-17.41z" fill="url(#_lgradient_96)"/>
  </g>
</svg>
