<svg width="256" height="256" style="isolation:isolate" version="1.1" viewBox="0 0 256 256" xmlns="http://www.w3.org/2000/svg">
  <defs>
    <filter id="DlHWXcb7kmQgLvXW0k3hJxmRZAwigLmf" x="-.042124" y="-.045133" width="1.0842" height="1.1078" color-interpolation-filters="sRGB">
      <feGaussianBlur in="SourceGraphic" stdDeviation="4.294"/>
      <feOffset dx="0" dy="4" result="pf_100_offsetBlur"/>
      <feFlood flood-opacity=".4"/>
      <feComposite in2="pf_100_offsetBlur" operator="in" result="pf_100_dropShadow"/>
      <feBlend in="SourceGraphic" in2="pf_100_dropShadow"/>
    </filter>
  </defs>
  <g filter="url(#DlHWXcb7kmQgLvXW0k3hJxmRZAwigLmf)">
    <linearGradient id="_lgradient_112" x2="0" y2="1" gradientTransform="matrix(244.65 0 0 228.34 5.807 12.075)" gradientUnits="userSpaceOnUse">
      <stop stop-color="#282828" offset="0"/>
      <stop stop-color="#3c3836" offset="1"/>
    </linearGradient>
    <path d="m165.82 12.075c74.055 0 84.639 10.557 84.639 84.544v59.251c0 73.986-10.584 84.543-84.639 84.543h-75.37c-74.056 0-84.639-10.557-84.639-84.543v-59.251c0-73.987 10.583-84.544 84.639-84.544h75.37z" fill="url(#_lgradient_112)"/>
  </g>
  <g opacity=".4">
    <linearGradient id="_lgradient_113" x1=".517" x2=".517" y2="1" gradientTransform="matrix(244.65,0,0,228.34,5.68,11.95)" gradientUnits="userSpaceOnUse">
      <stop stop-color="#ebdbb2" offset="0"/>
      <stop stop-color="#ebdbb2" stop-opacity=".098" offset=".125"/>
      <stop stop-color="#282828" stop-opacity=".098" offset=".925"/>
      <stop stop-color="#282828" stop-opacity=".498" offset="1"/>
    </linearGradient>
    <path d="m165.07 11.951c4.328-0.01 8.656 0.04 12.984 0.138 3.875 0.078 7.751 0.226 11.626 0.452 3.453 0.196 6.905 0.481 10.348 0.854 3.059 0.335 6.118 0.786 9.148 1.346 2.715 0.502 5.4 1.14 8.046 1.916 2.4 0.698 4.751 1.562 7.023 2.584 2.115 0.943 4.141 2.063 6.059 3.35 1.84 1.238 3.561 2.653 5.135 4.215 1.564 1.572 2.98 3.282 4.219 5.119 1.289 1.916 2.41 3.94 3.364 6.042 1.023 2.28 1.889 4.618 2.597 7.005 0.777 2.643 1.417 5.325 1.918 8.037 0.561 3.026 1.013 6.072 1.348 9.127 0.374 3.439 0.659 6.878 0.856 10.326 0.226 3.861 0.373 7.732 0.462 11.593 0.088 4.323 0.138 8.646 0.128 12.959v58.212c0.01 4.323-0.04 8.636-0.128 12.959-0.089 3.871-0.236 7.732-0.462 11.593-0.197 3.448-0.482 6.897-0.856 10.326-0.335 3.055-0.787 6.111-1.348 9.137-0.501 2.702-1.141 5.384-1.918 8.027-0.708 2.387-1.574 4.735-2.597 7.005-0.954 2.112-2.075 4.126-3.364 6.042-1.239 1.837-2.655 3.557-4.219 5.119-1.574 1.562-3.295 2.977-5.135 4.215-1.918 1.287-3.944 2.407-6.059 3.35-2.272 1.022-4.623 1.886-7.023 2.594-2.646 0.776-5.331 1.414-8.046 1.906-3.03 0.569-6.089 1.011-9.148 1.346-3.443 0.373-6.895 0.658-10.348 0.854-3.875 0.226-7.751 0.374-11.626 0.462-4.328 0.088-8.656 0.138-12.984 0.128h-74.126c-4.328 0.01-8.656-0.04-12.984-0.128-3.875-0.088-7.751-0.236-11.626-0.462-3.453-0.196-6.905-0.481-10.348-0.854-3.059-0.335-6.118-0.777-9.148-1.346-2.715-0.492-5.4-1.13-8.046-1.906-2.4-0.708-4.751-1.572-7.023-2.594-2.115-0.943-4.141-2.063-6.059-3.35-1.84-1.238-3.561-2.653-5.135-4.215-1.564-1.562-2.98-3.282-4.219-5.119-1.289-1.916-2.41-3.93-3.364-6.042-1.023-2.27-1.889-4.618-2.597-7.005-0.777-2.643-1.417-5.325-1.918-8.027-0.561-3.026-1.013-6.082-1.348-9.137-0.374-3.429-0.659-6.878-0.856-10.326-0.226-3.861-0.373-7.722-0.462-11.593-0.088-4.323-0.138-8.636-0.128-12.959v-58.212c-0.01-4.313 0.04-8.636 0.128-12.959 0.089-3.861 0.236-7.732 0.462-11.593 0.197-3.448 0.482-6.887 0.856-10.326 0.335-3.055 0.787-6.101 1.348-9.127 0.501-2.712 1.141-5.394 1.918-8.037 0.708-2.387 1.574-4.725 2.597-7.005 0.954-2.102 2.075-4.126 3.364-6.042 1.239-1.837 2.655-3.547 4.219-5.119 1.574-1.562 3.295-2.977 5.135-4.215 1.918-1.287 3.944-2.407 6.059-3.35 2.272-1.022 4.623-1.886 7.023-2.584 2.646-0.776 5.331-1.414 8.046-1.916 3.03-0.56 6.089-1.011 9.148-1.346 3.443-0.373 6.895-0.658 10.348-0.854 3.875-0.226 7.751-0.374 11.626-0.452 4.328-0.098 8.656-0.148 12.984-0.138h74.126zm0.01 4.009c4.298-0.01 8.597 0.039 12.895 0.127 3.827 0.089 7.653 0.236 11.479 0.452 3.384 0.197 6.767 0.472 10.131 0.845 2.971 0.315 5.932 0.747 8.863 1.297 2.577 0.472 5.134 1.081 7.653 1.818 2.223 0.648 4.396 1.454 6.501 2.397 1.909 0.855 3.738 1.867 5.469 3.026 1.623 1.091 3.138 2.338 4.525 3.724 1.387 1.385 2.636 2.898 3.738 4.519 1.16 1.729 2.174 3.547 3.029 5.443 0.945 2.112 1.751 4.284 2.4 6.494 0.748 2.515 1.348 5.06 1.83 7.634 0.541 2.928 0.974 5.875 1.298 8.842 0.374 3.36 0.65 6.73 0.846 10.11 0.217 3.822 0.374 7.634 0.453 11.456 0.088 4.293 0.137 8.577 0.137 12.87v58.212c0 4.293-0.049 8.577-0.137 12.87-0.079 3.822-0.236 7.644-0.453 11.456-0.196 3.38-0.472 6.75-0.846 10.12-0.324 2.957-0.757 5.904-1.298 8.832-0.482 2.574-1.082 5.119-1.83 7.634-0.649 2.22-1.455 4.382-2.4 6.494-0.855 1.896-1.869 3.724-3.029 5.443-1.102 1.631-2.351 3.144-3.738 4.529-1.387 1.376-2.902 2.623-4.525 3.714-1.731 1.159-3.56 2.171-5.469 3.026-2.105 0.953-4.278 1.749-6.501 2.397-2.519 0.737-5.076 1.346-7.653 1.818-2.931 0.55-5.892 0.982-8.863 1.306-3.364 0.364-6.747 0.649-10.131 0.836-3.826 0.216-7.652 0.373-11.479 0.452-4.298 0.098-8.597 0.137-12.895 0.137h-0.01-74.126-0.01c-4.298 0-8.597-0.039-12.895-0.137-3.827-0.079-7.653-0.236-11.479-0.452-3.384-0.187-6.767-0.472-10.131-0.836-2.971-0.324-5.932-0.756-8.863-1.306-2.577-0.472-5.134-1.081-7.653-1.818-2.223-0.648-4.396-1.444-6.501-2.397-1.909-0.855-3.738-1.867-5.469-3.026-1.623-1.091-3.138-2.338-4.525-3.714-1.387-1.385-2.636-2.898-3.738-4.529-1.16-1.719-2.174-3.547-3.029-5.443-0.945-2.112-1.751-4.274-2.4-6.494-0.748-2.515-1.348-5.06-1.83-7.634-0.541-2.928-0.974-5.875-1.298-8.832-0.374-3.37-0.649-6.74-0.846-10.12-0.217-3.812-0.374-7.634-0.453-11.456-0.088-4.293-0.137-8.577-0.137-12.87v-58.212c0-4.293 0.049-8.577 0.137-12.87 0.079-3.822 0.236-7.634 0.453-11.456 0.197-3.38 0.472-6.75 0.846-10.11 0.324-2.967 0.757-5.914 1.298-8.842 0.482-2.574 1.082-5.119 1.83-7.634 0.649-2.21 1.455-4.382 2.4-6.494 0.855-1.896 1.869-3.714 3.029-5.443 1.102-1.621 2.351-3.134 3.738-4.519 1.387-1.386 2.902-2.633 4.525-3.724 1.731-1.159 3.56-2.171 5.469-3.026 2.105-0.943 4.278-1.749 6.501-2.397 2.519-0.737 5.076-1.346 7.653-1.818 2.931-0.55 5.892-0.982 8.863-1.297 3.364-0.373 6.747-0.648 10.131-0.845 3.826-0.216 7.652-0.363 11.479-0.452 4.298-0.088 8.597-0.137 12.895-0.127h0.01 74.126 0.01z" fill="url(#_lgradient_113)" fill-rule="evenodd"/>
  </g>
  <defs>
    <filter id="puStL8W3drhwIojaGQlSecu61FsnVEiv" x="-.077441" y="-.062218" width="1.1549" height="1.1244" color-interpolation-filters="sRGB">
      <feGaussianBlur stdDeviation="4.294"/>
    </filter>
  </defs>
  <g filter="url(#puStL8W3drhwIojaGQlSecu61FsnVEiv)" opacity=".4">
    <path d="m140.99 133.88c-2.744 0.037 0.516 1.411 4.1 1.964 0.933-0.728 1.83-1.5 2.687-2.315-2.228 0.546-4.498 0.559-6.787 0.351zm14.726-3.672c1.64-2.257 2.83-4.726 3.251-7.279-0.369 1.818-1.352 3.389-2.285 5.049-5.13 3.231-0.485-1.917-4e-3 -3.877-5.514 6.949-0.76 4.166-0.962 6.107zm5.442-14.151c0.334-4.942-0.972-3.377-1.411-1.495 0.511 0.268 0.917 3.487 1.411 1.495zm-30.579-67.556c1.465 0.261 3.166 0.463 2.922 0.814 1.609-0.355 1.971-0.674-2.922-0.814zm2.924 0.814-1.031 0.215 0.961-0.089 0.07-0.126zm45.68 68.616c0.165 4.438-1.295 6.594-2.616 10.407l-2.375 1.182c-1.941 3.772 0.193 2.395-1.197 5.394-3.035 2.695-9.196 8.429-11.168 8.955-1.442-0.031 0.975-1.701 1.291-2.353-4.058 2.784-3.257 4.18-9.463 5.876l-0.18-0.406c-15.301 7.2-36.557-7.066-36.278-26.529-0.161 1.234-0.464 0.925-0.802 1.421-0.79-10.012 4.625-20.069 13.758-24.181 8.932-4.42 19.404-2.609 25.798 3.359-3.512-4.603-10.509-9.483-18.795-9.032-8.12 0.133-15.719 5.292-18.254 10.896-4.159 2.618-4.643 10.096-6.455 11.466-2.441 17.927 4.587 25.67 16.477 34.782 1.866 1.26 0.525 1.453 0.775 2.412-3.949-1.848-7.564-4.64-10.54-8.058 1.58 2.308 3.283 4.553 5.485 6.316-3.727-1.258-8.703-9.024-10.152-9.34 6.42 11.495 26.042 20.159 36.323 15.859-4.757 0.177-10.799 0.098-16.14-1.877-2.25-1.155-5.298-3.545-4.752-3.991 14.026 5.236 28.511 3.964 40.645-5.762 3.09-2.407 6.462-6.497 7.437-6.552-1.467 2.207 0.252 1.061-0.876 3.01 3.071-4.961-1.339-2.02 3.178-8.567l1.668 2.296c-0.625-4.122 5.115-9.121 4.531-15.635 1.317-1.991 1.468 2.146 0.072 6.727 1.938-5.083 0.512-5.9 1.008-10.096 0.535 1.411 1.246 2.908 1.608 4.398-1.264-4.914 1.291-8.271 1.926-11.128-0.628-0.275-1.948 2.171-2.253-3.629 0.046-2.52 0.703-1.321 0.955-1.942-0.493-0.284-1.791-2.217-2.579-5.922 0.567-0.872 1.528 2.258 2.307 2.385-0.502-2.945-1.363-5.191-1.4-7.452-2.277-4.758-0.806 0.635-2.65-2.043-2.425-7.557 2.009-1.754 2.31-5.185 3.67 5.317 5.763 13.565 6.727 16.979-0.735-4.164-1.92-8.199-3.369-12.103 1.119 0.473-1.798-8.565 1.453-2.58-3.47-12.757-14.838-24.678-25.298-30.269 1.276 1.17 2.891 2.639 2.314 2.871-5.206-3.095-4.291-3.34-5.037-4.647-4.234-1.725-4.516 0.141-7.318 3e-3 -7.99-4.239-9.529-3.789-16.882-6.442l0.335 1.565c-5.292-1.763-6.167 0.665-11.885 4e-3 -0.347-0.27 1.833-0.984 3.63-1.243-5.118 0.676-4.879-1.011-9.886 0.185 1.233-0.865 2.54-1.44 3.856-2.175-4.172 0.254-9.963 2.429-8.176 0.448-6.806 3.039-18.894 7.302-25.677 13.663l-0.213-1.426c-3.108 3.731-13.554 11.143-14.386 15.979l-0.832 0.193c-1.615 2.738-2.664 5.841-3.946 8.657-2.114 3.605-3.1 1.388-2.799 1.954-4.16 8.435-6.231 15.521-8.014 21.337 1.271 1.901 0.031 11.447 0.511 19.086-2.087 37.736 26.483 74.371 57.712 82.828 4.578 1.64 11.383 1.581 17.173 1.743-6.829-1.954-7.711-1.034-14.368-3.354-4.799-2.263-5.85-4.844-9.252-7.796l1.347 2.379c-6.668-2.36-3.878-2.92-9.304-4.638l1.438-1.875c-2.162-0.166-5.725-3.641-6.699-5.571l-2.365 0.093c-2.84-3.501-4.355-6.03-4.243-7.99l-0.765 1.363c-0.865-1.486-10.453-13.148-5.479-10.433-0.924-0.841-2.153-1.372-3.484-3.795l1.012-1.155c-2.39-3.081-4.405-7.028-4.251-8.343 1.277 1.723 2.162 2.046 3.04 2.342-6.045-14.996-6.384-0.825-10.96-15.264l0.966-0.077c-0.74-1.123-1.194-2.333-1.789-3.525l0.423-4.197c-4.35-5.026-1.216-21.39-0.586-30.363 0.431-3.648 3.631-7.533 6.061-13.625l-1.48-0.254c2.832-4.937 16.167-19.836 22.347-19.072 2.992-3.758-0.596-0.014-1.182-0.959 6.574-6.801 8.641-4.805 13.077-6.03 4.781-2.838-4.106 1.11-1.839-1.082 8.271-2.11 5.86-4.801 16.647-5.872 1.139 0.647-2.639 0.999-3.587 1.839 6.888-3.373 21.801-2.603 31.492 1.87 11.236 5.255 23.868 20.781 24.368 35.39l0.567 0.152c-0.286 5.808 0.889 12.525-1.152 18.693l1.38-2.922zm-68.154 19.715-0.387 1.923c1.805 2.452 3.238 5.108 5.54 7.018-1.657-3.231-2.886-4.566-5.153-8.941zm4.264-0.166c-0.955-1.058-1.518-2.329-2.153-3.593 0.606 2.225 1.848 4.137 2.999 6.084l-0.846-2.491zm75.464-16.403-0.403 1.014c-0.744 5.316-2.361 10.473-4.785 15.263 2.704-5.083 4.447-10.643 5.188-16.277zm-59.633-73.893c1.854-0.678 4.559-0.373 6.532-0.819-2.568 0.215-5.123 0.343-7.645 0.665l1.113 0.154zm-65.154 34.646c0.428 3.957-2.975 5.494 0.753 2.882 2.003-4.507-0.778-1.243-0.753-2.882zm-4.386 18.321c0.861-2.64 1.016-4.223 1.345-5.753-2.375 3.038-1.095 3.686-1.345 5.753z" fill-rule="evenodd"/>
  </g>
  <linearGradient id="_lgradient_114" x2="0" y2="1" gradientTransform="matrix(133.08 0 0 165.64 61.461 43.363)" gradientUnits="userSpaceOnUse">
    <stop stop-color="#fb4934" offset="0"/>
    <stop stop-color="#fb4934" offset=".5"/>
    <stop stop-color="#cc241d" offset="1"/>
  </linearGradient>
  <path d="m140.99 130.88c-2.744 0.037 0.516 1.411 4.1 1.964 0.933-0.728 1.83-1.5 2.687-2.315-2.228 0.546-4.498 0.559-6.787 0.351zm14.726-3.672c1.64-2.257 2.83-4.726 3.251-7.279-0.369 1.818-1.352 3.389-2.285 5.049-5.13 3.231-0.485-1.917-4e-3 -3.877-5.514 6.949-0.76 4.166-0.962 6.107zm5.442-14.151c0.334-4.942-0.972-3.377-1.411-1.495 0.511 0.268 0.917 3.487 1.411 1.495zm-30.579-67.556c1.465 0.261 3.166 0.463 2.922 0.814 1.609-0.355 1.971-0.674-2.922-0.814zm2.924 0.814-1.031 0.215 0.961-0.089 0.07-0.126zm45.68 68.616c0.165 4.438-1.295 6.594-2.616 10.407l-2.375 1.182c-1.941 3.772 0.193 2.395-1.197 5.394-3.035 2.695-9.196 8.429-11.168 8.955-1.442-0.031 0.975-1.701 1.291-2.353-4.058 2.784-3.257 4.18-9.463 5.876l-0.18-0.406c-15.301 7.2-36.557-7.066-36.278-26.529-0.161 1.234-0.464 0.925-0.802 1.421-0.79-10.012 4.625-20.069 13.758-24.181 8.932-4.42 19.404-2.609 25.798 3.359-3.512-4.603-10.509-9.483-18.795-9.032-8.12 0.133-15.719 5.292-18.254 10.896-4.159 2.618-4.643 10.096-6.455 11.466-2.441 17.927 4.587 25.67 16.477 34.782 1.866 1.26 0.525 1.453 0.775 2.412-3.949-1.848-7.564-4.64-10.54-8.058 1.58 2.308 3.283 4.553 5.485 6.316-3.727-1.258-8.703-9.024-10.152-9.34 6.42 11.495 26.042 20.159 36.323 15.859-4.757 0.177-10.799 0.098-16.14-1.877-2.25-1.155-5.298-3.545-4.752-3.991 14.026 5.236 28.511 3.964 40.645-5.762 3.09-2.407 6.462-6.497 7.437-6.552-1.467 2.207 0.252 1.061-0.876 3.01 3.071-4.961-1.339-2.02 3.178-8.567l1.668 2.296c-0.625-4.122 5.115-9.121 4.531-15.635 1.317-1.991 1.468 2.146 0.072 6.727 1.938-5.083 0.512-5.9 1.008-10.096 0.535 1.411 1.246 2.908 1.608 4.398-1.264-4.914 1.291-8.271 1.926-11.128-0.628-0.275-1.948 2.171-2.253-3.629 0.046-2.52 0.703-1.321 0.955-1.942-0.493-0.284-1.791-2.217-2.579-5.922 0.567-0.872 1.528 2.258 2.307 2.385-0.502-2.945-1.363-5.191-1.4-7.452-2.277-4.758-0.806 0.635-2.65-2.043-2.425-7.557 2.009-1.754 2.31-5.185 3.67 5.317 5.763 13.565 6.727 16.979-0.735-4.164-1.92-8.199-3.369-12.103 1.119 0.473-1.798-8.565 1.453-2.58-3.47-12.757-14.838-24.678-25.298-30.269 1.276 1.17 2.891 2.639 2.314 2.871-5.206-3.095-4.291-3.34-5.037-4.647-4.234-1.725-4.516 0.141-7.318 3e-3 -7.99-4.239-9.529-3.789-16.882-6.442l0.335 1.565c-5.292-1.763-6.167 0.665-11.885 4e-3 -0.347-0.27 1.833-0.984 3.63-1.243-5.118 0.676-4.879-1.011-9.886 0.185 1.233-0.865 2.54-1.44 3.856-2.175-4.172 0.254-9.963 2.429-8.176 0.448-6.806 3.039-18.894 7.302-25.677 13.663l-0.213-1.426c-3.108 3.731-13.554 11.143-14.386 15.979l-0.832 0.193c-1.615 2.738-2.664 5.841-3.946 8.657-2.114 3.605-3.1 1.388-2.799 1.954-4.16 8.435-6.231 15.521-8.014 21.337 1.271 1.901 0.031 11.447 0.511 19.086-2.087 37.736 26.483 74.371 57.712 82.828 4.578 1.64 11.383 1.581 17.173 1.743-6.829-1.954-7.711-1.034-14.368-3.354-4.799-2.263-5.85-4.844-9.252-7.796l1.347 2.379c-6.668-2.36-3.878-2.92-9.304-4.638l1.438-1.875c-2.162-0.166-5.725-3.641-6.699-5.571l-2.365 0.093c-2.84-3.501-4.355-6.03-4.243-7.99l-0.765 1.363c-0.865-1.486-10.453-13.148-5.479-10.433-0.924-0.841-2.153-1.372-3.484-3.795l1.012-1.155c-2.39-3.081-4.405-7.028-4.251-8.343 1.277 1.723 2.162 2.046 3.04 2.342-6.045-14.996-6.384-0.825-10.96-15.264l0.966-0.077c-0.74-1.123-1.194-2.333-1.789-3.525l0.423-4.197c-4.35-5.026-1.216-21.39-0.586-30.363 0.431-3.648 3.631-7.533 6.061-13.625l-1.48-0.254c2.832-4.937 16.167-19.836 22.347-19.072 2.992-3.758-0.596-0.014-1.182-0.959 6.574-6.801 8.641-4.805 13.077-6.03 4.781-2.838-4.106 1.11-1.839-1.082 8.271-2.11 5.86-4.801 16.647-5.872 1.139 0.647-2.639 0.999-3.587 1.839 6.888-3.373 21.801-2.603 31.492 1.87 11.236 5.255 23.868 20.781 24.368 35.39l0.567 0.152c-0.286 5.808 0.889 12.525-1.152 18.693l1.38-2.922zm-68.154 19.715-0.387 1.923c1.805 2.452 3.238 5.108 5.54 7.018-1.657-3.231-2.886-4.566-5.153-8.941zm4.264-0.166c-0.955-1.058-1.518-2.329-2.153-3.593 0.606 2.225 1.848 4.137 2.999 6.084l-0.846-2.491zm75.464-16.403-0.403 1.014c-0.744 5.316-2.361 10.473-4.785 15.263 2.704-5.083 4.447-10.643 5.188-16.277zm-59.633-73.893c1.854-0.678 4.559-0.373 6.532-0.819-2.568 0.215-5.123 0.343-7.645 0.665l1.113 0.154zm-65.154 34.646c0.428 3.957-2.975 5.494 0.753 2.882 2.003-4.507-0.778-1.243-0.753-2.882zm-4.386 18.321c0.861-2.64 1.016-4.223 1.345-5.753-2.375 3.038-1.095 3.686-1.345 5.753z" fill="url(#_lgradient_114)" fill-rule="evenodd"/>
</svg>
