<svg width="256" height="256" style="isolation:isolate" version="1.1" viewBox="0 0 256 256" xmlns="http://www.w3.org/2000/svg">
  <defs>
    <filter id="owgGbIyhcpnGtImZtMhijmmP85lJjY8b" x="-.042124" y="-.045133" width="1.0842" height="1.1078" color-interpolation-filters="sRGB">
      <feGaussianBlur in="SourceGraphic" stdDeviation="4.294"/>
      <feOffset dx="0" dy="4" result="pf_100_offsetBlur"/>
      <feFlood flood-opacity=".4"/>
      <feComposite in2="pf_100_offsetBlur" operator="in" result="pf_100_dropShadow"/>
      <feBlend in="SourceGraphic" in2="pf_100_dropShadow"/>
    </filter>
  </defs>
  <g filter="url(#owgGbIyhcpnGtImZtMhijmmP85lJjY8b)">
    <linearGradient id="_lgradient_12" x2="0" y2="1" gradientTransform="matrix(244.65 0 0 228.34 5.68 11.95)" gradientUnits="userSpaceOnUse">
      <stop stop-color="#504945" offset="0"/>
      <stop stop-color="#3c3836" offset="1"/>
    </linearGradient>
    <path d="m165.69 11.95c74.056 0 84.639 10.557 84.639 84.544v59.251c0 73.986-10.584 84.544-84.639 84.544h-75.37c-74.056 0-84.639-10.557-84.639-84.544v-59.251c0-73.987 10.584-84.544 84.639-84.544h75.37z" fill="url(#_lgradient_12)"/>
  </g>
  <g opacity=".4">
    <linearGradient id="_lgradient_13" x1=".517" x2=".517" y2="1" gradientTransform="matrix(244.65,0,0,228.34,5.68,11.95)" gradientUnits="userSpaceOnUse">
      <stop stop-color="#ebdbb2" offset="0"/>
      <stop stop-color="#ebdbb2" stop-opacity=".098" offset=".125"/>
      <stop stop-color="#282828" stop-opacity=".098" offset=".925"/>
      <stop stop-color="#282828" stop-opacity=".498" offset="1"/>
    </linearGradient>
    <path d="m165.07 11.951c4.328-0.009825 8.6559 0.039299 12.984 0.13755 3.8755 0.078598 7.751 0.22597 11.626 0.45194 3.4525 0.1965 6.9051 0.48141 10.348 0.85476 3.0591 0.33404 6.1182 0.78598 9.1477 1.346 2.7148 0.50106 5.4001 1.1397 8.0461 1.9158 2.4 0.69756 4.7509 1.5621 7.0231 2.5839 2.1148 0.94318 4.1411 2.0632 6.0591 3.3502 1.8394 1.2379 3.5607 2.6527 5.1345 4.2148 1.564 1.572 2.9804 3.2815 4.2198 5.1187 1.2886 1.9158 2.4099 3.9397 3.364 6.0422 1.023 2.2793 1.8886 4.6176 2.5968 7.0051 0.77706 2.6429 1.4164 5.325 1.9181 8.0367 0.56066 3.026 1.0131 6.0717 1.3476 9.1272 0.37378 3.4387 0.65903 6.8773 0.85575 10.326 0.22624 3.8611 0.37378 7.7321 0.46231 11.593 0.088537 4.3229 0.13771 8.6458 0.12788 12.959v58.212c0.009831 4.3229-0.039339 8.636-0.12788 12.959-0.088523 3.871-0.23606 7.7321-0.46231 11.593-0.19672 3.4485-0.48197 6.897-0.85575 10.326-0.33443 3.0555-0.7869 6.111-1.3476 9.137-0.50166 2.7018-1.141 5.384-1.9181 8.0269-0.70821 2.3874-1.5738 4.7355-2.5968 7.0051-0.9541 2.1123-2.0754 4.1264-3.364 6.0422-1.2394 1.8372-2.6558 3.5566-4.2198 5.1187-1.5738 1.5621-3.2952 2.9769-5.1345 4.2148-1.9181 1.287-3.9443 2.4071-6.0591 3.3502-2.2722 1.0218-4.623 1.8864-7.0231 2.5937-2.646 0.77616-5.3313 1.4148-8.0461 1.906-3.0296 0.56984-6.0886 1.012-9.1477 1.346-3.4427 0.37333-6.8952 0.65826-10.348 0.85475-3.8755 0.22597-7.751 0.37335-11.626 0.46177-4.328 0.088419-8.6559 0.13755-12.984 0.12773h-74.126c-4.328 0.009819-8.6559-0.039308-12.984-0.12773-3.8755-0.08842-7.751-0.2358-11.626-0.46177-3.4525-0.19649-6.9051-0.48142-10.348-0.85475-3.0591-0.33405-6.1182-0.77616-9.1477-1.346-2.7148-0.49124-5.4001-1.1298-8.0461-1.906-2.4-0.70737-4.7509-1.572-7.0231-2.5937-2.1148-0.94317-4.1411-2.0632-6.0591-3.3502-1.8394-1.2379-3.5607-2.6527-5.1345-4.2148-1.564-1.5621-2.9804-3.2815-4.2198-5.1187-1.2886-1.9158-2.4099-3.9299-3.364-6.0422-1.023-2.2695-1.8886-4.6176-2.5968-7.0051-0.77706-2.6429-1.4164-5.325-1.9181-8.0269-0.56067-3.026-1.0131-6.0815-1.3476-9.137-0.37378-3.4289-0.65903-6.8773-0.85576-10.326-0.22623-3.8611-0.37378-7.7223-0.4623-11.593-0.088526-4.3229-0.13771-8.636-0.12787-12.959v-58.212c-0.009836-4.3131 0.039345-8.636 0.12787-12.959 0.088527-3.8611 0.23607-7.7321 0.4623-11.593 0.19672-3.4485 0.48198-6.8872 0.85576-10.326 0.33443-3.0555 0.7869-6.1012 1.3476-9.1272 0.50165-2.7116 1.141-5.3938 1.9181-8.0367 0.70821-2.3874 1.5738-4.7257 2.5968-7.0051 0.95412-2.1025 2.0755-4.1264 3.364-6.0422 1.2394-1.8372 2.6558-3.5467 4.2198-5.1187 1.5738-1.5621 3.2951-2.9769 5.1345-4.2148 1.9181-1.287 3.9443-2.4071 6.0591-3.3502 2.2722-1.0218 4.623-1.8864 7.0231-2.5839 2.646-0.77616 5.3313-1.4148 8.0461-1.9158 3.0296-0.56001 6.0886-1.012 9.1477-1.346 3.4427-0.37334 6.8952-0.65826 10.348-0.85476 3.8755-0.22597 7.751-0.37334 11.626-0.45194 4.3279-0.098248 8.6559-0.14737 12.984-0.13755h74.126zm0.009846 4.0085c4.2984-0.009825 8.5969 0.039299 12.895 0.12772 3.8263 0.088423 7.6526 0.23579 11.479 0.45194 3.3837 0.1965 6.7674 0.47159 10.131 0.84493 2.9705 0.31439 5.9313 0.74668 8.8625 1.2969 2.5771 0.47159 5.1345 1.0807 7.6526 1.8176 2.223 0.64844 4.3968 1.4541 6.5018 2.3972 1.9082 0.85476 3.7378 1.8667 5.469 3.026 1.623 1.0906 3.1378 2.3383 4.5247 3.7236s2.6361 2.8983 3.7378 4.5194c1.1607 1.7292 2.1738 3.5467 3.0296 5.4429 0.94427 2.1123 1.7509 4.2836 2.4 6.4942 0.74756 2.5151 1.3476 5.0598 1.8295 7.6338 0.541 2.9278 0.9738 5.8752 1.2984 8.8423 0.37378 3.3601 0.6492 6.73 0.84592 10.11 0.2164 3.8218 0.37378 7.6338 0.45246 11.456 0.088538 4.2934 0.13771 8.577 0.13771 12.87v58.212c0 4.2934-0.049169 8.577-0.13771 12.87-0.078677 3.8218-0.23606 7.6437-0.45246 11.456-0.19672 3.3797-0.47214 6.7496-0.84592 10.12-0.3246 2.9573-0.7574 5.9047-1.2984 8.8325-0.48197 2.5741-1.082 5.1187-1.8295 7.6339-0.64918 2.2204-1.4558 4.3819-2.4 6.4942-0.85576 1.8962-1.8689 3.7236-3.0296 5.4429-1.1017 1.6309-2.3509 3.1439-3.7378 4.5292-1.3869 1.3755-2.9017 2.6232-4.5247 3.7138-1.7312 1.1593-3.5607 2.1713-5.469 3.026-2.105 0.953-4.2788 1.7488-6.5018 2.3972-2.5181 0.73686-5.0755 1.346-7.6526 1.8176-2.9312 0.55018-5.8919 0.98248-8.8625 1.3067-3.364 0.36351-6.7477 0.64844-10.131 0.8351-3.8263 0.21615-7.6526 0.37335-11.479 0.45195-4.2985 0.098254-8.5969 0.13755-12.895 0.13755h-0.009846-74.126-0.009838c-4.2984 0-8.5969-0.039292-12.895-0.13755-3.8263-0.0786-7.6526-0.2358-11.479-0.45195-3.3837-0.18666-6.7673-0.47158-10.131-0.8351-2.9706-0.32422-5.9313-0.75651-8.8625-1.3067-2.5771-0.47158-5.1345-1.0807-7.6526-1.8176-2.223-0.64842-4.3968-1.4442-6.5018-2.3972-1.9082-0.85475-3.7378-1.8667-5.469-3.026-1.623-1.0906-3.1378-2.3383-4.5247-3.7138-1.3869-1.3853-2.6361-2.8983-3.7378-4.5292-1.1607-1.7193-2.1738-3.5467-3.0296-5.4429-0.94428-2.1123-1.7509-4.2738-2.4-6.4942-0.74756-2.5151-1.3476-5.0598-1.8295-7.6339-0.541-2.9278-0.97379-5.8752-1.2984-8.8325-0.37378-3.3699-0.64919-6.7398-0.84592-10.12-0.2164-3.812-0.37378-7.6339-0.45247-11.456-0.088526-4.2934-0.13771-8.577-0.13771-12.87v-58.212c0-4.2934 0.049181-8.577 0.13771-12.87 0.07869-3.8218 0.23607-7.6338 0.45247-11.456 0.19672-3.3797 0.47214-6.7496 0.84592-10.11 0.3246-2.9671 0.75739-5.9145 1.2984-8.8423 0.48198-2.5741 1.082-5.1187 1.8295-7.6338 0.64919-2.2106 1.4558-4.3818 2.4-6.4942 0.85575-1.8962 1.8689-3.7138 3.0296-5.4429 1.1017-1.6211 2.3509-3.1341 3.7378-4.5194s2.9017-2.633 4.5247-3.7236c1.7312-1.1593 3.5607-2.1713 5.469-3.026 2.105-0.94318 4.2788-1.7488 6.5018-2.3972 2.5181-0.73686 5.0755-1.346 7.6526-1.8176 2.9312-0.55019 5.8919-0.98248 8.8625-1.2969 3.364-0.37334 6.7477-0.64843 10.131-0.84493 3.8263-0.21614 7.6526-0.36352 11.479-0.45194 4.2984-0.088423 8.5969-0.13755 12.895-0.12772h0.009838 74.126 0.009846z" fill="url(#_lgradient_13)" fill-rule="evenodd"/>
  </g>
  <defs>
    <filter id="uriotfc3tavs8etZjYkS0ERLeS1pYZFZ" x="-.084398" y="-.072342" width="1.1688" height="1.1447" color-interpolation-filters="sRGB">
      <feGaussianBlur stdDeviation="4.294"/>
    </filter>
  </defs>
  <g filter="url(#uriotfc3tavs8etZjYkS0ERLeS1pYZFZ)" opacity=".4">
    <path d="m125.98 58.048c-9.1302 0.1919-18.304 1.6483-26.278 4.2282-8.1602 2.6402-15.663 6.4491-22.825 11.586-2.9294 2.1014-5.1892 4.6037-6.3199 7.0006-1.0033 2.1268-2.4876 11.355-3.1301 19.437-2.0103 25.282 2.3339 50.993 11.318 67.01 1.1192 1.9952 5.4733 8.8688 7.1447 11.273 6.5315 9.3972 15.284 16.007 25.548 19.288 4.2074 1.345 8.1567 2.0874 13.852 2.6084 0.45985 0.042076 1.6404 0.009412 2.7078-0.009921 1.9745-0.035614 4.2291-0.11936 5.4802-0.2683 14.645-1.7434 25.798-7.8107 34.491-18.766 1.5973-2.013 2.5969-3.4707 5.6243-8.188 3.9855-6.2101 5.6481-9.3779 7.7657-14.781 7.5505-19.266 9.7332-46.339 5.6939-70.547-1.0057-6.0274-1.3252-7.0157-3.0308-9.3159-1.7135-2.311-3.3865-3.752-7.6962-6.628-12.037-8.0325-25.579-12.522-41.278-13.688-2.3254-0.17281-4.6867-0.23407-7.0503-0.23352-0.67396 1.57e-4 -1.3419-0.019181-2.0172-0.004961v-8e-6z"/>
  </g>
  <path d="m125.98 55.505c-9.1302 0.1919-18.302 1.6504-26.276 4.2302-8.1602 2.6402-15.663 6.4471-22.825 11.584-2.9294 2.1014-5.1893 4.6025-6.32 6.9994-1.0033 2.1268-2.4858 11.358-3.1284 19.44-2.0103 25.282 2.3299 50.992 11.314 67.009 1.1192 1.9952 5.4763 8.8667 7.1477 11.271 6.5315 9.3972 15.283 16.006 25.546 19.287 4.2074 1.345 8.1581 2.088 13.853 2.6091 0.45985 0.042075 1.6401 0.01221 2.7076-0.007123v-142.42c-0.67396 1.58e-4 -1.3449-0.021165-2.0201-0.006945v-1.3e-5zm2.0201 0.006971c2.3636-5.53e-4 4.7241 0.056796 7.0495 0.2296-2.3254-0.17281-4.6859-0.23016-7.0495-0.2296zm0 142.42c1.9745-0.035614 4.2272-0.12241 5.4783-0.27134-1.2511 0.14894-3.5038 0.23571-5.4783 0.27134zm57.076-120.29c0.85638 1.531 1.2238 3.2163 1.9781 7.7369-0.75429-4.5206-1.1207-6.2059-1.9781-7.7369zm3.2056 16.928c0.6242 6.1896 0.8635 12.474 0.73651 18.688 0.12732-6.2144-0.11249-12.499-0.73651-18.688zm-25.462 89.879c-1.822 1.7296-3.7056 3.3462-5.7238 4.7381 2.0195-1.3929 3.9007-3.0071 5.7238-4.7381z" fill="#ebdbb2"/>
  <g opacity=".1">
    <path d="m92.75 119.1c-2.5076 0.062095-4.4852 0.48949-5.7345 1.4356-0.8045 0.60931-1.3732 1.6551-1.8947 3.4926-0.63725 2.2453-0.45833 3.9258 0.67464 6.1996 1.7375 3.487 5.6595 5.9795 10.335 6.5782 0.13317 0.017044 0.34718 0.065911 0.48086 0.092851h20.34c0.48289-0.13505 0.69208-0.34321 0.81818-0.72139 0.21437-0.64292-0.17591-1.8298-1.2847-3.914-1.4274-2.6832-2.8027-4.6174-4.8517-6.7996-3.3255-3.5416-5.9785-5.0336-9.9904-5.6282-3.3532-0.49701-6.3847-0.79779-8.8924-0.73567v5e-6z"/>
  </g>
  <path d="m128 55.512v142.42c1.9745-0.035614 4.2272-0.12241 5.4783-0.27134 14.645-1.7434 25.797-7.8095 34.49-18.765 1.5973-2.013 2.5981-3.4718 5.6256-8.1891 3.9855-6.2101 5.6474-9.3747 7.765-14.778 7.5505-19.266 9.7351-46.342 5.6957-70.55-1.0057-6.0274-1.3247-7.0161-3.0302-9.3163-1.7135-2.311-3.3851-3.7478-7.6948-6.6237-12.037-8.0325-25.581-12.526-41.28-13.693-2.3254-0.17281-4.6859-0.23016-7.0495-0.2296z" fill="#928374"/>
  <g opacity=".1">
    <path d="m126.36 182.51c-2.2206-0.30366-4.8373-1.2908-7.1571-2.7001-1.2668-0.76959-1.5317-1.1452-1.3086-1.856 0.12785-0.40747 0.22874-0.46147 0.86193-0.46147 0.39442 0 2.2499 0.20628 4.1234 0.45833 6.9854 0.93995 9.9321 0.55995 17.778-2.2926 2.0691-0.75228 2.4286-0.77445 2.5976-0.16014 0.17464 0.63472-3.1615 3.7334-5.6673 5.2639-2.5953 1.5852-7.1888 2.3004-11.228 1.7481v-5.9e-5z"/>
  </g>
  <path d="m126.36 179.96c-2.2206-0.30366-4.8373-1.2908-7.1571-2.7001-1.2668-0.76959-1.5317-1.1452-1.3086-1.856 0.12785-0.40747 0.22874-0.46147 0.86193-0.46147 0.39442 0 2.2499 0.20628 4.1234 0.45833 6.9854 0.93995 9.9321 0.55995 17.778-2.2926 2.0691-0.75228 2.4286-0.77445 2.5976-0.16014 0.17464 0.63472-3.1615 3.7334-5.6673 5.2639-2.5953 1.5852-7.1888 2.3004-11.228 1.7481v-5.9e-5z" fill="#3c3836"/>
  <g opacity=".1">
    <path d="m125.04 149.64c-0.14101-0.058255-0.23253 0.006614-0.39516 0.14515-1.2019 1.0244-3.9607 5.973-4.2125 7.5559-0.26866 1.6887 0.3306 3.8128 1.3942 4.9125 0.51919 0.53681 3.6419 2.1226 4.7792 2.4295 0.50124 0.13526 0.94839 0.19125 1.3942 0.19865 0.44584-0.007377 0.89299-0.063393 1.3942-0.19865 1.1372-0.3069 4.26-1.8927 4.7792-2.4295 1.0636-1.0997 1.6629-3.2238 1.3942-4.9125-0.25184-1.5829-3.0106-6.5316-4.2125-7.5559-0.16263-0.13851-0.25418-0.20346-0.39516-0.14515-0.141 0.058305-0.33216 0.23304-0.69339 0.58828-0.74123 0.72884-1.3726 0.98751-2.2666 0.93971-0.89394 0.047825-1.5253-0.21086-2.2666-0.93971-0.36124-0.35521-0.5524-0.52998-0.69339-0.58828z"/>
  </g>
  <path d="m125.04 147.1c-0.14101-0.058255-0.23253 0.006614-0.39516 0.14515-1.2019 1.0244-3.9607 5.973-4.2125 7.5559-0.26866 1.6887 0.3306 3.8128 1.3942 4.9125 0.51919 0.53681 3.6419 2.1226 4.7792 2.4295 0.50124 0.13526 0.94839 0.19125 1.3942 0.19865 0.44584-0.007377 0.89299-0.063393 1.3942-0.19865 1.1372-0.3069 4.26-1.8927 4.7792-2.4295 1.0636-1.0997 1.6629-3.2238 1.3942-4.9125-0.25184-1.5829-3.0106-6.5316-4.2125-7.5559-0.16263-0.13851-0.25418-0.20346-0.39516-0.14515-0.141 0.058305-0.33216 0.23304-0.69339 0.58828-0.74123 0.72884-1.3726 0.98751-2.2666 0.93971-0.89394 0.047825-1.5253-0.21086-2.2666-0.93971-0.36124-0.35521-0.5524-0.52998-0.69339-0.58828z" fill="#3c3836"/>
  <path d="m92.75 116.56c-2.5076 0.062095-4.4852 0.48949-5.7345 1.4356-0.8045 0.60931-1.3732 1.6551-1.8947 3.4926-0.63725 2.2453-0.45833 3.9258 0.67464 6.1996 1.7375 3.487 5.6595 5.9795 10.335 6.5782 0.13317 0.017044 0.34718 0.065911 0.48086 0.092851h20.34c0.48289-0.13505 0.69208-0.34321 0.81818-0.72139 0.21437-0.64292-0.17591-1.8298-1.2847-3.914-1.4274-2.6832-2.8027-4.6174-4.8517-6.7996-3.3255-3.5416-5.9785-5.0336-9.9904-5.6282-3.3532-0.49701-6.3847-0.79779-8.8924-0.73567v5e-6z" fill="#3c3836"/>
  <g opacity=".3">
    <path d="m142.25 114.01v22.895h3.5914v-22.895h-3.5914zm7.1828 0v22.895h3.5914v-22.895h-3.5914zm7.1828 0v22.895h3.5914v-22.895h-3.5914zm7.1828 0v22.895h3.5914v-22.895h-3.5914z"/>
  </g>
  <g opacity=".1">
    <path d="m143.69 119.1h22.045c3.0425 0 5.5125 2.4701 5.5125 5.5125v6.7819c0 3.0424-2.4701 5.5125-5.5125 5.5125h-22.045c-3.0424 0-5.5125-2.4701-5.5125-5.5125v-6.7819c0-3.0424 2.4701-5.5125 5.5125-5.5125z"/>
  </g>
  <path d="m143.69 116.55h22.045c3.0425 0 5.5125 2.4701 5.5125 5.5125v6.7819c0 3.0424-2.4701 5.5125-5.5125 5.5125h-22.045c-3.0424 0-5.5125-2.4701-5.5125-5.5125v-6.7819c0-3.0424 2.4701-5.5125 5.5125-5.5125z" fill="#3c3836"/>
  <g fill="#ebdbb2">
    <path d="m149.2 120.11v10.684h11.023v-10.684h-11.023zm1.8372 1.7807h7.3489v7.1228h-7.3489v-7.1228z"/>
    <rect x="142.96" y="120.83" width="3.673" height="1.781"/>
    <rect x="145.53" y="122.61" width="2.572" height="1.781"/>
    <rect x="142.96" y="127.95" width="3.673" height="1.781"/>
    <rect x="145.53" y="126.17" width="2.572" height="1.781"/>
    <rect x="162.79" y="120.83" width="3.673" height="1.781"/>
    <rect x="161.32" y="122.61" width="2.572" height="1.781"/>
    <rect x="162.79" y="127.95" width="3.673" height="1.781"/>
    <rect x="161.32" y="126.17" width="2.572" height="1.781"/>
    <rect x="152.14" y="122.78" width="5.144" height="1.781"/>
    <rect x="152.14" y="126.35" width="5.144" height="1.781"/>
    <rect transform="matrix(0 1 -1 0 279.99 -29.431)" x="152.93" y="124.36" width="3.561" height="1.837"/>
  </g>
  <g opacity=".2">
    <path d="m125.98 55.505c-9.1302 0.1919-18.304 1.6483-26.278 4.2282-8.1602 2.6402-15.663 6.4491-22.825 11.586-2.9294 2.1014-5.1892 4.6037-6.3199 7.0006-1.0033 2.1268-2.4876 11.355-3.1301 19.437-0.38399 4.8291-0.53479 9.6733-0.46704 14.463 0.008427-3.9587 0.15081-7.9424 0.46704-11.919 0.64258-8.0813 2.1268-17.31 3.1301-19.437 1.1307-2.3969 3.3905-4.8992 6.3199-7.0006 7.1617-5.1374 14.665-8.9463 22.825-11.586 7.9737-2.5799 17.148-4.0363 26.278-4.2282 0.67527-0.01422 1.3432 0.005126 2.0172 0.004968 2.3636-5.52e-4 4.7248 0.060713 7.0503 0.23352 15.699 1.1666 29.241 5.6557 41.278 13.688 4.3097 2.8759 5.9826 4.3169 7.6962 6.6279 1.7056 2.3002 2.025 3.2885 3.0308 9.3159 1.2339 7.3949 1.8804 15.056 1.9775 22.681 0.029506-8.4614-0.6061-17.006-1.9775-25.225-1.0057-6.0274-1.3252-7.0157-3.0308-9.3159-1.7135-2.311-3.3865-3.752-7.6962-6.6279-12.037-8.0325-25.579-12.522-41.278-13.688-2.3254-0.1728-4.6867-0.23407-7.0503-0.23352-0.67396 1.58e-4 -1.3419-0.019188-2.0172-0.004968z" fill="#ebdbb2"/>
  </g>
</svg>
