<svg width="256" height="256" style="isolation:isolate" version="1.1" viewBox="0 0 256 256" xmlns="http://www.w3.org/2000/svg">
  <defs>
    <filter id="fbu9uccNmvPYYp2vdB2jpcCxz11d0yn8" x="-.042124" y="-.045133" width="1.0842" height="1.1078" color-interpolation-filters="sRGB">
      <feGaussianBlur in="SourceGraphic" stdDeviation="4.294"/>
      <feOffset dx="0" dy="4" result="pf_100_offsetBlur"/>
      <feFlood flood-opacity=".4"/>
      <feComposite in2="pf_100_offsetBlur" operator="in" result="pf_100_dropShadow"/>
      <feBlend in="SourceGraphic" in2="pf_100_dropShadow"/>
    </filter>
  </defs>
  <g filter="url(#fbu9uccNmvPYYp2vdB2jpcCxz11d0yn8)">
    <linearGradient id="_lgradient_28" x2="0" y2="1" gradientTransform="matrix(244.65 0 0 228.34 5.68 11.95)" gradientUnits="userSpaceOnUse">
      <stop stop-color="#504945" offset="0"/>
      <stop stop-color="#3c3836" offset="1"/>
    </linearGradient>
    <path d="m165.69 11.95c74.056 0 84.639 10.557 84.639 84.544v59.251c0 73.986-10.584 84.544-84.639 84.544h-75.37c-74.056 0-84.639-10.557-84.639-84.544v-59.251c0-73.987 10.584-84.544 84.639-84.544h75.37z" fill="url(#_lgradient_28)"/>
  </g>
  <g opacity=".4">
    <linearGradient id="_lgradient_29" x1=".517" x2=".517" y2="1" gradientTransform="matrix(244.65,0,0,228.34,5.68,11.95)" gradientUnits="userSpaceOnUse">
      <stop stop-color="#ebdbb2" offset="0"/>
      <stop stop-color="#ebdbb2" stop-opacity=".098" offset=".125"/>
      <stop stop-color="#282828" stop-opacity=".098" offset=".925"/>
      <stop stop-color="#282828" stop-opacity=".498" offset="1"/>
    </linearGradient>
    <path d="m165.07 11.951c4.328-0.009825 8.6559 0.039299 12.984 0.13755 3.8755 0.078598 7.751 0.22597 11.626 0.45194 3.4525 0.1965 6.9051 0.48141 10.348 0.85476 3.0591 0.33404 6.1182 0.78598 9.1477 1.346 2.7148 0.50106 5.4001 1.1397 8.0461 1.9158 2.4 0.69756 4.7509 1.5621 7.0231 2.5839 2.1148 0.94318 4.1411 2.0632 6.0591 3.3502 1.8394 1.2379 3.5607 2.6527 5.1345 4.2148 1.564 1.572 2.9804 3.2815 4.2198 5.1187 1.2886 1.9158 2.4099 3.9397 3.364 6.0422 1.023 2.2793 1.8886 4.6176 2.5968 7.0051 0.77706 2.6429 1.4164 5.325 1.9181 8.0367 0.56066 3.026 1.0131 6.0717 1.3476 9.1272 0.37378 3.4387 0.65903 6.8773 0.85575 10.326 0.22624 3.8611 0.37378 7.7321 0.46231 11.593 0.088537 4.3229 0.13771 8.6458 0.12788 12.959v58.212c0.009831 4.3229-0.039339 8.636-0.12788 12.959-0.088523 3.871-0.23606 7.7321-0.46231 11.593-0.19672 3.4485-0.48197 6.897-0.85575 10.326-0.33443 3.0555-0.7869 6.111-1.3476 9.137-0.50166 2.7018-1.141 5.384-1.9181 8.0269-0.70821 2.3874-1.5738 4.7355-2.5968 7.0051-0.9541 2.1123-2.0754 4.1264-3.364 6.0422-1.2394 1.8372-2.6558 3.5566-4.2198 5.1187-1.5738 1.5621-3.2952 2.9769-5.1345 4.2148-1.9181 1.287-3.9443 2.4071-6.0591 3.3502-2.2722 1.0218-4.623 1.8864-7.0231 2.5937-2.646 0.77616-5.3313 1.4148-8.0461 1.906-3.0296 0.56984-6.0886 1.012-9.1477 1.346-3.4427 0.37333-6.8952 0.65826-10.348 0.85475-3.8755 0.22597-7.751 0.37335-11.626 0.46177-4.328 0.088419-8.6559 0.13755-12.984 0.12773h-74.126c-4.328 0.009819-8.6559-0.039308-12.984-0.12773-3.8755-0.08842-7.751-0.2358-11.626-0.46177-3.4525-0.19649-6.9051-0.48142-10.348-0.85475-3.0591-0.33405-6.1182-0.77616-9.1477-1.346-2.7148-0.49124-5.4001-1.1298-8.0461-1.906-2.4-0.70737-4.7509-1.572-7.0231-2.5937-2.1148-0.94317-4.1411-2.0632-6.0591-3.3502-1.8394-1.2379-3.5607-2.6527-5.1345-4.2148-1.564-1.5621-2.9804-3.2815-4.2198-5.1187-1.2886-1.9158-2.4099-3.9299-3.364-6.0422-1.023-2.2695-1.8886-4.6176-2.5968-7.0051-0.77706-2.6429-1.4164-5.325-1.9181-8.0269-0.56067-3.026-1.0131-6.0815-1.3476-9.137-0.37378-3.4289-0.65903-6.8773-0.85576-10.326-0.22623-3.8611-0.37378-7.7223-0.4623-11.593-0.088526-4.3229-0.13771-8.636-0.12787-12.959v-58.212c-0.009836-4.3131 0.039345-8.636 0.12787-12.959 0.088527-3.8611 0.23607-7.7321 0.4623-11.593 0.19672-3.4485 0.48198-6.8872 0.85576-10.326 0.33443-3.0555 0.7869-6.1012 1.3476-9.1272 0.50165-2.7116 1.141-5.3938 1.9181-8.0367 0.70821-2.3874 1.5738-4.7257 2.5968-7.0051 0.95412-2.1025 2.0755-4.1264 3.364-6.0422 1.2394-1.8372 2.6558-3.5467 4.2198-5.1187 1.5738-1.5621 3.2951-2.9769 5.1345-4.2148 1.9181-1.287 3.9443-2.4071 6.0591-3.3502 2.2722-1.0218 4.623-1.8864 7.0231-2.5839 2.646-0.77616 5.3313-1.4148 8.0461-1.9158 3.0296-0.56001 6.0886-1.012 9.1477-1.346 3.4427-0.37334 6.8952-0.65826 10.348-0.85476 3.8755-0.22597 7.751-0.37334 11.626-0.45194 4.3279-0.098248 8.6559-0.14737 12.984-0.13755h74.126zm0.009846 4.0085c4.2984-0.009825 8.5969 0.039299 12.895 0.12772 3.8263 0.088423 7.6526 0.23579 11.479 0.45194 3.3837 0.1965 6.7674 0.47159 10.131 0.84493 2.9705 0.31439 5.9313 0.74668 8.8625 1.2969 2.5771 0.47159 5.1345 1.0807 7.6526 1.8176 2.223 0.64844 4.3968 1.4541 6.5018 2.3972 1.9082 0.85476 3.7378 1.8667 5.469 3.026 1.623 1.0906 3.1378 2.3383 4.5247 3.7236s2.6361 2.8983 3.7378 4.5194c1.1607 1.7292 2.1738 3.5467 3.0296 5.4429 0.94427 2.1123 1.7509 4.2836 2.4 6.4942 0.74756 2.5151 1.3476 5.0598 1.8295 7.6338 0.541 2.9278 0.9738 5.8752 1.2984 8.8423 0.37378 3.3601 0.6492 6.73 0.84592 10.11 0.2164 3.8218 0.37378 7.6338 0.45246 11.456 0.088538 4.2934 0.13771 8.577 0.13771 12.87v58.212c0 4.2934-0.049169 8.577-0.13771 12.87-0.078677 3.8218-0.23606 7.6437-0.45246 11.456-0.19672 3.3797-0.47214 6.7496-0.84592 10.12-0.3246 2.9573-0.7574 5.9047-1.2984 8.8325-0.48197 2.5741-1.082 5.1187-1.8295 7.6339-0.64918 2.2204-1.4558 4.3819-2.4 6.4942-0.85576 1.8962-1.8689 3.7236-3.0296 5.4429-1.1017 1.6309-2.3509 3.1439-3.7378 4.5292-1.3869 1.3755-2.9017 2.6232-4.5247 3.7138-1.7312 1.1593-3.5607 2.1713-5.469 3.026-2.105 0.953-4.2788 1.7488-6.5018 2.3972-2.5181 0.73686-5.0755 1.346-7.6526 1.8176-2.9312 0.55018-5.8919 0.98248-8.8625 1.3067-3.364 0.36351-6.7477 0.64844-10.131 0.8351-3.8263 0.21615-7.6526 0.37335-11.479 0.45195-4.2985 0.098254-8.5969 0.13755-12.895 0.13755h-0.009846-74.126-0.009838c-4.2984 0-8.5969-0.039292-12.895-0.13755-3.8263-0.0786-7.6526-0.2358-11.479-0.45195-3.3837-0.18666-6.7673-0.47158-10.131-0.8351-2.9706-0.32422-5.9313-0.75651-8.8625-1.3067-2.5771-0.47158-5.1345-1.0807-7.6526-1.8176-2.223-0.64842-4.3968-1.4442-6.5018-2.3972-1.9082-0.85475-3.7378-1.8667-5.469-3.026-1.623-1.0906-3.1378-2.3383-4.5247-3.7138-1.3869-1.3853-2.6361-2.8983-3.7378-4.5292-1.1607-1.7193-2.1738-3.5467-3.0296-5.4429-0.94428-2.1123-1.7509-4.2738-2.4-6.4942-0.74756-2.5151-1.3476-5.0598-1.8295-7.6339-0.541-2.9278-0.97379-5.8752-1.2984-8.8325-0.37378-3.3699-0.64919-6.7398-0.84592-10.12-0.2164-3.812-0.37378-7.6339-0.45247-11.456-0.088526-4.2934-0.13771-8.577-0.13771-12.87v-58.212c0-4.2934 0.049181-8.577 0.13771-12.87 0.07869-3.8218 0.23607-7.6338 0.45247-11.456 0.19672-3.3797 0.47214-6.7496 0.84592-10.11 0.3246-2.9671 0.75739-5.9145 1.2984-8.8423 0.48198-2.5741 1.082-5.1187 1.8295-7.6338 0.64919-2.2106 1.4558-4.3818 2.4-6.4942 0.85575-1.8962 1.8689-3.7138 3.0296-5.4429 1.1017-1.6211 2.3509-3.1341 3.7378-4.5194s2.9017-2.633 4.5247-3.7236c1.7312-1.1593 3.5607-2.1713 5.469-3.026 2.105-0.94318 4.2788-1.7488 6.5018-2.3972 2.5181-0.73686 5.0755-1.346 7.6526-1.8176 2.9312-0.55019 5.8919-0.98248 8.8625-1.2969 3.364-0.37334 6.7477-0.64843 10.131-0.84493 3.8263-0.21614 7.6526-0.36352 11.479-0.45194 4.2984-0.088423 8.5969-0.13755 12.895-0.12772h0.009838 74.126 0.009846z" fill="url(#_lgradient_29)" fill-rule="evenodd"/>
  </g>
  <defs>
    <filter id="KeHGX82VzL0mHsQ4DfugynQEEbKn9iIi" x="-.077446" y="-.081633" width="1.1549" height="1.1633" color-interpolation-filters="sRGB">
      <feGaussianBlur stdDeviation="4.294"/>
    </filter>
  </defs>
  <g filter="url(#KeHGX82VzL0mHsQ4DfugynQEEbKn9iIi)" opacity=".4">
    <path d="m173.38 74.257c-0.12346 7.0791-1.7063 15.098-4.7215 23.557-0.60748 1.7042-1.1631 3.2316-1.2349 3.3937-0.061161 0.13827 0.17778 0.3591 0.62212 0.66854 0.22325-0.61347 0.3112-0.83907 0.61283-1.6853 3.3566-9.4164 4.9604-18.302 4.7215-25.934v-4.04e-4zm-107.06 33.067c-0.19558 0.99988-0.18267 2.0715 0.12071 2.9435 0.73182 2.1051 2.885 3.5252 5.91 3.8998 0.1601-0.20811 0.30305-0.4239 0.47356-0.62676l1.2907-1.5367-1.7224-0.20428c-3.0488-0.36606-5.2164-1.7936-5.9519-3.9091-0.061031-0.17543-0.080708-0.37648-0.12071-0.5664l4.7e-5 -7.1e-5zm2.8413 16.157c-0.18155 1.1969-0.095602 2.2733 0.21356 3.1848l0.60829-0.98647-0.40861-0.81295c-0.20894-0.40885-0.3316-0.88426-0.41313-1.3882l-1.05e-4 0.002853zm117.69 0.023295c-0.085669 0.49141-0.20554 0.95681-0.4132 1.3649l-0.4132 0.81248 0.61749 1.0028c0.31734-0.91162 0.38539-1.9913 0.20892-3.1802v2.4e-5zm-125.32 24.02c-0.17222 1.9445 0.057458 3.6079 0.7289 5.0187 0.75067 1.5784 2.8425 3.479 4.1831 3.8023l0.49212 0.11141 0.004636 4.5822c0.001426 9.4131 0.72961 15.316 2.2842 18.487 0.7288 1.488 2.2185 2.9868 3.4959 3.5192 1.9834 0.82246 4.8608 0.63812 6.8804-0.44106l0.73819-0.38998 0.78925 0.82174c6.5968 6.8934 17.314 12.686 28.465 15.377 3.9174 0.94131 9.8631 1.792 13.933 1.9917 6.4156 0.3122 13.002-0.14222 19.179-1.3278 5.7063-1.0955 10.635-2.7008 15.938-5.195 5.7415-2.7003 9.9218-5.5031 14.313-9.5919l2.4793-2.3121 0.66854 0.4457c1.8194 1.2037 5.1102 1.4837 7.196 0.61749 1.2771-0.53032 2.7674-2.0274 3.4959-3.5145 1.5535-3.1705 2.2771-8.97 2.2842-18.301v-2.377c-0.007131 9.3313-0.7307 15.131-2.2842 18.301-0.72861 1.4871-2.2188 2.9889-3.4959 3.5192-2.086 0.86624-5.3766 0.58162-7.196-0.62212l-0.66854-0.44106-2.4793 2.3074c-4.3916 4.0885-8.5719 6.8915-14.313 9.5919-5.3032 2.4942-10.232 4.0997-15.938 5.195-6.1765 1.1856-12.763 1.64-19.179 1.3278-4.0695-0.19967-10.015-1.0504-13.933-1.9917-11.15-2.6908-21.867-8.4784-28.465-15.372l-0.78925-0.8264-0.73819 0.38998c-2.0195 1.0792-4.897 1.2635-6.8804 0.44106-1.2774-0.53246-2.7671-2.0311-3.4959-3.5192-1.5546-3.171-2.2828-9.0694-2.2842-18.482l-0.004636-4.587-0.49212-0.11141c-1.339-0.32328-3.4308-2.2249-4.1815-3.8033-0.38056-0.79869-0.61756-1.6806-0.7288-2.6409l-0.001759 2.85e-4zm132.96 0.004754c-0.11134 0.95952-0.349 1.8388-0.7289 2.6371-0.75105 1.5781-2.8422 3.4764-4.1831 3.7978l-0.49212 0.12071v2.377l0.49212-0.12071c1.3407-0.32138 3.432-2.2196 4.1831-3.7978 0.67106-1.4101 0.9009-3.07 0.7289-5.0141z"/>
  </g>
  <path d="m123.52 198.03c-4.0695-0.19967-10.017-1.0507-13.934-1.992-11.151-2.6908-21.866-8.4813-28.463-15.375l-0.78937-0.82526-0.73745 0.39335c-2.0195 1.0792-4.8996 1.2598-6.883 0.43738-1.2784-0.53246-2.7693-2.03-3.4981-3.518-1.5546-3.171-2.2834-9.0708-2.2848-18.484l-4.76e-4 -4.5829-0.493-0.1141c-1.3407-0.32328-3.4344-2.2249-4.185-3.8033-1.6064-3.3754-0.83197-8.0724 2.4845-15.075 0.99218-2.0966 3.1125-5.9616 4.5078-8.2151l0.73974-1.1933-0.4117-0.81295c-1.3535-2.6575 0.035655-7.502 3.2523-11.329l1.2898-1.5356-1.721-0.20443c-3.0488-0.36606-5.2186-1.7923-5.954-3.9079-0.47636-1.3692-0.30569-3.2518 0.4117-4.5306 0.77254-1.3739 4.5178-4.9205 6.6629-6.3063 3.6982-2.3889 8.3239-4.3547 13.801-5.8642l3.1111-0.85764 0.057049-6.3743c0.060377-6.795 0.25957-9.0846 1.1852-13.638 1.1847-5.8276 3.8603-12.436 5.5894-13.804 1.3492-1.0683 3.5242-1.33 5.0313-0.6052 1.2751 0.61299 1.9713 1.4862 3.0153 3.7838 1.0966 2.4134 6.7646 13.178 9.4635 17.973l1.6887 3.0003 3.2444 0.78851c1.7844 0.43367 4.9889 1.2776 7.1207 1.8753 2.132 0.59778 3.914 1.0868 3.9602 1.0868 0.046115 0 0.083958-0.45026 0.083958-1.0005 0-1.9702 1.123-3.8121 2.8964-4.7503 2.0952-0.98381 4.388-0.49414 5.9046 0.23942 0.88032 0.42732 2.3956 1.3501 3.3673 2.0505 0.97164 0.70047 1.7987 1.2736 1.8378 1.2736 0.27521 0 13.605-14.664 16.569-18.227 1.0423-1.2531 2.1865-2.6181 2.5427-3.0331 2.0928-2.4393 6.2188-1.9736 7.7397 0.87356 0.47398 0.8873 1.251 4.6469 1.5012 7.2628 0.78519 8.2127-0.79018 18.128-4.5613 28.708-0.60748 1.7042-1.1633 3.2314-1.2352 3.3935-0.10136 0.2292 0.30864 0.55019 1.8364 1.4379 2.2415 1.3024 5.7258 3.6007 7.6926 5.0745 2.1139 1.5837 6.0467 5.4458 7.1483 7.0189 2.6319 3.7605 3.5463 7.7382 2.3287 10.131l-0.4117 0.80924 0.73993 1.1957c1.395 2.2543 3.5154 6.1176 4.5076 8.2132 3.3162 7.0033 4.0907 11.703 2.4847 15.077-0.75105 1.5781-2.8444 3.479-4.185 3.8004l-0.493 0.11819-0.002853 4.765c-0.007131 9.3313-0.7289 15.129-2.2824 18.3-0.72861 1.4871-2.22 2.9872-3.4971 3.5176-2.086 0.86624-5.3759 0.58195-7.1953-0.62179l-0.66795-0.44194-2.4812 2.3098c-4.3916 4.0885-8.5726 6.8896-14.314 9.59-5.3032 2.4942-10.23 4.1006-15.936 5.1962-6.1765 1.1856-12.765 1.6426-19.181 1.3304l0.002139-0.002567z" fill="#fb4934"/>
  <g opacity=".2">
    <path d="m128 182.05c0 3.8366-3.751 8.9377-7.9346 8.9377s-6.3277-5.2866-6.3277-9.1231c0-3.8356 3.9307-1.6901 8.1157-1.6901 4.185 0 6.1466-1.9621 6.1466 1.8734v0.002091z"/>
  </g>
  <ellipse cx="128" cy="131.56" rx="33.279" ry="28.525" fill="#ebdbb2" vector-effect="non-scaling-stroke"/>
  <path d="m128 117.3c-1.1196 0.002294-2.2301 0.25175-3.2803 0.73688 2.0237 1.0451 3.2805 3.0397 3.2803 5.2057 0 3.2815-2.837 5.9419-6.3372 5.9426-1.1024-8.29e-4 -2.1856-0.2712-3.1425-0.78442-0.016418 0.26101-0.025931 0.52263-0.028525 0.78442 0 6.564 4.257 11.885 9.5082 11.885s9.5082-5.3212 9.5082-11.885c0-6.564-4.257-11.885-9.5082-11.885z" fill="#282828"/>
  <path d="m128 179.68c0 3.8366-3.751 8.9377-7.9346 8.9377s-6.3277-5.2866-6.3277-9.1231c0-3.8356 3.9307-1.6901 8.1157-1.6901 4.185 0 6.1466-1.9621 6.1466 1.8734v0.002091z" fill="#ebdbb2"/>
  <path d="m117.64 176.31c-8.101-0.019016-16.036-1.9111-22.919-5.472 7.2785 5.3388 16.406 8.2626 25.829 8.2674 22.492 0 40.728-8.448 40.728-28.525-5.5342 19.828-22.928 25.194-43.638 25.727v0.002377z" fill="#cc241d"/>
  <g opacity=".2">
    <path d="m94.722 94.233 0.040885-4.9138c0.043738-5.2376 0.18779-7.0028 0.85669-10.513 0.85669-4.4921 2.7902-9.5862 4.0419-10.641 0.9753-0.82341 2.5472-1.0251 3.6369-0.46654 0.92158 0.47253 1.4248 1.1457 2.1793 2.9166 0.79256 1.8605 4.8891 10.158 6.8397 13.855l1.217 2.3129c2.3961 7.6617-17.209 11.588-18.812 7.4497l-5.23e-4 1.67e-4z"/>
  </g>
  <path d="m94.722 91.856 0.040885-4.9138c0.043738-5.2376 0.18779-7.0028 0.85669-10.513 0.85669-4.4921 2.7902-9.5862 4.0419-10.641 0.9753-0.82341 2.5472-1.0251 3.6369-0.46654 0.92158 0.47253 1.4248 1.1457 2.1793 2.9166 0.79256 1.8605 4.8891 10.158 6.8397 13.855l1.217 2.3129c2.3961 7.6617-17.209 11.59-18.812 7.4497l-5.23e-4 1.67e-4z" fill="#ebdbb2"/>
  <g opacity=".2">
    <path d="m161.65 99.693 1.469-4.7817c1.5688-5.0978 1.9872-6.8407 2.4864-10.382 0.64656-4.5316 0.54672-9.8586-0.19967-11.127-0.58475-0.99028-1.8731-1.4933-2.9808-1.1633-0.9318 0.27906-1.5736 0.83482-2.7621 2.4084-1.2503 1.653-7.307 8.9149-10.112 12.125l-1.7558 2.0087c-4.4006 6.9771 11.213 14.621 13.856 10.912l-0.001332-1.43e-4z"/>
  </g>
  <path d="m161.65 97.316 1.469-4.7821c1.5688-5.0978 1.9872-6.8407 2.4864-10.382 0.64656-4.5316 0.54672-9.8586-0.19967-11.127-0.58475-0.99028-1.8731-1.4933-2.9808-1.1633-0.9318 0.27907-1.5736 0.83482-2.7621 2.4084-1.2503 1.653-7.307 8.9149-10.112 12.125l-1.7558 2.0087c-4.4006 6.9771 11.213 14.621 13.856 10.912l-0.001332 3.32e-4z" fill="#ebdbb2"/>
  <g opacity=".2">
    <path d="m99.714 55.539c-0.9009 0.10839-1.7828 0.44094-2.4579 0.97506-1.7281 1.3682-4.4047 7.975-5.5884 13.803-0.92705 4.5535-1.1291 6.8449-1.1885 13.641l-0.057049 6.3729-3.1092 0.86049c-5.4767 1.507-10.1 3.4729-13.799 5.8618-2.145 1.3882-5.8944 4.9324-6.6669 6.3063-0.6254 1.1148-0.8013 2.6718-0.52913 3.9649 0.11148-0.57049 0.26908-1.1243 0.52913-1.5879 0.77254-1.3739 4.5219-4.9181 6.6669-6.3063 3.6984-2.3889 8.3218-4.3547 13.799-5.8618l3.1092-0.86049 0.057049-6.3729c0.059426-6.796 0.26148-9.0874 1.1885-13.641 1.1838-5.8276 3.8603-12.434 5.5884-13.803 1.3502-1.0685 3.5228-1.3283 5.0298-0.60353 1.2741 0.61304 1.9729 1.4861 3.0165 3.7838 1.0958 2.4134 6.7627 13.176 9.463 17.971l1.6901 2.9998 3.2447 0.78918c1.7852 0.43262 4.9847 1.2789 7.1169 1.8755 2.1322 0.59902 3.915 1.0863 3.9602 1.0863s0.083197-0.44688 0.083197-0.99836c0-1.9706 1.1243-3.8104 2.8976-4.7493 2.0942-0.9841 4.388-0.4968 5.9046 0.2377 0.88188 0.42549 2.3937 1.3502 3.3659 2.0514 0.97221 0.70123 1.7994 1.2717 1.8398 1.2717 0.27336 0 13.606-14.664 16.568-18.227 1.0435-1.2532 2.1893-2.6167 2.5458-3.0317 2.0918-2.4393 6.2184-1.9744 7.7397 0.87285 0.47303 0.88711 1.248 4.6452 1.4975 7.2612 0.087951 0.9028 0.13312 1.8382 0.16402 2.7809 0.030901-1.7768-0.004755-3.5099-0.16402-5.158-0.24959-2.6159-1.0245-6.374-1.4975-7.2612-1.5213-2.8472-5.6479-3.3122-7.7397-0.87285-0.35656 0.41503-1.5023 1.7785-2.5458 3.0317-2.9618 3.5632-16.295 18.227-16.568 18.227-0.04041 0-0.86762-0.57049-1.8398-1.2717-0.97221-0.70123-2.484-1.6259-3.3659-2.0514-1.5166-0.73451-3.8104-1.2266-5.9046-0.24246-1.7733 0.93893-2.8976 2.7835-2.8976 4.7541 0 0.55148-0.038033 0.99836-0.083197 0.99836s-1.8279-0.4873-3.9602-1.0863c-2.1322-0.59664-5.3317-1.4429-7.1169-1.8755l-3.2447-0.78918-1.6901-2.9998c-2.7003-4.795-8.3672-15.558-9.463-17.971-1.0435-2.2977-1.7424-3.1707-3.0165-3.7838-0.75352-0.3625-1.6711-0.47983-2.572-0.37153zm68.335 46.338c-0.2282 0.62041-0.58713 1.6259-0.62279 1.7091-0.10221 0.2282 0.30664 0.54672 1.8327 1.4334 2.2416 1.3026 5.7263 3.6012 7.6945 5.075 2.1132 1.5831 6.0472 5.4458 7.1502 7.0194 1.5213 2.175 2.4507 4.4166 2.7431 6.3871 0.41598-2.3889-0.56098-5.6455-2.7431-8.7642-1.1029-1.5736-5.037-5.4363-7.1502-7.0194-1.9682-1.4738-5.4529-3.7724-7.6945-5.075-0.60615-0.3518-0.91754-0.56336-1.2099-0.76541zm-95.7 12.289c-2.3949 3.1116-3.6098 6.7318-3.1895 9.3133 0.36393-2.4008 1.6589-5.1796 3.663-7.5638l1.2907-1.5356-1.7224-0.20443c-0.015213-0.002377-0.02686-0.009508-0.041836-0.009508zm-2.9761 12.499-0.13002 0.2068c-1.3953 2.2534-3.5157 6.1161-4.5078 8.2127-2.532 5.3484-3.5725 9.3465-3.2128 12.444 0.23961-2.7075 1.2822-5.9854 3.2128-10.062 0.99218-2.0966 3.1125-5.964 4.5078-8.2174l0.73831-1.1933-0.40862-0.81057c-0.089852-0.17828-0.13359-0.38746-0.19967-0.58zm117.26 0.016639c-0.066557 0.19016-0.11648 0.38746-0.20443 0.56336l-0.41361 0.81057 0.73926 1.1933c1.3953 2.2558 3.5157 6.1185 4.5069 8.2127 1.9302 4.079 2.9737 7.357 3.2138 10.067 0.35893-3.0973-0.68221-7.0955-3.2138-12.444-0.99123-2.0942-3.1116-5.9569-4.5069-8.2127l-0.12123-0.19016z" fill="#ebdbb2"/>
  </g>
</svg>
