<svg width="256" height="256" style="isolation:isolate" version="1.1" xmlns="http://www.w3.org/2000/svg">
  <g filter="url(#a)">
    <linearGradient id="b" x1=".50002" x2=".50002" y1="-.00051239" y2="1" gradientTransform="matrix(244.65,0,0,228.34,5.676,11.947)" gradientUnits="userSpaceOnUse">
      <stop stop-color="#fabd2f" offset="0"/>
      <stop stop-color="#fabd2f" offset="1"/>
    </linearGradient>
    <path d="m165.68 11.947c72.707 0 84.639 12.053 84.639 84.544v59.251c0 72.561-11.932 84.543-84.639 84.543h-75.37c-72.294 0-84.639-11.982-84.639-84.543v-59.251c0-72.491 12.329-84.544 84.639-84.544z" fill="url(#b)"/>
  </g>
  <defs>
    <filter id="a" x="-.042124" y="-.045133" width="1.0842" height="1.1078" color-interpolation-filters="sRGB">
      <feGaussianBlur in="SourceGraphic" stdDeviation="4.294"/>
      <feOffset dy="4" result="pf_100_offsetBlur"/>
      <feFlood flood-opacity=".4"/>
      <feComposite in2="pf_100_offsetBlur" operator="in" result="pf_100_dropShadow"/>
      <feBlend in="SourceGraphic" in2="pf_100_dropShadow"/>
    </filter>
    <filter id="cnbpFvf3oyQNEUFMMYC7shB8WRLrZlZ9" x="-.071074" y="-.13725" width="1.1421" height="1.2745" color-interpolation-filters="sRGB">
      <feGaussianBlur stdDeviation="4.294"/>
    </filter>
    <linearGradient id="_lgradient_41" x1="128" x2="29.146" y1="27.852" y2="126.71" gradientUnits="userSpaceOnUse">
      <stop stop-color="#ebdbb2" offset="0"/>
      <stop stop-color="#d5c4a1" offset="1"/>
    </linearGradient>
    <linearGradient id="_lgradient_42" x2="0" y2="1" gradientTransform="matrix(145 0 0 145 55.5 54.206)" gradientUnits="userSpaceOnUse">
      <stop stop-color="#3c3836" offset="-99"/>
      <stop stop-color="#282828" offset="1"/>
    </linearGradient>
  </defs>
  <g opacity=".4">
    <linearGradient id="c" x1=".517" x2=".517" y2="1" gradientTransform="matrix(244.65,0,0,228.34,5.68,11.95)" gradientUnits="userSpaceOnUse">
      <stop stop-color="#ebdbb2" offset="0"/>
      <stop stop-color="#ebdbb2" stop-opacity=".098" offset=".125"/>
      <stop stop-color="#282828" stop-opacity=".098039" offset=".925"/>
      <stop stop-color="#282828" stop-opacity=".59854" offset="1"/>
    </linearGradient>
    <path d="m165.07 11.951c4.328-0.01 8.656 0.04 12.984 0.138 3.875 0.078 7.7436 0.25854 11.62 0.48454 3.453 0.196 6.8876 0.5327 10.33 0.9057 3.06 0.335 6.0892 0.83409 9.1192 1.3941 2.7131 0.50032 5.3525 1.181 7.9999 1.9571 2.3983 0.69679 4.7544 1.61 7.0323 2.6338 2.1121 0.94124 4.0427 2.0439 5.9631 3.3319 1.8405 1.2399 3.5996 2.7014 5.1741 4.2652 1.5652 1.5692 2.886 3.1628 4.1277 4.9987 1.2864 1.9174 2.4086 3.8707 3.3603 5.9744 1.0207 2.2746 1.9193 4.5772 2.628 6.9675 0.77696 2.6443 1.4779 5.3272 1.9787 8.0374 0.56201 3.0246 1.0626 6.0601 1.3989 9.1181 0.374 3.439 0.70873 6.8493 0.90573 10.297 0.226 3.861 0.42171 7.7394 0.51071 11.6 0.088 4.323 0.138 8.646 0.128 12.96v58.21c0.01 4.324-0.04 8.637-0.128 12.96-0.085 3.8668-0.28821 7.7331-0.51114 11.595-0.19655 3.4488-0.53822 6.9467-0.91224 10.38-0.33634 3.0613-0.82936 6.0316-1.3914 9.0596-0.50199 2.7066-1.1867 5.3458-1.9626 7.987-0.7071 2.3908-1.5665 4.6263-2.5888 6.9002-0.94995 2.1048-2.1624 4.2292-3.4512 6.1454-1.2392 1.8377-2.5377 3.3902-4.1052 4.9572-1.5746 1.5638-3.412 3.0712-5.2525 4.3111-1.9201 1.2879-3.8611 2.3701-5.9729 3.3114-2.3498 1.0736-4.5744 1.8717-6.9323 2.584-2.6776 0.81656-5.2934 1.4166-7.976 1.948-3.0309 0.56603-6.051 1.0612-9.1165 1.3921-3.5041 0.40869-6.8203 0.68433-10.336 0.90377-3.875 0.226-7.789 0.40013-11.665 0.48813-4.328 0.088-8.6314 0.15082-12.959 0.14082h-74.126c-4.328 0.01-8.6566-0.0545-12.985-0.14247-3.9049-0.0955-7.7449-0.24667-11.628-0.49085-3.4941-0.21923-7.0445-0.5149-10.452-0.92805-3.1873-0.37665-5.9337-0.7937-8.9951-1.3902-2.833-0.56139-5.3421-1.1637-7.9464-1.9566-2.4295-0.73175-4.8105-1.6266-7.0523-2.6548-2.139-0.97893-4.0617-2.0635-5.9983-3.3731-1.8405-1.2399-3.5141-2.6495-5.0886-4.2133-1.5676-1.5671-2.9061-3.1787-4.1454-5.0164-1.2884-1.9162-2.4021-3.8332-3.3518-5.9379-1.0223-2.2739-1.9238-4.5236-2.6309-6.9144-0.77585-2.6412-1.4977-5.3053-1.9996-8.0119-0.56202-3.028-1.0938-6.1087-1.4301-9.17-0.37402-3.4341-0.72617-6.8459-0.92272-10.295-0.22292-3.8613-0.42179-7.7427-0.50684-11.61-0.09185-4.3194-0.13452-8.6396-0.128-12.96v-58.21c-0.01-4.314 0.04-8.637 0.128-12.96 0.089-3.86 0.28015-7.7353 0.50615-11.596 0.197-3.448 0.54883-6.857 0.92283-10.296 0.335-3.055 0.87336-6.1638 1.4344-9.1898 0.50085-2.7102 1.1807-5.2262 1.9577-7.8705 0.70872-2.3902 1.7549-4.9868 2.7756-7.2614 0.95209-2.1037 1.9632-3.7998 3.2499-5.7172 1.2418-1.8358 2.594-3.4604 4.1593-5.0296 1.5745-1.5638 3.3273-3.0214 5.1678-4.2614 1.9201-1.2879 3.8238-2.3848 5.9356-3.3261 2.278-1.0238 4.5428-1.9236 6.9411-2.6204 2.6474-0.77617 5.2743-1.4761 7.9874-1.9764 3.0317-0.56124 6.1381-1.085 9.203-1.4208 3.443-0.373 6.8398-0.71288 10.293-0.90888 3.875-0.226 7.7331-0.41514 11.609-0.49314 4.328-0.098 8.6625-0.14613 12.991-0.13613zm0.01 4.009c4.298-0.01 8.597 0.039 12.895 0.127 3.827 0.089 7.6466 0.26854 11.474 0.48454 3.383 0.197 6.7724 0.43946 10.136 0.81246 2.971 0.315 5.9391 0.74869 8.8701 1.2987 2.5807 0.47339 5.1059 1.0723 7.6238 1.8101 2.2193 0.6492 4.4135 1.4563 6.5231 2.4032 1.9054 0.85272 3.7179 1.8543 5.4527 3.0153 1.6245 1.0927 3.1568 2.3505 4.5413 3.7347 1.3858 1.385 2.6374 2.8981 3.738 4.519 1.1601 1.7266 2.1737 3.5473 3.03 5.443 0.94487 2.1083 1.7467 4.2779 2.4 6.494 0.74152 2.5113 1.352 5.0594 1.829 7.634 0.54 2.928 0.974 5.875 1.298 8.842 0.374 3.36 0.65 6.73 0.846 10.11 0.217 3.822 0.374 7.634 0.453 11.456 0.088 4.293 0.137 8.577 0.137 12.87v58.212c0 4.293-0.049 8.577-0.137 12.87-0.082 3.8211-0.0546 7.643-0.27458 11.459-0.196 3.38-0.65042 6.7474-1.0244 10.117-0.3245 2.9589-0.75746 5.9049-1.298 8.832-0.47731 2.5747-1.0881 5.1228-1.83 7.634-0.65169 2.2166-1.4536 4.3863-2.4 6.494-0.8542 1.8968-1.8678 3.7176-3.03 5.443-1.0976 1.6263-2.349 3.1432-3.737 4.53-1.3876 1.3779-2.9027 2.6211-4.525 3.713-1.7345 1.161-3.564 2.1732-5.469 3.026-2.1078 0.95119-4.2802 1.7522-6.501 2.397-2.5179 0.7378-5.0723 1.3446-7.653 1.818-2.931 0.55-5.8828 0.98162-8.8538 1.3056-3.364 0.364-6.7562 0.64938-10.139 0.83638-3.827 0.216-7.6776 0.36018-11.505 0.43918-4.298 0.098-8.5724 0.14982-12.87 0.14982h-74.146c-4.298 0-8.5976-0.0545-12.896-0.15147-3.8291-0.082-7.6582-0.26152-11.482-0.48085-3.3834-0.19001-6.7587-0.42545-10.127-0.79268-2.97-0.32174-5.9265-0.7574-8.863-1.306-2.5807-0.47339-5.1351-1.0802-7.653-1.818-2.2208-0.64482-4.3673-1.4321-6.4751-2.3833-1.9053-0.85272-3.7547-1.8723-5.4895-3.0333-1.622-1.0922-3.1431-2.3423-4.5303-3.7205-1.3882-1.3864-2.64-2.903-3.738-4.529-1.1622-1.7254-2.1758-3.5462-3.03-5.443-0.94645-2.1077-1.7483-4.2774-2.4-6.494-0.74152-2.5113-1.352-5.0594-1.829-7.634-0.54054-2.9271-0.9735-5.8731-1.298-8.832-0.374-3.37-0.65-6.74-0.846-10.12-0.21993-3.8156-0.37096-7.6349-0.453-11.456-0.08992-4.2894-0.13559-8.5796-0.137-12.87v-58.212c0-4.293 0.049-8.577 0.137-12.87 0.079-3.822 0.236-7.634 0.453-11.456 0.197-3.38 0.472-6.75 0.846-10.11 0.324-2.967 0.757-5.914 1.298-8.842 0.47732-2.5747 1.0915-5.1375 1.8334-7.6487 0.65331-2.2161 1.4517-4.371 2.3966-6.4793 0.85634-1.8957 1.8699-3.7164 3.03-5.443 1.1003-1.6212 2.3515-3.1346 3.737-4.52 1.3849-1.3839 2.9002-2.6307 4.525-3.723 1.7345-1.161 3.564-2.1732 5.469-3.026 2.1096-0.94691 4.2817-1.7478 6.501-2.397 2.5179-0.7378 5.0723-1.3446 7.653-1.818 2.931-0.55 5.892-0.982 8.863-1.297 3.364-0.373 6.7432-0.64645 10.126-0.84345 3.8239-0.21443 7.6549-0.36667 11.484-0.45355 4.298-0.088 8.597-0.137 12.895-0.127z" fill="url(#c)" fill-rule="evenodd"/>
  </g>
  <g transform="translate(10.159 -177.09)">
    <g transform="translate(-10.163 170.05)" style="isolation:isolate">
      <g filter="url(#cnbpFvf3oyQNEUFMMYC7shB8WRLrZlZ9)" opacity=".4">
        <path d="m55.632 126.71c-0.03055 0.86481-0.13153 1.7141-0.13153 2.5892 0 40.164 32.335 72.499 72.499 72.499 40.164 0 72.499-32.335 72.499-72.499 0-0.87516-0.10357-1.7244-0.12947-2.5892-1.3671 38.947-33.08 69.91-72.37 69.91-39.29 0-71.002-30.962-72.369-69.91z"/>
      </g>
      <path d="m197.91 126.71c0-38.585-31.326-69.911-69.911-69.911-38.585 0-69.911 31.326-69.911 69.911 0 38.585 31.326 69.911 69.911 69.911 38.585 0 69.911-31.326 69.911-69.911z" fill="url(#_lgradient_41)"/>
      <g opacity=".2">
        <path d="m128 56.872c-9.4147 0-18.591 1.7897-27.281 5.3099-8.9921 3.6461-17.059 9.0011-23.979 15.919-6.9228 6.9204-12.282 14.999-15.93 23.988-3.1879 7.866-4.872 16.141-5.1786 24.618 0.9394 27.534 17.045 51.028 40.306 62.477-0.58208-0.3107-1.1755-0.59034-1.7498-0.92175l27.433 4.8832c0.20714 0.13464 0.41946 0.2641 0.64732 0.37802 2.3459 1.1962 4.7591 2.206 7.219 3.0915 38.622-0.77676 69.569-31.428 70.885-69.908-0.31071-8.477-1.9938-16.752-5.1786-24.618-3.6509-8.9897-9.0056-17.07-15.924-23.988-6.9186-6.9183-14.987-12.273-23.987-15.919-8.6897-3.5203-17.866-5.3099-27.281-5.3099zm-21.595 8.1316c-0.0518 0.07819-0.10357 0.1569-0.15018 0.24287 0.0829 0.06214 0.12429 0.11755 0.17089 0.13153 4.8834 1.6866 9.3267 4.1728 13.511 7.1203l-8.1926 24.677c-0.0414 0.01553-0.0777 0.02589-0.11911 0.04143-1.6779 0.69391-3.3868 1.3101-5.0388 2.061-6.7995 3.0915-13.434 6.5144-19.681 10.621l-16.173-9.5645c0.02382-0.50748 0.11082-1.0098 0.28327-1.4707 1.086-2.8895 2.16-5.8003 3.3884-8.6355 0.94561-2.1837 2.0202-4.3001 3.1962-6.3617 0.76902-0.84978 1.5655-1.6871 2.3868-2.5084 7.6799-7.6775 16.756-13.131 26.419-16.354zm47.286 1.5069c8.1252 3.308 15.738 8.2658 22.32 14.848 5.9916 5.9904 10.621 12.824 13.899 20.126-4.0548-2.7912-8.3893-5.0852-12.947-6.9598-0.70947-0.28999-1.4345-0.54373-2.175-0.79747l-21.362-24.081c0.15018-1.0398 0.23303-2.0853 0.2641-3.1355zm-8.757 5.3809c1.4707-0.01761 2.957 0.01605 4.4484 0.12118l21.693 24.453c-0.74572 2.3614-1.4759 4.7331-2.3459 7.0426-1.5329 4.0547-3.1693 8.068-4.8006 12.086l-31.517 3.2365c-0.37803-0.49712-0.76643-0.98907-1.1755-1.4551-3.7182-4.2152-7.4675-8.4046-11.206-12.604 0.0362-0.0414 0.0673-0.0725 0.0984-0.10875-1.507-1.5069-3.0088-3.0138-4.5209-4.5259l8.7726-26.405c0.6059-0.16053 1.217-0.29828 1.828-0.36456 4.7695-0.4847 9.5442-1.0279 14.324-1.3044 1.4656-0.08234 2.9259-0.15432 4.4018-0.17192zm-76.819 32.233 16.365 9.6784v0.41428c-0.04195 8.7981 0.85084 17.539 2.6297 26.146 0.0062 0.0414 0.01243 0.057 0.0202 0.0932l-12.694 19.89c-0.27602-0.13982-0.5422-0.28481-0.8089-0.45052-3.4924-2.1956-6.7192-4.7279-9.5685-7.7003-4.3516-12.247-5.088-25.493-2.2045-38.077 1.3563-2.6772 2.9073-5.2457 4.6525-7.7106 0.53909-0.75604 1.0311-1.5483 1.608-2.2837zm96.208 16.053c3.9616 5.8102 7.7109 11.739 10.973 17.979 0.60071 1.1496 1.2014 2.3148 1.797 3.4902l-15.665 29.211c-0.088 0.0207-0.1709 0.0362-0.26411 0.0466-8.4618 1.5846-17.001 2.4287-25.608 2.4701l-15.629-27.026c2.434-4.5156 4.842-9.0467 7.2345-13.583 1.6209-3.076 3.2211-6.1778 4.8161-9.2745zm31.341 14.349c-1.1704 15.628-7.7213 30.925-19.653 42.851-2.5738 2.5788-5.3081 4.9091-8.1718 6.9805-0.47125-3.7958-1.2895-7.5139-2.4443-11.144l16.214-30.252c4.464-2.0351 8.7622-4.3343 12.76-7.1928 0.52304-0.36767 0.95804-0.78712 1.2946-1.2428zm-105.51 9.7509c0.28068 0.0673 0.58622 0.15018 0.94043 0.24339 7.9284 2.1231 16.007 3.6301 24.132 4.8107 0.47643 0.0673 0.87518 0.12946 1.217 0.1657l15.189 26.265c-2.6359 3.7077-5.3029 7.3999-8.032 11.046-0.45054 0.60587-0.93215 1.191-1.4345 1.771l-32.366-5.7791c-3.7866-4.5984-7.1869-9.4558-10.114-14.655-0.7452-1.3205-1.5836-2.6151-2.2149-3.9926z"/>
      </g>
      <path d="m100.72 59.512c-8.994 3.6465-17.064 9.008-23.985 15.926-6.9223 6.9203-12.278 14.993-15.926 23.985-3.5223 8.6874-5.3094 17.868-5.3094 27.284 0 9.4147 1.7872 18.595 5.3094 27.278 3.6485 8.994 9.006 17.066 15.926 23.985 6.9203 6.9223 14.989 12.28 23.985 15.926 8.6874 3.5263 17.866 5.3074 27.282 5.3074 9.4167 0 18.593-1.7872 27.28-5.3074 8.992-3.6465 17.066-9.004 23.985-15.926 6.9223-6.9183 12.28-14.987 15.926-23.985 3.5223-8.6834 5.3054-17.864 5.3054-27.278 0-9.4167-1.7852-18.597-5.3054-27.284-3.6465-8.992-9.008-17.066-15.926-23.985-6.9183-6.9183-14.985-12.28-23.985-15.926-8.6874-3.5203-17.864-5.3054-27.28-5.3054-9.4167 0-18.595 1.7852-27.282 5.3054zm-27.1 97.716c-3.4922-2.1919-6.7099-4.7164-9.559-7.6897-4.3517-12.246-5.089-25.503-2.2059-38.088 1.3564-2.6748 2.8992-5.2433 4.6443-7.7037 0.53896-0.75935 1.0378-1.5508 1.6149-2.2881l16.361 9.6812v0.41073c-0.04207 8.7996 0.85151 17.535 2.6307 26.144 6e-3 0.0401 0.01202 0.0621 0.02003 0.0982l-12.689 19.895c-0.27649-0.14025-0.55098-0.29252-0.81745-0.46082zm48.646 33.634c2.823 1.4406 5.7262 2.6567 8.7095 3.6465-12.673 0.55098-25.471-2.4183-36.785-8.9098l27.427 4.8867c0.21038 0.13424 0.42476 0.26246 0.64916 0.37667zm-0.10018-4.9508-32.366-5.7682c-3.7867-4.5982-7.1928-9.4628-10.12-14.662-0.74532-1.3224-1.5768-2.6066-2.2079-3.9871l12.677-19.875c0.2805 0.0701 0.59305 0.14426 0.94768 0.23843 7.9301 2.1218 16 3.6304 24.127 4.8126 0.47484 0.0661 0.87155 0.12422 1.2102 0.16028l15.195 26.273c-2.6367 3.7066-5.3034 7.3931-8.0283 11.04-0.45281 0.60708-0.93366 1.1901-1.4346 1.7692zm53.848-11.192c-2.5766 2.5786-5.3114 4.9027-8.1745 6.9744-0.47484-3.7947-1.2943-7.5134-2.4504-11.146l16.213-30.246c4.4659-2.0336 8.7736-4.3397 12.773-7.1988 0.52293-0.37066 0.9577-0.78539 1.2943-1.2382-1.1741 15.63-7.7257 30.927-19.655 42.854zm-0.71928-39.226c0.60308 1.15 1.1981 2.3121 1.7952 3.4902l-15.66 29.212c-0.0902 0.02-0.17631 0.0401-0.26647 0.0521-8.465 1.5808-16.998 2.4223-25.604 2.4624l-15.628-27.022c2.4323-4.516 4.8426-9.0501 7.2328-13.586 1.6229-3.0775 3.2177-6.175 4.8106-9.2705l32.343-3.3219c3.961 5.8103 7.7137 11.745 10.976 17.984zm-6.5617-34.65c-1.5347 4.0532-3.1776 8.0643-4.8106 12.083l-31.508 3.2358c-0.37667-0.49689-0.76736-0.98576-1.1781-1.4526-3.7206-4.2135-7.4653-8.4009-11.204-12.6 0.0341-0.0421 0.0681-0.0741 0.10218-0.1122-1.5087-1.5067-3.0214-3.0134-4.53-4.524l8.7716-26.409c0.60507-0.16028 1.2142-0.29452 1.8292-0.36064 4.7685-0.48486 9.543-1.0338 14.323-1.3103 2.9272-0.16429 5.8704-0.25846 8.8477-0.04809l21.703 24.461c-0.74733 2.3602-1.4766 4.7264-2.3462 7.0365zm7.2809-22.151c5.9866 5.9906 10.623 12.827 13.901 20.13-4.0552-2.791-8.3909-5.087-12.949-6.9584-0.70926-0.29252-1.4366-0.55098-2.1759-0.80543l-21.362-24.077c0.14827-1.0398 0.22641-2.0817 0.25846-3.1316 8.1264 3.3079 15.744 8.2607 22.328 14.842zm-69.756-16.107c0.0841 0.06211 0.12422 0.1142 0.1723 0.12823 4.8827 1.687 9.3246 4.1714 13.512 7.1187l-8.1946 24.678c-0.0421 0.01202-0.0821 0.02404-0.12222 0.04207-1.677 0.69323-3.386 1.3143-5.037 2.0657-6.8021 3.0915-13.434 6.5156-19.681 10.621l-16.171-9.567c0.02404-0.5049 0.1102-1.0178 0.2825-1.4746 1.0859-2.8931 2.1538-5.8023 3.382-8.6373 0.94568-2.1839 2.0236-4.2936 3.1997-6.3553 0.76937-0.84951 1.5668-1.691 2.3882-2.5125 7.6796-7.6776 16.756-13.129 26.419-16.353-0.0501 0.07814-0.10218 0.16028-0.15026 0.24644z" fill="url(#_lgradient_42)"/>
      <g opacity=".2">
        <path d="m128 54.205c-40.164 0-72.5 32.336-72.5 72.5 0 0.29402 0.02922 0.58008 0.04551 0.86984 0.91024-39.361 32.867-70.781 72.454-70.781 39.588 0 71.544 31.419 72.454 70.781 0.0165-0.28976 0.0455-0.57582 0.0455-0.86984 0-40.164-32.336-72.5-72.5-72.5z" fill="#ebdbb2"/>
      </g>
    </g>
  </g>
</svg>
