<svg width="256" height="256" style="isolation:isolate" version="1.1" viewBox="0 0 256 256" xmlns="http://www.w3.org/2000/svg">
  <defs>
    <filter id="UFphLA4GQxtQKkWoU0cPmX3AI0Cr2Aiu" x="-.042124" y="-.045133" width="1.0842" height="1.1078" color-interpolation-filters="sRGB">
      <feGaussianBlur in="SourceGraphic" stdDeviation="4.294"/>
      <feOffset dx="0" dy="4" result="pf_100_offsetBlur"/>
      <feFlood flood-opacity=".4"/>
      <feComposite in2="pf_100_offsetBlur" operator="in" result="pf_100_dropShadow"/>
      <feBlend in="SourceGraphic" in2="pf_100_dropShadow"/>
    </filter>
  </defs>
  <g filter="url(#UFphLA4GQxtQKkWoU0cPmX3AI0Cr2Aiu)">
    <linearGradient id="_lgradient_48" x2="0" y2="1" gradientTransform="matrix(244.65 0 0 228.34 5.68 11.95)" gradientUnits="userSpaceOnUse">
      <stop stop-color="#504945" offset="0"/>
      <stop stop-color="#3c3836" offset="1"/>
    </linearGradient>
    <path d="m165.69 11.95c74.056 0 84.639 10.557 84.639 84.544v59.251c0 73.986-10.584 84.544-84.639 84.544h-75.37c-74.056 0-84.639-10.557-84.639-84.544v-59.251c0-73.987 10.584-84.544 84.639-84.544h75.37z" fill="url(#_lgradient_48)"/>
  </g>
  <g opacity=".4">
    <linearGradient id="_lgradient_49" x1=".517" x2=".517" y2="1" gradientTransform="matrix(244.65,0,0,228.34,5.68,11.95)" gradientUnits="userSpaceOnUse">
      <stop stop-color="#ebdbb2" offset="0"/>
      <stop stop-color="#ebdbb2" stop-opacity=".098" offset=".125"/>
      <stop stop-color="#282828" stop-opacity=".098" offset=".925"/>
      <stop stop-color="#282828" stop-opacity=".498" offset="1"/>
    </linearGradient>
    <path d="m165.07 11.951c4.328-0.009825 8.6559 0.039299 12.984 0.13755 3.8755 0.078598 7.751 0.22597 11.626 0.45194 3.4525 0.1965 6.9051 0.48141 10.348 0.85476 3.0591 0.33404 6.1182 0.78598 9.1477 1.346 2.7148 0.50106 5.4001 1.1397 8.0461 1.9158 2.4 0.69756 4.7509 1.5621 7.0231 2.5839 2.1148 0.94318 4.1411 2.0632 6.0591 3.3502 1.8394 1.2379 3.5607 2.6527 5.1345 4.2148 1.564 1.572 2.9804 3.2815 4.2198 5.1187 1.2886 1.9158 2.4099 3.9397 3.364 6.0422 1.023 2.2793 1.8886 4.6176 2.5968 7.0051 0.77706 2.6429 1.4164 5.325 1.9181 8.0367 0.56066 3.026 1.0131 6.0717 1.3476 9.1272 0.37378 3.4387 0.65903 6.8773 0.85575 10.326 0.22624 3.8611 0.37378 7.7321 0.46231 11.593 0.088537 4.3229 0.13771 8.6458 0.12788 12.959v58.212c0.009831 4.3229-0.039339 8.636-0.12788 12.959-0.088523 3.871-0.23606 7.7321-0.46231 11.593-0.19672 3.4485-0.48197 6.897-0.85575 10.326-0.33443 3.0555-0.7869 6.111-1.3476 9.137-0.50166 2.7018-1.141 5.384-1.9181 8.0269-0.70821 2.3874-1.5738 4.7355-2.5968 7.0051-0.9541 2.1123-2.0754 4.1264-3.364 6.0422-1.2394 1.8372-2.6558 3.5566-4.2198 5.1187-1.5738 1.5621-3.2952 2.9769-5.1345 4.2148-1.9181 1.287-3.9443 2.4071-6.0591 3.3502-2.2722 1.0218-4.623 1.8864-7.0231 2.5937-2.646 0.77616-5.3313 1.4148-8.0461 1.906-3.0296 0.56984-6.0886 1.012-9.1477 1.346-3.4427 0.37333-6.8952 0.65826-10.348 0.85475-3.8755 0.22597-7.751 0.37335-11.626 0.46177-4.328 0.088419-8.6559 0.13755-12.984 0.12773h-74.126c-4.328 0.009819-8.6559-0.039308-12.984-0.12773-3.8755-0.08842-7.751-0.2358-11.626-0.46177-3.4525-0.19649-6.9051-0.48142-10.348-0.85475-3.0591-0.33405-6.1182-0.77616-9.1477-1.346-2.7148-0.49124-5.4001-1.1298-8.0461-1.906-2.4-0.70737-4.7509-1.572-7.0231-2.5937-2.1148-0.94317-4.1411-2.0632-6.0591-3.3502-1.8394-1.2379-3.5607-2.6527-5.1345-4.2148-1.564-1.5621-2.9804-3.2815-4.2198-5.1187-1.2886-1.9158-2.4099-3.9299-3.364-6.0422-1.023-2.2695-1.8886-4.6176-2.5968-7.0051-0.77706-2.6429-1.4164-5.325-1.9181-8.0269-0.56067-3.026-1.0131-6.0815-1.3476-9.137-0.37378-3.4289-0.65903-6.8773-0.85576-10.326-0.22623-3.8611-0.37378-7.7223-0.4623-11.593-0.088526-4.3229-0.13771-8.636-0.12787-12.959v-58.212c-0.009836-4.3131 0.039345-8.636 0.12787-12.959 0.088527-3.8611 0.23607-7.7321 0.4623-11.593 0.19672-3.4485 0.48198-6.8872 0.85576-10.326 0.33443-3.0555 0.7869-6.1012 1.3476-9.1272 0.50165-2.7116 1.141-5.3938 1.9181-8.0367 0.70821-2.3874 1.5738-4.7257 2.5968-7.0051 0.95412-2.1025 2.0755-4.1264 3.364-6.0422 1.2394-1.8372 2.6558-3.5467 4.2198-5.1187 1.5738-1.5621 3.2951-2.9769 5.1345-4.2148 1.9181-1.287 3.9443-2.4071 6.0591-3.3502 2.2722-1.0218 4.623-1.8864 7.0231-2.5839 2.646-0.77616 5.3313-1.4148 8.0461-1.9158 3.0296-0.56001 6.0886-1.012 9.1477-1.346 3.4427-0.37334 6.8952-0.65826 10.348-0.85476 3.8755-0.22597 7.751-0.37334 11.626-0.45194 4.3279-0.098248 8.6559-0.14737 12.984-0.13755h74.126zm0.009846 4.0085c4.2984-0.009825 8.5969 0.039299 12.895 0.12772 3.8263 0.088423 7.6526 0.23579 11.479 0.45194 3.3837 0.1965 6.7674 0.47159 10.131 0.84493 2.9705 0.31439 5.9313 0.74668 8.8625 1.2969 2.5771 0.47159 5.1345 1.0807 7.6526 1.8176 2.223 0.64844 4.3968 1.4541 6.5018 2.3972 1.9082 0.85476 3.7378 1.8667 5.469 3.026 1.623 1.0906 3.1378 2.3383 4.5247 3.7236s2.6361 2.8983 3.7378 4.5194c1.1607 1.7292 2.1738 3.5467 3.0296 5.4429 0.94427 2.1123 1.7509 4.2836 2.4 6.4942 0.74756 2.5151 1.3476 5.0598 1.8295 7.6338 0.541 2.9278 0.9738 5.8752 1.2984 8.8423 0.37378 3.3601 0.6492 6.73 0.84592 10.11 0.2164 3.8218 0.37378 7.6338 0.45246 11.456 0.088538 4.2934 0.13771 8.577 0.13771 12.87v58.212c0 4.2934-0.049169 8.577-0.13771 12.87-0.078677 3.8218-0.23606 7.6437-0.45246 11.456-0.19672 3.3797-0.47214 6.7496-0.84592 10.12-0.3246 2.9573-0.7574 5.9047-1.2984 8.8325-0.48197 2.5741-1.082 5.1187-1.8295 7.6339-0.64918 2.2204-1.4558 4.3819-2.4 6.4942-0.85576 1.8962-1.8689 3.7236-3.0296 5.4429-1.1017 1.6309-2.3509 3.1439-3.7378 4.5292-1.3869 1.3755-2.9017 2.6232-4.5247 3.7138-1.7312 1.1593-3.5607 2.1713-5.469 3.026-2.105 0.953-4.2788 1.7488-6.5018 2.3972-2.5181 0.73686-5.0755 1.346-7.6526 1.8176-2.9312 0.55018-5.8919 0.98248-8.8625 1.3067-3.364 0.36351-6.7477 0.64844-10.131 0.8351-3.8263 0.21615-7.6526 0.37335-11.479 0.45195-4.2985 0.098254-8.5969 0.13755-12.895 0.13755h-0.009846-74.126-0.009838c-4.2984 0-8.5969-0.039292-12.895-0.13755-3.8263-0.0786-7.6526-0.2358-11.479-0.45195-3.3837-0.18666-6.7673-0.47158-10.131-0.8351-2.9706-0.32422-5.9313-0.75651-8.8625-1.3067-2.5771-0.47158-5.1345-1.0807-7.6526-1.8176-2.223-0.64842-4.3968-1.4442-6.5018-2.3972-1.9082-0.85475-3.7378-1.8667-5.469-3.026-1.623-1.0906-3.1378-2.3383-4.5247-3.7138-1.3869-1.3853-2.6361-2.8983-3.7378-4.5292-1.1607-1.7193-2.1738-3.5467-3.0296-5.4429-0.94428-2.1123-1.7509-4.2738-2.4-6.4942-0.74756-2.5151-1.3476-5.0598-1.8295-7.6339-0.541-2.9278-0.97379-5.8752-1.2984-8.8325-0.37378-3.3699-0.64919-6.7398-0.84592-10.12-0.2164-3.812-0.37378-7.6339-0.45247-11.456-0.088526-4.2934-0.13771-8.577-0.13771-12.87v-58.212c0-4.2934 0.049181-8.577 0.13771-12.87 0.07869-3.8218 0.23607-7.6338 0.45247-11.456 0.19672-3.3797 0.47214-6.7496 0.84592-10.11 0.3246-2.9671 0.75739-5.9145 1.2984-8.8423 0.48198-2.5741 1.082-5.1187 1.8295-7.6338 0.64919-2.2106 1.4558-4.3818 2.4-6.4942 0.85575-1.8962 1.8689-3.7138 3.0296-5.4429 1.1017-1.6211 2.3509-3.1341 3.7378-4.5194s2.9017-2.633 4.5247-3.7236c1.7312-1.1593 3.5607-2.1713 5.469-3.026 2.105-0.94318 4.2788-1.7488 6.5018-2.3972 2.5181-0.73686 5.0755-1.346 7.6526-1.8176 2.9312-0.55019 5.8919-0.98248 8.8625-1.2969 3.364-0.37334 6.7477-0.64843 10.131-0.84493 3.8263-0.21614 7.6526-0.36352 11.479-0.45194 4.2984-0.088423 8.5969-0.13755 12.895-0.12772h0.009838 74.126 0.009846z" fill="url(#_lgradient_49)" fill-rule="evenodd"/>
  </g>
  <defs>
    <filter id="A36V8HdEZn3By3UOjBcy8zgkO1DUpYYm" x="-.07108" y="-.088704" width="1.1422" height="1.1774" color-interpolation-filters="sRGB">
      <feGaussianBlur stdDeviation="4.294"/>
    </filter>
  </defs>
  <g filter="url(#A36V8HdEZn3By3UOjBcy8zgkO1DUpYYm)" opacity=".4">
    <path d="m55.928 80.611c-0.78762 2.2287-0.43799 4.7015 0.93664 6.6245 1.3746 1.923 3.6012 3.054 5.9649 3.03h7.2409v-4.9305h-7.2409c-3.0837 0.038586-5.8535-1.88-6.9015-4.7804v0.056478zm144.14 0c-1.0317 2.9177-3.8035 4.8574-6.8981 4.8272h-7.2409v4.9305h7.2409c2.3754 0.029629 4.6142-1.1076 5.9913-3.0433 1.3771-1.9357 1.7172-4.4237 0.91022-6.658l-0.003378-0.05648zm-129.99 16.895v4.9305c5.32e-4 3.9988 3.2421 7.2403 7.2409 7.2409h16.895v-4.9305h-16.895c-3.9988-5.32e-4 -7.2403-3.2421-7.2409-7.2409zm115.85 0c-5.33e-4 3.9988-3.2421 7.2403-7.2409 7.2409h-16.895v4.9305h16.895c3.9988-5.33e-4 7.2403-3.2421 7.2409-7.2409v-4.9305zm-101.37 60.34v4.9305h9.6545v2.5362c0 14.639 12.055 26.427 27.031 26.427h13.52c14.976 0 27.031-11.789 27.031-26.427v-2.5362h9.6545v-4.9305h-9.6545v2.5358c0 14.639-12.055 26.428-27.031 26.428h-13.52c-14.979 0-27.033-11.585-27.033-26.55v-2.5357h-9.6545l0.001932 0.12213zm-28.624 14.529c-0.78762 2.2287-0.43799 4.7015 0.93664 6.6245 1.3746 1.923 3.6012 3.054 5.9649 3.03h7.2409v-4.9305h-7.2409c-3.0837 0.038587-5.8535-1.88-6.9015-4.7804v0.056478zm144.14 0c-1.0317 2.9177-3.8035 4.8574-6.8981 4.8272h-7.2409v4.9305h7.2409c2.3754 0.029628 4.6142-1.1076 5.9913-3.0433 1.3771-1.9357 1.7172-4.4237 0.91022-6.658l-0.003378-0.05648zm-129.99 12.068v4.9305c-0.04271 2.6151 1.328 5.05 3.5859 6.3701 2.2579 1.32 5.0521 1.32 7.31 0 2.2579-1.32 3.6286-3.755 3.5859-6.3701v-4.9305c0.04271 2.6151-1.328 5.05-3.5859 6.3701-2.2579 1.32-5.0521 1.32-7.31 0-2.2579-1.32-3.6286-3.755-3.5859-6.3701zm101.37 0v4.9305c-0.042694 2.6151 1.328 5.05 3.5859 6.37s5.0521 1.32 7.31 0c2.2579-1.32 3.6286-3.7549 3.5859-6.37v-4.9305c0.042694 2.6151-1.328 5.05-3.5859 6.37-2.2579 1.32-5.0521 1.32-7.31 0-2.2579-1.32-3.6286-3.7549-3.5859-6.37z" fill-rule="evenodd"/>
  </g>
  <linearGradient id="_lgradient_50" x2="0" y2="1" gradientTransform="matrix(144.8 0 0 135.18 55.596 59.363)" gradientUnits="userSpaceOnUse">
    <stop stop-color="#8ec07c" offset="0"/>
    <stop stop-color="#8ec07c" offset="1"/>
  </linearGradient>
  <path d="m185.93 180.04v7.2352c0 1.9294-0.77175 3.7623-2.1223 5.137-1.3506 1.3506-3.2076 2.1223-5.1128 2.1223-1.9294 0-3.7623-0.77175-5.137-2.1223-1.3506-1.3747-2.1223-3.2076-2.1223-5.137v-26.529h-9.6434v2.5324c0 14.639-12.057 26.423-27.033 26.423h-13.516c-14.976 0-27.033-11.784-27.033-26.423v-2.5324h-9.6453v26.529c0 1.9294-0.77175 3.7623-2.1223 5.137-1.3747 1.3506-3.2076 2.1223-5.137 2.1223-1.9053 0-3.7623-0.77175-5.1128-2.1223-1.3506-1.3747-2.1223-3.2076-2.1223-5.137v-7.2352h-7.2352c-1.9294 0-3.7623-0.74763-5.1128-2.1223-1.3747-1.3506-2.1223-3.1835-2.1223-5.1128 0-1.9294 0.74763-3.7623 2.1223-5.1128 1.3506-1.3747 3.1835-2.1223 5.1128-2.1223h7.2352v-12.083c0-3.9932 3.242-7.2352 7.2352-7.2352h16.905v-38.612h-16.905c-3.9932 0-7.2352-3.242-7.2352-7.2352v-12.083h-7.2352c-1.9294 0-3.7623-0.74763-5.1128-2.1223-1.3747-1.3506-2.1223-3.1835-2.1223-5.1128 0-1.9294 0.74763-3.7623 2.1223-5.1128 1.3506-1.3747 3.1835-2.1223 5.1128-2.1223h7.2352v-7.2352c0-1.9294 0.77175-3.7864 2.1223-5.137s3.2076-2.1223 5.1128-2.1223c1.9294 0 3.7623 0.77175 5.137 2.1223 1.3506 1.3506 2.1223 3.2076 2.1223 5.137v26.529h9.6453v-2.5315c0-14.639 12.057-26.423 27.033-26.423h13.516c14.976 0 27.033 11.784 27.033 26.423v2.5315h9.6434v-26.529c0-1.9294 0.77175-3.7864 2.1223-5.137 1.3747-1.3506 3.2076-2.1223 5.137-2.1223 1.9053 0 3.7623 0.77175 5.1128 2.1223s2.1223 3.2076 2.1223 5.137v7.2352h7.2352c1.9294 0 3.7623 0.74763 5.1128 2.1223 1.3747 1.3506 2.1223 3.1835 2.1223 5.1128 0 1.9294-0.74763 3.7623-2.1223 5.1128-1.3506 1.3747-3.1835 2.1223-5.1128 2.1223h-7.2352v12.083c0 3.9932-3.242 7.2352-7.2352 7.2352h-16.903v38.612h16.903c3.9932 0 7.2352 3.242 7.2352 7.2352v12.083h7.2352c1.9294 0 3.7623 0.74763 5.1128 2.1223 1.3747 1.3506 2.1223 3.1835 2.1223 5.1128 0 1.9294-0.74763 3.7623-2.1223 5.1128-1.3506 1.3747-3.1835 2.1223-5.1128 2.1223h-7.2352z" fill="url(#_lgradient_50)" fill-rule="evenodd"/>
  <g opacity=".2">
    <path d="m77.2 59.275c-3.9926 0.060487-7.1828 3.3413-7.1315 7.3341v2.4117c-0.051324-3.9927 3.1389-7.2736 7.1315-7.3341 1.9559-0.03017 3.8409 0.73222 5.2259 2.1137s2.1522 3.2644 2.1271 5.2204v-2.4117c0.025151-1.956-0.74207-3.839-2.1271-5.2204s-3.2699-2.1438-5.2259-2.1137zm101.37 0c-3.9908 0.063055-7.1782 3.3432-7.1268 7.3341v2.4117c-0.051341-3.9909 3.1361-7.271 7.1268-7.3341 1.9559-0.03017 3.8409 0.73222 5.2259 2.1137s2.1522 3.2644 2.1271 5.2204v-2.4117c0.025151-1.956-0.74207-3.839-2.1271-5.2204s-3.2699-2.1438-5.2259-2.1137zm-57.33 4.9224c-14.979 0-27.033 11.787-27.033 26.425v2.4117c0-14.639 12.054-26.425 27.033-26.425h13.514c14.979 0 27.033 11.787 27.033 26.425v-2.4117c0-14.639-12.054-26.425-27.033-26.425h-13.514zm-58.409 9.6516c-2.1438-0.025789-4.1888 0.89964-5.5844 2.5271-1.3956 1.6275-1.9984 3.7897-1.646 5.9045 0.60301-3.5103 3.669-6.061 7.2304-6.0152h7.2399v-2.4164h-7.2399zm123.09 0v2.4164h7.2399c3.5632-0.048156 6.6319 2.5031 7.2352 6.0152 0.35254-2.1156-0.25082-4.2786-1.6475-5.9063-1.3967-1.6277-3.443-2.5525-5.5876-2.5253h-7.2399zm-101.37 19.313v2.4117h9.6563v-0.2261-2.1856h-9.6563zm77.236 0v2.1856 0.2261h9.6563v-2.4117h-9.6563zm-84.476 53.095c-1.9208 5.2e-4 -3.7627 0.7641-5.1204 2.1227-1.3578 1.3586-2.1201 3.201-2.1194 5.1218v2.4117c0.001081-3.998 3.2418-7.2388 7.2399-7.2399h16.896v-2.4164h-16.896zm84.476 0v2.4164h16.896c3.998 0.001081 7.2388 3.2418 7.2399 7.2399v-2.4117c7.31e-4 -1.9208-0.76165-3.7632-2.1194-5.1218-1.3578-1.3586-3.1997-2.1222-5.1204-2.1227h-16.896zm-98.956 19.313c-2.1428-0.025545-4.1869 0.89926-5.5823 2.5256s-1.9989 3.7872-1.6481 5.9013c0.60301-3.5103 3.669-6.061 7.2304-6.0152h7.2399v-2.4117h-7.2399zm123.09 0v2.4117h7.2399c3.5632-0.048155 6.6319 2.5031 7.2352 6.0152 0.35098-2.1149-0.2531-4.2766-1.6496-5.9031s-3.4419-2.5507-5.5855-2.5238h-7.2399z" fill="#ebdbb2" fill-rule="evenodd"/>
  </g>
  <circle cx="103.72" cy="73.736" r="14.47" fill="#b16286" vector-effect="non-scaling-stroke"/>
  <circle cx="103.72" cy="73.736" r="9.647" fill="#ebdbb2" vector-effect="non-scaling-stroke"/>
  <circle cx="151.95" cy="73.736" r="14.47" fill="#b16286" vector-effect="non-scaling-stroke"/>
  <circle cx="151.95" cy="73.736" r="9.647" fill="#ebdbb2" vector-effect="non-scaling-stroke"/>
</svg>
