<svg width="256" height="256" version="1.1" viewBox="0 0 67.73 67.73" xmlns="http://www.w3.org/2000/svg">
  <defs>
    <clipPath id="c">
      <path d="M361.938-212C507.235-212 528-191.287 528-46.125v116.25C528 215.286 507.235 236 361.937 236H214.063C68.766 236 48 215.286 48 70.125v-116.25C48-191.287 68.765-212 214.063-212z" fill="#b16286"/>
    </clipPath>
    <linearGradient id="d" x1="296" x2="296" y1="-212" y2="236" gradientUnits="userSpaceOnUse">
      <stop stop-color="#ebdbb2" offset="0"/>
      <stop stop-color="#ebdbb2" stop-opacity=".098" offset=".125"/>
      <stop stop-opacity=".098" offset=".925"/>
      <stop stop-opacity=".498" offset="1"/>
    </linearGradient>
  </defs>
  <path d="m23.896 3.161c-9.797 0-15.394 0.697-18.545 3.843-3.15 3.147-3.85 8.738-3.85 18.526v15.677c0 9.788 0.7 15.379 3.85 18.525 3.15 3.147 8.748 3.844 18.545 3.844h19.941c9.798 0 15.395-0.697 18.545-3.844 3.15-3.146 3.85-8.737 3.85-18.525v-15.677c0-9.788-0.7-15.38-3.85-18.526s-8.747-3.843-18.545-3.843z" fill="#282828"/>
  <path d="m66.204 25.238c-5e-3 -2.275-0.041-4.365-0.15-6.202-0.057-0.98-0.133-1.9-0.23-2.764-0.096-0.865-0.215-1.674-0.357-2.431s-0.31-1.463-0.507-2.119c-0.195-0.656-0.419-1.264-0.674-1.826s-0.543-1.08-0.865-1.555a8.85 8.85 0 0 0-1.074-1.303 8.855 8.855 0 0 0-1.305-1.073c-0.476-0.322-0.994-0.608-1.557-0.863s-1.171-0.479-1.828-0.674a21.188 21.188 0 0 0-2.12-0.506 32.986 32.986 0 0 0-2.434-0.357 53.103 53.103 0 0 0-2.768-0.23c-1.13-0.066-2.522-0.067-3.814-0.09l-31.558 60.287c0.679 0.066 1.359 0.131 2.104 0.175 1.96 0.115 4.157 0.159 6.618 0.159h20.033c2.46 0 4.657-0.044 6.617-0.16 0.98-0.057 1.902-0.132 2.768-0.229a33.018 33.018 0 0 0 2.433-0.357c0.758-0.142 1.464-0.31 2.121-0.505a14.306 14.306 0 0 0 1.828-0.674c0.563-0.255 1.08-0.542 1.557-0.863 0.475-0.322 0.91-0.679 1.305-1.074a8.85 8.85 0 0 0 1.074-1.303c0.322-0.475 0.61-0.992 0.865-1.554 0.255-0.563 0.479-1.17 0.674-1.827a21.12 21.12 0 0 0 0.507-2.118c0.142-0.757 0.26-1.566 0.357-2.431s0.173-1.785 0.23-2.764c0.109-1.838 0.145-3.927 0.15-6.203z" display="none" fill="#1d2021"/>
  <path d="M63.858 9.032c-.136-.242-.255-.507-.406-.73a8.818 8.818 0 0 0-1.07-1.298 8.815 8.815 0 0 0-1.3-1.068c-.473-.32-.989-.606-1.55-.86s-1.165-.476-1.819-.67a20.952 20.952 0 0 0-1.715-.41l-31.254 59.58h10.5L63.859 9.031z" fill="#fb4934"/>
  <path d="M35.245 63.575h8.593c.718 0 1.258-.038 1.931-.046l20.44-38.962c-.012-2.024-.038-3.954-.136-5.619a52.603 52.603 0 0 0-.229-2.752 32.72 32.72 0 0 0-.356-2.42 21.027 21.027 0 0 0-.503-2.108 14.193 14.193 0 0 0-.673-1.818c-.134-.296-.302-.547-.454-.818L35.245 63.575z" fill="#fabd2f"/>
  <path d="M45.77 63.529c1.623-.02 3.276-.03 4.655-.112.976-.057 1.893-.132 2.755-.228s1.668-.213 2.422-.355c.422-.08.79-.186 1.18-.281L66.147 44.7c.03-1.155.085-2.195.085-3.493V25.53c0-.358-.022-.616-.024-.963L45.77 63.529z" fill="#b8bb26"/>
  <path d="M56.782 62.553c.308-.075.643-.136.931-.222.654-.194 1.26-.417 1.82-.67.56-.255 1.076-.54 1.55-.86.473-.32.905-.675 1.299-1.069.394-.393.75-.825 1.07-1.298.32-.473.606-.988.86-1.548.255-.56.478-1.164.673-1.817.194-.653.36-1.355.503-2.109.142-.754.26-1.56.356-2.42.096-.86.172-1.777.229-2.752.054-.915.049-2.067.074-3.088l-9.365 17.853z" fill="#83a598"/>
  <path d="M22.049 12.17l4.41 7.056-4.41 7.056h3.527l2.646-4.234 2.646 4.234h3.528l-4.41-7.056 4.41-7.055h-3.528l-2.646 4.234-2.646-4.234zm-14.111 0h12.347v1.765l-7.938 9.701h7.938v2.646H7.937v-1.764l7.938-9.701H7.937z" fill="#ebdbb2"/>
  <path transform="matrix(.13485 0 0 .13485 -4.971 31.75)" d="M361.938-212C507.235-212 528-191.287 528-46.125v116.25C528 215.286 507.235 236 361.937 236H214.063C68.766 236 48 215.286 48 70.125v-116.25C48-191.287 68.765-212 214.063-212z" clip-path="url(#c)" fill="none" opacity=".4" stroke="url(#d)" stroke-linecap="round" stroke-linejoin="round" stroke-width="8"/>
</svg>
