<svg width="256" height="256" style="isolation:isolate" version="1.1" viewBox="0 0 256 256" xmlns="http://www.w3.org/2000/svg">
  <defs>
    <filter id="nYgQKhBuvf3rT0FTveuKCrn2ea55bkd3" x="-.042124" y="-.045133" width="1.0842" height="1.1078" color-interpolation-filters="sRGB">
      <feGaussianBlur in="SourceGraphic" stdDeviation="4.294"/>
      <feOffset dx="0" dy="4" result="pf_100_offsetBlur"/>
      <feFlood flood-opacity=".4"/>
      <feComposite in2="pf_100_offsetBlur" operator="in" result="pf_100_dropShadow"/>
      <feBlend in="SourceGraphic" in2="pf_100_dropShadow"/>
    </filter>
  </defs>
  <g filter="url(#nYgQKhBuvf3rT0FTveuKCrn2ea55bkd3)">
    <linearGradient id="_lgradient_18" x2="0" y2="1" gradientTransform="matrix(244.65 0 0 228.34 5.68 11.95)" gradientUnits="userSpaceOnUse">
      <stop stop-color="#504945" offset="0"/>
      <stop stop-color="#3c3836" offset="1"/>
    </linearGradient>
    <path d="m165.69 11.95c74.056 0 84.639 10.557 84.639 84.544v59.251c0 73.986-10.583 84.543-84.639 84.543h-75.37c-74.055 0-84.639-10.557-84.639-84.543v-59.251c0-73.987 10.584-84.544 84.639-84.544h75.37z" fill="url(#_lgradient_18)"/>
  </g>
  <g opacity=".4">
    <linearGradient id="_lgradient_19" x1=".517" x2=".517" y2="1" gradientTransform="matrix(244.65,0,0,228.34,5.68,11.95)" gradientUnits="userSpaceOnUse">
      <stop stop-color="#ebdbb2" offset="0"/>
      <stop stop-color="#ebdbb2" stop-opacity=".098" offset=".125"/>
      <stop stop-color="#282828" stop-opacity=".098" offset=".925"/>
      <stop stop-color="#282828" stop-opacity=".498" offset="1"/>
    </linearGradient>
    <path d="m165.07 11.951c4.328-0.01 8.656 0.04 12.984 0.138 3.875 0.078 7.751 0.226 11.626 0.452 3.453 0.196 6.905 0.481 10.348 0.854 3.059 0.335 6.118 0.786 9.148 1.346 2.715 0.502 5.4 1.14 8.046 1.916 2.4 0.698 4.751 1.562 7.023 2.584 2.115 0.943 4.141 2.063 6.059 3.35 1.84 1.238 3.561 2.653 5.135 4.215 1.564 1.572 2.98 3.282 4.219 5.119 1.289 1.916 2.41 3.94 3.364 6.042 1.023 2.28 1.889 4.618 2.597 7.005 0.777 2.643 1.417 5.325 1.918 8.037 0.561 3.026 1.013 6.072 1.348 9.127 0.374 3.439 0.659 6.878 0.856 10.326 0.226 3.861 0.373 7.732 0.462 11.593 0.088 4.323 0.138 8.646 0.128 12.959v58.212c0.01 4.323-0.04 8.636-0.128 12.959-0.089 3.871-0.236 7.732-0.462 11.593-0.197 3.448-0.482 6.897-0.856 10.326-0.335 3.055-0.787 6.111-1.348 9.137-0.501 2.702-1.141 5.384-1.918 8.027-0.708 2.387-1.574 4.735-2.597 7.005-0.954 2.112-2.075 4.126-3.364 6.042-1.239 1.837-2.655 3.557-4.219 5.119-1.574 1.562-3.295 2.977-5.135 4.215-1.918 1.287-3.944 2.407-6.059 3.35-2.272 1.022-4.623 1.886-7.023 2.594-2.646 0.776-5.331 1.414-8.046 1.906-3.03 0.569-6.089 1.011-9.148 1.346-3.443 0.373-6.895 0.658-10.348 0.854-3.875 0.226-7.751 0.374-11.626 0.462-4.328 0.088-8.656 0.138-12.984 0.128h-74.126c-4.328 0.01-8.656-0.04-12.984-0.128-3.875-0.088-7.751-0.236-11.626-0.462-3.453-0.196-6.905-0.481-10.348-0.854-3.059-0.335-6.118-0.777-9.148-1.346-2.715-0.492-5.4-1.13-8.046-1.906-2.4-0.708-4.751-1.572-7.023-2.594-2.115-0.943-4.141-2.063-6.059-3.35-1.84-1.238-3.561-2.653-5.135-4.215-1.564-1.562-2.98-3.282-4.219-5.119-1.289-1.916-2.41-3.93-3.364-6.042-1.023-2.27-1.889-4.618-2.597-7.005-0.777-2.643-1.417-5.325-1.918-8.027-0.561-3.026-1.013-6.082-1.348-9.137-0.374-3.429-0.659-6.878-0.856-10.326-0.226-3.861-0.373-7.722-0.462-11.593-0.088-4.323-0.138-8.636-0.128-12.959v-58.212c-0.01-4.313 0.04-8.636 0.128-12.959 0.089-3.861 0.236-7.732 0.462-11.593 0.197-3.448 0.482-6.887 0.856-10.326 0.335-3.055 0.787-6.101 1.348-9.127 0.501-2.712 1.141-5.394 1.918-8.037 0.708-2.387 1.574-4.725 2.597-7.005 0.954-2.102 2.075-4.126 3.364-6.042 1.239-1.837 2.655-3.547 4.219-5.119 1.574-1.562 3.295-2.977 5.135-4.215 1.918-1.287 3.944-2.407 6.059-3.35 2.272-1.022 4.623-1.886 7.023-2.584 2.646-0.776 5.331-1.414 8.046-1.916 3.03-0.56 6.089-1.011 9.148-1.346 3.443-0.373 6.895-0.658 10.348-0.854 3.875-0.226 7.751-0.374 11.626-0.452 4.328-0.098 8.656-0.148 12.984-0.138h74.126zm0.01 4.009c4.298-0.01 8.597 0.039 12.895 0.127 3.827 0.089 7.653 0.236 11.479 0.452 3.384 0.197 6.767 0.472 10.131 0.845 2.971 0.315 5.932 0.747 8.863 1.297 2.577 0.472 5.134 1.081 7.653 1.818 2.223 0.648 4.396 1.454 6.501 2.397 1.909 0.855 3.738 1.867 5.469 3.026 1.623 1.091 3.138 2.338 4.525 3.724 1.387 1.385 2.636 2.898 3.738 4.519 1.16 1.729 2.174 3.547 3.029 5.443 0.945 2.112 1.751 4.284 2.4 6.494 0.748 2.515 1.348 5.06 1.83 7.634 0.541 2.928 0.974 5.875 1.298 8.842 0.374 3.36 0.65 6.73 0.846 10.11 0.217 3.822 0.374 7.634 0.453 11.456 0.088 4.293 0.137 8.577 0.137 12.87v58.212c0 4.293-0.049 8.577-0.137 12.87-0.079 3.822-0.236 7.644-0.453 11.456-0.196 3.38-0.472 6.75-0.846 10.12-0.324 2.957-0.757 5.904-1.298 8.832-0.482 2.574-1.082 5.119-1.83 7.634-0.649 2.22-1.455 4.382-2.4 6.494-0.855 1.896-1.869 3.724-3.029 5.443-1.102 1.631-2.351 3.144-3.738 4.529-1.387 1.376-2.902 2.623-4.525 3.714-1.731 1.159-3.56 2.171-5.469 3.026-2.105 0.953-4.278 1.749-6.501 2.397-2.519 0.737-5.076 1.346-7.653 1.818-2.931 0.55-5.892 0.982-8.863 1.306-3.364 0.364-6.747 0.649-10.131 0.836-3.826 0.216-7.652 0.373-11.479 0.452-4.298 0.098-8.597 0.137-12.895 0.137h-0.01-74.126-0.01c-4.298 0-8.597-0.039-12.895-0.137-3.827-0.079-7.653-0.236-11.479-0.452-3.384-0.187-6.767-0.472-10.131-0.836-2.971-0.324-5.932-0.756-8.863-1.306-2.577-0.472-5.134-1.081-7.653-1.818-2.223-0.648-4.396-1.444-6.501-2.397-1.909-0.855-3.738-1.867-5.469-3.026-1.623-1.091-3.138-2.338-4.525-3.714-1.387-1.385-2.636-2.898-3.738-4.529-1.16-1.719-2.174-3.547-3.029-5.443-0.945-2.112-1.751-4.274-2.4-6.494-0.748-2.515-1.348-5.06-1.83-7.634-0.541-2.928-0.974-5.875-1.298-8.832-0.374-3.37-0.649-6.74-0.846-10.12-0.217-3.812-0.374-7.634-0.453-11.456-0.088-4.293-0.137-8.577-0.137-12.87v-58.212c0-4.293 0.049-8.577 0.137-12.87 0.079-3.822 0.236-7.634 0.453-11.456 0.197-3.38 0.472-6.75 0.846-10.11 0.324-2.967 0.757-5.914 1.298-8.842 0.482-2.574 1.082-5.119 1.83-7.634 0.649-2.21 1.455-4.382 2.4-6.494 0.855-1.896 1.869-3.714 3.029-5.443 1.102-1.621 2.351-3.134 3.738-4.519 1.387-1.386 2.902-2.633 4.525-3.724 1.731-1.159 3.56-2.171 5.469-3.026 2.105-0.943 4.278-1.749 6.501-2.397 2.519-0.737 5.076-1.346 7.653-1.818 2.931-0.55 5.892-0.982 8.863-1.297 3.364-0.373 6.747-0.648 10.131-0.845 3.826-0.216 7.652-0.363 11.479-0.452 4.298-0.088 8.597-0.137 12.895-0.127h0.01 74.126 0.01z" fill="url(#_lgradient_19)" fill-rule="evenodd"/>
  </g>
  <defs>
    <filter id="aBu6HOBbSC78qdS7lzdWpxDC17cN35bS" x="-.072847" y="-.10583" width="1.1457" height="1.2117" color-interpolation-filters="sRGB">
      <feGaussianBlur stdDeviation="4.294"/>
    </filter>
  </defs>
  <g filter="url(#aBu6HOBbSC78qdS7lzdWpxDC17cN35bS)" opacity=".4">
    <path d="m58.262 104.12-0.557 0.963c-0.819 1.45-0.462 3.457 0.801 4.543l11.518 10.108c0.117-1.593 0.282-3.168 0.517-4.736l-12.035-10.564c-0.102-0.094-0.154-0.218-0.244-0.317v3e-3zm139.48 0c-0.09 0.098-0.142 0.227-0.243 0.314l-12.036 10.566c0.234 1.567 0.4 3.143 0.517 4.735l11.519-10.109c1.262-1.086 1.619-3.093 0.801-4.543l-0.556-0.966-2e-3 3e-3zm-127.76 22.105c-0.043 0.863-0.112 1.718-0.112 2.596 0 1.317 0.068 2.609 0.163 3.894l0.517-0.457c-0.298-1.988-0.466-3.997-0.568-6.032v-1e-3zm116.05 0c-0.102 2.035-0.27 4.045-0.567 6.033l0.517 0.457c0.094-1.285 0.162-2.577 0.162-3.894 0-0.878-0.068-1.733-0.112-2.596zm-127.76 22.106c-1.024 1.126-1.31 2.892-0.557 4.226l14.54 25.207c0.843 1.43 2.74 2.133 4.309 1.592l15.107-5.113c4.539 3.634 9.715 6.598 15.219 8.75l3.062 15.554c0.311 1.629 1.86 2.928 3.518 2.951h29.08c1.658-0.021 3.207-1.322 3.518-2.951l3.062-15.554c5.498-2.155 10.673-5.119 15.211-8.753l15.107 5.11c1.569 0.542 3.467-0.162 4.31-1.591l14.539-25.208c0.753-1.333 0.467-3.102-0.557-4.228l-13.983 24.244c-0.843 1.43-2.74 2.133-4.309 1.592l-15.112-5.114c-4.539 3.634-9.715 6.588-15.218 8.74l-3.062 15.565c-0.307 1.625-1.859 2.928-3.515 2.949h-29.08c-1.657-0.023-3.207-1.323-3.518-2.951l-3.058-15.564c-5.508-2.155-10.681-5.109-15.22-8.743l-15.108 5.109c-1.569 0.545-3.466-0.161-4.309-1.589l-13.982-24.245 6e-3 0.015z"/>
  </g>
  <linearGradient id="_lgradient_20" x2="0" y2="1" gradientTransform="matrix(141.47 0 0 145.36 57.266 53.542)" gradientUnits="userSpaceOnUse">
    <stop stop-color="#ebdbb2" offset="0"/>
    <stop stop-color="#d5c4a1" offset="1"/>
  </linearGradient>
  <path d="m113.12 53.547c-1.541 0.168-2.899 1.428-3.18 2.952l-3.066 15.558c-5.505 2.153-10.678 5.11-15.217 8.745l-15.102-5.111c-1.569-0.541-3.472 0.16-4.315 1.59l-14.536 25.211c-0.819 1.45-0.468 3.456 0.795 4.542l12.037 10.561c-0.423 2.832-0.681 5.681-0.681 8.631s0.257 5.799 0.681 8.63l-12.037 10.562c-1.262 1.086-1.614 3.092-0.795 4.542l14.536 25.211c0.843 1.43 2.746 2.131 4.315 1.59l15.103-5.11c4.54 3.633 9.713 6.591 15.217 8.744l3.066 15.558c0.311 1.628 1.863 2.93 3.521 2.952h29.071c1.658-0.021 3.209-1.324 3.52-2.952l3.066-15.558c5.505-2.153 10.678-5.11 15.217-8.744l15.103 5.11c1.569 0.541 3.473-0.16 4.316-1.59l14.535-25.211c0.819-1.45 0.468-3.456-0.794-4.542l-12.038-10.562c0.424-2.831 0.682-5.68 0.682-8.63s-0.258-5.799-0.682-8.631l12.038-10.561c1.262-1.086 1.613-3.092 0.794-4.542l-14.535-25.211c-0.843-1.43-2.747-2.131-4.316-1.59l-15.103 5.11c-4.542-3.636-9.713-6.594-15.216-8.747l-3.066-15.557c-0.311-1.629-1.862-2.93-3.52-2.953h-29.071c-0.114-3e-3 -0.228-3e-3 -0.341 0l-2e-3 3e-3z" fill="url(#_lgradient_20)"/>
  <g opacity=".1">
    <path d="m113.08 53.541c-1.541 0.167-2.801 1.396-3.082 2.92l-3.083 15.574c-5.504 2.153-10.71 5.127-15.25 8.761l-15.088-5.029c-1.569-0.541-3.537 0.031-4.38 1.46l-13.953 24.335c0.099 0.112 0.211 0.227 0.325 0.325l0.644 0.578 12.984-22.642c0.843-1.429 2.811-2.001 4.38-1.46l15.088 5.029c4.54-3.634 9.746-6.608 15.25-8.761l3.083-15.574c0.281-1.525 1.541-2.753 3.082-2.921 0.114-2e-3 0.211-2e-3 0.325 0h29.202c1.658 0.023 3.096 1.292 3.407 2.921l3.083 15.574c5.504 2.153 10.71 5.127 15.25 8.761l15.088-5.029c1.569-0.541 3.537 0.03 4.38 1.46l12.984 22.642 0.644-0.578c0.114-0.098 0.226-0.213 0.325-0.325l-13.953-24.335c-0.843-1.43-2.811-2.001-4.38-1.46l-15.088 5.029c-4.54-3.634-9.746-6.608-15.25-8.761l-3.083-15.574c-0.311-1.629-1.749-2.898-3.407-2.92h-29.202c-0.114-3e-3 -0.211-3e-3 -0.325 0zm-55.652 50.131c-0.087 0.48-0.101 0.817 0 1.297-0.073-0.409-0.061-0.888 0-1.297zm141.15 0c0.061 0.409 0.074 0.888 0 1.297 0.101-0.48 0.088-0.817 0-1.297zm-128.49 31.636-11.519 10.058c-0.114 0.098-0.225 0.213-0.325 0.325l0.974 1.703 10.87-9.491c0.058 0.789 0.162 1.553 0.238 2.322l0.248-0.213c-0.235-1.573-0.369-3.106-0.486-4.704zm115.83 0c-0.117 1.598-0.251 3.131-0.486 4.704l0.248 0.213c0.076-0.769 0.18-1.533 0.238-2.322l10.87 9.491 0.974-1.703c-0.1-0.112-0.211-0.227-0.325-0.325l-11.519-10.058z" fill="#ebdbb2"/>
  </g>
  <defs>
    <filter id="qnXg8fvWRdNo72kzQeEoNAh1DXfo5VZ3" x="-.12032" y="-.094526" width="1.2406" height="1.1891" color-interpolation-filters="sRGB">
      <feGaussianBlur stdDeviation="4.294"/>
    </filter>
  </defs>
  <g filter="url(#qnXg8fvWRdNo72kzQeEoNAh1DXfo5VZ3)" opacity=".4">
    <path d="m147.21 50.944c-3.634 0-3.635 3.808-3.635 3.808v47.12c-4.585-2.656-9.89-4.203-15.57-4.203-17.203 0-31.149 13.946-31.149 31.149s13.946 31.15 31.149 31.15 31.149-13.947 31.149-31.15c0-0.034-4e-3 -0.067-5e-3 -0.101v-62.198s7.318 6.314 9.785 12.862c1.261 3.347 1.256 6.757-1.643 9.415-2.353 1.35-3.125 3.436-2.712 5.252 0.628 2.759 3.982 4.899 8.644 2.915 7.005-3.652 9.283-10.199 9.283-15.65 0-16.354-20.76-30.369-35.296-30.369z"/>
  </g>
  <linearGradient id="_lgradient_21" x2="0" y2="1" gradientTransform="matrix(85.651 0 0 109.02 96.856 48.348)" gradientUnits="userSpaceOnUse">
    <stop stop-color="#8ec07c" offset="0"/>
    <stop stop-color="#8ec07c" offset="1"/>
  </linearGradient>
  <path d="m147.21 48.348c-3.634 0-3.635 3.808-3.635 3.808v47.12c-4.585-2.656-9.89-4.203-15.57-4.203-17.203 0-31.149 13.946-31.149 31.149 0 17.204 13.946 31.15 31.149 31.15s31.149-13.946 31.149-31.15c0-0.034-4e-3 -0.067-5e-3 -0.101v-62.198s7.318 6.314 9.785 12.862c1.261 3.347 1.256 6.758-1.643 9.415-2.353 1.35-3.125 3.436-2.712 5.252 0.628 2.759 3.982 4.9 8.644 2.916 7.005-3.652 9.283-10.2 9.283-15.651 0-16.353-20.76-30.369-35.296-30.369z" fill="url(#_lgradient_21)"/>
  <g opacity=".2">
    <path d="m147.21 48.349c-3.634 0-3.635 3.807-3.635 3.807v2.596s1e-3 -3.807 3.635-3.807c14.222 0 34.35 13.423 35.215 29.319 0.041-0.52 0.081-1.042 0.081-1.546 0-16.354-20.76-30.369-35.296-30.369zm22.414 33.623c-0.244 1.52-0.952 2.963-2.332 4.229-2.354 1.349-3.126 3.436-2.713 5.252 0.032 0.139 0.102 0.266 0.147 0.401 0.351-1.14 1.134-2.237 2.566-3.058 2.149-1.971 2.702-4.357 2.332-6.824zm-41.619 13.101c-17.203 0-31.149 13.946-31.149 31.149 0 0.439 0.048 0.864 0.066 1.298 0.685-16.596 14.318-29.851 31.083-29.851 5.68 0 10.985 1.547 15.57 4.203v-2.596c-4.585-2.656-9.89-4.203-15.57-4.203zm31.144 31.048v0.203c0-0.034 5e-3 -0.067 5e-3 -0.102 0-0.034-4e-3 -0.067-5e-3 -0.101z" fill="#ebdbb2"/>
  </g>
</svg>
