<svg width="256" height="256" style="isolation:isolate" version="1.1" xmlns="http://www.w3.org/2000/svg">
  <g filter="url(#a)">
    <linearGradient id="b" x1=".50002" x2=".50002" y1="-.00051239" y2="1" gradientTransform="matrix(244.65,0,0,228.34,5.676,11.947)" gradientUnits="userSpaceOnUse">
      <stop stop-color="#458588" offset="0"/>
      <stop stop-color="#458588" offset="1"/>
    </linearGradient>
    <path d="m165.68 11.947c72.707 0 84.639 12.053 84.639 84.544v59.251c0 72.561-11.932 84.543-84.639 84.543h-75.37c-72.294 0-84.639-11.982-84.639-84.543v-59.251c0-72.491 12.329-84.544 84.639-84.544z" fill="url(#b)"/>
  </g>
  <defs>
    <filter id="a" x="-.042124" y="-.045133" width="1.0842" height="1.1078" color-interpolation-filters="sRGB">
      <feGaussianBlur in="SourceGraphic" stdDeviation="4.294"/>
      <feOffset dy="4" result="pf_100_offsetBlur"/>
      <feFlood flood-opacity=".4"/>
      <feComposite in2="pf_100_offsetBlur" operator="in" result="pf_100_dropShadow"/>
      <feBlend in="SourceGraphic" in2="pf_100_dropShadow"/>
    </filter>
    <radialGradient id="f" cx="7.623" cy="11.806" r="21.627" gradientTransform="matrix(.94207 0 0 .97875 13.75 235.21)" gradientUnits="userSpaceOnUse">
      <stop stop-color="#fe8019" offset="0"/>
      <stop stop-color="#fe8019" offset="1"/>
    </radialGradient>
  </defs>
  <g fill="#ebdbb2" opacity=".4">
    <path d="m5.6719 126.22v29.523c0 72.561 12.345 84.543 84.639 84.543h75.369c72.707 0 84.639-11.982 84.639-84.543v-29.523z" fill="#ebdbb2" opacity=".2" style="isolation:isolate"/>
  </g>
  <g opacity=".4">
    <linearGradient id="c" x1=".517" x2=".517" y2="1" gradientTransform="matrix(244.65,0,0,228.34,5.68,11.95)" gradientUnits="userSpaceOnUse">
      <stop stop-color="#ebdbb2" offset="0"/>
      <stop stop-color="#ebdbb2" stop-opacity=".098" offset=".125"/>
      <stop stop-color="#282828" stop-opacity=".098039" offset=".925"/>
      <stop stop-color="#282828" stop-opacity=".49804" offset="1"/>
    </linearGradient>
    <path d="m165.07 11.951c4.328-0.01 8.656 0.04 12.984 0.138 3.875 0.078 7.7436 0.25854 11.62 0.48454 3.453 0.196 6.8876 0.5327 10.33 0.9057 3.06 0.335 6.0892 0.83409 9.1192 1.3941 2.7131 0.50032 5.3525 1.181 7.9999 1.9571 2.3983 0.69679 4.7544 1.61 7.0323 2.6338 2.1121 0.94124 4.0427 2.0439 5.9631 3.3319 1.8405 1.2399 3.5996 2.7014 5.1741 4.2652 1.5652 1.5692 2.886 3.1628 4.1277 4.9987 1.2864 1.9174 2.4086 3.8707 3.3603 5.9744 1.0207 2.2746 1.9193 4.5772 2.628 6.9675 0.77696 2.6443 1.4779 5.3272 1.9787 8.0374 0.56201 3.0246 1.0626 6.0601 1.3989 9.1181 0.374 3.439 0.70873 6.8493 0.90573 10.297 0.226 3.861 0.42171 7.7394 0.51071 11.6 0.088 4.323 0.138 8.646 0.128 12.96v58.21c0.01 4.324-0.04 8.637-0.128 12.96-0.085 3.8668-0.28821 7.7331-0.51114 11.595-0.19655 3.4488-0.53822 6.9467-0.91224 10.38-0.33634 3.0613-0.82936 6.0316-1.3914 9.0596-0.50199 2.7066-1.1867 5.3458-1.9626 7.987-0.7071 2.3908-1.5665 4.6263-2.5888 6.9002-0.94995 2.1048-2.1624 4.2292-3.4512 6.1454-1.2392 1.8377-2.5377 3.3902-4.1052 4.9572-1.5746 1.5638-3.412 3.0712-5.2525 4.3111-1.9201 1.2879-3.8611 2.3701-5.9729 3.3114-2.3498 1.0736-4.5744 1.8717-6.9323 2.584-2.6776 0.81656-5.2934 1.4166-7.976 1.948-3.0309 0.56603-6.051 1.0612-9.1165 1.3921-3.5041 0.40869-6.8203 0.68433-10.336 0.90377-3.875 0.226-7.789 0.40013-11.665 0.48813-4.328 0.088-8.6314 0.15082-12.959 0.14082h-74.126c-4.328 0.01-8.6566-0.0545-12.985-0.14247-3.9049-0.0955-7.7449-0.24667-11.628-0.49085-3.4941-0.21923-7.0445-0.5149-10.452-0.92805-3.1873-0.37665-5.9337-0.7937-8.9951-1.3902-2.833-0.56139-5.3421-1.1637-7.9464-1.9566-2.4295-0.73175-4.8105-1.6266-7.0523-2.6548-2.139-0.97893-4.0617-2.0635-5.9983-3.3731-1.8405-1.2399-3.5141-2.6495-5.0886-4.2133-1.5676-1.5671-2.9061-3.1787-4.1454-5.0164-1.2884-1.9162-2.4021-3.8332-3.3518-5.9379-1.0223-2.2739-1.9238-4.5236-2.6309-6.9144-0.77585-2.6412-1.4977-5.3053-1.9996-8.0119-0.56202-3.028-1.0938-6.1087-1.4301-9.17-0.37402-3.4341-0.72617-6.8459-0.92272-10.295-0.22292-3.8613-0.42179-7.7427-0.50684-11.61-0.09185-4.3194-0.13452-8.6396-0.128-12.96v-58.21c-0.01-4.314 0.04-8.637 0.128-12.96 0.089-3.86 0.28015-7.7353 0.50615-11.596 0.197-3.448 0.54883-6.857 0.92283-10.296 0.335-3.055 0.87336-6.1638 1.4344-9.1898 0.50085-2.7102 1.1807-5.2262 1.9577-7.8705 0.70872-2.3902 1.7549-4.9868 2.7756-7.2614 0.95209-2.1037 1.9632-3.7998 3.2499-5.7172 1.2418-1.8358 2.594-3.4604 4.1593-5.0296 1.5745-1.5638 3.3273-3.0214 5.1678-4.2614 1.9201-1.2879 3.8238-2.3848 5.9356-3.3261 2.278-1.0238 4.5428-1.9236 6.9411-2.6204 2.6474-0.77617 5.2743-1.4761 7.9874-1.9764 3.0317-0.56124 6.1381-1.085 9.203-1.4208 3.443-0.373 6.8398-0.71288 10.293-0.90888 3.875-0.226 7.7331-0.41514 11.609-0.49314 4.328-0.098 8.6625-0.14613 12.991-0.13613zm0.01 4.009c4.298-0.01 8.597 0.039 12.895 0.127 3.827 0.089 7.6466 0.26854 11.474 0.48454 3.383 0.197 6.7724 0.43946 10.136 0.81246 2.971 0.315 5.9391 0.74869 8.8701 1.2987 2.5807 0.47339 5.1059 1.0723 7.6238 1.8101 2.2193 0.6492 4.4135 1.4563 6.5231 2.4032 1.9054 0.85272 3.7179 1.8543 5.4527 3.0153 1.6245 1.0927 3.1568 2.3505 4.5413 3.7347 1.3858 1.385 2.6374 2.8981 3.738 4.519 1.1601 1.7266 2.1737 3.5473 3.03 5.443 0.94487 2.1083 1.7467 4.2779 2.4 6.494 0.74152 2.5113 1.352 5.0594 1.829 7.634 0.54 2.928 0.974 5.875 1.298 8.842 0.374 3.36 0.65 6.73 0.846 10.11 0.217 3.822 0.374 7.634 0.453 11.456 0.088 4.293 0.137 8.577 0.137 12.87v58.212c0 4.293-0.049 8.577-0.137 12.87-0.082 3.8211-0.0546 7.643-0.27458 11.459-0.196 3.38-0.65042 6.7474-1.0244 10.117-0.3245 2.9589-0.75746 5.9049-1.298 8.832-0.47731 2.5747-1.0881 5.1228-1.83 7.634-0.65169 2.2166-1.4536 4.3863-2.4 6.494-0.8542 1.8968-1.8678 3.7176-3.03 5.443-1.0976 1.6263-2.349 3.1432-3.737 4.53-1.3876 1.3779-2.9027 2.6211-4.525 3.713-1.7345 1.161-3.564 2.1732-5.469 3.026-2.1078 0.95119-4.2802 1.7522-6.501 2.397-2.5179 0.7378-5.0723 1.3446-7.653 1.818-2.931 0.55-5.8828 0.98162-8.8538 1.3056-3.364 0.364-6.7562 0.64938-10.139 0.83638-3.827 0.216-7.6776 0.36018-11.505 0.43918-4.298 0.098-8.5724 0.14982-12.87 0.14982h-74.146c-4.298 0-8.5976-0.0545-12.896-0.15147-3.8291-0.082-7.6582-0.26152-11.482-0.48085-3.3834-0.19001-6.7587-0.42545-10.127-0.79268-2.97-0.32174-5.9265-0.7574-8.863-1.306-2.5807-0.47339-5.1351-1.0802-7.653-1.818-2.2208-0.64482-4.3673-1.4321-6.4751-2.3833-1.9053-0.85272-3.7547-1.8723-5.4895-3.0333-1.622-1.0922-3.1431-2.3423-4.5303-3.7205-1.3882-1.3864-2.64-2.903-3.738-4.529-1.1622-1.7254-2.1758-3.5462-3.03-5.443-0.94645-2.1077-1.7483-4.2774-2.4-6.494-0.74152-2.5113-1.352-5.0594-1.829-7.634-0.54054-2.9271-0.9735-5.8731-1.298-8.832-0.374-3.37-0.65-6.74-0.846-10.12-0.21993-3.8156-0.37096-7.6349-0.453-11.456-0.08992-4.2894-0.13559-8.5796-0.137-12.87v-58.212c0-4.293 0.049-8.577 0.137-12.87 0.079-3.822 0.236-7.634 0.453-11.456 0.197-3.38 0.472-6.75 0.846-10.11 0.324-2.967 0.757-5.914 1.298-8.842 0.47732-2.5747 1.0915-5.1375 1.8334-7.6487 0.65331-2.2161 1.4517-4.371 2.3966-6.4793 0.85634-1.8957 1.8699-3.7164 3.03-5.443 1.1003-1.6212 2.3515-3.1346 3.737-4.52 1.3849-1.3839 2.9002-2.6307 4.525-3.723 1.7345-1.161 3.564-2.1732 5.469-3.026 2.1096-0.94691 4.2817-1.7478 6.501-2.397 2.5179-0.7378 5.0723-1.3446 7.653-1.818 2.931-0.55 5.892-0.982 8.863-1.297 3.364-0.373 6.7432-0.64645 10.126-0.84345 3.8239-0.21443 7.6549-0.36667 11.484-0.45355 4.298-0.088 8.597-0.137 12.895-0.127z" fill="url(#c)" fill-rule="evenodd"/>
  </g>
  <g transform="matrix(3.7797 0 0 3.7797 2.4169 -2.3705)">
    <path transform="matrix(1.0547,0,0,1.0547,-5.676,-240.57)" d="m17.04 250.76c0.668 8.973 8.713 30.308 13.668 30.208 4.882 0.764 7.171-7.643 10.757-11.465 1.244-0.746 3.78 10.623 10.91 10.623 2.168 0.154 4.337-0.589 4.411-2.528 0.03-3.027-5.738-0.912-8.06-9.182-1.767-6.296-4.65-9.344-6.714-9.281-3.206 1.165-7.21 10.206-8.92 11.37-5.816-5.119 4.618-13.728 2.89-21.639-1.33-16.117-20.205-8.308-18.942 1.894z" fill="url(#f)" fill-rule="evenodd"/>
    <path d="m30.618 25.21c-0.424 0.184-0.848 0.503-1.24 0.746-3.295 2.046-8.754 4.547-12.762 5.794-0.403 0.125-0.453 0.524-0.392 0.794 0.22 0.968 0.958 2.226 1.936 3.265s2.421 1.837 4.44 1.86c0.881 0.01 1.745-0.427 2.591-1.092 0.846-0.664 1.675-1.582 2.42-2.65 1.487-2.135 2.638-4.702 2.671-7.473 5e-3 -0.37 0.213-0.894 0.336-1.245zm-1.606 2.35c-0.284 1.955-1.205 4.04-2.36 5.698-0.69 0.989-1.456 1.827-2.182 2.397-0.725 0.57-1.408 0.847-1.86 0.842-1.729-0.019-2.796-0.639-3.597-1.49-0.641-0.681-1.065-1.517-1.427-2.32 3.798-1.097 8.232-3.201 11.426-5.128z" fill="none"/>
    <path d="m20.676 16.926c-1.718 0.058-3.313 0.365-4.456 0.796a9.741 9.741 0 0 0-1.636 3.681c-0.587-1.942-0.454-3.791 0.457-5.418 2.067-0.427 4.319 0.177 5.635 0.941zm7.629-0.741c-1.45-0.923-2.94-1.571-4.126-1.862a9.741 9.741 0 0 0-3.43 2.112c0.613-1.934 1.768-3.384 3.44-4.211 1.945 0.816 3.462 2.587 4.116 3.96z" fill="#282828"/>
    <path d="m16.765 32.317c4.231-1.108 9.608-3.725 12.93-5.868-0.049 4.844-4.424 10.664-7.089 10.634-3.748-0.042-5.023-2.834-5.84-4.766z" fill="#ebdbb2"/>
    <path d="m21.57 24.537c0.358-4.521-1.784 2.695-3.285 4.686-1.055-0.044-2.483-2.18-2.483-4.686 0-2.507 1.292-4.54 2.884-4.54s2.884 2.033 2.884 4.54z" fill="#282828" fill-opacity=".322"/>
    <path d="m27.23 21.776c0 2.337-1.402 4.233-3.13 4.233-1.727 0-3.129-1.896-3.129-4.233s1.402-4.234 3.13-4.234c1.727 0 3.129 1.897 3.129 4.234z" fill="#282828" fill-opacity=".322"/>
    <path d="m24.38 17.816c-1.516 0.154-2.709 2.178-2.902 4.718-0.64-1.376-1.607-2.245-2.595-2.14-1.514 0.16-2.497 2.53-2.192 5.291 0.177 1.6 0.754 2.966 1.497 3.814 1.056-0.853 2.395-1.583 3.93-2.115 0.031-0.19 0.061-0.382 0.078-0.582 0.082 0.172 0.185 0.31 0.278 0.465a16.65 16.65 0 0 1 2.236-0.553 16.567 16.567 0 0 1 2.449-0.234c0.394-0.985 0.617-2.19 0.567-3.488-0.115-3.032-1.616-5.351-3.345-5.176z" fill="#ebdbb2"/>
    <path d="m25.097 23.254a0.755 1.455 0 1 1-1.51 0 0.755 1.455 0 1 1 1.51 0zm-4.827 1.24a0.755 1.455 0 1 1-1.508 0 0.755 1.455 0 1 1 1.509 0z" fill="#282828"/>
  </g>
</svg>
