<svg width="256" height="256" style="isolation:isolate" version="1.1" viewBox="0 0 256 256" xmlns="http://www.w3.org/2000/svg">
  <defs>
    <filter id="44VeXT6ugxVQvsVtizHHGQTPnnJIXHLq" x="-.042124" y="-.045133" width="1.0842" height="1.1078" color-interpolation-filters="sRGB">
      <feGaussianBlur in="SourceGraphic" stdDeviation="4.294"/>
      <feOffset dx="0" dy="4" result="pf_100_offsetBlur"/>
      <feFlood flood-opacity=".4"/>
      <feComposite in2="pf_100_offsetBlur" operator="in" result="pf_100_dropShadow"/>
      <feBlend in="SourceGraphic" in2="pf_100_dropShadow"/>
    </filter>
  </defs>
  <g filter="url(#44VeXT6ugxVQvsVtizHHGQTPnnJIXHLq)">
    <linearGradient id="_lgradient_46" x2="0" y2="1" gradientTransform="matrix(244.65 0 0 228.34 5.176 11.831)" gradientUnits="userSpaceOnUse">
      <stop stop-color="#504945" offset="0"/>
      <stop stop-color="#3c3836" offset="1"/>
    </linearGradient>
    <path d="m165.18 11.831c74.055 0 84.639 10.557 84.639 84.544v59.25c0 73.987-10.584 84.544-84.639 84.544h-75.37c-74.055 0-84.639-10.557-84.639-84.544v-59.25c0-73.987 10.584-84.544 84.639-84.544h75.37z" fill="url(#_lgradient_46)"/>
  </g>
  <g opacity=".4">
    <linearGradient id="_lgradient_47" x1=".517" x2=".517" y2="1" gradientTransform="matrix(244.65,0,0,228.34,5.68,11.95)" gradientUnits="userSpaceOnUse">
      <stop stop-color="#ebdbb2" offset="0"/>
      <stop stop-color="#ebdbb2" stop-opacity=".098" offset=".125"/>
      <stop stop-color="#282828" stop-opacity=".098" offset=".925"/>
      <stop stop-color="#282828" stop-opacity=".498" offset="1"/>
    </linearGradient>
    <path d="m165.07 11.951c4.328-0.01 8.656 0.04 12.984 0.138 3.875 0.078 7.751 0.226 11.626 0.452 3.453 0.196 6.905 0.481 10.348 0.854 3.059 0.335 6.118 0.786 9.148 1.346 2.715 0.502 5.4 1.14 8.046 1.916 2.4 0.698 4.751 1.562 7.023 2.584 2.115 0.943 4.141 2.063 6.059 3.35 1.84 1.238 3.561 2.653 5.135 4.215 1.564 1.572 2.98 3.282 4.219 5.119 1.289 1.916 2.41 3.94 3.364 6.042 1.023 2.28 1.889 4.618 2.597 7.005 0.777 2.643 1.417 5.325 1.918 8.037 0.561 3.026 1.013 6.072 1.348 9.127 0.374 3.439 0.659 6.878 0.856 10.326 0.226 3.861 0.373 7.732 0.462 11.593 0.088 4.323 0.138 8.646 0.128 12.959v58.212c0.01 4.323-0.04 8.636-0.128 12.959-0.089 3.871-0.236 7.732-0.462 11.593-0.197 3.448-0.482 6.897-0.856 10.326-0.335 3.055-0.787 6.111-1.348 9.137-0.501 2.702-1.141 5.384-1.918 8.027-0.708 2.387-1.574 4.735-2.597 7.005-0.954 2.112-2.075 4.126-3.364 6.042-1.239 1.837-2.655 3.557-4.219 5.119-1.574 1.562-3.295 2.977-5.135 4.215-1.918 1.287-3.944 2.407-6.059 3.35-2.272 1.022-4.623 1.886-7.023 2.594-2.646 0.776-5.331 1.414-8.046 1.906-3.03 0.569-6.089 1.011-9.148 1.346-3.443 0.373-6.895 0.658-10.348 0.854-3.875 0.226-7.751 0.374-11.626 0.462-4.328 0.088-8.656 0.138-12.984 0.128h-74.126c-4.328 0.01-8.656-0.04-12.984-0.128-3.875-0.088-7.751-0.236-11.626-0.462-3.453-0.196-6.905-0.481-10.348-0.854-3.059-0.335-6.118-0.777-9.148-1.346-2.715-0.492-5.4-1.13-8.046-1.906-2.4-0.708-4.751-1.572-7.023-2.594-2.115-0.943-4.141-2.063-6.059-3.35-1.84-1.238-3.561-2.653-5.135-4.215-1.564-1.562-2.98-3.282-4.219-5.119-1.289-1.916-2.41-3.93-3.364-6.042-1.023-2.27-1.889-4.618-2.597-7.005-0.777-2.643-1.417-5.325-1.918-8.027-0.561-3.026-1.013-6.082-1.348-9.137-0.374-3.429-0.659-6.878-0.856-10.326-0.226-3.861-0.373-7.722-0.462-11.593-0.088-4.323-0.138-8.636-0.128-12.959v-58.212c-0.01-4.313 0.04-8.636 0.128-12.959 0.089-3.861 0.236-7.732 0.462-11.593 0.197-3.448 0.482-6.887 0.856-10.326 0.335-3.055 0.787-6.101 1.348-9.127 0.501-2.712 1.141-5.394 1.918-8.037 0.708-2.387 1.574-4.725 2.597-7.005 0.954-2.102 2.075-4.126 3.364-6.042 1.239-1.837 2.655-3.547 4.219-5.119 1.574-1.562 3.295-2.977 5.135-4.215 1.918-1.287 3.944-2.407 6.059-3.35 2.272-1.022 4.623-1.886 7.023-2.584 2.646-0.776 5.331-1.414 8.046-1.916 3.03-0.56 6.089-1.011 9.148-1.346 3.443-0.373 6.895-0.658 10.348-0.854 3.875-0.226 7.751-0.374 11.626-0.452 4.328-0.098 8.656-0.148 12.984-0.138h74.126zm0.01 4.009c4.298-0.01 8.597 0.039 12.895 0.127 3.827 0.089 7.653 0.236 11.479 0.452 3.384 0.197 6.767 0.472 10.131 0.845 2.971 0.315 5.932 0.747 8.863 1.297 2.577 0.472 5.134 1.081 7.653 1.818 2.223 0.648 4.396 1.454 6.501 2.397 1.909 0.855 3.738 1.867 5.469 3.026 1.623 1.091 3.138 2.338 4.525 3.724 1.387 1.385 2.636 2.898 3.738 4.519 1.16 1.729 2.174 3.547 3.029 5.443 0.945 2.112 1.751 4.284 2.4 6.494 0.748 2.515 1.348 5.06 1.83 7.634 0.541 2.928 0.974 5.875 1.298 8.842 0.374 3.36 0.65 6.73 0.846 10.11 0.217 3.822 0.374 7.634 0.453 11.456 0.088 4.293 0.137 8.577 0.137 12.87v58.212c0 4.293-0.049 8.577-0.137 12.87-0.079 3.822-0.236 7.644-0.453 11.456-0.196 3.38-0.472 6.75-0.846 10.12-0.324 2.957-0.757 5.904-1.298 8.832-0.482 2.574-1.082 5.119-1.83 7.634-0.649 2.22-1.455 4.382-2.4 6.494-0.855 1.896-1.869 3.724-3.029 5.443-1.102 1.631-2.351 3.144-3.738 4.529-1.387 1.376-2.902 2.623-4.525 3.714-1.731 1.159-3.56 2.171-5.469 3.026-2.105 0.953-4.278 1.749-6.501 2.397-2.519 0.737-5.076 1.346-7.653 1.818-2.931 0.55-5.892 0.982-8.863 1.306-3.364 0.364-6.747 0.649-10.131 0.836-3.826 0.216-7.652 0.373-11.479 0.452-4.298 0.098-8.597 0.137-12.895 0.137h-0.01-74.126-0.01c-4.298 0-8.597-0.039-12.895-0.137-3.827-0.079-7.653-0.236-11.479-0.452-3.384-0.187-6.767-0.472-10.131-0.836-2.971-0.324-5.932-0.756-8.863-1.306-2.577-0.472-5.134-1.081-7.653-1.818-2.223-0.648-4.396-1.444-6.501-2.397-1.909-0.855-3.738-1.867-5.469-3.026-1.623-1.091-3.138-2.338-4.525-3.714-1.387-1.385-2.636-2.898-3.738-4.529-1.16-1.719-2.174-3.547-3.029-5.443-0.945-2.112-1.751-4.274-2.4-6.494-0.748-2.515-1.348-5.06-1.83-7.634-0.541-2.928-0.974-5.875-1.298-8.832-0.374-3.37-0.649-6.74-0.846-10.12-0.217-3.812-0.374-7.634-0.453-11.456-0.088-4.293-0.137-8.577-0.137-12.87v-58.212c0-4.293 0.049-8.577 0.137-12.87 0.079-3.822 0.236-7.634 0.453-11.456 0.197-3.38 0.472-6.75 0.846-10.11 0.324-2.967 0.757-5.914 1.298-8.842 0.482-2.574 1.082-5.119 1.83-7.634 0.649-2.21 1.455-4.382 2.4-6.494 0.855-1.896 1.869-3.714 3.029-5.443 1.102-1.621 2.351-3.134 3.738-4.519 1.387-1.386 2.902-2.633 4.525-3.724 1.731-1.159 3.56-2.171 5.469-3.026 2.105-0.943 4.278-1.749 6.501-2.397 2.519-0.737 5.076-1.346 7.653-1.818 2.931-0.55 5.892-0.982 8.863-1.297 3.364-0.373 6.747-0.648 10.131-0.845 3.826-0.216 7.652-0.363 11.479-0.452 4.298-0.088 8.597-0.137 12.895-0.127h0.01 74.126 0.01z" fill="url(#_lgradient_47)" fill-rule="evenodd"/>
  </g>
  <defs>
    <filter id="SChuZMGmAvmN90kDxufyPhKLr0flArFR" x="-.097726" y="-.097725" width="1.1955" height="1.1955" color-interpolation-filters="sRGB">
      <feGaussianBlur stdDeviation="4.294"/>
    </filter>
  </defs>
  <g filter="url(#SChuZMGmAvmN90kDxufyPhKLr0flArFR)" opacity=".4">
    <path d="m179.73 145.77c0-29.101-23.626-52.728-52.727-52.728s-52.727 23.627-52.727 52.728 23.626 52.727 52.727 52.727 52.727-23.626 52.727-52.727z"/>
  </g>
  <g opacity=".2">
    <path d="m127 56.136c-33.219 0-36.91 29.776-36.909 63.273h15.818c-0.391-33.497 7.198-47.454 21.091-47.454s21.48 13.957 21.091 47.454h15.818c-1e-3 -33.497-3.692-63.273-36.909-63.273z"/>
  </g>
  <linearGradient id="_lgradient_48" x2="0" y2="1" gradientTransform="matrix(73.818,0,0,63.273,90.091,53.5)" gradientUnits="userSpaceOnUse">
    <stop stop-color="#ebdbb2" offset="0"/>
    <stop stop-color="#d5c4a1" offset="1"/>
  </linearGradient>
  <path d="m127 53.5c-33.219 0-36.91 29.775-36.909 63.273h15.818c-0.391-33.498 7.198-47.455 21.091-47.455s21.48 13.957 21.091 47.455h15.818c-1e-3 -33.498-3.692-63.273-36.909-63.273z" fill="url(#_lgradient_48)"/>
  <g opacity=".2">
    <path d="m127 53.5c-33.219 0-36.91 29.775-36.909 63.273h0.021c0.206-32.402 4.547-60.637 36.888-60.637 32.339 0 36.68 28.235 36.888 60.637h0.021c-1e-3 -33.498-3.692-63.273-36.909-63.273z" fill="#ebdbb2"/>
  </g>
  <linearGradient id="_lgradient_49" x1="1" x2="0" gradientTransform="matrix(0 -105.46 -105.46 0 179.73 195.86)" gradientUnits="userSpaceOnUse">
    <stop stop-color="#ebdbb2" offset="0"/>
    <stop stop-color="#d5c4a1" offset="1"/>
  </linearGradient>
  <path d="m179.73 143.14c0-29.101-23.626-52.727-52.727-52.727s-52.727 23.626-52.727 52.727 23.626 52.728 52.727 52.728 52.727-23.627 52.727-52.728z" fill="url(#_lgradient_49)"/>
  <defs>
    <linearGradient id="_lgradient_50" x2="0" y2="1">
      <stop stop-color="#3c3836" offset="0"/>
      <stop stop-color="#282828" offset="1"/>
    </linearGradient>
  </defs>
  <path d="m163.91 143.14c0-20.37-16.538-36.909-36.909-36.909s-36.909 16.539-36.909 36.909c0 20.371 16.538 36.909 36.909 36.909s36.909-16.538 36.909-36.909z" fill="url(#_lgradient_50)"/>
  <g opacity=".2">
    <path d="m147.51 125.27-8.389 2.796-7.653 2.556c-5.55-1.639-11.551-0.117-15.649 3.969-2.967 2.966-4.633 6.989-4.633 11.185 0 4.195 1.666 8.218 4.633 11.185 2.966 2.966 6.99 4.633 11.185 4.633s8.219-1.667 11.185-4.633c4.096-4.101 5.622-10.113 3.976-15.671l2.549-7.632 2.796-8.388z"/>
  </g>
  <linearGradient id="_lgradient_51" x2="0" y2="1" gradientTransform="matrix(36.324 0 0 36.324 111.18 122.63)" gradientUnits="userSpaceOnUse">
    <stop stop-color="#665c54" offset="0"/>
    <stop stop-color="#504945" offset="1"/>
  </linearGradient>
  <path d="m147.51 122.63-8.389 2.797-7.653 2.556c-5.55-1.639-11.551-0.117-15.649 3.968-2.967 2.967-4.633 6.99-4.633 11.185 0 4.196 1.666 8.219 4.633 11.186 2.966 2.966 6.99 4.633 11.185 4.633s8.219-1.667 11.185-4.633c4.096-4.101 5.622-10.114 3.976-15.671l2.549-7.632 2.796-8.389z" fill="url(#_lgradient_51)"/>
</svg>
