<svg width="256" height="256" style="isolation:isolate" version="1.1" xmlns="http://www.w3.org/2000/svg">
  <g transform="translate(.004997 -.1131)" filter="url(#a)">
    <linearGradient id="b" x1=".5002" x2=".5002" y2="1" gradientTransform="matrix(244 0 0 228 5.981 12.12)" gradientUnits="userSpaceOnUse">
      <stop stop-color="#504945" offset="0"/>
      <stop stop-color="#3c3836" offset="1"/>
    </linearGradient>
    <path d="m165 12.12c72 0 85 15 85 87v56c0 70-13 85-85 85h-74c-72 0-85-15-85-85v-56c0-72 13-87 85-87z" fill="url(#b)"/>
  </g>
  <defs>
    <linearGradient id="linearGradient31" x1=".5002" x2=".5002" y2="1" gradientTransform="matrix(244,0,0,228,5.986,12)" gradientUnits="userSpaceOnUse">
      <stop stop-color="#928374" offset="0"/>
      <stop stop-color="#928374" stop-opacity=".09804" offset=".1"/>
      <stop stop-opacity=".09804" offset=".9"/>
      <stop stop-opacity=".498" offset="1"/>
    </linearGradient>
  </defs>
  <g transform="translate(.009993 -.1091)" opacity=".4">
    <path transform="translate(-.004996 .116)" d="m91 12c-72 0-85 15-85 87v56c0 70 13 85 85 85h74c72 0 85-15 85-85v-56c0-72-13-87-85-87zm0 4h74c68 0 80 15 80 83v56c0 66-12 81-80 81h-74c-68 0-80-15-80-81v-56c0-68 12-83 80-83z" fill="url(#linearGradient31)" opacity="1"/>
  </g>
  <g stroke-width=".783" style="isolation:isolate">
    <path d="m204.6 157.9s-0.2545-1.561-0.4033-1.547l-28.33 2.734c-2.254 0.2177-4.005 2.016-4.163 4.275l-0.7783 11.16-21.92 1.564-1.491-10.11c-0.332-2.249-2.296-3.944-4.569-3.944h-29.9c-2.272 0-4.236 1.695-4.568 3.944l-1.492 10.11-21.92-1.564-0.7783-11.16c-0.1582-2.26-1.909-4.058-4.163-4.275l-28.35-2.733c-0.1464-0.0141-0.2537 1.549-0.4001 1.549l-0.03837 6.131 24.01 3.871 0.7862 11.26c0.159 2.279 1.998 4.121 4.278 4.285l30.19 2.153c0.1143 8e-3 0.2271 0.0125 0.3398 0.0125 2.268 0 4.229-1.696 4.561-3.945l1.534-10.4h21.93l1.534 10.4c0.3312 2.248 2.294 3.944 4.566 3.944 0.1112 0 0.2224-4e-3 0.3312-0.0117l30.19-2.153c2.279-0.1636 4.119-2.006 4.278-4.285l0.7854-11.26 24-3.889z" fill="#ebdbb2"/>
    <path d="m51.38 111.6v46.23s19.06 1.825 28.6 2.744c1.485 0.1433 2.648 1.338 2.752 2.826l0.8739 12.51 24.72 1.764 1.703-11.55c0.2208-1.497 1.505-2.607 3.019-2.607h29.9c1.514 0 2.798 1.11 3.019 2.607l1.703 11.55 24.72-1.764 0.8731-12.51c0.1041-1.488 1.267-2.682 2.752-2.826 9.533-0.85 28.58-2.744 28.58-2.744l0.0117-46.23c3.991-5.024 7.77-10.57 10.67-15.23-4.425-7.533-9.847-14.26-15.64-20.5-5.375 2.705-10.6 5.77-15.53 9.032-2.467-2.452-5.246-4.459-7.976-6.556-2.682-2.154-5.704-3.734-8.571-5.574 0.8535-6.356 1.276-12.61 1.445-19.14-7.397-3.723-15.28-6.191-23.26-7.963-3.185 5.354-6.098 11.15-8.635 16.82-3.008-0.5027-6.031-0.6891-9.057-0.7251v-0.0047c-0.0211 0-0.0407 0.0047-0.0587 0.0047-0.0188 0-0.0384-0.0047-0.0572-0.0047v0.0047c-3.032 0.03602-6.052 0.2224-9.061 0.7251-2.535-5.668-5.447-11.47-8.637-16.82-7.974 1.773-15.86 4.241-23.26 7.963 0.1691 6.531 0.5912 12.79 1.447 19.14-2.872 1.84-5.891 3.42-8.573 5.574-2.726 2.097-5.509 4.103-7.978 6.556-4.931-3.261-10.15-6.326-15.53-9.032-5.795 6.237-11.21 12.97-15.64 20.5 3.479 5.461 7.21 10.95 10.67 15.23z" fill="#458588"/>
    <path d="m179.2 166.4-0.8778 12.58c-0.1057 1.516-1.312 2.723-2.828 2.831l-30.19 2.154c-0.0736 6e-3 -0.1472 8e-3 -0.22 8e-3 -1.5 0-2.795-1.101-3.016-2.608l-1.731-11.74h-24.63l-1.731 11.74c-0.2326 1.58-1.645 2.716-3.236 2.6l-30.19-2.154c-1.516-0.1088-2.722-1.316-2.828-2.831l-0.8778-12.58-25.49-2.457c0.01173 2.739 0.04699 5.74 0.04699 6.337 0 26.92 34.14 39.85 76.57 40h0.1042c42.42-0.1488 76.55-13.09 76.55-40 0-0.6084 0.0368-3.596 0.0493-6.337z" fill="#458588"/>
    <path d="m104.9 130.4c0 9.437-7.646 17.08-17.08 17.08-9.429 0-17.08-7.645-17.08-17.08 0-9.431 7.649-17.07 17.08-17.07 9.434 0 17.08 7.641 17.08 17.07" fill="#ebdbb2"/>
    <path d="m100.8 131.4c0 6.26-5.073 11.33-11.34 11.33-6.261 0-11.34-5.073-11.34-11.33 0-6.26 5.076-11.34 11.34-11.34 6.264 0 11.34 5.078 11.34 11.34" fill="#414042"/>
    <path d="m128 149c-3.037 0-5.498-2.238-5.498-4.997v-15.72c0-2.756 2.461-4.997 5.498-4.997s5.503 2.24 5.503 4.997v15.72c0 2.759-2.467 4.997-5.503 4.997" fill="#ebdbb2"/>
    <path d="m151.1 130.4c0 9.437 7.646 17.08 17.08 17.08 9.429 0 17.08-7.645 17.08-17.08 0-9.431-7.648-17.07-17.08-17.07-9.436 0-17.08 7.641-17.08 17.07" fill="#ebdbb2"/>
    <path d="m155.2 131.4c0 6.26 5.072 11.33 11.33 11.33 6.266 0 11.34-5.073 11.34-11.33 0-6.26-5.072-11.34-11.34-11.34-6.26 0-11.33 5.078-11.33 11.34" fill="#414042"/>
  </g>
</svg>
