<svg width="256" height="256" style="isolation:isolate" version="1.1" xmlns="http://www.w3.org/2000/svg">
  <g transform="translate(.007136 -.1198)" filter="url(#a)">
    <linearGradient id="b" x1=".5002" x2=".5002" y2="1" gradientTransform="matrix(244,0,0,228,5.981,12.12)" gradientUnits="userSpaceOnUse">
      <stop stop-color="#458588" offset="0"/>
      <stop stop-color="#458588" offset="1"/>
    </linearGradient>
    <path d="m165 12.12c72 0 85 15 85 87v56c0 70-13 85-85 85h-74c-72 0-85-15-85-85v-56c0-72 13-87 85-87z" fill="url(#b)"/>
  </g>
  <defs>
    <linearGradient id="linearGradient31" x1=".5002" x2=".5002" y2="1" gradientTransform="matrix(244,0,0,228,5.988,12.12)" gradientUnits="userSpaceOnUse">
      <stop stop-color="#d5c4a1" offset="0"/>
      <stop stop-color="#d5c4a1" stop-opacity=".09804" offset=".1"/>
      <stop stop-color="#282828" stop-opacity=".1" offset=".9"/>
      <stop stop-color="#282828" stop-opacity=".4" offset="1"/>
    </linearGradient>
    <clipPath id="a">
      <path d="m0 595.3h841.9v-595.3h-841.9z"/>
    </clipPath>
  </defs>
  <g transform="translate(.007189 -.1198)" opacity=".5">
    <path d="m91 12.12c-72 0-85 15-85 87v56c0 70 13 85 85 85h74c72 0 85-15 85-85v-56c0-72-13-87-85-87zm0 4h74c68 0 80 15 80 83v56c0 66-12 81-80 81h-74c-68 0-80-15-80-81v-56c0-68 12-83 80-83z" fill="url(#linearGradient31)" opacity="1"/>
  </g>
  <g fill="#ebdbb2">
    <path transform="matrix(.783 0 0 -.783 51.38 111.6)" d="m75.17 84.2c-10.18-2.264-20.26-5.415-29.71-10.17 0.216-8.34 0.7553-16.33 1.848-24.45-3.668-2.35-7.522-4.368-10.95-7.119-3.481-2.678-7.037-5.239-10.19-8.371-6.297 4.165-12.96 8.079-19.83 11.53-7.401-7.965-14.32-16.56-19.97-26.18 4.443-6.974 9.209-13.98 13.62-19.45v-59.04s24.35-2.331 36.52-3.505c1.896-0.183 3.383-1.709 3.515-3.609l1.115-15.98 31.57-2.252 2.175 14.75c0.282 1.912 1.922 3.33 3.856 3.33h38.19c1.933 0 3.574-1.418 3.856-3.33l2.175-14.75 31.57 2.252 1.115 15.98c0.133 1.9 1.619 3.425 3.515 3.609 12.17 1.086 36.5 3.505 36.5 3.505l0.015 59.04c5.097 6.416 9.924 13.49 13.62 19.45-5.651 9.62-12.58 18.22-19.98 26.18-6.864-3.455-13.53-7.369-19.83-11.53-3.151 3.132-6.701 5.693-10.19 8.371-3.425 2.751-7.284 4.769-10.95 7.119 1.09 8.117 1.629 16.11 1.846 24.45-9.446 4.754-19.52 7.905-29.71 10.17-4.068-6.837-7.787-14.24-11.03-21.48-3.842 0.642-7.704 0.8819-11.57 0.9279v5e-3c-0.027 0-0.05183-5e-3 -0.07483-5e-3 -0.024 0-0.04833 5e-3 -0.07233 5e-3v-5e-3c-3.872-0.046-7.728-0.2859-11.57-0.9279-3.238 7.238-6.956 14.64-11.03 21.48zm-28.64-86.37c12.05 0 21.81-9.759 21.81-21.8 0-12.05-9.765-21.81-21.81-21.81-12.04 0-21.81 9.761-21.81 21.81 0 12.04 9.768 21.8 21.81 21.8zm102.6 0c12.04 0 21.81-9.759 21.81-21.8 0-12.05-9.767-21.81-21.81-21.81-12.05 0-21.82 9.761-21.82 21.81 0 12.04 9.765 21.8 21.82 21.8zm-51.32-12.76c3.878 0 7.029-2.861 7.029-6.381v-20.08c0-3.523-3.151-6.381-7.029-6.381s-7.019 2.858-7.019 6.381v20.08c0 3.52 3.141 6.381 7.019 6.381z" style="isolation:isolate"/>
    <path transform="matrix(.783 0 0 -.783 179.2 166.4)" d="m0 0-1.121-16.06c-0.135-1.936-1.675-3.477-3.611-3.616l-38.56-2.751c-0.094-7e-3 -0.188-0.01-0.281-0.01-1.916 0-3.569 1.406-3.852 3.33l-2.211 14.99h-31.46l-2.211-14.99c-0.297-2.018-2.101-3.469-4.133-3.32l-38.56 2.751c-1.936 0.139-3.476 1.68-3.611 3.616l-1.121 16.06-32.55 3.138c0.015-3.498 0.06-7.33 0.06-8.093 0-34.37 43.6-50.9 97.78-51.09h0.133c54.18 0.19 97.77 16.71 97.77 51.09 0 0.777 0.047 4.593 0.063 8.093z" style="isolation:isolate"/>
    <path transform="matrix(.783 0 0 -.783 100.8 131.4)" d="m0 0c0-7.994-6.479-14.47-14.48-14.47-7.996 0-14.48 6.479-14.48 14.47s6.483 14.48 14.48 14.48c8 0 14.48-6.485 14.48-14.48" fill="#504945" style="isolation:isolate"/>
    <path transform="matrix(.783 0 0 -.783 155.2 131.4)" d="m0 0c0-7.994 6.477-14.47 14.47-14.47 8.002 0 14.48 6.479 14.48 14.47s-6.477 14.48-14.48 14.48c-7.994 0-14.47-6.485-14.47-14.48" fill="#504945" style="isolation:isolate"/>
  </g>
</svg>
