<svg width="256" height="256" style="isolation:isolate" version="1.1" viewBox="0 0 256 256" xmlns="http://www.w3.org/2000/svg">
  <defs>
    <filter id="YCJfmPyxKH1qK1PRllq2waqOjte9KV6e" x="-.042124" y="-.045133" width="1.0842" height="1.1078" color-interpolation-filters="sRGB">
      <feGaussianBlur in="SourceGraphic" stdDeviation="4.294"/>
      <feOffset dx="0" dy="4" result="pf_100_offsetBlur"/>
      <feFlood flood-opacity=".4"/>
      <feComposite in2="pf_100_offsetBlur" operator="in" result="pf_100_dropShadow"/>
      <feBlend in="SourceGraphic" in2="pf_100_dropShadow"/>
    </filter>
  </defs>
  <g filter="url(#YCJfmPyxKH1qK1PRllq2waqOjte9KV6e)">
    <linearGradient id="_lgradient_157" x2="0" y2="1" gradientTransform="matrix(244.65 0 0 228.34 5.68 11.952)" gradientUnits="userSpaceOnUse">
      <stop stop-color="#504945" offset="0"/>
      <stop stop-color="#3c3836" offset="1"/>
    </linearGradient>
    <path d="m165.69 11.952c74.056 0 84.639 10.557 84.639 84.544v59.251c0 73.986-10.584 84.544-84.639 84.544h-75.37c-74.056 0-84.639-10.557-84.639-84.544v-59.251c0-73.987 10.584-84.544 84.639-84.544h75.37z" fill="url(#_lgradient_157)"/>
  </g>
  <g opacity=".4">
    <linearGradient id="_lgradient_158" x1=".517" x2=".517" y2="1" gradientTransform="matrix(244.65,0,0,228.34,5.68,11.95)" gradientUnits="userSpaceOnUse">
      <stop stop-color="#ebdbb2" offset="0"/>
      <stop stop-color="#ebdbb2" stop-opacity=".098" offset=".125"/>
      <stop stop-color="#282828" stop-opacity=".098" offset=".925"/>
      <stop stop-color="#282828" stop-opacity=".498" offset="1"/>
    </linearGradient>
    <path d="m165.07 11.951c4.328-0.009825 8.6559 0.039299 12.984 0.13755 3.8755 0.078598 7.751 0.22597 11.626 0.45194 3.4525 0.1965 6.9051 0.48141 10.348 0.85476 3.0591 0.33404 6.1182 0.78598 9.1477 1.346 2.7148 0.50106 5.4001 1.1397 8.0461 1.9158 2.4 0.69756 4.7509 1.5621 7.0231 2.5839 2.1148 0.94318 4.1411 2.0632 6.0591 3.3502 1.8394 1.2379 3.5607 2.6527 5.1345 4.2148 1.564 1.572 2.9804 3.2815 4.2198 5.1187 1.2886 1.9158 2.4099 3.9397 3.364 6.0422 1.023 2.2793 1.8886 4.6176 2.5968 7.0051 0.77706 2.6429 1.4164 5.325 1.9181 8.0367 0.56066 3.026 1.0131 6.0717 1.3476 9.1272 0.37378 3.4387 0.65903 6.8773 0.85575 10.326 0.22624 3.8611 0.37378 7.7321 0.46231 11.593 0.088537 4.3229 0.13771 8.6458 0.12788 12.959v58.212c0.009831 4.3229-0.039339 8.636-0.12788 12.959-0.088523 3.871-0.23606 7.7321-0.46231 11.593-0.19672 3.4485-0.48197 6.897-0.85575 10.326-0.33443 3.0555-0.7869 6.111-1.3476 9.137-0.50166 2.7018-1.141 5.384-1.9181 8.0269-0.70821 2.3874-1.5738 4.7355-2.5968 7.0051-0.9541 2.1123-2.0754 4.1264-3.364 6.0422-1.2394 1.8372-2.6558 3.5566-4.2198 5.1187-1.5738 1.5621-3.2952 2.9769-5.1345 4.2148-1.9181 1.287-3.9443 2.4071-6.0591 3.3502-2.2722 1.0218-4.623 1.8864-7.0231 2.5937-2.646 0.77616-5.3313 1.4148-8.0461 1.906-3.0296 0.56984-6.0886 1.012-9.1477 1.346-3.4427 0.37333-6.8952 0.65826-10.348 0.85475-3.8755 0.22597-7.751 0.37335-11.626 0.46177-4.328 0.088419-8.6559 0.13755-12.984 0.12773h-74.126c-4.328 0.009819-8.6559-0.039308-12.984-0.12773-3.8755-0.08842-7.751-0.2358-11.626-0.46177-3.4525-0.19649-6.9051-0.48142-10.348-0.85475-3.0591-0.33405-6.1182-0.77616-9.1477-1.346-2.7148-0.49124-5.4001-1.1298-8.0461-1.906-2.4-0.70737-4.7509-1.572-7.0231-2.5937-2.1148-0.94317-4.1411-2.0632-6.0591-3.3502-1.8394-1.2379-3.5607-2.6527-5.1345-4.2148-1.564-1.5621-2.9804-3.2815-4.2198-5.1187-1.2886-1.9158-2.4099-3.9299-3.364-6.0422-1.023-2.2695-1.8886-4.6176-2.5968-7.0051-0.77706-2.6429-1.4164-5.325-1.9181-8.0269-0.56067-3.026-1.0131-6.0815-1.3476-9.137-0.37378-3.4289-0.65903-6.8773-0.85576-10.326-0.22623-3.8611-0.37378-7.7223-0.4623-11.593-0.088526-4.3229-0.13771-8.636-0.12787-12.959v-58.212c-0.009836-4.3131 0.039345-8.636 0.12787-12.959 0.088527-3.8611 0.23607-7.7321 0.4623-11.593 0.19672-3.4485 0.48198-6.8872 0.85576-10.326 0.33443-3.0555 0.7869-6.1012 1.3476-9.1272 0.50165-2.7116 1.141-5.3938 1.9181-8.0367 0.70821-2.3874 1.5738-4.7257 2.5968-7.0051 0.95412-2.1025 2.0755-4.1264 3.364-6.0422 1.2394-1.8372 2.6558-3.5467 4.2198-5.1187 1.5738-1.5621 3.2951-2.9769 5.1345-4.2148 1.9181-1.287 3.9443-2.4071 6.0591-3.3502 2.2722-1.0218 4.623-1.8864 7.0231-2.5839 2.646-0.77616 5.3313-1.4148 8.0461-1.9158 3.0296-0.56001 6.0886-1.012 9.1477-1.346 3.4427-0.37334 6.8952-0.65826 10.348-0.85476 3.8755-0.22597 7.751-0.37334 11.626-0.45194 4.3279-0.098248 8.6559-0.14737 12.984-0.13755h74.126zm0.009846 4.0085c4.2984-0.009825 8.5969 0.039299 12.895 0.12772 3.8263 0.088423 7.6526 0.23579 11.479 0.45194 3.3837 0.1965 6.7674 0.47159 10.131 0.84493 2.9705 0.31439 5.9313 0.74668 8.8625 1.2969 2.5771 0.47159 5.1345 1.0807 7.6526 1.8176 2.223 0.64844 4.3968 1.4541 6.5018 2.3972 1.9082 0.85476 3.7378 1.8667 5.469 3.026 1.623 1.0906 3.1378 2.3383 4.5247 3.7236s2.6361 2.8983 3.7378 4.5194c1.1607 1.7292 2.1738 3.5467 3.0296 5.4429 0.94427 2.1123 1.7509 4.2836 2.4 6.4942 0.74756 2.5151 1.3476 5.0598 1.8295 7.6338 0.541 2.9278 0.9738 5.8752 1.2984 8.8423 0.37378 3.3601 0.6492 6.73 0.84592 10.11 0.2164 3.8218 0.37378 7.6338 0.45246 11.456 0.088538 4.2934 0.13771 8.577 0.13771 12.87v58.212c0 4.2934-0.049169 8.577-0.13771 12.87-0.078677 3.8218-0.23606 7.6437-0.45246 11.456-0.19672 3.3797-0.47214 6.7496-0.84592 10.12-0.3246 2.9573-0.7574 5.9047-1.2984 8.8325-0.48197 2.5741-1.082 5.1187-1.8295 7.6339-0.64918 2.2204-1.4558 4.3819-2.4 6.4942-0.85576 1.8962-1.8689 3.7236-3.0296 5.4429-1.1017 1.6309-2.3509 3.1439-3.7378 4.5292-1.3869 1.3755-2.9017 2.6232-4.5247 3.7138-1.7312 1.1593-3.5607 2.1713-5.469 3.026-2.105 0.953-4.2788 1.7488-6.5018 2.3972-2.5181 0.73686-5.0755 1.346-7.6526 1.8176-2.9312 0.55018-5.8919 0.98248-8.8625 1.3067-3.364 0.36351-6.7477 0.64844-10.131 0.8351-3.8263 0.21615-7.6526 0.37335-11.479 0.45195-4.2985 0.098254-8.5969 0.13755-12.895 0.13755h-0.009846-74.126-0.009838c-4.2984 0-8.5969-0.039292-12.895-0.13755-3.8263-0.0786-7.6526-0.2358-11.479-0.45195-3.3837-0.18666-6.7673-0.47158-10.131-0.8351-2.9706-0.32422-5.9313-0.75651-8.8625-1.3067-2.5771-0.47158-5.1345-1.0807-7.6526-1.8176-2.223-0.64842-4.3968-1.4442-6.5018-2.3972-1.9082-0.85475-3.7378-1.8667-5.469-3.026-1.623-1.0906-3.1378-2.3383-4.5247-3.7138-1.3869-1.3853-2.6361-2.8983-3.7378-4.5292-1.1607-1.7193-2.1738-3.5467-3.0296-5.4429-0.94428-2.1123-1.7509-4.2738-2.4-6.4942-0.74756-2.5151-1.3476-5.0598-1.8295-7.6339-0.541-2.9278-0.97379-5.8752-1.2984-8.8325-0.37378-3.3699-0.64919-6.7398-0.84592-10.12-0.2164-3.812-0.37378-7.6339-0.45247-11.456-0.088526-4.2934-0.13771-8.577-0.13771-12.87v-58.212c0-4.2934 0.049181-8.577 0.13771-12.87 0.07869-3.8218 0.23607-7.6338 0.45247-11.456 0.19672-3.3797 0.47214-6.7496 0.84592-10.11 0.3246-2.9671 0.75739-5.9145 1.2984-8.8423 0.48198-2.5741 1.082-5.1187 1.8295-7.6338 0.64919-2.2106 1.4558-4.3818 2.4-6.4942 0.85575-1.8962 1.8689-3.7138 3.0296-5.4429 1.1017-1.6211 2.3509-3.1341 3.7378-4.5194s2.9017-2.633 4.5247-3.7236c1.7312-1.1593 3.5607-2.1713 5.469-3.026 2.105-0.94318 4.2788-1.7488 6.5018-2.3972 2.5181-0.73686 5.0755-1.346 7.6526-1.8176 2.9312-0.55019 5.8919-0.98248 8.8625-1.2969 3.364-0.37334 6.7477-0.64843 10.131-0.84493 3.8263-0.21614 7.6526-0.36352 11.479-0.45194 4.2984-0.088423 8.5969-0.13755 12.895-0.12772h0.009838 74.126 0.009846z" fill="url(#_lgradient_158)" fill-rule="evenodd"/>
  </g>
  <g opacity=".2">
    <path d="m68.817 83.509 0.3268 2.7138c0.60025 5.0818 1.2296 6.7204 2.941 7.601 0.8813 0.45646 1.7604 1.4318 1.9498 2.1732 0.36942 1.4534 1.3071 1.8359 1.3071 0.53015 0-0.44289-0.98095-2.6987-2.1785-5.0143-1.1982-2.3199-2.1815-4.4553-2.1901-4.7518-0.007249-0.29658-0.48968-1.1534-1.0782-1.8981l-1.0779-1.3539zm118.36 0-1.0784 1.3569c-0.58848 0.74553-1.0711 1.5993-1.0784 1.8976-0.008568 0.29823-0.99189 2.4337-2.1894 4.7492-1.1975 2.3155-2.1785 4.5714-2.1785 5.0143 0 1.3059 0.93765 0.92334 1.3071-0.53015 0.18935-0.74138 1.0685-1.7167 1.9498-2.1732 1.7113-0.88037 2.3408-2.5193 2.941-7.601l0.32676-2.7137zm-123.92 2.9928c-0.3267 0-0.39539 0.39392-0.16338 0.94351 0.92407 2.1885 0.94476 3.3923 0.054505 3.3923-0.4843 0-0.88228 0.18164-0.88228 0.41343 0 0.85348 1.7878 2.9242 2.9192 3.3817 1.3473 0.54122 2.527 0.66822 2.527 0.26501 0-0.15316-0.24105-0.71185-0.53373-1.2297-0.29266-0.51782-0.7858-1.9686-1.1002-3.2226-0.57292-2.2856-1.7656-3.9436-2.8212-3.9436l2e-5 -6.6e-5zm129.47 0c-1.0556 0-2.2482 1.6579-2.8212 3.9436-0.31437 1.2541-0.80748 2.7048-1.1001 3.2227-0.29262 0.51796-0.53371 1.0765-0.53371 1.2297 0 0.40315 1.1907 0.27615 2.5379-0.26501 1.1313-0.45752 2.9083-2.5282 2.9083-3.3817 0-0.23179-0.39801-0.41343-0.88228-0.41343-0.89052 0-0.86983-1.2038 0.054702-3.3923 0.23199-0.54966 0.16325-0.94351-0.16338-0.94351l-2.64e-4 6.6e-5zm-64.908 1.3463c0.18302 0.47505 0.014499 0.81625-0.41396 0.81625-1.7999 0-2.5038 6.5163-1.1437 10.569 0.36406 1.0845 0.35517 1.0845-0.30501 0-1.0946-1.7983-2.83-3.5301-3.551-3.5301-0.37329 0-0.84808 0.73782-1.0457 1.6326-0.19732 0.89468-0.589 1.6326-0.88228 1.6326-0.29341 0-0.39089-0.24478-0.20694-0.54069 0.18368-0.29585 0.11606-0.9443-0.16338-1.4418-0.45666-0.81223-0.57332-0.78652-1.1328 0.25446-0.48593 0.90384-0.45093 1.5856 0.19607 3.1272 1.0453 2.4889 1.0401 2.9258-0.032953 2.9258-1.1368 0-0.67475 1.3125 0.54465 1.5477 1.0741 0.20741 3.039-1.3513 3.039-2.4064 0-0.38351 0.27351-0.85968 0.59909-1.0601 0.85045-0.52323 1.7968 0.60172 1.2417 1.4735-0.2538 0.39873-0.46457 0.88446-0.4684 1.0813-0.004613 0.19666-0.69557 0.90028-1.5358 1.5584-1.9455 1.5234-1.8859 3.9505 0.098003 4.2298 0.74836 0.10525 1.1417-0.036908 0.94766-0.34983-0.19343-0.31134 0.21288-0.29717 0.95854 0.053384 0.70546 0.33144 1.5344 1.2886 1.8517 2.1202 0.55697-0.024385 1.0799-0.091609 1.5794-0.20141 0.4995 0.1098 1.0224 0.17722 1.5794 0.20141 0.31747-0.8316 1.1571-1.7887 1.8626-2.1202 0.74566-0.35029 1.141-0.36426 0.94766-0.053384-0.19403 0.31279 0.21018 0.45508 0.95854 0.34983 1.9839-0.27938 2.0326-2.7064 0.087128-4.2298-0.8403-0.65807-1.5312-1.3616-1.5358-1.5584-0.003954-0.1968-0.21452-0.68259-0.46833-1.0813-0.55506-0.87187 0.39135-1.9968 1.2417-1.4735 0.32551 0.20042 0.59902 0.67653 0.59902 1.0601 0 1.0552 1.9649 2.6138 3.039 2.4064 1.2193-0.23522 1.6815-1.5477 0.54465-1.5477-1.0724 0-1.0778-0.43689-0.032953-2.9258 0.64693-1.5417 0.69294-2.2233 0.20694-3.1272-0.55954-1.041-0.6762-1.0666-1.1328-0.25446-0.27957 0.49739-0.358 1.1458-0.17426 1.4418 0.18388 0.29579 0.086403 0.54069-0.20694 0.54069s-0.68496-0.73782-0.88228-1.6326c-0.19759-0.89468-0.67231-1.6326-1.0457-1.6326-0.72088 0-2.4564 1.7317-3.551 3.5301-0.66018 1.0845-0.66914 1.0845-0.30501 0 1.3601-4.0529 0.65623-10.569-1.1437-10.569-0.42839 0-0.59704-0.3412-0.41389-0.81625-0.060634 0.066697-0.11441 0.13418-0.17426 0.20141-0.059975-0.066697-0.11349-0.13445-0.17426-0.20141h3.96e-4zm-71.712 1.5158c-1.0223 0.35444-0.67237 7.1561 0.45749 8.8729 0.84287 1.2809 0.84235 1.3929 0.054505 1.0919-1.0878-0.41554-1.1181 0.32413-0.10894 2.2474 1.163 2.2161 3.4959 4.1479 7.2655 6.0213 1.8722 0.93053 3.3984 1.7702 3.3984 1.8763 0 0.58702-5.19-0.89764-6.3721-1.8234-2.1662-1.6993-3.1498-1.4231-1.7319 0.48764 0.64832 0.87273 1.0401 1.9575 0.87141 2.3958-0.34265 0.88808 1.1211 2.3888 3.9758 4.092 2.3795 1.4225 2.8892 1.4399 2.4508 0.06327-0.45486-1.4263-0.19218-1.3718 1.3834 0.29678 1.083 1.148 1.1251 1.3225 0.27232 0.9965-0.76945-0.29401-0.90832-0.21532-0.5773 0.318 0.43774 0.705-0.49986 0.6182-3.7252-0.33928-0.84551-0.25104-0.94384-0.094311-0.60998 0.97528 0.88637 2.8411 2.3455 4.0976 5.9255 5.1202 1.9319 0.54979 3.3858 1.1996 3.2351 1.4417-0.3335 0.53832-4.0101-0.070256-4.9561-0.81625-0.98411-0.77657-0.89402 1.2191 0.11982 2.6608 0.90667 1.2879 4.5768 3.1581 8.9975 4.569l2.9948 0.95564-2.7232-0.25703c-1.498-0.1384-3.3691-0.34271-4.1613-0.46134-1.21-0.18454-1.4007-0.057997-1.1655 0.83747 0.40829 1.5551 3.1829 3.6871 5.2066 3.9965 0.96467 0.14763 2.9791 0.47195 4.4768 0.73149l2.7231 0.47703-2.4399 0.68905c-1.3421 0.381-3.3829 0.56712-4.5313 0.41343-2.0375-0.27213-2.0668-0.25433-1.3071 0.89046 1.1016 1.6603 3.7354 3.0872 6.7639 3.6467l2.6033 0.47703-3.1371-0.21202c-1.7224-0.11705-3.1261-0.023726-3.1261 0.21202 0 0.23601 0.64811 1.0795 1.4378 1.8658 1.5294 1.5219 2.1372 1.6353 8.0933 1.4948l3.8124-0.095366-3.2678 1.4205c-3.9681 1.7227-4.6305 2.2761-3.5401 2.9471 0.66572 0.40967 0.4591 0.86218-1.1655 2.5548-1.0851 1.1307-2.8968 3.2687-4.0193 4.7599-5.0895 6.7613-7.7684 8.9474-11.002 8.9474-2.8075 0-3.0836 0.8921-0.42481 1.3887 2.6627 0.49726 6.2913-0.13208 9.2262-1.6113 3.5635-1.7962 3.3393-0.87016-0.51195 2.1414-1.0598 0.82857-1.0525 0.84445 0.27232 0.50886 0.74889-0.18968 2.5311-1.051 3.954-1.9082 2.7252-1.6419 3.1531-1.7126 1.6993-0.26501-1.2303 1.2249-0.50998 1.6908 1.2853 0.82686 0.82501-0.39702 1.9274-0.67145 2.4399-0.60416 0.51255 0.066697 2.0794-0.93138 3.4856-2.2156 1.439-1.3143 2.298-1.8334 1.9606-1.1979-0.32979 0.62097-0.99386 1.4385-1.4596 1.8234-0.46589 0.38476-0.83872 0.91511-0.83872 1.1767 0 1.0615 1.3012 0.34238 4.0629-2.258 1.7132-1.6132 3.0587-2.5101 3.2678-2.1732 0.19568 0.3151 0.065972 0.57246-0.2832 0.57246-0.34864 0-0.48836 0.36894-0.31589 0.81625 0.19093 0.49542-0.002972 0.80564-0.49014 0.80564-0.43986 0-0.79516 0.23647-0.79516 0.51941 0 1.0882 3.3349-0.68799 4.1174-2.1944 1.0582-2.0369 1.3866-1.993 0.95854 0.13774-0.24563 1.2231-0.16687 1.6021 0.2832 1.3251 0.34614-0.21301 0.63171-0.75515 0.63171-1.1979 0-0.46121 0.40071-0.73782 0.93672-0.64667 0.63804 0.10874 1.4151-0.70579 2.4399-2.5548 1.187-2.1421 1.5045-2.4344 1.5141-1.4205 0.009886 1.011 0.23627 1.229 1.0892 1.0071 0.8813-0.22942 0.74803 0.12601-0.76247 1.9612-1.9661 2.3874-3.0553 5.2369-2.0042 5.2369 0.33197 0 0.59909-0.21841 0.59909-0.48757 0-0.26903 0.80194-0.76181 1.7754-1.0919l1.7646-0.59309-1.7864 1.4099c-2.4398 1.9288-5.0107 6.5244-4.9779 8.894v0.010545c0.023726 1.6887 0.098002 1.7775 0.67527 0.85869 1.8014-2.8673 4.1159-4.8017 8.0386-6.7422l4.3134-2.1414v1.569c0 0.86423 0.24497 1.569 0.54465 1.569 0.29948 0 0.54465-0.49416 0.54465-1.1025s0.48784-2.049 1.0784-3.2015c1.32-2.5763 8.6502-8.3707 10.729-8.6607 1.9919 0.15264 9.3923 6.0528 10.729 8.6607 0.59058 1.1524 1.0784 2.5931 1.0784 3.2015 0 0.60831 0.24517 1.1131 0.54465 1.1131 0.29974 0 0.54465-0.71528 0.54465-1.5796v-1.569l4.3134 2.1414c3.9226 1.9405 6.2373 3.875 8.0386 6.7422 0.57727 0.9188 0.65128 0.83009 0.67527-0.85869v-0.010545c0.032953-2.3695-2.538-6.9544-4.9779-8.8835l-1.7864-1.4205 1.7646 0.59368c0.9735 0.33019 1.7755 0.82284 1.7755 1.0919 0 0.26916 0.26725 0.48757 0.59909 0.48757 1.0511 0-0.037566-2.8494-2.0042-5.2369-1.5105-1.8354-1.6438-2.1906-0.76247-1.9612 0.85296 0.22191 1.0794 0.003955 1.0892-1.0071 0.009886-1.014 0.32696-0.711 1.5141 1.4312 1.0248 1.8491 1.8019 2.6529 2.4399 2.5442 0.53602-0.091082 0.93672 0.18539 0.93672 0.64667 0 0.44282 0.28557 0.98484 0.63178 1.1979 0.45014 0.27694 0.52876-0.10209 0.2832-1.3251-0.42799-2.1308-0.099716-2.1746 0.95854-0.13774 0.78244 1.5064 4.1174 3.2826 4.1174 2.1944 0-0.2828-0.3553-0.51941-0.79516-0.51941-0.48718 0-0.68107-0.31022-0.49014-0.80564 0.17248-0.4473 0.032953-0.81625-0.31589-0.81625-0.34924 0-0.47894-0.25743-0.2832-0.57246 0.20905-0.33698 1.5545 0.56 3.2678 2.1732 2.7617 2.6005 4.0629 3.3302 4.0629 2.2686 0-0.26165-0.37283-0.80254-0.83872-1.1873-0.46563-0.38489-1.1297-1.2024-1.4596-1.8234-0.33731-0.63547 0.52165-0.10578 1.9606 1.2085 1.4062 1.2843 2.9731 2.2721 3.4856 2.205 0.51262-0.066697 1.6149 0.20728 2.4399 0.60423 1.7953 0.8639 2.5156 0.39814 1.2853-0.82686-1.4539-1.4476-1.026-1.3768 1.6993 0.26501 1.4228 0.85717 3.2051 1.7185 3.954 1.9082 1.3248 0.33566 1.332 0.31978 0.27232-0.50886-3.8513-3.0115-4.0754-3.9376-0.51196-2.1414 2.9348 1.4793 6.5635 2.1086 9.2262 1.6113 2.6588-0.49667 2.3827-1.3887-0.42483-1.3887-3.2328 6e-6 -5.9119-2.1753-11.002-8.9369-1.1225-1.4911-2.9343-3.6398-4.0193-4.7704-1.6246-1.6926-1.8312-2.1452-1.1655-2.5548 1.0904-0.67099 0.42793-1.2244-3.5401-2.9471l-3.2678-1.4205 3.8124 0.095366c5.9557 0.14045 6.5634 0.027022 8.0933-1.4948 0.78969-0.78626 1.4378-1.6298 1.4378-1.8658 0-0.23581-1.4038-0.32914-3.1261-0.21202l-3.1371 0.21202 2.6033-0.47703c3.0287-0.55948 5.6628-1.9864 6.7639-3.6467 0.75977-1.1448 0.73037-1.1626-1.3071-0.89046-1.1483 0.1535-3.1892-0.032953-4.5313-0.41343l-2.4399-0.68905 2.7231-0.47703c1.4978-0.2596 3.5121-0.58386 4.4768-0.73149 2.0237-0.3095 4.7984-2.4414 5.2066-3.9965 0.23535-0.89553 0.044817-1.022-1.1655-0.83747-0.79212 0.12067-2.6631 0.32788-4.1609 0.46642l-2.7231 0.25446 2.9954-0.95406c4.4202-1.4109 8.0906-3.2811 8.9975-4.569 1.0138-1.4417 1.1039-3.4374 0.11975-2.6608-0.94588 0.74579-4.6226 1.3545-4.9561 0.81625-0.15073-0.24214 1.3032-0.89197 3.2351-1.4417 3.5803-1.0226 5.0389-2.2686 5.9256-5.1096 0.33395-1.0697 0.23555-1.2369-0.61003-0.98589-3.2254 0.95748-4.1629 1.0443-3.7252 0.33928 0.33105-0.53325 0.19218-0.61207-0.57727-0.318-0.85282 0.32604-0.81078 0.15145 0.27232-0.9965 1.5756-1.6687 1.8382-1.7232 1.3834-0.29684-0.43841 1.3764 0.071046 1.3589 2.4508-0.06327 2.8546-1.7031 4.3184-3.2039 3.9758-4.092-0.16865-0.43828 0.22309-1.5231 0.87141-2.3958 1.418-1.9107 0.43426-2.1869-1.7319-0.48764-1.182 0.92572-6.3721 2.4104-6.3721 1.8234 0-0.10624 1.5263-0.94588 3.3984-1.8763 3.7696-1.8736 6.1025-3.8053 7.2655-6.0213 1.0092-1.9233 0.97897-2.6524-0.10888-2.2368-0.78778 0.30099-0.78844 0.17834 0.054702-1.1025 1.1298-1.7167 1.4797-8.5184 0.45745-8.8729-0.34917-0.12087-0.78086 0.26718-0.96941 0.85869-0.18849 0.59144-1.3763 2.0964-2.636 3.3499-1.2597 1.2535-1.8892 2.1395-1.3942 1.9718 1.4692-0.49779 1.6543 0.27272 0.38127 1.6219-1.3659 1.4476-2.5317 1.6202-2.9846 0.4452-0.40394-1.0481-0.7133-1.025-5.2066 0.30739l-3.7579 1.1025-1.721 3.5725c-1.4435 3.0087-2.3003 4.0066-5.5443 6.403-2.1148 1.562-4.3092 3.3525-4.8689 3.9753-1.3217 1.4709-0.81414 3.608 1.0892 4.6008 1.3843 0.72213 1.301 0.76833-3.6163 2.5336-7.0262 2.5226-9.5327 2.3062-9.128-0.79509 0.13913-1.0643 1.2951-1.8058 4.6402-3.0213 2.2046-0.80109 2.2943-1.6007 0.17426-1.6007-2.6158 0-2.4126-0.92783 0.52283-2.3958 5.8826-2.9418 13.024-9.1122 14.433-12.467 0.66723-1.5899 0.52072-4.6909-0.21789-4.6432-0.18981 0.011863-0.9186 1.251-1.623 2.7456-1.9938 4.2306-9.5195 9.5215-16.415 11.534-4.1283 1.2047-8.3767 3.7475-10.196 6.1167-2.8945 3.7715-4.7876 5.5098-6.4157 5.8729l-1.6339 0.37105 1.8626-1.2615c2.4797-1.6778 2.8483-2.7837 0.77334-2.311l-1.5468 0.34983 1.3616-0.95412c2.1109-1.4806 4.3461-3.6512 4.3461-4.2086 0-0.2772-0.48302-0.37771-1.0784-0.2227-0.88123 0.22948-0.73716-0.13669 0.77334-1.9718 1.9649-2.3872 3.0553-5.2263 2.0042-5.2263-0.33204 0-0.60996 0.21841-0.60996 0.48757 0 0.2691-0.79107 0.76188-1.7646 1.0919l-1.7754 0.59362 1.7973-1.4205c2.4397-1.9289 5.0114-6.5144 4.9779-8.8835-0.023067-1.6888-0.098003-1.7882-0.67527-0.8693-1.8014 2.8672-4.1159 4.8019-8.0386 6.7422l-4.3138 2.1414v-1.569c0-0.86416-0.24517-1.569-0.54465-1.569-0.29968 0-0.54465 0.4941-0.54465 1.1025 0 2.2376-2.254 5.4473-5.7512 8.1842-4.0485 3.1676-4.9251 4.533-5.4898 8.6502l-0.56633 0.80564-0.5664-0.80564c-0.5633-4.1142-1.43-5.4806-5.4789-8.6502-3.4968-2.7356-5.7622-5.9372-5.7622-8.173 0-0.60831-0.24497-1.1131-0.54465-1.1131-0.29954 0-0.54465 0.71541-0.54465 1.5796v1.5689l-4.3134-2.1414c-3.9226-1.9403-6.2373-3.8856-8.0386-6.7527-0.57721-0.91886-0.6524-0.81948-0.67527 0.8693-0.034271 2.3694 2.5382 6.965 4.9779 8.894l1.7973 1.4205-1.7755-0.60416c-0.9735-0.33006-1.7646-0.8227-1.7646-1.0919 0-0.26916-0.27793-0.48764-0.60996-0.48764-1.0511 0 0.040203 2.839 2.0042 5.2263 1.5105 1.8351 1.6546 2.2013 0.77334 1.9718-0.59533-0.15521-1.0784-0.044157-1.0784 0.23324 0 0.5573 2.2352 2.7174 4.3461 4.198l1.3616 0.95406-1.5468-0.34983c-2.075-0.47261-1.7063 0.63316 0.77334 2.311l1.8626 1.2615-1.6339-0.37105c-1.6213-0.37566-3.5128-2.1024-6.4061-5.8788-1.819-2.366-6.07-4.9232-10.196-6.1227-6.8984-2.0167-14.424-7.309-16.418-11.54-0.70388-1.4895-1.4328-2.7219-1.6226-2.7285-0.73861-0.048112-0.88505 3.0426-0.21785 4.6326 1.408 3.3544 8.5493 9.5247 14.433 12.467 2.9355 1.468 3.1386 2.3958 0.52283 2.3958-2.12 0-2.0303 0.7997 0.17426 1.6007 3.3451 1.2155 4.5011 1.9676 4.6402 3.0319 0.4048 3.1013-2.1014 3.3176-9.128 0.79509-4.9171-1.7653-5.0006-1.822-3.6163-2.5442 1.9034-0.99281 2.4109-3.1299 1.0892-4.6008-0.55974-0.62281-2.7542-2.4134-4.8689-3.9753-3.2439-2.399-4.1007-3.3942-5.544-6.4061l-1.7208-3.5589-3.758-1.1138c-4.4935-1.3313-4.8026-1.3577-5.2066-0.30976-0.45277 1.1731-1.6081 1.0018-2.9737-0.44157-1.2733-1.3511-1.0987-2.109 0.37039-1.6147 0.49496 0.1676-0.13458-0.72892-1.3942-1.9824-1.2597-1.2535-2.4475-2.7585-2.636-3.3499-0.18856-0.59164-0.62031-0.97963-0.96941-0.85869l-0.005451 0.009754zm10.675 12.106c0.28844-0.064588 0.93778 0.092664 1.9062 0.49825 0.99782 0.4191 2.1973 1.5243 2.7231 2.5124 0.51665 0.97264 1.7141 2.5748 2.6578 3.5513v0.010545c0.94351 0.97712 1.5562 1.7607 1.3616 1.7491-0.85012-0.052724-3.7501-1.8678-5.2502-3.2759-0.8987-0.84353-2.2575-1.7609-3.0063-2.0566-0.95023-0.37514-1.0683-0.5604-0.40302-0.58307 1.1066-0.040862 1.2322-0.62492 0.31589-1.5371-0.51096-0.50873-0.59343-0.80425-0.30498-0.86924l-2.6e-5 2.64e-4zm122.44 0c0.28847 0.064588 0.20602 0.36057-0.30501 0.8693-0.91623 0.91221-0.79074 1.4973 0.31589 1.5371 0.66526 0.022408 0.53634 0.20787-0.41396 0.58307-0.74889 0.29559-2.0967 1.2131-2.9954 2.0566-1.5 1.408-4.4 3.2235-5.2502 3.2757-0.19462 0.011863 0.41811-0.77202 1.3616-1.7491v-0.010545c0.94364-0.97646 2.1302-2.5786 2.6469-3.5513 0.5258-0.98806 1.7253-2.0934 2.7231-2.5124 0.96836-0.40565 1.6286-0.56336 1.9171-0.49825l1.32e-4 -1.31e-4zm-62.142 0.48757c0.30877-0.18994 0.40381 0.027021 0.21782 0.50886-0.36202 0.93942-0.75159 1.1086-0.75159 0.32861 0-0.28063 0.23772-0.65517 0.53377-0.83747zm1.5468 0c0.038226-0.091016 0.13972-0.095037 0.29407 0 0.29592 0.1823 0.53371 0.55678 0.53371 0.83747 0 0.77993-0.3895 0.61088-0.75159-0.32861-0.092928-0.24128-0.11501-0.41778-0.076188-0.50886z"/>
  </g>
  <path d="m68.817 80.215 0.3268 2.7138c0.60025 5.0818 1.2296 6.7204 2.941 7.601 0.8813 0.45647 1.7604 1.4318 1.9498 2.1732 0.36942 1.4534 1.3071 1.8359 1.3071 0.53015 0-0.44289-0.98095-2.6987-2.1785-5.0143-1.1982-2.3126-2.1815-4.4487-2.1901-4.7466-0.007249-0.29856-0.48968-1.152-1.0782-1.8974l-1.0779-1.3598zm118.36 0-1.0784 1.3569c-0.58848 0.74553-1.0711 1.5993-1.0784 1.8976-0.008568 0.29822-0.99189 2.4337-2.1894 4.7492-1.1975 2.3155-2.1785 4.5714-2.1785 5.0143 0 1.3059 0.93765 0.92334 1.3071-0.53015 0.18935-0.74138 1.0685-1.7167 1.9498-2.1732 1.7113-0.88037 2.3408-2.5193 2.941-7.601l0.32676-2.7137zm-123.92 2.9895c-0.3267 0-0.39539 0.39392-0.16338 0.94351 0.92407 2.1885 0.94476 3.3923 0.054505 3.3923-0.4843 0-0.88228 0.18164-0.88228 0.41343 0 0.85348 1.7878 2.9242 2.9192 3.3817 1.3473 0.54122 2.527 0.66822 2.527 0.26501 0-0.15316-0.24105-0.71185-0.53373-1.2297-0.29262-0.52066-0.7856-1.9706-1.1-3.2228-0.57338-2.2863-1.7656-3.9438-2.8214-3.9438l8.6e-5 3.95e-4zm129.47 0c-1.0556 0-2.2482 1.6579-2.8212 3.9436-0.31437 1.2541-0.80748 2.7048-1.1001 3.2227-0.29262 0.51796-0.53371 1.0765-0.53371 1.2297 0 0.40315 1.1907 0.27615 2.5379-0.26501 1.1313-0.45752 2.9083-2.5282 2.9083-3.3817 0-0.23179-0.39801-0.41343-0.88228-0.41343-0.89052 0-0.86983-1.2038 0.054702-3.3923 0.23199-0.54964 0.16325-0.94345-0.16338-0.94345h-2.64e-4zm-64.908 1.3463c0.18302 0.47504 0.014499 0.81625-0.41396 0.81625-1.7999 0-2.5038 6.5163-1.1437 10.569 0.36406 1.0845 0.35517 1.0845-0.30501 0-1.0946-1.7983-2.83-3.5301-3.551-3.5301-0.37329 0-0.84808 0.73782-1.0457 1.6326-0.19732 0.89468-0.589 1.6326-0.88228 1.6326-0.29341 0-0.39089-0.24478-0.20694-0.54069 0.18368-0.29585 0.11606-0.9443-0.16338-1.4418-0.45666-0.81223-0.57332-0.78652-1.1328 0.25446-0.48593 0.90384-0.45093 1.5856 0.19607 3.1272 1.0453 2.4889 1.0401 2.9258-0.032953 2.9258-1.1368 0-0.67475 1.3125 0.54465 1.5477 1.0741 0.20741 3.039-1.3513 3.039-2.4064 0-0.38351 0.27351-0.85968 0.59909-1.0601 0.85045-0.52323 1.7968 0.60172 1.2417 1.4735-0.2538 0.39873-0.46457 0.88446-0.4684 1.0813-0.004613 0.19666-0.69557 0.90028-1.5358 1.5584-1.9455 1.5234-1.8859 3.9505 0.098003 4.2298 0.74836 0.10525 1.1417-0.036908 0.94766-0.34983-0.19343-0.31134 0.21288-0.29717 0.95854 0.053384 0.70546 0.33144 1.5344 1.2886 1.8517 2.1202 0.55697-0.024385 1.0799-0.091609 1.5794-0.20141 0.4995 0.1098 1.0224 0.17722 1.5794 0.20141 0.31747-0.8316 1.1571-1.7887 1.8626-2.1202 0.74566-0.35029 1.141-0.36426 0.94766-0.053384-0.19403 0.31279 0.21018 0.45508 0.95854 0.34983 1.9839-0.27938 2.0326-2.7064 0.087128-4.2298-0.8403-0.65807-1.5312-1.3616-1.5358-1.5584-0.003954-0.1968-0.21452-0.68259-0.46833-1.0813-0.55506-0.87187 0.39135-1.9968 1.2417-1.4735 0.32551 0.20042 0.59902 0.67653 0.59902 1.0601 0 1.0552 1.9649 2.6138 3.039 2.4064 1.2193-0.23522 1.6815-1.5477 0.54465-1.5477-1.0724 0-1.0778-0.43689-0.032953-2.9258 0.64693-1.5417 0.69294-2.2233 0.20694-3.1272-0.55954-1.041-0.6762-1.0666-1.1328-0.25446-0.27957 0.49739-0.358 1.1458-0.17426 1.4418 0.18388 0.29579 0.086403 0.54069-0.20694 0.54069s-0.68496-0.73782-0.88228-1.6326c-0.19759-0.89468-0.67231-1.6326-1.0457-1.6326-0.72088 0-2.4564 1.7317-3.551 3.5301-0.66018 1.0845-0.66914 1.0845-0.30501 0 1.3601-4.0529 0.65623-10.569-1.1437-10.569-0.42839 0-0.59704-0.34118-0.41389-0.81625-0.060634 0.06673-0.11441 0.13422-0.17426 0.20144-0.059975-0.06673-0.11349-0.13442-0.17426-0.20144h3.96e-4zm-71.712 1.5158c-1.0223 0.35445-0.67237 7.1561 0.45749 8.8729 0.84287 1.2809 0.84235 1.3929 0.054505 1.0919-1.0878-0.41554-1.1181 0.32413-0.10894 2.2474 1.163 2.2161 3.4959 4.1479 7.2655 6.0213 1.8722 0.93053 3.3984 1.7702 3.3984 1.8763 0 0.58702-5.19-0.89764-6.3721-1.8234-2.1662-1.6993-3.1498-1.4231-1.7319 0.48764 0.64832 0.87273 1.0401 1.9575 0.87141 2.3958-0.34265 0.88808 1.1211 2.3888 3.9758 4.092 2.3795 1.4225 2.8892 1.4399 2.4508 0.06327-0.45486-1.4263-0.19218-1.3718 1.3834 0.29678 1.083 1.148 1.1251 1.3225 0.27232 0.9965-0.76945-0.29401-0.90832-0.21532-0.5773 0.318 0.43774 0.705-0.49986 0.6182-3.7252-0.33928-0.84551-0.25104-0.94384-0.094311-0.60998 0.97528 0.88637 2.8411 2.3455 4.0976 5.9255 5.1202 1.9319 0.54979 3.3858 1.1996 3.2351 1.4417-0.3335 0.53832-4.0101-0.070256-4.9561-0.81625-0.98411-0.77657-0.89402 1.2191 0.11982 2.6608 0.90667 1.2879 4.5768 3.1581 8.9975 4.569l2.9954 0.95406-2.7231-0.2544c-1.4978-0.13853-3.3689-0.34574-4.1609-0.46642-1.21-0.18454-1.4007-0.057997-1.1655 0.83747 0.40829 1.5551 3.1829 3.687 5.2066 3.9965 0.96467 0.14763 2.9791 0.47195 4.4768 0.73149l2.7231 0.47703-2.4399 0.68905c-1.3421 0.381-3.3829 0.56712-4.5313 0.41343-2.0375-0.27213-2.0668-0.25433-1.3071 0.89046 1.1016 1.6603 3.7354 3.0872 6.7639 3.6467l2.6033 0.47703-3.1371-0.21202c-1.7224-0.11705-3.1261-0.023726-3.1261 0.21202 0 0.23601 0.64811 1.0795 1.4378 1.8658 1.5294 1.5219 2.1372 1.6353 8.0933 1.4948l3.8124-0.095366-3.2678 1.4205c-3.9681 1.7227-4.6305 2.2761-3.5401 2.9471 0.66572 0.40967 0.4591 0.86218-1.1655 2.5548-1.0851 1.1307-2.8968 3.2687-4.0193 4.7599-5.0895 6.7613-7.7684 8.9474-11.002 8.9474-2.8075 0-3.0836 0.8921-0.42481 1.3887 2.6627 0.49726 6.2913-0.13208 9.2262-1.6113 3.5635-1.7962 3.3393-0.87016-0.51195 2.1414-1.0598 0.82857-1.0525 0.84446 0.27232 0.50886 0.74889-0.18968 2.5311-1.051 3.954-1.9082 2.7252-1.6419 3.1531-1.7126 1.6993-0.26501-1.2303 1.2249-0.50998 1.6908 1.2853 0.82686 0.82501-0.39702 1.9274-0.67145 2.4399-0.60416 0.51255 0.066697 2.0794-0.93138 3.4856-2.2156 1.439-1.3143 2.298-1.8334 1.9606-1.1979-0.32979 0.62097-0.99386 1.4385-1.4596 1.8234-0.46589 0.38476-0.83872 0.91511-0.83872 1.1767 0 1.0615 1.3012 0.34238 4.0629-2.258 1.7132-1.6132 3.0587-2.5101 3.2678-2.1732 0.19568 0.3151 0.065972 0.57246-0.2832 0.57246-0.34864 0-0.48836 0.36894-0.31589 0.81625 0.19093 0.49542-0.002973 0.80564-0.49014 0.80564-0.43986 0-0.79516 0.23647-0.79516 0.51941 0 1.0882 3.3349-0.68799 4.1174-2.1944 1.0582-2.0369 1.3866-1.993 0.95854 0.13774-0.24563 1.2231-0.16687 1.6021 0.2832 1.3251 0.34614-0.21301 0.63171-0.75515 0.63171-1.1979 0-0.46121 0.40071-0.73782 0.93672-0.64667 0.63804 0.10874 1.4151-0.70579 2.4399-2.5548 1.187-2.1421 1.5045-2.4344 1.5141-1.4205 0.009886 1.011 0.23627 1.229 1.0892 1.0071 0.8813-0.22942 0.74804 0.12601-0.76247 1.9612-1.9661 2.3874-3.0553 5.2369-2.0042 5.2369 0.33197 0 0.59909-0.21841 0.59909-0.48757 0-0.26903 0.80194-0.76181 1.7754-1.0919l1.7646-0.59309-1.7864 1.4099c-2.4398 1.9288-5.0107 6.5244-4.9779 8.894v0.010545c0.023726 1.6887 0.098002 1.7775 0.67527 0.85869 1.8014-2.8673 4.1159-4.8017 8.0386-6.7422l4.3134-2.1414v1.569c0 0.86423 0.24497 1.569 0.54465 1.569 0.29948 0 0.54465-0.49416 0.54465-1.1025 0-0.60831 0.48784-2.049 1.0784-3.2015 1.32-2.5763 8.6502-8.3707 10.729-8.6607 1.9919 0.15264 9.3923 6.0528 10.729 8.6607 0.59058 1.1524 1.0784 2.5931 1.0784 3.2015 0 0.60831 0.24517 1.1131 0.54465 1.1131 0.29974 0 0.54465-0.71528 0.54465-1.5796v-1.569l4.3134 2.1414c3.9226 1.9405 6.2373 3.875 8.0386 6.7422 0.57727 0.9188 0.65128 0.83009 0.67527-0.85869v-0.010545c0.032953-2.3695-2.538-6.9544-4.9779-8.8835l-1.7864-1.4205 1.7646 0.59368c0.9735 0.33019 1.7755 0.82284 1.7755 1.0919 0 0.26916 0.26725 0.48757 0.59909 0.48757 1.0511 0-0.037566-2.8494-2.0042-5.2369-1.5105-1.8354-1.6438-2.1906-0.76247-1.9612 0.85296 0.22191 1.0794 0.003954 1.0892-1.0071 0.009885-1.014 0.32696-0.711 1.5141 1.4312 1.0248 1.8491 1.8019 2.6529 2.4399 2.5442 0.53601-0.091083 0.93672 0.18539 0.93672 0.64667 0 0.44282 0.28557 0.98484 0.63178 1.1979 0.45014 0.27694 0.52876-0.10209 0.2832-1.3251-0.42799-2.1308-0.099716-2.1746 0.95854-0.13774 0.78244 1.5064 4.1174 3.2826 4.1174 2.1944 0-0.2828-0.3553-0.51941-0.79516-0.51941-0.48718 0-0.68107-0.31022-0.49014-0.80564 0.17248-0.4473 0.032953-0.81625-0.31589-0.81625-0.34924 0-0.47894-0.25743-0.2832-0.57246 0.20905-0.33698 1.5545 0.56 3.2678 2.1732 2.7617 2.6005 4.0629 3.3302 4.0629 2.2686 0-0.26165-0.37283-0.80254-0.83872-1.1873-0.46563-0.38489-1.1297-1.2024-1.4596-1.8234-0.33731-0.63547 0.52165-0.10578 1.9606 1.2085 1.4062 1.2843 2.9731 2.2721 3.4856 2.205 0.51262-0.066697 1.6149 0.20727 2.4399 0.60423 1.7953 0.8639 2.5156 0.39814 1.2853-0.82686-1.4539-1.4476-1.026-1.3768 1.6993 0.26501 1.4228 0.85718 3.2051 1.7185 3.954 1.9082 1.3248 0.33566 1.332 0.31978 0.27232-0.50886-3.8513-3.0115-4.0754-3.9376-0.51196-2.1414 2.9348 1.4793 6.5635 2.1086 9.2262 1.6113 2.6588-0.49667 2.3827-1.3887-0.42483-1.3887-3.2328 6e-6 -5.9119-2.1753-11.002-8.9369-1.1225-1.4911-2.9343-3.6398-4.0193-4.7704-1.6246-1.6926-1.8312-2.1452-1.1655-2.5548 1.0904-0.67099 0.42793-1.2244-3.5401-2.9471l-3.2678-1.4205 3.8124 0.095366c5.9557 0.14045 6.5634 0.027021 8.0933-1.4948 0.78969-0.78626 1.4378-1.6298 1.4378-1.8658 0-0.23581-1.4038-0.32914-3.1261-0.21202l-3.1371 0.21202 2.6033-0.47703c3.0287-0.55948 5.6628-1.9864 6.7639-3.6467 0.75976-1.1448 0.73037-1.1626-1.3071-0.89046-1.1483 0.1535-3.1892-0.032953-4.5313-0.41343l-2.4385-0.69201 2.7285-0.48112c1.4978-0.2596 3.5121-0.58386 4.4768-0.73149 2.0237-0.3095 4.7984-2.4414 5.2066-3.9965 0.23535-0.89553 0.044816-1.022-1.1655-0.83747-0.79213 0.12067-2.6631 0.32788-4.1609 0.46642l-2.7231 0.25446 2.9954-0.95406c4.4202-1.4109 8.0906-3.2811 8.9975-4.569 1.0138-1.4417 1.1039-3.4374 0.11975-2.6608-0.94588 0.74579-4.6226 1.3545-4.9561 0.81625-0.15073-0.24214 1.3032-0.89197 3.2351-1.4417 3.5803-1.0226 5.0388-2.2686 5.9256-5.1096 0.33395-1.0697 0.23555-1.2369-0.61003-0.98589-3.2254 0.95748-4.1629 1.0443-3.7252 0.33928 0.33105-0.53325 0.19218-0.61207-0.57727-0.318-0.85282 0.32604-0.81078 0.15145 0.27232-0.9965 1.5756-1.6687 1.8382-1.7232 1.3834-0.29684-0.43841 1.3764 0.071047 1.3589 2.4508-0.06327 2.8546-1.7031 4.3184-3.2039 3.9758-4.092-0.16865-0.43828 0.22309-1.5231 0.87141-2.3958 1.418-1.9107 0.43426-2.1869-1.7319-0.48764-1.182 0.92572-6.3721 2.4104-6.3721 1.8234 0-0.10624 1.5263-0.94588 3.3984-1.8763 3.7696-1.8736 6.1025-3.8053 7.2655-6.0213 1.0092-1.9233 0.97897-2.6524-0.10888-2.2368-0.78778 0.30099-0.78843 0.17834 0.054702-1.1025 1.1298-1.7167 1.4797-8.5184 0.45746-8.8729-0.34917-0.12087-0.78086 0.26715-0.96941 0.85869-0.18849 0.59144-1.3763 2.0964-2.636 3.3499-1.2597 1.2535-1.8892 2.1395-1.3942 1.9718 1.4692-0.49779 1.6543 0.27272 0.38127 1.6219-1.3659 1.4476-2.5317 1.6202-2.9846 0.4452-0.40394-1.0481-0.7133-1.025-5.2066 0.30739l-3.7579 1.1025-1.721 3.5725c-1.4435 3.0087-2.3003 4.0066-5.5443 6.403-2.1148 1.562-4.3092 3.3525-4.8689 3.9753-1.3217 1.4709-0.81414 3.608 1.0892 4.6008 1.3843 0.72213 1.301 0.76833-3.6163 2.5336-7.0262 2.5226-9.5327 2.3062-9.128-0.79509 0.13913-1.0643 1.2951-1.8058 4.6402-3.0213 2.2046-0.80109 2.2943-1.6007 0.17426-1.6007-2.6158 0-2.4126-0.92783 0.52283-2.3958 5.8826-2.9418 13.024-9.1122 14.433-12.467 0.66723-1.5899 0.52072-4.6909-0.21789-4.6432-0.18981 0.011863-0.9186 1.251-1.623 2.7456-1.9938 4.2306-9.5195 9.5215-16.415 11.534-4.1283 1.2047-8.3767 3.7475-10.196 6.1167-2.8945 3.7715-4.7876 5.5098-6.4157 5.8729l-1.6339 0.37105 1.8626-1.2615c2.4797-1.6778 2.8483-2.7837 0.77334-2.311l-1.5468 0.34983 1.3616-0.95412c2.1109-1.4806 4.3461-3.6512 4.3461-4.2086 0-0.2772-0.48303-0.37771-1.0784-0.2227-0.88123 0.22948-0.73716-0.13669 0.77334-1.9718 1.9649-2.3873 3.0553-5.2263 2.0042-5.2263-0.33204 0-0.60996 0.21841-0.60996 0.48757 0 0.2691-0.79107 0.76187-1.7646 1.0919l-1.7754 0.59362 1.7973-1.4205c2.4397-1.9289 5.0114-6.5144 4.9779-8.8835-0.023067-1.6888-0.098002-1.7882-0.67527-0.8693-1.8014 2.8672-4.1159 4.8019-8.0386 6.7422l-4.3138 2.1414v-1.569c0-0.86416-0.24517-1.569-0.54465-1.569-0.29968 0-0.54465 0.4941-0.54465 1.1025 0 2.2376-2.254 5.4473-5.7512 8.1842-4.0485 3.1676-4.9251 4.533-5.4898 8.6502l-0.56633 0.80564-0.5664-0.80564c-0.5633-4.1142-1.43-5.4806-5.4789-8.6502-3.4968-2.7356-5.7622-5.9372-5.7622-8.173 0-0.60831-0.24497-1.1131-0.54465-1.1131-0.29954 0-0.54465 0.71541-0.54465 1.5796v1.5689l-4.3134-2.1414c-3.9226-1.9403-6.2373-3.8856-8.0386-6.7527-0.5772-0.91886-0.6524-0.81948-0.67527 0.8693-0.034271 2.3694 2.5382 6.965 4.9779 8.894l1.7973 1.4205-1.7755-0.60416c-0.9735-0.33006-1.7646-0.82271-1.7646-1.0919 0-0.26916-0.27793-0.48764-0.60996-0.48764-1.0511 0 0.040203 2.839 2.0042 5.2263 1.5105 1.8351 1.6546 2.2013 0.77334 1.9718-0.59533-0.15521-1.0784-0.044157-1.0784 0.23324 0 0.5573 2.2352 2.7174 4.3461 4.198l1.3616 0.95406-1.5468-0.34983c-2.075-0.47261-1.7063 0.63316 0.77334 2.311l1.8626 1.2615-1.6339-0.37105c-1.6279-0.36248-3.5194-2.0892-6.4127-5.8656-1.819-2.366-6.07-4.9232-10.196-6.1227-6.8984-2.0167-14.424-7.309-16.418-11.534-0.70388-1.4961-1.4328-2.7285-1.6226-2.7351-0.73861-0.048112-0.88505 3.0426-0.21785 4.6326 1.408 3.3544 8.5493 9.5247 14.433 12.467 2.9355 1.468 3.1386 2.3958 0.52283 2.3958-2.12 0-2.0303 0.7997 0.17426 1.6007 3.3451 1.2155 4.5011 1.9676 4.6402 3.0319 0.4048 3.1013-2.1014 3.3176-9.128 0.79509-4.9171-1.7653-5.0006-1.822-3.6163-2.5442 1.9034-0.99281 2.4109-3.1299 1.0892-4.6008-0.55974-0.62281-2.7542-2.4134-4.8689-3.9753-3.2439-2.399-4.1007-3.3942-5.544-6.4061l-1.7208-3.5589-3.758-1.1138c-4.4935-1.3313-4.8026-1.3577-5.2066-0.30976-0.45278 1.1797-1.6081 1.0018-2.9737-0.44157-1.2733-1.3511-1.0987-2.109 0.37039-1.6147 0.49496 0.17136-0.13445-0.72497-1.3946-1.9838-1.2595-1.2522-2.4471-2.7549-2.6356-3.348-0.18915-0.59052-0.62084-0.97871-0.96948-0.85744l-0.006835 0.005865zm10.675 12.106c0.28844-0.064588 0.93778 0.092664 1.9062 0.49825 0.99782 0.4191 2.1973 1.5243 2.7231 2.5124 0.51665 0.97264 1.7141 2.5748 2.6578 3.5513v0.010545c0.94351 0.97712 1.5562 1.7607 1.3616 1.7491-0.85085-0.059316-3.7507-1.8717-5.2507-3.2821-0.89896-0.8436-2.2573-1.7597-3.0066-2.0563-0.94971-0.37566-1.0677-0.5602-0.40269-0.57997 1.1066-0.040861 1.2322-0.62492 0.31589-1.5371-0.51096-0.50873-0.59343-0.80425-0.30498-0.86924l4.94e-4 0.003098zm122.44 0c0.28847 0.064588 0.20602 0.36057-0.30501 0.8693-0.91623 0.91221-0.79074 1.4973 0.31589 1.5371 0.66526 0.022408 0.53634 0.20787-0.41396 0.58307-0.74889 0.29559-2.0967 1.2131-2.9954 2.0566-1.5 1.408-4.4 3.2235-5.2502 3.2757-0.19462 0.011863 0.41811-0.77202 1.3616-1.7491v-0.010545c0.94364-0.97646 2.1302-2.5786 2.6469-3.5513 0.5258-0.98806 1.7253-2.0934 2.7231-2.5124 0.96836-0.40565 1.6286-0.56337 1.9171-0.49825l1.32e-4 -1.31e-4zm-62.142 0.48757c0.30877-0.18994 0.40381 0.027021 0.21782 0.50886-0.36202 0.93942-0.75159 1.1086-0.75159 0.32861 0-0.28063 0.23772-0.65517 0.53377-0.83747zm1.5468 0c0.038226-0.091016 0.13972-0.095037 0.29407 0 0.29592 0.1823 0.53371 0.55678 0.53371 0.83747 0 0.77993-0.3895 0.61088-0.75159-0.32861-0.092928-0.24128-0.11501-0.41778-0.076188-0.50886z" fill="#bdae93"/>
</svg>
