<svg width="256" height="256" style="isolation:isolate" version="1.1" viewBox="0 0 256 256" xmlns="http://www.w3.org/2000/svg">
  <defs>
    <filter id="RseBQ8poMtdnxLYL1zvfahxAqK9ecXQr" x="-.042124" y="-.045133" width="1.0842" height="1.1078" color-interpolation-filters="sRGB">
      <feGaussianBlur in="SourceGraphic" stdDeviation="4.294"/>
      <feOffset dx="0" dy="4" result="pf_100_offsetBlur"/>
      <feFlood flood-opacity=".4"/>
      <feComposite in2="pf_100_offsetBlur" operator="in" result="pf_100_dropShadow"/>
      <feBlend in="SourceGraphic" in2="pf_100_dropShadow"/>
    </filter>
  </defs>
  <g filter="url(#RseBQ8poMtdnxLYL1zvfahxAqK9ecXQr)">
    <linearGradient id="_lgradient_13" x2="0" y2="1" gradientTransform="matrix(244.65 0 0 228.34 5.68 11.952)" gradientUnits="userSpaceOnUse">
      <stop stop-color="#504945" offset="0"/>
      <stop stop-color="#3c3836" offset="1"/>
    </linearGradient>
    <path d="m165.69 11.952c74.056 0 84.639 10.557 84.639 84.544v59.251c0 73.986-10.584 84.544-84.639 84.544h-75.37c-74.056 0-84.639-10.557-84.639-84.544v-59.251c0-73.987 10.584-84.544 84.639-84.544h75.37z" fill="url(#_lgradient_13)"/>
  </g>
  <g opacity=".4">
    <linearGradient id="_lgradient_14" x1=".517" x2=".517" y2="1" gradientTransform="matrix(244.65,0,0,228.34,5.68,11.95)" gradientUnits="userSpaceOnUse">
      <stop stop-color="#ebdbb2" offset="0"/>
      <stop stop-color="#ebdbb2" stop-opacity=".098" offset=".125"/>
      <stop stop-color="#282828" stop-opacity=".098" offset=".925"/>
      <stop stop-color="#282828" stop-opacity=".498" offset="1"/>
    </linearGradient>
    <path d="m165.07 11.951c4.328-0.009825 8.6559 0.039299 12.984 0.13755 3.8755 0.078598 7.751 0.22597 11.626 0.45194 3.4525 0.1965 6.9051 0.48141 10.348 0.85476 3.0591 0.33404 6.1182 0.78598 9.1477 1.346 2.7148 0.50106 5.4001 1.1397 8.0461 1.9158 2.4 0.69756 4.7509 1.5621 7.0231 2.5839 2.1148 0.94318 4.1411 2.0632 6.0591 3.3502 1.8394 1.2379 3.5607 2.6527 5.1345 4.2148 1.564 1.572 2.9804 3.2815 4.2198 5.1187 1.2886 1.9158 2.4099 3.9397 3.364 6.0422 1.023 2.2793 1.8886 4.6176 2.5968 7.0051 0.77706 2.6429 1.4164 5.325 1.9181 8.0367 0.56066 3.026 1.0131 6.0717 1.3476 9.1272 0.37378 3.4387 0.65903 6.8773 0.85575 10.326 0.22624 3.8611 0.37378 7.7321 0.46231 11.593 0.088537 4.3229 0.13771 8.6458 0.12788 12.959v58.212c0.009831 4.3229-0.039339 8.636-0.12788 12.959-0.088523 3.871-0.23606 7.7321-0.46231 11.593-0.19672 3.4485-0.48197 6.897-0.85575 10.326-0.33443 3.0555-0.7869 6.111-1.3476 9.137-0.50166 2.7018-1.141 5.384-1.9181 8.0269-0.70821 2.3874-1.5738 4.7355-2.5968 7.0051-0.9541 2.1123-2.0754 4.1264-3.364 6.0422-1.2394 1.8372-2.6558 3.5566-4.2198 5.1187-1.5738 1.5621-3.2952 2.9769-5.1345 4.2148-1.9181 1.287-3.9443 2.4071-6.0591 3.3502-2.2722 1.0218-4.623 1.8864-7.0231 2.5937-2.646 0.77616-5.3313 1.4148-8.0461 1.906-3.0296 0.56984-6.0886 1.012-9.1477 1.346-3.4427 0.37333-6.8952 0.65826-10.348 0.85475-3.8755 0.22597-7.751 0.37335-11.626 0.46177-4.328 0.088419-8.6559 0.13755-12.984 0.12773h-74.126c-4.328 0.009819-8.6559-0.039308-12.984-0.12773-3.8755-0.08842-7.751-0.2358-11.626-0.46177-3.4525-0.19649-6.9051-0.48142-10.348-0.85475-3.0591-0.33405-6.1182-0.77616-9.1477-1.346-2.7148-0.49124-5.4001-1.1298-8.0461-1.906-2.4-0.70737-4.7509-1.572-7.0231-2.5937-2.1148-0.94317-4.1411-2.0632-6.0591-3.3502-1.8394-1.2379-3.5607-2.6527-5.1345-4.2148-1.564-1.5621-2.9804-3.2815-4.2198-5.1187-1.2886-1.9158-2.4099-3.9299-3.364-6.0422-1.023-2.2695-1.8886-4.6176-2.5968-7.0051-0.77706-2.6429-1.4164-5.325-1.9181-8.0269-0.56067-3.026-1.0131-6.0815-1.3476-9.137-0.37378-3.4289-0.65903-6.8773-0.85576-10.326-0.22623-3.8611-0.37378-7.7223-0.4623-11.593-0.088526-4.3229-0.13771-8.636-0.12787-12.959v-58.212c-0.009836-4.3131 0.039345-8.636 0.12787-12.959 0.088527-3.8611 0.23607-7.7321 0.4623-11.593 0.19672-3.4485 0.48198-6.8872 0.85576-10.326 0.33443-3.0555 0.7869-6.1012 1.3476-9.1272 0.50165-2.7116 1.141-5.3938 1.9181-8.0367 0.70821-2.3874 1.5738-4.7257 2.5968-7.0051 0.95412-2.1025 2.0755-4.1264 3.364-6.0422 1.2394-1.8372 2.6558-3.5467 4.2198-5.1187 1.5738-1.5621 3.2951-2.9769 5.1345-4.2148 1.9181-1.287 3.9443-2.4071 6.0591-3.3502 2.2722-1.0218 4.623-1.8864 7.0231-2.5839 2.646-0.77616 5.3313-1.4148 8.0461-1.9158 3.0296-0.56001 6.0886-1.012 9.1477-1.346 3.4427-0.37334 6.8952-0.65826 10.348-0.85476 3.8755-0.22597 7.751-0.37334 11.626-0.45194 4.3279-0.098248 8.6559-0.14737 12.984-0.13755h74.126zm0.009846 4.0085c4.2984-0.009825 8.5969 0.039299 12.895 0.12772 3.8263 0.088423 7.6526 0.23579 11.479 0.45194 3.3837 0.1965 6.7674 0.47159 10.131 0.84493 2.9705 0.31439 5.9313 0.74668 8.8625 1.2969 2.5771 0.47159 5.1345 1.0807 7.6526 1.8176 2.223 0.64844 4.3968 1.4541 6.5018 2.3972 1.9082 0.85476 3.7378 1.8667 5.469 3.026 1.623 1.0906 3.1378 2.3383 4.5247 3.7236s2.6361 2.8983 3.7378 4.5194c1.1607 1.7292 2.1738 3.5467 3.0296 5.4429 0.94427 2.1123 1.7509 4.2836 2.4 6.4942 0.74756 2.5151 1.3476 5.0598 1.8295 7.6338 0.541 2.9278 0.9738 5.8752 1.2984 8.8423 0.37378 3.3601 0.6492 6.73 0.84592 10.11 0.2164 3.8218 0.37378 7.6338 0.45246 11.456 0.088538 4.2934 0.13771 8.577 0.13771 12.87v58.212c0 4.2934-0.049169 8.577-0.13771 12.87-0.078677 3.8218-0.23606 7.6437-0.45246 11.456-0.19672 3.3797-0.47214 6.7496-0.84592 10.12-0.3246 2.9573-0.7574 5.9047-1.2984 8.8325-0.48197 2.5741-1.082 5.1187-1.8295 7.6339-0.64918 2.2204-1.4558 4.3819-2.4 6.4942-0.85576 1.8962-1.8689 3.7236-3.0296 5.4429-1.1017 1.6309-2.3509 3.1439-3.7378 4.5292-1.3869 1.3755-2.9017 2.6232-4.5247 3.7138-1.7312 1.1593-3.5607 2.1713-5.469 3.026-2.105 0.953-4.2788 1.7488-6.5018 2.3972-2.5181 0.73686-5.0755 1.346-7.6526 1.8176-2.9312 0.55018-5.8919 0.98248-8.8625 1.3067-3.364 0.36351-6.7477 0.64844-10.131 0.8351-3.8263 0.21615-7.6526 0.37335-11.479 0.45195-4.2985 0.098254-8.5969 0.13755-12.895 0.13755h-0.009846-74.126-0.009838c-4.2984 0-8.5969-0.039292-12.895-0.13755-3.8263-0.0786-7.6526-0.2358-11.479-0.45195-3.3837-0.18666-6.7673-0.47158-10.131-0.8351-2.9706-0.32422-5.9313-0.75651-8.8625-1.3067-2.5771-0.47158-5.1345-1.0807-7.6526-1.8176-2.223-0.64842-4.3968-1.4442-6.5018-2.3972-1.9082-0.85475-3.7378-1.8667-5.469-3.026-1.623-1.0906-3.1378-2.3383-4.5247-3.7138-1.3869-1.3853-2.6361-2.8983-3.7378-4.5292-1.1607-1.7193-2.1738-3.5467-3.0296-5.4429-0.94428-2.1123-1.7509-4.2738-2.4-6.4942-0.74756-2.5151-1.3476-5.0598-1.8295-7.6339-0.541-2.9278-0.97379-5.8752-1.2984-8.8325-0.37378-3.3699-0.64919-6.7398-0.84592-10.12-0.2164-3.812-0.37378-7.6339-0.45247-11.456-0.088526-4.2934-0.13771-8.577-0.13771-12.87v-58.212c0-4.2934 0.049181-8.577 0.13771-12.87 0.07869-3.8218 0.23607-7.6338 0.45247-11.456 0.19672-3.3797 0.47214-6.7496 0.84592-10.11 0.3246-2.9671 0.75739-5.9145 1.2984-8.8423 0.48198-2.5741 1.082-5.1187 1.8295-7.6338 0.64919-2.2106 1.4558-4.3818 2.4-6.4942 0.85575-1.8962 1.8689-3.7138 3.0296-5.4429 1.1017-1.6211 2.3509-3.1341 3.7378-4.5194s2.9017-2.633 4.5247-3.7236c1.7312-1.1593 3.5607-2.1713 5.469-3.026 2.105-0.94318 4.2788-1.7488 6.5018-2.3972 2.5181-0.73686 5.0755-1.346 7.6526-1.8176 2.9312-0.55019 5.8919-0.98248 8.8625-1.2969 3.364-0.37334 6.7477-0.64843 10.131-0.84493 3.8263-0.21614 7.6526-0.36352 11.479-0.45194 4.2984-0.088423 8.5969-0.13755 12.895-0.12772h0.009838 74.126 0.009846z" fill="url(#_lgradient_14)" fill-rule="evenodd"/>
  </g>
  <defs>
    <filter id="UNedwmZf5TqAz1N9NgF8Xu7Qg3I47KTj" x="-.071073" y="-.071069" width="1.1421" height="1.1421" color-interpolation-filters="sRGB">
      <feGaussianBlur stdDeviation="4.294"/>
    </filter>
  </defs>
  <g filter="url(#UNedwmZf5TqAz1N9NgF8Xu7Qg3I47KTj)" opacity=".4">
    <path d="m128 57.445c-39.583 0-72.5 31.225-72.5 69.007 0 37.782 32.917 67.937 72.5 67.937h0.016111c5.5495-0.012084 10.997-1.0745 16.395-2.2656 11.13 7.3221 24.718 12.327 40.152 9.5499 7.0734-1.2855 9.9027-8.2868 4.9718-13.515-5.2798-5.5802-8.6501-9.0536-8.8112-16.489 12.059-12.381 19.76-28.162 19.776-45.216 0-37.789-32.915-69.01-72.5-69.01l8.1e-5 0.001209zm0 16.111c31.103 0 56.379 24.462 56.389 52.881-0.012083 12.217-5.52 24.049-15.198 33.985-3.0203 3.0944-4.6701 7.2729-4.5785 11.596 0.10223 4.7303 1.9312 9.1028 3.7603 13.185-5.1999-1.2028-10.22-3.3061-15.12-6.5294-3.6323-2.3922-8.0774-3.2144-12.325-2.2797-5.1233 1.1278-9.4089 1.8769-12.929 1.885-31.403 0-56.389-23.401-56.389-51.826-8e-6 -28.425 25.28-52.896 56.389-52.896l0.002094 4.03e-4z"/>
  </g>
  <path d="m128 53.549c-39.585 0-72.5 31.227-72.5 69.007 0 37.781 32.915 67.941 72.5 67.941h0.016111c5.5503-0.016112 10.996-1.0794 16.393-2.2717 11.133 7.3225 24.722 12.333 40.149 9.5539 7.0808-1.2889 9.9083-8.2892 4.9783-13.517-5.2844-5.5825-8.6517-9.0544-8.8128-16.49 12.059-12.381 19.76-28.162 19.776-45.216 0-37.781-32.915-69.007-72.5-69.007zm0 16.111c31.103 0 56.381 24.46 56.389 52.88-0.016111 12.22-5.5181 24.046-15.201 33.986-3.0182 3.0939-4.6669 7.2707-4.5756 11.592 0.10472 4.7286 1.9333 9.1028 3.7619 13.187-5.2039-1.2003-10.223-3.3028-15.12-6.5331-3.6323-2.3922-8.0774-3.2144-12.325-2.2797-5.1233 1.1358-9.4089 1.8769-12.929 1.8931-31.401 0-56.389-23.401-56.389-51.829 0-28.428 25.278-52.896 56.389-52.896z" fill="#ebdbb2"/>
  <defs>
    <filter id="PDklF9Whf2rZdLitOGr9uZ56Itg271Yx" x="-.15989" y="-.42686" width="1.3198" height="1.8537" color-interpolation-filters="sRGB">
      <feGaussianBlur stdDeviation="4.294"/>
    </filter>
  </defs>
  <g filter="url(#PDklF9Whf2rZdLitOGr9uZ56Itg271Yx)" opacity=".4">
    <path d="m147.97 143.23c1.8125-1.1278 4.0278-1.45 6.082-0.96668 2.0945 0.48334 3.8667 1.8125 4.9945 3.6251 1.1278 1.8125 1.45 4.0278 0.96668 6.082-0.52362 2.0945-1.8125 3.8667-3.6653 4.9945-2.8195 1.732-5.7598 3.2625-8.821 4.5515-2.8598 1.2486-5.8001 2.2959-8.821 3.1417-3.4639 0.96668-7.089 1.4903-10.714 1.5306-3.6251-0.040278-7.2098-0.5639-10.714-1.5306-2.9806-0.84584-5.9209-1.8931-8.7807-3.1417-3.0612-1.2889-6.0015-2.8195-8.8612-4.5515-1.8125-1.1278-3.1417-2.9-3.6251-4.9945-0.52362-2.0542-0.16111-4.2695 0.96668-6.082 1.0875-1.8125 2.9-3.1417 4.9542-3.6251 2.0945-0.48334 4.2695-0.16111 6.1223 0.96668 2.175 1.3292 4.4709 2.4973 6.8473 3.5042 2.175 0.96668 4.4306 1.7722 6.7668 2.4167 2.0542 0.5639 4.1889 0.88612 6.3237 0.9264 2.175-0.040278 4.3098-0.3625 6.364-0.9264 2.2959-0.64445 4.5917-1.45 6.7668-2.4167 2.3764-1.007 4.6723-2.175 6.8473-3.5042z"/>
  </g>
  <path d="m147.97 135.17c1.8125-1.1278 4.0278-1.45 6.082-0.96668 2.0945 0.48334 3.8667 1.8125 4.9945 3.6251s1.45 4.0278 0.96668 6.082c-0.52362 2.0945-1.8125 3.8667-3.6653 4.9945-2.8195 1.732-5.7598 3.2625-8.821 4.5515-2.8598 1.2486-5.8001 2.2959-8.821 3.1417-3.4639 0.96668-7.089 1.4903-10.714 1.5306-3.6251-0.040278-7.2098-0.5639-10.714-1.5306-2.9806-0.84584-5.9209-1.8931-8.7807-3.1417-3.0612-1.2889-6.0015-2.8195-8.8612-4.5515-1.8125-1.1278-3.1417-2.9-3.6251-4.9945-0.52362-2.0542-0.16111-4.2695 0.96668-6.082 1.0875-1.8125 2.9-3.1417 4.9542-3.6251 2.0945-0.48334 4.2695-0.16111 6.1223 0.96668 2.175 1.3292 4.4709 2.4973 6.8473 3.5042 2.175 0.96668 4.4306 1.7722 6.7668 2.4167 2.0542 0.5639 4.1889 0.88612 6.3237 0.9264 2.175-0.040279 4.3098-0.3625 6.364-0.9264 2.2959-0.64445 4.5917-1.45 6.7668-2.4167 2.3764-1.007 4.6723-2.175 6.8473-3.5042z" fill="#ebdbb2"/>
</svg>
