<svg width="256" height="256" style="isolation:isolate" version="1.1" viewBox="0 0 256 256" xmlns="http://www.w3.org/2000/svg">
  <defs>
    <filter id="ZnjamDxvxT6vnOYQfL4cL7F2hMh70EVk" x="-.042124" y="-.045133" width="1.0842" height="1.1078" color-interpolation-filters="sRGB">
      <feGaussianBlur in="SourceGraphic" stdDeviation="4.294"/>
      <feOffset dx="0" dy="4" result="pf_100_offsetBlur"/>
      <feFlood flood-opacity=".4"/>
      <feComposite in2="pf_100_offsetBlur" operator="in" result="pf_100_dropShadow"/>
      <feBlend in="SourceGraphic" in2="pf_100_dropShadow"/>
    </filter>
  </defs>
  <g filter="url(#ZnjamDxvxT6vnOYQfL4cL7F2hMh70EVk)">
    <linearGradient id="_lgradient_15" x2="0" y2="1" gradientTransform="matrix(244.65 0 0 228.34 5.68 11.952)" gradientUnits="userSpaceOnUse">
      <stop stop-color="#504945" offset="0"/>
      <stop stop-color="#3c3836" offset="1"/>
    </linearGradient>
    <path d="m165.69 11.952c74.056 0 84.639 10.557 84.639 84.544v59.251c0 73.986-10.584 84.544-84.639 84.544h-75.37c-74.056 0-84.639-10.557-84.639-84.544v-59.251c0-73.987 10.584-84.544 84.639-84.544h75.37z" fill="url(#_lgradient_15)"/>
  </g>
  <g opacity=".4">
    <linearGradient id="_lgradient_16" x1=".517" x2=".517" y2="1" gradientTransform="matrix(244.65,0,0,228.34,5.68,11.95)" gradientUnits="userSpaceOnUse">
      <stop stop-color="#ebdbb2" offset="0"/>
      <stop stop-color="#ebdbb2" stop-opacity=".098" offset=".125"/>
      <stop stop-color="#282828" stop-opacity=".098" offset=".925"/>
      <stop stop-color="#282828" stop-opacity=".498" offset="1"/>
    </linearGradient>
    <path d="m165.07 11.951c4.328-0.009825 8.6559 0.039299 12.984 0.13755 3.8755 0.078598 7.751 0.22597 11.626 0.45194 3.4525 0.1965 6.9051 0.48141 10.348 0.85476 3.0591 0.33404 6.1182 0.78598 9.1477 1.346 2.7148 0.50106 5.4001 1.1397 8.0461 1.9158 2.4 0.69756 4.7509 1.5621 7.0231 2.5839 2.1148 0.94318 4.1411 2.0632 6.0591 3.3502 1.8394 1.2379 3.5607 2.6527 5.1345 4.2148 1.564 1.572 2.9804 3.2815 4.2198 5.1187 1.2886 1.9158 2.4099 3.9397 3.364 6.0422 1.023 2.2793 1.8886 4.6176 2.5968 7.0051 0.77706 2.6429 1.4164 5.325 1.9181 8.0367 0.56066 3.026 1.0131 6.0717 1.3476 9.1272 0.37378 3.4387 0.65903 6.8773 0.85575 10.326 0.22624 3.8611 0.37378 7.7321 0.46231 11.593 0.088537 4.3229 0.13771 8.6458 0.12788 12.959v58.212c0.009831 4.3229-0.039339 8.636-0.12788 12.959-0.088523 3.871-0.23606 7.7321-0.46231 11.593-0.19672 3.4485-0.48197 6.897-0.85575 10.326-0.33443 3.0555-0.7869 6.111-1.3476 9.137-0.50166 2.7018-1.141 5.384-1.9181 8.0269-0.70821 2.3874-1.5738 4.7355-2.5968 7.0051-0.9541 2.1123-2.0754 4.1264-3.364 6.0422-1.2394 1.8372-2.6558 3.5566-4.2198 5.1187-1.5738 1.5621-3.2952 2.9769-5.1345 4.2148-1.9181 1.287-3.9443 2.4071-6.0591 3.3502-2.2722 1.0218-4.623 1.8864-7.0231 2.5937-2.646 0.77616-5.3313 1.4148-8.0461 1.906-3.0296 0.56984-6.0886 1.012-9.1477 1.346-3.4427 0.37333-6.8952 0.65826-10.348 0.85475-3.8755 0.22597-7.751 0.37335-11.626 0.46177-4.328 0.088419-8.6559 0.13755-12.984 0.12773h-74.126c-4.328 0.009819-8.6559-0.039308-12.984-0.12773-3.8755-0.08842-7.751-0.2358-11.626-0.46177-3.4525-0.19649-6.9051-0.48142-10.348-0.85475-3.0591-0.33405-6.1182-0.77616-9.1477-1.346-2.7148-0.49124-5.4001-1.1298-8.0461-1.906-2.4-0.70737-4.7509-1.572-7.0231-2.5937-2.1148-0.94317-4.1411-2.0632-6.0591-3.3502-1.8394-1.2379-3.5607-2.6527-5.1345-4.2148-1.564-1.5621-2.9804-3.2815-4.2198-5.1187-1.2886-1.9158-2.4099-3.9299-3.364-6.0422-1.023-2.2695-1.8886-4.6176-2.5968-7.0051-0.77706-2.6429-1.4164-5.325-1.9181-8.0269-0.56067-3.026-1.0131-6.0815-1.3476-9.137-0.37378-3.4289-0.65903-6.8773-0.85576-10.326-0.22623-3.8611-0.37378-7.7223-0.4623-11.593-0.088526-4.3229-0.13771-8.636-0.12787-12.959v-58.212c-0.009836-4.3131 0.039345-8.636 0.12787-12.959 0.088527-3.8611 0.23607-7.7321 0.4623-11.593 0.19672-3.4485 0.48198-6.8872 0.85576-10.326 0.33443-3.0555 0.7869-6.1012 1.3476-9.1272 0.50165-2.7116 1.141-5.3938 1.9181-8.0367 0.70821-2.3874 1.5738-4.7257 2.5968-7.0051 0.95412-2.1025 2.0755-4.1264 3.364-6.0422 1.2394-1.8372 2.6558-3.5467 4.2198-5.1187 1.5738-1.5621 3.2951-2.9769 5.1345-4.2148 1.9181-1.287 3.9443-2.4071 6.0591-3.3502 2.2722-1.0218 4.623-1.8864 7.0231-2.5839 2.646-0.77616 5.3313-1.4148 8.0461-1.9158 3.0296-0.56001 6.0886-1.012 9.1477-1.346 3.4427-0.37334 6.8952-0.65826 10.348-0.85476 3.8755-0.22597 7.751-0.37334 11.626-0.45194 4.3279-0.098248 8.6559-0.14737 12.984-0.13755h74.126zm0.009846 4.0085c4.2984-0.009825 8.5969 0.039299 12.895 0.12772 3.8263 0.088423 7.6526 0.23579 11.479 0.45194 3.3837 0.1965 6.7674 0.47159 10.131 0.84493 2.9705 0.31439 5.9313 0.74668 8.8625 1.2969 2.5771 0.47159 5.1345 1.0807 7.6526 1.8176 2.223 0.64844 4.3968 1.4541 6.5018 2.3972 1.9082 0.85476 3.7378 1.8667 5.469 3.026 1.623 1.0906 3.1378 2.3383 4.5247 3.7236s2.6361 2.8983 3.7378 4.5194c1.1607 1.7292 2.1738 3.5467 3.0296 5.4429 0.94427 2.1123 1.7509 4.2836 2.4 6.4942 0.74756 2.5151 1.3476 5.0598 1.8295 7.6338 0.541 2.9278 0.9738 5.8752 1.2984 8.8423 0.37378 3.3601 0.6492 6.73 0.84592 10.11 0.2164 3.8218 0.37378 7.6338 0.45246 11.456 0.088538 4.2934 0.13771 8.577 0.13771 12.87v58.212c0 4.2934-0.049169 8.577-0.13771 12.87-0.078677 3.8218-0.23606 7.6437-0.45246 11.456-0.19672 3.3797-0.47214 6.7496-0.84592 10.12-0.3246 2.9573-0.7574 5.9047-1.2984 8.8325-0.48197 2.5741-1.082 5.1187-1.8295 7.6339-0.64918 2.2204-1.4558 4.3819-2.4 6.4942-0.85576 1.8962-1.8689 3.7236-3.0296 5.4429-1.1017 1.6309-2.3509 3.1439-3.7378 4.5292-1.3869 1.3755-2.9017 2.6232-4.5247 3.7138-1.7312 1.1593-3.5607 2.1713-5.469 3.026-2.105 0.953-4.2788 1.7488-6.5018 2.3972-2.5181 0.73686-5.0755 1.346-7.6526 1.8176-2.9312 0.55018-5.8919 0.98248-8.8625 1.3067-3.364 0.36351-6.7477 0.64844-10.131 0.8351-3.8263 0.21615-7.6526 0.37335-11.479 0.45195-4.2985 0.098254-8.5969 0.13755-12.895 0.13755h-0.009846-74.126-0.009838c-4.2984 0-8.5969-0.039292-12.895-0.13755-3.8263-0.0786-7.6526-0.2358-11.479-0.45195-3.3837-0.18666-6.7673-0.47158-10.131-0.8351-2.9706-0.32422-5.9313-0.75651-8.8625-1.3067-2.5771-0.47158-5.1345-1.0807-7.6526-1.8176-2.223-0.64842-4.3968-1.4442-6.5018-2.3972-1.9082-0.85475-3.7378-1.8667-5.469-3.026-1.623-1.0906-3.1378-2.3383-4.5247-3.7138-1.3869-1.3853-2.6361-2.8983-3.7378-4.5292-1.1607-1.7193-2.1738-3.5467-3.0296-5.4429-0.94428-2.1123-1.7509-4.2738-2.4-6.4942-0.74756-2.5151-1.3476-5.0598-1.8295-7.6339-0.541-2.9278-0.97379-5.8752-1.2984-8.8325-0.37378-3.3699-0.64919-6.7398-0.84592-10.12-0.2164-3.812-0.37378-7.6339-0.45247-11.456-0.088526-4.2934-0.13771-8.577-0.13771-12.87v-58.212c0-4.2934 0.049181-8.577 0.13771-12.87 0.07869-3.8218 0.23607-7.6338 0.45247-11.456 0.19672-3.3797 0.47214-6.7496 0.84592-10.11 0.3246-2.9671 0.75739-5.9145 1.2984-8.8423 0.48198-2.5741 1.082-5.1187 1.8295-7.6338 0.64919-2.2106 1.4558-4.3818 2.4-6.4942 0.85575-1.8962 1.8689-3.7138 3.0296-5.4429 1.1017-1.6211 2.3509-3.1341 3.7378-4.5194s2.9017-2.633 4.5247-3.7236c1.7312-1.1593 3.5607-2.1713 5.469-3.026 2.105-0.94318 4.2788-1.7488 6.5018-2.3972 2.5181-0.73686 5.0755-1.346 7.6526-1.8176 2.9312-0.55019 5.8919-0.98248 8.8625-1.2969 3.364-0.37334 6.7477-0.64843 10.131-0.84493 3.8263-0.21614 7.6526-0.36352 11.479-0.45194 4.2984-0.088423 8.5969-0.13755 12.895-0.12772h0.009838 74.126 0.009846z" fill="url(#_lgradient_16)" fill-rule="evenodd"/>
  </g>
  <defs>
    <filter id="TyxwLYbqOtLiWybvu88q7l0n96igEgbc" x="-.12861" y="-.21231" width="1.2572" height="1.4246" color-interpolation-filters="sRGB">
      <feGaussianBlur stdDeviation="4.294"/>
    </filter>
  </defs>
  <g filter="url(#TyxwLYbqOtLiWybvu88q7l0n96igEgbc)" opacity=".4">
    <path d="m117.15 118.1c-8.0911-2.0103-13.525-4.6737-14.939-13.887-0.35936-2.3415-0.90345-4.2572-1.2091-4.2572-0.30563 0-2.524 0.99276-4.9297 2.2061-2.4793 1.2505-5.6954 1.7879-8.0601 1.6544-4.3543-0.24576-8.2832-3.491-10.936-8.0233-1.0702-1.8287-1.9475-3.9038-1.9495-5.4972-0.002904-2.2989-0.034429-3.6153-2.5538-3.701-3.9929 0.59395-6.5131-0.081408-8.1672-1.8309-1.4135-1.4727-1.9276-6.8261-1.9276-7.8262 0-1.0002-3.0447-1.4135-4.8001-3.3005-2.1835-2.3471-3.2899-3.3296-0.57288-3.3372 11.254 0.81691 21.74 2.2318 33.085 2.2914 14.903-0.12187 25.221-1.0135 39.898-2.5398 1.3939 0.4841 4.92 5.4142 5.4868 16.051 0.45986 8.6298-2.01 14.625-4.3084 25.944-1.6012 6.848-8.2787 7.1758-14.117 6.0535v-1.2e-5z"/>
  </g>
  <defs>
    <filter id="JLTd60PBOM7qxWPfiQ4OwKd0UG10d2i1" x="-.12918" y="-.087064" width="1.2584" height="1.1741" color-interpolation-filters="sRGB">
      <feGaussianBlur stdDeviation="4.294"/>
    </filter>
  </defs>
  <g filter="url(#JLTd60PBOM7qxWPfiQ4OwKd0UG10d2i1)" opacity=".4">
    <path d="m129.4 70.024s1.4416 3.9785 1.9431 13.347c0.46311 8.6518-0.57126 19.83-2.8859 31.178 0 0-0.90911 3.5274-4.4209 24.577-1.4113 8.4414-2.8055 21.029-3.098 26.766-0.45974 9.0176-0.26764 10.926 1.4142 14.082 2.489 4.6707 8.7318 8.3051 14.079 8.3274l4.1233 0.016669-0.47877-7.7254c-0.84222-13.59 5.185-29.157 14.606-35.742 8.4673-5.9185 10.295-1.8556 7.1536 15.908-2.8071 15.874-2.4303 20.707 1.9298 24.748 3.7169 3.4449 9.1145 3.7948 17.122 1.1124 8.2678-2.7696 21.051-14.44 19.48-18.688-0.82839-2.2391-1.8111-1.4592-6.7529 2.5197-5.7993 4.6692-9.7479 4.5311-12.013 1.9351-1.6458-1.8862-1.5946-3.0448 1.0032-13.842 1.8822-7.8229 3.5824-13.468 3.6147-19.687 0.043603-9.8557-1.2536-13.916-10.616-15.335-7.1557-1.008-17.767 1.0224-26.288 7.1036-2.6141 1.8655-4.9741 3.162-5.2444 2.8817-0.27025-0.2803 1.1193-9.7094 3.0877-20.068 1.9684-10.358 3.5797-20.104 3.5797-21.656 0-2.8679-3.9704-7.4262-15.634-17.952-2.3384-2.11-3.6073-3.3246-5.704-3.8075v-1.6e-5z"/>
  </g>
  <linearGradient id="_lgradient_17" x2="0" y2="1" gradientTransform="matrix(80.129 0 0 48.541 55.5 67.631)" gradientUnits="userSpaceOnUse">
    <stop stop-color="#fabd2f" offset="0"/>
    <stop stop-color="#fe8019" offset=".5"/>
    <stop stop-color="#fe8019" offset="1"/>
  </linearGradient>
  <path d="m117.15 115.68c-8.0911-2.0103-13.525-4.6737-14.939-13.887-0.35936-2.3415-0.90345-4.2572-1.2091-4.2572-0.30563 0-2.524 0.99276-4.9297 2.2061-2.4793 1.2505-5.6954 1.7879-8.0601 1.6544-4.3543-0.24576-8.2832-3.491-10.936-8.0233-1.0702-1.8287-1.9475-3.9038-1.9495-5.4972-0.002904-2.2989-0.034429-3.6153-2.5538-3.701-3.9929 0.59395-6.5131-0.081408-8.1672-1.8309-1.4135-1.4727-1.9276-6.8261-1.9276-7.8262 0-1.0002-3.0447-1.4135-4.8001-3.3005-2.1835-2.3471-3.2899-3.3296-0.57288-3.3372 11.254 0.81691 21.74 2.2318 33.085 2.2914 14.903-0.12188 25.221-1.0135 39.898-2.5398 1.3939 0.4841 4.92 5.4142 5.4868 16.051 0.45986 8.6298-2.01 14.625-4.3084 25.944-1.6012 6.848-8.2787 7.1758-14.117 6.0535v-1.2e-5z" fill="url(#_lgradient_17)"/>
  <g opacity=".2">
    <path d="m130.09 67.632c-14.677 1.5263-24.998 2.4165-39.901 2.5384-11.345-0.059556-21.83-1.4714-33.083-2.2883-2.3094 0.006453-1.793 0.77531-0.26422 2.4298 0.09471-0.003301 0.15798-0.013858 0.26422-0.014155 11.254 0.81691 21.738 2.2287 33.083 2.2883 14.903-0.12187 25.224-1.0121 39.901-2.5384 1.3939 0.4841 4.9157 5.4143 5.4825 16.051 0.020635 0.38723 0.005039 0.74557 0.014156 1.1229 0.044238-1.144 0.051266-2.3109-0.014156-3.5386-0.5668-10.637-4.0885-15.567-5.4825-16.051z" fill="#ebdbb2"/>
  </g>
  <path d="m129.4 67.608s1.4416 3.9785 1.9431 13.347c0.46311 8.6518-0.57126 19.83-2.8859 31.178 0 0-0.90911 3.5274-4.4209 24.577-1.4113 8.4414-2.8055 21.029-3.098 26.766-0.45974 9.0176-0.26764 10.926 1.4142 14.082 2.489 4.6707 8.7318 8.3051 14.079 8.3274l4.1233 0.016669-0.47877-7.7254c-0.84222-13.59 5.185-29.157 14.606-35.742 8.4673-5.9185 10.295-1.8556 7.1536 15.908-2.8071 15.874-2.4303 20.707 1.9298 24.748 3.7169 3.4449 9.1145 3.7948 17.122 1.1124 8.2678-2.7696 21.051-14.44 19.48-18.688-0.82839-2.2391-1.8111-1.4592-6.7529 2.5197-5.7993 4.6692-9.7479 4.5311-12.013 1.9351-1.6458-1.8862-1.5946-3.0448 1.0032-13.842 1.8822-7.8229 3.5824-13.468 3.6147-19.687 0.043603-9.8557-1.2536-13.916-10.616-15.335-7.1557-1.008-17.767 1.0224-26.288 7.1036-2.6141 1.8655-4.9741 3.162-5.2444 2.8817-0.27025-0.2803 1.1193-9.7094 3.0877-20.068 1.9684-10.358 3.5797-20.104 3.5797-21.656 0-2.8679-3.9704-7.4262-15.634-17.952-2.3384-2.11-3.6073-3.3246-5.704-3.8075v-1.6e-5z" fill="#bdae93"/>
  <g opacity=".2">
    <path d="m129.4 67.608s0.30273 0.93675 0.66526 2.6469c1.7096 0.57815 2.9693 1.7087 5.039 3.5763 10.46 9.439 14.705 14.064 15.475 16.99 0.060368-0.52209 0.16042-1.2347 0.16042-1.4532 0-2.8679-3.9718-7.4266-15.636-17.952-2.3384-2.11-3.6075-3.3246-5.7042-3.8075zm2.0288 18.566c-0.079786 7.7158-1.0979 16.769-2.9724 25.959 0 0-0.9091 3.5268-4.4209 24.577-1.4113 8.4414-2.8026 21.029-3.0951 26.766-0.15669 3.0734-0.19777 5.1453-0.16985 6.8979 0.03286-1.3078 0.077244-2.6657 0.16985-4.4822 0.29249-5.737 1.6838-18.325 3.0951-26.766 3.5118-21.05 4.4209-24.577 4.4209-24.577 2.0732-10.165 3.1096-20.176 2.9724-28.375zm41.34 34.697c-6.9413-0.2035-15.997 2.0157-23.454 7.3367-2.4053 1.7165-4.5175 2.8912-5.0626 2.8592-0.16893 1.3845-0.25658 2.3591-0.17929 2.4393 0.27023 0.28029 2.6277-1.0173 5.2418-2.8828 8.5215-6.0811 19.134-8.1088 26.289-7.1008 8.799 1.3336 10.454 5.0648 10.587 13.683 0.006926-0.25522 0.026976-0.50735 0.028309-0.76434 0.043603-9.8557-1.2534-13.915-10.616-15.334-0.89447-0.126-1.844-0.20684-2.8356-0.23591zm-9.5306 26.44c-0.12258 2.8185-0.594 6.4659-1.4013 11.031-1.2774 7.2236-1.8576 12.09-1.741 15.707 0.1479-3.3312 0.73032-7.5757 1.741-13.291 1.0643-6.0186 1.5428-10.429 1.4013-13.447zm35.933 16.966c-0.92447 0.031529-2.4693 1.2688-5.558 3.7556-5.7993 4.6692-9.7472 4.5305-12.012 1.9344-0.51582-0.59118-0.83925-1.1387-0.99553-1.9061-0.28289 2.3898 0.078949 3.2713 0.99553 4.3218 2.2651 2.596 6.2131 2.7348 12.012-1.9344 4.6907-3.7767 5.809-4.6362 6.6195-2.8026 0.27506-0.81868 0.34744-1.5506 0.13211-2.1326-0.31065-0.83966-0.639-1.2551-1.1937-1.2361zm-59.137 12.531c-0.035627 1.2711-0.034774 2.5377 0.042463 3.7839l0.32555 5.3079h0.15098l-0.47653-7.7236c-0.02801-0.45196-0.029522-0.91233-0.042463-1.3683z" fill="#ebdbb2"/>
  </g>
</svg>
