<svg width="256" height="256" style="isolation:isolate" version="1.1" viewBox="0 0 256 256" xmlns="http://www.w3.org/2000/svg">
  <g filter="url(#kKu79pcmcGGoDV7qJ2JUblTRdsjMzXPj)">
    <path d="m165.63 11.95c74.056 0 84.64 10.526 84.64 84.299v59.077c0 73.773-10.584 84.299-84.64 84.299h-75.368c-74.056 0-84.64-10.526-84.64-84.299v-59.077c0-73.773 10.584-84.299 84.64-84.299h75.368z" fill="#8f3f71"/>
    <path d="m127.94 12.285v114.84h122.32v-30.541c0-73.771-10.582-84.297-84.638-84.297h-37.686z" fill="#83a598"/>
    <path d="m5.62 126.84h122.32v113.84h-37.685c-74.056 0-84.639-10.525-84.639-84.297v-29.539z" fill="#83a598"/>
    <path d="m250.27 126.84h-122.32v113.84h37.686c74.056 0 84.638-10.525 84.638-84.297v-29.539z" fill="#fabd2f"/>
  </g>
  <defs>
    <filter id="kKu79pcmcGGoDV7qJ2JUblTRdsjMzXPj" x="-.042124" y="-.045058" width="1.0842" height="1.1076" color-interpolation-filters="sRGB">
      <feGaussianBlur in="SourceGraphic" stdDeviation="4.294"/>
      <feOffset dx="0" dy="4" result="pf_100_offsetBlur"/>
      <feFlood flood-opacity=".4"/>
      <feComposite in2="pf_100_offsetBlur" operator="in" result="pf_100_dropShadow"/>
      <feBlend in="SourceGraphic" in2="pf_100_dropShadow"/>
    </filter>
  </defs>
  <defs>
    <filter id="kjnKBDniEbbLCR9C2oJA2ynEmigNZfbS" x="-.060621" y="-.06514" width="1.1212" height="1.1303" color-interpolation-filters="sRGB">
      <feGaussianBlur in="SourceGraphic" stdDeviation="4.294"/>
      <feOffset dx="0" dy="0" result="pf_100_offsetBlur"/>
      <feFlood flood-opacity=".4"/>
      <feComposite in2="pf_100_offsetBlur" operator="in" result="pf_100_dropShadow"/>
      <feBlend in="SourceGraphic" in2="pf_100_dropShadow"/>
    </filter>
  </defs>
  <g filter="url(#kjnKBDniEbbLCR9C2oJA2ynEmigNZfbS)">
    <path d="m154.13 47.02c51.459 0 58.815 7.315 58.815 58.576v41.053c0 51.261-7.356 58.577-58.815 58.577h-52.372c-51.459 0-58.813-7.316-58.813-58.577v-41.053c0-51.261 7.354-58.576 58.813-58.576h52.372z" fill="#3c3836"/>
  </g>
  <defs>
    <filter id="5CgIMeMlJIO4iRU8dKWaDyS02VmXUSLH" x="-.1375" y="-.68906" width="1.275" height="2.6456" color-interpolation-filters="sRGB">
      <feGaussianBlur in="SourceGraphic" stdDeviation="4.294"/>
      <feOffset dx="0" dy="4" result="pf_100_offsetBlur"/>
      <feFlood flood-opacity=".4"/>
      <feComposite in2="pf_100_offsetBlur" operator="in" result="pf_100_dropShadow"/>
      <feBlend in="SourceGraphic" in2="pf_100_dropShadow"/>
    </filter>
  </defs>
  <g filter="url(#5CgIMeMlJIO4iRU8dKWaDyS02VmXUSLH)">
    <path d="m142.64 171c1.9873-0.006378 3.8953 0.77873 5.3026 2.1819 1.4073 1.4032 2.198 3.3089 2.1974 5.2961-0.002166 1.9838-0.79332 3.8852-2.199 5.285-1.4078 1.4027-3.3136 2.1912-5.301 2.193h-59.949c-1.9869-0.003983-3.892-0.79208-5.301-2.193-1.4052-1.4001-2.1963-3.3013-2.199-5.285 6.18e-4 -1.987 0.79181-3.8921 2.199-5.295 1.41-1.3982 3.3153-2.1828 5.301-2.183h59.949z" fill="#ebdbb2"/>
  </g>
  <g opacity=".4">
    <linearGradient id="_lgradient_52" x1=".517" x2=".517" y2="1" gradientTransform="matrix(244.65,0,0,228.34,5.68,11.95)" gradientUnits="userSpaceOnUse">
      <stop stop-color="#ebdbb2" offset="0"/>
      <stop stop-color="#ebdbb2" stop-opacity=".098" offset=".125"/>
      <stop stop-color="#282828" stop-opacity=".098" offset=".925"/>
      <stop stop-color="#282828" stop-opacity=".498" offset="1"/>
    </linearGradient>
    <path d="m165.07 11.951c4.328-0.009825 8.6559 0.039299 12.984 0.13755 3.8755 0.078598 7.751 0.22597 11.626 0.45194 3.4525 0.1965 6.9051 0.48141 10.348 0.85476 3.0591 0.33404 6.1182 0.78598 9.1477 1.346 2.7148 0.50106 5.4001 1.1397 8.0461 1.9158 2.4 0.69756 4.7509 1.5621 7.0231 2.5839 2.1148 0.94318 4.1411 2.0632 6.0591 3.3502 1.8394 1.2379 3.5607 2.6527 5.1345 4.2148 1.564 1.572 2.9804 3.2815 4.2198 5.1187 1.2886 1.9158 2.4099 3.9397 3.364 6.0422 1.023 2.2793 1.8886 4.6176 2.5968 7.0051 0.77706 2.6429 1.4164 5.325 1.9181 8.0367 0.56066 3.026 1.0131 6.0717 1.3476 9.1272 0.37378 3.4387 0.65903 6.8773 0.85575 10.326 0.22624 3.8611 0.37378 7.7321 0.46231 11.593 0.088537 4.3229 0.13771 8.6458 0.12788 12.959v58.212c0.009831 4.3229-0.039339 8.636-0.12788 12.959-0.088523 3.871-0.23606 7.7321-0.46231 11.593-0.19672 3.4485-0.48197 6.897-0.85575 10.326-0.33443 3.0555-0.7869 6.111-1.3476 9.137-0.50166 2.7018-1.141 5.384-1.9181 8.0269-0.70821 2.3874-1.5738 4.7355-2.5968 7.0051-0.9541 2.1123-2.0754 4.1264-3.364 6.0422-1.2394 1.8372-2.6558 3.5566-4.2198 5.1187-1.5738 1.5621-3.2952 2.9769-5.1345 4.2148-1.9181 1.287-3.9443 2.4071-6.0591 3.3502-2.2722 1.0218-4.623 1.8864-7.0231 2.5937-2.646 0.77616-5.3313 1.4148-8.0461 1.906-3.0296 0.56984-6.0886 1.012-9.1477 1.346-3.4427 0.37333-6.8952 0.65826-10.348 0.85475-3.8755 0.22597-7.751 0.37335-11.626 0.46177-4.328 0.088419-8.6559 0.13755-12.984 0.12773h-74.126c-4.328 0.009819-8.6559-0.039308-12.984-0.12773-3.8755-0.08842-7.751-0.2358-11.626-0.46177-3.4525-0.19649-6.9051-0.48142-10.348-0.85475-3.0591-0.33405-6.1182-0.77616-9.1477-1.346-2.7148-0.49124-5.4001-1.1298-8.0461-1.906-2.4-0.70737-4.7509-1.572-7.0231-2.5937-2.1148-0.94317-4.1411-2.0632-6.0591-3.3502-1.8394-1.2379-3.5607-2.6527-5.1345-4.2148-1.564-1.5621-2.9804-3.2815-4.2198-5.1187-1.2886-1.9158-2.4099-3.9299-3.364-6.0422-1.023-2.2695-1.8886-4.6176-2.5968-7.0051-0.77706-2.6429-1.4164-5.325-1.9181-8.0269-0.56067-3.026-1.0131-6.0815-1.3476-9.137-0.37378-3.4289-0.65903-6.8773-0.85576-10.326-0.22623-3.8611-0.37378-7.7223-0.4623-11.593-0.088526-4.3229-0.13771-8.636-0.12787-12.959v-58.212c-0.009836-4.3131 0.039345-8.636 0.12787-12.959 0.088527-3.8611 0.23607-7.7321 0.4623-11.593 0.19672-3.4485 0.48198-6.8872 0.85576-10.326 0.33443-3.0555 0.7869-6.1012 1.3476-9.1272 0.50165-2.7116 1.141-5.3938 1.9181-8.0367 0.70821-2.3874 1.5738-4.7257 2.5968-7.0051 0.95412-2.1025 2.0755-4.1264 3.364-6.0422 1.2394-1.8372 2.6558-3.5467 4.2198-5.1187 1.5738-1.5621 3.2951-2.9769 5.1345-4.2148 1.9181-1.287 3.9443-2.4071 6.0591-3.3502 2.2722-1.0218 4.623-1.8864 7.0231-2.5839 2.646-0.77616 5.3313-1.4148 8.0461-1.9158 3.0296-0.56001 6.0886-1.012 9.1477-1.346 3.4427-0.37334 6.8952-0.65826 10.348-0.85476 3.8755-0.22597 7.751-0.37334 11.626-0.45194 4.3279-0.098248 8.6559-0.14737 12.984-0.13755h74.126zm0.009846 4.0085c4.2984-0.009825 8.5969 0.039299 12.895 0.12772 3.8263 0.088423 7.6526 0.23579 11.479 0.45194 3.3837 0.1965 6.7674 0.47159 10.131 0.84493 2.9705 0.31439 5.9313 0.74668 8.8625 1.2969 2.5771 0.47159 5.1345 1.0807 7.6526 1.8176 2.223 0.64844 4.3968 1.4541 6.5018 2.3972 1.9082 0.85476 3.7378 1.8667 5.469 3.026 1.623 1.0906 3.1378 2.3383 4.5247 3.7236s2.6361 2.8983 3.7378 4.5194c1.1607 1.7292 2.1738 3.5467 3.0296 5.4429 0.94427 2.1123 1.7509 4.2836 2.4 6.4942 0.74756 2.5151 1.3476 5.0598 1.8295 7.6338 0.541 2.9278 0.9738 5.8752 1.2984 8.8423 0.37378 3.3601 0.6492 6.73 0.84592 10.11 0.2164 3.8218 0.37378 7.6338 0.45246 11.456 0.088538 4.2934 0.13771 8.577 0.13771 12.87v58.212c0 4.2934-0.049169 8.577-0.13771 12.87-0.078677 3.8218-0.23606 7.6437-0.45246 11.456-0.19672 3.3797-0.47214 6.7496-0.84592 10.12-0.3246 2.9573-0.7574 5.9047-1.2984 8.8325-0.48197 2.5741-1.082 5.1187-1.8295 7.6339-0.64918 2.2204-1.4558 4.3819-2.4 6.4942-0.85576 1.8962-1.8689 3.7236-3.0296 5.4429-1.1017 1.6309-2.3509 3.1439-3.7378 4.5292-1.3869 1.3755-2.9017 2.6232-4.5247 3.7138-1.7312 1.1593-3.5607 2.1713-5.469 3.026-2.105 0.953-4.2788 1.7488-6.5018 2.3972-2.5181 0.73686-5.0755 1.346-7.6526 1.8176-2.9312 0.55018-5.8919 0.98248-8.8625 1.3067-3.364 0.36351-6.7477 0.64844-10.131 0.8351-3.8263 0.21615-7.6526 0.37335-11.479 0.45195-4.2985 0.098254-8.5969 0.13755-12.895 0.13755h-0.009846-74.126-0.009838c-4.2984 0-8.5969-0.039292-12.895-0.13755-3.8263-0.0786-7.6526-0.2358-11.479-0.45195-3.3837-0.18666-6.7673-0.47158-10.131-0.8351-2.9706-0.32422-5.9313-0.75651-8.8625-1.3067-2.5771-0.47158-5.1345-1.0807-7.6526-1.8176-2.223-0.64842-4.3968-1.4442-6.5018-2.3972-1.9082-0.85475-3.7378-1.8667-5.469-3.026-1.623-1.0906-3.1378-2.3383-4.5247-3.7138-1.3869-1.3853-2.6361-2.8983-3.7378-4.5292-1.1607-1.7193-2.1738-3.5467-3.0296-5.4429-0.94428-2.1123-1.7509-4.2738-2.4-6.4942-0.74756-2.5151-1.3476-5.0598-1.8295-7.6339-0.541-2.9278-0.97379-5.8752-1.2984-8.8325-0.37378-3.3699-0.64919-6.7398-0.84592-10.12-0.2164-3.812-0.37378-7.6339-0.45247-11.456-0.088526-4.2934-0.13771-8.577-0.13771-12.87v-58.212c0-4.2934 0.049181-8.577 0.13771-12.87 0.07869-3.8218 0.23607-7.6338 0.45247-11.456 0.19672-3.3797 0.47214-6.7496 0.84592-10.11 0.3246-2.9671 0.75739-5.9145 1.2984-8.8423 0.48198-2.5741 1.082-5.1187 1.8295-7.6338 0.64919-2.2106 1.4558-4.3818 2.4-6.4942 0.85575-1.8962 1.8689-3.7138 3.0296-5.4429 1.1017-1.6211 2.3509-3.1341 3.7378-4.5194s2.9017-2.633 4.5247-3.7236c1.7312-1.1593 3.5607-2.1713 5.469-3.026 2.105-0.94318 4.2788-1.7488 6.5018-2.3972 2.5181-0.73686 5.0755-1.346 7.6526-1.8176 2.9312-0.55019 5.8919-0.98248 8.8625-1.2969 3.364-0.37334 6.7477-0.64843 10.131-0.84493 3.8263-0.21614 7.6526-0.36352 11.479-0.45194 4.2984-0.088423 8.5969-0.13755 12.895-0.12772h0.009838 74.126 0.009846z" fill="url(#_lgradient_52)" fill-rule="evenodd"/>
  </g>
  <defs>
    <filter id="NIMWPLSud8dbKVbRU9wolWQPBbXNQp7r" x="-.21351" y="-.14515" width="1.427" height="1.3466" color-interpolation-filters="sRGB">
      <feGaussianBlur in="SourceGraphic" stdDeviation="4.294"/>
      <feOffset dx="0" dy="4" result="pf_100_offsetBlur"/>
      <feFlood flood-opacity=".4"/>
      <feComposite in2="pf_100_offsetBlur" operator="in" result="pf_100_dropShadow"/>
      <feBlend in="SourceGraphic" in2="pf_100_dropShadow"/>
    </filter>
  </defs>
  <g filter="url(#NIMWPLSud8dbKVbRU9wolWQPBbXNQp7r)">
    <path d="m78.026 70.449c-1.6993-2.7e-4 -3.0769 1.4033-3.0766 3.1346v64.731c-2.65e-4 1.7313 1.3773 3.1349 3.0766 3.1346h10.802c1.6985-8.38e-4 3.0749-1.4041 3.0746-3.1346v-25.071h14.361v25.071c-2.65e-4 1.7313 1.3773 3.1349 3.0766 3.1346h10.8c1.6993 2.71e-4 3.0769-1.4033 3.0766-3.1346v-64.731c2.65e-4 -1.7313-1.3773-3.1349-3.0766-3.1346h-10.8c-1.6993-2.7e-4 -3.0769 1.4033-3.0766 3.1346v23.036h-14.361v-23.036c2.66e-4 -1.7305-1.3761-3.1338-3.0746-3.1346h-10.802z" fill="#ebdbb2"/>
  </g>
  <defs>
    <filter id="UxF0lSbMvzDWHm6sLiHihuwmNhvVoiMY" x="-.20578" y="-.14515" width="1.4116" height="1.3466" color-interpolation-filters="sRGB">
      <feGaussianBlur in="SourceGraphic" stdDeviation="4.294"/>
      <feOffset dx="0" dy="4" result="pf_100_offsetBlur"/>
      <feFlood flood-opacity=".4"/>
      <feComposite in2="pf_100_offsetBlur" operator="in" result="pf_100_dropShadow"/>
      <feBlend in="SourceGraphic" in2="pf_100_dropShadow"/>
    </filter>
  </defs>
  <g filter="url(#UxF0lSbMvzDWHm6sLiHihuwmNhvVoiMY)">
    <path d="m134.94 70.449c-1.6985 8.38e-4 -3.0749 1.4041-3.0746 3.1346v64.731c-2.65e-4 1.7305 1.3761 3.1338 3.0746 3.1346h22.781c7.773 0 14.085-2.0298 18.221-6.5441 3.9298-4.2849 6.0035-9.6593 6.0035-15.547 0-3.9521-1.103-7.7054-3.2302-10.965-1.1459-1.8055-2.6476-3.2941-4.3628-4.5434 3.4463-3.2369 5.4146-7.7433 5.4146-12.974 0-5.6184-1.9553-10.68-5.7022-14.503-4.0064-4.1522-10.102-5.924-17.705-5.924h-21.42zm13.876 16.44h7.8156c2.6587 0 4.2071 0.58794 4.9754 1.2402 0.76823 0.65226 1.2074 1.4945 1.2074 3.4878 0 1.7352-0.41578 2.5789-1.6171 3.5279-1.0312 0.8023-3.0573 1.475-6.2891 1.475h-6.0922v-9.7309zm0 26.078h7.0002c3.6894 0 6.0546 0.76747 7.3114 1.7539 1.2568 0.98646 1.8653 2.2023 1.8653 4.73 0 1.7347-0.44691 2.9209-1.4871 4.1079l-0.00595 0.006062c-0.6489 0.74377-2.0889 1.4449-5.0522 1.4449h-9.6317l4e-5 -12.043z" fill="#ebdbb2"/>
  </g>
</svg>
