<svg width="256" height="256" style="isolation:isolate" version="1.1" viewBox="0 0 256 256" xmlns="http://www.w3.org/2000/svg">
  <defs>
    <filter id="KRfuirNv7PgfwMLx1998EEY8RPvyqxhP" x="-.042124" y="-.045133" width="1.0842" height="1.1078" color-interpolation-filters="sRGB">
      <feGaussianBlur in="SourceGraphic" stdDeviation="4.294"/>
      <feOffset dx="0" dy="4" result="pf_100_offsetBlur"/>
      <feFlood flood-opacity=".4"/>
      <feComposite in2="pf_100_offsetBlur" operator="in" result="pf_100_dropShadow"/>
      <feBlend in="SourceGraphic" in2="pf_100_dropShadow"/>
    </filter>
  </defs>
  <g filter="url(#KRfuirNv7PgfwMLx1998EEY8RPvyqxhP)">
    <linearGradient id="_lgradient_53" x2="0" y2="1" gradientTransform="matrix(244.65 0 0 228.34 5.68 11.952)" gradientUnits="userSpaceOnUse">
      <stop stop-color="#504945" offset="0"/>
      <stop stop-color="#3c3836" offset="1"/>
    </linearGradient>
    <path d="m165.69 11.952c74.056 0 84.639 10.557 84.639 84.544v59.251c0 73.986-10.584 84.544-84.639 84.544h-75.37c-74.056 0-84.639-10.557-84.639-84.544v-59.251c0-73.987 10.584-84.544 84.639-84.544h75.37z" fill="url(#_lgradient_53)"/>
  </g>
  <g opacity=".4">
    <linearGradient id="_lgradient_54" x1=".517" x2=".517" y2="1" gradientTransform="matrix(244.65,0,0,228.34,5.68,11.95)" gradientUnits="userSpaceOnUse">
      <stop stop-color="#ebdbb2" offset="0"/>
      <stop stop-color="#ebdbb2" stop-opacity=".098" offset=".125"/>
      <stop stop-color="#282828" stop-opacity=".098" offset=".925"/>
      <stop stop-color="#282828" stop-opacity=".498" offset="1"/>
    </linearGradient>
    <path d="m165.07 11.951c4.328-0.009825 8.6559 0.039299 12.984 0.13755 3.8755 0.078598 7.751 0.22597 11.626 0.45194 3.4525 0.1965 6.9051 0.48141 10.348 0.85476 3.0591 0.33404 6.1182 0.78598 9.1477 1.346 2.7148 0.50106 5.4001 1.1397 8.0461 1.9158 2.4 0.69756 4.7509 1.5621 7.0231 2.5839 2.1148 0.94318 4.1411 2.0632 6.0591 3.3502 1.8394 1.2379 3.5607 2.6527 5.1345 4.2148 1.564 1.572 2.9804 3.2815 4.2198 5.1187 1.2886 1.9158 2.4099 3.9397 3.364 6.0422 1.023 2.2793 1.8886 4.6176 2.5968 7.0051 0.77706 2.6429 1.4164 5.325 1.9181 8.0367 0.56066 3.026 1.0131 6.0717 1.3476 9.1272 0.37378 3.4387 0.65903 6.8773 0.85575 10.326 0.22624 3.8611 0.37378 7.7321 0.46231 11.593 0.088537 4.3229 0.13771 8.6458 0.12788 12.959v58.212c0.009831 4.3229-0.039339 8.636-0.12788 12.959-0.088523 3.871-0.23606 7.7321-0.46231 11.593-0.19672 3.4485-0.48197 6.897-0.85575 10.326-0.33443 3.0555-0.7869 6.111-1.3476 9.137-0.50166 2.7018-1.141 5.384-1.9181 8.0269-0.70821 2.3874-1.5738 4.7355-2.5968 7.0051-0.9541 2.1123-2.0754 4.1264-3.364 6.0422-1.2394 1.8372-2.6558 3.5566-4.2198 5.1187-1.5738 1.5621-3.2952 2.9769-5.1345 4.2148-1.9181 1.287-3.9443 2.4071-6.0591 3.3502-2.2722 1.0218-4.623 1.8864-7.0231 2.5937-2.646 0.77616-5.3313 1.4148-8.0461 1.906-3.0296 0.56984-6.0886 1.012-9.1477 1.346-3.4427 0.37333-6.8952 0.65826-10.348 0.85475-3.8755 0.22597-7.751 0.37335-11.626 0.46177-4.328 0.088419-8.6559 0.13755-12.984 0.12773h-74.126c-4.328 0.009819-8.6559-0.039308-12.984-0.12773-3.8755-0.08842-7.751-0.2358-11.626-0.46177-3.4525-0.19649-6.9051-0.48142-10.348-0.85475-3.0591-0.33405-6.1182-0.77616-9.1477-1.346-2.7148-0.49124-5.4001-1.1298-8.0461-1.906-2.4-0.70737-4.7509-1.572-7.0231-2.5937-2.1148-0.94317-4.1411-2.0632-6.0591-3.3502-1.8394-1.2379-3.5607-2.6527-5.1345-4.2148-1.564-1.5621-2.9804-3.2815-4.2198-5.1187-1.2886-1.9158-2.4099-3.9299-3.364-6.0422-1.023-2.2695-1.8886-4.6176-2.5968-7.0051-0.77706-2.6429-1.4164-5.325-1.9181-8.0269-0.56067-3.026-1.0131-6.0815-1.3476-9.137-0.37378-3.4289-0.65903-6.8773-0.85576-10.326-0.22623-3.8611-0.37378-7.7223-0.4623-11.593-0.088526-4.3229-0.13771-8.636-0.12787-12.959v-58.212c-0.009836-4.3131 0.039345-8.636 0.12787-12.959 0.088527-3.8611 0.23607-7.7321 0.4623-11.593 0.19672-3.4485 0.48198-6.8872 0.85576-10.326 0.33443-3.0555 0.7869-6.1012 1.3476-9.1272 0.50165-2.7116 1.141-5.3938 1.9181-8.0367 0.70821-2.3874 1.5738-4.7257 2.5968-7.0051 0.95412-2.1025 2.0755-4.1264 3.364-6.0422 1.2394-1.8372 2.6558-3.5467 4.2198-5.1187 1.5738-1.5621 3.2951-2.9769 5.1345-4.2148 1.9181-1.287 3.9443-2.4071 6.0591-3.3502 2.2722-1.0218 4.623-1.8864 7.0231-2.5839 2.646-0.77616 5.3313-1.4148 8.0461-1.9158 3.0296-0.56001 6.0886-1.012 9.1477-1.346 3.4427-0.37334 6.8952-0.65826 10.348-0.85476 3.8755-0.22597 7.751-0.37334 11.626-0.45194 4.3279-0.098248 8.6559-0.14737 12.984-0.13755h74.126zm0.009846 4.0085c4.2984-0.009825 8.5969 0.039299 12.895 0.12772 3.8263 0.088423 7.6526 0.23579 11.479 0.45194 3.3837 0.1965 6.7674 0.47159 10.131 0.84493 2.9705 0.31439 5.9313 0.74668 8.8625 1.2969 2.5771 0.47159 5.1345 1.0807 7.6526 1.8176 2.223 0.64844 4.3968 1.4541 6.5018 2.3972 1.9082 0.85476 3.7378 1.8667 5.469 3.026 1.623 1.0906 3.1378 2.3383 4.5247 3.7236s2.6361 2.8983 3.7378 4.5194c1.1607 1.7292 2.1738 3.5467 3.0296 5.4429 0.94427 2.1123 1.7509 4.2836 2.4 6.4942 0.74756 2.5151 1.3476 5.0598 1.8295 7.6338 0.541 2.9278 0.9738 5.8752 1.2984 8.8423 0.37378 3.3601 0.6492 6.73 0.84592 10.11 0.2164 3.8218 0.37378 7.6338 0.45246 11.456 0.088538 4.2934 0.13771 8.577 0.13771 12.87v58.212c0 4.2934-0.049169 8.577-0.13771 12.87-0.078677 3.8218-0.23606 7.6437-0.45246 11.456-0.19672 3.3797-0.47214 6.7496-0.84592 10.12-0.3246 2.9573-0.7574 5.9047-1.2984 8.8325-0.48197 2.5741-1.082 5.1187-1.8295 7.6339-0.64918 2.2204-1.4558 4.3819-2.4 6.4942-0.85576 1.8962-1.8689 3.7236-3.0296 5.4429-1.1017 1.6309-2.3509 3.1439-3.7378 4.5292-1.3869 1.3755-2.9017 2.6232-4.5247 3.7138-1.7312 1.1593-3.5607 2.1713-5.469 3.026-2.105 0.953-4.2788 1.7488-6.5018 2.3972-2.5181 0.73686-5.0755 1.346-7.6526 1.8176-2.9312 0.55018-5.8919 0.98248-8.8625 1.3067-3.364 0.36351-6.7477 0.64844-10.131 0.8351-3.8263 0.21615-7.6526 0.37335-11.479 0.45195-4.2985 0.098254-8.5969 0.13755-12.895 0.13755h-0.009846-74.126-0.009838c-4.2984 0-8.5969-0.039292-12.895-0.13755-3.8263-0.0786-7.6526-0.2358-11.479-0.45195-3.3837-0.18666-6.7673-0.47158-10.131-0.8351-2.9706-0.32422-5.9313-0.75651-8.8625-1.3067-2.5771-0.47158-5.1345-1.0807-7.6526-1.8176-2.223-0.64842-4.3968-1.4442-6.5018-2.3972-1.9082-0.85475-3.7378-1.8667-5.469-3.026-1.623-1.0906-3.1378-2.3383-4.5247-3.7138-1.3869-1.3853-2.6361-2.8983-3.7378-4.5292-1.1607-1.7193-2.1738-3.5467-3.0296-5.4429-0.94428-2.1123-1.7509-4.2738-2.4-6.4942-0.74756-2.5151-1.3476-5.0598-1.8295-7.6339-0.541-2.9278-0.97379-5.8752-1.2984-8.8325-0.37378-3.3699-0.64919-6.7398-0.84592-10.12-0.2164-3.812-0.37378-7.6339-0.45247-11.456-0.088526-4.2934-0.13771-8.577-0.13771-12.87v-58.212c0-4.2934 0.049181-8.577 0.13771-12.87 0.07869-3.8218 0.23607-7.6338 0.45247-11.456 0.19672-3.3797 0.47214-6.7496 0.84592-10.11 0.3246-2.9671 0.75739-5.9145 1.2984-8.8423 0.48198-2.5741 1.082-5.1187 1.8295-7.6338 0.64919-2.2106 1.4558-4.3818 2.4-6.4942 0.85575-1.8962 1.8689-3.7138 3.0296-5.4429 1.1017-1.6211 2.3509-3.1341 3.7378-4.5194s2.9017-2.633 4.5247-3.7236c1.7312-1.1593 3.5607-2.1713 5.469-3.026 2.105-0.94318 4.2788-1.7488 6.5018-2.3972 2.5181-0.73686 5.0755-1.346 7.6526-1.8176 2.9312-0.55019 5.8919-0.98248 8.8625-1.2969 3.364-0.37334 6.7477-0.64843 10.131-0.84493 3.8263-0.21614 7.6526-0.36352 11.479-0.45194 4.2984-0.088423 8.5969-0.13755 12.895-0.12772h0.009838 74.126 0.009846z" fill="url(#_lgradient_54)" fill-rule="evenodd"/>
  </g>
  <defs>
    <filter id="H3V7PE1au9NIiz5s35PWkILxh2yPQouK" x="-.15308" y="-.10474" width="1.3062" height="1.2095" color-interpolation-filters="sRGB">
      <feGaussianBlur stdDeviation="4.294"/>
    </filter>
  </defs>
  <g filter="url(#H3V7PE1au9NIiz5s35PWkILxh2yPQouK)" opacity=".4">
    <path d="m56.441 154.28c-0.51758-0.53473-0.94106-10.232-0.94106-21.55v-20.578l6.6308-2.9422c11.323-5.0242 16.291-13.142 14.649-25.16-0.39696-2.9057-0.31049-5.9508 0.19246-6.7669 1.1762-1.9095 33.381-20.491 35.551-20.491 0.90282 0 2.1859 0.70813 2.8512 1.5736 4.2683 5.552 8.6276 26.512 7.1536 34.395-0.66328 3.5472-1.691 4.4972-7.3642 6.8074-7.9937 3.2552-14.701 9.8863-18.318 18.109-2.168 4.9288-2.6084 7.9877-2.2577 15.681l0.43564 9.558-4.1943 2.8408c-9.0432 6.125-31.357 11.655-34.389 8.5226h-1.74e-4z"/>
  </g>
  <defs>
    <filter id="N94XWsUmAdWHF9OhdjNmmZSkFDV9UBp2" x="-.15308" y="-.10474" width="1.3062" height="1.2095" color-interpolation-filters="sRGB">
      <feGaussianBlur stdDeviation="4.294"/>
    </filter>
  </defs>
  <g filter="url(#N94XWsUmAdWHF9OhdjNmmZSkFDV9UBp2)" opacity=".4">
    <path d="m199.56 154.28c0.5176-0.53473 0.94106-10.232 0.94106-21.55v-20.578l-6.6308-2.9422c-11.323-5.0242-15.934-13.142-14.292-25.16 0.39693-2.9057 0.3105-5.9508-0.19244-6.7669-1.1762-1.9095-33.739-20.491-35.908-20.491-0.90282 0-2.1859 0.70813-2.8512 1.5736-4.2683 5.552-8.6276 26.512-7.1537 34.395 0.66327 3.5472 1.691 4.4972 7.3642 6.8074 7.9937 3.2552 14.701 9.8863 18.318 18.109 2.168 4.9288 2.6084 7.9877 2.2577 15.681l-0.43562 9.558 4.1943 2.8408c9.0432 6.125 31.357 11.655 34.389 8.5226h1.48e-4z"/>
  </g>
  <defs>
    <filter id="LgfDUuhjhxkWBmmesdxTKklqUH2Hcave" x="-.090457" y="-.199" width="1.1809" height="1.398" color-interpolation-filters="sRGB">
      <feGaussianBlur stdDeviation="4.294"/>
    </filter>
  </defs>
  <g filter="url(#LgfDUuhjhxkWBmmesdxTKklqUH2Hcave)" opacity=".4">
    <path d="m89.869 192.76c-18.78-11.18-19.573-11.869-18.547-16.132 1.0174-4.2248 16.367-19.259 23.884-23.392l5.8616-3.2234 5.3395 4.4078c6.7242 5.5509 12.904 7.87 21.168 7.9441 8.295 0.074415 13.599-1.8315 21.332-7.6654l6.2032-4.6797 5.8752 3.1973c3.2314 1.7585 10.073 7.4528 15.203 12.654 12.882 13.06 12.854 13.144-8.6849 26.037-5.9944 3.5883-11.563 6.7622-15.035 8.6-3.8304 2.4966-4.2886 0.73737-6.4645-1.89-3.2018-3.2723-9.1257-7.1768-18.005-7.1768-9.6806 0-15.52 4.7239-18.267 8.0321-1.9659 3.5565-3.155 2.2836-5.8413 1.0745-3.4207-1.6989-8.6017-4.5603-14.023-7.7874z"/>
  </g>
  <linearGradient id="_lgradient_55" x2="0" y2="1" gradientTransform="matrix(113.93 0 0 51.786 71.036 147.42)" gradientUnits="userSpaceOnUse">
    <stop stop-color="#458588" offset="-99"/>
    <stop stop-color="#076678" offset="1"/>
  </linearGradient>
  <path d="m89.869 190.17c-18.78-11.18-19.573-11.869-18.547-16.132 1.0174-4.2248 16.367-19.259 23.884-23.392l5.8616-3.2234 5.3395 4.4078c6.7242 5.5509 12.904 7.87 21.168 7.9441 8.295 0.074416 13.599-1.8315 21.332-7.6654l6.2032-4.6797 5.8752 3.1973c3.2314 1.7585 10.073 7.4528 15.203 12.654 12.882 13.06 12.854 13.144-8.6849 26.037-5.9944 3.5883-11.563 6.7622-15.035 8.6-3.8304 2.4966-4.2886 0.73736-6.4645-1.89-3.2018-3.2723-9.1257-7.1768-18.005-7.1768-9.6806 0-15.52 4.7239-18.267 8.0321-1.9659 3.5565-3.155 2.2836-5.8413 1.0745-3.4207-1.6989-8.6017-4.5603-14.023-7.7874z" fill="url(#_lgradient_55)"/>
  <linearGradient id="_lgradient_56" x1=".187" x2=".19" y1=".005" y2=".999" gradientTransform="matrix(67.321 0 0 98.393 55.5 54.205)" gradientUnits="userSpaceOnUse">
    <stop stop-color="#83a598" offset="0"/>
    <stop stop-color="#458588" offset="1"/>
  </linearGradient>
  <path d="m56.441 151.69c-0.51758-0.53474-0.94106-10.232-0.94106-21.55v-20.578l6.6308-2.9422c11.323-5.0243 16.291-13.142 14.649-25.16-0.39696-2.9057-0.31049-5.9508 0.19246-6.7669 1.1762-1.9095 33.381-20.491 35.551-20.491 0.90281 0 2.1859 0.70813 2.8512 1.5736 4.2683 5.552 8.6276 26.512 7.1536 34.395-0.66327 3.5472-1.691 4.4972-7.3642 6.8074-7.9937 3.2552-14.701 9.8864-18.318 18.109-2.168 4.9288-2.6084 7.9877-2.2577 15.681l0.43564 9.558-4.1943 2.8408c-9.0432 6.125-31.357 11.655-34.389 8.5226h-1.74e-4z" fill="url(#_lgradient_56)"/>
  <linearGradient id="_lgradient_57" x2="0" y2="1" gradientTransform="matrix(67.321 0 0 98.393 133.18 54.205)" gradientUnits="userSpaceOnUse">
    <stop stop-color="#83a598" offset="0"/>
    <stop stop-color="#458588" stop-opacity=".96078" offset="1"/>
  </linearGradient>
  <path d="m199.56 151.69c0.5176-0.53474 0.94106-10.232 0.94106-21.55v-20.578l-6.6308-2.9422c-11.323-5.0243-15.934-13.142-14.292-25.16 0.39696-2.9057 0.3105-5.9508-0.19247-6.7669-1.1762-1.9095-33.738-20.491-35.908-20.491-0.90282 0-2.1859 0.70813-2.8512 1.5736-4.2683 5.552-8.6276 26.512-7.1537 34.395 0.66327 3.5472 1.691 4.4972 7.3642 6.8074 7.9937 3.2552 14.701 9.8864 18.318 18.109 2.168 4.9288 2.6084 7.9877 2.2577 15.681l-0.43562 9.558 4.1943 2.8408c9.0432 6.125 31.357 11.655 34.389 8.5226h1.68e-4z" fill="url(#_lgradient_57)"/>
  <g filter="url(#g8e9CNolX9rVwMkbAS9akLj5LtDZLHyu)" opacity=".4">
    <circle cx="128" cy="129.3" r="36.25" vector-effect="non-scaling-stroke"/>
  </g>
  <circle cx="128" cy="126.7" r="36.25" fill="#ebdbb2" vector-effect="non-scaling-stroke"/>
  <g fill="#ebdbb2" opacity=".2">
    <path d="m112.52 54.205c-2.17 0-34.376 18.582-35.552 20.492-0.38192 0.61971-0.5171 2.5247-0.3894 4.6779 0.059212-0.95556 0.17788-1.7454 0.3894-2.0886 1.1762-1.9095 33.382-20.492 35.552-20.492 0.90281 0 2.1869 0.70729 2.8523 1.5728 3.5773 4.6533 7.1711 20.055 7.3886 29.585 0.50863-9.0323-3.4715-27.079-7.3886-32.174-0.66536-0.8655-1.9494-1.5728-2.8523-1.5728zm-35.486 32.847c-0.43378 8.9965-5.4421 15.371-14.909 19.571l-6.63 2.9433v2.5893l6.63-2.9433c10.35-4.5926 15.373-11.782 14.909-22.161zm17.493 40.766c-0.050187 1.59-0.044285 3.3506 0.055629 5.5427l0.3186 7.0447 0.11632-0.075858-0.43492-9.5581c-0.051767-1.1358-0.041352-1.9987-0.055629-2.9534z"/>
    <path d="m143.48 54.205c-0.90282 0-2.1869 0.70729-2.8523 1.5728-3.9171 5.0953-7.8972 23.142-7.3886 32.174 0.21742-9.5298 3.8113-24.931 7.3886-29.585 0.66536-0.8655 1.9494-1.5728 2.8523-1.5728 2.17 0 34.735 18.582 35.911 20.492 0.21312 0.34582 0.33094 1.1428 0.3894 2.1089 0.12973-2.1613-0.006322-4.0765-0.3894-4.6981-1.1762-1.9095-33.741-20.492-35.911-20.492zm35.825 33.074c-0.43505 10.256 4.2955 17.374 14.57 21.933l6.63 2.9433v-2.5893l-6.63-2.9433c-9.3871-4.1652-14.147-10.467-14.57-19.344zm-17.832 40.539c-0.014273 0.95468-0.003862 1.8176-0.055629 2.9534l-0.43492 9.5581 0.11632 0.075858 0.3186-7.0447c0.099919-2.1921 0.10582-3.9526 0.055629-5.5427z"/>
  </g>
</svg>
