<svg width="256" height="256" style="isolation:isolate" version="1.1" viewBox="0 0 256 256" xmlns="http://www.w3.org/2000/svg">
  <defs>
    <filter id="TsXDXxnbTLgue3np6Q6Jb5VCFHWXj7xL" x="-.042124" y="-.045133" width="1.0842" height="1.1078" color-interpolation-filters="sRGB">
      <feGaussianBlur in="SourceGraphic" stdDeviation="4.294"/>
      <feOffset dx="0" dy="4" result="pf_100_offsetBlur"/>
      <feFlood flood-opacity=".4"/>
      <feComposite in2="pf_100_offsetBlur" operator="in" result="pf_100_dropShadow"/>
      <feBlend in="SourceGraphic" in2="pf_100_dropShadow"/>
    </filter>
  </defs>
  <g filter="url(#TsXDXxnbTLgue3np6Q6Jb5VCFHWXj7xL)">
    <linearGradient id="_lgradient_67" x2="0" y2="1" gradientTransform="matrix(244.65 0 0 228.34 5.68 11.952)" gradientUnits="userSpaceOnUse">
      <stop stop-color="#504945" offset="0"/>
      <stop stop-color="#3c3836" offset="1"/>
    </linearGradient>
    <path d="m165.69 11.952c74.056 0 84.639 10.557 84.639 84.544v59.251c0 73.986-10.584 84.544-84.639 84.544h-75.37c-74.056 0-84.639-10.557-84.639-84.544v-59.251c0-73.987 10.584-84.544 84.639-84.544h75.37z" fill="url(#_lgradient_67)"/>
  </g>
  <g opacity=".4">
    <linearGradient id="_lgradient_68" x1=".517" x2=".517" y2="1" gradientTransform="matrix(244.65,0,0,228.34,5.68,11.95)" gradientUnits="userSpaceOnUse">
      <stop stop-color="#ebdbb2" offset="0"/>
      <stop stop-color="#ebdbb2" stop-opacity=".098" offset=".125"/>
      <stop stop-color="#282828" stop-opacity=".098" offset=".925"/>
      <stop stop-color="#282828" stop-opacity=".498" offset="1"/>
    </linearGradient>
    <path d="m165.07 11.951c4.328-0.009825 8.6559 0.039299 12.984 0.13755 3.8755 0.078598 7.751 0.22597 11.626 0.45194 3.4525 0.1965 6.9051 0.48141 10.348 0.85476 3.0591 0.33404 6.1182 0.78598 9.1477 1.346 2.7148 0.50106 5.4001 1.1397 8.0461 1.9158 2.4 0.69756 4.7509 1.5621 7.0231 2.5839 2.1148 0.94318 4.1411 2.0632 6.0591 3.3502 1.8394 1.2379 3.5607 2.6527 5.1345 4.2148 1.564 1.572 2.9804 3.2815 4.2198 5.1187 1.2886 1.9158 2.4099 3.9397 3.364 6.0422 1.023 2.2793 1.8886 4.6176 2.5968 7.0051 0.77706 2.6429 1.4164 5.325 1.9181 8.0367 0.56066 3.026 1.0131 6.0717 1.3476 9.1272 0.37378 3.4387 0.65903 6.8773 0.85575 10.326 0.22624 3.8611 0.37378 7.7321 0.46231 11.593 0.088537 4.3229 0.13771 8.6458 0.12788 12.959v58.212c0.009831 4.3229-0.039339 8.636-0.12788 12.959-0.088523 3.871-0.23606 7.7321-0.46231 11.593-0.19672 3.4485-0.48197 6.897-0.85575 10.326-0.33443 3.0555-0.7869 6.111-1.3476 9.137-0.50166 2.7018-1.141 5.384-1.9181 8.0269-0.70821 2.3874-1.5738 4.7355-2.5968 7.0051-0.9541 2.1123-2.0754 4.1264-3.364 6.0422-1.2394 1.8372-2.6558 3.5566-4.2198 5.1187-1.5738 1.5621-3.2952 2.9769-5.1345 4.2148-1.9181 1.287-3.9443 2.4071-6.0591 3.3502-2.2722 1.0218-4.623 1.8864-7.0231 2.5937-2.646 0.77616-5.3313 1.4148-8.0461 1.906-3.0296 0.56984-6.0886 1.012-9.1477 1.346-3.4427 0.37333-6.8952 0.65826-10.348 0.85475-3.8755 0.22597-7.751 0.37335-11.626 0.46177-4.328 0.088419-8.6559 0.13755-12.984 0.12773h-74.126c-4.328 0.009819-8.6559-0.039308-12.984-0.12773-3.8755-0.08842-7.751-0.2358-11.626-0.46177-3.4525-0.19649-6.9051-0.48142-10.348-0.85475-3.0591-0.33405-6.1182-0.77616-9.1477-1.346-2.7148-0.49124-5.4001-1.1298-8.0461-1.906-2.4-0.70737-4.7509-1.572-7.0231-2.5937-2.1148-0.94317-4.1411-2.0632-6.0591-3.3502-1.8394-1.2379-3.5607-2.6527-5.1345-4.2148-1.564-1.5621-2.9804-3.2815-4.2198-5.1187-1.2886-1.9158-2.4099-3.9299-3.364-6.0422-1.023-2.2695-1.8886-4.6176-2.5968-7.0051-0.77706-2.6429-1.4164-5.325-1.9181-8.0269-0.56067-3.026-1.0131-6.0815-1.3476-9.137-0.37378-3.4289-0.65903-6.8773-0.85576-10.326-0.22623-3.8611-0.37378-7.7223-0.4623-11.593-0.088526-4.3229-0.13771-8.636-0.12787-12.959v-58.212c-0.009836-4.3131 0.039345-8.636 0.12787-12.959 0.088527-3.8611 0.23607-7.7321 0.4623-11.593 0.19672-3.4485 0.48198-6.8872 0.85576-10.326 0.33443-3.0555 0.7869-6.1012 1.3476-9.1272 0.50165-2.7116 1.141-5.3938 1.9181-8.0367 0.70821-2.3874 1.5738-4.7257 2.5968-7.0051 0.95412-2.1025 2.0755-4.1264 3.364-6.0422 1.2394-1.8372 2.6558-3.5467 4.2198-5.1187 1.5738-1.5621 3.2951-2.9769 5.1345-4.2148 1.9181-1.287 3.9443-2.4071 6.0591-3.3502 2.2722-1.0218 4.623-1.8864 7.0231-2.5839 2.646-0.77616 5.3313-1.4148 8.0461-1.9158 3.0296-0.56001 6.0886-1.012 9.1477-1.346 3.4427-0.37334 6.8952-0.65826 10.348-0.85476 3.8755-0.22597 7.751-0.37334 11.626-0.45194 4.3279-0.098248 8.6559-0.14737 12.984-0.13755h74.126zm0.009846 4.0085c4.2984-0.009825 8.5969 0.039299 12.895 0.12772 3.8263 0.088423 7.6526 0.23579 11.479 0.45194 3.3837 0.1965 6.7674 0.47159 10.131 0.84493 2.9705 0.31439 5.9313 0.74668 8.8625 1.2969 2.5771 0.47159 5.1345 1.0807 7.6526 1.8176 2.223 0.64844 4.3968 1.4541 6.5018 2.3972 1.9082 0.85476 3.7378 1.8667 5.469 3.026 1.623 1.0906 3.1378 2.3383 4.5247 3.7236s2.6361 2.8983 3.7378 4.5194c1.1607 1.7292 2.1738 3.5467 3.0296 5.4429 0.94427 2.1123 1.7509 4.2836 2.4 6.4942 0.74756 2.5151 1.3476 5.0598 1.8295 7.6338 0.541 2.9278 0.9738 5.8752 1.2984 8.8423 0.37378 3.3601 0.6492 6.73 0.84592 10.11 0.2164 3.8218 0.37378 7.6338 0.45246 11.456 0.088538 4.2934 0.13771 8.577 0.13771 12.87v58.212c0 4.2934-0.049169 8.577-0.13771 12.87-0.078677 3.8218-0.23606 7.6437-0.45246 11.456-0.19672 3.3797-0.47214 6.7496-0.84592 10.12-0.3246 2.9573-0.7574 5.9047-1.2984 8.8325-0.48197 2.5741-1.082 5.1187-1.8295 7.6339-0.64918 2.2204-1.4558 4.3819-2.4 6.4942-0.85576 1.8962-1.8689 3.7236-3.0296 5.4429-1.1017 1.6309-2.3509 3.1439-3.7378 4.5292-1.3869 1.3755-2.9017 2.6232-4.5247 3.7138-1.7312 1.1593-3.5607 2.1713-5.469 3.026-2.105 0.953-4.2788 1.7488-6.5018 2.3972-2.5181 0.73686-5.0755 1.346-7.6526 1.8176-2.9312 0.55018-5.8919 0.98248-8.8625 1.3067-3.364 0.36351-6.7477 0.64844-10.131 0.8351-3.8263 0.21615-7.6526 0.37335-11.479 0.45195-4.2985 0.098254-8.5969 0.13755-12.895 0.13755h-0.009846-74.126-0.009838c-4.2984 0-8.5969-0.039292-12.895-0.13755-3.8263-0.0786-7.6526-0.2358-11.479-0.45195-3.3837-0.18666-6.7673-0.47158-10.131-0.8351-2.9706-0.32422-5.9313-0.75651-8.8625-1.3067-2.5771-0.47158-5.1345-1.0807-7.6526-1.8176-2.223-0.64842-4.3968-1.4442-6.5018-2.3972-1.9082-0.85475-3.7378-1.8667-5.469-3.026-1.623-1.0906-3.1378-2.3383-4.5247-3.7138-1.3869-1.3853-2.6361-2.8983-3.7378-4.5292-1.1607-1.7193-2.1738-3.5467-3.0296-5.4429-0.94428-2.1123-1.7509-4.2738-2.4-6.4942-0.74756-2.5151-1.3476-5.0598-1.8295-7.6339-0.541-2.9278-0.97379-5.8752-1.2984-8.8325-0.37378-3.3699-0.64919-6.7398-0.84592-10.12-0.2164-3.812-0.37378-7.6339-0.45247-11.456-0.088526-4.2934-0.13771-8.577-0.13771-12.87v-58.212c0-4.2934 0.049181-8.577 0.13771-12.87 0.07869-3.8218 0.23607-7.6338 0.45247-11.456 0.19672-3.3797 0.47214-6.7496 0.84592-10.11 0.3246-2.9671 0.75739-5.9145 1.2984-8.8423 0.48198-2.5741 1.082-5.1187 1.8295-7.6338 0.64919-2.2106 1.4558-4.3818 2.4-6.4942 0.85575-1.8962 1.8689-3.7138 3.0296-5.4429 1.1017-1.6211 2.3509-3.1341 3.7378-4.5194s2.9017-2.633 4.5247-3.7236c1.7312-1.1593 3.5607-2.1713 5.469-3.026 2.105-0.94318 4.2788-1.7488 6.5018-2.3972 2.5181-0.73686 5.0755-1.346 7.6526-1.8176 2.9312-0.55019 5.8919-0.98248 8.8625-1.2969 3.364-0.37334 6.7477-0.64843 10.131-0.84493 3.8263-0.21614 7.6526-0.36352 11.479-0.45194 4.2984-0.088423 8.5969-0.13755 12.895-0.12772h0.009838 74.126 0.009846z" fill="url(#_lgradient_68)" fill-rule="evenodd"/>
  </g>
  <defs>
    <filter id="MDO9r5mRnfUg1Dcbe9ZKBZKKu9gteZdo" x="-.071073" y="-.38354" width="1.1421" height="1.7671" color-interpolation-filters="sRGB">
      <feGaussianBlur stdDeviation="4.294"/>
    </filter>
  </defs>
  <g filter="url(#MDO9r5mRnfUg1Dcbe9ZKBZKKu9gteZdo)" opacity=".4">
    <path d="m55.51 155.5v5.5766c0 1.9784 0.82059 3.7582 2.1457 5.0429 7.908 9.5289 36.955 16.239 70.348 16.25 33.348-0.012223 62.365-6.7045 70.315-16.217 0.23443-0.22439 0.43012-0.48666 0.63171-0.74062 0.031231-0.039038 0.068095-0.0696 0.098043-0.10892h0.011154c0.46865-0.61799 0.82288-1.3186 1.0674-2.0694 0.007364-0.021784 0.014614-0.043571 0.02175-0.065362 0.2119-0.66919 0.35132-1.3607 0.35132-2.0912v-5.5766c0 0.73454-0.13914 1.426-0.34854 2.0912-0.007135 0.021791-0.014385 0.043578-0.02175 0.065362-0.24446 0.75083-0.59875 1.4515-1.0674 2.0694h-0.011154c-0.030115 0.039038-0.066811 0.069879-0.098042 0.10892-0.20161 0.25394-0.39728 0.51622-0.63171 0.74062-7.9505 9.5133-36.974 16.206-70.326 16.217-33.393-0.011483-62.44-6.7211-70.348-16.25-1.3261-1.2826-2.147-3.0671-2.147-5.0412l0.009648-0.001673z"/>
  </g>
  <path d="m128 134.97c-19.227 1e-6 -37.666 2.3501-51.262 6.5333-13.595 4.1832-21.233 9.8569-21.233 15.773 3e-6 12.319 32.457 22.306 72.495 22.306 40.038 0 72.495-9.9868 72.495-22.306 1e-6 -5.916-7.6379-11.59-21.233-15.773s-32.035-6.5333-51.262-6.5333zm0 5.5766c19.555 0 37.265 2.4823 49.622 6.2848 6.1783 1.9011 11.011 4.1735 13.898 6.2736 2.8831 2.1024 3.3961 3.5411 3.3961 4.1713 0 0.63115-0.51132 2.0714-3.3982 4.1715-2.8869 2.1001-7.7191 4.3616-13.898 6.2625-12.352 3.8032-30.063 6.2959-49.62 6.2959s-37.265-2.4927-49.622-6.2959c-6.1788-1.9016-11.011-4.1601-13.898-6.2625s-3.3984-3.5411-3.3984-4.1713c0-0.63015 0.51137-2.0689 3.3984-4.1713s7.7191-4.372 13.898-6.2736c12.357-3.8032 30.065-6.2848 49.622-6.2848l-1.12e-4 -2.79e-4z" fill="#d5c4a1"/>
  <linearGradient id="_lgradient_69" x2="0" y2="1" gradientTransform="matrix(144.99 0 0 78.07 55.51 95.934)" gradientUnits="userSpaceOnUse">
    <stop stop-color="#cc241d" offset="0"/>
    <stop stop-color="#fb4934" offset="1"/>
  </linearGradient>
  <path d="m62.759 95.934c-4.0162 0-7.2495 3.1655-7.2495 7.0973v49.682c0 1.9784 0.82003 3.7611 2.1451 5.0458 7.9154 9.5267 36.96 16.234 70.348 16.244 33.348-0.012223 62.365-6.7045 70.315-16.217 0.23443-0.22439 0.43558-0.48075 0.63717-0.73471 0.031231-0.039038 0.069154-0.071552 0.099102-0.11087 0.002418-0.002231 0.004835-0.004461 0.00725-0.006692 0.46865-0.618 0.81747-1.3147 1.0619-2.0654 0.007168-0.020799 0.014232-0.041601 0.021192-0.062406 0.20941-0.66523 0.35367-1.3584 0.35367-2.093v-49.682c0-3.932-3.2333-7.0973-7.2495-7.0973h-130.49l0.001943-6.02e-4z" fill="url(#_lgradient_69)"/>
  <linearGradient id="_lgradient_70" x2="0" y2="1" gradientTransform="matrix(139.42 0 0 41.827 58.288 76.413)" gradientUnits="userSpaceOnUse">
    <stop stop-color="#fabd2f" offset="0"/>
    <stop stop-color="#b57614" offset="1"/>
  </linearGradient>
  <ellipse cx="128" cy="97.327" rx="69.712" ry="20.913" fill="url(#_lgradient_70)" vector-effect="non-scaling-stroke"/>
  <g opacity=".2">
    <path d="m128 76.417c-19.227 0-37.666 2.3501-51.262 6.5333-13.595 4.1832-21.233 9.8569-21.233 15.773 0.01502 0.11985 0.033182 0.23965 0.054483 0.35941-0.024467 0.1598-0.043057 0.31967-0.055766 0.47958 0.025176 5.3069 6.5175 10.428 18.254 14.399l0.37032 10.641 3.6161 0.32673 1.9823-9.1165c0.005298-0.025097-0.00502-0.04127 0-0.065362 12.458 3.3456 28.388 5.2965 45.091 5.5221l1.3718 10.919h3.6161l1.3723-10.924c16.675-0.21953 32.586-2.1585 45.048-5.4894l2.004 9.16 3.6051-0.32673 0.37034-10.641c11.752-3.9707 18.256-9.0941 18.286-14.404-0.015532-0.11529-0.034122-0.23054-0.055769-0.34575 0.024441-0.16351 0.043032-0.3271 0.055769-0.49074-3e-6 -12.319-32.457-22.306-72.495-22.306l0.004037-0.002175zm0 5.5766c19.555 0 37.265 2.4823 49.622 6.2848 6.1783 1.9011 11.011 4.1735 13.898 6.2736 2.8831 2.1024 3.3961 3.5411 3.3961 4.1713 0 0.63115-0.51132 2.0714-3.3982 4.1715-2.8869 2.1001-7.7191 4.3616-13.898 6.2625-12.352 3.8032-30.063 6.2959-49.62 6.2959s-37.265-2.4927-49.622-6.2959c-6.1788-1.9016-11.011-4.1601-13.898-6.2625-2.887-2.1024-3.3984-3.5411-3.3984-4.1713 0-0.63015 0.51137-2.0689 3.3984-4.1713 2.887-2.1024 7.7191-4.372 13.898-6.2736 12.357-3.8026 30.065-6.2848 49.622-6.2848l-1.12e-4 -2.79e-4z"/>
  </g>
  <g fill="#d5c4a1">
    <path d="m124.29 179.58h7.4352l-1.8588-14.871h-3.7177l-1.857 14.873-0.001673-0.001673z"/>
    <path d="m182.19 171.75-3.8976 0.83487c0.26991-0.33331-1.2457-0.93837-1.1545-1.3574l0.03569 0.12653 2.3529-10.807 3.7027 0.3342 0.33543 9.7662s-0.84189 0.67543-1.3744 1.1027l-2.79e-4 -2.79e-4z"/>
    <path d="m74.344 171.85 3.4967 1.0353 0.90586-1.82-2.2901-10.518-3.7027 0.3342-0.31984 9.3123 1.91 1.6568 8.4e-5 -1.12e-4z"/>
  </g>
  <path d="m128 73.628c-19.227 1e-6 -37.666 2.3501-51.262 6.5333-13.595 4.1832-21.233 9.8569-21.233 15.773 0.01512 0.11901 0.033337 0.23798 0.054651 0.3569-0.024096 0.1598-0.042314 0.31967-0.054651 0.47958 0.025174 5.3069 6.5175 10.428 18.254 14.399l0.37029 10.646 3.6164 0.32344 1.9825-9.1177c0.005019-0.022307-0.005577-0.039038 0-0.061346 12.459 3.3452 28.39 5.2956 45.093 5.5208l1.3718 10.913h3.6136l1.3718-10.924c16.674-0.21898 32.585-2.1572 45.047-5.4873l2.0076 9.1567 3.6025-0.32344 0.37363-10.646c11.748-3.9693 18.252-9.0905 18.286-14.399-0.015531-0.11529-0.034121-0.23054-0.055766-0.34575 0.024439-0.16351 0.043029-0.3271 0.055766-0.49074 1e-6 -5.916-7.6379-11.59-21.233-15.773s-32.035-6.5333-51.262-6.5333zm0 5.5766c19.557 0 37.268 2.4821 49.62 6.2848 6.1788 1.901 11.014 4.1735 13.902 6.2736 2.8831 2.1024 3.3961 3.5411 3.3961 4.1713 0 0.63015-0.51304 2.0689-3.3961 4.1713-2.8887 2.1024-7.7235 4.3609-13.902 6.2625-12.352 3.8032-30.063 6.2959-49.62 6.2959-19.557 0-37.265-2.4927-49.622-6.2959-6.1788-1.9016-11.011-4.1601-13.898-6.2625-2.887-2.1024-3.3984-3.5411-3.3984-4.1713 0-0.63015 0.51137-2.0689 3.3984-4.1713 2.887-2.1001 7.7191-4.3726 13.898-6.2736 12.357-3.8026 30.065-6.2848 49.622-6.2848z" fill="#d5c4a1"/>
</svg>
