<svg width="256" height="256" style="isolation:isolate" version="1.1" viewBox="0 0 256 256" xmlns="http://www.w3.org/2000/svg">
  <defs>
    <filter id="HQaNSwg8hPUOgrLYSz3O0Yvmpq7GA2ye" x="-.042124" y="-.045133" width="1.0842" height="1.1078" color-interpolation-filters="sRGB">
      <feGaussianBlur in="SourceGraphic" stdDeviation="4.294"/>
      <feOffset dx="0" dy="4" result="pf_100_offsetBlur"/>
      <feFlood flood-opacity=".4"/>
      <feComposite in2="pf_100_offsetBlur" operator="in" result="pf_100_dropShadow"/>
      <feBlend in="SourceGraphic" in2="pf_100_dropShadow"/>
    </filter>
  </defs>
  <g filter="url(#HQaNSwg8hPUOgrLYSz3O0Yvmpq7GA2ye)">
    <linearGradient id="_lgradient_87" x1=".5" x2=".5" y1="1" gradientTransform="matrix(244.65 0 0 228.34 5.68 11.95)" gradientUnits="userSpaceOnUse">
      <stop stop-color="#427b58" offset="0"/>
      <stop stop-color="#689d6a" offset="1"/>
    </linearGradient>
    <path d="m165.69 11.95c74.056 0 84.639 10.557 84.639 84.544v59.251c0 73.986-10.583 84.543-84.639 84.543h-75.37c-74.055 0-84.639-10.557-84.639-84.543v-59.251c0-73.987 10.584-84.544 84.639-84.544h75.37z" fill="url(#_lgradient_87)"/>
  </g>
  <g opacity=".4">
    <linearGradient id="_lgradient_88" x1=".517" x2=".517" y2="1" gradientTransform="matrix(244.65,0,0,228.34,5.68,11.95)" gradientUnits="userSpaceOnUse">
      <stop stop-color="#ebdbb2" offset="0"/>
      <stop stop-color="#ebdbb2" stop-opacity=".098" offset=".125"/>
      <stop stop-color="#282828" stop-opacity=".098" offset=".925"/>
      <stop stop-color="#282828" stop-opacity=".498" offset="1"/>
    </linearGradient>
    <path d="m165.07 11.951c4.328-0.01 8.656 0.04 12.984 0.138 3.875 0.078 7.751 0.226 11.626 0.452 3.453 0.196 6.905 0.481 10.348 0.854 3.059 0.335 6.118 0.786 9.148 1.346 2.715 0.502 5.4 1.14 8.046 1.916 2.4 0.698 4.751 1.562 7.023 2.584 2.115 0.943 4.141 2.063 6.059 3.35 1.84 1.238 3.561 2.653 5.135 4.215 1.564 1.572 2.98 3.282 4.219 5.119 1.289 1.916 2.41 3.94 3.364 6.042 1.023 2.28 1.889 4.618 2.597 7.005 0.777 2.643 1.417 5.325 1.918 8.037 0.561 3.026 1.013 6.072 1.348 9.127 0.374 3.439 0.659 6.878 0.856 10.326 0.226 3.861 0.373 7.732 0.462 11.593 0.088 4.323 0.138 8.646 0.128 12.959v58.212c0.01 4.323-0.04 8.636-0.128 12.959-0.089 3.871-0.236 7.732-0.462 11.593-0.197 3.448-0.482 6.897-0.856 10.326-0.335 3.055-0.787 6.111-1.348 9.137-0.501 2.702-1.141 5.384-1.918 8.027-0.708 2.387-1.574 4.735-2.597 7.005-0.954 2.112-2.075 4.126-3.364 6.042-1.239 1.837-2.655 3.557-4.219 5.119-1.574 1.562-3.295 2.977-5.135 4.215-1.918 1.287-3.944 2.407-6.059 3.35-2.272 1.022-4.623 1.886-7.023 2.594-2.646 0.776-5.331 1.414-8.046 1.906-3.03 0.569-6.089 1.011-9.148 1.346-3.443 0.373-6.895 0.658-10.348 0.854-3.875 0.226-7.751 0.374-11.626 0.462-4.328 0.088-8.656 0.138-12.984 0.128h-74.126c-4.328 0.01-8.656-0.04-12.984-0.128-3.875-0.088-7.751-0.236-11.626-0.462-3.453-0.196-6.905-0.481-10.348-0.854-3.059-0.335-6.118-0.777-9.148-1.346-2.715-0.492-5.4-1.13-8.046-1.906-2.4-0.708-4.751-1.572-7.023-2.594-2.115-0.943-4.141-2.063-6.059-3.35-1.84-1.238-3.561-2.653-5.135-4.215-1.564-1.562-2.98-3.282-4.219-5.119-1.289-1.916-2.41-3.93-3.364-6.042-1.023-2.27-1.889-4.618-2.597-7.005-0.777-2.643-1.417-5.325-1.918-8.027-0.561-3.026-1.013-6.082-1.348-9.137-0.374-3.429-0.659-6.878-0.856-10.326-0.226-3.861-0.373-7.722-0.462-11.593-0.088-4.323-0.138-8.636-0.128-12.959v-58.212c-0.01-4.313 0.04-8.636 0.128-12.959 0.089-3.861 0.236-7.732 0.462-11.593 0.197-3.448 0.482-6.887 0.856-10.326 0.335-3.055 0.787-6.101 1.348-9.127 0.501-2.712 1.141-5.394 1.918-8.037 0.708-2.387 1.574-4.725 2.597-7.005 0.954-2.102 2.075-4.126 3.364-6.042 1.239-1.837 2.655-3.547 4.219-5.119 1.574-1.562 3.295-2.977 5.135-4.215 1.918-1.287 3.944-2.407 6.059-3.35 2.272-1.022 4.623-1.886 7.023-2.584 2.646-0.776 5.331-1.414 8.046-1.916 3.03-0.56 6.089-1.011 9.148-1.346 3.443-0.373 6.895-0.658 10.348-0.854 3.875-0.226 7.751-0.374 11.626-0.452 4.328-0.098 8.656-0.148 12.984-0.138h74.126zm0.01 4.009c4.298-0.01 8.597 0.039 12.895 0.127 3.827 0.089 7.653 0.236 11.479 0.452 3.384 0.197 6.767 0.472 10.131 0.845 2.971 0.315 5.932 0.747 8.863 1.297 2.577 0.472 5.134 1.081 7.653 1.818 2.223 0.648 4.396 1.454 6.501 2.397 1.909 0.855 3.738 1.867 5.469 3.026 1.623 1.091 3.138 2.338 4.525 3.724 1.387 1.385 2.636 2.898 3.738 4.519 1.16 1.729 2.174 3.547 3.029 5.443 0.945 2.112 1.751 4.284 2.4 6.494 0.748 2.515 1.348 5.06 1.83 7.634 0.541 2.928 0.974 5.875 1.298 8.842 0.374 3.36 0.65 6.73 0.846 10.11 0.217 3.822 0.374 7.634 0.453 11.456 0.088 4.293 0.137 8.577 0.137 12.87v58.212c0 4.293-0.049 8.577-0.137 12.87-0.079 3.822-0.236 7.644-0.453 11.456-0.196 3.38-0.472 6.75-0.846 10.12-0.324 2.957-0.757 5.904-1.298 8.832-0.482 2.574-1.082 5.119-1.83 7.634-0.649 2.22-1.455 4.382-2.4 6.494-0.855 1.896-1.869 3.724-3.029 5.443-1.102 1.631-2.351 3.144-3.738 4.529-1.387 1.376-2.902 2.623-4.525 3.714-1.731 1.159-3.56 2.171-5.469 3.026-2.105 0.953-4.278 1.749-6.501 2.397-2.519 0.737-5.076 1.346-7.653 1.818-2.931 0.55-5.892 0.982-8.863 1.306-3.364 0.364-6.747 0.649-10.131 0.836-3.826 0.216-7.652 0.373-11.479 0.452-4.298 0.098-8.597 0.137-12.895 0.137h-0.01-74.126-0.01c-4.298 0-8.597-0.039-12.895-0.137-3.827-0.079-7.653-0.236-11.479-0.452-3.384-0.187-6.767-0.472-10.131-0.836-2.971-0.324-5.932-0.756-8.863-1.306-2.577-0.472-5.134-1.081-7.653-1.818-2.223-0.648-4.396-1.444-6.501-2.397-1.909-0.855-3.738-1.867-5.469-3.026-1.623-1.091-3.138-2.338-4.525-3.714-1.387-1.385-2.636-2.898-3.738-4.529-1.16-1.719-2.174-3.547-3.029-5.443-0.945-2.112-1.751-4.274-2.4-6.494-0.748-2.515-1.348-5.06-1.83-7.634-0.541-2.928-0.974-5.875-1.298-8.832-0.374-3.37-0.649-6.74-0.846-10.12-0.217-3.812-0.374-7.634-0.453-11.456-0.088-4.293-0.137-8.577-0.137-12.87v-58.212c0-4.293 0.049-8.577 0.137-12.87 0.079-3.822 0.236-7.634 0.453-11.456 0.197-3.38 0.472-6.75 0.846-10.11 0.324-2.967 0.757-5.914 1.298-8.842 0.482-2.574 1.082-5.119 1.83-7.634 0.649-2.21 1.455-4.382 2.4-6.494 0.855-1.896 1.869-3.714 3.029-5.443 1.102-1.621 2.351-3.134 3.738-4.519 1.387-1.386 2.902-2.633 4.525-3.724 1.731-1.159 3.56-2.171 5.469-3.026 2.105-0.943 4.278-1.749 6.501-2.397 2.519-0.737 5.076-1.346 7.653-1.818 2.931-0.55 5.892-0.982 8.863-1.297 3.364-0.373 6.747-0.648 10.131-0.845 3.826-0.216 7.652-0.363 11.479-0.452 4.298-0.088 8.597-0.137 12.895-0.127h0.01 74.126 0.01z" fill="url(#_lgradient_88)" fill-rule="evenodd"/>
  </g>
  <linearGradient id="_lgradient_89" x2="1" y1="1.066" y2="1.066" gradientTransform="matrix(119.58,32.041,-32.041,119.58,84.231,52.192)" gradientUnits="userSpaceOnUse">
    <stop stop-color="#a89984" offset="0"/>
    <stop stop-color="#ebdbb2" offset="1"/>
  </linearGradient>
  <path d="m68.21 111.98c8.842-32.999 42.812-52.612 75.811-43.769 32.998 8.842 52.611 42.811 43.769 75.81s-42.812 52.611-75.811 43.769-52.611-42.811-43.769-75.81z" fill="url(#_lgradient_89)"/>
  <linearGradient id="_lgradient_90" x1="20.889" x2="48.338" y1="3.616" y2="41.812" gradientTransform="matrix(165 0 0 165 45.5 45.501)" gradientUnits="userSpaceOnUse">
    <stop stop-color="#ebdbb2" offset="0"/>
    <stop stop-color="#ebdbb2" offset="1"/>
  </linearGradient>
  <path d="m119.55 210.05c5.62 0.587 11.285 0.595 16.907 0.024l1.96-12.792c5.209-0.78 10.313-2.144 15.216-4.067l8.072 10.073c5.159-2.316 10.067-5.156 14.645-8.475l-4.684-12.013c4.134-3.275 7.885-7.006 11.183-11.121l11.938 4.65c3.315-4.585 6.15-9.498 8.46-14.663l-9.995-8.01c0.978-2.452 1.816-4.957 2.512-7.504 0.653-2.551 1.162-5.136 1.524-7.744l12.768-1.96c0.587-5.62 0.595-11.285 0.024-16.907l-12.792-1.96c-0.781-5.209-2.145-10.313-4.067-15.216l10.073-8.072c-2.316-5.159-5.156-10.067-8.475-14.645l-12.013 4.684c-3.275-4.134-7.005-7.885-11.12-11.182l4.651-11.937c-4.585-3.316-9.499-6.15-14.664-8.46l-8.004 9.995c-2.454-0.978-4.962-1.817-7.51-2.512-2.551-0.653-5.136-1.162-7.744-1.525l-1.954-12.767c-5.62-0.587-11.285-0.595-16.907-0.024l-1.968 12.792c-5.208 0.78-10.312 2.145-15.215 4.068l-8.071-10.072c-5.159 2.316-10.067 5.155-14.645 8.475l4.683 12.012c-4.133 3.276-7.884 7.006-11.182 11.122l-11.939-4.654c-3.315 4.585-6.15 9.498-8.46 14.663l9.995 8.01c-0.978 2.452-1.816 4.957-2.512 7.504-0.653 2.551-1.162 5.136-1.524 7.744l-12.768 1.96c-0.587 5.62-0.595 11.285-0.024 16.907l12.792 1.96c0.78 5.209 2.145 10.313 4.067 15.216l-10.073 8.072c2.316 5.159 5.156 10.066 8.475 14.645l12.013-4.684c3.275 4.134 7.006 7.885 11.122 11.183l-4.651 11.938c4.585 3.315 9.498 6.15 14.663 8.46l8.01-9.995c2.452 0.978 4.958 1.816 7.504 2.511 2.551 0.653 5.136 1.162 7.744 1.525zm-6.501-26.249c-14.8-3.965-27.418-13.648-35.08-26.917-7.661-13.27-9.737-29.039-5.771-43.839s13.648-27.419 26.918-35.08c13.269-7.661 29.038-9.737 43.838-5.771 14.801 3.965 27.419 13.648 35.08 26.917 7.661 13.27 9.737 29.039 5.772 43.839-3.966 14.8-13.649 27.419-26.918 35.08s-29.039 9.737-43.839 5.771" fill="url(#_lgradient_90)"/>
  <g opacity=".2">
    <path d="m201.8 91.356-8.575 6.875c0.396 1.069 0.767 2.146 1.114 3.231l8.963-7.18c-0.479-0.986-0.978-1.96-1.498-2.926m-147.56 0.025c-0.512 0.97-1.007 1.948-1.481 2.934l8.888 7.127c0.343-1.09 0.71-2.171 1.106-3.24l-8.513-6.821zm-8.633 34.503c-0.12 3.524-0.016 7.048 0.314 10.56l12.8 1.96c0.628 4.073 1.618 8.084 2.951 11.983l1.114-0.895c-1.923-4.903-3.285-10.007-4.06-15.219l-12.801-1.96c-0.19-2.138-0.293-4.284-0.314-6.434m164.79 0.083c-0.033 2.121-0.149 4.238-0.347 6.351l-12.759 1.96c-0.363 2.608-0.875 5.195-1.531 7.746-0.693 2.546-1.531 5.051-2.505 7.502l1.106 0.887c0.512-1.407 0.982-2.827 1.403-4.263 0.656-2.55 1.168-5.137 1.531-7.745l12.759-1.961c0.339-3.482 0.454-6.982 0.347-10.477m-8.633 34.502c-1.997 4.094-4.333 8.018-6.978 11.728l-11.938-4.65c-3.297 4.114-7.048 7.848-11.179 11.121l1.201 3.07c3.656-3.008 6.998-6.384 9.978-10.065l11.938 4.651c3.318-4.585 6.153-9.495 8.464-14.662l-1.486-1.193zm-147.56 0.025-1.498 1.201c2.315 5.158 5.159 10.065 8.48 14.645l12.009-4.683c2.95 3.718 6.268 7.13 9.904 10.18l1.217-3.128c-4.114-3.297-7.849-7.048-11.121-11.179l-12.009 4.684c-2.645-3.706-4.98-7.626-6.978-11.72m99.41 28.589c-4.902 1.919-10.007 3.285-15.219 4.061l-1.96 12.801c-5.624 0.569-11.29 0.557-16.911-0.033l-1.96-12.76c-2.608-0.363-5.195-0.875-7.745-1.531-2.547-0.693-5.051-1.531-7.503-2.505l-8.009 9.995c-4.688-2.117-9.166-4.671-13.379-7.626l-1.283 3.289c4.584 3.318 9.495 6.153 14.662 8.464l8.009-9.995c2.452 0.978 4.956 1.812 7.503 2.505 2.55 0.656 5.137 1.168 7.745 1.531l1.96 12.759c5.621 0.59 11.287 0.599 16.911 0.033l1.96-12.8c5.208-0.78 10.313-2.142 15.219-4.061l8.076 10.073c5.158-2.315 10.065-5.158 14.645-8.48l-1.283-3.281c-4.205 2.955-8.683 5.509-13.362 7.634l-8.076-10.073z" fill="#282828"/>
  </g>
  <linearGradient id="_lgradient_91" x1=".1313" x2="1.0147" y1=".79456" y2=".045756" gradientTransform="matrix(-103.64 0 0 107.29 179.63 74.99)" gradientUnits="userSpaceOnUse">
    <stop stop-color="#427b58" offset="0"/>
    <stop stop-color="#8ec07c" offset="1"/>
  </linearGradient>
  <ellipse cx="127.81" cy="128.64" rx="51.818" ry="53.646" fill="url(#_lgradient_91)" vector-effect="non-scaling-stroke"/>
  <linearGradient id="_lgradient_93" x1=".053" x2="1.03" y1="-1.334" y2="-1.334" gradientTransform="matrix(55.68 0 0 61.697 83.245 111.26)" gradientUnits="userSpaceOnUse">
    <stop stop-color="#8ec07c" offset=".01304"/>
    <stop stop-color="#ebdbb2" offset="1"/>
  </linearGradient>
  <path d="m128.7 128.87c11.794 15.368 13.655 33.735 4.168 41.027-9.499 7.287-28.742 1.188-40.535-14.183-11.794-15.368-11.67-34.185-2.171-41.473 9.499-7.287 26.757-0.738 38.551 14.633" fill="url(#_lgradient_93)"/>
  <path d="m90.86 144.51 16.507 16.506 8.253-24.759-24.76 8.253z" fill="#504945" fill-rule="evenodd"/>
</svg>
