<svg width="256" height="256" style="isolation:isolate" version="1.1" xmlns="http://www.w3.org/2000/svg">
  <g filter="url(#a)">
    <linearGradient id="b" x1=".50002" x2=".50002" y1="-.00051239" y2="1" gradientTransform="matrix(244.65,0,0,228.34,5.676,11.947)" gradientUnits="userSpaceOnUse">
      <stop stop-color="#ebdbb2" offset="0"/>
      <stop stop-color="#ebdbb2" offset="1"/>
    </linearGradient>
    <path d="m165.68 11.947c72.707 0 84.639 12.053 84.639 84.544v59.251c0 72.561-11.932 84.543-84.639 84.543h-75.37c-72.294 0-84.639-11.982-84.639-84.543v-59.251c0-72.491 12.329-84.544 84.639-84.544z" fill="url(#b)"/>
  </g>
  <defs>
    <filter id="a" x="-.042124" y="-.045133" width="1.0842" height="1.1078" color-interpolation-filters="sRGB">
      <feGaussianBlur in="SourceGraphic" stdDeviation="4.294"/>
      <feOffset dy="4" result="pf_100_offsetBlur"/>
      <feFlood flood-opacity=".4"/>
      <feComposite in2="pf_100_offsetBlur" operator="in" result="pf_100_dropShadow"/>
      <feBlend in="SourceGraphic" in2="pf_100_dropShadow"/>
    </filter>
  </defs>
  <g transform="translate(26.604 -15.338)" fill-rule="evenodd" style="isolation:isolate">
    <path d="m-20.932 141.68v29.396c0 72.561 12.345 84.543 84.639 84.543h75.369c72.707 0 84.639-11.982 84.639-84.543v-29.396z" fill="#504945" style="isolation:isolate"/>
    <path d="m184.29 224.1q-0.41 0.41-0.99 0.41t-0.98-0.41-0.4-0.95q0-0.56 0.4-0.97t0.98-0.41 0.99 0.42 0.41 0.96-0.41 0.95z" fill="#ebdbb2" style="isolation:isolate"/>
    <path d="m15.057 99.166q-1.94 0-3.08-1.44t-1.14-3.92q0-2.5 1.15-3.92t3.07-1.42q1.5 0 2.58 0.96v-4.12l1.74-0.82v14.44h-1.74v-0.8q-1 1.04-2.58 1.04zm0.24-1.62q1.52 0 2.34-1.38v-4.8q-0.82-1.3-2.34-1.3-1.3 0-2 0.97t-0.7 2.77q0 1.62 0.73 2.68t1.97 1.06zm11.32 1.62q-2.08 0-3.31-1.49t-1.23-3.87q0-2.5 1.24-3.92t3.3-1.42q1.84 0 3.03 1.23t1.19 3.63q0 0.56-0.06 1.16h-6.92q0.1 1.4 0.87 2.25t1.93 0.85q1.28 0 2.2-0.92l1.06 1.18q-1.32 1.32-3.3 1.32zm-2.78-6.16h5.24q-0.02-1.58-0.75-2.29t-1.71-0.71q-1.18 0-1.94 0.75t-0.84 2.25zm12.62 6.16q-1.1 0-2.09-0.47t-1.61-1.25l1.24-1.06q1.14 1.22 2.5 1.22 0.86 0 1.38-0.33t0.52-0.97q0-0.48-0.38-0.87t-0.78-0.58-1.18-0.49q-1.56-0.58-2.36-1.3t-0.8-1.9q0-1.24 0.97-1.97t2.47-0.73q2.14 0 3.44 1.54l-1.2 1q-0.94-0.98-2.26-0.98-0.78 0-1.24 0.3t-0.46 0.84q0 0.3 0.15 0.55t0.54 0.47 0.62 0.33 0.85 0.35q1.62 0.58 2.47 1.32t0.85 2.08q0 1.36-0.98 2.13t-2.66 0.77zm10.82-7.68 3.84 7.44h-1.9l-3.16-6.18-1.5 1.56v4.62h-1.74v-13.62l1.74-0.82v7.74l3.32-3.52h2.08zm8.92 7.68q-2.16 0-2.16-2.44v-6.5h-1.66v-1.52h1.66v-3.38l1.74-0.84v4.22h2.52v1.52h-2.52v5.92q0 0.68 0.22 1.04t0.84 0.36q0.68 0 1.52-0.54l-0.2 1.7q-0.88 0.46-1.96 0.46zm11.94-1.43q-1.22 1.43-3.3 1.43t-3.3-1.42-1.22-3.92 1.22-3.93 3.3-1.43 3.3 1.42 1.22 3.92-1.22 3.93zm-5.33-1.18q0.73 0.99 2.03 0.99t2.03-0.99 0.73-2.75q0-1.74-0.73-2.74t-2.03-1-2.03 0.99-0.73 2.77q0 1.74 0.73 2.73zm13.63 2.61q-1.6 0-2.62-1.2v4.18l-1.74 0.82v-14.26h1.74v0.86q1.1-1.1 2.62-1.1 1.94 0 3.08 1.44t1.14 3.9q0 2.5-1.16 3.93t-3.06 1.43zm-0.22-1.62q1.28 0 1.97-0.97t0.69-2.77q0-1.7-0.71-2.72t-1.95-1.02q-1.62 0-2.4 1.38v4.72q1.06 1.38 2.4 1.38zm8.71 1.23q-0.41 0.41-0.99 0.41t-0.98-0.41-0.4-0.95q0-0.56 0.4-0.97t0.98-0.41 0.99 0.42 0.41 0.96-0.41 0.95zm81.73-25.17h-2.02l-4.16-7.7-2.38 2.92v4.78h-1.74v-14h1.74v6.86l5.46-6.86h1.96l-3.86 4.84zm2.9 0v-14h3.82q1.72 0 3.02 0.6t2.04 1.62 1.09 2.22 0.35 2.56q0 1.3-0.33 2.47t-1.04 2.22-2.05 1.68-3.16 0.63zm1.74-1.62h2.22q1.24 0 2.17-0.47t1.43-1.28 0.73-1.71 0.23-1.92q0-1.44-0.42-2.62t-1.44-1.98-2.48-0.8h-2.44zm20.66 1.62h-8.76v-14h8.32v1.64h-6.58v4.3h4.34v1.64h-4.34v4.76h7.02zm-51.2-1.19q-1.22 1.43-3.3 1.43t-3.3-1.42-1.22-3.92 1.22-3.93 3.3-1.43 3.3 1.42 1.22 3.92-1.22 3.93zm-5.33-1.18q0.73 0.99 2.03 0.99t2.03-0.99 0.73-2.75q0-1.74-0.73-2.74t-2.03-1-2.03 0.99-0.73 2.77q0 1.74 0.73 2.73zm13.97-6.33h-2.38v8.7h-1.74v-8.7h-1.58v-1.52h1.58v-1.7q0-1.24 0.64-1.78t1.58-0.54q1 0 1.9 0.48v1.46q-0.82-0.38-1.46-0.38-0.56 0-0.74 0.28t-0.18 0.78v1.4h2.38zm-46.14 8.7h-1.64v-0.94q-1.26 1.18-2.9 1.18-1.62 0-2.59-0.89t-0.97-2.55 1.1-2.52 2.72-0.86q1.48 0 2.64 0.66v-0.72q0-1.28-0.57-1.79t-1.65-0.51q-1.54 0-2.98 1.02l-0.5-1.46q1.64-1.08 3.7-1.08 3.64 0 3.64 3.68zm-4.28-1.3q1.5 0 2.64-1.34v-1.76q-1.1-0.68-2.4-0.68-1.06 0-1.74 0.48t-0.68 1.4q0 0.86 0.57 1.38t1.61 0.52zm11.66 1.54q-1.6 0-2.62-1.2v4.18l-1.74 0.82v-14.26h1.74v0.86q1.1-1.1 2.62-1.1 1.94 0 3.08 1.44t1.14 3.9q0 2.5-1.16 3.93t-3.06 1.43zm-0.22-1.62q1.28 0 1.97-0.97t0.69-2.77q0-1.7-0.71-2.72t-1.95-1.02q-1.62 0-2.4 1.38v4.72q1.06 1.38 2.4 1.38zm11.5 1.62q-1.6 0-2.62-1.2v4.18l-1.74 0.82v-14.26h1.74v0.86q1.1-1.1 2.62-1.1 1.94 0 3.08 1.44t1.14 3.9q0 2.5-1.16 3.93t-3.06 1.43zm-0.22-1.62q1.28 0 1.97-0.97t0.69-2.77q0-1.7-0.71-2.72t-1.95-1.02q-1.62 0-2.4 1.38v4.72q1.06 1.38 2.4 1.38zm-33.66 1.38h-1.64v-0.94q-1.26 1.18-2.9 1.18-1.62 0-2.59-0.89t-0.97-2.55 1.1-2.52 2.72-0.86q1.48 0 2.64 0.66v-0.72q0-1.28-0.57-1.79t-1.65-0.51q-1.54 0-2.98 1.02l-0.5-1.46q1.64-1.08 3.7-1.08 3.64 0 3.64 3.68zm-4.28-1.3q1.5 0 2.64-1.34v-1.76q-1.1-0.68-2.4-0.68-1.06 0-1.74 0.48t-0.68 1.4q0 0.86 0.57 1.38t1.61 0.52zm-20.72-11.09q-0.32 0.31-0.78 0.31t-0.77-0.32-0.31-0.76q0-0.46 0.32-0.79t0.76-0.33q0.46 0 0.78 0.33t0.32 0.79-0.32 0.77zm0.1 12.39h-1.74v-10.22h1.74zm6.34 0.24q-1.1 0-2.09-0.47t-1.61-1.25l1.24-1.06q1.14 1.22 2.5 1.22 0.86 0 1.38-0.33t0.52-0.97q0-0.48-0.38-0.87t-0.78-0.58-1.18-0.49q-1.56-0.58-2.36-1.3t-0.8-1.9q0-1.24 0.97-1.97t2.47-0.73q2.14 0 3.44 1.54l-1.2 1q-0.94-0.98-2.26-0.98-0.78 0-1.24 0.3t-0.46 0.84q0 0.3 0.15 0.55t0.54 0.47 0.62 0.33 0.85 0.35q1.62 0.58 2.47 1.32t0.85 2.08q0 1.36-0.98 2.13t-2.66 0.77zm-47.44-0.24h-2.02l-4.16-7.7-2.38 2.92v4.78h-1.74v-14h1.74v6.86l5.46-6.86h1.96l-3.86 4.84zm2.9 0v-14h3.82q1.72 0 3.02 0.6t2.04 1.62 1.09 2.22 0.35 2.56q0 1.3-0.33 2.47t-1.04 2.22-2.05 1.68-3.16 0.63zm1.74-1.62h2.22q1.24 0 2.17-0.47t1.43-1.28 0.73-1.71 0.23-1.92q0-1.44-0.42-2.62t-1.44-1.98-2.48-0.8h-2.44zm13.26-10.77q-0.32 0.31-0.78 0.31t-0.77-0.32-0.31-0.76q0-0.46 0.32-0.79t0.76-0.33q0.46 0 0.78 0.33t0.32 0.79-0.32 0.77zm0.1 12.39h-1.74v-10.22h1.74zm8.02-8.7h-2.38v8.7h-1.74v-8.7h-1.58v-1.52h1.58v-1.7q0-1.24 0.64-1.78t1.58-0.54q1 0 1.9 0.48v1.46q-0.82-0.38-1.46-0.38-0.56 0-0.74 0.28t-0.18 0.78v1.4h2.38zm6.66 0h-2.38v8.7h-1.74v-8.7h-1.58v-1.52h1.58v-1.7q0-1.24 0.64-1.78t1.58-0.54q1 0 1.9 0.48v1.46q-0.82-0.38-1.46-0.38-0.56 0-0.74 0.28t-0.18 0.78v1.4h2.38z" fill="#282828"/>
    <path d="m63.037 161.22q-0.32 0.31-0.78 0.31t-0.77-0.32-0.31-0.76q0-0.46 0.32-0.79t0.76-0.33q0.46 0 0.78 0.33t0.32 0.79-0.32 0.77zm0.1 12.39h-1.74v-10.22h1.74zm6.34 0.24q-1.1 0-2.09-0.47t-1.61-1.25l1.24-1.06q1.14 1.22 2.5 1.22 0.86 0 1.38-0.33t0.52-0.97q0-0.48-0.38-0.87t-0.78-0.58-1.18-0.49q-1.56-0.58-2.36-1.3t-0.8-1.9q0-1.24 0.97-1.97t2.47-0.73q2.14 0 3.44 1.54l-1.2 1q-0.94-0.98-2.26-0.98-0.78 0-1.24 0.3t-0.46 0.84q0 0.3 0.15 0.55t0.54 0.47 0.62 0.33 0.85 0.35q1.62 0.58 2.47 1.32t0.85 2.08q0 1.36-0.98 2.13t-2.66 0.77zm-47.44-0.24h-2.02l-4.16-7.7-2.38 2.92v4.78h-1.74v-14h1.74v6.86l5.46-6.86h1.96l-3.86 4.84zm2.9 0v-14h3.82q1.72 0 3.02 0.6t2.04 1.62 1.09 2.22 0.35 2.56q0 1.3-0.33 2.47t-1.04 2.22-2.05 1.68-3.16 0.63zm1.74-1.62h2.22q1.24 0 2.17-0.47t1.43-1.28 0.73-1.71 0.23-1.92q0-1.44-0.42-2.62t-1.44-1.98-2.48-0.8h-2.44zm13.26-10.77q-0.32 0.31-0.78 0.31t-0.77-0.32-0.31-0.76q0-0.46 0.32-0.79t0.76-0.33q0.46 0 0.78 0.33t0.32 0.79-0.32 0.77zm0.1 12.39h-1.74v-10.22h1.74zm8.02-8.7h-2.38v8.7h-1.74v-8.7h-1.58v-1.52h1.58v-1.7q0-1.24 0.64-1.78t1.58-0.54q1 0 1.9 0.48v1.46q-0.82-0.38-1.46-0.38-0.56 0-0.74 0.28t-0.18 0.78v1.4h2.38zm6.66 0h-2.38v8.7h-1.74v-8.7h-1.58v-1.52h1.58v-1.7q0-1.24 0.64-1.78t1.58-0.54q1 0 1.9 0.48v1.46q-0.82-0.38-1.46-0.38-0.56 0-0.74 0.28t-0.18 0.78v1.4h2.38z" fill="#ebdbb2"/>
    <path d="m88.037 173.61h-1.64v-0.94q-1.26 1.18-2.9 1.18-1.62 0-2.59-0.89t-0.97-2.55 1.1-2.52 2.72-0.86q1.48 0 2.64 0.66v-0.72q0-1.28-0.57-1.79t-1.65-0.51q-1.54 0-2.98 1.02l-0.5-1.46q1.64-1.08 3.7-1.08 3.64 0 3.64 3.68zm-4.28-1.3q1.5 0 2.64-1.34v-1.76q-1.1-0.68-2.4-0.68-1.06 0-1.74 0.48t-0.68 1.4q0 0.86 0.57 1.38t1.61 0.52zm15.34 1.3h-1.74v-6.18q0-1.38-0.59-2.03t-1.61-0.65q-2.36 0-2.36 2.64v6.22h-1.74v-10.22h1.74v1.04q0.94-1.28 2.64-1.28 1.8 0 2.73 1.09t0.93 3.49z" fill="#fabd2f"/>
    <path d="m58.577 199.17q-1.94 0-3.08-1.44t-1.14-3.92q0-2.5 1.15-3.92t3.07-1.42q1.5 0 2.58 0.96v-4.12l1.74-0.82v14.44h-1.74v-0.8q-1 1.04-2.58 1.04zm0.24-1.62q1.52 0 2.34-1.38v-4.8q-0.82-1.3-2.34-1.3-1.3 0-2 0.97t-0.7 2.77q0 1.62 0.73 2.68t1.97 1.06zm11.32 1.62q-2.08 0-3.31-1.49t-1.23-3.87q0-2.5 1.24-3.92t3.3-1.42q1.84 0 3.03 1.23t1.19 3.63q0 0.56-0.06 1.16h-6.92q0.1 1.4 0.87 2.25t1.93 0.85q1.28 0 2.2-0.92l1.06 1.18q-1.32 1.32-3.3 1.32zm-2.78-6.16h5.24q-0.02-1.58-0.75-2.29t-1.71-0.71q-1.18 0-1.94 0.75t-0.84 2.25zm12.62 6.16q-1.1 0-2.09-0.47t-1.61-1.25l1.24-1.06q1.14 1.22 2.5 1.22 0.86 0 1.38-0.33t0.52-0.97q0-0.48-0.38-0.87t-0.78-0.58-1.18-0.49q-1.56-0.58-2.36-1.3t-0.8-1.9q0-1.24 0.97-1.97t2.47-0.73q2.14 0 3.44 1.54l-1.2 1q-0.94-0.98-2.26-0.98-0.78 0-1.24 0.3t-0.46 0.84q0 0.3 0.15 0.55t0.54 0.47 0.62 0.33 0.85 0.35q1.62 0.58 2.47 1.32t0.85 2.08q0 1.36-0.98 2.13t-2.66 0.77zm10.82-7.68 3.84 7.44h-1.9l-3.16-6.18-1.5 1.56v4.62h-1.74v-13.62l1.74-0.82v7.74l3.32-3.52h2.08zm8.92 7.68q-2.16 0-2.16-2.44v-6.5h-1.66v-1.52h1.66v-3.38l1.74-0.84v4.22h2.52v1.52h-2.52v5.92q0 0.68 0.22 1.04t0.84 0.36q0.68 0 1.52-0.54l-0.2 1.7q-0.88 0.46-1.96 0.46zm11.94-1.43q-1.22 1.43-3.3 1.43t-3.3-1.42-1.22-3.92 1.22-3.93 3.3-1.43 3.3 1.42 1.22 3.92-1.22 3.93zm-5.33-1.18q0.73 0.99 2.03 0.99t2.03-0.99 0.73-2.75q0-1.74-0.73-2.74t-2.03-1-2.03 0.99-0.73 2.77q0 1.74 0.73 2.73zm13.63 2.61q-1.6 0-2.62-1.2v4.18l-1.74 0.82v-14.26h1.74v0.86q1.1-1.1 2.62-1.1 1.94 0 3.08 1.44t1.14 3.9q0 2.5-1.16 3.93t-3.06 1.43zm-0.22-1.62q1.28 0 1.97-0.97t0.69-2.77q0-1.7-0.71-2.72t-1.95-1.02q-1.62 0-2.4 1.38v4.72q1.06 1.38 2.4 1.38zm-97.7 1.38h-2.02l-4.16-7.7-2.38 2.92v4.78h-1.74v-14h1.74v6.86l5.46-6.86h1.96l-3.86 4.84zm2.9 0v-14h3.82q1.72 0 3.02 0.6t2.04 1.62 1.09 2.22 0.35 2.56q0 1.3-0.33 2.47t-1.04 2.22-2.05 1.68-3.16 0.63zm1.74-1.62h2.22q1.24 0 2.17-0.47t1.43-1.28 0.73-1.71 0.23-1.92q0-1.44-0.42-2.62t-1.44-1.98-2.48-0.8h-2.44zm20.66 1.62h-8.76v-14h8.32v1.64h-6.58v4.3h4.34v1.64h-4.34v4.76h7.02zm104.68-26.51q-1.22 1.43-3.3 1.43t-3.3-1.42-1.22-3.92 1.22-3.93 3.3-1.43 3.3 1.42 1.22 3.92-1.22 3.93zm-5.33-1.18q0.73 0.99 2.03 0.99t2.03-0.99 0.73-2.75q0-1.74-0.73-2.74t-2.03-1-2.03 0.99-0.73 2.77q0 1.74 0.73 2.73zm13.97-6.33h-2.38v8.7h-1.74v-8.7h-1.58v-1.52h1.58v-1.7q0-1.24 0.64-1.78t1.58-0.54q1 0 1.9 0.48v1.46q-0.82-0.38-1.46-0.38-0.56 0-0.74 0.28t-0.18 0.78v1.4h2.38zm-46.14 8.7h-1.64v-0.94q-1.26 1.18-2.9 1.18-1.62 0-2.59-0.89t-0.97-2.55 1.1-2.52 2.72-0.86q1.48 0 2.64 0.66v-0.72q0-1.28-0.57-1.79t-1.65-0.51q-1.54 0-2.98 1.02l-0.5-1.46q1.64-1.08 3.7-1.08 3.64 0 3.64 3.68zm-4.28-1.3q1.5 0 2.64-1.34v-1.76q-1.1-0.68-2.4-0.68-1.06 0-1.74 0.48t-0.68 1.4q0 0.86 0.57 1.38t1.61 0.52zm11.66 1.54q-1.6 0-2.62-1.2v4.18l-1.74 0.82v-14.26h1.74v0.86q1.1-1.1 2.62-1.1 1.94 0 3.08 1.44t1.14 3.9q0 2.5-1.16 3.93t-3.06 1.43zm-0.22-1.62q1.28 0 1.97-0.97t0.69-2.77q0-1.7-0.71-2.72t-1.95-1.02q-1.62 0-2.4 1.38v4.72q1.06 1.38 2.4 1.38zm11.5 1.62q-1.6 0-2.62-1.2v4.18l-1.74 0.82v-14.26h1.74v0.86q1.1-1.1 2.62-1.1 1.94 0 3.08 1.44t1.14 3.9q0 2.5-1.16 3.93t-3.06 1.43zm-0.22-1.62q1.28 0 1.97-0.97t0.69-2.77q0-1.7-0.71-2.72t-1.95-1.02q-1.62 0-2.4 1.38v4.72q1.06 1.38 2.4 1.38z" fill="#ebdbb2"/>
    <path d="m156.28 215.55h-2.38v8.7h-1.74v-8.7h-1.58v-1.52h1.58v-1.7q0-1.24 0.64-1.78t1.58-0.54q1 0 1.9 0.48v1.46q-0.82-0.38-1.46-0.38-0.56 0-0.74 0.28t-0.18 0.78v1.4h2.38zm3.62-3.69q-0.32 0.31-0.78 0.31t-0.77-0.32-0.31-0.76q0-0.46 0.32-0.79t0.76-0.33q0.46 0 0.78 0.33t0.32 0.79-0.32 0.77zm0.1 12.39h-1.74v-10.22h1.74zm5.16 0h-1.74v-13.62l1.74-0.82zm7.34 0.24q-2.08 0-3.31-1.49t-1.23-3.87q0-2.5 1.24-3.92t3.3-1.42q1.84 0 3.03 1.23t1.19 3.63q0 0.56-0.06 1.16h-6.92q0.1 1.4 0.87 2.25t1.93 0.85q1.28 0 2.2-0.92l1.06 1.18q-1.32 1.32-3.3 1.32zm-2.78-6.16h5.24q-0.02-1.58-0.75-2.29t-1.71-0.71q-1.18 0-1.94 0.75t-0.84 2.25zm12.62 6.16q-1.1 0-2.09-0.47t-1.61-1.25l1.24-1.06q1.14 1.22 2.5 1.22 0.86 0 1.38-0.33t0.52-0.97q0-0.48-0.38-0.87t-0.78-0.58-1.18-0.49q-1.56-0.58-2.36-1.3t-0.8-1.9q0-1.24 0.97-1.97t2.47-0.73q2.14 0 3.44 1.54l-1.2 1q-0.94-0.98-2.26-0.98-0.78 0-1.24 0.3t-0.46 0.84q0 0.3 0.15 0.55t0.54 0.47 0.62 0.33 0.85 0.35q1.62 0.58 2.47 1.32t0.85 2.08q0 1.36-0.98 2.13t-2.66 0.77zm-62.2 0q-2.16 0-2.16-2.44v-6.5h-1.66v-1.52h1.66v-3.38l1.74-0.84v4.22h2.52v1.52h-2.52v5.92q0 0.68 0.22 1.04t0.84 0.36q0.68 0 1.52-0.54l-0.2 1.7q-0.88 0.46-1.96 0.46zm6.46-0.24h-1.74v-13.64l1.74-0.8v5.28q0.94-1.3 2.64-1.3 1.8 0 2.73 1.09t0.93 3.49v5.88h-1.74v-6.18q0-1.38-0.59-2.03t-1.61-0.65q-2.36 0-2.36 2.64zm13.46 0.24q-2.08 0-3.31-1.49t-1.23-3.87q0-2.5 1.24-3.92t3.3-1.42q1.84 0 3.03 1.23t1.19 3.63q0 0.56-0.06 1.16h-6.92q0.1 1.4 0.87 2.25t1.93 0.85q1.28 0 2.2-0.92l1.06 1.18q-1.32 1.32-3.3 1.32zm-2.78-6.16h5.24q-0.02-1.58-0.75-2.29t-1.71-0.71q-1.18 0-1.94 0.75t-0.84 2.25zm-116.22 6.16q-1.96 0-3.1-1.41t-1.14-3.93 1.15-3.94 3.17-1.42q2.72 0 3.58 2.38l-1.64 0.6q-0.52-1.36-1.92-1.36-1.28 0-1.92 0.98t-0.64 2.76q0 1.76 0.64 2.73t1.86 0.97q1.6 0 2.08-1.52l1.62 0.54q-0.38 1.26-1.35 1.94t-2.39 0.68zm13.58-1.43q-1.22 1.43-3.3 1.43t-3.3-1.42-1.22-3.92 1.22-3.93 3.3-1.43 3.3 1.42 1.22 3.92-1.22 3.93zm-5.33-1.18q0.73 0.99 2.03 0.99t2.03-0.99 0.73-2.75q0-1.74-0.73-2.74t-2.03-1-2.03 0.99-0.73 2.77q0 1.74 0.73 2.73zm22.99 2.37h-1.74v-6.2q0-2.66-2.06-2.66-0.98 0-1.59 0.75t-0.61 1.97v6.14h-1.74v-6.2q0-2.66-2.04-2.66-1.02 0-1.61 0.71t-0.59 1.93v6.22h-1.74v-10.22h1.74v0.96q0.9-1.2 2.68-1.2 0.86 0 1.59 0.39t1.15 1.11q0.98-1.5 2.96-1.5 1.6 0 2.6 0.98t1 2.78zm7.56 0.24q-1.6 0-2.62-1.2v4.18l-1.74 0.82v-14.26h1.74v0.86q1.1-1.1 2.62-1.1 1.94 0 3.08 1.44t1.14 3.9q0 2.5-1.16 3.93t-3.06 1.43zm-0.22-1.62q1.28 0 1.97-0.97t0.69-2.77q0-1.7-0.71-2.72t-1.95-1.02q-1.62 0-2.4 1.38v4.72q1.06 1.38 2.4 1.38zm14.64 1.38h-1.64v-0.94q-1.26 1.18-2.9 1.18-1.62 0-2.59-0.89t-0.97-2.55 1.1-2.52 2.72-0.86q1.48 0 2.64 0.66v-0.72q0-1.28-0.57-1.79t-1.65-0.51q-1.54 0-2.98 1.02l-0.5-1.46q1.64-1.08 3.7-1.08 3.64 0 3.64 3.68zm-4.28-1.3q1.5 0 2.64-1.34v-1.76q-1.1-0.68-2.4-0.68-1.06 0-1.74 0.48t-0.68 1.4q0 0.86 0.57 1.38t1.61 0.52zm9.04 1.3h-1.74v-10.22h1.74v1.34q0.72-1.58 2.42-1.58 0.96 0 1.58 0.52l-0.26 1.64q-0.64-0.44-1.46-0.44-0.9 0-1.59 0.7t-0.69 2.28zm7.7-12.39q-0.32 0.31-0.78 0.31t-0.77-0.32-0.31-0.76q0-0.46 0.32-0.79t0.76-0.33q0.46 0 0.78 0.33t0.32 0.79-0.32 0.77zm0.1 12.39h-1.74v-10.22h1.74zm11.36 0h-1.74v-6.18q0-1.38-0.59-2.03t-1.61-0.65q-2.36 0-2.36 2.64v6.22h-1.74v-10.22h1.74v1.04q0.94-1.28 2.64-1.28 1.8 0 2.73 1.09t0.93 3.49zm6.36 4.14-0.84-1.36q2.22-0.12 3.07-0.77t0.85-1.77v-1.24q-0.9 1.24-2.64 1.24-1.8 0-2.99-1.4t-1.19-3.96q0-2.48 1.17-3.91t3.07-1.43q1.6 0 2.58 1.08v-0.84h1.74v9.8q0 2.34-1.25 3.38t-3.57 1.18zm0.8-5.52q0.64 0 1.27-0.39t1.01-1.05v-4.68q-0.36-0.6-1.02-0.98t-1.26-0.38q-1.36 0-2.07 0.97t-0.71 2.77q0 1.74 0.77 2.74t2.01 1zm36.9-32.64h-2.38v8.7h-1.74v-8.7h-1.58v-1.52h1.58v-1.7q0-1.24 0.64-1.78t1.58-0.54q1 0 1.9 0.48v1.46q-0.82-0.38-1.46-0.38-0.56 0-0.74 0.28t-0.18 0.78v1.4h2.38zm9.18 7.51q-1.22 1.43-3.3 1.43t-3.3-1.42-1.22-3.92 1.22-3.93 3.3-1.43 3.3 1.42 1.22 3.92-1.22 3.93zm-5.33-1.18q0.73 0.99 2.03 0.99t2.03-0.99 0.73-2.75q0-1.74-0.73-2.74t-2.03-1-2.03 0.99-0.73 2.77q0 1.74 0.73 2.73zm11.01 2.37h-1.74v-10.22h1.74v1.34q0.72-1.58 2.42-1.58 0.96 0 1.58 0.52l-0.26 1.64q-0.64-0.44-1.46-0.44-0.9 0-1.59 0.7t-0.69 2.28z" fill="#fabd2f"/>
  </g>
  <g transform="translate(-.01186 -.00316)" opacity=".4">
    <linearGradient id="c" x1=".517" x2=".517" y2="1" gradientTransform="matrix(244.65,0,0,228.34,5.68,11.95)" gradientUnits="userSpaceOnUse">
      <stop stop-color="#d5c4a1" offset="0"/>
      <stop stop-color="#ebdbb2" stop-opacity=".098" offset=".125"/>
      <stop stop-opacity=".098039" offset=".925"/>
      <stop stop-opacity=".49804" offset="1"/>
    </linearGradient>
    <path d="m165.07 11.951c4.328-0.01 8.656 0.04 12.984 0.138 3.875 0.078 7.7436 0.25854 11.62 0.48454 3.453 0.196 6.8876 0.5327 10.33 0.9057 3.06 0.335 6.0892 0.83409 9.1192 1.3941 2.7131 0.50032 5.3525 1.181 7.9999 1.9571 2.3983 0.69679 4.7544 1.61 7.0323 2.6338 2.1121 0.94124 4.0427 2.0439 5.9631 3.3319 1.8405 1.2399 3.5996 2.7014 5.1741 4.2652 1.5652 1.5692 2.886 3.1628 4.1277 4.9987 1.2864 1.9174 2.4086 3.8707 3.3603 5.9744 1.0207 2.2746 1.9193 4.5772 2.628 6.9675 0.77696 2.6443 1.4779 5.3272 1.9787 8.0374 0.56201 3.0246 1.0626 6.0601 1.3989 9.1181 0.374 3.439 0.70873 6.8493 0.90573 10.297 0.226 3.861 0.42171 7.7394 0.51071 11.6 0.088 4.323 0.138 8.646 0.128 12.96v58.21c0.01 4.324-0.04 8.637-0.128 12.96-0.085 3.8668-0.28821 7.7331-0.51114 11.595-0.19655 3.4488-0.53822 6.9467-0.91224 10.38-0.33634 3.0613-0.82936 6.0316-1.3914 9.0596-0.50199 2.7066-1.1867 5.3458-1.9626 7.987-0.7071 2.3908-1.5665 4.6263-2.5888 6.9002-0.94995 2.1048-2.1624 4.2292-3.4512 6.1454-1.2392 1.8377-2.5377 3.3902-4.1052 4.9572-1.5746 1.5638-3.412 3.0712-5.2525 4.3111-1.9201 1.2879-3.8611 2.3701-5.9729 3.3114-2.3498 1.0736-4.5744 1.8717-6.9323 2.584-2.6776 0.81656-5.2934 1.4166-7.976 1.948-3.0309 0.56603-6.051 1.0612-9.1165 1.3921-3.5041 0.40869-6.8203 0.68433-10.336 0.90377-3.875 0.226-7.789 0.40013-11.665 0.48813-4.328 0.088-8.6314 0.15082-12.959 0.14082h-74.126c-4.328 0.01-8.6566-0.0545-12.985-0.14247-3.9049-0.0955-7.7449-0.24667-11.628-0.49085-3.4941-0.21923-7.0445-0.5149-10.452-0.92805-3.1873-0.37665-5.9337-0.7937-8.9951-1.3902-2.833-0.56139-5.3421-1.1637-7.9464-1.9566-2.4295-0.73175-4.8105-1.6266-7.0523-2.6548-2.139-0.97893-4.0617-2.0635-5.9983-3.3731-1.8405-1.2399-3.5141-2.6495-5.0886-4.2133-1.5676-1.5671-2.9061-3.1787-4.1454-5.0164-1.2884-1.9162-2.4021-3.8332-3.3518-5.9379-1.0223-2.2739-1.9238-4.5236-2.6309-6.9144-0.77585-2.6412-1.4977-5.3053-1.9996-8.0119-0.56202-3.028-1.0938-6.1087-1.4301-9.17-0.37402-3.4341-0.72617-6.8459-0.92272-10.295-0.22292-3.8613-0.42179-7.7427-0.50684-11.61-0.09185-4.3194-0.13452-8.6396-0.128-12.96v-58.21c-0.01-4.314 0.04-8.637 0.128-12.96 0.089-3.86 0.28015-7.7353 0.50615-11.596 0.197-3.448 0.54883-6.857 0.92283-10.296 0.335-3.055 0.87336-6.1638 1.4344-9.1898 0.50085-2.7102 1.1807-5.2262 1.9577-7.8705 0.70872-2.3902 1.7549-4.9868 2.7756-7.2614 0.95209-2.1037 1.9632-3.7998 3.2499-5.7172 1.2418-1.8358 2.594-3.4604 4.1593-5.0296 1.5745-1.5638 3.3273-3.0214 5.1678-4.2614 1.9201-1.2879 3.8238-2.3848 5.9356-3.3261 2.278-1.0238 4.5428-1.9236 6.9411-2.6204 2.6474-0.77617 5.2743-1.4761 7.9874-1.9764 3.0317-0.56124 6.1381-1.085 9.203-1.4208 3.443-0.373 6.8398-0.71288 10.293-0.90888 3.875-0.226 7.7331-0.41514 11.609-0.49314 4.328-0.098 8.6625-0.14613 12.991-0.13613zm0.01 4.009c4.298-0.01 8.597 0.039 12.895 0.127 3.827 0.089 7.6466 0.26854 11.474 0.48454 3.383 0.197 6.7724 0.43946 10.136 0.81246 2.971 0.315 5.9391 0.74869 8.8701 1.2987 2.5807 0.47339 5.1059 1.0723 7.6238 1.8101 2.2193 0.6492 4.4135 1.4563 6.5231 2.4032 1.9054 0.85272 3.7179 1.8543 5.4527 3.0153 1.6245 1.0927 3.1568 2.3505 4.5413 3.7347 1.3858 1.385 2.6374 2.8981 3.738 4.519 1.1601 1.7266 2.1737 3.5473 3.03 5.443 0.94487 2.1083 1.7467 4.2779 2.4 6.494 0.74152 2.5113 1.352 5.0594 1.829 7.634 0.54 2.928 0.974 5.875 1.298 8.842 0.374 3.36 0.65 6.73 0.846 10.11 0.217 3.822 0.374 7.634 0.453 11.456 0.088 4.293 0.137 8.577 0.137 12.87v58.212c0 4.293-0.049 8.577-0.137 12.87-0.082 3.8211-0.0546 7.643-0.27458 11.459-0.196 3.38-0.65042 6.7474-1.0244 10.117-0.3245 2.9589-0.75746 5.9049-1.298 8.832-0.47731 2.5747-1.0881 5.1228-1.83 7.634-0.65169 2.2166-1.4536 4.3863-2.4 6.494-0.8542 1.8968-1.8678 3.7176-3.03 5.443-1.0976 1.6263-2.349 3.1432-3.737 4.53-1.3876 1.3779-2.9027 2.6211-4.525 3.713-1.7345 1.161-3.564 2.1732-5.469 3.026-2.1078 0.95119-4.2802 1.7522-6.501 2.397-2.5179 0.7378-5.0723 1.3446-7.653 1.818-2.931 0.55-5.8828 0.98162-8.8538 1.3056-3.364 0.364-6.7562 0.64938-10.139 0.83638-3.827 0.216-7.6776 0.36018-11.505 0.43918-4.298 0.098-8.5724 0.14982-12.87 0.14982h-74.146c-4.298 0-8.5976-0.0545-12.896-0.15147-3.8291-0.082-7.6582-0.26152-11.482-0.48085-3.3834-0.19001-6.7587-0.42545-10.127-0.79268-2.97-0.32174-5.9265-0.7574-8.863-1.306-2.5807-0.47339-5.1351-1.0802-7.653-1.818-2.2208-0.64482-4.3673-1.4321-6.4751-2.3833-1.9053-0.85272-3.7547-1.8723-5.4895-3.0333-1.622-1.0922-3.1431-2.3423-4.5303-3.7205-1.3882-1.3864-2.64-2.903-3.738-4.529-1.1622-1.7254-2.1758-3.5462-3.03-5.443-0.94645-2.1077-1.7483-4.2774-2.4-6.494-0.74152-2.5113-1.352-5.0594-1.829-7.634-0.54054-2.9271-0.9735-5.8731-1.298-8.832-0.374-3.37-0.65-6.74-0.846-10.12-0.21993-3.8156-0.37096-7.6349-0.453-11.456-0.08992-4.2894-0.13559-8.5796-0.137-12.87v-58.212c0-4.293 0.049-8.577 0.137-12.87 0.079-3.822 0.236-7.634 0.453-11.456 0.197-3.38 0.472-6.75 0.846-10.11 0.324-2.967 0.757-5.914 1.298-8.842 0.47732-2.5747 1.0915-5.1375 1.8334-7.6487 0.65331-2.2161 1.4517-4.371 2.3966-6.4793 0.85634-1.8957 1.8699-3.7164 3.03-5.443 1.1003-1.6212 2.3515-3.1346 3.737-4.52 1.3849-1.3839 2.9002-2.6307 4.525-3.723 1.7345-1.161 3.564-2.1732 5.469-3.026 2.1096-0.94691 4.2817-1.7478 6.501-2.397 2.5179-0.7378 5.0723-1.3446 7.653-1.818 2.931-0.55 5.892-0.982 8.863-1.297 3.364-0.373 6.7432-0.64645 10.126-0.84345 3.8239-0.21443 7.6549-0.36667 11.484-0.45355 4.298-0.088 8.597-0.137 12.895-0.127z" fill="url(#c)" fill-rule="evenodd"/>
  </g>
</svg>
