<svg width="256" height="256" style="isolation:isolate" version="1.1" xmlns="http://www.w3.org/2000/svg">
  <g filter="url(#a)">
    <linearGradient id="b" x1=".50002" x2=".50002" y1="-.00051239" y2="1" gradientTransform="matrix(244.65,0,0,228.34,5.676,11.947)" gradientUnits="userSpaceOnUse">
      <stop stop-color="#689d6a" offset="0"/>
      <stop stop-color="#427b58" offset="1"/>
    </linearGradient>
    <path d="m165.68 11.947c72.707 0 84.639 12.053 84.639 84.544v59.251c0 72.561-11.932 84.543-84.639 84.543h-75.37c-72.294 0-84.639-11.982-84.639-84.543v-59.251c0-72.491 12.329-84.544 84.639-84.544z" fill="url(#b)"/>
  </g>
  <defs>
    <filter id="a" x="-.042124" y="-.045133" width="1.0842" height="1.1078" color-interpolation-filters="sRGB">
      <feGaussianBlur in="SourceGraphic" stdDeviation="4.294"/>
      <feOffset dy="4" result="pf_100_offsetBlur"/>
      <feFlood flood-opacity=".4"/>
      <feComposite in2="pf_100_offsetBlur" operator="in" result="pf_100_dropShadow"/>
      <feBlend in="SourceGraphic" in2="pf_100_dropShadow"/>
    </filter>
    <linearGradient id="_lgradient_53-3" x2="0" y2="1.209" gradientTransform="matrix(117.3,0,0,150.96,59.643,53.14)" gradientUnits="userSpaceOnUse">
      <stop stop-color="#ebdbb2" offset="0"/>
      <stop stop-color="#ebdbb2" offset=".97391"/>
    </linearGradient>
    <linearGradient id="_lgradient_54-6" x2="0" y2="1" gradientTransform="matrix(117.3,0,0,137.94,59.643,66.159)" gradientUnits="userSpaceOnUse">
      <stop stop-color="#689d6a" offset="0"/>
      <stop stop-color="#8f3f71" offset="1"/>
    </linearGradient>
    <filter id="bme2seF5kPY419jETUe8o9U5vMmFPYk8-7" x="-.097916" y="-.16078" width="1.1958" height="1.3216" color-interpolation-filters="sRGB">
      <feGaussianBlur stdDeviation="4.294"/>
    </filter>
  </defs>
  <g opacity=".4">
    <linearGradient id="c" x1=".517" x2=".517" y2="1" gradientTransform="matrix(244.65,0,0,228.34,5.68,11.95)" gradientUnits="userSpaceOnUse">
      <stop stop-color="#d5c4a1" offset="0"/>
      <stop stop-color="#ebdbb2" stop-opacity=".098" offset=".125"/>
      <stop stop-color="#282828" stop-opacity=".098039" offset=".925"/>
      <stop stop-color="#282828" stop-opacity=".49804" offset="1"/>
    </linearGradient>
    <path d="m165.07 11.951c4.328-0.01 8.656 0.04 12.984 0.138 3.875 0.078 7.7436 0.25854 11.62 0.48454 3.453 0.196 6.8876 0.5327 10.33 0.9057 3.06 0.335 6.0892 0.83409 9.1192 1.3941 2.7131 0.50032 5.3525 1.181 7.9999 1.9571 2.3983 0.69679 4.7544 1.61 7.0323 2.6338 2.1121 0.94124 4.0427 2.0439 5.9631 3.3319 1.8405 1.2399 3.5996 2.7014 5.1741 4.2652 1.5652 1.5692 2.886 3.1628 4.1277 4.9987 1.2864 1.9174 2.4086 3.8707 3.3603 5.9744 1.0207 2.2746 1.9193 4.5772 2.628 6.9675 0.77696 2.6443 1.4779 5.3272 1.9787 8.0374 0.56201 3.0246 1.0626 6.0601 1.3989 9.1181 0.374 3.439 0.70873 6.8493 0.90573 10.297 0.226 3.861 0.42171 7.7394 0.51071 11.6 0.088 4.323 0.138 8.646 0.128 12.96v58.21c0.01 4.324-0.04 8.637-0.128 12.96-0.085 3.8668-0.28821 7.7331-0.51114 11.595-0.19655 3.4488-0.53822 6.9467-0.91224 10.38-0.33634 3.0613-0.82936 6.0316-1.3914 9.0596-0.50199 2.7066-1.1867 5.3458-1.9626 7.987-0.7071 2.3908-1.5665 4.6263-2.5888 6.9002-0.94995 2.1048-2.1624 4.2292-3.4512 6.1454-1.2392 1.8377-2.5377 3.3902-4.1052 4.9572-1.5746 1.5638-3.412 3.0712-5.2525 4.3111-1.9201 1.2879-3.8611 2.3701-5.9729 3.3114-2.3498 1.0736-4.5744 1.8717-6.9323 2.584-2.6776 0.81656-5.2934 1.4166-7.976 1.948-3.0309 0.56603-6.051 1.0612-9.1165 1.3921-3.5041 0.40869-6.8203 0.68433-10.336 0.90377-3.875 0.226-7.789 0.40013-11.665 0.48813-4.328 0.088-8.6314 0.15082-12.959 0.14082h-74.126c-4.328 0.01-8.6566-0.0545-12.985-0.14247-3.9049-0.0955-7.7449-0.24667-11.628-0.49085-3.4941-0.21923-7.0445-0.5149-10.452-0.92805-3.1873-0.37665-5.9337-0.7937-8.9951-1.3902-2.833-0.56139-5.3421-1.1637-7.9464-1.9566-2.4295-0.73175-4.8105-1.6266-7.0523-2.6548-2.139-0.97893-4.0617-2.0635-5.9983-3.3731-1.8405-1.2399-3.5141-2.6495-5.0886-4.2133-1.5676-1.5671-2.9061-3.1787-4.1454-5.0164-1.2884-1.9162-2.4021-3.8332-3.3518-5.9379-1.0223-2.2739-1.9238-4.5236-2.6309-6.9144-0.77585-2.6412-1.4977-5.3053-1.9996-8.0119-0.56202-3.028-1.0938-6.1087-1.4301-9.17-0.37402-3.4341-0.72617-6.8459-0.92272-10.295-0.22292-3.8613-0.42179-7.7427-0.50684-11.61-0.09185-4.3194-0.13452-8.6396-0.128-12.96v-58.21c-0.01-4.314 0.04-8.637 0.128-12.96 0.089-3.86 0.28015-7.7353 0.50615-11.596 0.197-3.448 0.54883-6.857 0.92283-10.296 0.335-3.055 0.87336-6.1638 1.4344-9.1898 0.50085-2.7102 1.1807-5.2262 1.9577-7.8705 0.70872-2.3902 1.7549-4.9868 2.7756-7.2614 0.95209-2.1037 1.9632-3.7998 3.2499-5.7172 1.2418-1.8358 2.594-3.4604 4.1593-5.0296 1.5745-1.5638 3.3273-3.0214 5.1678-4.2614 1.9201-1.2879 3.8238-2.3848 5.9356-3.3261 2.278-1.0238 4.5428-1.9236 6.9411-2.6204 2.6474-0.77617 5.2743-1.4761 7.9874-1.9764 3.0317-0.56124 6.1381-1.085 9.203-1.4208 3.443-0.373 6.8398-0.71288 10.293-0.90888 3.875-0.226 7.7331-0.41514 11.609-0.49314 4.328-0.098 8.6625-0.14613 12.991-0.13613zm0.01 4.009c4.298-0.01 8.597 0.039 12.895 0.127 3.827 0.089 7.6466 0.26854 11.474 0.48454 3.383 0.197 6.7724 0.43946 10.136 0.81246 2.971 0.315 5.9391 0.74869 8.8701 1.2987 2.5807 0.47339 5.1059 1.0723 7.6238 1.8101 2.2193 0.6492 4.4135 1.4563 6.5231 2.4032 1.9054 0.85272 3.7179 1.8543 5.4527 3.0153 1.6245 1.0927 3.1568 2.3505 4.5413 3.7347 1.3858 1.385 2.6374 2.8981 3.738 4.519 1.1601 1.7266 2.1737 3.5473 3.03 5.443 0.94487 2.1083 1.7467 4.2779 2.4 6.494 0.74152 2.5113 1.352 5.0594 1.829 7.634 0.54 2.928 0.974 5.875 1.298 8.842 0.374 3.36 0.65 6.73 0.846 10.11 0.217 3.822 0.374 7.634 0.453 11.456 0.088 4.293 0.137 8.577 0.137 12.87v58.212c0 4.293-0.049 8.577-0.137 12.87-0.082 3.8211-0.0546 7.643-0.27458 11.459-0.196 3.38-0.65042 6.7474-1.0244 10.117-0.3245 2.9589-0.75746 5.9049-1.298 8.832-0.47731 2.5747-1.0881 5.1228-1.83 7.634-0.65169 2.2166-1.4536 4.3863-2.4 6.494-0.8542 1.8968-1.8678 3.7176-3.03 5.443-1.0976 1.6263-2.349 3.1432-3.737 4.53-1.3876 1.3779-2.9027 2.6211-4.525 3.713-1.7345 1.161-3.564 2.1732-5.469 3.026-2.1078 0.95119-4.2802 1.7522-6.501 2.397-2.5179 0.7378-5.0723 1.3446-7.653 1.818-2.931 0.55-5.8828 0.98162-8.8538 1.3056-3.364 0.364-6.7562 0.64938-10.139 0.83638-3.827 0.216-7.6776 0.36018-11.505 0.43918-4.298 0.098-8.5724 0.14982-12.87 0.14982h-74.146c-4.298 0-8.5976-0.0545-12.896-0.15147-3.8291-0.082-7.6582-0.26152-11.482-0.48085-3.3834-0.19001-6.7587-0.42545-10.127-0.79268-2.97-0.32174-5.9265-0.7574-8.863-1.306-2.5807-0.47339-5.1351-1.0802-7.653-1.818-2.2208-0.64482-4.3673-1.4321-6.4751-2.3833-1.9053-0.85272-3.7547-1.8723-5.4895-3.0333-1.622-1.0922-3.1431-2.3423-4.5303-3.7205-1.3882-1.3864-2.64-2.903-3.738-4.529-1.1622-1.7254-2.1758-3.5462-3.03-5.443-0.94645-2.1077-1.7483-4.2774-2.4-6.494-0.74152-2.5113-1.352-5.0594-1.829-7.634-0.54054-2.9271-0.9735-5.8731-1.298-8.832-0.374-3.37-0.65-6.74-0.846-10.12-0.21993-3.8156-0.37096-7.6349-0.453-11.456-0.08992-4.2894-0.13559-8.5796-0.137-12.87v-58.212c0-4.293 0.049-8.577 0.137-12.87 0.079-3.822 0.236-7.634 0.453-11.456 0.197-3.38 0.472-6.75 0.846-10.11 0.324-2.967 0.757-5.914 1.298-8.842 0.47732-2.5747 1.0915-5.1375 1.8334-7.6487 0.65331-2.2161 1.4517-4.371 2.3966-6.4793 0.85634-1.8957 1.8699-3.7164 3.03-5.443 1.1003-1.6212 2.3515-3.1346 3.737-4.52 1.3849-1.3839 2.9002-2.6307 4.525-3.723 1.7345-1.161 3.564-2.1732 5.469-3.026 2.1096-0.94691 4.2817-1.7478 6.501-2.397 2.5179-0.7378 5.0723-1.3446 7.653-1.818 2.931-0.55 5.892-0.982 8.863-1.297 3.364-0.373 6.7432-0.64645 10.126-0.84345 3.8239-0.21443 7.6549-0.36667 11.484-0.45355 4.298-0.088 8.597-0.137 12.895-0.127z" fill="url(#c)" fill-rule="evenodd"/>
  </g>
  <g transform="translate(-2.6063 -7.3855)" style="isolation:isolate">
    <path d="m171.14 53.144c-1.915-0.023-4.461 0.278-7.848 0.787l-54.304 8.618c-13.608 2.898-13.562 3.8-13.608 15.297v93.288c-0.56699-0.39801-1.127-0.797-1.714-1.191v4e-3c-4.324-2.897-8.932-4.959-15.121-4.959-7.753 0-12.377 2.968-15.175 6.878-2.799 3.911-3.727 8.839-3.727 12.649 0 4.594 1.568 9.497 4.971 13.234 3.403 3.736 8.634 6.353 16.157 6.353 8.494 0 14.469-2.372 17.847-7.004 2.659-3.647 4.13-8.52 4.654-14.53v-0.019c0.074-0.72899 0.127-1.478 0.174-2.25 0.071-1.188 0.055-3.41 0.055-3.41v-71.43c0-10.204 0-10.813 13.613-13.14l38.021-6.287c13.637-1.785 13.64-0.534 13.64 7.119v65.553c-0.55299-0.38699-1.098-0.77699-1.669-1.159v4e-3c-4.323-2.898-8.929-4.96-15.119-4.96-7.753 0-12.378 2.969-15.177 6.879s-3.727 8.839-3.727 12.648c0 4.595 1.571 9.498 4.973 13.234 3.403 3.737 8.635 6.355 16.157 6.355 8.494 0 14.469-2.373 17.847-7.006 2.659-3.647 4.128-8.517 4.653-14.528v-0.019c0.073-0.72899 0.127-1.476 0.173-2.247 0.071-1.188 0.058-3.413 0.058-3.413v-99.374c0-8.95-0.059-11.914-5.804-11.978v4e-3z" fill="url(#_lgradient_53-3)"/>
    <g opacity=".2">
      <path d="m97.962 66.159c-2.546 1.999-2.555 5.104-2.582 11.687v93.288c-0.56699-0.39801-1.127-0.797-1.714-1.191v4e-3c-4.324-2.897-8.932-4.959-15.121-4.959-7.753 0-12.377 2.968-15.175 6.878-2.799 3.911-3.727 8.839-3.727 12.649 0 4.594 1.568 9.497 4.971 13.234 3.403 3.736 8.634 6.353 16.157 6.353 8.494 0 14.469-2.372 17.847-7.004 2.659-3.647 4.13-8.52 4.654-14.53v-0.019c0.074-0.72899 0.127-1.478 0.174-2.25 0.071-1.188 0.055-3.41 0.055-3.41v-71.43c0-10.204 0-10.813 13.613-13.14l38.021-6.287c3.471-0.455 6.05-0.71 7.979-0.715l-65.152-19.158zm69.809 20.531c0.989 1.209 1.004 3.274 1.004 6.464v65.552c-0.55299-0.38699-1.098-0.776-1.669-1.158v4e-3c-4.323-2.898-8.929-4.96-15.119-4.96-7.753 0-12.378 2.969-15.177 6.879s-3.727 8.838-3.727 12.648c0 4.595 1.57 9.498 4.973 13.234 3.403 3.737 8.635 6.355 16.157 6.355 8.494 0 14.469-2.374 17.847-7.006 2.659-3.647 4.128-8.518 4.653-14.528v-0.019c0.072-0.748 0.13-1.498 0.173-2.248 0.071-1.188 0.058-3.412 0.058-3.412v-75.109z" fill="url(#_lgradient_54-6)"/>
    </g>
    <g filter="url(#bme2seF5kPY419jETUe8o9U5vMmFPYk8-7)" opacity=".4">
      <path d="m211.27 147.1c-0.98491-0.12466-1.9851-1e-3 -2.9087 0.35846-2.7154 1.0575-4.2486 3.9244-3.6134 6.7571 0.67168-1.1558 1.719-2.0495 2.9701-2.5347 1.4631-0.56794 3.0943-0.53432 4.5347 0.0935 1.4404 0.62777 2.572 1.7983 3.1457 3.254 0.10762 0.28178 0.19335 0.57132 0.25644 0.86606 0.89984-1.5483 1.0422-3.4205 0.38693-5.0885-0.79029-2.0091-2.6207-3.4305-4.772-3.7059h2.6e-4zm15.888 8.3361c-3.5333 12.735-19.839 27.155-23.462 28.626l-57.925 22.455c-3.0568 1.1846-6.482-0.31466-7.6792-3.3556l-15.134-38.416c-0.11178-0.2849-0.17434-0.57526-0.23942-0.86601-0.87126 1.4961-1.0899 3.3422-0.40396 5.0884l15.128 38.43c1.1972 3.041 4.6237 4.532 7.6805 3.3474l57.925-22.454c4.0323-1.6377 23.752-19.31 24.106-32.848l5e-3 -6e-3z"/>
    </g>
    <path d="m226.7 148.64c-5.3964-13.723-35.709-14.492-42.801-11.866l-57.895 22.459c-3.0549 1.1849-4.5512 4.587-3.3551 7.6277l15.114 38.422c1.1961 3.0408 4.6185 4.5349 7.6735 3.35l57.899-22.458c4.5144-1.835 28.767-23.81 23.369-37.532l-4e-3 -2e-3zm-11.028 4.2775c0.57269 1.4557 0.54094 3.0772-0.0883 4.5077-0.6292 1.4305-1.8043 2.5528-3.2668 3.12-1.4625 0.56732-3.0926 0.53309-4.5316-0.0952-1.4391-0.62826-2.5692-1.7991-3.1418-3.2548-0.57269-1.4557-0.54094-3.0772 0.0883-4.5077 0.6292-1.4305 1.8043-2.5528 3.2668-3.12 1.4625-0.56732 3.0926-0.53309 4.5316 0.0952 1.4391 0.62826 2.5692 1.7991 3.1418 3.2548z" fill="#fabd2f"/>
    <path d="m210.75 148.21c-1.0053-0.0997-2.0195 0.0378-2.9598 0.40131-3.2921 1.2731-4.9145 4.9544-3.6243 8.2239 0.61967 1.5706 1.8423 2.8343 3.399 3.513s3.3198 0.7169 4.9016 0.10613c1.5821-0.61122 2.8529-1.8216 3.5328-3.3648 0.67986-1.5432 0.71301-3.2926 0.0922-4.8632-0.87997-2.2267-2.9438-3.7785-5.3414-4.0163zm0.33379 2.1014c1.3248 0.29134 2.4643 1.2274 3.0095 2.6231 0.87229 2.2331-0.17896 4.6292-2.4121 5.5015-2.2331 0.87229-4.6292-0.17894-5.5015-2.4121-0.8723-2.2331 0.17896-4.6292 2.4121-5.5015 0.83742-0.32711 1.6971-0.38579 2.492-0.21099z" fill="#ebdbb2"/>
    <g fill="#b57614">
      <path d="m130.32 170.2 2.1591 5.4891 5.5141-2.139 8.6364 21.956 5.5141-2.139-8.6364-21.956 5.5141-2.139-2.1591-5.4891-16.542 6.4169zm22.057-8.5558 6.4774 16.467 4.3182 10.978 5.5141-2.139-4.3182-10.978 5.5141-2.139 4.3182 10.978 5.5141-2.139-10.796-27.445-16.543 6.4166 3.3e-4 -2.1e-4zm22.057-8.5558 10.796 27.445 5.5141-2.139 11.029-4.2777-2.1591-5.4891-1.0796-2.7445 2.7571-1.0695-2.1591-5.4891-11.029 4.2777 2.1591 5.4891 2.7571-1.0695 1.0796 2.7445-5.5141 2.139-6.4774-16.467 11.029-4.2777-2.1591-5.4891-16.543 6.4165-1e-4 7e-5zm-14.384 11.906 5.5141-2.139 2.1591 5.4891-5.5141 2.139z" fill="#b57614"/>
    </g>
    <g opacity=".2">
      <path d="m205.98 136.58c-9.1468-1.5806-18.507-1.1212-22.054 0.18974l-57.931 22.432c-2.4079 0.93222-3.828 3.2321-3.7411 5.6531 0.54019-1.5658 1.7338-2.8907 3.4197-3.5434l57.931-22.432c3.5469-1.311 12.907-1.7703 22.054-0.18974l4e-3 6.4e-4c9.1464 1.5806 18.085 5.1983 20.787 12.055 0.68326 1.7336 0.83676 3.6104 0.66142 5.5524 0.57814-2.6987 0.58809-5.3073-0.33996-7.6621-2.7025-6.8569-11.641-10.475-20.787-12.055l-4e-3 -6.4e-4z" fill="#ebdbb2"/>
    </g>
  </g>
</svg>
