<svg width="256" height="256" style="isolation:isolate" version="1.1" viewBox="0 0 256 256" xmlns="http://www.w3.org/2000/svg">
  <defs>
    <filter id="cjusmgGv39ZMfNx0bVB3EHhewa8p6JTR" x="-.042124" y="-.045133" width="1.0842" height="1.1078" color-interpolation-filters="sRGB">
      <feGaussianBlur in="SourceGraphic" stdDeviation="4.294"/>
      <feOffset dx="0" dy="4" result="pf_100_offsetBlur"/>
      <feFlood flood-opacity=".4"/>
      <feComposite in2="pf_100_offsetBlur" operator="in" result="pf_100_dropShadow"/>
      <feBlend in="SourceGraphic" in2="pf_100_dropShadow"/>
    </filter>
  </defs>
  <g filter="url(#cjusmgGv39ZMfNx0bVB3EHhewa8p6JTR)">
    <linearGradient id="_lgradient_102" x1=".187" x2=".19" y1=".005" y2=".999" gradientTransform="matrix(244.65 0 0 228.34 5.68 11.952)" gradientUnits="userSpaceOnUse">
      <stop stop-color="#83a598" offset="0"/>
      <stop stop-color="#458588" offset="1"/>
    </linearGradient>
    <path d="m165.69 11.952c74.056 0 84.639 10.557 84.639 84.543v59.251c0 73.987-10.583 84.544-84.639 84.544h-75.37c-74.055 0-84.639-10.557-84.639-84.544v-59.251c0-73.986 10.584-84.543 84.639-84.543h75.37z" fill="url(#_lgradient_102)"/>
  </g>
  <g opacity=".4">
    <linearGradient id="_lgradient_103" x1=".517" x2=".517" y2="1" gradientTransform="matrix(244.65,0,0,228.34,5.68,11.95)" gradientUnits="userSpaceOnUse">
      <stop stop-color="#ebdbb2" offset="0"/>
      <stop stop-color="#ebdbb2" stop-opacity=".098" offset=".125"/>
      <stop stop-color="#282828" stop-opacity=".098" offset=".925"/>
      <stop stop-color="#282828" stop-opacity=".498" offset="1"/>
    </linearGradient>
    <path d="m165.07 11.951c4.328-0.01 8.656 0.04 12.984 0.138 3.875 0.078 7.751 0.226 11.626 0.452 3.453 0.196 6.905 0.481 10.348 0.854 3.059 0.335 6.118 0.786 9.148 1.346 2.715 0.502 5.4 1.14 8.046 1.916 2.4 0.698 4.751 1.562 7.023 2.584 2.115 0.943 4.141 2.063 6.059 3.35 1.84 1.238 3.561 2.653 5.135 4.215 1.564 1.572 2.98 3.282 4.219 5.119 1.289 1.916 2.41 3.94 3.364 6.042 1.023 2.28 1.889 4.618 2.597 7.005 0.777 2.643 1.417 5.325 1.918 8.037 0.561 3.026 1.013 6.072 1.348 9.127 0.374 3.439 0.659 6.878 0.856 10.326 0.226 3.861 0.373 7.732 0.462 11.593 0.088 4.323 0.138 8.646 0.128 12.959v58.212c0.01 4.323-0.04 8.636-0.128 12.959-0.089 3.871-0.236 7.732-0.462 11.593-0.197 3.448-0.482 6.897-0.856 10.326-0.335 3.055-0.787 6.111-1.348 9.137-0.501 2.702-1.141 5.384-1.918 8.027-0.708 2.387-1.574 4.735-2.597 7.005-0.954 2.112-2.075 4.126-3.364 6.042-1.239 1.837-2.655 3.557-4.219 5.119-1.574 1.562-3.295 2.977-5.135 4.215-1.918 1.287-3.944 2.407-6.059 3.35-2.272 1.022-4.623 1.886-7.023 2.594-2.646 0.776-5.331 1.414-8.046 1.906-3.03 0.569-6.089 1.011-9.148 1.346-3.443 0.373-6.895 0.658-10.348 0.854-3.875 0.226-7.751 0.374-11.626 0.462-4.328 0.088-8.656 0.138-12.984 0.128h-74.126c-4.328 0.01-8.656-0.04-12.984-0.128-3.875-0.088-7.751-0.236-11.626-0.462-3.453-0.196-6.905-0.481-10.348-0.854-3.059-0.335-6.118-0.777-9.148-1.346-2.715-0.492-5.4-1.13-8.046-1.906-2.4-0.708-4.751-1.572-7.023-2.594-2.115-0.943-4.141-2.063-6.059-3.35-1.84-1.238-3.561-2.653-5.135-4.215-1.564-1.562-2.98-3.282-4.219-5.119-1.289-1.916-2.41-3.93-3.364-6.042-1.023-2.27-1.889-4.618-2.597-7.005-0.777-2.643-1.417-5.325-1.918-8.027-0.561-3.026-1.013-6.082-1.348-9.137-0.374-3.429-0.659-6.878-0.856-10.326-0.226-3.861-0.373-7.722-0.462-11.593-0.088-4.323-0.138-8.636-0.128-12.959v-58.212c-0.01-4.313 0.04-8.636 0.128-12.959 0.089-3.861 0.236-7.732 0.462-11.593 0.197-3.448 0.482-6.887 0.856-10.326 0.335-3.055 0.787-6.101 1.348-9.127 0.501-2.712 1.141-5.394 1.918-8.037 0.708-2.387 1.574-4.725 2.597-7.005 0.954-2.102 2.075-4.126 3.364-6.042 1.239-1.837 2.655-3.547 4.219-5.119 1.574-1.562 3.295-2.977 5.135-4.215 1.918-1.287 3.944-2.407 6.059-3.35 2.272-1.022 4.623-1.886 7.023-2.584 2.646-0.776 5.331-1.414 8.046-1.916 3.03-0.56 6.089-1.011 9.148-1.346 3.443-0.373 6.895-0.658 10.348-0.854 3.875-0.226 7.751-0.374 11.626-0.452 4.328-0.098 8.656-0.148 12.984-0.138h74.126zm0.01 4.009c4.298-0.01 8.597 0.039 12.895 0.127 3.827 0.089 7.653 0.236 11.479 0.452 3.384 0.197 6.767 0.472 10.131 0.845 2.971 0.315 5.932 0.747 8.863 1.297 2.577 0.472 5.134 1.081 7.653 1.818 2.223 0.648 4.396 1.454 6.501 2.397 1.909 0.855 3.738 1.867 5.469 3.026 1.623 1.091 3.138 2.338 4.525 3.724 1.387 1.385 2.636 2.898 3.738 4.519 1.16 1.729 2.174 3.547 3.029 5.443 0.945 2.112 1.751 4.284 2.4 6.494 0.748 2.515 1.348 5.06 1.83 7.634 0.541 2.928 0.974 5.875 1.298 8.842 0.374 3.36 0.65 6.73 0.846 10.11 0.217 3.822 0.374 7.634 0.453 11.456 0.088 4.293 0.137 8.577 0.137 12.87v58.212c0 4.293-0.049 8.577-0.137 12.87-0.079 3.822-0.236 7.644-0.453 11.456-0.196 3.38-0.472 6.75-0.846 10.12-0.324 2.957-0.757 5.904-1.298 8.832-0.482 2.574-1.082 5.119-1.83 7.634-0.649 2.22-1.455 4.382-2.4 6.494-0.855 1.896-1.869 3.724-3.029 5.443-1.102 1.631-2.351 3.144-3.738 4.529-1.387 1.376-2.902 2.623-4.525 3.714-1.731 1.159-3.56 2.171-5.469 3.026-2.105 0.953-4.278 1.749-6.501 2.397-2.519 0.737-5.076 1.346-7.653 1.818-2.931 0.55-5.892 0.982-8.863 1.306-3.364 0.364-6.747 0.649-10.131 0.836-3.826 0.216-7.652 0.373-11.479 0.452-4.298 0.098-8.597 0.137-12.895 0.137h-0.01-74.126-0.01c-4.298 0-8.597-0.039-12.895-0.137-3.827-0.079-7.653-0.236-11.479-0.452-3.384-0.187-6.767-0.472-10.131-0.836-2.971-0.324-5.932-0.756-8.863-1.306-2.577-0.472-5.134-1.081-7.653-1.818-2.223-0.648-4.396-1.444-6.501-2.397-1.909-0.855-3.738-1.867-5.469-3.026-1.623-1.091-3.138-2.338-4.525-3.714-1.387-1.385-2.636-2.898-3.738-4.529-1.16-1.719-2.174-3.547-3.029-5.443-0.945-2.112-1.751-4.274-2.4-6.494-0.748-2.515-1.348-5.06-1.83-7.634-0.541-2.928-0.974-5.875-1.298-8.832-0.374-3.37-0.649-6.74-0.846-10.12-0.217-3.812-0.374-7.634-0.453-11.456-0.088-4.293-0.137-8.577-0.137-12.87v-58.212c0-4.293 0.049-8.577 0.137-12.87 0.079-3.822 0.236-7.634 0.453-11.456 0.197-3.38 0.472-6.75 0.846-10.11 0.324-2.967 0.757-5.914 1.298-8.842 0.482-2.574 1.082-5.119 1.83-7.634 0.649-2.21 1.455-4.382 2.4-6.494 0.855-1.896 1.869-3.714 3.029-5.443 1.102-1.621 2.351-3.134 3.738-4.519 1.387-1.386 2.902-2.633 4.525-3.724 1.731-1.159 3.56-2.171 5.469-3.026 2.105-0.943 4.278-1.749 6.501-2.397 2.519-0.737 5.076-1.346 7.653-1.818 2.931-0.55 5.892-0.982 8.863-1.297 3.364-0.373 6.747-0.648 10.131-0.845 3.826-0.216 7.652-0.363 11.479-0.452 4.298-0.088 8.597-0.137 12.895-0.127h0.01 74.126 0.01z" fill="url(#_lgradient_103)" fill-rule="evenodd"/>
  </g>
  <path d="m91.697 61.745c-11.35 0.13-19.655-0.258-26.446 3.474-3.395 1.865-6.09 5.007-7.576 8.947-1.485 3.94-2.008 8.62-2.008 14.528v37.728h144.33v-23.356c0-5.907-0.523-10.587-2.009-14.527-0.184-0.49-0.432-0.934-0.67-1.386-0.09-0.166-0.16-0.342-0.246-0.509-1.558-3.043-3.838-5.52-6.66-7.07-6.791-3.731-15.096-3.326-26.446-3.457h-36.435l-14.627-14.372h-21.21z" fill="#458588"/>
  <defs>
    <filter id="FD3jI8nvPgqGBOK1Ou9hZFcdLxrAU4yg" x="-.071402" y="-.089627" width="1.1428" height="1.214" color-interpolation-filters="sRGB">
      <feGaussianBlur in="SourceGraphic" stdDeviation="4.294"/>
      <feOffset dx="0" dy="4" result="pf_100_offsetBlur"/>
      <feFlood flood-opacity=".4"/>
      <feComposite in2="pf_100_offsetBlur" operator="in" result="pf_100_dropShadow"/>
      <feBlend in="SourceGraphic" in2="pf_100_dropShadow"/>
    </filter>
  </defs>
  <g filter="url(#FD3jI8nvPgqGBOK1Ou9hZFcdLxrAU4yg)">
    <path d="m163.97 76.117c11.35 0.13 19.654-0.257 26.445 3.474 3.396 1.866 6.091 5.008 7.576 8.948 1.486 3.94 2.009 8.62 2.009 14.527v61.084c0 5.908-0.523 10.588-2.009 14.528-1.485 3.94-4.18 7.1-7.576 8.965-6.79 3.731-15.096 3.326-26.445 3.457h-72.275c-11.35-0.131-19.655 0.274-26.446-3.457-3.396-1.865-6.09-5.025-7.576-8.965-1.483-3.94-2.006-8.62-2.006-14.528v-46.71c0-5.907 0.523-10.587 2.008-14.527 0.185-0.49 0.432-0.934 0.67-1.386 0.09-0.166 0.16-0.342 0.246-0.509 1.558-3.043 3.838-5.52 6.66-7.07 6.791-3.732 15.096-3.326 26.446-3.457h22.003l14.626-14.373h35.644v-1e-3z" fill="#83a598" fill-opacity=".99608"/>
  </g>
  <g opacity=".4">
    <path d="m91.697 61.745c-11.35 0.13-19.655-0.258-26.446 3.474-3.395 1.865-6.09 5.007-7.576 8.947-1.485 3.94-2.008 8.62-2.008 14.528v1.796c0-5.907 0.523-10.587 2.008-14.527 1.486-3.94 4.18-7.082 7.576-8.948 6.791-3.73 15.096-3.344 26.446-3.474h21.209l14.11 13.864 1.31-1.288h-0.793l-14.627-14.372h-21.209z" fill="#ebdbb2"/>
  </g>
  <path d="m128.33 76.117-14.627 14.373h-22.003c-11.35 0.13-19.654-0.275-26.446 3.457-2.821 1.55-5.102 4.027-6.66 7.07-0.085 0.167-0.156 0.343-0.246 0.509-0.238 0.452-0.485 0.896-0.67 1.386-1.485 3.94-2.008 8.62-2.008 14.527v1.797c0-5.907 0.523-10.587 2.008-14.527 0.185-0.49 0.432-0.935 0.67-1.386 0.09-0.166 0.16-0.342 0.247-0.51 1.557-3.042 3.838-5.52 6.66-7.07 6.791-3.731 15.095-3.326 26.445-3.456h22.003l14.627-14.373h35.642c11.35 0.13 19.655-0.257 26.446 3.474 3.395 1.865 6.09 5.008 7.576 8.948 1.485 3.94 2.008 8.62 2.008 14.527v-1.797c0-5.907-0.523-10.587-2.008-14.527s-4.18-7.082-7.576-8.948c-6.791-3.73-15.096-3.343-26.446-3.474h-35.642z" fill="#ebdbb2"/>
  <defs>
    <filter id="cBvq5FSUYJmNwJguS4KD14KQRkB2f4tp" x="-.17596" y="-.10984" width="1.3519" height="1.2623" color-interpolation-filters="sRGB">
      <feGaussianBlur in="SourceGraphic" stdDeviation="4.294"/>
      <feOffset dx="0" dy="4" result="pf_100_offsetBlur"/>
      <feFlood flood-opacity=".4"/>
      <feComposite in2="pf_100_offsetBlur" operator="in" result="pf_100_dropShadow"/>
      <feBlend in="SourceGraphic" in2="pf_100_dropShadow"/>
    </filter>
  </defs>
  <g filter="url(#cBvq5FSUYJmNwJguS4KD14KQRkB2f4tp)">
    <linearGradient id="_lgradient_104" x2="0" y2="1" gradientTransform="matrix(58.567 0 0 93.822 121.43 116.18)" gradientUnits="userSpaceOnUse">
      <stop stop-color="#ebdbb2" offset="0"/>
      <stop stop-color="#d5c4a1" offset="1"/>
    </linearGradient>
    <path d="m156.5 209.36c-0.325 0-0.643 0-1.306-0.318-0.646-0.331-1.292-0.977-1.938-1.623l-12.016-27.928-14.61 13.636c-0.327 0.643-0.974 0.974-1.95 0.974-0.332 0-0.975 0-1.293-0.331-0.977-0.315-1.954-1.624-1.954-2.916v-71.426c0-1.292 0.649-2.597 1.954-2.915 0.318-0.332 0.964-0.332 1.295-0.332 0.65 0 1.624 0.332 2.273 0.974l51.947 48.7c0.974 0.98 1.305 2.273 0.974 3.565-0.332 1.308-1.624 1.954-2.916 2.286l-20.457 1.938 12.655 27.596c0.331 0.65 0.331 1.624 0 2.6-0.315 0.65-0.974 1.624-1.623 1.955l-9.409 4.208c-0.65-0.646-1.308-0.646-1.623-0.646l-3e-3 3e-3z" fill="url(#_lgradient_104)"/>
  </g>
</svg>
