<svg width="256" height="256" style="isolation:isolate" version="1.1" viewBox="0 0 256 256" xmlns="http://www.w3.org/2000/svg">
  <defs>
    <linearGradient id="c" x1=".517" x2=".517" y2="1" gradientTransform="matrix(244.6 0 0 228.3 5.68 11.95)" gradientUnits="userSpaceOnUse">
      <stop stop-color="#d5c4a1" offset="0"/>
      <stop stop-color="#ebdbb2" stop-opacity=".098" offset=".125"/>
      <stop stop-color="#282828" stop-opacity=".09804" offset=".925"/>
      <stop stop-color="#282828" stop-opacity=".498" offset="1"/>
    </linearGradient>
    <filter id="a" x="-.04212" y="-.04513" width="1.084" height="1.108" color-interpolation-filters="sRGB">
      <feGaussianBlur in="SourceGraphic" stdDeviation="4.294"/>
      <feOffset dy="4" result="pf_100_offsetBlur"/>
      <feFlood flood-opacity=".4"/>
      <feComposite in2="pf_100_offsetBlur" operator="in" result="pf_100_dropShadow"/>
      <feBlend in="SourceGraphic" in2="pf_100_dropShadow"/>
    </filter>
    <linearGradient id="b" x1=".5" x2=".5" y1="-.0005124" y2="1" gradientTransform="matrix(244.6 0 0 228.3 5.676 11.95)" gradientUnits="userSpaceOnUse">
      <stop stop-color="#282828" offset="0"/>
      <stop stop-color="#3c3836" offset="1"/>
    </linearGradient>
  </defs>
  <g transform="translate(.004996 -.116)" filter="url(#a)" style="isolation:isolate">
    <path d="m165.7 11.95c72.71 0 84.64 12.05 84.64 84.54v59.25c0 72.56-11.93 84.54-84.64 84.54h-75.37c-72.29 0-84.64-11.98-84.64-84.54v-59.25c0-72.49 12.33-84.54 84.64-84.54z" fill="url(#b)"/>
  </g>
  <g transform="translate(.004996 -.116)" opacity=".4" style="isolation:isolate">
    <path d="m165.1 11.95c4.328-0.01 8.656 0.04 12.98 0.138 3.875 0.078 7.744 0.2585 11.62 0.4845 3.453 0.196 6.888 0.5327 10.33 0.9057 3.06 0.335 6.089 0.8341 9.119 1.394 2.713 0.5003 5.352 1.181 8 1.957 2.398 0.6968 4.754 1.61 7.032 2.634 2.112 0.9412 4.043 2.044 5.963 3.332 1.84 1.24 3.6 2.701 5.174 4.265 1.565 1.569 2.886 3.163 4.128 4.999 1.286 1.917 2.409 3.871 3.36 5.974 1.021 2.275 1.919 4.577 2.628 6.968 0.777 2.644 1.478 5.327 1.979 8.037 0.562 3.025 1.063 6.06 1.399 9.118 0.374 3.439 0.7087 6.849 0.9057 10.3 0.226 3.861 0.4217 7.739 0.5107 11.6 0.088 4.323 0.138 8.646 0.128 12.96v58.21c0.01 4.324-0.04 8.637-0.128 12.96-0.085 3.867-0.2882 7.733-0.5111 11.6-0.1966 3.449-0.5382 6.947-0.9122 10.38-0.3363 3.061-0.8294 6.032-1.391 9.06-0.502 2.707-1.187 5.346-1.963 7.987-0.7071 2.391-1.566 4.626-2.589 6.9-0.95 2.105-2.162 4.229-3.451 6.145-1.239 1.838-2.538 3.39-4.105 4.957-1.575 1.564-3.412 3.071-5.252 4.311-1.92 1.288-3.861 2.37-5.973 3.311-2.35 1.074-4.574 1.872-6.932 2.584-2.678 0.8166-5.293 1.417-7.976 1.948-3.031 0.566-6.051 1.061-9.116 1.392-3.504 0.4087-6.82 0.6843-10.34 0.9038-3.875 0.226-7.789 0.4001-11.66 0.4881-4.328 0.088-8.631 0.1508-12.96 0.1408h-74.13c-4.328 0.01-8.657-0.0545-12.98-0.1425-3.905-0.0955-7.745-0.2467-11.63-0.4908-3.494-0.2192-7.044-0.5149-10.45-0.928-3.187-0.3766-5.934-0.7937-8.995-1.39-2.833-0.5614-5.342-1.164-7.946-1.957-2.43-0.7318-4.81-1.627-7.052-2.655-2.139-0.9789-4.062-2.064-5.998-3.373-1.84-1.24-3.514-2.65-5.089-4.213-1.568-1.567-2.906-3.179-4.145-5.016-1.288-1.916-2.402-3.833-3.352-5.938-1.022-2.274-1.924-4.524-2.631-6.914-0.7758-2.641-1.498-5.305-2-8.012-0.562-3.028-1.094-6.109-1.43-9.17-0.374-3.434-0.7262-6.846-0.9227-10.3-0.2229-3.861-0.4218-7.743-0.5068-11.61-0.09185-4.319-0.1345-8.64-0.128-12.96v-58.21c-0.01-4.314 0.04-8.637 0.128-12.96 0.089-3.86 0.2802-7.735 0.5062-11.6 0.197-3.448 0.5488-6.857 0.9228-10.3 0.335-3.055 0.8734-6.164 1.434-9.19 0.5008-2.71 1.181-5.226 1.958-7.87 0.7087-2.39 1.755-4.987 2.776-7.261 0.9521-2.104 1.963-3.8 3.25-5.717 1.242-1.836 2.594-3.46 4.159-5.03 1.574-1.564 3.327-3.021 5.168-4.261 1.92-1.288 3.824-2.385 5.936-3.326 2.278-1.024 4.543-1.924 6.941-2.62 2.647-0.7762 5.274-1.476 7.987-1.976 3.032-0.5612 6.138-1.085 9.203-1.421 3.443-0.373 6.84-0.7129 10.29-0.9089 3.875-0.226 7.733-0.4151 11.61-0.4931 4.328-0.098 8.662-0.1461 12.99-0.1361zm0.01 4.009c4.298-0.01 8.597 0.039 12.9 0.127 3.827 0.089 7.647 0.2685 11.47 0.4845 3.383 0.197 6.772 0.4395 10.14 0.8125 2.971 0.315 5.939 0.7487 8.87 1.299 2.581 0.4734 5.106 1.072 7.624 1.81 2.219 0.6492 4.414 1.456 6.523 2.403 1.905 0.8527 3.718 1.854 5.453 3.015 1.624 1.093 3.157 2.35 4.541 3.735 1.386 1.385 2.637 2.898 3.738 4.519 1.16 1.727 2.174 3.547 3.03 5.443 0.9449 2.108 1.747 4.278 2.4 6.494 0.7415 2.511 1.352 5.059 1.829 7.634 0.54 2.928 0.974 5.875 1.298 8.842 0.374 3.36 0.65 6.73 0.846 10.11 0.217 3.822 0.374 7.634 0.453 11.46 0.088 4.293 0.137 8.577 0.137 12.87v58.21c0 4.293-0.049 8.577-0.137 12.87-0.082 3.821-0.0546 7.643-0.2746 11.46-0.196 3.38-0.6504 6.747-1.024 10.12-0.3245 2.959-0.7575 5.905-1.298 8.832-0.4773 2.575-1.088 5.123-1.83 7.634-0.6517 2.217-1.454 4.386-2.4 6.494-0.8542 1.897-1.868 3.718-3.03 5.443-1.098 1.626-2.349 3.143-3.737 4.53-1.388 1.378-2.903 2.621-4.525 3.713-1.734 1.161-3.564 2.173-5.469 3.026-2.108 0.9512-4.28 1.752-6.501 2.397-2.518 0.7378-5.072 1.345-7.653 1.818-2.931 0.55-5.883 0.9816-8.854 1.306-3.364 0.364-6.756 0.6494-10.14 0.8364-3.827 0.216-7.678 0.3602-11.5 0.4392-4.298 0.098-8.572 0.1498-12.87 0.1498h-74.15c-4.298 0-8.598-0.0545-12.9-0.1515-3.829-0.082-7.658-0.2615-11.48-0.4808-3.383-0.19-6.759-0.4254-10.13-0.7927-2.97-0.3217-5.926-0.7574-8.863-1.306-2.581-0.4734-5.135-1.08-7.653-1.818-2.221-0.6448-4.367-1.432-6.475-2.383-1.905-0.8527-3.755-1.872-5.49-3.033-1.622-1.092-3.143-2.342-4.53-3.72-1.388-1.386-2.64-2.903-3.738-4.529-1.162-1.725-2.176-3.546-3.03-5.443-0.9464-2.108-1.748-4.277-2.4-6.494-0.7415-2.511-1.352-5.059-1.829-7.634-0.5405-2.927-0.9735-5.873-1.298-8.832-0.374-3.37-0.65-6.74-0.846-10.12-0.2199-3.816-0.371-7.635-0.453-11.46-0.08992-4.289-0.1356-8.58-0.137-12.87v-58.21c0-4.293 0.049-8.577 0.137-12.87 0.079-3.822 0.236-7.634 0.453-11.46 0.197-3.38 0.472-6.75 0.846-10.11 0.324-2.967 0.757-5.914 1.298-8.842 0.4773-2.575 1.092-5.138 1.833-7.649 0.6533-2.216 1.452-4.371 2.397-6.479 0.8563-1.896 1.87-3.716 3.03-5.443 1.1-1.621 2.352-3.135 3.737-4.52 1.385-1.384 2.9-2.631 4.525-3.723 1.734-1.161 3.564-2.173 5.469-3.026 2.11-0.9469 4.282-1.748 6.501-2.397 2.518-0.7378 5.072-1.345 7.653-1.818 2.931-0.55 5.892-0.982 8.863-1.297 3.364-0.373 6.743-0.6464 10.13-0.8434 3.824-0.2144 7.655-0.3667 11.48-0.4536 4.298-0.088 8.597-0.137 12.9-0.127z" fill="url(#c)" fill-rule="evenodd"/>
  </g>
  <g transform="matrix(2.971 0 0 2.971 -237.1 -92.55)">
    <circle transform="scale(-1,1)" cx="-122.9" cy="74.77" r="27.06" fill="#282828" stroke-width="1.424" style="isolation:isolate"/>
    <circle cx="122.8" cy="73.56" r="26.98" fill="#fe8019" stroke-width="1.038"/>
    <path d="m120.2 46.69c-3.233 0.2845-6.661 1.259-9.771 2.857 0.1357 0.4317-0.0156 0.9189-0.5121 1.349-0.3359 0.2911-0.6113 0.7445-0.6113 1.009 0 0.809 0.7316 2.052 1.315 2.232 0.7763 0.2402 0.5151 1.068-0.4821 1.525-0.461 0.2121-1.028 0.8208-1.261 1.354-0.2324 0.5334-0.5764 1.061-0.7615 1.17-0.1851 0.1095-0.3372 0.5268-0.3372 0.9275 0 0.5596 0.2555 0.8309 1.096 1.167 0.602 0.2409 1.322 0.4163 1.602 0.39 1.606-0.1512 1.718 0.7844 0.3135 2.614-0.7459 0.9712-1.104 1.215-1.613 1.094-0.474-0.1139-0.7332 0.02013-0.9486 0.4901-0.2277 0.4968-0.5996 0.6659-1.599 0.7351-0.9826 0.06801-1.423 0.2676-1.792 0.8063-0.2687 0.3927-0.6573 0.7114-0.8642 0.7114-0.2069 0-0.693 0.2633-1.08 0.585-0.7885 0.6548-1.096 0.7207-1.373 0.2924-0.3653-0.5666-1.154-0.2802-2.327 0.8426-1.037 0.9941-1.163 1.26-1.007 2.121 0.2784 1.534 1.11 2.895 2.061 3.37 0.829 0.4143 0.8451 0.459 0.3426 0.9907-0.2891 0.3059-0.7851 0.6337-1.101 0.7298-0.9133 0.2775-0.3992 0.6256 1.231 0.8326 1.668 0.2118 2.186 0.8171 1.407 1.642-0.4346 0.4598-0.4101 0.5453 0.2872 0.9828 1.363 0.8572 2.446 0.3321 1.167-0.5624-0.8221-0.5749-0.2474-0.8094 0.9591-0.3923 0.9614 0.3328 1.152 0.3139 1.721-0.1792 1.166-1.011 2.434 0.4841 1.368 1.613-0.6788 0.7182-0.4731 1.585 0.4057 1.705 0.3883 0.05292 1.195 0.4143 1.794 0.8036 0.5992 0.3894 1.253 0.7088 1.449 0.7088s0.753 0.395 1.236 0.8774c0.9795 0.9789 1.523 1.103 1.799 0.4136 0.3323-0.829 0.1986-1.257-0.6956-2.232-0.7119-0.7767-1.868-2.841-1.868-3.335 0-0.3057 1.176-0.04649 1.834 0.4032 0.4119 0.2814 1.078 0.6443 1.481 0.8089 0.4297 0.1757 0.8746 0.7206 1.077 1.318 0.3183 0.9353 0.4437 1.017 1.565 1.017h1.22l0.1844 2.192c0.222 2.637 0.4334 3.171 1.339 3.388 0.6667 0.1602 1.378 1.192 1.378 2 0 0.2146-0.4797 0.7402-1.065 1.167-0.726 0.5302-1.039 0.981-0.9907 1.423 0.0603 0.5518-0.0646 0.6377-0.8457 0.5797-0.5039-0.03746-1.377 0.1392-1.94 0.3926-0.6644 0.2995-1.385 0.3954-2.061 0.2741-0.7772-0.1397-1.041-0.0854-1.041 0.2186 0 0.2236-0.2715 0.6425-0.6033 0.9301-0.821 0.7114-0.4817 1.088 0.7772 0.8616 0.7826-0.1405 1.088-0.07803 1.222 0.2582 0.2872 0.7169-0.4409 1.742-1.118 1.573-0.4281-0.1071-0.6339 0.03881-0.7668 0.5454-0.0471 0.1794-0.1311 0.3627-0.2318 0.4924 1.39 0.528 2.801 0.9351 4.268 1.231-0.1347-0.2587-0.2878-0.4921-0.4374-0.5978-0.6953-0.4917-0.2302-1.767 0.7272-1.998 0.9746-0.2342 0.821-0.8669-0.2398-0.988-0.9285-0.1061-1.919-1.046-1.607-1.529 0.2085-0.323 1.098-0.2759 2.895 0.1502 0.8119 0.1925 1.368-0.1936 3.249-2.253 1.09-1.192 1.926-1.689 2.845-1.689 0.3501 0 1.6-0.3221 2.78-0.7167 2.227-0.7449 3.097-0.7179 3.015 0.09485-0.1706 1.691 0.919 1.635 2.693-0.137 0.7393-0.7388 1.414-1.272 1.502-1.188 0.3393 0.3249-0.2709 1.907-0.9828 2.548-0.9021 0.8115-0.9469 1.324-0.1529 1.731 0.435 0.2229 0.6196 0.6759 0.6877 1.691l0.0923 1.386h1.128c0.3956 0 0.723 0.08455 0.988 0.1858 7.931-4.731 12.84-13.23 13.1-22.3-0.4128-0.882-0.3952-1.415-0.012-2.015-0.0263-0.5052-0.0531-1.01-0.1075-1.512-0.246-0.01121-0.527-0.02252-0.8156-0.01059-1.359 0.05655-2.524-0.4793-2.524-1.162 0-0.1438-0.4821-0.7381-1.072-1.32-0.6685-0.6591-1.012-1.241-0.9116-1.544 0.0911-0.275-0.1058-0.7185-0.4532-1.02-0.3383-0.2932-0.6165-0.7655-0.6165-1.049 0-0.452-0.2877-0.5088-2.366-0.4585l-2.366 0.05797 0.0396 2.332c0.0702 4.084 0.6785 5.145 2.556 4.461 0.8592-0.3133 2.97-0.07606 3.57 0.4005 0.2171 0.1726 0.5315 0.7983 0.6983 1.392 0.1668 0.5929 0.7852 1.619 1.375 2.279 1.197 1.338 1.289 1.86 0.6033 3.431-0.598 1.371-1.242 1.212-1.115-0.2741l0.0949-1.106-1.012 0.1897c-0.5599 0.1054-1.262 0.5196-1.575 0.9275-0.4478 0.5814-0.6577 0.6673-0.9933 0.4005-0.2339-0.1859-0.4242-0.5784-0.4242-0.8695 0-0.2911-0.289-0.6152-0.6403-0.7219-0.3513-0.1068-0.8328-0.6373-1.07-1.181-0.3792-0.8688-0.3698-1.134 0.0711-2.19 0.4473-1.07 0.4517-1.247 0.0396-1.642-0.378-0.3619-0.5728-0.3736-1.07-0.07638-0.4996 0.2988-0.7346 0.2767-1.328-0.1212-0.3966-0.266-1.088-0.4848-1.536-0.4848-0.9106 0-1.186-0.443-1.186-1.907 0-1.353-0.807-1.844-2.727-1.668-1.333 0.1227-1.627 0.03485-2.703-0.7931-0.664-0.511-1.713-1.742-2.335-2.738-0.621-0.9957-1.289-2.036-1.484-2.311-0.2811-0.3974-0.2127-0.7789 0.3373-1.863l0.693-1.363-1.465 0.1976c-2.607 0.3525-3.134 0.6904-2.013 1.291 0.4366 0.2339 0.4557 0.3542 0.1186 0.743-0.2208 0.2548-0.3247 0.6575-0.2292 0.8959 0.0956 0.2383-0.0252 0.7991-0.2688 1.246-0.2437 0.4473-0.4477 1.075-0.4559 1.397-0.0255 1.006-1.748 1.806-3.665 1.7-2.906-0.1603-3.141-0.1146-4.174 0.8432-1.29 1.198-1.457 1.755-0.8563 2.866 0.5825 1.078 1.615 1.509 3.404 1.421 1.6-0.07939 1.781 0.06185 1.414 1.12-0.311 0.898-1.356 1.244-2.063 0.6824-0.5451-0.4331-2.424-0.09838-3.001 0.5348-0.2417 0.2655-0.6003 0.9608-0.7957 1.544-0.3373 1.007-0.4355 1.068-1.947 1.214-1.508 0.1464-1.653 0.09816-2.738-0.9012-1.211-1.116-1.415-1.966-0.8326-3.436 0.2582-0.6502 0.4509-0.756 1.14-0.6297 1.368 0.2504 1.907-0.2252 1.907-1.686 0-0.7086-0.1377-1.371-0.3056-1.47-0.1679-0.09941-0.3056-0.4749-0.3056-0.8353s-0.1721-0.8237-0.3821-1.028c-0.306-0.297-0.2618-0.456 0.2266-0.801 0.3351-0.2367 0.8858-0.3961 1.222-0.3557 0.3367 0.04045 1.265-0.105 2.066-0.3215 1.156-0.3128 1.495-0.5489 1.652-1.157 0.2968-1.155 1.021-2.082 1.628-2.082 0.9595 0 0.9791-2.256 0.0475-5.536-0.1391-0.4848-0.5168-0.7934-1.187-0.9595-0.5417-0.1345-1.131-0.5041-1.31-0.8221-0.1764-0.318-0.5022-0.577-0.7222-0.577s-0.6498-0.2633-0.9538-0.585c-0.306-0.3238-0.9391-0.585-1.421-0.585-1.139 0-1.159-0.7849-0.0289-1.199 1.194-0.4375 3.052 0.1359 3.501 1.08 0.6092 1.281 1.285 0.746 1.502-1.188 0.2689-2.393 1.094-3.08 3.696-3.08h1.871l-0.8194-0.8194c-0.2553-0.2557-0.467-0.5923-0.6143-0.8989zm9.699 0.845c-0.052 0.04751-0.1032 0.1137-0.1555 0.1672-0.6255 0.6388-0.9189 0.7298-1.887 0.5823-1.689-0.2576-1.472 0.4225 0.3979 1.243 1.011 0.444 1.66 0.9502 1.881 1.462 1.066 2.471 1.799 3.801 2.169 3.936 0.7453 0.2739 1.189-0.2761 1.354-1.681 0.1898-1.612 0.7356-1.954 1.715-1.072 0.3802 0.3419 0.911 0.6218 1.181 0.6218 0.8368 0 1.457 0.3362 1.457 0.7904 0 0.2394 0.2824 0.8161 0.6297 1.284 0.5107 0.6867 0.8579 0.851 1.813 0.851 1.172 0 1.892 0.2193 3.359 1.03 0.0228 0.01255 0.0457 0.01429 0.0685 0.02631-3.559-4.478-8.461-7.73-13.98-9.242zm-34.13 25.9c-0.0018 0.03875-0.0035 0.07747-0.0051 0.1162-0.0047 1.647 0.1697 3.483 0.5035 5.189 0.9774 0.3983 1.272 0.234 1.374-0.6757 0.0524-0.4701 0.2982-1.004 0.548-1.188 0.3858-0.2843 0.3163-0.4296-0.4742-0.9692-0.5118-0.3487-1.016-0.9589-1.12-1.355-0.1005-0.3819-0.441-0.8011-0.826-1.117zm8.494 8.919c-0.2516-0.02646-0.556 0.1093-0.8932 0.4321-0.7135 0.6831-0.6058 2.056 0.2029 2.598 0.9262 0.6212 1.285 0.4402 1.402-0.7062 0.1444-1.414-0.1577-2.265-0.7114-2.323zm4.58 4.078c-0.2755 0.0093-0.579 0.2068-0.8827 0.6218-0.3222 0.4404-0.4106 1.008-0.2872 1.871 0.1518 1.06 0.0855 1.286-0.4691 1.57-0.7125 0.3651-0.8649 1.45-0.2819 2.008 0.5807 0.556 1.133 0.4107 1.333-0.3504 0.2842-1.084 1.871-1.212 2.956-0.2371 0.4619 0.4149 0.8406 0.6258 0.8406 0.4664 0-0.1593-0.4819-0.7376-1.07-1.284-0.9004-0.8356-1.067-1.192-1.067-2.268 0-1.52-0.4661-2.417-1.072-2.398zm-7.519 3.484c0.2032 0.2665 0.4114 0.5291 0.6245 0.7878-0.1839-0.2823-0.3939-0.5562-0.6245-0.7866zm9.093 4.142c-0.1373 0.04711-0.195 0.2182-0.195 0.5191 0 0.3045-0.1947 0.6242-0.4321 0.7114-0.3153 0.1157-0.3883 0.4816-0.2661 1.354 0.0229 0.1635 0.0289 0.3134 0.0369 0.4485 0.3817 0.2147 0.827 0.4475 1.123 0.5945-0.0185-0.4667 0.0668-1.052 0.3109-1.741 0.414-1.167 0.4289-1.461 0.0923-1.666-0.3167-0.1923-0.532-0.2685-0.6692-0.2213z" opacity=".4" stroke-width="1.038"/>
    <path d="m122.8 46.53a26.98 26.98 0 0 0-26.98 26.98 26.98 26.98 0 0 0 0.03813 0.8796 27.06 27.06 0 0 1 27.04-26.72 27.06 27.06 0 0 1 26.7 22.69 26.98 26.98 0 0 0-26.8-23.83z" fill="#ebdbb2" opacity=".2" stroke-width="1.038" style="isolation:isolate"/>
  </g>
</svg>
