<svg width="256" height="256" style="isolation:isolate" version="1.1" viewBox="0 0 256 256" xmlns="http://www.w3.org/2000/svg">
  <defs>
    <filter id="tbKnTHiyPhSHZuGB71v1HHjBwUNqcD7v" x="-.042124" y="-.045133" width="1.0842" height="1.1078" color-interpolation-filters="sRGB">
      <feGaussianBlur in="SourceGraphic" stdDeviation="4.294"/>
      <feOffset dx="0" dy="4" result="pf_100_offsetBlur"/>
      <feFlood flood-opacity=".4"/>
      <feComposite in2="pf_100_offsetBlur" operator="in" result="pf_100_dropShadow"/>
      <feBlend in="SourceGraphic" in2="pf_100_dropShadow"/>
    </filter>
  </defs>
  <g filter="url(#tbKnTHiyPhSHZuGB71v1HHjBwUNqcD7v)">
    <linearGradient id="_lgradient_120" x2="0" y2="1" gradientTransform="matrix(244.65 0 0 228.34 5.68 11.952)" gradientUnits="userSpaceOnUse">
      <stop stop-color="#ebdbb2" offset="0"/>
      <stop stop-color="#d5c4a1" offset="1"/>
    </linearGradient>
    <path d="m165.69 11.952c74.056 0 84.639 10.557 84.639 84.544v59.251c0 73.986-10.584 84.544-84.639 84.544h-75.37c-74.056 0-84.639-10.557-84.639-84.544v-59.251c0-73.987 10.584-84.544 84.639-84.544h75.37z" fill="url(#_lgradient_120)"/>
  </g>
  <linearGradient id="_lgradient_121" x2="0" y2="1" gradientTransform="matrix(244.65 0 0 228.34 5.68 11.952)" gradientUnits="userSpaceOnUse">
    <stop stop-color="#504945" offset="0"/>
    <stop stop-color="#3c3836" offset="1"/>
  </linearGradient>
  <path d="m165.69 11.952c74.056 0 84.639 10.557 84.639 84.544v59.251c0 73.986-10.584 84.544-84.639 84.544h-75.37c-74.056 0-84.639-10.557-84.639-84.544v-59.251c0-73.987 10.584-84.544 84.639-84.544h75.37zm0.021088 19.998c4.23 0 8.47 0.039999 12.7 0.13 3.68 0.079998 7.36 0.23 11.04 0.44 3.13 0.17 6.26 0.43 9.38 0.78 2.58 0.28 5.14 0.65 7.69 1.12 2.02 0.38 4.02 0.85 5.99 1.43 1.47 0.43 2.92 0.96 4.32 1.59 1 0.45 1.97 0.99 2.88 1.6 0.68999 0.47 1.34 1 1.94 1.59 0.59001 0.59 1.12 1.24 1.59 1.93 0.61 0.91 1.14 1.87 1.59 2.87 0.63 1.4 1.16 2.84 1.6 4.31 0.57001 1.97 1.05 3.96 1.42 5.98 0.47 2.54 0.84999 5.1 1.13 7.67 0.34001 3.12 0.60001 6.24 0.78 9.37 0.21001 3.67 0.36 7.35 0.44 11.03 0.089996 4.23 0.13 8.45 0.13 12.68v0.029999 59.25 0.020004c0 4.23-0.040009 8.46-0.13 12.68-0.080002 3.68-0.23 7.36-0.44 11.03-0.17999 3.13-0.43999 6.25-0.78 9.37-0.28 2.57-0.65999 5.13-1.13 7.68-0.37001 2.01-0.85001 4-1.42 5.97-0.43999 1.47-0.96999 2.91-1.6 4.31-0.45 1-0.98 1.96-1.59 2.87-0.47 0.69-1 1.34-1.59 1.93-0.59999 0.59-1.25 1.12-1.94 1.59-0.91 0.61-1.88 1.15-2.88 1.6-1.4 0.62999-2.85 1.16-4.32 1.59-1.97 0.58-3.97 1.06-5.99 1.43-2.55 0.46999-5.11 0.84999-7.69 1.13-3.12 0.34-6.25 0.60001-9.38 0.77-3.68 0.20999-7.36 0.36-11.04 0.44-4.23 0.089996-8.47 0.12999-12.7 0.12999h-0.020005-75.37-0.019997c-4.24 0-8.47-0.039993-12.7-0.12999-3.68-0.080002-7.37-0.23001-11.04-0.44-3.14-0.17-6.26-0.43001-9.38-0.77-2.58-0.28-5.15-0.66-7.69-1.13-2.02-0.37001-4.02-0.85001-5.99-1.43-1.47-0.42999-2.92-0.96001-4.32-1.59-1-0.45-1.97-0.99-2.88-1.6-0.7-0.47-1.34-1-1.94-1.59-0.59-0.59-1.12-1.24-1.59-1.93-0.61-0.90999-1.15-1.87-1.6-2.87-0.62-1.4-1.16-2.84-1.59-4.31-0.58-1.97-1.05-3.96-1.42-5.97-0.48-2.55-0.85-5.11-1.13-7.68-0.35-3.12-0.61-6.24-0.78-9.37-0.21-3.67-0.36-7.35-0.44-11.03-0.09-4.22-0.13-8.45-0.13-12.68v-0.020004-59.25-0.029999c0-4.23 0.039999-8.45 0.13-12.68 0.08-3.68 0.23-7.36 0.44-11.03 0.17-3.13 0.43-6.25 0.78-9.37 0.28-2.57 0.65-5.13 1.13-7.67 0.37-2.02 0.84-4.01 1.42-5.98 0.43-1.47 0.97-2.91 1.59-4.31 0.45-1 0.99-1.96 1.6-2.87 0.47-0.69 1-1.34 1.59-1.93 0.6-0.59 1.24-1.12 1.94-1.59 0.91-0.61 1.88-1.15 2.88-1.6 1.4-0.63 2.85-1.16 4.32-1.59 1.97-0.58 3.97-1.05 5.99-1.43 2.54-0.47 5.11-0.84 7.69-1.12 3.12-0.35 6.24-0.61 9.38-0.78 3.67-0.21 7.36-0.36 11.04-0.44 4.23-0.090002 8.46-0.13 12.7-0.13h0.019997 75.37 0.020005z" fill="url(#_lgradient_121)" fill-rule="evenodd"/>
  <g opacity=".4">
    <linearGradient id="_lgradient_122" x1=".517" x2=".517" y2="1" gradientTransform="matrix(244.65,0,0,228.34,5.68,11.95)" gradientUnits="userSpaceOnUse">
      <stop stop-color="#ebdbb2" offset="0"/>
      <stop stop-color="#ebdbb2" stop-opacity=".098" offset=".125"/>
      <stop stop-color="#282828" stop-opacity=".098" offset=".925"/>
      <stop stop-color="#282828" stop-opacity=".498" offset="1"/>
    </linearGradient>
    <path d="m165.07 11.951c4.328-0.009825 8.6559 0.039299 12.984 0.13755 3.8755 0.078598 7.751 0.22597 11.626 0.45194 3.4525 0.1965 6.9051 0.48141 10.348 0.85476 3.0591 0.33404 6.1182 0.78598 9.1477 1.346 2.7148 0.50106 5.4001 1.1397 8.0461 1.9158 2.4 0.69756 4.7509 1.5621 7.0231 2.5839 2.1148 0.94318 4.1411 2.0632 6.0591 3.3502 1.8394 1.2379 3.5607 2.6527 5.1345 4.2148 1.564 1.572 2.9804 3.2815 4.2198 5.1187 1.2886 1.9158 2.4099 3.9397 3.364 6.0422 1.023 2.2793 1.8886 4.6176 2.5968 7.0051 0.77706 2.6429 1.4164 5.325 1.9181 8.0367 0.56066 3.026 1.0131 6.0717 1.3476 9.1272 0.37378 3.4387 0.65903 6.8773 0.85575 10.326 0.22624 3.8611 0.37378 7.7321 0.46231 11.593 0.088537 4.3229 0.13771 8.6458 0.12788 12.959v58.212c0.009831 4.3229-0.039339 8.636-0.12788 12.959-0.088523 3.871-0.23606 7.7321-0.46231 11.593-0.19672 3.4485-0.48197 6.897-0.85575 10.326-0.33443 3.0555-0.7869 6.111-1.3476 9.137-0.50166 2.7018-1.141 5.384-1.9181 8.0269-0.70821 2.3874-1.5738 4.7355-2.5968 7.0051-0.9541 2.1123-2.0754 4.1264-3.364 6.0422-1.2394 1.8372-2.6558 3.5566-4.2198 5.1187-1.5738 1.5621-3.2952 2.9769-5.1345 4.2148-1.9181 1.287-3.9443 2.4071-6.0591 3.3502-2.2722 1.0218-4.623 1.8864-7.0231 2.5937-2.646 0.77616-5.3313 1.4148-8.0461 1.906-3.0296 0.56984-6.0886 1.012-9.1477 1.346-3.4427 0.37333-6.8952 0.65826-10.348 0.85475-3.8755 0.22597-7.751 0.37335-11.626 0.46177-4.328 0.088419-8.6559 0.13755-12.984 0.12773h-74.126c-4.328 0.009819-8.6559-0.039308-12.984-0.12773-3.8755-0.08842-7.751-0.2358-11.626-0.46177-3.4525-0.19649-6.9051-0.48142-10.348-0.85475-3.0591-0.33405-6.1182-0.77616-9.1477-1.346-2.7148-0.49124-5.4001-1.1298-8.0461-1.906-2.4-0.70737-4.7509-1.572-7.0231-2.5937-2.1148-0.94317-4.1411-2.0632-6.0591-3.3502-1.8394-1.2379-3.5607-2.6527-5.1345-4.2148-1.564-1.5621-2.9804-3.2815-4.2198-5.1187-1.2886-1.9158-2.4099-3.9299-3.364-6.0422-1.023-2.2695-1.8886-4.6176-2.5968-7.0051-0.77706-2.6429-1.4164-5.325-1.9181-8.0269-0.56067-3.026-1.0131-6.0815-1.3476-9.137-0.37378-3.4289-0.65903-6.8773-0.85576-10.326-0.22623-3.8611-0.37378-7.7223-0.4623-11.593-0.088526-4.3229-0.13771-8.636-0.12787-12.959v-58.212c-0.009836-4.3131 0.039345-8.636 0.12787-12.959 0.088527-3.8611 0.23607-7.7321 0.4623-11.593 0.19672-3.4485 0.48198-6.8872 0.85576-10.326 0.33443-3.0555 0.7869-6.1012 1.3476-9.1272 0.50165-2.7116 1.141-5.3938 1.9181-8.0367 0.70821-2.3874 1.5738-4.7257 2.5968-7.0051 0.95412-2.1025 2.0755-4.1264 3.364-6.0422 1.2394-1.8372 2.6558-3.5467 4.2198-5.1187 1.5738-1.5621 3.2951-2.9769 5.1345-4.2148 1.9181-1.287 3.9443-2.4071 6.0591-3.3502 2.2722-1.0218 4.623-1.8864 7.0231-2.5839 2.646-0.77616 5.3313-1.4148 8.0461-1.9158 3.0296-0.56001 6.0886-1.012 9.1477-1.346 3.4427-0.37334 6.8952-0.65826 10.348-0.85476 3.8755-0.22597 7.751-0.37334 11.626-0.45194 4.3279-0.098248 8.6559-0.14737 12.984-0.13755h74.126zm0.009846 4.0085c4.2984-0.009825 8.5969 0.039299 12.895 0.12772 3.8263 0.088423 7.6526 0.23579 11.479 0.45194 3.3837 0.1965 6.7674 0.47159 10.131 0.84493 2.9705 0.31439 5.9313 0.74668 8.8625 1.2969 2.5771 0.47159 5.1345 1.0807 7.6526 1.8176 2.223 0.64844 4.3968 1.4541 6.5018 2.3972 1.9082 0.85476 3.7378 1.8667 5.469 3.026 1.623 1.0906 3.1378 2.3383 4.5247 3.7236s2.6361 2.8983 3.7378 4.5194c1.1607 1.7292 2.1738 3.5467 3.0296 5.4429 0.94427 2.1123 1.7509 4.2836 2.4 6.4942 0.74756 2.5151 1.3476 5.0598 1.8295 7.6338 0.541 2.9278 0.9738 5.8752 1.2984 8.8423 0.37378 3.3601 0.6492 6.73 0.84592 10.11 0.2164 3.8218 0.37378 7.6338 0.45246 11.456 0.088538 4.2934 0.13771 8.577 0.13771 12.87v58.212c0 4.2934-0.049169 8.577-0.13771 12.87-0.078677 3.8218-0.23606 7.6437-0.45246 11.456-0.19672 3.3797-0.47214 6.7496-0.84592 10.12-0.3246 2.9573-0.7574 5.9047-1.2984 8.8325-0.48197 2.5741-1.082 5.1187-1.8295 7.6339-0.64918 2.2204-1.4558 4.3819-2.4 6.4942-0.85576 1.8962-1.8689 3.7236-3.0296 5.4429-1.1017 1.6309-2.3509 3.1439-3.7378 4.5292-1.3869 1.3755-2.9017 2.6232-4.5247 3.7138-1.7312 1.1593-3.5607 2.1713-5.469 3.026-2.105 0.953-4.2788 1.7488-6.5018 2.3972-2.5181 0.73686-5.0755 1.346-7.6526 1.8176-2.9312 0.55018-5.8919 0.98248-8.8625 1.3067-3.364 0.36351-6.7477 0.64844-10.131 0.8351-3.8263 0.21615-7.6526 0.37335-11.479 0.45195-4.2985 0.098254-8.5969 0.13755-12.895 0.13755h-0.009846-74.126-0.009838c-4.2984 0-8.5969-0.039292-12.895-0.13755-3.8263-0.0786-7.6526-0.2358-11.479-0.45195-3.3837-0.18666-6.7673-0.47158-10.131-0.8351-2.9706-0.32422-5.9313-0.75651-8.8625-1.3067-2.5771-0.47158-5.1345-1.0807-7.6526-1.8176-2.223-0.64842-4.3968-1.4442-6.5018-2.3972-1.9082-0.85475-3.7378-1.8667-5.469-3.026-1.623-1.0906-3.1378-2.3383-4.5247-3.7138-1.3869-1.3853-2.6361-2.8983-3.7378-4.5292-1.1607-1.7193-2.1738-3.5467-3.0296-5.4429-0.94428-2.1123-1.7509-4.2738-2.4-6.4942-0.74756-2.5151-1.3476-5.0598-1.8295-7.6339-0.541-2.9278-0.97379-5.8752-1.2984-8.8325-0.37378-3.3699-0.64919-6.7398-0.84592-10.12-0.2164-3.812-0.37378-7.6339-0.45247-11.456-0.088526-4.2934-0.13771-8.577-0.13771-12.87v-58.212c0-4.2934 0.049181-8.577 0.13771-12.87 0.07869-3.8218 0.23607-7.6338 0.45247-11.456 0.19672-3.3797 0.47214-6.7496 0.84592-10.11 0.3246-2.9671 0.75739-5.9145 1.2984-8.8423 0.48198-2.5741 1.082-5.1187 1.8295-7.6338 0.64919-2.2106 1.4558-4.3818 2.4-6.4942 0.85575-1.8962 1.8689-3.7138 3.0296-5.4429 1.1017-1.6211 2.3509-3.1341 3.7378-4.5194s2.9017-2.633 4.5247-3.7236c1.7312-1.1593 3.5607-2.1713 5.469-3.026 2.105-0.94318 4.2788-1.7488 6.5018-2.3972 2.5181-0.73686 5.0755-1.346 7.6526-1.8176 2.9312-0.55019 5.8919-0.98248 8.8625-1.2969 3.364-0.37334 6.7477-0.64843 10.131-0.84493 3.8263-0.21614 7.6526-0.36352 11.479-0.45194 4.2984-0.088423 8.5969-0.13755 12.895-0.12772h0.009838 74.126 0.009846z" fill="url(#_lgradient_122)" fill-rule="evenodd"/>
  </g>
  <linearGradient id="_lgradient_123" x2="0" y2="1" gradientTransform="matrix(145,0,0,145,55.5,55.5)" gradientUnits="userSpaceOnUse">
    <stop stop-color="#504945" offset="0"/>
    <stop stop-color="#3c3836" offset="1"/>
  </linearGradient>
  <path d="m161.53 79.827c-9.5059-6.6298-21.066-10.518-33.535-10.518-12.468 0-24.029 3.888-33.535 10.518l-21.289-21.289c-1.9333-1.9333-4.5571-3.0381-7.319-3.0381-2.7619 0-5.3857 1.1048-7.319 3.0381-1.9333 1.9333-3.0381 4.5571-3.0381 7.319 0 2.7619 1.1048 5.3857 3.0381 7.319l21.289 21.289c-6.6298 9.5059-10.518 21.066-10.518 33.535 0 12.468 3.888 24.029 10.518 33.535l-21.289 21.289c-1.9333 1.9333-3.0381 4.5571-3.0381 7.319s1.1048 5.3857 3.0381 7.319c1.9333 1.9333 4.5571 3.0381 7.319 3.0381 2.7619 0 5.3857-1.1048 7.319-3.0381l21.289-21.289c9.5059 6.6298 21.066 10.518 33.535 10.518 12.468 0 24.029-3.888 33.535-10.518l21.289 21.289c1.9333 1.9333 4.5571 3.0381 7.319 3.0381s5.3857-1.1048 7.319-3.0381c1.9333-1.9333 3.0381-4.5571 3.0381-7.319s-1.1048-5.3857-3.0381-7.319l-21.289-21.289c6.6298-9.5059 10.518-21.066 10.518-33.535 0-12.468-3.888-24.029-10.518-33.535l21.289-21.289c1.9333-1.9333 3.0381-4.5571 3.0381-7.319 0-2.7619-1.1048-5.3857-3.0381-7.319-1.9333-1.9333-4.5571-3.0381-7.319-3.0381s-5.3857 1.1048-7.319 3.0381l-21.289 21.289zm-0.37399 29.65c3.0671 5.4793 4.8156 11.797 4.8156 18.523s-1.7484 13.043-4.8156 18.523l-18.523-18.523 18.523-18.523zm-14.638-14.638c-5.4793-3.0671-11.797-4.8156-18.523-4.8156-6.7258 0-13.043 1.7484-18.523 4.8156l18.523 18.523 18.523-18.523zm-37.045 66.321c5.4793 3.0671 11.797 4.8156 18.523 4.8156s13.043-1.7484 18.523-4.8156l-18.523-18.523-18.523 18.523zm-14.638-14.638c-3.0671-5.4793-4.8156-11.797-4.8156-18.523 0-6.7258 1.7484-13.043 4.8156-18.523l18.523 18.523-18.523 18.523z" fill="url(#_lgradient_123)" fill-rule="evenodd"/>
</svg>
