<svg width="256" height="256" style="isolation:isolate" version="1.1" viewBox="0 0 256 256" xmlns="http://www.w3.org/2000/svg" xmlns:xlink="http://www.w3.org/1999/xlink">
  <defs>
    <filter id="1JveZMMsQMyLZ8eZva52UIoClj7OKOEM" x="-.042124" y="-.045133" width="1.0842" height="1.1078" color-interpolation-filters="sRGB">
      <feGaussianBlur in="SourceGraphic" stdDeviation="4.294"/>
      <feOffset dx="0" dy="4" result="pf_100_offsetBlur"/>
      <feFlood flood-opacity=".4"/>
      <feComposite in2="pf_100_offsetBlur" operator="in" result="pf_100_dropShadow"/>
      <feBlend in="SourceGraphic" in2="pf_100_dropShadow"/>
    </filter>
    <linearGradient id="linearGradient5819" x1=".97929" x2=".45164" y1=".47847" y2=".97249" gradientTransform="matrix(38.671 0 0 29.515 108.66 133.43)" gradientUnits="userSpaceOnUse">
      <stop stop-color="#558c61" offset="0"/>
      <stop stop-color="#4d855d" offset="1"/>
    </linearGradient>
  </defs>
  <g filter="url(#1JveZMMsQMyLZ8eZva52UIoClj7OKOEM)">
    <linearGradient id="_lgradient_8" x2="0" y2="1" gradientTransform="matrix(244.65 0 0 228.34 5.68 11.952)" gradientUnits="userSpaceOnUse">
      <stop stop-color="#fabd2f" offset="0"/>
      <stop stop-color="#d79921" offset="1"/>
    </linearGradient>
    <path d="m165.69 11.952c74.056 0 84.639 10.557 84.639 84.543v59.251c0 73.987-10.583 84.544-84.639 84.544h-75.37c-74.055 0-84.639-10.557-84.639-84.544v-59.251c0-73.986 10.584-84.543 84.639-84.543h75.37z" fill="url(#_lgradient_8)"/>
  </g>
  <path d="m66.723 72.927v-8.713h-15.247-15.247v-8.712-8.712h-8.712-8.713v8.712 8.712h-5.808-5.808l2e-3 -1.361c6e-3 -4.61 2.845-18.19 4.862-23.264 5.65-14.211 15.779-21.472 34.705-24.879 13.408-2.413 23.634-2.76 81.316-2.762 46.276-1e-3 59.223 0.231 70.064 1.257 24.36 2.304 36.788 8.576 43.785 22.097 1.528 2.952 4.131 9.893 4.131 11.014 0 0.373-1.47 0.474-6.897 0.474h-6.897v8.717 8.717l-12.978-0.096-12.978-0.095-0.097-8.622-0.098-8.621h-8.706-8.705v8.712 8.712h-6.535-6.534v8.713 8.712h-8.712-8.713v-8.712-8.713h-8.712-8.713v8.713 8.712h-6.534-6.534v-17.425-17.424h-6.535-6.534v8.712 8.712h-8.712-8.713v-19.603-19.602h-6.534-6.535v28.315 28.315h-8.712-8.712v-8.712z" fill="#8ec07c"/>
  <g opacity=".4">
    <linearGradient id="_lgradient_9" x1=".517" x2=".517" y2="1" gradientTransform="matrix(244.65,0,0,228.34,5.68,11.95)" gradientUnits="userSpaceOnUse">
      <stop stop-color="#ebdbb2" offset="0"/>
      <stop stop-color="#ebdbb2" stop-opacity=".098" offset=".125"/>
      <stop stop-color="#282828" stop-opacity=".098" offset=".925"/>
      <stop stop-color="#282828" stop-opacity=".498" offset="1"/>
    </linearGradient>
    <path d="m165.07 11.951c4.328-0.01 8.656 0.04 12.984 0.138 3.875 0.078 7.751 0.226 11.626 0.452 3.453 0.196 6.905 0.481 10.348 0.854 3.059 0.335 6.118 0.786 9.148 1.346 2.715 0.502 5.4 1.14 8.046 1.916 2.4 0.698 4.751 1.562 7.023 2.584 2.115 0.943 4.141 2.063 6.059 3.35 1.84 1.238 3.561 2.653 5.135 4.215 1.564 1.572 2.98 3.282 4.219 5.119 1.289 1.916 2.41 3.94 3.364 6.042 1.023 2.28 1.889 4.618 2.597 7.005 0.777 2.643 1.417 5.325 1.918 8.037 0.561 3.026 1.013 6.072 1.348 9.127 0.374 3.439 0.659 6.878 0.856 10.326 0.226 3.861 0.373 7.732 0.462 11.593 0.088 4.323 0.138 8.646 0.128 12.959v58.212c0.01 4.323-0.04 8.636-0.128 12.959-0.089 3.871-0.236 7.732-0.462 11.593-0.197 3.448-0.482 6.897-0.856 10.326-0.335 3.055-0.787 6.111-1.348 9.137-0.501 2.702-1.141 5.384-1.918 8.027-0.708 2.387-1.574 4.735-2.597 7.005-0.954 2.112-2.075 4.126-3.364 6.042-1.239 1.837-2.655 3.557-4.219 5.119-1.574 1.562-3.295 2.977-5.135 4.215-1.918 1.287-3.944 2.407-6.059 3.35-2.272 1.022-4.623 1.886-7.023 2.594-2.646 0.776-5.331 1.414-8.046 1.906-3.03 0.569-6.089 1.011-9.148 1.346-3.443 0.373-6.895 0.658-10.348 0.854-3.875 0.226-7.751 0.374-11.626 0.462-4.328 0.088-8.656 0.138-12.984 0.128h-74.126c-4.328 0.01-8.656-0.04-12.984-0.128-3.875-0.088-7.751-0.236-11.626-0.462-3.453-0.196-6.905-0.481-10.348-0.854-3.059-0.335-6.118-0.777-9.148-1.346-2.715-0.492-5.4-1.13-8.046-1.906-2.4-0.708-4.751-1.572-7.023-2.594-2.115-0.943-4.141-2.063-6.059-3.35-1.84-1.238-3.561-2.653-5.135-4.215-1.564-1.562-2.98-3.282-4.219-5.119-1.289-1.916-2.41-3.93-3.364-6.042-1.023-2.27-1.889-4.618-2.597-7.005-0.777-2.643-1.417-5.325-1.918-8.027-0.561-3.026-1.013-6.082-1.348-9.137-0.374-3.429-0.659-6.878-0.856-10.326-0.226-3.861-0.373-7.722-0.462-11.593-0.088-4.323-0.138-8.636-0.128-12.959v-58.212c-0.01-4.313 0.04-8.636 0.128-12.959 0.089-3.861 0.236-7.732 0.462-11.593 0.197-3.448 0.482-6.887 0.856-10.326 0.335-3.055 0.787-6.101 1.348-9.127 0.501-2.712 1.141-5.394 1.918-8.037 0.708-2.387 1.574-4.725 2.597-7.005 0.954-2.102 2.075-4.126 3.364-6.042 1.239-1.837 2.655-3.547 4.219-5.119 1.574-1.562 3.295-2.977 5.135-4.215 1.918-1.287 3.944-2.407 6.059-3.35 2.272-1.022 4.623-1.886 7.023-2.584 2.646-0.776 5.331-1.414 8.046-1.916 3.03-0.56 6.089-1.011 9.148-1.346 3.443-0.373 6.895-0.658 10.348-0.854 3.875-0.226 7.751-0.374 11.626-0.452 4.328-0.098 8.656-0.148 12.984-0.138h74.126zm0.01 4.009c4.298-0.01 8.597 0.039 12.895 0.127 3.827 0.089 7.653 0.236 11.479 0.452 3.384 0.197 6.767 0.472 10.131 0.845 2.971 0.315 5.932 0.747 8.863 1.297 2.577 0.472 5.134 1.081 7.653 1.818 2.223 0.648 4.396 1.454 6.501 2.397 1.909 0.855 3.738 1.867 5.469 3.026 1.623 1.091 3.138 2.338 4.525 3.724 1.387 1.385 2.636 2.898 3.738 4.519 1.16 1.729 2.174 3.547 3.029 5.443 0.945 2.112 1.751 4.284 2.4 6.494 0.748 2.515 1.348 5.06 1.83 7.634 0.541 2.928 0.974 5.875 1.298 8.842 0.374 3.36 0.65 6.73 0.846 10.11 0.217 3.822 0.374 7.634 0.453 11.456 0.088 4.293 0.137 8.577 0.137 12.87v58.212c0 4.293-0.049 8.577-0.137 12.87-0.079 3.822-0.236 7.644-0.453 11.456-0.196 3.38-0.472 6.75-0.846 10.12-0.324 2.957-0.757 5.904-1.298 8.832-0.482 2.574-1.082 5.119-1.83 7.634-0.649 2.22-1.455 4.382-2.4 6.494-0.855 1.896-1.869 3.724-3.029 5.443-1.102 1.631-2.351 3.144-3.738 4.529-1.387 1.376-2.902 2.623-4.525 3.714-1.731 1.159-3.56 2.171-5.469 3.026-2.105 0.953-4.278 1.749-6.501 2.397-2.519 0.737-5.076 1.346-7.653 1.818-2.931 0.55-5.892 0.982-8.863 1.306-3.364 0.364-6.747 0.649-10.131 0.836-3.826 0.216-7.652 0.373-11.479 0.452-4.298 0.098-8.597 0.137-12.895 0.137h-0.01-74.126-0.01c-4.298 0-8.597-0.039-12.895-0.137-3.827-0.079-7.653-0.236-11.479-0.452-3.384-0.187-6.767-0.472-10.131-0.836-2.971-0.324-5.932-0.756-8.863-1.306-2.577-0.472-5.134-1.081-7.653-1.818-2.223-0.648-4.396-1.444-6.501-2.397-1.909-0.855-3.738-1.867-5.469-3.026-1.623-1.091-3.138-2.338-4.525-3.714-1.387-1.385-2.636-2.898-3.738-4.529-1.16-1.719-2.174-3.547-3.029-5.443-0.945-2.112-1.751-4.274-2.4-6.494-0.748-2.515-1.348-5.06-1.83-7.634-0.541-2.928-0.974-5.875-1.298-8.832-0.374-3.37-0.649-6.74-0.846-10.12-0.217-3.812-0.374-7.634-0.453-11.456-0.088-4.293-0.137-8.577-0.137-12.87v-58.212c0-4.293 0.049-8.577 0.137-12.87 0.079-3.822 0.236-7.634 0.453-11.456 0.197-3.38 0.472-6.75 0.846-10.11 0.324-2.967 0.757-5.914 1.298-8.842 0.482-2.574 1.082-5.119 1.83-7.634 0.649-2.21 1.455-4.382 2.4-6.494 0.855-1.896 1.869-3.714 3.029-5.443 1.102-1.621 2.351-3.134 3.738-4.519 1.387-1.386 2.902-2.633 4.525-3.724 1.731-1.159 3.56-2.171 5.469-3.026 2.105-0.943 4.278-1.749 6.501-2.397 2.519-0.737 5.076-1.346 7.653-1.818 2.931-0.55 5.892-0.982 8.863-1.297 3.364-0.373 6.747-0.648 10.131-0.845 3.826-0.216 7.652-0.363 11.479-0.452 4.298-0.088 8.597-0.137 12.895-0.127h0.01 74.126 0.01z" fill="url(#_lgradient_9)" fill-rule="evenodd"/>
  </g>
  <defs>
    <filter id="qlX4SFGgbF3zxNjw2xqHNx30KYIRDI7G" x="-.072895" y="-.15794" width="1.1458" height="1.3159" color-interpolation-filters="sRGB">
      <feGaussianBlur stdDeviation="4.294"/>
    </filter>
  </defs>
  <g filter="url(#qlX4SFGgbF3zxNjw2xqHNx30KYIRDI7G)" opacity=".4">
    <path d="m170.76 186.25c-11.607 0-26.771-7.047-41.601-19.336l-1.156-0.96-1.156 0.96c-14.83 12.289-29.994 19.336-41.601 19.336-15.402 0-27.93-14.638-27.93-32.625s12.528-32.625 27.93-32.625c11.669 0 26.829 7.022 41.601 19.26l1.156 0.96 1.156-0.96c14.769-12.242 29.932-19.26 41.601-19.26 15.403 0 27.931 14.638 27.931 32.625s-12.529 32.625-27.931 32.625zm-3.93-44.276c-4.973 0-11.52 3.248-20.6 10.216l-1.871 1.435 1.874 1.436c9.081 6.967 15.628 10.215 20.601 10.215 6.242 0 11.317-5.227 11.317-11.651 0-6.423-5.078-11.651-11.321-11.651zm-77.654 0c-6.243 0-11.318 5.228-11.318 11.651 0 6.424 5.075 11.651 11.318 11.651 4.973 0 11.52-3.248 20.601-10.215l1.874-1.436-1.874-1.436c-9.081-6.97-15.628-10.215-20.601-10.215z"/>
  </g>
  <linearGradient id="_lgradient_10" x1=".5" x2=".5" y2="1" gradientTransform="matrix(141.38 0 0 65.25 57.313 115.56)" gradientUnits="userSpaceOnUse">
    <stop stop-color="#8ec07c" offset="0"/>
    <stop stop-color="#689d6a" offset="1"/>
  </linearGradient>
  <path d="m170.76 180.81c-11.607 0-26.771-7.048-41.601-19.336l-1.156-0.961-1.156 0.961c-14.83 12.288-29.994 19.336-41.601 19.336-15.402 0-27.93-14.638-27.93-32.625 0-17.988 12.528-32.625 27.93-32.625 11.669 0 26.829 7.021 41.601 19.259l1.156 0.961 1.156-0.961c14.769-12.242 29.932-19.259 41.601-19.259 15.402 0 27.931 14.637 27.931 32.625 0 17.987-12.529 32.625-27.931 32.625zm-3.93-44.276c-4.973 0-11.52 3.248-20.601 10.215l-1.87 1.436 1.874 1.435c9.081 6.967 15.628 10.215 20.601 10.215 6.242 0 11.317-5.227 11.317-11.65 0-6.424-5.078-11.651-11.321-11.651zm-77.654 0c-6.243 0-11.318 5.227-11.318 11.651 0 6.423 5.075 11.65 11.318 11.65 4.973 0 11.52-3.248 20.601-10.215l1.874-1.435-1.874-1.436c-9.081-6.971-15.628-10.215-20.601-10.215z" fill="url(#_lgradient_10)"/>
  <linearGradient id="_lgradient_11" x2="0" y2="1" gradientTransform="matrix(145,0,0,68.875,55.5,113.75)" gradientUnits="userSpaceOnUse">
    <stop stop-color="#689d6a" offset="0"/>
    <stop stop-color="#427b58" offset="1"/>
  </linearGradient>
  <path d="m170.76 117.38c14.402 0 26.118 13.822 26.118 30.813 0 16.99-11.716 30.812-26.118 30.812-11.027 0-26.147-7.072-40.444-18.922l-2.313-1.914-2.313 1.917c-14.297 11.847-29.417 18.919-40.444 18.919-14.402 0-26.118-13.822-26.118-30.812 0-16.991 11.716-30.813 26.118-30.813 11.085 0 26.202 7.043 40.444 18.846l2.313 1.914 2.313-1.917c14.239-11.8 29.359-18.843 40.444-18.843zm-3.93 44.276c7.243 0 13.134-6.04 13.134-13.463 0-7.424-5.891-13.464-13.134-13.464-5.394 0-12.288 3.364-21.699 10.589l-3.748 2.875 3.745 2.874c9.414 7.225 16.308 10.589 21.702 10.589zm-77.654 0c5.394 0 12.288-3.364 21.699-10.589l3.745-2.874-3.745-2.875c-9.411-7.225-16.305-10.589-21.699-10.589-7.243 0-13.134 6.04-13.134 13.464 0 7.423 5.895 13.463 13.134 13.463zm81.584-47.901c-12.231 0-27.956 7.413-42.757 19.68-14.801-12.267-30.526-19.68-42.757-19.68-16.359 0-29.743 15.497-29.743 34.438 0 18.94 13.384 34.437 29.743 34.437 12.231 0 27.953-7.489 42.757-19.756 14.801 12.267 30.526 19.756 42.757 19.756 16.36 0 29.743-15.497 29.743-34.437 0-18.941-13.383-34.438-29.743-34.438zm-3.93 44.276c-5.064 0-11.929-4.035-19.491-9.838 7.562-5.804 14.431-9.839 19.491-9.839 5.242 0 9.509 4.416 9.509 9.839s-4.267 9.838-9.509 9.838zm-77.654 0c-5.242 0-9.509-4.415-9.509-9.838s4.267-9.839 9.509-9.839c5.064 0 11.93 4.035 19.491 9.839-7.558 5.803-14.427 9.838-19.491 9.838z" fill="url(#_lgradient_11)"/>
  <linearGradient id="_lgradient_12" x1=".55822" x2=".030059" y1=".033105" y2=".5281" gradientTransform="matrix(38.671 0 0 29.515 108.66 133.43)" gradientUnits="userSpaceOnUse">
    <stop stop-color="#5d9365" offset="0"/>
    <stop stop-color="#558c61" offset="1"/>
  </linearGradient>
  <path d="m128 133.43c-1.892 1.541 0.99-0.812-2.813 2.382-1.599 1.341-8.881 7.003-13.394 10.211-4.187 2.973-2.117 1.461-3.129 2.168 0 0 2.411 2.719 5.953 0 2.997-2.302 10.737-7.862 13.379-10.052 1.36-1.127 2.117-1.769 3.745-3.085z" fill="url(#_lgradient_12)"/>
  <path d="m128 162.94c1.892-1.541-0.99 0.812 2.813-2.382 0.51579-0.43257 1.6229-1.3148 3.0377-2.4191 1.916-1.4957 4.3964-3.399 6.7363-5.145 1.2885-0.96144 2.5344-1.8752 3.62-2.6469 4.187-2.973 2.117-1.461 3.129-2.168 0 0-2.411-2.719-5.952 0-2.998 2.302-10.738 7.862-13.38 10.052-1.36 1.127-2.117 1.769-3.745 3.085z" fill="url(#linearGradient5819)" style="isolation:isolate"/>
</svg>
