<svg width="256" height="256" style="isolation:isolate" version="1.1" xmlns="http://www.w3.org/2000/svg">
  <g filter="url(#a)">
    <linearGradient id="b" x1=".50002" x2=".50002" y1="-.00051239" y2="1" gradientTransform="matrix(244.65,0,0,228.34,5.676,11.947)" gradientUnits="userSpaceOnUse">
      <stop stop-color="#83a598" offset="0"/>
      <stop stop-color="#458588" offset="1"/>
    </linearGradient>
    <path d="m165.68 11.947c72.707 0 84.639 12.053 84.639 84.544v59.251c0 72.561-11.932 84.543-84.639 84.543h-75.37c-72.294 0-84.639-11.982-84.639-84.543v-59.251c0-72.491 12.329-84.544 84.639-84.544z" fill="url(#b)"/>
  </g>
  <defs>
    <filter id="a" x="-.042124" y="-.045133" width="1.0842" height="1.1078" color-interpolation-filters="sRGB">
      <feGaussianBlur in="SourceGraphic" stdDeviation="4.294"/>
      <feOffset dy="4" result="pf_100_offsetBlur"/>
      <feFlood flood-opacity=".4"/>
      <feComposite in2="pf_100_offsetBlur" operator="in" result="pf_100_dropShadow"/>
      <feBlend in="SourceGraphic" in2="pf_100_dropShadow"/>
    </filter>
    <filter id="filter4699" x="-.044406" y="-.046874" width="1.0888" height="1.0937" color-interpolation-filters="sRGB">
      <feGaussianBlur stdDeviation="3.219"/>
    </filter>
  </defs>
  <g opacity=".4">
    <linearGradient id="c" x1=".517" x2=".517" y2="1" gradientTransform="matrix(244.65,0,0,228.34,5.68,11.95)" gradientUnits="userSpaceOnUse">
      <stop stop-color="#d5c4a1" offset="0"/>
      <stop stop-color="#ebdbb2" stop-opacity=".098" offset=".125"/>
      <stop stop-color="#282828" stop-opacity=".098039" offset=".925"/>
      <stop stop-color="#282828" stop-opacity=".49804" offset="1"/>
    </linearGradient>
    <path d="m165.07 11.951c4.328-0.01 8.656 0.04 12.984 0.138 3.875 0.078 7.7436 0.25854 11.62 0.48454 3.453 0.196 6.8876 0.5327 10.33 0.9057 3.06 0.335 6.0892 0.83409 9.1192 1.3941 2.7131 0.50032 5.3525 1.181 7.9999 1.9571 2.3983 0.69679 4.7544 1.61 7.0323 2.6338 2.1121 0.94124 4.0427 2.0439 5.9631 3.3319 1.8405 1.2399 3.5996 2.7014 5.1741 4.2652 1.5652 1.5692 2.886 3.1628 4.1277 4.9987 1.2864 1.9174 2.4086 3.8707 3.3603 5.9744 1.0207 2.2746 1.9193 4.5772 2.628 6.9675 0.77696 2.6443 1.4779 5.3272 1.9787 8.0374 0.56201 3.0246 1.0626 6.0601 1.3989 9.1181 0.374 3.439 0.70873 6.8493 0.90573 10.297 0.226 3.861 0.42171 7.7394 0.51071 11.6 0.088 4.323 0.138 8.646 0.128 12.96v58.21c0.01 4.324-0.04 8.637-0.128 12.96-0.085 3.8668-0.28821 7.7331-0.51114 11.595-0.19655 3.4488-0.53822 6.9467-0.91224 10.38-0.33634 3.0613-0.82936 6.0316-1.3914 9.0596-0.50199 2.7066-1.1867 5.3458-1.9626 7.987-0.7071 2.3908-1.5665 4.6263-2.5888 6.9002-0.94995 2.1048-2.1624 4.2292-3.4512 6.1454-1.2392 1.8377-2.5377 3.3902-4.1052 4.9572-1.5746 1.5638-3.412 3.0712-5.2525 4.3111-1.9201 1.2879-3.8611 2.3701-5.9729 3.3114-2.3498 1.0736-4.5744 1.8717-6.9323 2.584-2.6776 0.81656-5.2934 1.4166-7.976 1.948-3.0309 0.56603-6.051 1.0612-9.1165 1.3921-3.5041 0.40869-6.8203 0.68433-10.336 0.90377-3.875 0.226-7.789 0.40013-11.665 0.48813-4.328 0.088-8.6314 0.15082-12.959 0.14082h-74.126c-4.328 0.01-8.6566-0.0545-12.985-0.14247-3.9049-0.0955-7.7449-0.24667-11.628-0.49085-3.4941-0.21923-7.0445-0.5149-10.452-0.92805-3.1873-0.37665-5.9337-0.7937-8.9951-1.3902-2.833-0.56139-5.3421-1.1637-7.9464-1.9566-2.4295-0.73175-4.8105-1.6266-7.0523-2.6548-2.139-0.97893-4.0617-2.0635-5.9983-3.3731-1.8405-1.2399-3.5141-2.6495-5.0886-4.2133-1.5676-1.5671-2.9061-3.1787-4.1454-5.0164-1.2884-1.9162-2.4021-3.8332-3.3518-5.9379-1.0223-2.2739-1.9238-4.5236-2.6309-6.9144-0.77585-2.6412-1.4977-5.3053-1.9996-8.0119-0.56202-3.028-1.0938-6.1087-1.4301-9.17-0.37402-3.4341-0.72617-6.8459-0.92272-10.295-0.22292-3.8613-0.42179-7.7427-0.50684-11.61-0.09185-4.3194-0.13452-8.6396-0.128-12.96v-58.21c-0.01-4.314 0.04-8.637 0.128-12.96 0.089-3.86 0.28015-7.7353 0.50615-11.596 0.197-3.448 0.54883-6.857 0.92283-10.296 0.335-3.055 0.87336-6.1638 1.4344-9.1898 0.50085-2.7102 1.1807-5.2262 1.9577-7.8705 0.70872-2.3902 1.7549-4.9868 2.7756-7.2614 0.95209-2.1037 1.9632-3.7998 3.2499-5.7172 1.2418-1.8358 2.594-3.4604 4.1593-5.0296 1.5745-1.5638 3.3273-3.0214 5.1678-4.2614 1.9201-1.2879 3.8238-2.3848 5.9356-3.3261 2.278-1.0238 4.5428-1.9236 6.9411-2.6204 2.6474-0.77617 5.2743-1.4761 7.9874-1.9764 3.0317-0.56124 6.1381-1.085 9.203-1.4208 3.443-0.373 6.8398-0.71288 10.293-0.90888 3.875-0.226 7.7331-0.41514 11.609-0.49314 4.328-0.098 8.6625-0.14613 12.991-0.13613zm0.01 4.009c4.298-0.01 8.597 0.039 12.895 0.127 3.827 0.089 7.6466 0.26854 11.474 0.48454 3.383 0.197 6.7724 0.43946 10.136 0.81246 2.971 0.315 5.9391 0.74869 8.8701 1.2987 2.5807 0.47339 5.1059 1.0723 7.6238 1.8101 2.2193 0.6492 4.4135 1.4563 6.5231 2.4032 1.9054 0.85272 3.7179 1.8543 5.4527 3.0153 1.6245 1.0927 3.1568 2.3505 4.5413 3.7347 1.3858 1.385 2.6374 2.8981 3.738 4.519 1.1601 1.7266 2.1737 3.5473 3.03 5.443 0.94487 2.1083 1.7467 4.2779 2.4 6.494 0.74152 2.5113 1.352 5.0594 1.829 7.634 0.54 2.928 0.974 5.875 1.298 8.842 0.374 3.36 0.65 6.73 0.846 10.11 0.217 3.822 0.374 7.634 0.453 11.456 0.088 4.293 0.137 8.577 0.137 12.87v58.212c0 4.293-0.049 8.577-0.137 12.87-0.082 3.8211-0.0546 7.643-0.27458 11.459-0.196 3.38-0.65042 6.7474-1.0244 10.117-0.3245 2.9589-0.75746 5.9049-1.298 8.832-0.47731 2.5747-1.0881 5.1228-1.83 7.634-0.65169 2.2166-1.4536 4.3863-2.4 6.494-0.8542 1.8968-1.8678 3.7176-3.03 5.443-1.0976 1.6263-2.349 3.1432-3.737 4.53-1.3876 1.3779-2.9027 2.6211-4.525 3.713-1.7345 1.161-3.564 2.1732-5.469 3.026-2.1078 0.95119-4.2802 1.7522-6.501 2.397-2.5179 0.7378-5.0723 1.3446-7.653 1.818-2.931 0.55-5.8828 0.98162-8.8538 1.3056-3.364 0.364-6.7562 0.64938-10.139 0.83638-3.827 0.216-7.6776 0.36018-11.505 0.43918-4.298 0.098-8.5724 0.14982-12.87 0.14982h-74.146c-4.298 0-8.5976-0.0545-12.896-0.15147-3.8291-0.082-7.6582-0.26152-11.482-0.48085-3.3834-0.19001-6.7587-0.42545-10.127-0.79268-2.97-0.32174-5.9265-0.7574-8.863-1.306-2.5807-0.47339-5.1351-1.0802-7.653-1.818-2.2208-0.64482-4.3673-1.4321-6.4751-2.3833-1.9053-0.85272-3.7547-1.8723-5.4895-3.0333-1.622-1.0922-3.1431-2.3423-4.5303-3.7205-1.3882-1.3864-2.64-2.903-3.738-4.529-1.1622-1.7254-2.1758-3.5462-3.03-5.443-0.94645-2.1077-1.7483-4.2774-2.4-6.494-0.74152-2.5113-1.352-5.0594-1.829-7.634-0.54054-2.9271-0.9735-5.8731-1.298-8.832-0.374-3.37-0.65-6.74-0.846-10.12-0.21993-3.8156-0.37096-7.6349-0.453-11.456-0.08992-4.2894-0.13559-8.5796-0.137-12.87v-58.212c0-4.293 0.049-8.577 0.137-12.87 0.079-3.822 0.236-7.634 0.453-11.456 0.197-3.38 0.472-6.75 0.846-10.11 0.324-2.967 0.757-5.914 1.298-8.842 0.47732-2.5747 1.0915-5.1375 1.8334-7.6487 0.65331-2.2161 1.4517-4.371 2.3966-6.4793 0.85634-1.8957 1.8699-3.7164 3.03-5.443 1.1003-1.6212 2.3515-3.1346 3.737-4.52 1.3849-1.3839 2.9002-2.6307 4.525-3.723 1.7345-1.161 3.564-2.1732 5.469-3.026 2.1096-0.94691 4.2817-1.7478 6.501-2.397 2.5179-0.7378 5.0723-1.3446 7.653-1.818 2.931-0.55 5.892-0.982 8.863-1.297 3.364-0.373 6.7432-0.64645 10.126-0.84345 3.8239-0.21443 7.6549-0.36667 11.484-0.45355 4.298-0.088 8.597-0.137 12.895-0.127z" fill="url(#c)" fill-rule="evenodd"/>
  </g>
  <g transform="translate(1.8544 .65101)" style="isolation:isolate">
    <path d="m48.548 44.945c-7.1647-0.15199-10.524 4.8015-9.049 13.341 0.47613 2.7523 2.886 6.6858 8.083 13.198 5.7794 7.2389 8.1051 11.194 10.623 18.043 3.9701 10.795 5.805 14.421 9.0271 17.79 2.5088 2.6278 2.5088 2.637 0.82407 7.9842-2.6077 8.2863-3.1479 24.905-1.053 32.724 3.1314 11.692 6.9953 17.003 12.379 17.003 3.8364 0 6.9862-3.2138 8.1124-8.2772 0.39371-1.758 1.1262-4.2668 1.6298-5.5761 0.86985-2.2707 1.1079-2.0968 4.5232 3.4794 1.9777 3.2321 5.7592 8.0482 8.387 10.694 6.0797 6.1255 14.421 13.02 15.025 12.434 0.25638-0.24723-2.1792-3.8639-5.4021-8.0482-3.223-4.1844-9.2935-13.908-13.505-21.599-4.9077-8.9822-8.2314-14-9.2752-14.009-3.3969-0.0183-6.5558 5.3106-8.387 14.165-2.1151 10.2-5.8325 8.4878-8.854-4.0745-1.7397-7.2425-0.83322-16.994 2.4172-26.132 1.4741-4.1478 2.6827-7.9933 2.6827-8.5244 0-0.53105-2.3623-4.9809-5.2465-9.8887-2.8842-4.9169-6.2729-11.876-7.5264-15.474-3.0453-8.735-4.4911-11.28-10.605-18.705-6.2985-7.6436-6.8946-11.174-1.8779-11.141 3.896 0.02655 10.184 2.6507 16.502 6.9028 4.0104 2.6928 5.3655 3.0582 11.793 3.0582 8.0666 0 9.7971 0.66108 20.995 8.03 11.39 7.5062 19.887 14.483 25.765 21.176 5.219 5.9423 8.0758 11.116 23.449 42.631 5.8965 12.095 11.125 17.937 18.34 20.437 11.152 3.8639 14.943 5.6127 19.851 9.1378l5.1916 3.7266-3.4885 0.67756c-1.9228 0.36625-6.1255 0.97057-9.321 1.3368-6.6565 0.76913-11.015 3.5343-11.015 6.9953 0 3.9005 13.286 15.062 26.608 22.35 6.4093 3.5068 12.562 6.9587 13.688 7.6729 2.9849 1.9228 3.7907 1.6847 3.0216-0.83324-1.6207-5.2922-7.0777-10.438-22.25-21.013-8.8998-6.2079-8.9914-5.979 2.8934-7.1601 8.4786-0.84238 12.755-2.289 12.755-4.3217 0-0.9339-4.3034-5.8966-9.5682-11.015-8.2406-8.03-11.024-10.017-20.098-14.439-12.361-6.0064-16.866-10.777-19.713-20.904-4.2485-15.108-15.675-32.843-30.865-47.887-15.675-15.533-30.646-24.122-44.362-25.468-5.5761-0.54754-8.4603-1.3936-11.345-3.3447-4.882-3.3063-16.222-7.0356-21.761-7.1528zm27.126 27.487c-1.117-0.07234-2.0967 0.07325-2.7652 0.54021-2.5088 1.7122-2.2066 3.7998 0.7325 5.0908 1.3826 0.61346 3.342 2.7652 4.3583 4.7795 3.4336 6.7664 8.6983 2.2341 6.3544-5.4754-0.74166-2.4264-5.3106-4.7154-8.6801-4.9352z" fill-opacity=".34896" filter="url(#filter4699)"/>
    <path d="m47.548 41.945c-7.1647-0.15199-10.524 4.8015-9.049 13.341 0.47613 2.7523 2.886 6.6858 8.083 13.198 5.7794 7.2389 8.1051 11.194 10.623 18.043 3.9701 10.795 5.805 14.421 9.0271 17.79 2.5088 2.6278 2.5088 2.637 0.82407 7.9842-2.6077 8.2863-3.1479 24.905-1.053 32.724 3.1314 11.692 6.9953 17.003 12.379 17.003 3.8364 0 6.9862-3.2138 8.1124-8.2772 0.39371-1.758 1.1262-4.2668 1.6298-5.5761 0.86985-2.2707 1.1079-2.0968 4.5232 3.4794 1.9777 3.2321 5.7592 8.0482 8.387 10.694 6.0797 6.1255 14.421 13.02 15.025 12.434 0.25638-0.24723-2.1792-3.8639-5.4021-8.0482-3.223-4.1844-9.2935-13.908-13.505-21.599-4.9077-8.9822-8.2314-14-9.2752-14.009-3.3969-0.0183-6.5558 5.3106-8.387 14.165-2.1151 10.2-5.8325 8.4878-8.854-4.0745-1.7397-7.2425-0.83322-16.994 2.4172-26.132 1.4741-4.1478 2.6827-7.9933 2.6827-8.5244 0-0.53105-2.3623-4.981-5.2465-9.8887-2.8842-4.9169-6.2729-11.876-7.5264-15.474-3.0453-8.735-4.4911-11.28-10.605-18.705-6.2985-7.6436-6.8946-11.174-1.8779-11.141 3.896 0.02655 10.184 2.6507 16.502 6.9028 4.0104 2.6928 5.3655 3.0582 11.793 3.0582 8.0666 0 9.7971 0.66108 20.995 8.03 11.39 7.5062 19.887 14.483 25.765 21.176 5.219 5.9423 8.0758 11.116 23.449 42.631 5.8965 12.095 11.125 17.937 18.34 20.437 11.152 3.8639 14.943 5.6127 19.851 9.1378l5.1916 3.7266-3.4885 0.67756c-1.9228 0.36625-6.1255 0.97057-9.321 1.3368-6.6565 0.76913-11.015 3.5343-11.015 6.9953 0 3.9005 13.286 15.062 26.608 22.35 6.4093 3.5068 12.562 6.9587 13.688 7.6729 2.9849 1.9228 3.7907 1.6847 3.0216-0.83324-1.6207-5.2922-7.0777-10.438-22.25-21.013-8.8998-6.2079-8.9914-5.979 2.8934-7.1601 8.4786-0.84238 12.755-2.289 12.755-4.3217 0-0.9339-4.3034-5.8966-9.5682-11.015-8.2406-8.03-11.024-10.017-20.098-14.439-12.361-6.0064-16.866-10.777-19.713-20.904-4.2485-15.108-15.675-32.843-30.865-47.887-15.675-15.533-30.646-24.122-44.362-25.468-5.5761-0.54754-8.4603-1.3936-11.345-3.3447-4.882-3.3063-16.222-7.0356-21.761-7.1528zm27.126 27.487c-1.117-0.07234-2.0967 0.07325-2.7652 0.54021-2.5088 1.7122-2.2066 3.7998 0.7325 5.0908 1.3826 0.61346 3.342 2.7652 4.3583 4.7795 3.4336 6.7664 8.6983 2.2341 6.3544-5.4754-0.74166-2.4264-5.3106-4.7154-8.6801-4.9352z" fill="#ebdbb2"/>
  </g>
</svg>
