<svg width="256" height="256" style="isolation:isolate" version="1.1" viewBox="0 0 256 256" xmlns="http://www.w3.org/2000/svg">
  <defs>
    <filter id="wf72BIyZwxWcflt2gtb1ICnzdnuKk7bK" x="-.042124" y="-.045133" width="1.0842" height="1.1078" color-interpolation-filters="sRGB">
      <feGaussianBlur in="SourceGraphic" stdDeviation="4.294"/>
      <feOffset dx="0" dy="4" result="pf_100_offsetBlur"/>
      <feFlood flood-opacity=".4"/>
      <feComposite in2="pf_100_offsetBlur" operator="in" result="pf_100_dropShadow"/>
      <feBlend in="SourceGraphic" in2="pf_100_dropShadow"/>
    </filter>
  </defs>
  <g filter="url(#wf72BIyZwxWcflt2gtb1ICnzdnuKk7bK)">
    <linearGradient id="_lgradient_7" x2="0" y2="1" gradientTransform="matrix(244.65 0 0 228.34 5.93 11.952)" gradientUnits="userSpaceOnUse">
      <stop stop-color="#fb4934" offset="0"/>
      <stop stop-color="#cc241d" offset="1"/>
    </linearGradient>
    <path d="m165.94 11.952c74.056 0 84.639 10.557 84.639 84.543v59.251c0 73.987-10.583 84.544-84.639 84.544h-75.37c-74.055 0-84.639-10.557-84.639-84.544v-59.251c0-73.986 10.584-84.543 84.639-84.543h75.37z" fill="url(#_lgradient_7)"/>
  </g>
  <g opacity=".4">
    <linearGradient id="_lgradient_8" x1=".517" x2=".517" y2="1" gradientTransform="matrix(244.65,0,0,228.34,5.68,11.95)" gradientUnits="userSpaceOnUse">
      <stop stop-color="#ebdbb2" offset="0"/>
      <stop stop-color="#ebdbb2" stop-opacity=".098" offset=".125"/>
      <stop stop-color="#282828" stop-opacity=".098" offset=".925"/>
      <stop stop-color="#282828" stop-opacity=".498" offset="1"/>
    </linearGradient>
    <path d="m165.07 11.951c4.328-0.01 8.656 0.04 12.984 0.138 3.875 0.078 7.751 0.226 11.626 0.452 3.453 0.196 6.905 0.481 10.348 0.854 3.059 0.335 6.118 0.786 9.148 1.346 2.715 0.502 5.4 1.14 8.046 1.916 2.4 0.698 4.751 1.562 7.023 2.584 2.115 0.943 4.141 2.063 6.059 3.35 1.84 1.238 3.561 2.653 5.135 4.215 1.564 1.572 2.98 3.282 4.219 5.119 1.289 1.916 2.41 3.94 3.364 6.042 1.023 2.28 1.889 4.618 2.597 7.005 0.777 2.643 1.417 5.325 1.918 8.037 0.561 3.026 1.013 6.072 1.348 9.127 0.374 3.439 0.659 6.878 0.856 10.326 0.226 3.861 0.373 7.732 0.462 11.593 0.088 4.323 0.138 8.646 0.128 12.959v58.212c0.01 4.323-0.04 8.636-0.128 12.959-0.089 3.871-0.236 7.732-0.462 11.593-0.197 3.448-0.482 6.897-0.856 10.326-0.335 3.055-0.787 6.111-1.348 9.137-0.501 2.702-1.141 5.384-1.918 8.027-0.708 2.387-1.574 4.735-2.597 7.005-0.954 2.112-2.075 4.126-3.364 6.042-1.239 1.837-2.655 3.557-4.219 5.119-1.574 1.562-3.295 2.977-5.135 4.215-1.918 1.287-3.944 2.407-6.059 3.35-2.272 1.022-4.623 1.886-7.023 2.594-2.646 0.776-5.331 1.414-8.046 1.906-3.03 0.569-6.089 1.011-9.148 1.346-3.443 0.373-6.895 0.658-10.348 0.854-3.875 0.226-7.751 0.374-11.626 0.462-4.328 0.088-8.656 0.138-12.984 0.128h-74.126c-4.328 0.01-8.656-0.04-12.984-0.128-3.875-0.088-7.751-0.236-11.626-0.462-3.453-0.196-6.905-0.481-10.348-0.854-3.059-0.335-6.118-0.777-9.148-1.346-2.715-0.492-5.4-1.13-8.046-1.906-2.4-0.708-4.751-1.572-7.023-2.594-2.115-0.943-4.141-2.063-6.059-3.35-1.84-1.238-3.561-2.653-5.135-4.215-1.564-1.562-2.98-3.282-4.219-5.119-1.289-1.916-2.41-3.93-3.364-6.042-1.023-2.27-1.889-4.618-2.597-7.005-0.777-2.643-1.417-5.325-1.918-8.027-0.561-3.026-1.013-6.082-1.348-9.137-0.374-3.429-0.659-6.878-0.856-10.326-0.226-3.861-0.373-7.722-0.462-11.593-0.088-4.323-0.138-8.636-0.128-12.959v-58.212c-0.01-4.313 0.04-8.636 0.128-12.959 0.089-3.861 0.236-7.732 0.462-11.593 0.197-3.448 0.482-6.887 0.856-10.326 0.335-3.055 0.787-6.101 1.348-9.127 0.501-2.712 1.141-5.394 1.918-8.037 0.708-2.387 1.574-4.725 2.597-7.005 0.954-2.102 2.075-4.126 3.364-6.042 1.239-1.837 2.655-3.547 4.219-5.119 1.574-1.562 3.295-2.977 5.135-4.215 1.918-1.287 3.944-2.407 6.059-3.35 2.272-1.022 4.623-1.886 7.023-2.584 2.646-0.776 5.331-1.414 8.046-1.916 3.03-0.56 6.089-1.011 9.148-1.346 3.443-0.373 6.895-0.658 10.348-0.854 3.875-0.226 7.751-0.374 11.626-0.452 4.328-0.098 8.656-0.148 12.984-0.138h74.126zm0.01 4.009c4.298-0.01 8.597 0.039 12.895 0.127 3.827 0.089 7.653 0.236 11.479 0.452 3.384 0.197 6.767 0.472 10.131 0.845 2.971 0.315 5.932 0.747 8.863 1.297 2.577 0.472 5.134 1.081 7.653 1.818 2.223 0.648 4.396 1.454 6.501 2.397 1.909 0.855 3.738 1.867 5.469 3.026 1.623 1.091 3.138 2.338 4.525 3.724 1.387 1.385 2.636 2.898 3.738 4.519 1.16 1.729 2.174 3.547 3.029 5.443 0.945 2.112 1.751 4.284 2.4 6.494 0.748 2.515 1.348 5.06 1.83 7.634 0.541 2.928 0.974 5.875 1.298 8.842 0.374 3.36 0.65 6.73 0.846 10.11 0.217 3.822 0.374 7.634 0.453 11.456 0.088 4.293 0.137 8.577 0.137 12.87v58.212c0 4.293-0.049 8.577-0.137 12.87-0.079 3.822-0.236 7.644-0.453 11.456-0.196 3.38-0.472 6.75-0.846 10.12-0.324 2.957-0.757 5.904-1.298 8.832-0.482 2.574-1.082 5.119-1.83 7.634-0.649 2.22-1.455 4.382-2.4 6.494-0.855 1.896-1.869 3.724-3.029 5.443-1.102 1.631-2.351 3.144-3.738 4.529-1.387 1.376-2.902 2.623-4.525 3.714-1.731 1.159-3.56 2.171-5.469 3.026-2.105 0.953-4.278 1.749-6.501 2.397-2.519 0.737-5.076 1.346-7.653 1.818-2.931 0.55-5.892 0.982-8.863 1.306-3.364 0.364-6.747 0.649-10.131 0.836-3.826 0.216-7.652 0.373-11.479 0.452-4.298 0.098-8.597 0.137-12.895 0.137h-0.01-74.126-0.01c-4.298 0-8.597-0.039-12.895-0.137-3.827-0.079-7.653-0.236-11.479-0.452-3.384-0.187-6.767-0.472-10.131-0.836-2.971-0.324-5.932-0.756-8.863-1.306-2.577-0.472-5.134-1.081-7.653-1.818-2.223-0.648-4.396-1.444-6.501-2.397-1.909-0.855-3.738-1.867-5.469-3.026-1.623-1.091-3.138-2.338-4.525-3.714-1.387-1.385-2.636-2.898-3.738-4.529-1.16-1.719-2.174-3.547-3.029-5.443-0.945-2.112-1.751-4.274-2.4-6.494-0.748-2.515-1.348-5.06-1.83-7.634-0.541-2.928-0.974-5.875-1.298-8.832-0.374-3.37-0.649-6.74-0.846-10.12-0.217-3.812-0.374-7.634-0.453-11.456-0.088-4.293-0.137-8.577-0.137-12.87v-58.212c0-4.293 0.049-8.577 0.137-12.87 0.079-3.822 0.236-7.634 0.453-11.456 0.197-3.38 0.472-6.75 0.846-10.11 0.324-2.967 0.757-5.914 1.298-8.842 0.482-2.574 1.082-5.119 1.83-7.634 0.649-2.21 1.455-4.382 2.4-6.494 0.855-1.896 1.869-3.714 3.029-5.443 1.102-1.621 2.351-3.134 3.738-4.519 1.387-1.386 2.902-2.633 4.525-3.724 1.731-1.159 3.56-2.171 5.469-3.026 2.105-0.943 4.278-1.749 6.501-2.397 2.519-0.737 5.076-1.346 7.653-1.818 2.931-0.55 5.892-0.982 8.863-1.297 3.364-0.373 6.747-0.648 10.131-0.845 3.826-0.216 7.652-0.363 11.479-0.452 4.298-0.088 8.597-0.137 12.895-0.127h0.01 74.126 0.01z" fill="url(#_lgradient_8)" fill-rule="evenodd"/>
  </g>
  <g fill="#ebdbb2">
    <path d="m55.5 105.07v41.858l72.5 41.858v-41.858l-72.5-41.858z"/>
    <path d="m200.5 105.07-72.5 41.858v41.858l72.5-41.858q-0.302-43.74 0-41.858z"/>
    <path d="m128 63.213-72.5 41.858 72.5 41.858 72.5-41.858-72.5-41.858z"/>
  </g>
  <g display="none" opacity=".2">
    <path d="m55.953 147.28-0.453-42.21 72.5-41.858 72.5 41.858v41.858l-72.5 41.858z" display="none" fill="#fb4934"/>
  </g>
  <path d="m149.85 166.54-5.13 2.983v-8.109q0-1.482-0.426-1.989-0.427-0.506-1.371 0.043-1.299 0.756-1.877 2.128-0.577 1.372-0.577 3.891v6.508l-5.13 2.984v-14.866l3.87-2.251 0.643 1.463 0.302-0.175q0.656-1.432 1.817-2.632 1.162-1.2 2.67-2.077 2.467-1.435 3.838-0.802t1.371 3.231v9.67zm8.109-4.454q-1.588 0.924-2.775 0.709-1.188-0.215-1.837-1.595-0.65-1.381-0.65-3.729 0-3.622 1.457-6.515 1.456-2.894 4.002-4.374 1.246-0.725 2.184-0.772t1.712 0.683l0.105-0.061q-0.249-1.6-0.249-3.345v-3.975l5.17-3.007v20.416l-3.871 2.251-1.102-1.235-0.197 0.114q-1.325 2.909-3.949 4.435zm2.099-5.275q1.233-0.717 1.739-1.785 0.505-1.068 0.544-2.704v-0.407q0-1.968-0.564-2.473t-1.771 0.197q-1.011 0.587-1.568 1.863-0.558 1.275-0.558 3.033 0 1.732 0.564 2.31 0.564 0.577 1.614-0.034zm33.943-15.947-5.13 2.983v-8.082q0-1.509-0.413-2.023-0.414-0.514-1.306 5e-3 -1.181 0.686-1.732 2.017t-0.551 3.483v6.927l-5.143 2.991v-8.082q0-1.509-0.394-2.034-0.393-0.526-1.273-0.015-1.207 0.702-1.758 2.099-0.551 1.396-0.551 3.837v6.507l-5.13 2.984v-14.866l3.871-2.251 0.643 1.463 0.301-0.175q0.591-1.367 1.713-2.557 1.121-1.191 2.552-2.022 3.214-1.87 4.513-0.67l0.407-0.237q0.63-1.284 1.751-2.455 1.122-1.171 2.474-1.957 2.637-1.533 3.896-0.914 1.26 0.619 1.26 3.374v9.67z" fill="#cc241d" fill-rule="evenodd"/>
  <path d="m68.625 154.53c0.716-7.353 7.138-10.839 14.938-8 8.278 3.013 15 12.181 15 20.46 0 1.679-0.241 3.093-0.75 4.415-2.192-1.301-24.253-14.149-29.188-16.875z" fill="#cc241d"/>
</svg>
