<svg width="256" height="256" style="isolation:isolate" version="1.1" xmlns="http://www.w3.org/2000/svg">
  <g filter="url(#a)">
    <linearGradient id="b" x1=".50002" x2=".50002" y1="-.00051239" y2="1" gradientTransform="matrix(244.65,0,0,228.34,5.676,11.947)" gradientUnits="userSpaceOnUse">
      <stop stop-color="#fb4934" offset="0"/>
      <stop stop-color="#fb4934" offset="1"/>
    </linearGradient>
    <path d="m165.68 11.947c72.707 0 84.639 12.053 84.639 84.544v59.251c0 72.561-11.932 84.543-84.639 84.543h-75.37c-72.294 0-84.639-11.982-84.639-84.543v-59.251c0-72.491 12.329-84.544 84.639-84.544z" fill="url(#b)"/>
  </g>
  <defs>
    <filter id="a" x="-.042124" y="-.045133" width="1.0842" height="1.1078" color-interpolation-filters="sRGB">
      <feGaussianBlur in="SourceGraphic" stdDeviation="4.294"/>
      <feOffset dy="4" result="pf_100_offsetBlur"/>
      <feFlood flood-opacity=".4"/>
      <feComposite in2="pf_100_offsetBlur" operator="in" result="pf_100_dropShadow"/>
      <feBlend in="SourceGraphic" in2="pf_100_dropShadow"/>
    </filter>
    <filter id="f" x="-.038051" y="-.14179" width="1.0761" height="1.2836" color-interpolation-filters="sRGB">
      <feGaussianBlur stdDeviation="68.492"/>
    </filter>
  </defs>
  <g opacity=".4">
    <linearGradient id="c" x1=".517" x2=".517" y2="1" gradientTransform="matrix(244.65,0,0,228.34,5.68,11.95)" gradientUnits="userSpaceOnUse">
      <stop stop-color="#d5c4a1" offset="0"/>
      <stop stop-color="#ebdbb2" stop-opacity=".098" offset=".125"/>
      <stop stop-color="#282828" stop-opacity=".098039" offset=".925"/>
      <stop stop-color="#282828" stop-opacity=".49804" offset="1"/>
    </linearGradient>
    <path d="m165.07 11.951c4.328-0.01 8.656 0.04 12.984 0.138 3.875 0.078 7.7436 0.25854 11.62 0.48454 3.453 0.196 6.8876 0.5327 10.33 0.9057 3.06 0.335 6.0892 0.83409 9.1192 1.3941 2.7131 0.50032 5.3525 1.181 7.9999 1.9571 2.3983 0.69679 4.7544 1.61 7.0323 2.6338 2.1121 0.94124 4.0427 2.0439 5.9631 3.3319 1.8405 1.2399 3.5996 2.7014 5.1741 4.2652 1.5652 1.5692 2.886 3.1628 4.1277 4.9987 1.2864 1.9174 2.4086 3.8707 3.3603 5.9744 1.0207 2.2746 1.9193 4.5772 2.628 6.9675 0.77696 2.6443 1.4779 5.3272 1.9787 8.0374 0.56201 3.0246 1.0626 6.0601 1.3989 9.1181 0.374 3.439 0.70873 6.8493 0.90573 10.297 0.226 3.861 0.42171 7.7394 0.51071 11.6 0.088 4.323 0.138 8.646 0.128 12.96v58.21c0.01 4.324-0.04 8.637-0.128 12.96-0.085 3.8668-0.28821 7.7331-0.51114 11.595-0.19655 3.4488-0.53822 6.9467-0.91224 10.38-0.33634 3.0613-0.82936 6.0316-1.3914 9.0596-0.50199 2.7066-1.1867 5.3458-1.9626 7.987-0.7071 2.3908-1.5665 4.6263-2.5888 6.9002-0.94995 2.1048-2.1624 4.2292-3.4512 6.1454-1.2392 1.8377-2.5377 3.3902-4.1052 4.9572-1.5746 1.5638-3.412 3.0712-5.2525 4.3111-1.9201 1.2879-3.8611 2.3701-5.9729 3.3114-2.3498 1.0736-4.5744 1.8717-6.9323 2.584-2.6776 0.81656-5.2934 1.4166-7.976 1.948-3.0309 0.56603-6.051 1.0612-9.1165 1.3921-3.5041 0.40869-6.8203 0.68433-10.336 0.90377-3.875 0.226-7.789 0.40013-11.665 0.48813-4.328 0.088-8.6314 0.15082-12.959 0.14082h-74.126c-4.328 0.01-8.6566-0.0545-12.985-0.14247-3.9049-0.0955-7.7449-0.24667-11.628-0.49085-3.4941-0.21923-7.0445-0.5149-10.452-0.92805-3.1873-0.37665-5.9337-0.7937-8.9951-1.3902-2.833-0.56139-5.3421-1.1637-7.9464-1.9566-2.4295-0.73175-4.8105-1.6266-7.0523-2.6548-2.139-0.97893-4.0617-2.0635-5.9983-3.3731-1.8405-1.2399-3.5141-2.6495-5.0886-4.2133-1.5676-1.5671-2.9061-3.1787-4.1454-5.0164-1.2884-1.9162-2.4021-3.8332-3.3518-5.9379-1.0223-2.2739-1.9238-4.5236-2.6309-6.9144-0.77585-2.6412-1.4977-5.3053-1.9996-8.0119-0.56202-3.028-1.0938-6.1087-1.4301-9.17-0.37402-3.4341-0.72617-6.8459-0.92272-10.295-0.22292-3.8613-0.42179-7.7427-0.50684-11.61-0.09185-4.3194-0.13452-8.6396-0.128-12.96v-58.21c-0.01-4.314 0.04-8.637 0.128-12.96 0.089-3.86 0.28015-7.7353 0.50615-11.596 0.197-3.448 0.54883-6.857 0.92283-10.296 0.335-3.055 0.87336-6.1638 1.4344-9.1898 0.50085-2.7102 1.1807-5.2262 1.9577-7.8705 0.70872-2.3902 1.7549-4.9868 2.7756-7.2614 0.95209-2.1037 1.9632-3.7998 3.2499-5.7172 1.2418-1.8358 2.594-3.4604 4.1593-5.0296 1.5745-1.5638 3.3273-3.0214 5.1678-4.2614 1.9201-1.2879 3.8238-2.3848 5.9356-3.3261 2.278-1.0238 4.5428-1.9236 6.9411-2.6204 2.6474-0.77617 5.2743-1.4761 7.9874-1.9764 3.0317-0.56124 6.1381-1.085 9.203-1.4208 3.443-0.373 6.8398-0.71288 10.293-0.90888 3.875-0.226 7.7331-0.41514 11.609-0.49314 4.328-0.098 8.6625-0.14613 12.991-0.13613zm0.01 4.009c4.298-0.01 8.597 0.039 12.895 0.127 3.827 0.089 7.6466 0.26854 11.474 0.48454 3.383 0.197 6.7724 0.43946 10.136 0.81246 2.971 0.315 5.9391 0.74869 8.8701 1.2987 2.5807 0.47339 5.1059 1.0723 7.6238 1.8101 2.2193 0.6492 4.4135 1.4563 6.5231 2.4032 1.9054 0.85272 3.7179 1.8543 5.4527 3.0153 1.6245 1.0927 3.1568 2.3505 4.5413 3.7347 1.3858 1.385 2.6374 2.8981 3.738 4.519 1.1601 1.7266 2.1737 3.5473 3.03 5.443 0.94487 2.1083 1.7467 4.2779 2.4 6.494 0.74152 2.5113 1.352 5.0594 1.829 7.634 0.54 2.928 0.974 5.875 1.298 8.842 0.374 3.36 0.65 6.73 0.846 10.11 0.217 3.822 0.374 7.634 0.453 11.456 0.088 4.293 0.137 8.577 0.137 12.87v58.212c0 4.293-0.049 8.577-0.137 12.87-0.082 3.8211-0.0546 7.643-0.27458 11.459-0.196 3.38-0.65042 6.7474-1.0244 10.117-0.3245 2.9589-0.75746 5.9049-1.298 8.832-0.47731 2.5747-1.0881 5.1228-1.83 7.634-0.65169 2.2166-1.4536 4.3863-2.4 6.494-0.8542 1.8968-1.8678 3.7176-3.03 5.443-1.0976 1.6263-2.349 3.1432-3.737 4.53-1.3876 1.3779-2.9027 2.6211-4.525 3.713-1.7345 1.161-3.564 2.1732-5.469 3.026-2.1078 0.95119-4.2802 1.7522-6.501 2.397-2.5179 0.7378-5.0723 1.3446-7.653 1.818-2.931 0.55-5.8828 0.98162-8.8538 1.3056-3.364 0.364-6.7562 0.64938-10.139 0.83638-3.827 0.216-7.6776 0.36018-11.505 0.43918-4.298 0.098-8.5724 0.14982-12.87 0.14982h-74.146c-4.298 0-8.5976-0.0545-12.896-0.15147-3.8291-0.082-7.6582-0.26152-11.482-0.48085-3.3834-0.19001-6.7587-0.42545-10.127-0.79268-2.97-0.32174-5.9265-0.7574-8.863-1.306-2.5807-0.47339-5.1351-1.0802-7.653-1.818-2.2208-0.64482-4.3673-1.4321-6.4751-2.3833-1.9053-0.85272-3.7547-1.8723-5.4895-3.0333-1.622-1.0922-3.1431-2.3423-4.5303-3.7205-1.3882-1.3864-2.64-2.903-3.738-4.529-1.1622-1.7254-2.1758-3.5462-3.03-5.443-0.94645-2.1077-1.7483-4.2774-2.4-6.494-0.74152-2.5113-1.352-5.0594-1.829-7.634-0.54054-2.9271-0.9735-5.8731-1.298-8.832-0.374-3.37-0.65-6.74-0.846-10.12-0.21993-3.8156-0.37096-7.6349-0.453-11.456-0.08992-4.2894-0.13559-8.5796-0.137-12.87v-58.212c0-4.293 0.049-8.577 0.137-12.87 0.079-3.822 0.236-7.634 0.453-11.456 0.197-3.38 0.472-6.75 0.846-10.11 0.324-2.967 0.757-5.914 1.298-8.842 0.47732-2.5747 1.0915-5.1375 1.8334-7.6487 0.65331-2.2161 1.4517-4.371 2.3966-6.4793 0.85634-1.8957 1.8699-3.7164 3.03-5.443 1.1003-1.6212 2.3515-3.1346 3.737-4.52 1.3849-1.3839 2.9002-2.6307 4.525-3.723 1.7345-1.161 3.564-2.1732 5.469-3.026 2.1096-0.94691 4.2817-1.7478 6.501-2.397 2.5179-0.7378 5.0723-1.3446 7.653-1.818 2.931-0.55 5.892-0.982 8.863-1.297 3.364-0.373 6.7432-0.64645 10.126-0.84345 3.8239-0.21443 7.6549-0.36667 11.484-0.45355 4.298-0.088 8.597-0.137 12.895-0.127z" fill="url(#c)" fill-rule="evenodd"/>
  </g>
  <g fill="#ebdbb2">
    <path d="m87.22 11.946h81.549v228.34h-81.549z" opacity=".1" style="isolation:isolate"/>
    <path d="m5.6719 126.22v29.523c0 72.561 12.345 84.543 84.639 84.543h75.369c72.707 0 84.639-11.982 84.639-84.543v-29.523z" opacity=".05" style="isolation:isolate"/>
  </g>
  <g transform="matrix(.0463 0 0 -.0463 27.992 154.84)" filter="url(#f)" opacity=".5">
    <path d="m592.34 1159.3h-181.87c-0.352-247.3-0.703-407.47-1.051-654.76-78.145 241.33-156.37 401.09-234.79 654.76h-174.63v-1159.3c58.945 8.39 122.07 16.43 181.09 24.129 0.164 242.31 0.336 391.27 0.5 633.58 81.211-238.51 131.14-379.19 212.11-605.85 63.477 7.25 133.22 16.172 196.75 22.622 0.629 361.61 1.254 723.23 1.887 1084.8m679.29 0h-503.81c-0.675-356.52-1.355-713.05-2.035-1069.6a15318 15318 0 0 0 506.08 37.59c0.09 52.125 0.19 127.06 0.28 179.18-109.79-6.746-214.82-13.778-324.22-21.133 0.187 95.851 0.379 175.12 0.566 270.98 79.958 1.379 164.41 0.168 246.09 1.567 0.09 52.39 0.19 127.59 0.29 179.99-80.94-1.437-166.42-1.601-246.06-3.113 0.191 95.855 0.375 148.43 0.566 244.29 50.102 0.605 99.205 0.683 148.22 0.683 8.61 0 17.21 0 25.82-7e-3h25.69c40.88 0 81.93 0.046 123.67 0.41 0.1 52.13-1.23 127.02-1.14 179.14m679.08-0.8c-184.92 0-376.07-0.01-560.99-0.02-0.09-51.79-0.17-126.39-0.26-178.18 8.05 0.059 16.1 0.078 24.14 0.078 24.37 0 48.74-0.23 73.12-0.476 24.35-0.235 48.7-0.481 73.06-0.481 6.25 0 12.49 0.02 18.74 0.051-0.38-287.42-0.76-549.95-1.13-837.38 59.36 2.207 122.87 4.07 182.24 5.578 0.27 285.85 0.54 546.81 0.8 832.64 62.71 0.246 127.5 0.429 190.21 0.558l0.07 177.62m623.91 0.8h-505.88l-0.15-1006.7c19.55 0.082 39.33 0.113 59.19 0.113 40.45 0 81.21-0.152 121.05-0.461-0.05 142.41-0.09 272.38-0.13 414.8 9.93-0.039 19.96-0.058 30.06-0.058 23.52 0 47.42 0.097 71.42 0.195s48.1 0.195 71.99 0.195c24.62 0 49.01-0.097 72.86-0.429-0.04 51.054-0.09 127-0.14 178.05-22.52 0.227-45.53 0.305-68.77 0.305-24.9 0-50.05-0.086-75.1-0.176-25.02-0.09-49.95-0.176-74.44-0.176-9.37 0-18.69 8e-3 -27.93 0.039-0.03 91.551-0.05 143.22-0.08 234.79 19.78-0.032 39.51-0.04 59.17-0.04 19.96 0 39.86 8e-3 59.75 0.02 20.06 8e-3 40.11 0.02 60.17 0.02 48.87 0 97.78-0.051 147.12-0.274-0.05 51.174-0.11 128.65-0.16 179.82m118.08-0.81c0.44-338.82-1.19-677.64-0.75-1016.5 161.74-6.019 331.7-12.551 493.24-23.719-0.1 52.121-0.2 127.08-0.3 179.19-102.24 6.015-208.68 13.222-311 17.48-0.46 290.17 1.14 553.35 0.68 843.51-59.25 0.01-122.63 0.01-181.87 0.01m641.74-0.03c0.7-350.39 1.38-700.78 2.07-1051.2 59.26-4.582 120.57-9.492 179.78-14.762 0.21 355.07 0.7 710.62 0.02 1065.9-59.24 0.01-122.63 0.01-181.87 0.01m337.78-0.02c72.73-177.17 139.26-354.84 213.12-542.99-76.76-180.72-154.89-360.25-231.57-533.61 63.52-6.27 129.23-15.437 192.69-22.507 45.53 111.65 86.95 197.59 132.52 312.26 45.5-122.15 86.86-216.51 132.24-342.59 63.36-8.22 145.5-20.008 208.78-29.02-76.71 205.06-160.61 418.58-237.74 612.38 76.81 182 155.19 355.74 234.98 546.02-65.51 0-133.09 0.01-198.6 0.02-49.24-117.61-83.11-193.18-130.31-305.14-43.97 116.48-73.47 191.86-117.51 305.16-65.51 0.01-133.1 0.01-198.6 0.02"/>
  </g>
  <g transform="translate(-.0080037 1.8863)" fill="#ebdbb2">
    <path d="m55.423 99.28h-8.42c-0.016 11.449-0.032 18.865-0.048 30.313-3.618-11.172-7.24-18.569-10.87-30.313h-8.085v53.672c2.729-0.388 5.651-0.76 8.384-1.117 7e-3 -11.218 0.015-18.114 0.023-29.332 3.76 11.042 6.071 17.555 9.82 28.048 2.938-0.335 6.167-0.748 9.109-1.047l0.087-50.224m31.449 0h-23.325l-0.094 49.517c7.802-0.71 15.613-1.29 23.43-1.74l0.013-8.295c-5.083 0.312-9.946 0.638-15.01 0.978 8e-3 -4.437 0.017-8.107 0.026-12.545 3.701-0.064 7.611-8e-3 11.393-0.073 4e-3 -2.425 8e-3 -5.907 0.013-8.332-3.747 0.066-7.705 0.074-11.392 0.144 0.01-4.438 0.018-6.872 0.027-11.31 2.32-0.028 4.592-0.032 6.861-0.032h2.386c1.892 0 3.792-2e-3 5.725-0.018 4e-3 -2.414-0.057-5.881-0.053-8.294m31.438 0.037-25.971 1e-3 -0.012 8.249c0.373-3e-3 0.745-4e-3 1.117-4e-3 1.129 0 2.257 0.011 3.386 0.022 1.127 0.011 2.254 0.023 3.382 0.023 0.29 0 0.578-1e-3 0.868-3e-3 -0.018 13.307-0.036 25.46-0.053 38.768 2.748-0.103 5.689-0.189 8.437-0.259l0.037-38.548c2.904-0.011 5.903-0.02 8.806-0.026l4e-3 -8.223m28.884-0.037h-23.42l-7e-3 46.609a726.35 726.35 0 0 1 8.344 0.016l-6e-3 -19.204 1.392 2e-3c1.089 0 2.196-4e-3 3.307-9e-3s2.226-9e-3 3.332-9e-3c1.14 0 2.27 5e-3 3.374 0.02l-7e-3 -8.243c-1.042-0.01-2.108-0.014-3.184-0.014-1.152 0-2.317 4e-3 -3.476 8e-3a963.55 963.55 0 0 1-4.74 6e-3l-4e-3 -10.87a1692.7 1692.7 0 0 0 5.506 2e-3l2.786-1e-3c2.262 0 4.527 2e-3 6.81 0.012-2e-3 -2.369-4e-3 -5.956-7e-3 -8.325m5.467 0.038c0.02 15.686-0.055 31.372-0.035 47.058 7.488 0.28 15.357 0.581 22.836 1.099l-0.014-8.296c-4.734-0.279-9.661-0.613-14.399-0.81-0.02-13.433 0.053-25.618 0.032-39.051h-8.42m29.71 1e-3 0.096 48.666c2.744 0.212 5.582 0.44 8.323 0.683 0.01-16.438 0.033-32.899 1e-3 -49.349h-8.42m15.638 1e-3c3.367 8.202 6.447 16.428 9.867 25.138a1827 1827 0 0 1-10.721 24.705c2.94 0.29 5.983 0.714 8.92 1.042 2.109-5.17 4.026-9.148 6.136-14.457 2.107 5.655 4.021 10.024 6.122 15.86 2.934 0.381 6.736 0.927 9.666 1.344-3.551-9.493-7.436-19.378-11.006-28.35 3.556-8.427 7.184-16.47 10.878-25.28h-9.194c-2.28 5.445-3.848 8.943-6.033 14.126-2.036-5.392-3.401-8.882-5.44-14.127l-9.195-1e-3"/>
  </g>
</svg>
