<svg width="256" height="256" style="isolation:isolate" version="1.1" xmlns="http://www.w3.org/2000/svg">
  <g transform="translate(.007136 -.1198)" filter="url(#a)">
    <linearGradient id="b" x1=".5002" x2=".5002" y2="1" gradientTransform="matrix(244,0,0,228,5.981,12.12)" gradientUnits="userSpaceOnUse">
      <stop stop-color="#ebdbb2" offset="0"/>
      <stop stop-color="#ebdbb2" offset="1"/>
    </linearGradient>
    <path d="m165 12.12c72 0 85 15 85 87v56c0 70-13 85-85 85h-74c-72 0-85-15-85-85v-56c0-72 13-87 85-87z" fill="url(#b)"/>
  </g>
  <path d="m50.42 87.98c-10.53 0.1603-8.847 17.4 1.475 15.63 13.23-0.7625 27.3 1.378 38.02 9.723 13.06 9.822 20.13 24.95 29.29 38.03 5.882 8.663 13.65 16.1 22.99 20.92 14.26 7.519 29.98 11.86 45.76 14.8 5.651 0.9619 11.36 1.704 17.1 1.733 9.717 0.4644 10.25-14.81 1.117-15.62-13.86-0.5566-27.56-3.627-40.68-8.037-9.355-3.455-18.98-7.323-26.36-14.24-7.948-8.496-13.03-19.14-19.86-28.48-7.543-10.99-17.05-21-29.14-26.96-12.19-6.224-26.15-8.293-39.72-7.497z" color="#000000" fill="#458588" stroke-linecap="round" stroke-linejoin="round" stroke-width="10.62" style="-inkscape-stroke:none;isolation:isolate"/>
  <path d="m154.3 67.3c-9.551-1.086-17.96 5.628-22.83 13.26-2.287 3.451-5.497 6.298-7.121 10.17-2.096 3.866 2.659 8.16 3.977 9.309-3.09 1.857-3.196 5.729-3.05 8.928 0.1444 5.854 3.85 10.75 8.007 14.55 6.147 7.041 15.48 9.968 24.29 12 6.923 0.4767 14.07-1.391 19.94-5.094 6.886-4.517 10.8-12.21 13.56-19.71 1.803-5.216 0.395-10.71-1.535-15.66-4.494-13.96-17.24-24.38-31.5-27.14-1.24-0.2601-2.492-0.4501-3.748-0.6104zm-1.68 15.74c8.859 0.8349 17.34 6.25 20.93 14.53 0.8855 2.954 3.186 6.207 2.21 9.276-2.307 4.828-4.782 10.79-10.59 12.13-2.31 0.5494-5.205 1.079-5.666 0.7013-5.133-1.093-10.41-2.987-14.32-6.573-1.493-1.352-4.993-5.484-4.218-5.441 1.751-2.006 5.475-4.453 8.169-6.36 4.189-3.951 2.177-12-3.737-13.1 1.786-2.289 4.072-5.075 7.217-5.164z" color="#000000" fill="#fb4934" stroke-linecap="round" stroke-linejoin="round" stroke-width="10.62" style="-inkscape-stroke:none;isolation:isolate"/>
  <defs>
    <linearGradient id="linearGradient31" x1=".5002" x2=".5002" y2="1" gradientTransform="matrix(244,0,0,228,5.988,12.12)" gradientUnits="userSpaceOnUse">
      <stop stop-color="#d5c4a1" offset="0"/>
      <stop stop-color="#d5c4a1" stop-opacity=".09804" offset=".1"/>
      <stop stop-color="#282828" stop-opacity=".1" offset=".9"/>
      <stop stop-color="#282828" stop-opacity=".4" offset="1"/>
    </linearGradient>
  </defs>
  <g transform="translate(.007189 -.1198)" opacity=".5">
    <path d="m91 12.12c-72 0-85 15-85 87v56c0 70 13 85 85 85h74c72 0 85-15 85-85v-56c0-72-13-87-85-87zm0 4h74c68 0 80 15 80 83v56c0 66-12 81-80 81h-74c-68 0-80-15-80-81v-56c0-68 12-83 80-83z" fill="url(#linearGradient31)" opacity="1"/>
  </g>
</svg>
