<svg width="256" height="256" style="isolation:isolate" version="1.1" xmlns="http://www.w3.org/2000/svg">
  <g filter="url(#a)">
    <linearGradient id="b" x1=".50002" x2=".50002" y1="-.00051239" y2="1" gradientTransform="matrix(244.65,0,0,228.34,5.676,11.947)" gradientUnits="userSpaceOnUse">
      <stop stop-color="#fb4934" offset="0"/>
      <stop stop-color="#fb4934" offset="1"/>
    </linearGradient>
    <path d="m165.68 11.947c72.707 0 84.639 12.053 84.639 84.544v59.251c0 72.561-11.932 84.543-84.639 84.543h-75.37c-72.294 0-84.639-11.982-84.639-84.543v-59.251c0-72.491 12.329-84.544 84.639-84.544z" fill="url(#b)"/>
  </g>
  <defs>
    <filter id="a" x="-.042124" y="-.045133" width="1.0842" height="1.1078" color-interpolation-filters="sRGB">
      <feGaussianBlur in="SourceGraphic" stdDeviation="4.294"/>
      <feOffset dy="4" result="pf_100_offsetBlur"/>
      <feFlood flood-opacity=".4"/>
      <feComposite in2="pf_100_offsetBlur" operator="in" result="pf_100_dropShadow"/>
      <feBlend in="SourceGraphic" in2="pf_100_dropShadow"/>
    </filter>
    <filter id="e" x="-.048318" y="-.047689" width="1.0966" height="1.0954" color-interpolation-filters="sRGB">
      <feGaussianBlur stdDeviation=".799"/>
    </filter>
  </defs>
  <g transform="matrix(3.7797 0 0 3.7797 -.012183 -866.57)">
    <path d="m1.502 268.03v2.443c0 19.576 2.8 22.37 22.394 22.37h19.941c19.594 0 22.395-2.794 22.395-22.37v-2.444z" fill="#fe8019"/>
    <path d="m32.687 282.73c0.058-8e-3 0.1-0.025 0.115-0.044 0.03-0.04 0.016-0.15-0.03-0.24-0.038-0.074-0.043-0.126-0.014-0.144 0.01-7e-3 0.115-0.018 0.23-0.025 0.237-0.014 0.355-0.046 0.445-0.12 0.133-0.11 0.155-0.277 0.061-0.465a1.881 1.881 0 0 0-0.375-0.48c-0.261-0.252-0.477-0.392-0.758-0.492-0.226-0.081-0.265-0.116-0.308-0.278a0.711 0.711 0 0 0-0.086-0.168c-0.118-0.173-0.177-0.446-0.225-1.037-0.052-0.644-0.062-1.063-0.071-2.975l-9e-3 -1.953 0.1-0.2c0.184-0.367 0.351-0.736 0.396-0.871 0.075-0.23 0.113-0.469 0.162-1.022 0.09-1.017 0.19-1.335 0.984-3.15 0.669-1.53 1.098-2.587 1.362-3.352 0.244-0.708 0.445-1.124 0.63-1.302 0.068-0.065 0.165-0.114 0.224-0.114 0.098 0 0.246 0.128 0.369 0.318 0.12 0.186 0.376 0.727 0.543 1.15 0.3 0.759 0.54 1.524 0.762 2.436 0.29 1.185 0.448 1.66 0.802 2.405 0.26 0.546 0.3 0.675 0.356 1.188 0.067 0.605 0.197 1.093 0.396 1.49 0.079 0.155 0.142 0.247 0.258 0.372 0.142 0.154 0.16 0.186 0.218 0.402 0.03 0.11 0.15 0.529 0.268 0.93 0.337 1.148 0.554 1.951 0.802 2.974 0.144 0.593 0.257 1.008 0.365 1.34 0.115 0.355 0.123 0.435 0.073 0.763-0.041 0.275-0.036 0.443 0.019 0.64 0.1 0.365 0.334 0.584 0.726 0.684 0.301 0.077 0.503 0.09 1.341 0.092 0.824 0 0.93-6e-3 1.141-0.076 0.123-0.04 0.228-0.125 0.263-0.212a0.9 0.9 0 0 0 0.037-0.193c0.015-0.157 0.03-0.175 0.133-0.149a0.2 0.2 0 0 0 0.208-0.053c0.167-0.155 0.176-0.623 0.015-0.779-0.125-0.12-0.323-0.163-0.892-0.188-0.586-0.026-0.79-0.07-1.078-0.23-0.174-0.098-0.307-0.215-0.355-0.316a1.618 1.618 0 0 1-0.077-0.277 3.27 3.27 0 0 0-0.084-0.33c-0.061-0.181-0.297-0.662-0.569-1.161-0.411-0.757-0.55-1.088-0.711-1.708a68.751 68.751 0 0 0-0.328-1.177 24.88 24.88 0 0 1-0.26-0.956c-0.05-0.245-0.057-0.483-0.03-1.039 0.028-0.586 0.028-1.014 0-1.185a5.316 5.316 0 0 0-0.103-0.419c-0.122-0.43-0.14-0.56-0.14-1.005 0-0.51 0.04-0.915 0.224-2.195 0.189-1.313 0.234-1.784 0.246-2.54 5e-3 -0.313 0.014-0.574 0.02-0.581 7e-3 -7e-3 0.408-0.151 0.891-0.321 0.484-0.17 0.985-0.348 1.114-0.395 1.12-0.412 1.652-0.706 2.207-1.219 1.275-1.176 2.091-2.87 2.851-5.916 0.373-1.493 0.544-2.447 0.63-3.515 0.017-0.205 0.038-0.659 0.068-1.482 0.038-1.011 0.094-1.208 0.587-2.046 0.207-0.352 0.414-0.746 0.487-0.93 0.03-0.073 0.071-0.224 0.093-0.335s0.047-0.218 0.056-0.238c0.018-0.041 0.426-0.247 0.763-0.383 0.252-0.102 0.752-0.35 0.896-0.444a3.54 3.54 0 0 0 0.235-0.172l0.145-0.115c0.011-0.01 0.1 0.023 0.226 0.08 0.114 0.051 0.271 0.113 0.35 0.137 0.132 0.04 0.165 0.044 0.46 0.045 0.359 0 0.493-0.024 0.721-0.133 0.252-0.12 0.328-0.216 0.361-0.45 0.031-0.225-2e-3 -0.35-0.143-0.54-0.036-0.049-0.02-0.08 0.078-0.15 0.134-0.096 0.156-0.163 0.156-0.469 0-0.327-7e-3 -0.342-0.28-0.625a3.79 3.79 0 0 1-0.584-0.766c-0.266-0.472-0.358-0.597-0.489-0.659-0.148-0.07-0.53-0.098-1.704-0.12-1.231-0.024-1.623-0.052-1.986-0.144-0.3-0.075-0.478-0.177-0.82-0.466-0.228-0.194-0.256-0.201-0.714-0.202-0.407 0-0.651 0.02-1.005 0.086-0.27 0.05-0.43 0.054-0.545 0.014a4.62 4.62 0 0 1-0.293-0.126 3.71 3.71 0 0 0-0.293-0.123c-0.328-0.104-0.619-0.066-0.867 0.111-0.228 0.162-0.382 0.377-0.683 0.95-0.105 0.199-0.28 0.523-0.392 0.721-0.424 0.757-0.558 1.165-0.575 1.751-0.014 0.453 0.024 0.638 0.26 1.294 0.129 0.354 0.128 0.352 0.128 1.38 0 0.588-7e-3 1.01-0.021 1.189a27.233 27.233 0 0 1-0.264 2.338c-0.104 0.61-0.174 0.81-0.343 0.98-0.212 0.215-0.514 0.285-1.232 0.285-0.606 0-0.88-0.044-1.165-0.186-0.467-0.235-1.053-0.817-1.568-1.56a14.298 14.298 0 0 1-0.722-1.183c-0.907-1.607-1.391-2.22-2.363-2.983-0.586-0.46-0.879-0.898-1.12-1.671-0.244-0.786-0.612-1.35-1.2-1.839-0.708-0.587-1.319-0.788-2.402-0.79-0.44 0-0.632 0.018-0.918 0.091-0.6 0.154-1.006 0.461-1.25 0.95-0.094 0.186-0.143 0.385-0.323 1.286-0.18 0.911-0.28 1.262-0.466 1.643-0.13 0.265-0.27 0.46-0.497 0.686-0.274 0.273-0.463 0.367-0.63 0.312-0.138-0.045-0.21-0.162-0.72-1.183-0.471-0.938-0.596-1.175-0.787-1.494-0.33-0.55-0.606-0.8-0.982-0.888-0.108-0.025-0.198-0.03-0.524-0.03-0.454 3e-3 -0.506 0.012-0.846 0.158-0.892 0.382-1.585 0.95-1.801 1.474-0.115 0.278-0.557 1.664-0.82 2.57-0.15 0.516-0.21 0.684-0.338 0.937-0.16 0.32-0.244 0.427-0.653 0.834a5.503 5.503 0 0 0-0.53 0.578c-0.386 0.52-0.724 1.138-1.126 2.065-0.612 1.408-0.824 2.132-0.891 3.036-0.03 0.387-0.012 1.261 0.042 2.172 0.054 0.906 0.052 1.286-8e-3 1.475-0.044 0.14-0.177 0.409-0.276 0.561-0.132 0.204-0.21 0.267-0.822 0.67-0.217 0.142-0.416 0.288-0.52 0.381-0.433 0.39-0.719 0.879-0.756 1.297-0.012 0.137 0.014 0.229 0.07 0.243 0.108 0.027 0.73-0.268 1.497-0.71 0.403-0.23 0.64-0.384 0.939-0.606 0.302-0.224 0.4-0.285 0.479-0.298 0.047-8e-3 0.06-3e-3 0.077 0.03 0.102 0.19 0.512 1.865 0.844 3.449 0.298 1.42 0.361 1.911 0.361 2.836 0 0.728-0.046 1.24-0.16 1.772-0.1 0.467-0.113 0.6-0.102 1.141 0.01 0.496 0.029 0.772 0.153 2.204 0.12 1.379 0.142 1.951 0.111 2.824a91.517 91.517 0 0 1-0.262 4.005c-0.057 0.573-0.098 0.775-0.225 1.104-0.124 0.322-0.17 0.49-0.18 0.672-0.015 0.27 0.046 0.436 0.23 0.62 0.229 0.229 0.553 0.293 1.282 0.253 0.99-0.054 1.146-0.099 1.096-0.314-0.024-0.108-0.019-0.17 0.017-0.19a0.59 0.59 0 0 1 0.172-0.017c0.18 0 0.33-0.025 0.382-0.064a0.406 0.406 0 0 0 0.084-0.105c0.034-0.06 0.042-0.097 0.042-0.2a0.37 0.37 0 0 0-0.059-0.234c-0.07-0.13-0.253-0.32-0.452-0.47-0.605-0.453-1.03-0.96-1.097-1.309-0.106-0.555-0.09-2.158 0.04-3.952 0.072-0.983 0.099-1.45 0.118-2.062 0.02-0.632 0.033-0.703 0.193-1.072 0.084-0.195 0.182-0.537 0.25-0.879 0.084-0.41 0.1-0.54 0.1-0.814 0-0.28-0.034-0.46-0.132-0.7-0.083-0.206-0.098-0.315-0.075-0.563a7.522 7.522 0 0 1 0.36-1.753c0.14-0.41 0.263-0.69 0.557-1.27 0.406-0.802 0.556-1.152 0.614-1.433 0.099-0.48 0.115-1.447 0.031-1.905a2.144 2.144 0 0 1-0.028-0.327c0-0.148 6e-3 -0.18 0.048-0.273a0.52 0.52 0 0 1 0.299-0.28c0.16-0.047 0.248-0.025 0.351 0.09 0.126 0.14 0.22 0.37 0.424 1.043 0.21 0.694 0.52 1.647 0.855 2.63 0.749 2.194 0.926 2.893 1.13 4.448 0.16 1.223 0.284 1.7 0.663 2.547 0.12 0.27 0.567 1.154 0.854 1.693 0.59 1.102 0.891 1.895 1.165 3.058 0.17 0.726 0.28 1.068 0.44 1.383 0.076 0.147 0.108 0.188 0.267 0.345 0.2 0.197 0.205 0.208 0.144 0.344-0.029 0.064-0.038 0.123-0.044 0.276-0.01 0.258 0.017 0.354 0.124 0.448 0.1 0.088 0.353 0.212 0.5 0.246 0.142 0.033 0.54 0.057 0.942 0.058 0.313 0 0.64 0.025 0.666 0.05 0.023 0.022 0 0.07-0.143 0.297-0.174 0.274-0.215 0.362-0.215 0.459 0 0.103 0.07 0.24 0.205 0.4 0.293 0.348 0.632 0.495 1.311 0.57 0.393 0.043 1.151 0.062 1.348 0.033zm-2.595-3.276c-0.17-0.089-0.364-0.251-0.68-0.568a4.333 4.333 0 0 1-0.665-0.797c-0.42-0.629-0.73-1.472-1.177-3.193-0.377-1.45-0.562-2.36-0.658-3.233-0.042-0.379-0.04-1.629 1e-3 -2.17 0.038-0.482 0.054-1.49 0.03-1.794-0.01-0.124-0.03-0.343-0.044-0.486-0.077-0.781-0.059-2.113 0.032-2.377 0.016-0.047 0.031-0.062 0.067-0.066 0.072-0.01 0.254 0.054 0.575 0.2 0.49 0.222 0.835 0.325 1.236 0.368 0.405 0.043 0.93-0.037 1.27-0.195a0.478 0.478 0 0 1 0.144-0.05c0.027 0.016 0.037 0.27 0.052 1.264 0.02 1.262 0.038 1.534 0.168 2.485 0.11 0.81 0.123 0.953 0.124 1.446 1e-3 0.492-0.013 0.628-0.108 1.056a4.264 4.264 0 0 0-0.118 1.106c0 0.522 0.05 0.938 0.179 1.5a9.867 9.867 0 0 1 0.124 4.016c-0.091 0.556-0.303 1.463-0.356 1.526-0.028 0.034-0.077 0.025-0.196-0.038z" filter="url(#e)" opacity=".3"/>
    <circle cx="14.042" cy="244" r="6.473" fill="#fabd2f"/>
    <path d="m32.687 282.73c0.058-8e-3 0.1-0.025 0.115-0.044 0.03-0.04 0.016-0.15-0.03-0.24-0.038-0.074-0.043-0.126-0.014-0.144 0.01-7e-3 0.115-0.018 0.23-0.025 0.237-0.014 0.355-0.046 0.445-0.12 0.133-0.11 0.155-0.277 0.061-0.465a1.881 1.881 0 0 0-0.375-0.48c-0.261-0.252-0.477-0.392-0.758-0.492-0.226-0.081-0.265-0.116-0.308-0.278a0.711 0.711 0 0 0-0.086-0.168c-0.118-0.173-0.177-0.446-0.225-1.037-0.052-0.644-0.062-1.063-0.071-2.975l-9e-3 -1.953 0.1-0.2c0.184-0.367 0.351-0.736 0.396-0.871 0.075-0.23 0.113-0.469 0.162-1.022 0.09-1.017 0.19-1.335 0.984-3.15 0.669-1.53 1.098-2.587 1.362-3.352 0.244-0.708 0.445-1.124 0.63-1.302 0.068-0.065 0.165-0.114 0.224-0.114 0.098 0 0.246 0.128 0.369 0.318 0.12 0.186 0.376 0.727 0.543 1.15 0.3 0.759 0.54 1.524 0.762 2.436 0.29 1.185 0.448 1.66 0.802 2.405 0.26 0.546 0.3 0.675 0.356 1.188 0.067 0.605 0.197 1.093 0.396 1.49 0.079 0.155 0.142 0.247 0.258 0.372 0.142 0.154 0.16 0.186 0.218 0.402 0.03 0.11 0.15 0.529 0.268 0.93 0.337 1.148 0.554 1.951 0.802 2.974 0.144 0.593 0.257 1.008 0.365 1.34 0.115 0.355 0.123 0.435 0.073 0.763-0.041 0.275-0.036 0.443 0.019 0.64 0.1 0.365 0.334 0.584 0.726 0.684 0.301 0.077 0.503 0.09 1.341 0.092 0.824 0 0.93-6e-3 1.141-0.076 0.123-0.04 0.228-0.125 0.263-0.212a0.9 0.9 0 0 0 0.037-0.193c0.015-0.157 0.03-0.175 0.133-0.149a0.2 0.2 0 0 0 0.208-0.053c0.167-0.155 0.176-0.623 0.015-0.779-0.125-0.12-0.323-0.163-0.892-0.188-0.586-0.026-0.79-0.07-1.078-0.23-0.174-0.098-0.307-0.215-0.355-0.316a1.618 1.618 0 0 1-0.077-0.277 3.27 3.27 0 0 0-0.084-0.33c-0.061-0.181-0.297-0.662-0.569-1.161-0.411-0.757-0.55-1.088-0.711-1.708a68.751 68.751 0 0 0-0.328-1.177 24.88 24.88 0 0 1-0.26-0.956c-0.05-0.245-0.057-0.483-0.03-1.039 0.028-0.586 0.028-1.014 0-1.185a5.316 5.316 0 0 0-0.103-0.419c-0.122-0.43-0.14-0.56-0.14-1.005 0-0.51 0.04-0.915 0.224-2.195 0.189-1.313 0.234-1.784 0.246-2.54 5e-3 -0.313 0.014-0.574 0.02-0.581 7e-3 -7e-3 0.408-0.151 0.891-0.321 0.484-0.17 0.985-0.348 1.114-0.395 1.12-0.412 1.652-0.706 2.207-1.219 1.275-1.176 2.091-2.87 2.851-5.916 0.373-1.493 0.544-2.447 0.63-3.515 0.017-0.205 0.038-0.659 0.068-1.482 0.038-1.011 0.094-1.208 0.587-2.046 0.207-0.352 0.414-0.746 0.487-0.93 0.03-0.073 0.071-0.224 0.093-0.335s0.047-0.218 0.056-0.238c0.018-0.041 0.426-0.247 0.763-0.383 0.252-0.102 0.752-0.35 0.896-0.444a3.54 3.54 0 0 0 0.235-0.172l0.145-0.115c0.011-0.01 0.1 0.023 0.226 0.08 0.114 0.051 0.271 0.113 0.35 0.137 0.132 0.04 0.165 0.044 0.46 0.045 0.359 0 0.493-0.024 0.721-0.133 0.252-0.12 0.328-0.216 0.361-0.45 0.031-0.225-2e-3 -0.35-0.143-0.54-0.036-0.049-0.02-0.08 0.078-0.15 0.134-0.096 0.156-0.163 0.156-0.469 0-0.327-7e-3 -0.342-0.28-0.625a3.79 3.79 0 0 1-0.584-0.766c-0.266-0.472-0.358-0.597-0.489-0.659-0.148-0.07-0.53-0.098-1.704-0.12-1.231-0.024-1.623-0.052-1.986-0.144-0.3-0.075-0.478-0.177-0.82-0.466-0.228-0.194-0.256-0.201-0.714-0.202-0.407 0-0.651 0.02-1.005 0.086-0.27 0.05-0.43 0.054-0.545 0.014a4.62 4.62 0 0 1-0.293-0.126 3.71 3.71 0 0 0-0.293-0.123c-0.328-0.104-0.619-0.066-0.867 0.111-0.228 0.162-0.382 0.377-0.683 0.95-0.105 0.199-0.28 0.523-0.392 0.721-0.424 0.757-0.558 1.165-0.575 1.751-0.014 0.453 0.024 0.638 0.26 1.294 0.129 0.354 0.128 0.352 0.128 1.38 0 0.588-7e-3 1.01-0.021 1.189a27.233 27.233 0 0 1-0.264 2.338c-0.104 0.61-0.174 0.81-0.343 0.98-0.212 0.215-0.514 0.285-1.232 0.285-0.606 0-0.88-0.044-1.165-0.186-0.467-0.235-1.053-0.817-1.568-1.56a14.298 14.298 0 0 1-0.722-1.183c-0.907-1.607-1.391-2.22-2.363-2.983-0.586-0.46-0.879-0.898-1.12-1.671-0.244-0.786-0.612-1.35-1.2-1.839-0.708-0.587-1.319-0.788-2.402-0.79-0.44 0-0.632 0.018-0.918 0.091-0.6 0.154-1.006 0.461-1.25 0.95-0.094 0.186-0.143 0.385-0.323 1.286-0.18 0.911-0.28 1.262-0.466 1.643-0.13 0.265-0.27 0.46-0.497 0.686-0.274 0.273-0.463 0.367-0.63 0.312-0.138-0.045-0.21-0.162-0.72-1.183-0.471-0.938-0.596-1.175-0.787-1.494-0.33-0.55-0.606-0.8-0.982-0.888-0.108-0.025-0.198-0.03-0.524-0.03-0.454 3e-3 -0.506 0.012-0.846 0.158-0.892 0.382-1.585 0.95-1.801 1.474-0.115 0.278-0.557 1.664-0.82 2.57-0.15 0.516-0.21 0.684-0.338 0.937-0.16 0.32-0.244 0.427-0.653 0.834a5.503 5.503 0 0 0-0.53 0.578c-0.386 0.52-0.724 1.138-1.126 2.065-0.612 1.408-0.824 2.132-0.891 3.036-0.03 0.387-0.012 1.261 0.042 2.172 0.054 0.906 0.052 1.286-8e-3 1.475-0.044 0.14-0.177 0.409-0.276 0.561-0.132 0.204-0.21 0.267-0.822 0.67-0.217 0.142-0.416 0.288-0.52 0.381-0.433 0.39-0.719 0.879-0.756 1.297-0.012 0.137 0.014 0.229 0.07 0.243 0.108 0.027 0.73-0.268 1.497-0.71 0.403-0.23 0.64-0.384 0.939-0.606 0.302-0.224 0.4-0.285 0.479-0.298 0.047-8e-3 0.06-3e-3 0.077 0.03 0.102 0.19 0.512 1.865 0.844 3.449 0.298 1.42 0.361 1.911 0.361 2.836 0 0.728-0.046 1.24-0.16 1.772-0.1 0.467-0.113 0.6-0.102 1.141 0.01 0.496 0.029 0.772 0.153 2.204 0.12 1.379 0.142 1.951 0.111 2.824a91.517 91.517 0 0 1-0.262 4.005c-0.057 0.573-0.098 0.775-0.225 1.104-0.124 0.322-0.17 0.49-0.18 0.672-0.015 0.27 0.046 0.436 0.23 0.62 0.229 0.229 0.553 0.293 1.282 0.253 0.99-0.054 1.146-0.099 1.096-0.314-0.024-0.108-0.019-0.17 0.017-0.19a0.59 0.59 0 0 1 0.172-0.017c0.18 0 0.33-0.025 0.382-0.064a0.406 0.406 0 0 0 0.084-0.105c0.034-0.06 0.042-0.097 0.042-0.2a0.37 0.37 0 0 0-0.059-0.234c-0.07-0.13-0.253-0.32-0.452-0.47-0.605-0.453-1.03-0.96-1.097-1.309-0.106-0.555-0.09-2.158 0.04-3.952 0.072-0.983 0.099-1.45 0.118-2.062 0.02-0.632 0.033-0.703 0.193-1.072 0.084-0.195 0.182-0.537 0.25-0.879 0.084-0.41 0.1-0.54 0.1-0.814 0-0.28-0.034-0.46-0.132-0.7-0.083-0.206-0.098-0.315-0.075-0.563a7.522 7.522 0 0 1 0.36-1.753c0.14-0.41 0.263-0.69 0.557-1.27 0.406-0.802 0.556-1.152 0.614-1.433 0.099-0.48 0.115-1.447 0.031-1.905a2.144 2.144 0 0 1-0.028-0.327c0-0.148 6e-3 -0.18 0.048-0.273a0.52 0.52 0 0 1 0.299-0.28c0.16-0.047 0.248-0.025 0.351 0.09 0.126 0.14 0.22 0.37 0.424 1.043 0.21 0.694 0.52 1.647 0.855 2.63 0.749 2.194 0.926 2.893 1.13 4.448 0.16 1.223 0.284 1.7 0.663 2.547 0.12 0.27 0.567 1.154 0.854 1.693 0.59 1.102 0.891 1.895 1.165 3.058 0.17 0.726 0.28 1.068 0.44 1.383 0.076 0.147 0.108 0.188 0.267 0.345 0.2 0.197 0.205 0.208 0.144 0.344-0.029 0.064-0.038 0.123-0.044 0.276-0.01 0.258 0.017 0.354 0.124 0.448 0.1 0.088 0.353 0.212 0.5 0.246 0.142 0.033 0.54 0.057 0.942 0.058 0.313 0 0.64 0.025 0.666 0.05 0.023 0.022 0 0.07-0.143 0.297-0.174 0.274-0.215 0.362-0.215 0.459 0 0.103 0.07 0.24 0.205 0.4 0.293 0.348 0.632 0.495 1.311 0.57 0.393 0.043 1.151 0.062 1.348 0.033zm-2.595-3.276c-0.17-0.089-0.364-0.251-0.68-0.568a4.333 4.333 0 0 1-0.665-0.797c-0.42-0.629-0.73-1.472-1.177-3.193-0.377-1.45-0.562-2.36-0.658-3.233-0.042-0.379-0.04-1.629 1e-3 -2.17 0.038-0.482 0.054-1.49 0.03-1.794-0.01-0.124-0.03-0.343-0.044-0.486-0.077-0.781-0.059-2.113 0.032-2.377 0.016-0.047 0.031-0.062 0.067-0.066 0.072-0.01 0.254 0.054 0.575 0.2 0.49 0.222 0.835 0.325 1.236 0.368 0.405 0.043 0.93-0.037 1.27-0.195a0.478 0.478 0 0 1 0.144-0.05c0.027 0.016 0.037 0.27 0.052 1.264 0.02 1.262 0.038 1.534 0.168 2.485 0.11 0.81 0.123 0.953 0.124 1.446 1e-3 0.492-0.013 0.628-0.108 1.056a4.264 4.264 0 0 0-0.118 1.106c0 0.522 0.05 0.938 0.179 1.5a9.867 9.867 0 0 1 0.124 4.016c-0.091 0.556-0.303 1.463-0.356 1.526-0.028 0.034-0.077 0.025-0.196-0.038z" fill="#ebdbb2"/>
  </g>
  <g opacity=".4">
    <linearGradient id="c" x1=".517" x2=".517" y2="1" gradientTransform="matrix(244.65,0,0,228.34,5.68,11.95)" gradientUnits="userSpaceOnUse">
      <stop stop-color="#d5c4a1" offset="0"/>
      <stop stop-color="#ebdbb2" stop-opacity=".098" offset=".125"/>
      <stop stop-color="#282828" stop-opacity=".098039" offset=".925"/>
      <stop stop-color="#282828" stop-opacity=".49804" offset="1"/>
    </linearGradient>
    <path d="m165.07 11.951c4.328-0.01 8.656 0.04 12.984 0.138 3.875 0.078 7.7436 0.25854 11.62 0.48454 3.453 0.196 6.8876 0.5327 10.33 0.9057 3.06 0.335 6.0892 0.83409 9.1192 1.3941 2.7131 0.50032 5.3525 1.181 7.9999 1.9571 2.3983 0.69679 4.7544 1.61 7.0323 2.6338 2.1121 0.94124 4.0427 2.0439 5.9631 3.3319 1.8405 1.2399 3.5996 2.7014 5.1741 4.2652 1.5652 1.5692 2.886 3.1628 4.1277 4.9987 1.2864 1.9174 2.4086 3.8707 3.3603 5.9744 1.0207 2.2746 1.9193 4.5772 2.628 6.9675 0.77696 2.6443 1.4779 5.3272 1.9787 8.0374 0.56201 3.0246 1.0626 6.0601 1.3989 9.1181 0.374 3.439 0.70873 6.8493 0.90573 10.297 0.226 3.861 0.42171 7.7394 0.51071 11.6 0.088 4.323 0.138 8.646 0.128 12.96v58.21c0.01 4.324-0.04 8.637-0.128 12.96-0.085 3.8668-0.28821 7.7331-0.51114 11.595-0.19655 3.4488-0.53822 6.9467-0.91224 10.38-0.33634 3.0613-0.82936 6.0316-1.3914 9.0596-0.50199 2.7066-1.1867 5.3458-1.9626 7.987-0.7071 2.3908-1.5665 4.6263-2.5888 6.9002-0.94995 2.1048-2.1624 4.2292-3.4512 6.1454-1.2392 1.8377-2.5377 3.3902-4.1052 4.9572-1.5746 1.5638-3.412 3.0712-5.2525 4.3111-1.9201 1.2879-3.8611 2.3701-5.9729 3.3114-2.3498 1.0736-4.5744 1.8717-6.9323 2.584-2.6776 0.81656-5.2934 1.4166-7.976 1.948-3.0309 0.56603-6.051 1.0612-9.1165 1.3921-3.5041 0.40869-6.8203 0.68433-10.336 0.90377-3.875 0.226-7.789 0.40013-11.665 0.48813-4.328 0.088-8.6314 0.15082-12.959 0.14082h-74.126c-4.328 0.01-8.6566-0.0545-12.985-0.14247-3.9049-0.0955-7.7449-0.24667-11.628-0.49085-3.4941-0.21923-7.0445-0.5149-10.452-0.92805-3.1873-0.37665-5.9337-0.7937-8.9951-1.3902-2.833-0.56139-5.3421-1.1637-7.9464-1.9566-2.4295-0.73175-4.8105-1.6266-7.0523-2.6548-2.139-0.97893-4.0617-2.0635-5.9983-3.3731-1.8405-1.2399-3.5141-2.6495-5.0886-4.2133-1.5676-1.5671-2.9061-3.1787-4.1454-5.0164-1.2884-1.9162-2.4021-3.8332-3.3518-5.9379-1.0223-2.2739-1.9238-4.5236-2.6309-6.9144-0.77585-2.6412-1.4977-5.3053-1.9996-8.0119-0.56202-3.028-1.0938-6.1087-1.4301-9.17-0.37402-3.4341-0.72617-6.8459-0.92272-10.295-0.22292-3.8613-0.42179-7.7427-0.50684-11.61-0.09185-4.3194-0.13452-8.6396-0.128-12.96v-58.21c-0.01-4.314 0.04-8.637 0.128-12.96 0.089-3.86 0.28015-7.7353 0.50615-11.596 0.197-3.448 0.54883-6.857 0.92283-10.296 0.335-3.055 0.87336-6.1638 1.4344-9.1898 0.50085-2.7102 1.1807-5.2262 1.9577-7.8705 0.70872-2.3902 1.7549-4.9868 2.7756-7.2614 0.95209-2.1037 1.9632-3.7998 3.2499-5.7172 1.2418-1.8358 2.594-3.4604 4.1593-5.0296 1.5745-1.5638 3.3273-3.0214 5.1678-4.2614 1.9201-1.2879 3.8238-2.3848 5.9356-3.3261 2.278-1.0238 4.5428-1.9236 6.9411-2.6204 2.6474-0.77617 5.2743-1.4761 7.9874-1.9764 3.0317-0.56124 6.1381-1.085 9.203-1.4208 3.443-0.373 6.8398-0.71288 10.293-0.90888 3.875-0.226 7.7331-0.41514 11.609-0.49314 4.328-0.098 8.6625-0.14613 12.991-0.13613zm0.01 4.009c4.298-0.01 8.597 0.039 12.895 0.127 3.827 0.089 7.6466 0.26854 11.474 0.48454 3.383 0.197 6.7724 0.43946 10.136 0.81246 2.971 0.315 5.9391 0.74869 8.8701 1.2987 2.5807 0.47339 5.1059 1.0723 7.6238 1.8101 2.2193 0.6492 4.4135 1.4563 6.5231 2.4032 1.9054 0.85272 3.7179 1.8543 5.4527 3.0153 1.6245 1.0927 3.1568 2.3505 4.5413 3.7347 1.3858 1.385 2.6374 2.8981 3.738 4.519 1.1601 1.7266 2.1737 3.5473 3.03 5.443 0.94487 2.1083 1.7467 4.2779 2.4 6.494 0.74152 2.5113 1.352 5.0594 1.829 7.634 0.54 2.928 0.974 5.875 1.298 8.842 0.374 3.36 0.65 6.73 0.846 10.11 0.217 3.822 0.374 7.634 0.453 11.456 0.088 4.293 0.137 8.577 0.137 12.87v58.212c0 4.293-0.049 8.577-0.137 12.87-0.082 3.8211-0.0546 7.643-0.27458 11.459-0.196 3.38-0.65042 6.7474-1.0244 10.117-0.3245 2.9589-0.75746 5.9049-1.298 8.832-0.47731 2.5747-1.0881 5.1228-1.83 7.634-0.65169 2.2166-1.4536 4.3863-2.4 6.494-0.8542 1.8968-1.8678 3.7176-3.03 5.443-1.0976 1.6263-2.349 3.1432-3.737 4.53-1.3876 1.3779-2.9027 2.6211-4.525 3.713-1.7345 1.161-3.564 2.1732-5.469 3.026-2.1078 0.95119-4.2802 1.7522-6.501 2.397-2.5179 0.7378-5.0723 1.3446-7.653 1.818-2.931 0.55-5.8828 0.98162-8.8538 1.3056-3.364 0.364-6.7562 0.64938-10.139 0.83638-3.827 0.216-7.6776 0.36018-11.505 0.43918-4.298 0.098-8.5724 0.14982-12.87 0.14982h-74.146c-4.298 0-8.5976-0.0545-12.896-0.15147-3.8291-0.082-7.6582-0.26152-11.482-0.48085-3.3834-0.19001-6.7587-0.42545-10.127-0.79268-2.97-0.32174-5.9265-0.7574-8.863-1.306-2.5807-0.47339-5.1351-1.0802-7.653-1.818-2.2208-0.64482-4.3673-1.4321-6.4751-2.3833-1.9053-0.85272-3.7547-1.8723-5.4895-3.0333-1.622-1.0922-3.1431-2.3423-4.5303-3.7205-1.3882-1.3864-2.64-2.903-3.738-4.529-1.1622-1.7254-2.1758-3.5462-3.03-5.443-0.94645-2.1077-1.7483-4.2774-2.4-6.494-0.74152-2.5113-1.352-5.0594-1.829-7.634-0.54054-2.9271-0.9735-5.8731-1.298-8.832-0.374-3.37-0.65-6.74-0.846-10.12-0.21993-3.8156-0.37096-7.6349-0.453-11.456-0.08992-4.2894-0.13559-8.5796-0.137-12.87v-58.212c0-4.293 0.049-8.577 0.137-12.87 0.079-3.822 0.236-7.634 0.453-11.456 0.197-3.38 0.472-6.75 0.846-10.11 0.324-2.967 0.757-5.914 1.298-8.842 0.47732-2.5747 1.0915-5.1375 1.8334-7.6487 0.65331-2.2161 1.4517-4.371 2.3966-6.4793 0.85634-1.8957 1.8699-3.7164 3.03-5.443 1.1003-1.6212 2.3515-3.1346 3.737-4.52 1.3849-1.3839 2.9002-2.6307 4.525-3.723 1.7345-1.161 3.564-2.1732 5.469-3.026 2.1096-0.94691 4.2817-1.7478 6.501-2.397 2.5179-0.7378 5.0723-1.3446 7.653-1.818 2.931-0.55 5.892-0.982 8.863-1.297 3.364-0.373 6.7432-0.64645 10.126-0.84345 3.8239-0.21443 7.6549-0.36667 11.484-0.45355 4.298-0.088 8.597-0.137 12.895-0.127z" fill="url(#c)" fill-rule="evenodd"/>
  </g>
</svg>
