<svg width="256" height="256" style="isolation:isolate" version="1.1" xmlns="http://www.w3.org/2000/svg">
  <g filter="url(#a)">
    <linearGradient id="b" x1=".50002" x2=".50002" y1="-.00051239" y2="1" gradientTransform="matrix(244.65,0,0,228.34,5.676,11.947)" gradientUnits="userSpaceOnUse">
      <stop stop-color="#3c3836" offset="0"/>
      <stop stop-color="#282828" offset="1"/>
    </linearGradient>
    <path d="m165.68 11.947c72.707 0 84.639 12.053 84.639 84.544v59.251c0 72.561-11.932 84.543-84.639 84.543h-75.37c-72.294 0-84.639-11.982-84.639-84.543v-59.251c0-72.491 12.329-84.544 84.639-84.544z" fill="url(#b)"/>
  </g>
  <defs>
    <filter id="a" x="-.042124" y="-.045133" width="1.0842" height="1.1078" color-interpolation-filters="sRGB">
      <feGaussianBlur in="SourceGraphic" stdDeviation="4.294"/>
      <feOffset dy="4" result="pf_100_offsetBlur"/>
      <feFlood flood-opacity=".4"/>
      <feComposite in2="pf_100_offsetBlur" operator="in" result="pf_100_dropShadow"/>
      <feBlend in="SourceGraphic" in2="pf_100_dropShadow"/>
    </filter>
  </defs>
  <g transform="translate(7.7585 20.867)">
    <path d="m102.54 25.954c-1.6253 0.33262-3.3148 0.71815-5.0837 1.1453-30.438 7.3591-48.388 24.53-51.672 49.435-0.91469 6.9433-0.7446 9.385 1.5497 21.937l2.5815 14.125-3.1598 2.5664c-4.0065 3.2506-7.4536 8.8559-9.2376 15.005-1.1453 3.9309-1.716 6.2932-0.48002 13.059 1.236 6.7657 2.6382 8.9428 5.0875 12.171 5.2462 6.9093 12.507 11.139 20.717 12.069 3.621 0.41199 11.362-1.1604 15.062-3.0616 5.9342-3.0427 5.7641-4.4601-1.1679-9.6194-12.692-9.4455-16.43-17.235-21.446-44.718-5.0497-27.66-4.4298-36.966 3.311-49.677 4.8834-8.0206 8.837-11.853 17.829-17.292 11.74-7.0983 23.767-11.207 35.015-11.955 17.413-1.1642 30.276 1.7765 41.021 9.3775 13.255 9.3812 17.058 17.209 22.315 45.973 5.0308 27.531 4.4034 35.643-3.81 49.125-4.3618 7.1588-4.3693 7.1739-2.1658 8.7311 1.2171 0.86177 4.2257 1.4854 6.6901 1.3872 13.119-0.52916 23.525-8.7311 27.327-21.537 1.3531-4.5621 1.8407-6.6334 0.55562-13.683-1.236-6.7695-2.5173-8.8634-4.9703-12.091-3.8288-5.0384-9.0146-8.939-13.89-10.44l-3.844-1.1868-2.5815-14.125c-2.283-12.492-3.0011-14.907-6.2328-20.89-8.4288-15.603-19.87-23.464-38.587-26.507-11.097-1.8029-19.352-1.6782-30.729 0.67657zm-42.435 84.167c-2.2943 0.45356-2.3094 0.60475-1.0281 9.1469 0.71814 4.7738 2.1696 10.852 3.2241 13.505 3.844 9.6496 14.892 22.629 20.199 23.725 2.6949 0.55562 3.0994 0.51027 4.7662-0.56317 2.3359-1.5006 1.0394-3.7192-4.6717-8.0054-9.4871-7.1248-14.355-15.142-17.991-29.648-2.1053-8.4023-2.2225-8.6102-4.4979-8.1642zm110.22-21.741c-2.2792 0.44601-2.3094 0.68035-1.3078 9.3057 1.7349 14.881 0.0302 24.19-6.2857 34.433-3.655 5.9304-4.2106 8.7311-1.8369 9.2603 2.6949 0.59342 5.8888-1.7538 8.648-6.3688 3.4395-5.7489 6.6069-17.36 6.7279-24.666 0.0491-2.899-0.74838-9.1318-1.7651-13.849-1.8143-8.4288-1.8899-8.5686-4.1842-8.115z" fill="#fe8019" stroke="#282828" stroke-linecap="round" stroke-linejoin="bevel" stroke-width="1.6222"/>
    <path d="m162.55 96.813c9.0297 39.638-3.1598 92.312-25.849 97.63-13.675 3.2052-32.256-2.1431-52.84-33.401-13.565-20.588-35.764-72.918-30.506-68.825 5.73 4.4638 16.404 11.838 16.918-1.4325 0.32506-8.3607 5.0497-17.825-0.79374-25.766-4.1426-5.6356 20.365 8.5422 7.2117-22.913-2.2943-5.4881 21.609 42.329 17.493-14.042 0 0 35.681 56.431 19.337-11.796-2.797-11.691 20.38 82.145 26.106 18.471 0.98651-10.984 5.1631 74.801 20.739 10.02 3.9914-16.593 1.2095 47.764 2.1847 52.054z" fill="#282828" stroke-width="3.7797"/>
    <path d="m158.98 100.79c8.081 36.652-2.8272 85.357-23.132 90.275-20.297 4.9136-47.307-20.807-55.384-57.459-8.081-36.652 5.8283-70.348 26.129-75.265 20.297-4.9136 44.306 5.8019 52.387 42.45z" fill="#fe8019" stroke-width="3.7797"/>
    <path d="m146 89.295a1.6328 1.6328 0 0 0-0.71815 0.20788l-27.131 14.885-29.58-1.1528h-0.16631c-2.1242 0.0567-2.0902 3.2316 0.0378 3.243l14.911 4.4601 9.2754-3.5227-18.967 10.409c-1.9466 1.0205-0.35151 3.9309 1.5572 2.8424l23.721-13.002 28.412 1.0961c2.3321 0.2797 2.4682-3.3299 0.12096-3.2279l-23.018-0.89957 10.935-2.8348 11.445-9.4379c1.5761-0.79374 0.92603-3.1787-0.83531-3.0616zm3.2052 31.746c-4.6944-0.25324-10.096 2.3434-14.559 4.0821-4.29 1.6631-7.0454 6.3121-11.415 7.756-8.391 2.7819-19.216-3.8818-26.488 1.1415-5.2462 3.6247-9.8273 12.42-7.5405 17.587 7.2079 16.268 14.556 24.281 25.804 32.196a26.946 26.946 0 0 0 13.932 4.8002c3.5945 0.17009 7.2495-0.9676 10.504-2.5097 1.8143-0.86177 3.4584-2.1544 4.7965-3.6588 2.1809-2.4455 3.689-5.4579 5.027-8.4514 1.9768-4.4412 3.0918-9.2225 4.3353-13.924 1.9125-7.2306 5.095-14.454 4.8002-21.926-0.22679-5.4844-0.16631-12.813-4.8002-15.758a8.9315 8.9315 0 0 0-4.3958-1.3342zm-19.125 41.985a7.9941 6.263 0 0 1 7.9941 6.263 7.9941 6.263 0 0 1-7.9941 6.2592 7.9941 6.263 0 0 1-7.9903-6.2592 7.9941 6.263 0 0 1 7.9903-6.263z" fill="#282828" stroke-width="3.7797"/>
    <path d="m100.86 162.11s-8.8559-5.8208-9.5362-10.504c-0.82398-5.6847 2.7063-12.333 7.4838-15.527 4.3694-2.9293 10.496-0.69547 15.754-0.91469 2.9671-0.12473 6.0627 0.62365 8.905-0.22678 4.5546-1.3645 7.9223-5.2765 12.103-7.5368 3.0276-1.6366 6.006-3.5983 9.3624-4.3391 2.3056-0.51026 4.9136-0.93359 7.0794 0 1.7311 0.7446 3.1107 2.3926 3.8818 4.1086 1.7576 3.9044 1.1415 12.791 1.1415 12.791s-3.122 7.7295-3.122 6.588c0-1.1415-5.3256-10.016-5.3256-10.016l-47.042 13.017z" fill="#ebdbb2" stroke-width="3.7797"/>
  </g>
  <g transform="translate(-.01186 -.00316)" opacity=".4">
    <linearGradient id="c" x1=".517" x2=".517" y2="1" gradientTransform="matrix(244.65,0,0,228.34,5.68,11.95)" gradientUnits="userSpaceOnUse">
      <stop stop-color="#928374" offset="0"/>
      <stop stop-color="#928374" stop-opacity=".098039" offset=".125"/>
      <stop stop-opacity=".098039" offset=".925"/>
      <stop stop-opacity=".49804" offset="1"/>
    </linearGradient>
    <path d="m165.07 11.951c4.328-0.01 8.656 0.04 12.984 0.138 3.875 0.078 7.7436 0.25854 11.62 0.48454 3.453 0.196 6.8876 0.5327 10.33 0.9057 3.06 0.335 6.0892 0.83409 9.1192 1.3941 2.7131 0.50032 5.3525 1.181 7.9999 1.9571 2.3983 0.69679 4.7544 1.61 7.0323 2.6338 2.1121 0.94124 4.0427 2.0439 5.9631 3.3319 1.8405 1.2399 3.5996 2.7014 5.1741 4.2652 1.5652 1.5692 2.886 3.1628 4.1277 4.9987 1.2864 1.9174 2.4086 3.8707 3.3603 5.9744 1.0207 2.2746 1.9193 4.5772 2.628 6.9675 0.77696 2.6443 1.4779 5.3272 1.9787 8.0374 0.56201 3.0246 1.0626 6.0601 1.3989 9.1181 0.374 3.439 0.70873 6.8493 0.90573 10.297 0.226 3.861 0.42171 7.7394 0.51071 11.6 0.088 4.323 0.138 8.646 0.128 12.96v58.21c0.01 4.324-0.04 8.637-0.128 12.96-0.085 3.8668-0.28821 7.7331-0.51114 11.595-0.19655 3.4488-0.53822 6.9467-0.91224 10.38-0.33634 3.0613-0.82936 6.0316-1.3914 9.0596-0.50199 2.7066-1.1867 5.3458-1.9626 7.987-0.7071 2.3908-1.5665 4.6263-2.5888 6.9002-0.94995 2.1048-2.1624 4.2292-3.4512 6.1454-1.2392 1.8377-2.5377 3.3902-4.1052 4.9572-1.5746 1.5638-3.412 3.0712-5.2525 4.3111-1.9201 1.2879-3.8611 2.3701-5.9729 3.3114-2.3498 1.0736-4.5744 1.8717-6.9323 2.584-2.6776 0.81656-5.2934 1.4166-7.976 1.948-3.0309 0.56603-6.051 1.0612-9.1165 1.3921-3.5041 0.40869-6.8203 0.68433-10.336 0.90377-3.875 0.226-7.789 0.40013-11.665 0.48813-4.328 0.088-8.6314 0.15082-12.959 0.14082h-74.126c-4.328 0.01-8.6566-0.0545-12.985-0.14247-3.9049-0.0955-7.7449-0.24667-11.628-0.49085-3.4941-0.21923-7.0445-0.5149-10.452-0.92805-3.1873-0.37665-5.9337-0.7937-8.9951-1.3902-2.833-0.56139-5.3421-1.1637-7.9464-1.9566-2.4295-0.73175-4.8105-1.6266-7.0523-2.6548-2.139-0.97893-4.0617-2.0635-5.9983-3.3731-1.8405-1.2399-3.5141-2.6495-5.0886-4.2133-1.5676-1.5671-2.9061-3.1787-4.1454-5.0164-1.2884-1.9162-2.4021-3.8332-3.3518-5.9379-1.0223-2.2739-1.9238-4.5236-2.6309-6.9144-0.77585-2.6412-1.4977-5.3053-1.9996-8.0119-0.56202-3.028-1.0938-6.1087-1.4301-9.17-0.37402-3.4341-0.72617-6.8459-0.92272-10.295-0.22292-3.8613-0.42179-7.7427-0.50684-11.61-0.09185-4.3194-0.13452-8.6396-0.128-12.96v-58.21c-0.01-4.314 0.04-8.637 0.128-12.96 0.089-3.86 0.28015-7.7353 0.50615-11.596 0.197-3.448 0.54883-6.857 0.92283-10.296 0.335-3.055 0.87336-6.1638 1.4344-9.1898 0.50085-2.7102 1.1807-5.2262 1.9577-7.8705 0.70872-2.3902 1.7549-4.9868 2.7756-7.2614 0.95209-2.1037 1.9632-3.7998 3.2499-5.7172 1.2418-1.8358 2.594-3.4604 4.1593-5.0296 1.5745-1.5638 3.3273-3.0214 5.1678-4.2614 1.9201-1.2879 3.8238-2.3848 5.9356-3.3261 2.278-1.0238 4.5428-1.9236 6.9411-2.6204 2.6474-0.77617 5.2743-1.4761 7.9874-1.9764 3.0317-0.56124 6.1381-1.085 9.203-1.4208 3.443-0.373 6.8398-0.71288 10.293-0.90888 3.875-0.226 7.7331-0.41514 11.609-0.49314 4.328-0.098 8.6625-0.14613 12.991-0.13613zm0.01 4.009c4.298-0.01 8.597 0.039 12.895 0.127 3.827 0.089 7.6466 0.26854 11.474 0.48454 3.383 0.197 6.7724 0.43946 10.136 0.81246 2.971 0.315 5.9391 0.74869 8.8701 1.2987 2.5807 0.47339 5.1059 1.0723 7.6238 1.8101 2.2193 0.6492 4.4135 1.4563 6.5231 2.4032 1.9054 0.85272 3.7179 1.8543 5.4527 3.0153 1.6245 1.0927 3.1568 2.3505 4.5413 3.7347 1.3858 1.385 2.6374 2.8981 3.738 4.519 1.1601 1.7266 2.1737 3.5473 3.03 5.443 0.94487 2.1083 1.7467 4.2779 2.4 6.494 0.74152 2.5113 1.352 5.0594 1.829 7.634 0.54 2.928 0.974 5.875 1.298 8.842 0.374 3.36 0.65 6.73 0.846 10.11 0.217 3.822 0.374 7.634 0.453 11.456 0.088 4.293 0.137 8.577 0.137 12.87v58.212c0 4.293-0.049 8.577-0.137 12.87-0.082 3.8211-0.0546 7.643-0.27458 11.459-0.196 3.38-0.65042 6.7474-1.0244 10.117-0.3245 2.9589-0.75746 5.9049-1.298 8.832-0.47731 2.5747-1.0881 5.1228-1.83 7.634-0.65169 2.2166-1.4536 4.3863-2.4 6.494-0.8542 1.8968-1.8678 3.7176-3.03 5.443-1.0976 1.6263-2.349 3.1432-3.737 4.53-1.3876 1.3779-2.9027 2.6211-4.525 3.713-1.7345 1.161-3.564 2.1732-5.469 3.026-2.1078 0.95119-4.2802 1.7522-6.501 2.397-2.5179 0.7378-5.0723 1.3446-7.653 1.818-2.931 0.55-5.8828 0.98162-8.8538 1.3056-3.364 0.364-6.7562 0.64938-10.139 0.83638-3.827 0.216-7.6776 0.36018-11.505 0.43918-4.298 0.098-8.5724 0.14982-12.87 0.14982h-74.146c-4.298 0-8.5976-0.0545-12.896-0.15147-3.8291-0.082-7.6582-0.26152-11.482-0.48085-3.3834-0.19001-6.7587-0.42545-10.127-0.79268-2.97-0.32174-5.9265-0.7574-8.863-1.306-2.5807-0.47339-5.1351-1.0802-7.653-1.818-2.2208-0.64482-4.3673-1.4321-6.4751-2.3833-1.9053-0.85272-3.7547-1.8723-5.4895-3.0333-1.622-1.0922-3.1431-2.3423-4.5303-3.7205-1.3882-1.3864-2.64-2.903-3.738-4.529-1.1622-1.7254-2.1758-3.5462-3.03-5.443-0.94645-2.1077-1.7483-4.2774-2.4-6.494-0.74152-2.5113-1.352-5.0594-1.829-7.634-0.54054-2.9271-0.9735-5.8731-1.298-8.832-0.374-3.37-0.65-6.74-0.846-10.12-0.21993-3.8156-0.37096-7.6349-0.453-11.456-0.08992-4.2894-0.13559-8.5796-0.137-12.87v-58.212c0-4.293 0.049-8.577 0.137-12.87 0.079-3.822 0.236-7.634 0.453-11.456 0.197-3.38 0.472-6.75 0.846-10.11 0.324-2.967 0.757-5.914 1.298-8.842 0.47732-2.5747 1.0915-5.1375 1.8334-7.6487 0.65331-2.2161 1.4517-4.371 2.3966-6.4793 0.85634-1.8957 1.8699-3.7164 3.03-5.443 1.1003-1.6212 2.3515-3.1346 3.737-4.52 1.3849-1.3839 2.9002-2.6307 4.525-3.723 1.7345-1.161 3.564-2.1732 5.469-3.026 2.1096-0.94691 4.2817-1.7478 6.501-2.397 2.5179-0.7378 5.0723-1.3446 7.653-1.818 2.931-0.55 5.892-0.982 8.863-1.297 3.364-0.373 6.7432-0.64645 10.126-0.84345 3.8239-0.21443 7.6549-0.36667 11.484-0.45355 4.298-0.088 8.597-0.137 12.895-0.127z" fill="url(#c)" fill-rule="evenodd"/>
  </g>
</svg>
