<svg width="256" height="256" style="isolation:isolate" version="1.1" xmlns="http://www.w3.org/2000/svg">
  <g filter="url(#a)">
    <linearGradient id="b" x1=".50002" x2=".50002" y1="-.00051239" y2="1" gradientTransform="matrix(244.65,0,0,228.34,5.676,11.947)" gradientUnits="userSpaceOnUse">
      <stop stop-color="#3c3836" offset="0"/>
      <stop stop-color="#504945" offset="1"/>
    </linearGradient>
    <path d="m165.68 11.947c72.707 0 84.639 12.053 84.639 84.544v59.251c0 72.561-11.932 84.543-84.639 84.543h-75.37c-72.294 0-84.639-11.982-84.639-84.543v-59.251c0-72.491 12.329-84.544 84.639-84.544z" fill="url(#b)"/>
  </g>
  <defs>
    <filter id="a" x="-.042124" y="-.045133" width="1.0842" height="1.1078" color-interpolation-filters="sRGB">
      <feGaussianBlur in="SourceGraphic" stdDeviation="4.294"/>
      <feOffset dy="4" result="pf_100_offsetBlur"/>
      <feFlood flood-opacity=".4"/>
      <feComposite in2="pf_100_offsetBlur" operator="in" result="pf_100_dropShadow"/>
      <feBlend in="SourceGraphic" in2="pf_100_dropShadow"/>
    </filter>
    <filter id="FtzlgsoD4oWRTJywi5ThTxA0cnaI3TVS" x="-.092073" y="-.18415" width="1.1841" height="1.3683" color-interpolation-filters="sRGB">
      <feGaussianBlur stdDeviation="4.294"/>
    </filter>
    <linearGradient id="_lgradient_119" x2="0" y2="1" gradientTransform="matrix(50.84 0 0 50.844 102.59 141.99)" gradientUnits="userSpaceOnUse">
      <stop stop-color="#504945" offset="0"/>
      <stop stop-color="#3c3836" offset="1"/>
    </linearGradient>
    <linearGradient id="_lgradient_120" x1=".5" x2=".5" y2="1" gradientTransform="matrix(111.93 0 0 55.964 72.036 141.99)" gradientUnits="userSpaceOnUse">
      <stop stop-color="#8ec07c" offset="0"/>
      <stop stop-color="#83a598" offset="1"/>
    </linearGradient>
    <linearGradient id="_lgradient_121" x1=".5" x2=".5" y2="1" gradientTransform="matrix(132.28 0 0 74.67 61.861 55.502)" gradientUnits="userSpaceOnUse">
      <stop stop-color="#8ec07c" offset="0"/>
      <stop stop-color="#83a598" offset="1"/>
    </linearGradient>
    <linearGradient id="_lgradient_122" x1=".5" x2=".5" y2="1" gradientTransform="matrix(132.28 0 0 73.879 61.861 55.5)" gradientUnits="userSpaceOnUse">
      <stop stop-color="#8ec07c" offset="0"/>
      <stop stop-color="#83a598" offset="1"/>
    </linearGradient>
  </defs>
  <g opacity=".4">
    <linearGradient id="c" x1=".517" x2=".517" y2="1" gradientTransform="matrix(244.65,0,0,228.34,5.68,11.95)" gradientUnits="userSpaceOnUse">
      <stop stop-color="#928374" offset="0"/>
      <stop stop-color="#928374" stop-opacity=".098039" offset=".125"/>
      <stop stop-opacity=".098039" offset=".925"/>
      <stop stop-opacity=".49804" offset="1"/>
    </linearGradient>
    <path d="m165.07 11.951c4.328-0.01 8.656 0.04 12.984 0.138 3.875 0.078 7.7436 0.25854 11.62 0.48454 3.453 0.196 6.8876 0.5327 10.33 0.9057 3.06 0.335 6.0892 0.83409 9.1192 1.3941 2.7131 0.50032 5.3525 1.181 7.9999 1.9571 2.3983 0.69679 4.7544 1.61 7.0323 2.6338 2.1121 0.94124 4.0427 2.0439 5.9631 3.3319 1.8405 1.2399 3.5996 2.7014 5.1741 4.2652 1.5652 1.5692 2.886 3.1628 4.1277 4.9987 1.2864 1.9174 2.4086 3.8707 3.3603 5.9744 1.0207 2.2746 1.9193 4.5772 2.628 6.9675 0.77696 2.6443 1.4779 5.3272 1.9787 8.0374 0.56201 3.0246 1.0626 6.0601 1.3989 9.1181 0.374 3.439 0.70873 6.8493 0.90573 10.297 0.226 3.861 0.42171 7.7394 0.51071 11.6 0.088 4.323 0.138 8.646 0.128 12.96v58.21c0.01 4.324-0.04 8.637-0.128 12.96-0.085 3.8668-0.28821 7.7331-0.51114 11.595-0.19655 3.4488-0.53822 6.9467-0.91224 10.38-0.33634 3.0613-0.82936 6.0316-1.3914 9.0596-0.50199 2.7066-1.1867 5.3458-1.9626 7.987-0.7071 2.3908-1.5665 4.6263-2.5888 6.9002-0.94995 2.1048-2.1624 4.2292-3.4512 6.1454-1.2392 1.8377-2.5377 3.3902-4.1052 4.9572-1.5746 1.5638-3.412 3.0712-5.2525 4.3111-1.9201 1.2879-3.8611 2.3701-5.9729 3.3114-2.3498 1.0736-4.5744 1.8717-6.9323 2.584-2.6776 0.81656-5.2934 1.4166-7.976 1.948-3.0309 0.56603-6.051 1.0612-9.1165 1.3921-3.5041 0.40869-6.8203 0.68433-10.336 0.90377-3.875 0.226-7.789 0.40013-11.665 0.48813-4.328 0.088-8.6314 0.15082-12.959 0.14082h-74.126c-4.328 0.01-8.6566-0.0545-12.985-0.14247-3.9049-0.0955-7.7449-0.24667-11.628-0.49085-3.4941-0.21923-7.0445-0.5149-10.452-0.92805-3.1873-0.37665-5.9337-0.7937-8.9951-1.3902-2.833-0.56139-5.3421-1.1637-7.9464-1.9566-2.4295-0.73175-4.8105-1.6266-7.0523-2.6548-2.139-0.97893-4.0617-2.0635-5.9983-3.3731-1.8405-1.2399-3.5141-2.6495-5.0886-4.2133-1.5676-1.5671-2.9061-3.1787-4.1454-5.0164-1.2884-1.9162-2.4021-3.8332-3.3518-5.9379-1.0223-2.2739-1.9238-4.5236-2.6309-6.9144-0.77585-2.6412-1.4977-5.3053-1.9996-8.0119-0.56202-3.028-1.0938-6.1087-1.4301-9.17-0.37402-3.4341-0.72617-6.8459-0.92272-10.295-0.22292-3.8613-0.42179-7.7427-0.50684-11.61-0.09185-4.3194-0.13452-8.6396-0.128-12.96v-58.21c-0.01-4.314 0.04-8.637 0.128-12.96 0.089-3.86 0.28015-7.7353 0.50615-11.596 0.197-3.448 0.54883-6.857 0.92283-10.296 0.335-3.055 0.87336-6.1638 1.4344-9.1898 0.50085-2.7102 1.1807-5.2262 1.9577-7.8705 0.70872-2.3902 1.7549-4.9868 2.7756-7.2614 0.95209-2.1037 1.9632-3.7998 3.2499-5.7172 1.2418-1.8358 2.594-3.4604 4.1593-5.0296 1.5745-1.5638 3.3273-3.0214 5.1678-4.2614 1.9201-1.2879 3.8238-2.3848 5.9356-3.3261 2.278-1.0238 4.5428-1.9236 6.9411-2.6204 2.6474-0.77617 5.2743-1.4761 7.9874-1.9764 3.0317-0.56124 6.1381-1.085 9.203-1.4208 3.443-0.373 6.8398-0.71288 10.293-0.90888 3.875-0.226 7.7331-0.41514 11.609-0.49314 4.328-0.098 8.6625-0.14613 12.991-0.13613zm0.01 4.009c4.298-0.01 8.597 0.039 12.895 0.127 3.827 0.089 7.6466 0.26854 11.474 0.48454 3.383 0.197 6.7724 0.43946 10.136 0.81246 2.971 0.315 5.9391 0.74869 8.8701 1.2987 2.5807 0.47339 5.1059 1.0723 7.6238 1.8101 2.2193 0.6492 4.4135 1.4563 6.5231 2.4032 1.9054 0.85272 3.7179 1.8543 5.4527 3.0153 1.6245 1.0927 3.1568 2.3505 4.5413 3.7347 1.3858 1.385 2.6374 2.8981 3.738 4.519 1.1601 1.7266 2.1737 3.5473 3.03 5.443 0.94487 2.1083 1.7467 4.2779 2.4 6.494 0.74152 2.5113 1.352 5.0594 1.829 7.634 0.54 2.928 0.974 5.875 1.298 8.842 0.374 3.36 0.65 6.73 0.846 10.11 0.217 3.822 0.374 7.634 0.453 11.456 0.088 4.293 0.137 8.577 0.137 12.87v58.212c0 4.293-0.049 8.577-0.137 12.87-0.082 3.8211-0.0546 7.643-0.27458 11.459-0.196 3.38-0.65042 6.7474-1.0244 10.117-0.3245 2.9589-0.75746 5.9049-1.298 8.832-0.47731 2.5747-1.0881 5.1228-1.83 7.634-0.65169 2.2166-1.4536 4.3863-2.4 6.494-0.8542 1.8968-1.8678 3.7176-3.03 5.443-1.0976 1.6263-2.349 3.1432-3.737 4.53-1.3876 1.3779-2.9027 2.6211-4.525 3.713-1.7345 1.161-3.564 2.1732-5.469 3.026-2.1078 0.95119-4.2802 1.7522-6.501 2.397-2.5179 0.7378-5.0723 1.3446-7.653 1.818-2.931 0.55-5.8828 0.98162-8.8538 1.3056-3.364 0.364-6.7562 0.64938-10.139 0.83638-3.827 0.216-7.6776 0.36018-11.505 0.43918-4.298 0.098-8.5724 0.14982-12.87 0.14982h-74.146c-4.298 0-8.5976-0.0545-12.896-0.15147-3.8291-0.082-7.6582-0.26152-11.482-0.48085-3.3834-0.19001-6.7587-0.42545-10.127-0.79268-2.97-0.32174-5.9265-0.7574-8.863-1.306-2.5807-0.47339-5.1351-1.0802-7.653-1.818-2.2208-0.64482-4.3673-1.4321-6.4751-2.3833-1.9053-0.85272-3.7547-1.8723-5.4895-3.0333-1.622-1.0922-3.1431-2.3423-4.5303-3.7205-1.3882-1.3864-2.64-2.903-3.738-4.529-1.1622-1.7254-2.1758-3.5462-3.03-5.443-0.94645-2.1077-1.7483-4.2774-2.4-6.494-0.74152-2.5113-1.352-5.0594-1.829-7.634-0.54054-2.9271-0.9735-5.8731-1.298-8.832-0.374-3.37-0.65-6.74-0.846-10.12-0.21993-3.8156-0.37096-7.6349-0.453-11.456-0.08992-4.2894-0.13559-8.5796-0.137-12.87v-58.212c0-4.293 0.049-8.577 0.137-12.87 0.079-3.822 0.236-7.634 0.453-11.456 0.197-3.38 0.472-6.75 0.846-10.11 0.324-2.967 0.757-5.914 1.298-8.842 0.47732-2.5747 1.0915-5.1375 1.8334-7.6487 0.65331-2.2161 1.4517-4.371 2.3966-6.4793 0.85634-1.8957 1.8699-3.7164 3.03-5.443 1.1003-1.6212 2.3515-3.1346 3.737-4.52 1.3849-1.3839 2.9002-2.6307 4.525-3.723 1.7345-1.161 3.564-2.1732 5.469-3.026 2.1096-0.94691 4.2817-1.7478 6.501-2.397 2.5179-0.7378 5.0723-1.3446 7.653-1.818 2.931-0.55 5.892-0.982 8.863-1.297 3.364-0.373 6.7432-0.64645 10.126-0.84345 3.8239-0.21443 7.6549-0.36667 11.484-0.45355 4.298-0.088 8.597-0.137 12.895-0.127z" fill="url(#c)" fill-rule="evenodd"/>
  </g>
  <g transform="translate(-2.5018e-6 -5.1528)" style="isolation:isolate">
    <g opacity=".2">
      <path d="m128.01 144.54 25.42 50.844h-50.84z" fill-rule="evenodd"/>
    </g>
    <g filter="url(#FtzlgsoD4oWRTJywi5ThTxA0cnaI3TVS)" opacity=".4">
      <path d="m102.56 200.5 25.438-55.964 25.438 55.964h12.984c14.044 0 14.044-45.471 17.542-55.964h-111.93c3.498 10.493 3.339 55.946 17.473 55.964z" fill-rule="evenodd"/>
    </g>
    <path d="m153.43 192.84h-50.84l25.42-50.844z" fill="url(#_lgradient_119)" fill-rule="evenodd"/>
    <path d="m102.56 197.96 25.438-55.964 25.438 55.964h12.984c14.044 0 14.044-45.47 17.542-55.964h-111.93c3.498 10.494 3.339 55.946 17.473 55.964z" fill="url(#_lgradient_120)" fill-rule="evenodd"/>
    <g opacity=".1">
      <path d="m64.729 129.27c-0.882 1e-3 -1.715 0.418-2.258 1.129-0.544 0.711-0.738 1.639-0.527 2.516l1.679 7.027 0.567 2.348c0.314 1.315 1.463 2.24 2.785 2.243h2.404 7e-3l36.344-0.056c0.043 1e-3 0.086 1e-3 0.129 0h4.335c0.132 0.028 0.267 0.047 0.402 0.056h34.808c0.135-9e-3 0.269-0.028 0.401-0.056h4.335c0.043 1e-3 0.086 1e-3 0.13 0l36.343 0.056h8e-3 2.404c1.322-3e-3 2.471-0.928 2.785-2.243l0.567-2.348 1.679-7.027c0.211-0.877 0.017-1.805-0.527-2.516-0.543-0.711-1.376-1.128-2.258-1.129h-82.448z" fill-rule="evenodd"/>
    </g>
    <g opacity=".2">
      <path d="m102.17 200.5-14.737-23.39c-0.235-0.377-0.153-0.888 0.186-1.151 0 0 13.781-10.725 20.672-16.087 0.886-0.689 19.709-15.336 19.709-15.336z" fill-rule="evenodd"/>
    </g>
    <path d="m102.17 197.96-14.737-23.39c-0.235-0.377-0.153-0.888 0.186-1.151 0 0 13.781-10.724 20.672-16.087 0.886-0.689 19.709-15.336 19.709-15.336z" fill="#ebdbb2" fill-rule="evenodd"/>
    <path d="m127.87 55.502c-0.212 0.428-0.463 0.894-0.718 1.324-0.181 0.346-0.43 0.748-0.617 1.098-1.298 2.143-5.242 8.421-13.133 13.302-9.406 5.413-22.629 9.858-33.192 9.717 0 0-17.345 46.699-18.035 48.218-0.104 0.066-0.212 0.147-0.315 0.218h0.236c-7e-3 0-0.235 0.643-0.236 0.641l0.043 0.152h0.043c0.373-0.244 0.763-0.539 1.141-0.795h130.46c0.195 0.122 0.401 0.275 0.595 0.397v-0.072l-0.122-0.325h0.122c-0.051-0.051-0.106-0.071-0.157-0.102l-18.15-48.338c-10.032 0.188-21.542-3.527-28.993-7.45-8.609-4.628-14.278-10.944-16.578-14.612-0.054-0.102-0.127-0.224-0.18-0.331-0.466-0.936-0.933-1.868-1.399-2.766-0.297-0.076-0.557-0.198-0.811-0.274z" fill="url(#_lgradient_121)" fill-rule="evenodd"/>
    <g opacity=".1">
      <path d="m127.87 55.505c-0.212 0.427-0.461 0.892-0.716 1.322-0.181 0.346-0.433 0.748-0.621 1.098-1.298 2.143-5.241 8.419-13.131 13.3-9.407 5.413-22.627 9.859-33.19 9.719 0 0-17.345 46.7-18.035 48.219-0.104 0.066-0.215 0.147-0.318 0.218h0.238c-7e-3 0-0.237 0.643-0.238 0.641l0.044 0.149h0.045c0.358-0.234 0.729-0.516 1.093-0.765 2.068-5.272 17.171-45.919 17.171-45.919 10.563 0.141 23.783-4.306 33.19-9.718 7.89-4.881 11.833-11.158 13.131-13.3 0.188-0.351 0.44-0.753 0.621-1.099 0.255-0.429 0.504-0.894 0.716-1.321 0.254 0.076 0.513 0.197 0.81 0.273 0.466 0.898 0.934 1.831 1.401 2.768 0.053 0.106 0.125 0.226 0.179 0.327 2.3 3.668 7.971 9.985 16.579 14.613 7.452 3.922 18.959 7.641 28.992 7.453l17.23 45.893h0.482c0.196 0.122 0.402 0.276 0.596 0.398v-0.07l-0.124-0.328h0.124c-0.051-0.051-0.107-0.069-0.159-0.099l-18.149-48.338c-10.033 0.188-21.54-3.53-28.992-7.453-8.608-4.628-14.279-10.945-16.579-14.612-0.054-0.102-0.126-0.221-0.179-0.328-0.467-0.936-0.935-1.87-1.401-2.768-0.297-0.076-0.556-0.197-0.81-0.273z" fill="#ebdbb2" fill-rule="evenodd"/>
    </g>
    <path d="m194.14 129.38c-10.436-6.517-22.739-17.645-35.466-30.913-13.873-14.439-22.825-28.721-28.594-39.92-0.467-0.937-0.934-1.873-1.4-2.771-0.297-0.077-0.552-0.194-0.806-0.275-0.212 0.427-0.467 0.898-0.721 1.327-6.025 11.433-15.273 25.911-29.316 40.701-12.769 13.463-25.327 24.981-35.975 31.85" fill="url(#_lgradient_122)" fill-rule="evenodd"/>
    <g opacity=".1">
      <path d="m127.87 55.5c-0.212 0.427-0.466 0.898-0.721 1.327-6.024 11.433-15.271 25.911-29.314 40.701-12.769 13.463-25.328 24.98-35.976 31.848h3.721c9.8-6.993 20.942-17.376 32.255-29.304 14.043-14.79 23.29-29.268 29.314-40.702 0.255-0.428 0.509-0.899 0.721-1.326 0.254 0.081 0.513 0.197 0.81 0.273 0.466 0.898 0.929 1.836 1.396 2.773 5.77 11.2 14.721 25.483 28.593 39.921 11.206 11.681 22.081 21.693 31.645 28.37h3.825c-10.436-6.517-22.742-17.646-35.47-30.914-13.872-14.438-22.823-28.721-28.593-39.921-0.467-0.937-0.93-1.875-1.396-2.773-0.297-0.076-0.556-0.192-0.81-0.273z" fill="#ebdbb2" fill-rule="evenodd"/>
    </g>
    <path d="m64.729 126.73c-0.882 2e-3 -1.715 0.418-2.258 1.129-0.544 0.712-0.738 1.639-0.527 2.516l1.679 7.027 0.567 2.348c0.314 1.315 1.463 2.24 2.785 2.243h2.404 7e-3l36.344-0.056c0.043 1e-3 0.086 1e-3 0.129 0h4.335c0.132 0.029 0.267 0.047 0.402 0.056h34.808c0.135-9e-3 0.269-0.027 0.401-0.056h4.335c0.043 1e-3 0.086 1e-3 0.13 0l36.343 0.056h8e-3 2.404c1.322-3e-3 2.471-0.928 2.785-2.243l0.567-2.348 1.679-7.027c0.211-0.877 0.017-1.805-0.527-2.516-0.543-0.711-1.376-1.128-2.258-1.129h-82.448z" fill="#8ec07c" fill-rule="evenodd"/>
    <g opacity=".2">
      <path d="m153.83 200.5 14.738-23.39c0.235-0.377 0.153-0.888-0.186-1.151 0 0-13.781-10.725-20.672-16.087-0.886-0.689-19.709-15.336-19.709-15.336z" fill-rule="evenodd"/>
    </g>
    <path d="m153.83 197.96 14.738-23.39c0.235-0.377 0.153-0.888-0.186-1.151 0 0-13.781-10.724-20.672-16.087-0.886-0.689-19.709-15.336-19.709-15.336z" fill="#ebdbb2" fill-rule="evenodd"/>
  </g>
</svg>
