<svg width="256" height="256" fill="none" version="1.1" viewBox="0 0 256 256" xmlns="http://www.w3.org/2000/svg">
  <g clip-path="url(#clip0)">
    <g filter="url(#filter0_d)">
      <path d="m250.32 96.491c0-72.436-11.445-84.544-84.639-84.544h-75.37c-72.333 0-84.639 11.332-84.639 84.544v59.251c0 72.524 11.315 84.543 84.639 84.543h75.37c73.366 0 84.639-11.849 84.639-84.543z" fill="url(#paint0_linear)"/>
    </g>
    <path d="m208.3 24.58c-10.428-1.9618-24.181-2.6332-42.618-2.6332h-75.37c-18.438 0-32.19 0.6714-42.618 2.6332-10.332 1.9436-16.412 4.9802-20.406 8.9693-3.9929 3.9877-7.0319 10.056-8.9778 20.372-1.9644 10.414-2.6375 24.15-2.6375 42.569v59.251c0 18.419 0.6731 32.155 2.6375 42.569 1.9459 10.315 4.9849 16.384 8.9778 20.372 3.9942 3.989 10.074 7.025 20.406 8.969 10.428 1.962 24.181 2.633 42.618 2.633h75.37c18.437 0 32.19-0.671 42.618-2.633 10.332-1.944 16.412-4.98 20.406-8.969 3.993-3.988 7.032-10.057 8.978-20.372 1.964-10.414 2.637-24.15 2.637-42.569v-59.251c0-18.42-0.673-32.156-2.637-42.569-1.946-10.316-4.985-16.384-8.978-20.372-3.994-3.9891-10.074-7.0257-20.406-8.9693zm42.021 71.911c0-73.125-11.79-84.544-84.639-84.544h-75.37c-72.678 0-84.639 11.332-84.639 84.544v59.251c0 73.986 12.289 84.543 84.639 84.543h75.37c72.677 0 84.639-11.074 84.639-84.543z" clip-rule="evenodd" fill="url(#paint1_linear)" fill-rule="evenodd"/>
    <path d="m165.07 11.951c4.328-0.0098 8.656 0.0393 12.984 0.1376 3.875 0.0786 7.751 0.226 11.626 0.4519 3.453 0.1965 6.905 0.4814 10.348 0.8548 3.059 0.334 6.118 0.786 9.148 1.346 2.715 0.501 5.4 1.1397 8.046 1.9158 2.4 0.6976 4.751 1.5622 7.023 2.5839 2.115 0.9432 4.141 2.0632 6.059 3.3503 1.839 1.2379 3.561 2.6527 5.135 4.2148 1.564 1.572 2.98 3.2815 4.219 5.1187 1.289 1.9158 2.41 3.9397 3.364 6.0422 1.023 2.2794 1.889 4.6177 2.597 7.0051 0.777 2.6429 1.417 5.325 1.918 8.0367 0.561 3.026 1.013 6.0717 1.348 9.1272 0.374 3.4386 0.659 6.8773 0.856 10.326 0.226 3.8612 0.373 7.7321 0.462 11.593 0.088 4.3228 0.138 8.6457 0.128 12.959v58.212c0.01 4.323-0.04 8.636-0.128 12.959-0.089 3.871-0.236 7.732-0.462 11.593-0.197 3.449-0.482 6.897-0.856 10.326-0.335 3.055-0.787 6.111-1.348 9.137-0.501 2.702-1.141 5.384-1.918 8.027-0.708 2.387-1.574 4.735-2.597 7.005-0.954 2.112-2.075 4.126-3.364 6.042-1.239 1.837-2.655 3.557-4.219 5.119-1.574 1.562-3.296 2.977-5.135 4.215-1.918 1.287-3.944 2.407-6.059 3.35-2.272 1.022-4.623 1.886-7.023 2.594-2.646 0.776-5.331 1.414-8.046 1.906-3.03 0.569-6.089 1.011-9.148 1.346-3.443 0.373-6.895 0.658-10.348 0.854-3.875 0.226-7.751 0.374-11.626 0.462-4.328 0.088-8.656 0.138-12.984 0.128h-74.126c-4.328 0.01-8.656-0.04-12.984-0.128-3.8755-0.088-7.751-0.236-11.626-0.462-3.4525-0.196-6.905-0.481-10.348-0.854-3.0591-0.335-6.1182-0.777-9.1477-1.346-2.7149-0.492-5.4001-1.13-8.0461-1.906-2.4001-0.708-4.7509-1.572-7.0231-2.594-2.1148-0.943-4.1411-2.063-6.0591-3.35-1.8394-1.238-3.5608-2.653-5.1346-4.215-1.5639-1.562-2.9804-3.282-4.2197-5.119-1.2886-1.916-2.4099-3.93-3.364-6.042-1.023-2.27-1.8886-4.618-2.5968-7.005-0.77706-2.643-1.4164-5.325-1.9181-8.027-0.56067-3.026-1.0131-6.082-1.3476-9.137-0.37377-3.429-0.65903-6.877-0.85575-10.326-0.22623-3.861-0.37378-7.722-0.46231-11.593-0.08852-4.323-0.1377-8.636-0.12787-12.959v-58.212c-0.00983-4.3131 0.03935-8.636 0.12787-12.959 0.08853-3.8612 0.23608-7.7321 0.46231-11.593 0.19672-3.4485 0.48198-6.8872 0.85575-10.326 0.33444-3.0555 0.7869-6.1012 1.3476-9.1272 0.50165-2.7117 1.141-5.3938 1.9181-8.0367 0.7082-2.3874 1.5738-4.7257 2.5968-7.0051 0.9541-2.1025 2.0754-4.1264 3.364-6.0422 1.2393-1.8372 2.6558-3.5467 4.2197-5.1187 1.5738-1.5621 3.2952-2.9769 5.1346-4.2148 1.918-1.2871 3.9443-2.4071 6.0591-3.3503 2.2722-1.0217 4.623-1.8863 7.0231-2.5839 2.646-0.7761 5.3312-1.4148 8.0461-1.9158 3.0295-0.56 6.0886-1.012 9.1477-1.346 3.4427-0.3734 6.8952-0.6583 10.348-0.8548 3.8755-0.2259 7.751-0.3733 11.626-0.4519 4.3279-0.0983 8.6559-0.1474 12.984-0.1376zm0.01 4.0086c4.298-0.0099 8.597 0.0393 12.895 0.1277 3.827 0.0884 7.653 0.2358 11.479 0.4519 3.384 0.1965 6.767 0.4716 10.131 0.8449 2.971 0.3144 5.932 0.7467 8.863 1.2969 2.577 0.4716 5.134 1.0807 7.653 1.8176 2.223 0.6484 4.396 1.4541 6.501 2.3972 1.909 0.8548 3.738 1.8667 5.469 3.0261 1.623 1.0905 3.138 2.3383 4.525 3.7236s2.636 2.8983 3.738 4.5194c1.16 1.7291 2.174 3.5467 3.029 5.4429 0.945 2.1123 1.751 4.2836 2.4 6.4941 0.748 2.5152 1.348 5.0598 1.83 7.6339 0.541 2.9278 0.974 5.8752 1.298 8.8423 0.374 3.3601 0.65 6.73 0.846 10.11 0.217 3.8218 0.374 7.6338 0.453 11.456 0.088 4.2934 0.137 8.577 0.137 12.87v58.212c0 4.293-0.049 8.577-0.137 12.87-0.079 3.822-0.236 7.644-0.453 11.456-0.196 3.38-0.472 6.75-0.846 10.12-0.324 2.957-0.757 5.904-1.298 8.832-0.482 2.574-1.082 5.119-1.83 7.634-0.649 2.22-1.455 4.382-2.4 6.494-0.855 1.896-1.869 3.724-3.029 5.443-1.102 1.631-2.351 3.144-3.738 4.529-1.387 1.376-2.902 2.623-4.525 3.714-1.731 1.159-3.56 2.171-5.469 3.026-2.105 0.953-4.278 1.749-6.501 2.397-2.519 0.737-5.076 1.346-7.653 1.818-2.931 0.55-5.892 0.982-8.863 1.306-3.364 0.364-6.747 0.649-10.131 0.836-3.826 0.216-7.652 0.373-11.479 0.452-4.298 0.098-8.597 0.137-12.895 0.137h-0.01-74.126-0.0099c-4.2984 0-8.5969-0.039-12.895-0.137-3.8263-0.079-7.6526-0.236-11.479-0.452-3.3837-0.187-6.7674-0.472-10.131-0.836-2.9705-0.324-5.9313-0.756-8.8625-1.306-2.5771-0.472-5.1345-1.081-7.6526-1.818-2.223-0.648-4.3968-1.444-6.5017-2.397-1.9083-0.855-3.7378-1.867-5.469-3.026-1.623-1.091-3.1378-2.338-4.5247-3.714-1.3869-1.385-2.6361-2.898-3.7378-4.529-1.1606-1.719-2.1738-3.547-3.0295-5.443-0.9443-2.112-1.7509-4.274-2.4001-6.494-0.7475-2.515-1.3476-5.06-1.8295-7.634-0.541-2.928-0.9738-5.875-1.2984-8.832-0.3738-3.37-0.6492-6.74-0.8459-10.12-0.2164-3.812-0.37381-7.634-0.4525-11.456-0.08853-4.293-0.13771-8.577-0.13771-12.87v-58.212c0-4.2934 0.04918-8.577 0.13771-12.87 0.07869-3.8219 0.2361-7.6339 0.4525-11.456 0.1967-3.3797 0.4721-6.7496 0.8459-10.11 0.3246-2.9671 0.7574-5.9145 1.2984-8.8423 0.4819-2.5741 1.082-5.1187 1.8295-7.6339 0.6492-2.2105 1.4558-4.3818 2.4001-6.4941 0.8557-1.8962 1.8689-3.7138 3.0295-5.4429 1.1017-1.6211 2.3509-3.1341 3.7378-4.5194s2.9017-2.6331 4.5247-3.7236c1.7312-1.1594 3.5607-2.1713 5.469-3.0261 2.1049-0.9431 4.2787-1.7488 6.5017-2.3972 2.5181-0.7369 5.0755-1.346 7.6526-1.8176 2.9312-0.5502 5.892-0.9825 8.8625-1.2969 3.364-0.3733 6.7477-0.6484 10.131-0.8449 3.8263-0.2161 7.6526-0.3635 11.479-0.4519 4.2984-0.0884 8.5969-0.1376 12.895-0.1277h0.0099 74.126 0.01z" clip-rule="evenodd" fill="url(#paint2_linear)" fill-rule="evenodd" opacity=".4"/>
    <path d="m129.23 83.816c-10.396-0.1534-20.806 1.932-30.224 6.369-13.217 6.091-24.184 16.573-31.399 29.167 6.4611-8.142 14.286-15.353 23.713-19.896 16.856-8.5515 37.454-8.7731 54.71-1.2351 13.097 5.5668 24.162 15.595 31.057 28.036 4.331-2.15 8.668-4.277 12.991-6.458-6.944-12.513-17.805-22.766-30.729-28.907-9.343-4.5262-19.724-6.9225-30.119-7.0759zm-1.131 22.746c-16.873-0.168-32.697 9.478-41.92 23.341 0.0446 0.022 0.0893 0.044 0.1339 0.067 8.866-8.871 20.953-14.963 33.698-14.45 14.828 0.118 28.796 8.556 36.741 20.93 4.315-2.156 8.632-4.309 12.946-6.465-8.856-14.082-24.812-23.62-41.599-23.423zm-80.097 17.202c0.0099 3.759 0.0076 7.52 0.0076 11.288 26.664 13.323 53.323 26.657 79.977 40 26.66-13.348 53.326-26.682 80-40-0.011-3.755-6e-3 -7.51 0.015-11.265-26.664 13.347-53.338 26.659-80 39.985-26.674-13.328-53.348-26.642-80-40.008zm81.734 1.898c-1.244-0.086-2.51-0.073-3.78 0.059-8.692 0.523-15.838 6.393-20.752 13.177 4.421-2.823 9.48-5.207 14.874-4.583 7.478 0.433 13.841 5.392 17.85 11.473 4.291-2.161 8.619-4.279 12.909-6.451-4.528-7.378-12.398-13.074-21.101-13.675z" opacity=".2"/>
    <path d="m99.004 86.379c18.835-8.8741 41.657-8.3495 60.342 0.7028 12.924 6.1404 23.789 16.392 30.733 28.904-4.323 2.182-8.664 4.314-12.995 6.464-6.895-12.442-17.958-22.474-31.055-28.04-17.255-7.538-37.858-7.3163-54.713 1.2352-9.4265 4.543-17.246 11.758-23.707 19.9 7.2153-12.594 18.178-23.075 31.395-29.166z" fill="url(#paint3_linear)"/>
    <path d="m128.1 102.75c-16.873-0.167-32.697 9.479-41.92 23.341 0.0446 0.023 0.0893 0.045 0.1339 0.067 8.8659-8.871 20.953-14.963 33.698-14.449 14.828 0.117 28.796 8.556 36.741 20.93 4.315-2.156 8.631-4.31 12.946-6.466-8.856-14.081-24.812-23.619-41.599-23.423z" fill="url(#paint4_linear)"/>
    <path d="m48 119.96c26.652 13.365 53.326 26.682 80 40.01 26.662-13.326 53.336-26.643 80-39.99-0.02 3.755-0.024 7.51-0.012 11.265-26.674 13.319-53.34 26.653-80 40.002-26.654-13.344-53.314-26.678-79.978-40.002 0-3.767 0-7.526-0.0099-11.285z" fill="url(#paint5_linear)"/>
    <path d="m105.21 135.09c4.913-6.783 12.059-12.653 20.751-13.175 10.161-1.055 19.7 5.176 24.875 13.609-4.29 2.172-8.613 4.292-12.905 6.453-4.008-6.081-10.37-11.036-17.849-11.469-5.394-0.624-10.452 1.76-14.872 4.582z" fill="url(#paint6_linear)"/>
  </g>
  <defs>
    <filter id="filter0_d" x="-4.32" y="5.95" width="264.65" height="248.34" color-interpolation-filters="sRGB" filterUnits="userSpaceOnUse">
      <feFlood flood-opacity="0" result="BackgroundImageFix"/>
      <feColorMatrix in="SourceAlpha" values="0 0 0 0 0 0 0 0 0 0 0 0 0 0 0 0 0 0 127 0"/>
      <feOffset dy="4"/>
      <feGaussianBlur stdDeviation="5"/>
      <feColorMatrix values="0 0 0 0 0 0 0 0 0 0 0 0 0 0 0 0 0 0 0.4 0"/>
      <feBlend in2="BackgroundImageFix" result="effect1_dropShadow"/>
      <feBlend in="SourceGraphic" in2="effect1_dropShadow" result="shape"/>
    </filter>
    <linearGradient id="paint0_linear" x1="5.676" x2="5.676" y1="11.947" y2="240.28" gradientUnits="userSpaceOnUse">
      <stop stop-color="#504945" offset="0"/>
      <stop stop-color="#3c3836" offset="1"/>
    </linearGradient>
    <linearGradient id="paint1_linear" x1="128" x2="128" y1="11.947" y2="240.28" gradientUnits="userSpaceOnUse">
      <stop stop-color="#fe8019" offset="0"/>
      <stop stop-color="#fb4934" offset=".414"/>
      <stop stop-color="#8f3f71" offset=".545"/>
      <stop stop-color="#8ec07c" offset="1"/>
    </linearGradient>
    <linearGradient id="paint2_linear" x1="132.08" x2="132.08" y1="11.95" y2="240.29" gradientUnits="userSpaceOnUse">
      <stop stop-color="#ebdbb2" offset="0"/>
      <stop stop-color="#ebdbb2" stop-opacity=".098" offset=".125"/>
      <stop stop-opacity=".098" offset=".925"/>
      <stop stop-opacity=".498" offset="1"/>
    </linearGradient>
    <linearGradient id="paint3_linear" x1="67.609" x2="67.609" y1="80" y2="122.45" gradientUnits="userSpaceOnUse">
      <stop stop-color="#fabd2f" offset="0"/>
      <stop stop-color="#fe8019" offset=".5"/>
      <stop stop-color="#fe8019" offset="1"/>
    </linearGradient>
    <linearGradient id="paint4_linear" x1="86.177" x2="86.177" y1="102.75" y2="132.64" gradientUnits="userSpaceOnUse">
      <stop stop-color="#fb4934" offset="0"/>
      <stop stop-color="#fb4934" offset=".5"/>
      <stop stop-color="#fb4934" offset="1"/>
    </linearGradient>
    <linearGradient id="paint5_linear" x1="48" x2="48" y1="119.96" y2="171.24" gradientUnits="userSpaceOnUse">
      <stop stop-color="#8ec07c" offset="0"/>
      <stop stop-color="#b8bb26" offset="1"/>
    </linearGradient>
    <linearGradient id="paint6_linear" x1="105.21" x2="105.21" y1="121.8" y2="141.98" gradientUnits="userSpaceOnUse">
      <stop stop-color="#d3869b" offset="0"/>
      <stop stop-color="#b16286" offset=".5"/>
      <stop stop-color="#8f3f71" offset="1"/>
    </linearGradient>
    <clipPath id="clip0">
      <rect width="256" height="256" fill="#ebdbb2"/>
    </clipPath>
  </defs>
</svg>
