<svg width="256" height="256" style="isolation:isolate" version="1.1" xmlns="http://www.w3.org/2000/svg">
  <g transform="translate(.007136 -.1198)" filter="url(#a)">
    <linearGradient id="b" x1=".5002" x2=".5002" y2="1" gradientTransform="matrix(244,0,0,228,5.981,12.12)" gradientUnits="userSpaceOnUse">
      <stop stop-color="#ebdbb2" offset="0"/>
      <stop stop-color="#ebdbb2" offset="1"/>
    </linearGradient>
    <path d="m165 12.12c72 0 85 15 85 87v56c0 70-13 85-85 85h-74c-72 0-85-15-85-85v-56c0-72 13-87 85-87z" fill="url(#b)"/>
  </g>
  <defs>
    <linearGradient id="linearGradient31" x1=".5002" x2=".5002" y2="1" gradientTransform="matrix(244,0,0,228,5.988,12.12)" gradientUnits="userSpaceOnUse">
      <stop stop-color="#d5c4a1" offset="0"/>
      <stop stop-color="#d5c4a1" stop-opacity=".09804" offset=".1"/>
      <stop stop-color="#282828" stop-opacity=".1" offset=".9"/>
      <stop stop-color="#282828" stop-opacity=".4" offset="1"/>
    </linearGradient>
  </defs>
  <g transform="translate(.007189 -.1198)" opacity=".5">
    <path d="m91 12.12c-72 0-85 15-85 87v56c0 70 13 85 85 85h74c72 0 85-15 85-85v-56c0-72-13-87-85-87zm0 4h74c68 0 80 15 80 83v56c0 66-12 81-80 81h-74c-68 0-80-15-80-81v-56c0-68 12-83 80-83z" fill="url(#linearGradient31)" opacity="1"/>
  </g>
  <g>
    <path d="m65.84 98.47a6.216 6.216 0 0 0-6.216 6.216v18.65h-12.43a6.216 6.216 0 0 0-6.216 6.216 6.216 6.216 0 0 0 6.216 6.216h43.51v15.54a6.216 6.216 0 0 0 6.216 6.216 6.216 6.216 0 0 0 6.216-6.216v-15.54h49.73v15.54a6.216 6.216 0 0 0 6.216 6.216 6.216 6.216 0 0 0 6.216-6.216v-15.54h43.51a6.216 6.216 0 0 0 6.216-6.216 6.216 6.216 0 0 0-6.216-6.216h-12.43v-18.65a6.216 6.216 0 0 0-6.216-6.216 6.216 6.216 0 0 0-6.216 6.216v18.65h-49.73v-18.65a6.216 6.216 0 0 0-6.216-6.216 6.216 6.216 0 0 0-6.216 6.216v18.65h-49.73v-18.65a6.216 6.216 0 0 0-6.216-6.216z" fill="#a89984" stroke-width="3.108"/>
    <path d="m65.84 61.18c-13.73 0-24.87 11.13-24.87 24.87 0 11.58 7.93 21.28 18.65 24.05v10.14h-12.43a6.216 6.216 0 0 0-6.217 6.215 6.216 6.216 0 0 0 6.217 6.217h43.51v15.54a6.216 6.216 0 0 0 0.07813 0.7949c-10.76 2.737-18.73 12.46-18.73 24.07 0 13.73 11.13 24.86 24.86 24.86 13.73 0 24.87-11.13 24.87-24.86 0-11.61-7.969-21.33-18.73-24.07a6.216 6.216 0 0 0 0.0781-0.7949v-15.54h49.73v15.54a6.216 6.216 0 0 0 0.0781 0.7949c-10.76 2.737-18.73 12.46-18.73 24.07 0 13.73 11.13 24.86 24.87 24.86 13.73 0 24.86-11.13 24.86-24.86 0-11.61-7.969-21.33-18.73-24.07a6.216 6.216 0 0 0 0.0781-0.7949v-15.54h43.51a6.216 6.216 0 0 0 6.217-6.217 6.216 6.216 0 0 0-6.217-6.215h-12.43v-10.14c10.72-2.765 18.65-12.47 18.65-24.05 0-13.73-11.13-24.87-24.87-24.87-13.73 0-24.87 11.13-24.87 24.87 0 11.58 7.93 21.28 18.65 24.05v10.14h-49.73v-10.14c10.72-2.765 18.65-12.47 18.65-24.05 0-13.73-11.13-24.87-24.87-24.87s-24.87 11.13-24.87 24.87c0 11.58 7.93 21.28 18.65 24.05v10.14h-49.73v-10.14c10.72-2.765 18.65-12.47 18.65-24.05 0-13.73-11.13-24.87-24.87-24.87z" color="#000000" fill="#d5c4a1" stroke-linecap="round" style="-inkscape-stroke:none"/>
    <path d="m121.8 170c0 13.73-11.13 24.86-24.86 24.86-13.73 0-24.86-11.13-24.86-24.86 0-13.73 11.13-24.86 24.86-24.86 13.73 0 24.86 11.13 24.86 24.86z" fill="#fabd2f" stroke-width="3.108"/>
    <path d="m183.9 170c0 13.73-11.13 24.86-24.86 24.86-13.73 0-24.86-11.13-24.86-24.86 0-13.73 11.13-24.86 24.86-24.86 13.73 0 24.86 11.13 24.86 24.86z" fill="#fb4934" stroke-width="3.108"/>
    <path d="m152.9 82.93c0 13.73-11.13 24.86-24.86 24.86s-24.86-11.13-24.86-24.86c0-13.73 11.13-24.86 24.86-24.86s24.86 11.13 24.86 24.86z" fill="#8ec07c" stroke-width="3.108"/>
    <path d="m215 82.93c0 13.73-11.13 24.86-24.86 24.86-13.73 0-24.86-11.13-24.86-24.86 0-13.73 11.13-24.86 24.86-24.86 13.73 0 24.86 11.13 24.86 24.86z" fill="#83a598" stroke-width="3.108"/>
    <path d="m90.7 82.93c0 13.73-11.13 24.86-24.86 24.86-13.73 0-24.86-11.13-24.86-24.86 0-13.73 11.13-24.86 24.86-24.86 13.73 0 24.86 11.13 24.86 24.86z" fill="#fe8019" stroke-width="3.108"/>
    <path d="m65.84 58.07c-13.73 0-24.87 11.13-24.87 24.86 0 0.5219 0.01588 1.041 0.04883 1.555 0.8022-13.01 11.61-23.31 24.82-23.31 13.21 0 24.01 10.3 24.82 23.31 0.0317-0.5139 0.04883-1.033 0.04883-1.555-8e-6 -13.73-11.13-24.86-24.87-24.86zm62.16 0c-13.73 0-24.87 11.13-24.87 24.86 0 0.5219 0.0159 1.041 0.0488 1.555 0.8022-13.01 11.61-23.31 24.82-23.31s24.01 10.3 24.82 23.31c0.0317-0.5139 0.0488-1.033 0.0488-1.555-1e-5 -13.73-11.13-24.86-24.87-24.86zm62.16 0c-13.73 0-24.87 11.13-24.87 24.86 0 0.5219 0.0159 1.041 0.0488 1.555 0.8022-13.01 11.61-23.31 24.82-23.31 13.21 0 24.01 10.3 24.82 23.31 0.0317-0.5139 0.0488-1.033 0.0488-1.555-2e-5 -13.73-11.13-24.86-24.87-24.86zm-93.24 87.03c-13.73 0-24.86 11.13-24.86 24.87 0 0.5219 0.01589 1.041 0.04883 1.555 0.8022-13.01 11.6-23.31 24.81-23.31 13.21 0 24.01 10.3 24.82 23.31 0.0317-0.5139 0.0488-1.033 0.0488-1.555 0-13.73-11.13-24.87-24.87-24.87zm62.16 0c-13.73 1e-3 -24.86 11.13-24.86 24.87 0 0.5219 0.0159 1.041 0.0488 1.555 0.8022-13.01 11.6-23.31 24.81-23.31s24.01 10.3 24.82 23.31c0.0317-0.5139 0.0488-1.033 0.0488-1.555 0-13.73-11.13-24.86-24.86-24.87z" fill="#ebdbb2" opacity=".3" stroke-width="3.108"/>
  </g>
</svg>
