<svg width="256" height="256" style="isolation:isolate" version="1.1" xmlns="http://www.w3.org/2000/svg">
  <g filter="url(#a)">
    <linearGradient id="b" x1=".50002" x2=".50002" y1="-.00051239" y2="1" gradientTransform="matrix(244.65,0,0,228.34,5.676,11.947)" gradientUnits="userSpaceOnUse">
      <stop stop-color="#504945" offset="0"/>
      <stop stop-color="#3c3836" offset="1"/>
    </linearGradient>
    <path d="m165.68 11.947c72.707 0 84.639 12.053 84.639 84.544v59.251c0 72.561-11.932 84.543-84.639 84.543h-75.37c-72.294 0-84.639-11.982-84.639-84.543v-59.251c0-72.491 12.329-84.544 84.639-84.544z" fill="url(#b)"/>
  </g>
  <defs>
    <filter id="a" x="-.042124" y="-.045133" width="1.0842" height="1.1078" color-interpolation-filters="sRGB">
      <feGaussianBlur in="SourceGraphic" stdDeviation="4.294"/>
      <feOffset dy="4" result="pf_100_offsetBlur"/>
      <feFlood flood-opacity=".4"/>
      <feComposite in2="pf_100_offsetBlur" operator="in" result="pf_100_dropShadow"/>
      <feBlend in="SourceGraphic" in2="pf_100_dropShadow"/>
    </filter>
    <filter id="t1FfV4GHVNTdp1FBgL8zNWAl1Doy3BMb" x="-.092705" y="-.092705" width="1.1854" height="1.1854" color-interpolation-filters="sRGB">
      <feGaussianBlur stdDeviation="4.294"/>
    </filter>
    <radialGradient id="_rgradient_0" cx=".5" cy=".5" r=".5" gradientTransform="matrix(170.5 .417 -1.167 141.58 45.75 54.792)" gradientUnits="userSpaceOnUse">
      <stop stop-color="#8ec07c" offset="0"/>
      <stop stop-color="#458588" offset="1"/>
    </radialGradient>
    <filter id="p3UimMjkhbhgN4w49xPb6vQf74BKR2Ct" x="-.071074" y="-.10153" width="1.1421" height="1.2031" color-interpolation-filters="sRGB">
      <feGaussianBlur stdDeviation="4.294"/>
    </filter>
    <linearGradient id="_lgradient_342" x1="-.207" x2=".5" y1=".5" y2="1.207" gradientTransform="matrix(93.868,0,0,89.237,88.243,84.864)" gradientUnits="userSpaceOnUse">
      <stop stop-color="#fabd2f" offset="0"/>
      <stop stop-color="#fe8019" offset=".5"/>
      <stop stop-color="#fe8019" offset="1"/>
    </linearGradient>
    <linearGradient id="_lgradient_343" x1=".767" x2=".067" y1="1.071" y2=".076" gradientTransform="matrix(55.015 0 0 57.219 69.827 118.5)" gradientUnits="userSpaceOnUse">
      <stop stop-color="#d79921" stop-opacity=".99608" offset="0"/>
      <stop stop-color="#fabd2f" stop-opacity=".996" offset="100"/>
    </linearGradient>
    <linearGradient id="_lgradient_344" x1="-.207" x2=".5" y1=".5" y2="1.207" gradientTransform="matrix(54.731 0 0 63.01 145.77 75.042)" gradientUnits="userSpaceOnUse">
      <stop stop-color="#fb4934" offset="0"/>
      <stop stop-color="#fb4934" offset=".5"/>
      <stop stop-color="#fb4934" offset="1"/>
    </linearGradient>
    <linearGradient id="_lgradient_345" x1="-.207" x2=".5" y1=".5" y2="1.207" gradientTransform="matrix(57.954 0 0 68.559 124.16 84.864)" gradientUnits="userSpaceOnUse">
      <stop stop-color="#ebdbb2" offset="0"/>
      <stop stop-color="#d5c4a1" offset="1"/>
    </linearGradient>
  </defs>
  <g opacity=".4">
    <linearGradient id="c" x1=".517" x2=".517" y2="1" gradientTransform="matrix(244.65,0,0,228.34,5.68,11.95)" gradientUnits="userSpaceOnUse">
      <stop stop-color="#928374" offset="0"/>
      <stop stop-color="#928374" stop-opacity=".098039" offset=".125"/>
      <stop stop-opacity=".098039" offset=".925"/>
      <stop stop-opacity=".49804" offset="1"/>
    </linearGradient>
    <path d="m165.07 11.951c4.328-0.01 8.656 0.04 12.984 0.138 3.875 0.078 7.7436 0.25854 11.62 0.48454 3.453 0.196 6.8876 0.5327 10.33 0.9057 3.06 0.335 6.0892 0.83409 9.1192 1.3941 2.7131 0.50032 5.3525 1.181 7.9999 1.9571 2.3983 0.69679 4.7544 1.61 7.0323 2.6338 2.1121 0.94124 4.0427 2.0439 5.9631 3.3319 1.8405 1.2399 3.5996 2.7014 5.1741 4.2652 1.5652 1.5692 2.886 3.1628 4.1277 4.9987 1.2864 1.9174 2.4086 3.8707 3.3603 5.9744 1.0207 2.2746 1.9193 4.5772 2.628 6.9675 0.77696 2.6443 1.4779 5.3272 1.9787 8.0374 0.56201 3.0246 1.0626 6.0601 1.3989 9.1181 0.374 3.439 0.70873 6.8493 0.90573 10.297 0.226 3.861 0.42171 7.7394 0.51071 11.6 0.088 4.323 0.138 8.646 0.128 12.96v58.21c0.01 4.324-0.04 8.637-0.128 12.96-0.085 3.8668-0.28821 7.7331-0.51114 11.595-0.19655 3.4488-0.53822 6.9467-0.91224 10.38-0.33634 3.0613-0.82936 6.0316-1.3914 9.0596-0.50199 2.7066-1.1867 5.3458-1.9626 7.987-0.7071 2.3908-1.5665 4.6263-2.5888 6.9002-0.94995 2.1048-2.1624 4.2292-3.4512 6.1454-1.2392 1.8377-2.5377 3.3902-4.1052 4.9572-1.5746 1.5638-3.412 3.0712-5.2525 4.3111-1.9201 1.2879-3.8611 2.3701-5.9729 3.3114-2.3498 1.0736-4.5744 1.8717-6.9323 2.584-2.6776 0.81656-5.2934 1.4166-7.976 1.948-3.0309 0.56603-6.051 1.0612-9.1165 1.3921-3.5041 0.40869-6.8203 0.68433-10.336 0.90377-3.875 0.226-7.789 0.40013-11.665 0.48813-4.328 0.088-8.6314 0.15082-12.959 0.14082h-74.126c-4.328 0.01-8.6566-0.0545-12.985-0.14247-3.9049-0.0955-7.7449-0.24667-11.628-0.49085-3.4941-0.21923-7.0445-0.5149-10.452-0.92805-3.1873-0.37665-5.9337-0.7937-8.9951-1.3902-2.833-0.56139-5.3421-1.1637-7.9464-1.9566-2.4295-0.73175-4.8105-1.6266-7.0523-2.6548-2.139-0.97893-4.0617-2.0635-5.9983-3.3731-1.8405-1.2399-3.5141-2.6495-5.0886-4.2133-1.5676-1.5671-2.9061-3.1787-4.1454-5.0164-1.2884-1.9162-2.4021-3.8332-3.3518-5.9379-1.0223-2.2739-1.9238-4.5236-2.6309-6.9144-0.77585-2.6412-1.4977-5.3053-1.9996-8.0119-0.56202-3.028-1.0938-6.1087-1.4301-9.17-0.37402-3.4341-0.72617-6.8459-0.92272-10.295-0.22292-3.8613-0.42179-7.7427-0.50684-11.61-0.09185-4.3194-0.13452-8.6396-0.128-12.96v-58.21c-0.01-4.314 0.04-8.637 0.128-12.96 0.089-3.86 0.28015-7.7353 0.50615-11.596 0.197-3.448 0.54883-6.857 0.92283-10.296 0.335-3.055 0.87336-6.1638 1.4344-9.1898 0.50085-2.7102 1.1807-5.2262 1.9577-7.8705 0.70872-2.3902 1.7549-4.9868 2.7756-7.2614 0.95209-2.1037 1.9632-3.7998 3.2499-5.7172 1.2418-1.8358 2.594-3.4604 4.1593-5.0296 1.5745-1.5638 3.3273-3.0214 5.1678-4.2614 1.9201-1.2879 3.8238-2.3848 5.9356-3.3261 2.278-1.0238 4.5428-1.9236 6.9411-2.6204 2.6474-0.77617 5.2743-1.4761 7.9874-1.9764 3.0317-0.56124 6.1381-1.085 9.203-1.4208 3.443-0.373 6.8398-0.71288 10.293-0.90888 3.875-0.226 7.7331-0.41514 11.609-0.49314 4.328-0.098 8.6625-0.14613 12.991-0.13613zm0.01 4.009c4.298-0.01 8.597 0.039 12.895 0.127 3.827 0.089 7.6466 0.26854 11.474 0.48454 3.383 0.197 6.7724 0.43946 10.136 0.81246 2.971 0.315 5.9391 0.74869 8.8701 1.2987 2.5807 0.47339 5.1059 1.0723 7.6238 1.8101 2.2193 0.6492 4.4135 1.4563 6.5231 2.4032 1.9054 0.85272 3.7179 1.8543 5.4527 3.0153 1.6245 1.0927 3.1568 2.3505 4.5413 3.7347 1.3858 1.385 2.6374 2.8981 3.738 4.519 1.1601 1.7266 2.1737 3.5473 3.03 5.443 0.94487 2.1083 1.7467 4.2779 2.4 6.494 0.74152 2.5113 1.352 5.0594 1.829 7.634 0.54 2.928 0.974 5.875 1.298 8.842 0.374 3.36 0.65 6.73 0.846 10.11 0.217 3.822 0.374 7.634 0.453 11.456 0.088 4.293 0.137 8.577 0.137 12.87v58.212c0 4.293-0.049 8.577-0.137 12.87-0.082 3.8211-0.0546 7.643-0.27458 11.459-0.196 3.38-0.65042 6.7474-1.0244 10.117-0.3245 2.9589-0.75746 5.9049-1.298 8.832-0.47731 2.5747-1.0881 5.1228-1.83 7.634-0.65169 2.2166-1.4536 4.3863-2.4 6.494-0.8542 1.8968-1.8678 3.7176-3.03 5.443-1.0976 1.6263-2.349 3.1432-3.737 4.53-1.3876 1.3779-2.9027 2.6211-4.525 3.713-1.7345 1.161-3.564 2.1732-5.469 3.026-2.1078 0.95119-4.2802 1.7522-6.501 2.397-2.5179 0.7378-5.0723 1.3446-7.653 1.818-2.931 0.55-5.8828 0.98162-8.8538 1.3056-3.364 0.364-6.7562 0.64938-10.139 0.83638-3.827 0.216-7.6776 0.36018-11.505 0.43918-4.298 0.098-8.5724 0.14982-12.87 0.14982h-74.146c-4.298 0-8.5976-0.0545-12.896-0.15147-3.8291-0.082-7.6582-0.26152-11.482-0.48085-3.3834-0.19001-6.7587-0.42545-10.127-0.79268-2.97-0.32174-5.9265-0.7574-8.863-1.306-2.5807-0.47339-5.1351-1.0802-7.653-1.818-2.2208-0.64482-4.3673-1.4321-6.4751-2.3833-1.9053-0.85272-3.7547-1.8723-5.4895-3.0333-1.622-1.0922-3.1431-2.3423-4.5303-3.7205-1.3882-1.3864-2.64-2.903-3.738-4.529-1.1622-1.7254-2.1758-3.5462-3.03-5.443-0.94645-2.1077-1.7483-4.2774-2.4-6.494-0.74152-2.5113-1.352-5.0594-1.829-7.634-0.54054-2.9271-0.9735-5.8731-1.298-8.832-0.374-3.37-0.65-6.74-0.846-10.12-0.21993-3.8156-0.37096-7.6349-0.453-11.456-0.08992-4.2894-0.13559-8.5796-0.137-12.87v-58.212c0-4.293 0.049-8.577 0.137-12.87 0.079-3.822 0.236-7.634 0.453-11.456 0.197-3.38 0.472-6.75 0.846-10.11 0.324-2.967 0.757-5.914 1.298-8.842 0.47732-2.5747 1.0915-5.1375 1.8334-7.6487 0.65331-2.2161 1.4517-4.371 2.3966-6.4793 0.85634-1.8957 1.8699-3.7164 3.03-5.443 1.1003-1.6212 2.3515-3.1346 3.737-4.52 1.3849-1.3839 2.9002-2.6307 4.525-3.723 1.7345-1.161 3.564-2.1732 5.469-3.026 2.1096-0.94691 4.2817-1.7478 6.501-2.397 2.5179-0.7378 5.0723-1.3446 7.653-1.818 2.931-0.55 5.892-0.982 8.863-1.297 3.364-0.373 6.7432-0.64645 10.126-0.84345 3.8239-0.21443 7.6549-0.36667 11.484-0.45355 4.298-0.088 8.597-0.137 12.895-0.127z" fill="url(#c)" fill-rule="evenodd"/>
  </g>
  <g transform="translate(-.00024621 -.20799)" style="isolation:isolate">
    <g filter="url(#t1FfV4GHVNTdp1FBgL8zNWAl1Doy3BMb)" opacity=".4">
      <circle cx="130.42" cy="128.21" r="55.583" vector-effect="non-scaling-stroke"/>
    </g>
    <circle cx="130.42" cy="125.79" r="55.583" fill="url(#_rgradient_0)" vector-effect="non-scaling-stroke"/>
    <g filter="url(#p3UimMjkhbhgN4w49xPb6vQf74BKR2Ct)" opacity=".4">
      <path d="m169.29 77.468c-5.619-0.143-9.412 1.567-9.412 1.567l-71.631 41.886-18.418 27.376c0.121 0.032 0.21 0.08 0.33 0.113-5.825 9.197-11.377 18.43-13.697 23.676-1.781 4.544-1.231 6.075 2.841 6.532 25.339 0.985 28.161-0.484 28.16-0.481l32.531-1.614 70.244-41.074s18.766-13.863 5.541-40.659c-9.028-13.885-19.264-17.139-26.489-17.322zm-97.715 71.424c1.523 0.473 3.039 0.952 4.343 1.529 0.861 0.38 1.677 0.784 2.445 1.208 2.31 1.277 4.209 2.745 5.721 4.399 0.505 0.554 0.967 1.125 1.387 1.718 0.418 0.591 0.797 1.203 1.133 1.832 0.333 0.622 0.633 1.257 0.888 1.916-0.256-0.658-0.555-1.295-0.888-1.916-0.338-0.63-0.713-1.24-1.133-1.832-0.42-0.591-0.883-1.166-1.387-1.718-1.513-1.653-3.411-3.123-5.721-4.399-0.77-0.425-1.582-0.827-2.445-1.208-1.304-0.576-2.821-1.057-4.343-1.529zm16.105 13.187c0.172 0.496 0.342 0.996 0.472 1.511 0.357 1.406 0.564 2.88 0.623 4.427-0.061-1.545-0.265-3.023-0.623-4.427-0.131-0.515-0.299-1.015-0.472-1.511zm1.02 7.524c-0.023 1.08-0.019 2.145-0.17 3.285 0.15-1.141 0.147-2.204 0.17-3.285z"/>
    </g>
    <path d="m145.77 84.864-57.528 33.64 31.747 55.597 61.668-36.051c0-2e-3 -1e-3 -4e-3 0-5e-3 2.728-25.642-6.546-48.968-35.887-53.181z" fill="url(#_lgradient_342)"/>
    <path d="m87.462 175.72c3.9-14.494-0.415-25.092-17.294-29.735-5.829 9.2-11.385 18.432-13.706 23.681-1.78 4.544-1.231 6.074 2.841 6.531 25.338 0.985 28.16-0.48 28.159-0.477z" fill="#3c3836"/>
    <path d="m69.827 145.88 18.416-27.38c32.438 1.663 44.168 32.716 31.749 55.6l-32.529 1.619c3.928-14.595-0.461-25.248-17.636-29.839z" fill="url(#_lgradient_343)"/>
    <path d="m169.29 75.05c-5.62-0.143-9.419 1.569-9.419 1.569l-14.106 8.245c29.343 4.213 38.617 27.544 35.887 53.187l8.58-5.021s18.77-13.864 5.545-40.66c-9.028-13.886-19.263-17.136-26.487-17.32z" fill="url(#_lgradient_344)"/>
    <path d="m145.77 84.864-21.613 12.638c34.234-0.267 43.498 34.89 31.2 55.92l26.3-15.371v-6e-3c2.727-25.642-6.546-48.969-35.887-53.181z" fill="url(#_lgradient_345)"/>
    <g opacity=".3">
      <path d="m142.6 86.712-4.64 2.715c19.702 2.613 34.459 19.828 34.48 40.224-0.012 5.348-1.054 10.641-3.064 15.575l4.505-2.637c1.296-4.227 1.963-8.632 1.976-13.064-0.025-20.48-13.814-38.232-33.257-42.813zm-7.221 4.229-4.602 2.689c19.555 2.761 34.133 19.905 34.158 40.171-8e-3 5.456-1.088 10.854-3.173 15.872l4.505-2.636c1.362-4.317 2.066-8.824 2.085-13.362-0.03-20.364-13.671-38.044-32.973-42.734z"/>
    </g>
    <g opacity=".1">
      <path d="m169.29 75.051c-5.619-0.143-9.412 1.567-9.412 1.567l-14.113 8.241c1.091 0.157 2.145 0.35 3.172 0.567l10.941-6.391s3.793-1.71 9.412-1.567c7.225 0.183 17.461 3.437 26.489 17.322 3.174 6.431 4.482 12.093 4.668 17.016 0.205-5.455-0.961-11.921-4.668-19.432-9.028-13.886-19.264-17.139-26.489-17.323zm12.754 57.169c-0.065 1.929-0.178 3.871-0.387 5.834l0.165-0.099c0.074-1.064 0.176-2.135 0.212-3.191-1e-3 -0.846 0.038-1.704 0.01-2.544z" fill="#ebdbb2"/>
    </g>
  </g>
</svg>
