<svg width="256" height="256" style="isolation:isolate" version="1.1" viewBox="0 0 256 256" xmlns="http://www.w3.org/2000/svg">
  <defs>
    <filter id="r4KdpG5m124uclNjriW9c6LCjmU5bdxi" x="-.042124" y="-.045133" width="1.0842" height="1.1078" color-interpolation-filters="sRGB">
      <feGaussianBlur in="SourceGraphic" stdDeviation="4.294"/>
      <feOffset dx="0" dy="4" result="pf_100_offsetBlur"/>
      <feFlood flood-opacity=".4"/>
      <feComposite in2="pf_100_offsetBlur" operator="in" result="pf_100_dropShadow"/>
      <feBlend in="SourceGraphic" in2="pf_100_dropShadow"/>
    </filter>
  </defs>
  <g filter="url(#r4KdpG5m124uclNjriW9c6LCjmU5bdxi)">
    <linearGradient id="_lgradient_67" x1=".5" x2=".5" y2="1" gradientTransform="matrix(244.65 0 0 228.34 5.43 11.577)" gradientUnits="userSpaceOnUse">
      <stop stop-color="#8ec07c" offset="0"/>
      <stop stop-color="#83a598" offset="1"/>
    </linearGradient>
    <path d="m165.44 11.577c74.056 0 84.639 10.557 84.639 84.543v59.251c0 73.987-10.583 84.544-84.639 84.544h-75.37c-74.055 0-84.639-10.557-84.639-84.544v-59.251c0-73.986 10.584-84.543 84.639-84.543h75.37z" fill="url(#_lgradient_67)"/>
  </g>
  <g opacity=".4">
    <linearGradient id="_lgradient_68" x1=".517" x2=".517" y2="1" gradientTransform="matrix(244.65,0,0,228.34,5.68,11.95)" gradientUnits="userSpaceOnUse">
      <stop stop-color="#ebdbb2" offset="0"/>
      <stop stop-color="#ebdbb2" stop-opacity=".098" offset=".125"/>
      <stop stop-color="#282828" stop-opacity=".098" offset=".925"/>
      <stop stop-color="#282828" stop-opacity=".498" offset="1"/>
    </linearGradient>
    <path d="m165.07 11.951c4.328-0.01 8.656 0.04 12.984 0.138 3.875 0.078 7.751 0.226 11.626 0.452 3.453 0.196 6.905 0.481 10.348 0.854 3.059 0.335 6.118 0.786 9.148 1.346 2.715 0.502 5.4 1.14 8.046 1.916 2.4 0.698 4.751 1.562 7.023 2.584 2.115 0.943 4.141 2.063 6.059 3.35 1.84 1.238 3.561 2.653 5.135 4.215 1.564 1.572 2.98 3.282 4.219 5.119 1.289 1.916 2.41 3.94 3.364 6.042 1.023 2.28 1.889 4.618 2.597 7.005 0.777 2.643 1.417 5.325 1.918 8.037 0.561 3.026 1.013 6.072 1.348 9.127 0.374 3.439 0.659 6.878 0.856 10.326 0.226 3.861 0.373 7.732 0.462 11.593 0.088 4.323 0.138 8.646 0.128 12.959v58.212c0.01 4.323-0.04 8.636-0.128 12.959-0.089 3.871-0.236 7.732-0.462 11.593-0.197 3.448-0.482 6.897-0.856 10.326-0.335 3.055-0.787 6.111-1.348 9.137-0.501 2.702-1.141 5.384-1.918 8.027-0.708 2.387-1.574 4.735-2.597 7.005-0.954 2.112-2.075 4.126-3.364 6.042-1.239 1.837-2.655 3.557-4.219 5.119-1.574 1.562-3.295 2.977-5.135 4.215-1.918 1.287-3.944 2.407-6.059 3.35-2.272 1.022-4.623 1.886-7.023 2.594-2.646 0.776-5.331 1.414-8.046 1.906-3.03 0.569-6.089 1.011-9.148 1.346-3.443 0.373-6.895 0.658-10.348 0.854-3.875 0.226-7.751 0.374-11.626 0.462-4.328 0.088-8.656 0.138-12.984 0.128h-74.126c-4.328 0.01-8.656-0.04-12.984-0.128-3.875-0.088-7.751-0.236-11.626-0.462-3.453-0.196-6.905-0.481-10.348-0.854-3.059-0.335-6.118-0.777-9.148-1.346-2.715-0.492-5.4-1.13-8.046-1.906-2.4-0.708-4.751-1.572-7.023-2.594-2.115-0.943-4.141-2.063-6.059-3.35-1.84-1.238-3.561-2.653-5.135-4.215-1.564-1.562-2.98-3.282-4.219-5.119-1.289-1.916-2.41-3.93-3.364-6.042-1.023-2.27-1.889-4.618-2.597-7.005-0.777-2.643-1.417-5.325-1.918-8.027-0.561-3.026-1.013-6.082-1.348-9.137-0.374-3.429-0.659-6.878-0.856-10.326-0.226-3.861-0.373-7.722-0.462-11.593-0.088-4.323-0.138-8.636-0.128-12.959v-58.212c-0.01-4.313 0.04-8.636 0.128-12.959 0.089-3.861 0.236-7.732 0.462-11.593 0.197-3.448 0.482-6.887 0.856-10.326 0.335-3.055 0.787-6.101 1.348-9.127 0.501-2.712 1.141-5.394 1.918-8.037 0.708-2.387 1.574-4.725 2.597-7.005 0.954-2.102 2.075-4.126 3.364-6.042 1.239-1.837 2.655-3.547 4.219-5.119 1.574-1.562 3.295-2.977 5.135-4.215 1.918-1.287 3.944-2.407 6.059-3.35 2.272-1.022 4.623-1.886 7.023-2.584 2.646-0.776 5.331-1.414 8.046-1.916 3.03-0.56 6.089-1.011 9.148-1.346 3.443-0.373 6.895-0.658 10.348-0.854 3.875-0.226 7.751-0.374 11.626-0.452 4.328-0.098 8.656-0.148 12.984-0.138h74.126zm0.01 4.009c4.298-0.01 8.597 0.039 12.895 0.127 3.827 0.089 7.653 0.236 11.479 0.452 3.384 0.197 6.767 0.472 10.131 0.845 2.971 0.315 5.932 0.747 8.863 1.297 2.577 0.472 5.134 1.081 7.653 1.818 2.223 0.648 4.396 1.454 6.501 2.397 1.909 0.855 3.738 1.867 5.469 3.026 1.623 1.091 3.138 2.338 4.525 3.724 1.387 1.385 2.636 2.898 3.738 4.519 1.16 1.729 2.174 3.547 3.029 5.443 0.945 2.112 1.751 4.284 2.4 6.494 0.748 2.515 1.348 5.06 1.83 7.634 0.541 2.928 0.974 5.875 1.298 8.842 0.374 3.36 0.65 6.73 0.846 10.11 0.217 3.822 0.374 7.634 0.453 11.456 0.088 4.293 0.137 8.577 0.137 12.87v58.212c0 4.293-0.049 8.577-0.137 12.87-0.079 3.822-0.236 7.644-0.453 11.456-0.196 3.38-0.472 6.75-0.846 10.12-0.324 2.957-0.757 5.904-1.298 8.832-0.482 2.574-1.082 5.119-1.83 7.634-0.649 2.22-1.455 4.382-2.4 6.494-0.855 1.896-1.869 3.724-3.029 5.443-1.102 1.631-2.351 3.144-3.738 4.529-1.387 1.376-2.902 2.623-4.525 3.714-1.731 1.159-3.56 2.171-5.469 3.026-2.105 0.953-4.278 1.749-6.501 2.397-2.519 0.737-5.076 1.346-7.653 1.818-2.931 0.55-5.892 0.982-8.863 1.306-3.364 0.364-6.747 0.649-10.131 0.836-3.826 0.216-7.652 0.373-11.479 0.452-4.298 0.098-8.597 0.137-12.895 0.137h-0.01-74.126-0.01c-4.298 0-8.597-0.039-12.895-0.137-3.827-0.079-7.653-0.236-11.479-0.452-3.384-0.187-6.767-0.472-10.131-0.836-2.971-0.324-5.932-0.756-8.863-1.306-2.577-0.472-5.134-1.081-7.653-1.818-2.223-0.648-4.396-1.444-6.501-2.397-1.909-0.855-3.738-1.867-5.469-3.026-1.623-1.091-3.138-2.338-4.525-3.714-1.387-1.385-2.636-2.898-3.738-4.529-1.16-1.719-2.174-3.547-3.029-5.443-0.945-2.112-1.751-4.274-2.4-6.494-0.748-2.515-1.348-5.06-1.83-7.634-0.541-2.928-0.974-5.875-1.298-8.832-0.374-3.37-0.649-6.74-0.846-10.12-0.217-3.812-0.374-7.634-0.453-11.456-0.088-4.293-0.137-8.577-0.137-12.87v-58.212c0-4.293 0.049-8.577 0.137-12.87 0.079-3.822 0.236-7.634 0.453-11.456 0.197-3.38 0.472-6.75 0.846-10.11 0.324-2.967 0.757-5.914 1.298-8.842 0.482-2.574 1.082-5.119 1.83-7.634 0.649-2.21 1.455-4.382 2.4-6.494 0.855-1.896 1.869-3.714 3.029-5.443 1.102-1.621 2.351-3.134 3.738-4.519 1.387-1.386 2.902-2.633 4.525-3.724 1.731-1.159 3.56-2.171 5.469-3.026 2.105-0.943 4.278-1.749 6.501-2.397 2.519-0.737 5.076-1.346 7.653-1.818 2.931-0.55 5.892-0.982 8.863-1.297 3.364-0.373 6.747-0.648 10.131-0.845 3.826-0.216 7.652-0.363 11.479-0.452 4.298-0.088 8.597-0.137 12.895-0.127h0.01 74.126 0.01z" fill="url(#_lgradient_68)" fill-rule="evenodd"/>
  </g>
  <defs>
    <filter id="wi08PIATYGplOeBJpXwVf10iwzfYpM3z" x="-.062458" y="-.1093" width="1.1249" height="1.2186" color-interpolation-filters="sRGB">
      <feGaussianBlur stdDeviation="4.294"/>
    </filter>
  </defs>
  <g filter="url(#wi08PIATYGplOeBJpXwVf10iwzfYpM3z)" opacity=".4">
    <path d="m67.011 82.33c-3.754 0-6.779 3.002-6.779 6.733v13.892h-5.524-1.842-1.841c-3.061 0-5.525 2.532-5.525 5.68v41.676c0 3.148 2.464 5.68 5.525 5.68h1.841 1.842 5.524v13.892c0 3.731 3.025 6.733 6.779 6.733h121.98c3.754 0 6.779-3.002 6.779-6.733v-13.892h5.524 1.842 1.841c3.061 0 5.525-2.532 5.525-5.68v-41.676c0-3.148-2.464-5.68-5.525-5.68h-1.841-1.842-5.524v-13.892c0-3.731-3.025-6.733-6.779-6.733h-121.98z"/>
  </g>
  <defs>
    <linearGradient id="_lgradient_69" x2="0" y2="1">
      <stop stop-color="#ebdbb2" offset="0"/>
      <stop stop-color="#d5c4a1" offset="1"/>
    </linearGradient>
  </defs>
  <path d="m67.009 79.384h121.98c3.74 0 6.777 3.037 6.777 6.777v80.732c0 3.74-3.037 6.777-6.777 6.777h-121.98c-3.74 0-6.777-3.037-6.777-6.777v-80.732c0-3.74 3.037-6.777 6.777-6.777z" fill="url(#_lgradient_69)"/>
  <linearGradient id="_lgradient_70" x2="0" y2="1" gradientTransform="matrix(14.732 0 0 53.036 45.5 100.01)" gradientUnits="userSpaceOnUse">
    <stop stop-color="#ebdbb2" offset="0"/>
    <stop stop-color="#d5c4a1" offset="1"/>
  </linearGradient>
  <path d="m51.025 100.01c-3.061 0-5.525 2.534-5.525 5.682v41.671c0 3.148 2.464 5.683 5.525 5.683h1.841 1.842 5.524v-5.683-41.671-5.682h-5.524-1.842-1.841z" fill="url(#_lgradient_70)"/>
  <linearGradient id="_lgradient_71" x2="0" y2="1" gradientTransform="matrix(14.732 0 0 53.036 195.77 100.01)" gradientUnits="userSpaceOnUse">
    <stop stop-color="#ebdbb2" offset="0"/>
    <stop stop-color="#d5c4a1" offset="1"/>
  </linearGradient>
  <path d="m204.98 153.04c3.061 0 5.525-2.535 5.525-5.683v-41.671c0-3.148-2.464-5.682-5.525-5.682h-1.841-1.842-5.524v5.682 41.671 5.683h5.524 1.842 1.841z" fill="url(#_lgradient_71)"/>
  <linearGradient id="_lgradient_72" x2="0" y2="1" gradientTransform="matrix(153.21 0 0 47.143 51.393 102.96)" gradientUnits="userSpaceOnUse">
    <stop stop-color="#504945" offset="0"/>
    <stop stop-color="#3c3836" offset="1"/>
  </linearGradient>
  <path d="m128 102.96c-9.599 8e-3 -18.234 5.834-21.833 14.733h-13.064l-0.357-0.587-3.734-6.193c-0.813-1.343-2.345-2.137-3.965-2.054-1.457 0.075-2.775 0.847-3.505 2.054l-3.735 6.193-0.357 0.587h-11.325v-2.947c0-3.265-2.628-5.893-5.893-5.893h-2.946c-3.265 0-5.893 2.628-5.893 5.893v6.526 10.52 6.526c0 3.264 2.628 5.892 5.893 5.892h2.946c3.265 0 5.893-2.628 5.893-5.892v-2.947h11.325l0.357 0.587 3.735 6.192c0.73 1.207 2.048 1.98 3.505 2.055 1.62 0.082 3.152-0.712 3.965-2.055l3.734-6.192 0.357-0.587h13.058c3.6 8.9 12.238 14.727 21.839 14.732 9.599-7e-3 18.234-5.834 21.833-14.732h13.064l0.357 0.587 3.734 6.192c0.73 1.207 2.049 1.98 3.505 2.055 1.621 0.082 3.153-0.712 3.965-2.055l3.735-6.192 0.357-0.587h11.325v2.947c0 3.264 2.628 5.892 5.893 5.892h2.946c3.265 0 5.893-2.628 5.893-5.892v-6.526-10.52-6.526c0-3.265-2.628-5.893-5.893-5.893h-2.946c-3.265 0-5.893 2.628-5.893 5.893v2.947h-11.325l-0.357-0.587-3.735-6.193c-0.812-1.343-2.344-2.137-3.965-2.054-1.456 0.075-2.775 0.847-3.505 2.054l-3.734 6.193-0.357 0.587h-13.058c-3.6-8.901-12.238-14.728-21.839-14.733z" fill="url(#_lgradient_72)"/>
  <path d="m67.011 79.384c-3.754 0-6.779 3.002-6.779 6.733v2.106h135.54v-2.106c0-3.731-3.025-6.733-6.779-6.733zm-6.779 85.446v2.107c0 3.731 3.025 6.733 6.779 6.733h121.98c3.754 0 6.779-3.002 6.779-6.733v-2.107z" fill="#bdae93" style="isolation:isolate"/>
</svg>
