<svg width="256" height="256" style="isolation:isolate" version="1.1" viewBox="0 0 256 256" xmlns="http://www.w3.org/2000/svg">
  <defs>
    <filter id="6iykPIPFatxeZKKrTYbvIWiHClahCeqD" x="-.042124" y="-.045133" width="1.0842" height="1.1078" color-interpolation-filters="sRGB">
      <feGaussianBlur in="SourceGraphic" stdDeviation="4.294"/>
      <feOffset dx="0" dy="4" result="pf_100_offsetBlur"/>
      <feFlood flood-opacity=".4"/>
      <feComposite in2="pf_100_offsetBlur" operator="in" result="pf_100_dropShadow"/>
      <feBlend in="SourceGraphic" in2="pf_100_dropShadow"/>
    </filter>
  </defs>
  <g filter="url(#6iykPIPFatxeZKKrTYbvIWiHClahCeqD)">
    <path d="m165.69 11.95c74.056 0 84.639 10.557 84.639 84.544v59.251c0 73.986-10.583 84.543-84.639 84.543h-75.37c-74.055 0-84.639-10.557-84.639-84.543v-59.251c0-73.987 10.584-84.544 84.639-84.544h75.37z" fill="#ebdbb2"/>
  </g>
  <path d="m63.181 164.35v-76.946l66.638-38.473 66.638 38.473v76.946l-66.638 38.476-66.638-38.476z" fill="#fabd2f"/>
  <path d="m249.62 182.69c0.027-0.417 0.075-0.77 0.1-1.193 0.434-7.369 0.599-15.627 0.599-24.875v-59.252c0-9.248-0.165-17.506-0.599-24.875-0.08-1.352-0.22-2.523-0.319-3.816l-33.179 20.129-0.879 73.447 34.277 20.435z" fill="#fe8019"/>
  <path d="m140.75 241.17h24.936c9.257 0 17.521-0.165 24.898-0.598 3.688-0.216 7.155-0.499 10.412-0.863s6.305-0.807 9.156-1.344c2.852-0.536 5.507-1.167 7.979-1.902s4.761-1.576 6.879-2.535c2.0398-0.91552 3.9985-2.0021 5.855-3.248 1.7617-1.1859 3.4059-2.5378 4.91-4.037 1.5012-1.5022 2.855-3.1447 4.043-4.905 1.2474-1.8535 2.3353-3.8095 3.252-5.847 0.863-1.9 1.599-3.987 2.28-6.17l-40.231-27.547-64.047 35.961-0.322 23.035z" fill="#cc241d"/>
  <path d="m10.824 210.19c0.641 1.996 1.309 3.943 2.106 5.698 0.91669 2.0375 2.0046 3.9935 3.252 5.847 1.188 1.7603 2.5418 3.4028 4.043 4.905 1.5041 1.4992 3.1483 2.8511 4.91 4.037 1.8565 1.2459 3.8152 2.3325 5.855 3.248 2.118 0.959 4.407 1.8 6.879 2.535s5.127 1.366 7.979 1.902c2.851 0.537 5.899 0.98 9.156 1.344s6.724 0.647 10.412 0.863c7.377 0.433 15.641 0.598 24.898 0.598h28.399v-21.932l-63.166-37.484-44.723 28.439z" fill="#b16286"/>
  <path d="m6.906 64.909c-0.235 2.458-0.472 4.901-0.631 7.59-0.434 7.369-0.599 15.627-0.599 24.875v59.252c0 9.248 0.165 17.506 0.599 24.875 0.058 0.971 0.162 1.801 0.229 2.742l36.906-21.306 0.879-73.448-37.383-24.58z" fill="#076678"/>
  <path d="m118.51 11.95h-28.192c-9.257 0-17.521 0.165-24.898 0.598-3.688 0.216-7.155 0.499-10.412 0.863s-6.305 0.807-9.156 1.344c-2.852 0.536-5.507 1.167-7.979 1.902s-4.761 1.576-6.879 2.535c-2.0398 0.91552-3.9985 2.0021-5.855 3.248-1.7617 1.1859-3.4059 2.5378-4.91 4.037-1.5012 1.5022-2.855 3.1447-4.043 4.905-1.2474 1.8535-2.3353 3.8095-3.252 5.847-0.845 1.861-1.563 3.911-2.233 6.043 0.423 0.273 0.74 0.527 1.18 0.803l42.643 24.619 64.044-35.961-0.058-20.783z" fill="#83a598"/>
  <path d="m245.87 45.194c-0.097-0.346-0.161-0.755-0.262-1.094-0.736-2.469-1.578-4.755-2.539-6.871-0.91669-2.0375-2.0046-3.9935-3.252-5.847-1.188-1.7603-2.5418-3.4028-4.043-4.905-1.5041-1.4992-3.1483-2.8511-4.91-4.037-1.8565-1.2459-3.8152-2.3325-5.855-3.248-2.118-0.959-4.407-1.8-6.879-2.535s-5.127-1.366-7.979-1.902c-2.851-0.537-5.899-0.98-9.156-1.344-3.4625-0.37893-6.9344-0.6667-10.412-0.863-7.377-0.433-15.641-0.598-24.898-0.598h-24.963l0.201 19.682 63.168 37.482 41.779-23.92z" fill="#b8bb26"/>
  <g transform="matrix(1 0 0 1.0039 -.0012523 -.04737)" opacity=".4">
    <linearGradient id="_lgradient_260" x1=".517" x2=".517" y2="1" gradientTransform="matrix(244.65,0,0,228.34,5.68,11.95)" gradientUnits="userSpaceOnUse">
      <stop stop-color="#ebdbb2" offset="0"/>
      <stop stop-color="#ebdbb2" stop-opacity=".098" offset=".125"/>
      <stop stop-color="#282828" stop-opacity=".098" offset=".925"/>
      <stop stop-color="#282828" stop-opacity=".498" offset="1"/>
    </linearGradient>
    <path d="m165.07 11.951c4.328-0.0098 8.6559 0.0393 12.984 0.13755 3.8755 0.0786 7.751 0.22597 11.626 0.45194 3.4525 0.1965 6.926 0.39036 10.369 0.7637 3.0591 0.33404 6.0312 0.69013 9.0608 1.2501 2.7148 0.50106 5.5947 1.0817 8.2407 1.8579 2.4 0.69756 4.8355 1.484 7.1077 2.5058 2.1148 0.94318 4.4946 2.1956 6.4127 3.4826 1.8394 1.2379 3.3362 2.4593 4.91 4.0215 1.564 1.572 3.042 3.406 4.2814 5.2432 1.2886 1.9158 2.3655 4.051 3.3196 6.1535 1.023 2.2793 1.7868 4.8609 2.495 7.2483 0.77705 2.6429 1.3373 5.2036 1.839 7.9152 0.56066 3.026 0.83469 6.0981 1.1691 9.1536 0.37378 3.4387 0.65903 6.9013 0.85575 10.35 0.22624 3.8611 0.37378 7.7082 0.4623 11.569 0.0885 4.3229 0.13771 8.6458 0.12788 12.959v58.212c0.01 4.3229-0.0393 8.636-0.12788 12.959-0.0885 3.871-0.18711 7.7207-0.41335 11.582-0.19672 3.4485-0.52636 6.9281-0.90014 10.357-0.33443 3.0555-0.77003 6.0902-1.3307 9.1162-0.50165 2.7018-1.1624 5.3851-1.9395 8.028-0.70822 2.3874-1.5234 5.5698-2.5464 7.8393-0.95411 2.1123-1.9634 3.9087-3.252 5.8245-1.2394 1.8372-2.479 3.324-4.043 4.8861-1.5738 1.5621-3.0706 2.7836-4.91 4.0215-1.9181 1.287-4.4223 2.5934-6.5371 3.5366-2.2722 1.0218-4.597 1.7484-6.9971 2.4558-2.646 0.77616-5.3962 1.3422-8.111 1.8334-3.0296 0.56984-6.12 0.93784-9.1791 1.2719-3.4427 0.37333-6.9176 0.61157-10.37 0.80806-3.8755 0.22596-7.744 0.32776-11.619 0.41617-4.328 0.0884-8.6559 0.13755-12.984 0.12773h-74.126c-4.328 0.01-8.6082-0.0291-12.936-0.11755-3.8755-0.0884-7.7658-0.19852-11.641-0.42448-3.4525-0.19649-6.9288-0.43318-10.371-0.80651-3.0591-0.33406-6.1263-0.69558-9.1558-1.2654-2.7148-0.49123-5.401-1.0334-8.047-1.8096-2.4-0.70737-4.8274-1.4603-7.0995-2.482-2.1148-0.94317-4.3281-2.053-6.2462-3.34-1.8394-1.2379-3.6445-2.6634-5.2183-4.2255-1.564-1.5621-3.0942-3.4853-4.3336-5.3226-1.2886-1.9158-2.32-3.9862-3.2741-6.0986-1.023-2.2695-1.5401-4.7112-2.2483-7.0986-0.77707-2.6429-1.4126-5.343-1.9142-8.0448-0.56067-3.026-0.99432-6.0937-1.3288-9.1492-0.37378-3.4289-0.65903-6.8774-0.85576-10.326-0.22623-3.8611-0.37378-7.7223-0.4623-11.593-0.088526-4.3229-0.13771-8.636-0.12787-12.959v-58.212c-0.009836-4.3131 0.039345-8.636 0.12787-12.959 0.088527-3.8611 0.23607-7.7321 0.4623-11.593 0.19672-3.4485 0.3793-6.8756 0.75307-10.314 0.33443-3.0555 0.70564-6.1076 1.2663-9.1336 0.50165-2.7116 1.0422-5.4099 1.8193-8.0528 0.70821-2.3874 1.4981-4.8591 2.521-7.1384 0.95412-2.1025 2.2685-4.5986 3.5571-6.5144 1.2394-1.8372 2.479-3.3142 4.043-4.8861 1.5738-1.5621 3.0706-2.7836 4.91-4.0215 1.9181-1.287 4.511-2.6316 6.6258-3.5748 2.2722-1.0218 4.623-1.753 7.0231-2.4506 2.646-0.77616 5.2695-1.2972 7.9843-1.7983 3.0296-0.56001 6.2481-0.95217 9.3072-1.2862 3.4427-0.37334 6.7975-0.5538 10.25-0.75029 3.8755-0.22597 7.751-0.37334 11.626-0.45194 4.3279-0.09825 8.6559-0.14737 12.984-0.13755zm0.01 4.0085c4.2984-0.0098 8.5969 0.0393 12.895 0.12772 3.8263 0.08842 7.6526 0.23579 11.479 0.45194 3.3837 0.1965 6.7882 0.38054 10.152 0.75388 2.9705 0.31439 5.8443 0.65083 8.7755 1.201 2.5771 0.47159 5.3291 1.0228 7.8472 1.7596 2.223 0.64844 4.4814 1.376 6.5864 2.3192 1.9082 0.85476 4.0913 1.9991 5.8225 3.1584 1.623 1.0906 2.9132 2.1449 4.3002 3.5302s2.6978 3.0228 3.7994 4.6439c1.1607 1.7292 2.1294 3.658 2.9852 5.5542 0.94428 2.1123 1.6491 4.5268 2.2983 6.7374 0.74756 2.5151 1.2685 4.9383 1.7504 7.5124 0.541 2.9278 0.79535 5.9016 1.12 8.8686 0.37378 3.3601 0.64919 6.7539 0.84592 10.134 0.2164 3.8218 0.37378 7.6099 0.45246 11.432 0.0885 4.2934 0.1377 8.577 0.1377 12.87v58.212c0 4.2934-0.0492 8.577-0.1377 12.87-0.0787 3.8218-0.18711 7.6322-0.40351 11.444-0.19673 3.3797-0.51653 6.7807-0.89031 10.151-0.3246 2.9572-0.74052 5.8839-1.2815 8.8117-0.48196 2.5741-1.1034 5.1198-1.851 7.635-0.64918 2.2204-1.4054 5.2161-2.3497 7.3284-0.85576 1.8962-1.7569 3.5059-2.9176 5.2252-1.1017 1.6309-2.1741 2.9114-3.561 4.2966-1.3869 1.3755-2.6772 2.4299-4.3002 3.5204-1.7312 1.1593-4.0387 2.3576-5.9469 3.2123-2.105 0.95301-4.2528 1.6109-6.4758 2.2593-2.5181 0.73686-5.1405 1.2734-7.7176 1.745-2.9312 0.55018-5.9233 0.90836-8.8938 1.2326-3.364 0.36351-6.7701 0.60175-10.154 0.78841-3.8263 0.21615-7.6456 0.32776-11.472 0.40636-4.2985 0.0982-8.5969 0.13754-12.895 0.13754h-74.146c-4.2984 0-8.5492-0.0291-12.848-0.12736-3.8263-0.0786-7.6675-0.19852-11.494-0.41467-3.3837-0.18666-6.7911-0.42335-10.155-0.78686-2.9706-0.32422-5.9394-0.67592-8.8706-1.2261-2.5771-0.47159-5.1355-0.98432-7.6535-1.7212-2.223-0.64843-4.4732-1.3326-6.5782-2.2856-1.9082-0.85475-3.9248-1.8565-5.656-3.0158-1.623-1.0906-3.2215-2.349-4.6084-3.7244-1.3869-1.3853-2.75-3.1022-3.8516-4.7331-1.1607-1.7193-2.0839-3.6031-2.9397-5.4993-0.94428-2.1123-1.4024-4.3673-2.0516-6.5877-0.74756-2.5151-1.3437-5.0778-1.8257-7.6518-0.541-2.9278-0.95497-5.8874-1.2796-8.8447-0.37378-3.3699-0.64919-6.7398-0.84592-10.12-0.21644-3.812-0.37382-7.6338-0.45251-11.456-0.088526-4.2934-0.13771-8.577-0.13771-12.87v-58.212c0-4.2934 0.049181-8.577 0.13771-12.87 0.07869-3.8218 0.23607-7.6338 0.45247-11.456 0.19672-3.3797 0.36946-6.7381 0.74324-10.098 0.3246-2.9671 0.67614-5.9209 1.2171-8.8487 0.48198-2.5741 0.98321-5.1348 1.7308-7.65 0.64919-2.2106 1.38-4.5152 2.3243-6.6275 0.85575-1.8962 2.062-4.1859 3.2227-5.9151 1.1017-1.6211 2.1741-2.9015 3.561-4.2868s2.6772-2.4397 4.3001-3.5302c1.7312-1.1593 4.1274-2.3958 6.0356-3.2505 2.105-0.94318 4.2788-1.6155 6.5018-2.2639 2.5181-0.73686 5.0138-1.2285 7.5909-1.7 2.9312-0.55019 6.0514-0.9227 9.0219-1.2371 3.364-0.37334 6.6499-0.54397 10.034-0.74047 3.8263-0.21614 7.6526-0.36352 11.479-0.45194 4.2984-0.08842 8.5969-0.13755 12.895-0.12772h74.146z" fill="url(#_lgradient_260)" fill-rule="evenodd"/>
  </g>
</svg>
