<svg width="256" height="256" version="1.1" viewBox="0 0 67.73 67.73" xmlns="http://www.w3.org/2000/svg">
  <defs>
    <linearGradient id="k" x1="296" x2="296" y1="-212" y2="236" gradientUnits="userSpaceOnUse">
      <stop stop-color="#ebdbb2" offset="0"/>
      <stop stop-color="#ebdbb2" stop-opacity=".098" offset=".125"/>
      <stop stop-opacity=".098" offset=".925"/>
      <stop stop-opacity=".498" offset="1"/>
    </linearGradient>
    <clipPath id="j">
      <path d="m361.9-212c145.3 0 166.1 20.71 166.1 165.9v116.2c0 145.2-20.76 165.9-166.1 165.9h-147.9c-145.3 0-166.1-20.71-166.1-165.9v-116.2c0-145.2 20.76-165.9 166.1-165.9z" fill="#b16286"/>
    </clipPath>
    <clipPath id="e">
      <path d="m189 44c72.65 0 83.03 10.36 83.03 82.94v58.12c0 72.58-10.38 82.94-83.03 82.94h-73.94c-72.65 0-83.03-10.36-83.03-82.94v-58.12c0-72.58 10.38-82.94 83.03-82.94z" fill="#fb4934" opacity=".1"/>
    </clipPath>
    <filter id="f" x="-.81" y="-.81" width="2.62" height="2.62" color-interpolation-filters="sRGB">
      <feGaussianBlur stdDeviation="2.7"/>
    </filter>
    <filter id="g" x="-.81" y="-.81" width="2.62" height="2.62" color-interpolation-filters="sRGB">
      <feGaussianBlur stdDeviation="2.7"/>
    </filter>
    <filter id="h" x="-.81" y="-.81" width="2.62" height="2.62" color-interpolation-filters="sRGB">
      <feGaussianBlur stdDeviation="2.7"/>
    </filter>
    <filter id="i" x="-.81" y="-.81" width="2.62" height="2.62" color-interpolation-filters="sRGB">
      <feGaussianBlur stdDeviation="2.7"/>
    </filter>
    <clipPath id="d">
      <path d="m329.9 16c145.3 0 166.1 20.71 166.1 165.9v116.2c0 145.2-20.76 165.9-166.1 165.9h-147.9c-145.3 0-166.1-20.71-166.1-165.9v-116.2c0-145.2 20.76-165.9 166.1-165.9z" fill="#458588"/>
    </clipPath>
    <linearGradient id="c" x1="24" x2="280" y1="28" y2="284" gradientTransform="matrix(.2646 0 0 .2646 -6.993 222)" gradientUnits="userSpaceOnUse">
      <stop stop-color="#b16286" offset="0"/>
      <stop stop-color="#8f3f71" offset="1"/>
    </linearGradient>
    <filter id="b" x="-.0116" y="-.01243" width="1.023" height="1.025" color-interpolation-filters="sRGB">
      <feGaussianBlur stdDeviation="1.16"/>
    </filter>
    <filter id="a" x="-.0232" y="-.02508" width="1.046" height="1.05" color-interpolation-filters="sRGB">
      <feGaussianBlur stdDeviation="2.32"/>
    </filter>
    <filter id="l" x="-.06724" y="-.03749" width="1.134" height="1.075" color-interpolation-filters="sRGB">
      <feGaussianBlur stdDeviation=".412"/>
    </filter>
  </defs>
  <path transform="scale(.2646)" d="m5.568 101.4v56.12c0 9.073 0.162 17.17 0.588 24.4 0.213 3.615 0.493 7.012 0.85 10.2 0.357 3.191 0.793 6.18 1.32 8.974 0.527 2.795 1.145 5.396 1.867 7.819 0.723 2.422 1.548 4.664 2.49 6.74s2.004 3.982 3.192 5.736a32.67 32.67 0 0 0 3.965 4.813 32.69 32.69 0 0 0 4.818 3.959 38.85 38.85 0 0 0 5.744 3.187c2.078 0.941 4.323 1.765 6.748 2.486 2.425 0.722 5.03 1.34 7.827 1.866s5.787 0.961 8.982 1.318 6.597 0.635 10.22 0.848c7.236 0.425 15.34 0.586 24.43 0.586h73.94c9.081 0 17.19-0.161 24.43-0.586a195.7 195.7 0 0 0 10.21-0.848c3.195-0.357 6.185-0.792 8.982-1.318 2.798-0.527 5.403-1.144 7.828-1.866 2.425-0.72 4.67-1.545 6.748-2.486s3.988-2 5.745-3.187a32.67 32.67 0 0 0 4.816-3.96 32.68 32.68 0 0 0 3.967-4.812c1.188-1.754 2.246-3.66 3.19-5.736s1.77-4.318 2.491-6.74c0.723-2.423 1.34-5.024 1.868-7.819a121.4 121.4 0 0 0 1.32-8.974c0.357-3.192 0.637-6.589 0.85-10.2 0.425-7.229 0.587-15.33 0.587-24.4v-56.12c0-72.58-10.38-82.94-83.03-82.94h-73.94c-72.65 0-83.03 10.36-83.03 82.94z" filter="url(#a)" opacity=".2"/>
  <path transform="matrix(.2646 0 0 .2646 0 3.404)" d="m162.5 3.568c72.65 0 83.03 10.36 83.03 82.94v58.12c0 72.58-10.38 82.94-83.03 82.94h-73.94c-72.65 0-83.03-10.36-83.03-82.94v-58.12c0-72.58 10.38-82.94 83.03-82.94z" filter="url(#b)" opacity=".1"/>
  <path transform="translate(0 -229.3)" d="m43 233.6c19.22 0 21.97 2.74 21.97 21.94v15.38c0 19.2-2.747 21.94-21.97 21.94h-19.56c-19.22 0-21.97-2.74-21.97-21.94v-15.38c0-19.2 2.747-21.94 21.97-21.94z" fill="url(#c)"/>
  <g transform="matrix(.1323 0 0 .1323 -.643 2.231)" clip-path="url(#d)" fill="#ebdbb2" opacity=".4">
    <g opacity=".6">
      <path d="M130.122 462.57c1.074.07 1.995.193 3.09.257.848.05 2.003.024 2.863.07L136 448l52-48v-16l24-24v-12l12-12v-32l-16-16h-32l-16-16h-40l-16 16v40l32.105 28.137-.105 35.863-12 12v52l6.12 6.57zM200 152l-12 12h12l4 4h4l4-4-12-12z"/>
      <path d="M37.298 53.296c-.209.298-.48.526-.684.828-2.377 3.508-4.497 7.326-6.383 11.477s-3.536 8.636-4.98 13.48c-1.445 4.845-2.68 10.048-3.735 15.637-1.054 5.589-1.926 11.562-2.64 17.945s-1.274 13.177-1.7 20.407c-.851 14.458-1.175 30.659-1.175 48.804V224l16 16h24l40 40v-48l24-24h16l24-24h24l-12-12 24-28-24-24h-36v32h-16l-16-16v-16l24-24h20V80l-24-24H84v24H64L37.298 53.296zM352 208h-48l-28 28v40l20 20h28l12 12v12l8 8v48l30.378 32.108 50.163-50.162L424 312l40-40h-16l-40-40v-16h-48z"/>
      <path d="m496 224v-42.13c0-18.14-0.323-34.35-1.175-48.8-0.426-7.23-0.985-14.02-1.7-20.41s-1.586-12.36-2.64-17.94-2.29-10.79-3.734-15.64-3.1-9.33-4.985-13.48c-1.2-2.642-2.667-4.927-4.062-7.305l-5.704 5.704h-24l-24 24-16-16h-48l-24 24v20h24v-12h16v16l-8 8-32 0.543-12 11.46h-16v16l-12 12v24h24l16-16h16v8l16 16h8v-8l-16-16h16l16 16h20l-12-12 12-12h12l12 12h-12l-12 12 11.78 11.78 0.219 12.22h-16l48 48h8l24-24-16-16h24z"/>
      <path d="M312 132v-12l12-12v24zM436 368v-25.081L452 328v40zM272 16h-89.937c-1.542 0-2.634.096-4.148.1L164 32l24 24V81.08L216 112h16V96l24-24V56l16-16V16zM136 17.109c-.837.045-1.962.018-2.788.066-7.237.425-14.04.978-20.43 1.691-6.39.714-12.37 1.585-17.965 2.637-4.997.94-9.58 2.083-13.98 3.332L96 40h40V17.11zM252 104h12l12 12h-24zM144 236h-12l-12 12h24z"/>
    </g>
  </g>
  <g transform="matrix(.2646 0 0 .2646 -6.993 -7.294)" clip-path="url(#e)">
    <circle cx="98" cy="134" r="4" fill="#ebdbb2"/>
    <circle cx="118" cy="214" r="4" fill="#ebdbb2"/>
    <circle cx="178" cy="174" r="4" fill="#ebdbb2"/>
    <circle cx="198" cy="114" r="4" fill="#ebdbb2"/>
    <path d="m32 168c67.12-48.16 148-56 240-58m-238.5-18.95c20.57 14.76 40.9 28.83 63.99 43 52.22 32.06 110.7 58.38 174.5 59.77m-93.5-22.81c19.72-42.26 31.75-77.1 26.73-126.7m-41.41 223.3c-68.61-51.34-74.12-122.9-62.3-223.3" fill="none" opacity=".5" stroke="#ebdbb2" stroke-width="2"/>
    <circle cx="98" cy="134" r="4" fill="#ebdbb2" filter="url(#f)"/>
    <circle cx="118" cy="214" r="4" fill="#ebdbb2" filter="url(#g)"/>
    <circle cx="178" cy="174" r="4" fill="#ebdbb2" filter="url(#h)"/>
    <circle cx="198" cy="114" r="4" fill="#ebdbb2" filter="url(#i)"/>
    <path d="m177.4 173.8c-43.55 54.49-132.9 55.94-143.9 49.07" fill="none" opacity=".5" stroke="#ebdbb2" stroke-width="2"/>
  </g>
  <path transform="matrix(.1323 0 0 .1323 -4.877 32.39)" d="m361.9-212c145.3 0 166.1 20.71 166.1 165.9v116.2c0 145.2-20.76 165.9-166.1 165.9h-147.9c-145.3 0-166.1-20.71-166.1-165.9v-116.2c0-145.2 20.76-165.9 166.1-165.9z" clip-path="url(#j)" fill="none" opacity=".4" stroke="url(#k)" stroke-linecap="round" stroke-linejoin="round" stroke-width="8"/>
  <path transform="matrix(1.341 0 0 1.341 -11.55 -318.3)" d="m39.48 263.8v-8.746c0-3.105-2.513-5.618-5.618-5.618s-5.619 2.513-5.619 5.618v8.747a7.294 7.294 0 0 0-1.734 4.74 7.353 7.353 0 0 0 14.7 0c0-1.81-0.647-3.467-1.734-4.74zm-4.949 4.544v2.436c0 0.362-0.296 0.67-0.67 0.67s-0.669-0.297-0.669-0.67v-2.436a1.45 1.45 0 0 1-0.779-1.284c0-0.801 0.648-1.438 1.438-1.438s1.437 0.648 1.437 1.438a1.41 1.41 0 0 1-0.757 1.284zm3.589-5.805c-1.208-0.856-2.667-1.361-4.258-1.361s-3.062 0.505-4.258 1.36v-7.495c0-2.348 1.91-4.257 4.258-4.257s4.258 1.909 4.258 4.257z" filter="url(#l)" opacity=".3"/>
  <path d="m41.4 35.45v-11.73c0-4.164-3.37-7.534-7.535-7.534-4.165 0-7.534 3.37-7.534 7.534v11.73a9.781 9.781 0 0 0-2.325 6.356 9.86 9.86 0 0 0 19.72 0c0-2.427-0.869-4.649-2.325-6.356zm-6.638 6.092v3.267c0 0.4854-0.3969 0.8985-0.8971 0.8985s-0.8985-0.3983-0.8985-0.8985v-3.267a1.944 1.944 0 0 1-1.043-1.722c0-1.074 0.8676-1.928 1.927-1.928s1.928 0.869 1.928 1.928a1.891 1.891 0 0 1-1.015 1.722zm4.814-7.784c-1.62-1.148-3.578-1.825-5.711-1.825-2.134 0-4.106 0.6772-5.71 1.824v-10.05c0-3.15 2.561-5.71 5.71-5.71s5.71 2.561 5.71 5.71z" fill="#ebdbb2" stroke-width="1.341"/>
</svg>
