<svg width="256" height="256" style="isolation:isolate" version="1.1" viewBox="0 0 256 256" xmlns="http://www.w3.org/2000/svg">
  <defs>
    <filter id="2tMLRDk0p5k1OFLMtmdXddkvZjczgiZp" x="-.042124" y="-.045133" width="1.0842" height="1.1078" color-interpolation-filters="sRGB">
      <feGaussianBlur in="SourceGraphic" stdDeviation="4.294"/>
      <feOffset dx="0" dy="4" result="pf_100_offsetBlur"/>
      <feFlood flood-opacity=".4"/>
      <feComposite in2="pf_100_offsetBlur" operator="in" result="pf_100_dropShadow"/>
      <feBlend in="SourceGraphic" in2="pf_100_dropShadow"/>
    </filter>
  </defs>
  <g filter="url(#2tMLRDk0p5k1OFLMtmdXddkvZjczgiZp)">
    <linearGradient id="_lgradient_10" x1=".516" x2=".52" y1="1.651" y2=".098" gradientTransform="matrix(244.65 0 0 228.34 5.6817 11.95)" gradientUnits="userSpaceOnUse">
      <stop stop-color="#458588" offset="0"/>
      <stop stop-color="#8ec07c" offset="1"/>
    </linearGradient>
    <path d="m165.69 11.95c74.056 0 84.639 10.557 84.639 84.544v59.251c0 73.986-10.584 84.544-84.639 84.544h-75.37c-74.056 0-84.639-10.557-84.639-84.544v-59.251c0-73.987 10.584-84.544 84.639-84.544h75.37z" fill="url(#_lgradient_10)"/>
  </g>
  <linearGradient id="_lgradient_11" x1=".553" x2=".555" y1=".622" y2=".014" gradientTransform="matrix(244.65 0 0 186.64 5.676 11.95)" gradientUnits="userSpaceOnUse">
    <stop stop-color="#fabd2f" offset="0"/>
    <stop stop-color="#ebdbb2" offset="1"/>
  </linearGradient>
  <path d="m247.75 198.59c0.41899-2.415 0.812-4.879 1.113-7.573 0.365-3.253 0.649-6.715 0.86601-10.4 0.43399-7.369 0.599-15.627 0.599-24.875v-59.252c0-9.248-0.16501-17.506-0.599-24.875-0.19719-3.4737-0.48595-6.9415-0.86601-10.4-0.364-3.254-0.808-6.298-1.345-9.147-0.53801-2.848-1.168-5.501-1.905-7.971-0.73599-2.469-1.578-4.755-2.539-6.871-0.9167-2.0375-2.0046-3.9935-3.252-5.847-1.188-1.7603-2.5418-3.4028-4.043-4.905-1.5041-1.4992-3.1483-2.8511-4.91-4.037-1.8565-1.2459-3.8152-2.3325-5.855-3.248-2.118-0.959-4.407-1.8-6.879-2.535s-5.127-1.366-7.979-1.902c-2.851-0.537-5.899-0.98-9.156-1.344-3.4625-0.37893-6.9344-0.6667-10.412-0.863-7.377-0.434-15.641-0.598-24.898-0.598h-75.372c-9.257 0-17.521 0.164-24.898 0.598-3.688 0.216-7.155 0.499-10.412 0.863s-6.305 0.807-9.156 1.344c-2.852 0.536-5.507 1.167-7.979 1.902-2.472 0.735-4.761 1.576-6.879 2.535-2.0398 0.91552-3.9985 2.0021-5.855 3.248-1.7617 1.1859-3.4059 2.5378-4.91 4.037-1.5012 1.5022-2.855 3.1447-4.043 4.905-1.2474 1.8535-2.3353 3.8095-3.252 5.847-0.961 2.116-1.803 4.402-2.539 6.871-0.737 2.47-1.367 5.123-1.905 7.971-0.537 2.849-0.981 5.893-1.345 9.147-0.38005 3.4585-0.66882 6.9263-0.866 10.4-0.434 7.369-0.599 15.627-0.599 24.875v59.252c0 9.248 0.165 17.506 0.599 24.875 0.217 3.685 0.501 7.147 0.866 10.4 0.301 2.694 0.694 5.158 1.113 7.573h26.019l9.95-49.747h169.14l9.949 49.747h24.434z" fill="url(#_lgradient_11)"/>
  <linearGradient id="_lgradient_12" x1=".5" x2=".496" y1="1" y2=".007" gradientTransform="matrix(244.65 0 0 186.64 5.676 11.95)" gradientUnits="userSpaceOnUse">
    <stop stop-color="#3c3836" offset="0"/>
    <stop stop-color="#665c54" offset="1"/>
  </linearGradient>
  <path d="m5.676 128.95v26.797c0 9.248 0.165 17.506 0.599 24.875 0.217 3.685 0.501 7.147 0.866 10.4 0.301 2.694 0.694 5.158 1.113 7.573h26.019l9.95-49.747h169.14l9.949 49.747h24.434c0.41899-2.415 0.812-4.879 1.113-7.573 0.365-3.253 0.649-6.715 0.86601-10.4 0.43399-7.369 0.599-15.627 0.599-24.875v-26.797h-244.65zm217.64-110.38c-1.659-0.679-3.319-1.356-5.181-1.91-2.472-0.735-5.127-1.366-7.979-1.902-2.851-0.537-5.899-0.98-9.156-1.344-3.4625-0.37893-6.9344-0.6667-10.412-0.863-7.377-0.434-15.641-0.598-24.898-0.598h-75.372c-9.257 0-17.521 0.164-24.898 0.598-3.688 0.216-7.155 0.499-10.412 0.863s-6.305 0.807-9.156 1.344c-2.852 0.536-5.507 1.167-7.979 1.902-1.292 0.384-2.402 0.88-3.596 1.324v46.295c0 10.989 8.91 19.899 19.899 19.899h149.24c10.989 0 19.898-8.91 19.898-19.899v-45.709z" fill="url(#_lgradient_12)"/>
  <linearGradient id="_lgradient_13" x1=".516" x2=".52" y1="1.651" y2=".098" gradientTransform="matrix(59.696 0 0 29.847 143.72 34.429)" gradientUnits="userSpaceOnUse">
    <stop stop-color="#458588" offset="0"/>
    <stop stop-color="#8ec07c" offset="1"/>
  </linearGradient>
  <path d="m203.41 59.276v-19.847c0-2.7596-2.2404-5-5-5h-49.696c-2.7596 0-5 2.2404-5 5v19.847c0 2.7596 2.2404 5 5 5h49.696c2.7596 0 5-2.2404 5-5z" fill="url(#_lgradient_13)"/>
  <path d="m28.428 231.62c0.863 0.466 1.635 1.002 2.562 1.422 2.118 0.959 4.407 1.8 6.879 2.535 2.472 0.735 5.127 1.366 7.979 1.902 2.851 0.537 5.899 0.98 9.156 1.344 3.257 0.364 6.724 0.647 10.412 0.86301 7.377 0.433 15.641 0.59799 24.898 0.59799h75.372c9.257 0 17.521-0.16499 24.898-0.59799 3.688-0.216 7.155-0.49901 10.412-0.86301 3.257-0.364 6.305-0.80699 9.156-1.344 2.852-0.536 5.507-1.167 7.979-1.902 2.472-0.735 4.761-1.576 6.879-2.535 1.8609-0.85142 3.6533-1.8454 5.361-2.973l-16.248-81.227h-169.14l-16.558 82.778z" fill="#ebdbb2"/>
  <g opacity=".6">
    <path d="m36.301 139h186.4c2.3738 0 4.3011 1.9272 4.3011 4.3011v17.065c0 2.3738-1.9272 4.3011-4.3011 4.3011h-186.4c-2.3738 0-4.3011-1.9272-4.3011-4.3011v-17.065c0-2.3738 1.9272-4.3011 4.3011-4.3011z" fill="#282828"/>
  </g>
  <g opacity=".4">
    <linearGradient id="_lgradient_14" x1=".517" x2=".517" y2="1" gradientTransform="matrix(244.65,0,0,228.34,5.68,11.95)" gradientUnits="userSpaceOnUse">
      <stop stop-color="#ebdbb2" offset="0"/>
      <stop stop-color="#ebdbb2" stop-opacity=".098" offset=".125"/>
      <stop stop-color="#282828" stop-opacity=".098" offset=".925"/>
      <stop stop-color="#282828" stop-opacity=".498" offset="1"/>
    </linearGradient>
    <path d="m165.07 11.951c4.328-0.0098 8.6559 0.0393 12.984 0.13755 3.8755 0.0786 7.7416 0.18096 11.617 0.40694 3.4525 0.1965 6.8924 0.43476 10.335 0.80811 3.0591 0.33404 6.1466 0.71309 9.1761 1.2731 2.7148 0.50106 5.3953 1.0405 8.0413 1.8166 2.4 0.69756 4.7289 1.4289 7.0011 2.4507 2.1148 0.94318 4.7244 2.3087 6.6425 3.5958 1.8394 1.2379 3.3362 2.4749 4.91 4.037 1.564 1.572 3.1626 3.6108 4.402 5.448 1.2886 1.9158 2.201 3.7768 3.1551 5.8793 1.023 2.2793 1.8118 4.7222 2.52 7.1096 0.77705 2.6429 1.3415 5.4038 1.8431 8.1155 0.56066 3.026 0.9364 6.0586 1.2708 9.1141 0.37378 3.4387 0.57584 6.87 0.77256 10.319 0.22624 3.8611 0.37378 7.7321 0.4623 11.593 0.0885 4.3229 0.13771 8.6458 0.12788 12.959v58.212c0.01 4.3229-0.0393 8.636-0.12788 12.959-0.0885 3.871-0.23606 7.7321-0.4623 11.593-0.19672 3.4485-0.40488 6.9455-0.77866 10.374-0.33443 3.0555-0.76256 6.355-1.3232 9.381-0.50165 2.7018-1.0103 5.1579-1.7874 7.8008-0.70822 2.3874-1.4683 4.771-2.4913 7.0406-0.95411 2.1123-2.0134 4.2194-3.3019 6.1352-1.2394 1.8372-2.6764 3.6548-4.2403 5.2169-1.5738 1.5621-3.6054 3.1083-5.4448 4.3462-1.9181 1.287-3.2462 2.0298-5.361 2.973-2.2722 1.0218-5.1746 2.0328-7.5746 2.7402-2.646 0.77616-5.3844 1.3564-8.0992 1.8476-3.0296 0.56984-6.2777 0.96732-9.3368 1.3014-3.4427 0.37333-6.8374 0.60877-10.29 0.80526-3.8755 0.22596-7.782 0.33219-11.658 0.4206-4.328 0.0884-8.6559 0.13755-12.984 0.12773h-74.126c-4.328 0.01-8.5907-0.0297-12.919-0.11812-3.8755-0.0884-7.8068-0.20204-11.682-0.428-3.4525-0.19649-6.8017-0.42405-10.244-0.79738-3.0591-0.33406-6.1964-0.70532-9.226-1.2752-2.7148-0.49124-5.531-1.0736-8.177-1.8497-2.4-0.70737-4.7987-1.4742-7.0708-2.496-2.1148-0.94317-4.3322-2.0835-6.2502-3.3705-1.8394-1.2379-3.5912-2.6533-5.165-4.2154-1.564-1.5621-2.9802-3.3424-4.2196-5.1797-1.2886-1.9158-2.3882-4.0902-3.3423-6.2025-1.023-2.2695-1.7798-4.6513-2.488-7.0387-0.77706-2.6429-1.3261-5.3317-1.8277-8.0335-0.56067-3.026-0.95736-6.1508-1.2918-9.2063-0.37378-3.4289-0.57-6.8512-0.76673-10.3-0.22623-3.8611-0.37378-7.7223-0.4623-11.593-0.088526-4.3229-0.13771-8.636-0.12787-12.959v-58.212c-0.009836-4.3131 0.039345-8.636 0.12787-12.959 0.088527-3.8611 0.23607-7.7321 0.4623-11.593 0.19672-3.4485 0.39501-6.8675 0.76879-10.306 0.33443-3.0555 0.71038-6.1065 1.2711-9.1326 0.50165-2.7116 1.062-5.4337 1.8391-8.0766 0.70821-2.3874 1.4515-4.7515 2.4745-7.0308 0.95412-2.1025 2.2686-4.618 3.5572-6.5339 1.2394-1.8372 2.479-3.333 4.043-4.905 1.5738-1.5621 3.0706-2.7991 4.91-4.037 1.9181-1.287 4.3323-2.5651 6.4471-3.5083 2.2722-1.0218 4.6005-1.785 7.0005-2.4825 2.646-0.77616 5.3885-1.3472 8.1033-1.8483 3.0296-0.56001 6.2246-0.96075 9.2837-1.2948 3.4427-0.37334 6.885-0.61247 10.337-0.80897 3.8755-0.22597 7.7754-0.32974 11.651-0.40833 4.3279-0.09825 8.6559-0.14737 12.984-0.13755zm0.01 4.0085c4.2984-0.0098 8.5969 0.0393 12.895 0.12772 3.8263 0.08842 7.6432 0.19079 11.47 0.40693 3.3837 0.1965 6.7547 0.42494 10.119 0.79828 2.9705 0.31439 5.9597 0.6738 8.8909 1.224 2.5771 0.47159 5.1297 0.98153 7.6478 1.7184 2.223 0.64844 4.3748 1.3208 6.4798 2.264 1.9082 0.85476 4.3212 2.1122 6.0523 3.2715 1.623 1.0906 2.9132 2.1605 4.3002 3.5458s2.8183 3.2276 3.92 4.8487c1.1607 1.7292 1.9649 3.3838 2.8207 5.28 0.94428 2.1123 1.674 4.3881 2.3232 6.5987 0.74756 2.5151 1.2726 5.1386 1.7546 7.7127 0.541 2.9278 0.89706 5.8621 1.2217 8.8292 0.37378 3.3601 0.566 6.7226 0.76273 10.102 0.2164 3.8218 0.37378 7.6338 0.45246 11.456 0.0885 4.2934 0.1377 8.577 0.1377 12.87v58.212c0 4.2934-0.0492 8.577-0.1377 12.87-0.0787 3.8218-0.23606 7.6437-0.45246 11.456-0.19673 3.3797-0.39505 6.7981-0.76883 10.168-0.3246 2.9572-0.73305 6.1486-1.274 9.0764-0.48196 2.5741-0.95131 4.8926-1.6989 7.4078-0.64918 2.2204-1.3502 4.4174-2.2945 6.5297-0.85576 1.8962-1.8068 3.8166-2.9675 5.5359-1.1017 1.6309-2.3714 3.2422-3.7583 4.6274-1.3869 1.3755-3.2119 2.7546-4.8349 3.8452-1.7312 1.1593-2.8626 1.794-4.7708 2.6488-2.105 0.95302-4.8303 1.8952-7.0533 2.5437-2.5181 0.73686-5.1287 1.2876-7.7058 1.7592-2.9312 0.55018-6.081 0.93784-9.0515 1.2621-3.364 0.36351-6.6899 0.59895-10.074 0.78561-3.8263 0.21615-7.6837 0.33219-11.51 0.41079-4.2985 0.0982-8.5969 0.13754-12.895 0.13754h-74.146c-4.2984 0-8.5317-0.0297-12.83-0.12793-3.8263-0.0786-7.7084-0.20204-11.535-0.41819-3.3837-0.18666-6.664-0.41422-10.028-0.77773-2.9706-0.32422-6.0095-0.68566-8.9407-1.2358-2.5771-0.47159-5.2655-1.0244-7.7836-1.7613-2.223-0.64842-4.4445-1.3465-6.5495-2.2995-1.9082-0.85475-3.9289-1.887-5.6601-3.0463-1.623-1.0906-3.1682-2.3389-4.5551-3.7144-1.3869-1.3853-2.636-2.9593-3.7376-4.5902-1.1607-1.7193-2.1521-3.707-3.0079-5.6032-0.94428-2.1123-1.642-4.3074-2.2912-6.5278-0.74756-2.5151-1.2572-5.0664-1.7392-7.6405-0.541-2.9278-0.91802-5.9445-1.2426-8.9017-0.37378-3.3699-0.56017-6.7137-0.75689-10.093-0.21644-3.812-0.37382-7.6338-0.45251-11.456-0.088526-4.2934-0.13771-8.577-0.13771-12.87v-58.212c0-4.2934 0.049181-8.577 0.13771-12.87 0.07869-3.8218 0.23607-7.6338 0.45247-11.456 0.19672-3.3797 0.38517-6.73 0.75895-10.09 0.3246-2.9671 0.68088-5.9199 1.2219-8.8476 0.48198-2.5741 1.003-5.1586 1.7505-7.6738 0.64919-2.2106 1.3335-4.4076 2.2778-6.5199 0.85575-1.8962 2.0621-4.2054 3.2228-5.9346 1.1017-1.6211 2.1741-2.9204 3.561-4.3057s2.4923-2.7647 4.1152-3.8553c1.7312-1.1593 4.1336-2.0198 6.0418-2.8746 2.105-0.94318 4.2562-1.6474 6.4792-2.2959 2.5181-0.73686 5.1328-1.2784 7.7099-1.75 2.9312-0.55019 6.0279-0.93128 8.9985-1.2457 3.364-0.37334 6.7374-0.60265 10.121-0.79914 3.8263-0.21614 7.677-0.31991 11.503-0.40833 4.2984-0.08842 8.5969-0.13755 12.895-0.12772h74.136z" fill="url(#_lgradient_14)" fill-rule="evenodd"/>
  </g>
</svg>
