<svg width="256" height="256" style="isolation:isolate" version="1.1" xmlns="http://www.w3.org/2000/svg" xmlns:xlink="http://www.w3.org/1999/xlink">
  <g filter="url(#a)">
    <linearGradient id="b" x1=".50002" x2=".50002" y1="-.00051239" y2="1" gradientTransform="matrix(244.65,0,0,228.34,5.676,11.947)" gradientUnits="userSpaceOnUse">
      <stop stop-color="#689d6a" offset="0"/>
      <stop stop-color="#689d6a" offset="1"/>
    </linearGradient>
    <path d="m165.68 11.947c72.707 0 84.639 12.053 84.639 84.544v59.251c0 72.561-11.932 84.543-84.639 84.543h-75.37c-72.294 0-84.639-11.982-84.639-84.543v-59.251c0-72.491 12.329-84.544 84.639-84.544z" fill="url(#b)"/>
  </g>
  <defs>
    <filter id="a" x="-.042124" y="-.045133" width="1.0842" height="1.1078" color-interpolation-filters="sRGB">
      <feGaussianBlur in="SourceGraphic" stdDeviation="4.294"/>
      <feOffset dy="4" result="pf_100_offsetBlur"/>
      <feFlood flood-opacity=".4"/>
      <feComposite in2="pf_100_offsetBlur" operator="in" result="pf_100_dropShadow"/>
      <feBlend in="SourceGraphic" in2="pf_100_dropShadow"/>
    </filter>
    <linearGradient id="f" x1="152" x2="152" y1="236" y2="76" gradientTransform="translate(-26.432,18.432)" gradientUnits="userSpaceOnUse" xlink:href="#a-3"/>
    <linearGradient id="a-3">
      <stop stop-opacity="0" offset="0"/>
      <stop offset=".515"/>
      <stop stop-opacity="0" offset="1"/>
    </linearGradient>
    <filter id="g" x="-.036" y="-.036" width="1.072" height="1.072" color-interpolation-filters="sRGB">
      <feGaussianBlur stdDeviation="1.2"/>
    </filter>
  </defs>
  <g transform="translate(2.6275 -46.034)">
    <path d="m85.414 57.982-3.3478 3.7885-3.3447 3.7865 6.1168 6.1393 6.1199 6.1373v13.01l6.9615 7.713 6.9625 7.713h8.4942v-7.7815l6.035-6.0156 6.0371-6.0156v-8.6732l4.0227-3.994 4.0237-3.992v-11.815h-24.041zm-21.473 0.40492-5.9358 0.38345c-6.0995 0.3947-14.789 1.6422-19.236 2.7619l-2.5165 0.63398 3.6229 3.6566 3.6249 3.6566h20.441v-5.5463zm-49.458 19.206c-0.77521 0.45222-4.2753 6.6452-5.894 11.601-3.6603 11.079-5.6476 21.858-5.535 51.268l-0.04278 23.43 3.7795 3.932 3.946 3.9777h12.612l10.091 10.047 10.092 10.047 0.1544-11.918 0.15645-11.915 6.1567-6.1792 6.1598-6.1792h8.0862l12.608-12.648h11.473l-2.7772-2.8181c-1.8794-1.9081-2.6279-3.0697-2.315-3.5932 0.25359-0.42537 2.6934-3.3601 5.4225-6.5218 2.7292-3.1617 5.172-6.1005 5.4276-6.5289 0.32721-0.54706-1.3109-2.5635-5.488-6.7549l-5.9553-5.9727h-18.129v16.095h-8.8787l-3.8959-3.8652-3.8959-3.8642v-8.6354l6.1721-6.1894 6.169-6.1894h10.08v-7.7406l-6.1721-6.1894-6.169-6.1884h-20.426v12.072h-10.078l-6.5923-6.6107c-3.6259-3.6351-6.1718-6.0701-6.3432-5.9702zm222.55 3.296c-0.81699 0.61761-2.4823 1.2364-6.9211 1.2364h-6.0596l-6.3449 6.3275-6.3449 6.3265-3.9961-4.0288-3.9971-4.0257h-24.768l-5.8817 5.9021-5.8816 5.9011v10.04h11.495v-6.3234h8.6241v4.4859c0 4.3223-0.0696 4.5524-1.9019 6.3295l-1.903 1.8426-8.303 0.36299-8.299 0.36198-2.9838 2.7936-2.9838 2.7946h-8.1169v7.7989l-3.1617 3.1208-3.1607 3.1238v11.824h12.387l3.994-4.0247 3.992-4.0247h8.3664v5.0053l7.8122 7.7202 4.0247-0.19734 4e-3 -3.6679c-2.6453-2.7619-7.8265-8.8603-7.8265-8.8603h8.3766l3.993 4.0247 3.994 4.0247h9.1845l-2.8324-2.8764-2.8314-2.8733 3.1218-3.1617c3.0318-3.0697 3.2128-3.1597 6.2845-3.1597 3.0421 0 3.2803 0.11453 6.1997 2.9981 1.6698 1.6483 3.0359 3.2005 3.0359 3.449 0 0.24746-5.7579 0.0656-5.7579 0.0656s-0.46425 0.52866-3.1535 3.2588l-2.6944 2.8887 2.86 3.0237c2.9102 2.9459 2.996 3.129 2.996 6.3203v3.2875h-3.449c-1.8978 0-3.6433-0.0102-3.6433-0.0102s5.2998 5.9737 11.541 12.22h2e-3c3.9298 3.9222 7.9057 7.7979 11.927 11.626l3.7384-0.0879s3.3355-3.2333 6.1721-6.0596l5.9011-5.8796-4.1515-4.1801-4.1525-4.1802h12.132l-8e-5 -19.356c0.0149-37.159-2.9289-50.566-7.8371-60.949-1.0726-2.27-1.7326-3.2423-1.7326-3.2423s-0.67761 0.37307-1.0887 0.68392zm-113.31 21.931v5.7487h11.742l-2.8294-2.8744c-2.6893-2.7302-2.9858-2.8734-5.8725-2.8734zm36.217 2.631-2.8764 2.8294c-2.6545 2.6146-2.8733 3.0421-2.8733 5.5841v2.7527h5.7497v-5.5841zm-63.234 21.815-3.0114 3.0093-3.0104 3.0114h3.2271c2.1678 0 3.4644 0.28425 3.945 0.86301 0.93255 1.1238 3.1085 1.1044 4.0544-0.0359 0.63703-0.76895 0.31493-1.3303-2.2291-3.8754zm53.763 28.441-7.3378 7.3193-7.3357 7.3214v20.159l5.0411 5.0197 5.0411 5.0166h14.316l3.3212 3.2875c3.1494 3.1157 3.3233 3.4357 3.3233 6.1107 0 2.4183 0.28632 3.1412 2.0113 5.0493l2.0103 2.226v24.496l7.3296 7.8286c4.0319 4.3059 7.5903 7.848 7.9094 7.8705 0.31903 0.0225 6.2457-5.627 13.169-12.557l12.587-12.598-0.34357-11.688-0.34562-11.685 10.15-10.207 10.15-10.205h-8.0188l-20.395-20.42v-8.3235h-24.493l-1.95-2.0113-1.951-2.0113h-12.095zm-85.258 14.37c-2.542 0-2.9674 0.22086-5.582 2.8754l-2.8324 2.8734h11.166v-5.7487zm-9.0607 18.396-4.1515 4.1822-4.1546 4.1802v20.125l8.3 7.1701 8.3 7.168 0.03579 9.2192 0.03373 9.2162-3.1607 3.1218-3.1617 3.1239v26.418l1.5461 1.6115c0.84871 0.88654 2.1422 1.6136 2.8733 1.6136 1.2465 0 1.3313-0.22497 1.3446-3.5932l0.01331-3.5922 13.184-12.073 13.185-12.071 0.02454-4.0339 0.02148-4.0339 6.3234-6.303 6.3224-6.3029v-3.1924c0-3.1055 0.0839-3.2732 3.1617-6.3122l3.1617-3.1238v-16.051l-4.2077-4.2108-4.2098-4.2077h-16.619l-7.9871-8.0484h-10.089zm169.32 29.247-3.7354 3.3406-3.7364 3.3396v12.935h7.4717v-9.8082z" fill="#fabd2f" stroke-width="1.0225" paint-order="markers fill stroke"/>
    <path d="m197.57 102.43-59.043 34.184a40 40 0 0 0-41.242 9.53 40 40 0 0 0-9.516 41.216l-34.199 59.07 59.043-34.184a40 40 0 0 0 41.242-9.53 40 40 0 0 0 9.516-41.216z" fill="url(#f)" filter="url(#filter1108)" opacity=".1"/>
    <path d="m197.57 102.43-59.043 34.184a40 40 0 0 0-41.242 9.53 40 40 0 0 0-9.516 41.216l-34.199 59.07 59.043-34.184a40 40 0 0 0 41.242-9.53 40 40 0 0 0 9.516-41.216z" fill="url(#f)" filter="url(#filter1086)" opacity=".4"/>
    <path d="m106.37 153.23 91.2-52.8-52.8 91.2z" fill="#fb4934"/>
    <path d="m197.57 100.43-91.2 52.8-52.8 91.2 1.742-1.008 51.059-88.191 89.457-51.793z" fill="#ebdbb2" opacity=".5"/>
    <path d="m106.37 153.23-52.8 91.2 91.2-52.8z" fill="#ebdbb2"/>
    <path d="m197.57 100.43-91.2 52.8-52.8 91.2 3.36-1.945 69.347-69.348 69.348-69.348z" fill="#ebdbb2" opacity=".2"/>
    <circle transform="rotate(45,-34.258,-23.19)" cx="217.79" cy="2.828" r="40" filter="url(#g)" opacity=".2"/>
    <circle transform="rotate(45)" cx="210.72" cy="33.138" r="40" fill="#ebdbb2"/>
    <path d="m126.15 132.44a40 40 0 0 0-28.87 11.71 40 40 0 0 0-11.663 28.991 40 40 0 0 1 11.664-26.99 40 40 0 0 1 56.57 0 40 40 0 0 1 11.664 27.58 40 40 0 0 0-11.664-29.58 40 40 0 0 0-27.701-11.711z" fill="#ebdbb2"/>
  </g>
  <g transform="translate(-.01172 -.0026752)" opacity=".4">
    <linearGradient id="c" x1=".517" x2=".517" y2="1" gradientTransform="matrix(244.65,0,0,228.34,5.68,11.95)" gradientUnits="userSpaceOnUse">
      <stop stop-color="#d5c4a1" offset="0"/>
      <stop stop-color="#ebdbb2" stop-opacity=".098" offset=".125"/>
      <stop stop-color="#282828" stop-opacity=".098039" offset=".925"/>
      <stop stop-color="#282828" stop-opacity=".49804" offset="1"/>
    </linearGradient>
    <path d="m165.07 11.951c4.328-0.01 8.656 0.04 12.984 0.138 3.875 0.078 7.7436 0.25854 11.62 0.48454 3.453 0.196 6.8876 0.5327 10.33 0.9057 3.06 0.335 6.0892 0.83409 9.1192 1.3941 2.7131 0.50032 5.3525 1.181 7.9999 1.9571 2.3983 0.69679 4.7544 1.61 7.0323 2.6338 2.1121 0.94124 4.0427 2.0439 5.9631 3.3319 1.8405 1.2399 3.5996 2.7014 5.1741 4.2652 1.5652 1.5692 2.886 3.1628 4.1277 4.9987 1.2864 1.9174 2.4086 3.8707 3.3603 5.9744 1.0207 2.2746 1.9193 4.5772 2.628 6.9675 0.77696 2.6443 1.4779 5.3272 1.9787 8.0374 0.56201 3.0246 1.0626 6.0601 1.3989 9.1181 0.374 3.439 0.70873 6.8493 0.90573 10.297 0.226 3.861 0.42171 7.7394 0.51071 11.6 0.088 4.323 0.138 8.646 0.128 12.96v58.21c0.01 4.324-0.04 8.637-0.128 12.96-0.085 3.8668-0.28821 7.7331-0.51114 11.595-0.19655 3.4488-0.53822 6.9467-0.91224 10.38-0.33634 3.0613-0.82936 6.0316-1.3914 9.0596-0.50199 2.7066-1.1867 5.3458-1.9626 7.987-0.7071 2.3908-1.5665 4.6263-2.5888 6.9002-0.94995 2.1048-2.1624 4.2292-3.4512 6.1454-1.2392 1.8377-2.5377 3.3902-4.1052 4.9572-1.5746 1.5638-3.412 3.0712-5.2525 4.3111-1.9201 1.2879-3.8611 2.3701-5.9729 3.3114-2.3498 1.0736-4.5744 1.8717-6.9323 2.584-2.6776 0.81656-5.2934 1.4166-7.976 1.948-3.0309 0.56603-6.051 1.0612-9.1165 1.3921-3.5041 0.40869-6.8203 0.68433-10.336 0.90377-3.875 0.226-7.789 0.40013-11.665 0.48813-4.328 0.088-8.6314 0.15082-12.959 0.14082h-74.126c-4.328 0.01-8.6566-0.0545-12.985-0.14247-3.9049-0.0955-7.7449-0.24667-11.628-0.49085-3.4941-0.21923-7.0445-0.5149-10.452-0.92805-3.1873-0.37665-5.9337-0.7937-8.9951-1.3902-2.833-0.56139-5.3421-1.1637-7.9464-1.9566-2.4295-0.73175-4.8105-1.6266-7.0523-2.6548-2.139-0.97893-4.0617-2.0635-5.9983-3.3731-1.8405-1.2399-3.5141-2.6495-5.0886-4.2133-1.5676-1.5671-2.9061-3.1787-4.1454-5.0164-1.2884-1.9162-2.4021-3.8332-3.3518-5.9379-1.0223-2.2739-1.9238-4.5236-2.6309-6.9144-0.77585-2.6412-1.4977-5.3053-1.9996-8.0119-0.56202-3.028-1.0938-6.1087-1.4301-9.17-0.37402-3.4341-0.72617-6.8459-0.92272-10.295-0.22292-3.8613-0.42179-7.7427-0.50684-11.61-0.09185-4.3194-0.13452-8.6396-0.128-12.96v-58.21c-0.01-4.314 0.04-8.637 0.128-12.96 0.089-3.86 0.28015-7.7353 0.50615-11.596 0.197-3.448 0.54883-6.857 0.92283-10.296 0.335-3.055 0.87336-6.1638 1.4344-9.1898 0.50085-2.7102 1.1807-5.2262 1.9577-7.8705 0.70872-2.3902 1.7549-4.9868 2.7756-7.2614 0.95209-2.1037 1.9632-3.7998 3.2499-5.7172 1.2418-1.8358 2.594-3.4604 4.1593-5.0296 1.5745-1.5638 3.3273-3.0214 5.1678-4.2614 1.9201-1.2879 3.8238-2.3848 5.9356-3.3261 2.278-1.0238 4.5428-1.9236 6.9411-2.6204 2.6474-0.77617 5.2743-1.4761 7.9874-1.9764 3.0317-0.56124 6.1381-1.085 9.203-1.4208 3.443-0.373 6.8398-0.71288 10.293-0.90888 3.875-0.226 7.7331-0.41514 11.609-0.49314 4.328-0.098 8.6625-0.14613 12.991-0.13613zm0.01 4.009c4.298-0.01 8.597 0.039 12.895 0.127 3.827 0.089 7.6466 0.26854 11.474 0.48454 3.383 0.197 6.7724 0.43946 10.136 0.81246 2.971 0.315 5.9391 0.74869 8.8701 1.2987 2.5807 0.47339 5.1059 1.0723 7.6238 1.8101 2.2193 0.6492 4.4135 1.4563 6.5231 2.4032 1.9054 0.85272 3.7179 1.8543 5.4527 3.0153 1.6245 1.0927 3.1568 2.3505 4.5413 3.7347 1.3858 1.385 2.6374 2.8981 3.738 4.519 1.1601 1.7266 2.1737 3.5473 3.03 5.443 0.94487 2.1083 1.7467 4.2779 2.4 6.494 0.74152 2.5113 1.352 5.0594 1.829 7.634 0.54 2.928 0.974 5.875 1.298 8.842 0.374 3.36 0.65 6.73 0.846 10.11 0.217 3.822 0.374 7.634 0.453 11.456 0.088 4.293 0.137 8.577 0.137 12.87v58.212c0 4.293-0.049 8.577-0.137 12.87-0.082 3.8211-0.0546 7.643-0.27458 11.459-0.196 3.38-0.65042 6.7474-1.0244 10.117-0.3245 2.9589-0.75746 5.9049-1.298 8.832-0.47731 2.5747-1.0881 5.1228-1.83 7.634-0.65169 2.2166-1.4536 4.3863-2.4 6.494-0.8542 1.8968-1.8678 3.7176-3.03 5.443-1.0976 1.6263-2.349 3.1432-3.737 4.53-1.3876 1.3779-2.9027 2.6211-4.525 3.713-1.7345 1.161-3.564 2.1732-5.469 3.026-2.1078 0.95119-4.2802 1.7522-6.501 2.397-2.5179 0.7378-5.0723 1.3446-7.653 1.818-2.931 0.55-5.8828 0.98162-8.8538 1.3056-3.364 0.364-6.7562 0.64938-10.139 0.83638-3.827 0.216-7.6776 0.36018-11.505 0.43918-4.298 0.098-8.5724 0.14982-12.87 0.14982h-74.146c-4.298 0-8.5976-0.0545-12.896-0.15147-3.8291-0.082-7.6582-0.26152-11.482-0.48085-3.3834-0.19001-6.7587-0.42545-10.127-0.79268-2.97-0.32174-5.9265-0.7574-8.863-1.306-2.5807-0.47339-5.1351-1.0802-7.653-1.818-2.2208-0.64482-4.3673-1.4321-6.4751-2.3833-1.9053-0.85272-3.7547-1.8723-5.4895-3.0333-1.622-1.0922-3.1431-2.3423-4.5303-3.7205-1.3882-1.3864-2.64-2.903-3.738-4.529-1.1622-1.7254-2.1758-3.5462-3.03-5.443-0.94645-2.1077-1.7483-4.2774-2.4-6.494-0.74152-2.5113-1.352-5.0594-1.829-7.634-0.54054-2.9271-0.9735-5.8731-1.298-8.832-0.374-3.37-0.65-6.74-0.846-10.12-0.21993-3.8156-0.37096-7.6349-0.453-11.456-0.08992-4.2894-0.13559-8.5796-0.137-12.87v-58.212c0-4.293 0.049-8.577 0.137-12.87 0.079-3.822 0.236-7.634 0.453-11.456 0.197-3.38 0.472-6.75 0.846-10.11 0.324-2.967 0.757-5.914 1.298-8.842 0.47732-2.5747 1.0915-5.1375 1.8334-7.6487 0.65331-2.2161 1.4517-4.371 2.3966-6.4793 0.85634-1.8957 1.8699-3.7164 3.03-5.443 1.1003-1.6212 2.3515-3.1346 3.737-4.52 1.3849-1.3839 2.9002-2.6307 4.525-3.723 1.7345-1.161 3.564-2.1732 5.469-3.026 2.1096-0.94691 4.2817-1.7478 6.501-2.397 2.5179-0.7378 5.0723-1.3446 7.653-1.818 2.931-0.55 5.892-0.982 8.863-1.297 3.364-0.373 6.7432-0.64645 10.126-0.84345 3.8239-0.21443 7.6549-0.36667 11.484-0.45355 4.298-0.088 8.597-0.137 12.895-0.127z" fill="url(#c)" fill-rule="evenodd"/>
  </g>
</svg>
