<svg width="256" height="256" style="isolation:isolate" version="1.1" xmlns="http://www.w3.org/2000/svg">
  <g transform="translate(.007136 -.1198)" filter="url(#a)">
    <linearGradient id="b" x1=".5002" x2=".5002" y2="1" gradientTransform="matrix(244,0,0,228,5.981,12.12)" gradientUnits="userSpaceOnUse">
      <stop stop-color="#ebdbb2" offset="0"/>
      <stop stop-color="#ebdbb2" offset="1"/>
    </linearGradient>
    <path d="m165 12.12c72 0 85 15 85 87v56c0 70-13 85-85 85h-74c-72 0-85-15-85-85v-56c0-72 13-87 85-87z" fill="url(#b)"/>
  </g>
  <defs>
    <linearGradient id="linearGradient31" x1=".5002" x2=".5002" y2="1" gradientTransform="matrix(244,0,0,228,5.988,12.12)" gradientUnits="userSpaceOnUse">
      <stop stop-color="#d5c4a1" offset="0"/>
      <stop stop-color="#d5c4a1" stop-opacity=".09804" offset=".1"/>
      <stop stop-color="#282828" stop-opacity=".1" offset=".9"/>
      <stop stop-color="#282828" stop-opacity=".4" offset="1"/>
    </linearGradient>
  </defs>
  <g transform="translate(.007189 -.1198)" opacity=".5">
    <path d="m91 12.12c-72 0-85 15-85 87v56c0 70 13 85 85 85h74c72 0 85-15 85-85v-56c0-72-13-87-85-87zm0 4h74c68 0 80 15 80 83v56c0 66-12 81-80 81h-74c-68 0-80-15-80-81v-56c0-68 12-83 80-83z" fill="url(#linearGradient31)" opacity="1"/>
  </g>
  <path d="m128 45a79.51 79.51 0 0 0-79.51 79.51 79.51 79.51 0 0 0 79.51 79.51h79.51v-19.88h-79.51a59.63 59.63 0 0 1-59.63-59.63 59.63 59.63 0 0 1 59.63-59.63 59.63 59.63 0 0 1 59.63 59.63 59.63 59.63 0 0 1-32.35 53h31.87a79.51 79.51 0 0 0 20.36-53 79.51 79.51 0 0 0-79.51-79.51z" fill="#689d6a" fill-rule="evenodd" stroke-linejoin="round" stroke-width="3.536"/>
  <path d="m81.68 72.62c-3.073-0.0074-5.567 2.485-5.559 5.559v92.65c0 3.113 2.52 5.559 5.559 5.559h44.05c-2.44-1.053-3.762-5.101-2.794-7.412h-20.87c-2.048 5e-3 -3.71-1.657-3.706-3.706v-33.35c0-2.075 1.631-3.706 3.706-3.706h34.61c1.419-3.149 3.025-4.623 5.805-6.065 1.679-0.6367 3.909-1.346 3.909-1.346h-44.33c-2.048 5e-3 -3.71-1.657-3.706-3.706v-33.35c0-2.075 1.631-3.706 3.706-3.706h51.88c2.075 0 3.706 1.631 3.706 3.706v32.72c0 0.4447-0.0666 0.8165-0.2172 1.187l17.04-4.676c1.482-0.4447 3.118-0.5136 4.748-0.2172 0.2246 0.0371 0.4454 0.0852 0.6656 0.1445v-34.71c8e-3 -3.073-2.485-5.567-5.559-5.559zm1.853 3.706h7.412v7.412h-7.412zm81.53 0h7.412v7.412h-7.412zm-81.53 14.82h7.412v7.412h-7.412zm81.53 0h7.412v7.412h-7.412zm-81.53 14.82h7.412v7.412h-7.412zm81.53 0h7.412v7.412h-7.412zm12.06 11.12c-0.2238 0.0148-0.4499 0.0518-0.6656 0.1156l-30.31 8.295c-1.853 0.5188-3.344 2.6-3.344 4.676v31.57c-2.072-0.3276-4.31-0.2312-6.442 0.2898-5.937 1.468-9.518 5.752-8.005 9.569 1.502 3.822 7.541 5.747 13.49 4.299 5.095-1.248 8.581-4.617 8.367-8.078v-29.72l22.24-6.08v22.31c-2.072-0.3276-4.31-0.2312-6.442 0.2898-5.937 1.468-9.518 5.752-8.005 9.569 1.502 3.822 7.541 5.747 13.49 4.299 4.929-1.21 8.37-4.421 8.367-7.788v-40.69c0-1.556-0.8101-2.658-2.07-2.881-0.2223-0.0371-0.4417-0.0593-0.6663-0.0444zm-93.59 3.706h7.412v7.412h-7.412zm0 14.82h7.412v7.412h-7.412zm0 14.82h7.412v7.412h-7.412zm0 14.82h7.412v7.412h-7.412z" fill="#3c3836" stroke-width="7.412"/>
</svg>
