<svg width="256" height="256" style="isolation:isolate" version="1.1" xmlns="http://www.w3.org/2000/svg">
  <g filter="url(#a)">
    <linearGradient id="b" x1=".50002" x2=".50002" y1="-.00051239" y2="1" gradientTransform="matrix(244.65,0,0,228.34,5.676,11.947)" gradientUnits="userSpaceOnUse">
      <stop stop-color="#ebdbb2" offset="0"/>
      <stop stop-color="#ebdbb2" offset="1"/>
    </linearGradient>
    <path d="m165.68 11.947c72.707 0 84.639 12.053 84.639 84.544v59.251c0 72.561-11.932 84.543-84.639 84.543h-75.37c-72.294 0-84.639-11.982-84.639-84.543v-59.251c0-72.491 12.329-84.544 84.639-84.544z" fill="url(#b)"/>
  </g>
  <g transform="translate(-.46 -5.804)" style="isolation:isolate">
    <path d="m100.35 122c5.45 0.7 10.94 1.05 16.43 1.06 4.51 0.01 9.02-0.26 13.49-0.82 3.97-0.49 7.91-1.26 11.78-2.3 3.42-0.91 6.77-2.08 10.01-3.51 2.85-1.25 5.59-2.75 8.18-4.47 2.27-1.5 4.38-3.23 6.31-5.15 1.69-1.67 3.17-3.53 4.43-5.54 1.11-1.77 1.98-3.67 2.59-5.67 0.55-1.82 0.84-3.72 0.84-5.62 0-1.82-0.27-3.63-0.8-5.37-0.58-1.89-1.42-3.69-2.49-5.34-1.26-1.92-2.75-3.68-4.43-5.24-2.02-1.86-4.23-3.51-6.6-4.92-2.84-1.69-5.82-3.14-8.92-4.32-3.69-1.42-7.48-2.57-11.33-3.44-4.56-1.04-9.17-1.81-13.82-2.3-5.43-0.58-10.89-0.88-16.35-0.91l-0.13922-10.396c5.79 0.03 11.779 0.7765 17.539 1.3865 5.04 0.53 10.04 1.37 14.98 2.49 4.32 0.98 8.56 2.27 12.69 3.86 3.63 1.38 7.12 3.08 10.46 5.07 2.95 1.76 5.72 3.82 8.25 6.16 2.29 2.11 4.31 4.5 6.02 7.11 1.59 2.44 2.83 5.09 3.68 7.88 0.82 2.69 1.23 5.48 1.23 8.29 0 2.89-0.43 5.76-1.27 8.52-0.87 2.83-2.11 5.54-3.68 8.05-1.66 2.66-3.62 5.11-5.84 7.32-2.4 2.38-5.02 4.52-7.83 6.39-3.07 2.04-6.31 3.81-9.69 5.29-3.7 1.63-7.53 2.97-11.44 4.02-4.32 1.15-8.7 2.01-13.13 2.56-2.61 0.32-5.23 0.56-7.86 0.71 3.39 2.51 6.51 5.37 9.3 8.53 1.79 2.03 3.47 4.17 5.02 6.39 1.51 2.17 2.93 4.4 4.26 6.69 1.31 2.26 2.56 4.54 3.75 6.86 1.19 2.29 2.35 4.6 3.5 6.91 1.88 3.84 3.84 7.63 5.88 11.38 2.05 3.73 4.33 7.34 6.82 10.79 2.6 3.57 5.52 6.88 8.74 9.9 3.6 3.34 7.55 6.28 11.78 8.78l-5.06 8.59c-4.86-2.86-9.39-6.24-13.52-10.08-3.69-3.45-7.04-7.25-10.01-11.34-2.75-3.79-5.25-7.76-7.5-11.86-2.11-3.87-4.13-7.79-6.08-11.75-1.11-2.26-2.25-4.51-3.41-6.75-1.12-2.17-2.29-4.31-3.51-6.42-1.19-2.05-2.47-4.05-3.82-6-1.33-1.91-2.78-3.74-4.32-5.49-3.21-3.63-6.92-6.78-11.03-9.35-2.31-1.44-4.74-2.7-7.24-3.78-2.86-1.23-5.8-2.26-8.8-3.1-1.21-0.33-2.26-1.12-2.92-2.19s-0.89-2.36-0.64-3.59c0.25-1.24 0.96-2.33 1.98-3.07s2.29-1.06 3.54-0.9z" fill="#282828" style="isolation:isolate"/>
    <path d="m82.883 187.76c-3.859-0.273-7.043-0.527-7.074-0.564-0.032-0.036 2.532-31.023 5.697-68.859l5.754-68.792 1.452 0.065c4.268 0.192 19.258 1.184 19.355 1.28 0.112 0.112-8.046 64.311-9.009 70.903-0.278 1.899-2.25 17.258-4.383 34.13-2.133 16.873-3.944 31.066-4.024 31.541-0.081 0.475 0.05269 1.837-0.11331 1.818-0.166-0.02-3.7957-1.247-7.6547-1.52z" fill="url(#_lgradient_13)" style="isolation:isolate"/>
    <path d="m79.776 211.31c-0.62301-1.102-1.7417-4.309-1.5612-4.478 0.19847-0.188 6.2863 0.451 6.2832 0.659-0.0053 0.372-1.782 3.345-2.5324 4.239-1.1222 1.4296-1.6499 1.4668-2.1896-0.42z" fill="#3c3836" stroke="#282828" stroke-width="2.8681" vector-effect="non-scaling-stroke" style="isolation:isolate"/>
    <path d="m80.052 207.84-3.1072-0.30104-0.1891-0.78397c-0.47274-1.9471-1.9446-16.493-1.6949-16.744 0.23345-0.23315 15.846 1.0991 15.816 1.3489-0.08405 0.71608-2.7886 10.281-3.7796 13.367l-1.1229 3.4971-1.4077-0.041c-0.77389-0.0218-2.8049-0.17679-4.5149-0.34203z" fill="#fabd2f" stroke-width="1.2228" style="isolation:isolate"/>
    <path d="m75.71 188.81-1.59-0.13 0.1-1.6 1.62 0.11 14.65 0.97 17.63-137.31-20.79-1.3-11.49 137.64m-1.72 1.49-1.59-0.14 11.88-142.37 27.3 1.71-18.595 143.66-19.105-1.2779z" fill="#282828"/>
    <path d="m90.538 189.28c1.3904 0.92454 2.3933 0.51864 2.5773 2.2579-0.24308 0.77-0.51106 1.6521-0.74402 2.4221-0.60771 2.04-1.2357 4.07-1.894 6.1-0.74951 2.33-1.58 4.63-2.5017 6.9-0.43552 1.07-0.91156 2.13-1.418 3.16-0.45578 0.92-0.96221 1.81-1.5294 2.66-0.48617 0.75-1.0837 1.43-1.7624 2.01-0.34437 0.29-0.71912 0.52-1.1243 0.7-0.43553 0.2-0.91156 0.3-1.3876 0.3-0.68874 0-1.3572-0.22-1.9143-0.61-0.53681-0.39-1.0027-0.87-1.3572-1.43-0.4254-0.64-0.7799-1.33-1.0635-2.04-0.36462-0.9-0.66848-1.83-0.92169-2.77-0.32411-1.2-0.60771-2.4-0.84066-3.62-0.30386-1.53-0.55707-3.06-0.76976-4.59-0.57733-4.13-1.0488-8.0511-1.3425-12.201l3.2568-0.4489c0.29373 4.08 0.71912 8.16 1.2762 12.21 0.2127 1.48 0.45578 2.96 0.74951 4.43 0.2127 1.14 0.47604 2.28 0.79002 3.4 0.22283 0.82 0.48617 1.63 0.81028 2.42 0.20257 0.52 0.46591 1.02 0.76976 1.49 0.1418 0.22 0.31398 0.4 0.52668 0.56 0.01013 0 0.02026 0.01 0.04051 0.01 0.02026 0 0.04051 0 0.05064-0.01 0.13167-0.06 0.24308-0.13 0.34437-0.21 0.44565-0.39 0.84066-0.84 1.1546-1.34 0.4963-0.74 0.94195-1.51 1.337-2.31 0.47604-0.97 0.92169-1.95 1.3268-2.95 0.89131-2.2 1.7016-4.43 2.4308-6.69 0.64822-2 1.2661-4.01 1.8636-6.03 0.24308-0.78 0.47604-1.57 0.72925-2.36 0.08103-0.25 0.16206-0.51 0.25321-0.76 0.0709-0.23 0.17218-0.45 0.2836-0.66z" fill="#282828" stroke-width="1.0064"/>
  </g>
  <defs>
    <filter id="a" x="-.042124" y="-.045133" width="1.0842" height="1.1078" color-interpolation-filters="sRGB">
      <feGaussianBlur in="SourceGraphic" stdDeviation="4.294"/>
      <feOffset dy="4" result="pf_100_offsetBlur"/>
      <feFlood flood-opacity=".4"/>
      <feComposite in2="pf_100_offsetBlur" operator="in" result="pf_100_dropShadow"/>
      <feBlend in="SourceGraphic" in2="pf_100_dropShadow"/>
    </filter>
    <linearGradient id="_lgradient_13" x2="0" y2="1" gradientTransform="matrix(32.26 0 0 138.75 75.808 49.543)" gradientUnits="userSpaceOnUse">
      <stop stop-color="#fb4934" offset="0"/>
      <stop stop-color="#cc241d" offset="1"/>
    </linearGradient>
  </defs>
  <g opacity=".4">
    <linearGradient id="c" x1=".517" x2=".517" y2="1" gradientTransform="matrix(244.65,0,0,228.34,5.68,11.95)" gradientUnits="userSpaceOnUse">
      <stop stop-color="#d5c4a1" offset="0"/>
      <stop stop-color="#ebdbb2" stop-opacity=".098" offset=".125"/>
      <stop stop-color="#282828" stop-opacity=".098039" offset=".925"/>
      <stop stop-color="#282828" stop-opacity=".49804" offset="1"/>
    </linearGradient>
    <path d="m165.07 11.951c4.328-0.01 8.656 0.04 12.984 0.138 3.875 0.078 7.7436 0.25854 11.62 0.48454 3.453 0.196 6.8876 0.5327 10.33 0.9057 3.06 0.335 6.0892 0.83409 9.1192 1.3941 2.7131 0.50032 5.3525 1.181 7.9999 1.9571 2.3983 0.69679 4.7544 1.61 7.0323 2.6338 2.1121 0.94124 4.0427 2.0439 5.9631 3.3319 1.8405 1.2399 3.5996 2.7014 5.1741 4.2652 1.5652 1.5692 2.886 3.1628 4.1277 4.9987 1.2864 1.9174 2.4086 3.8707 3.3603 5.9744 1.0207 2.2746 1.9193 4.5772 2.628 6.9675 0.77696 2.6443 1.4779 5.3272 1.9787 8.0374 0.56201 3.0246 1.0626 6.0601 1.3989 9.1181 0.374 3.439 0.70873 6.8493 0.90573 10.297 0.226 3.861 0.42171 7.7394 0.51071 11.6 0.088 4.323 0.138 8.646 0.128 12.96v58.21c0.01 4.324-0.04 8.637-0.128 12.96-0.085 3.8668-0.28821 7.7331-0.51114 11.595-0.19655 3.4488-0.53822 6.9467-0.91224 10.38-0.33634 3.0613-0.82936 6.0316-1.3914 9.0596-0.50199 2.7066-1.1867 5.3458-1.9626 7.987-0.7071 2.3908-1.5665 4.6263-2.5888 6.9002-0.94995 2.1048-2.1624 4.2292-3.4512 6.1454-1.2392 1.8377-2.5377 3.3902-4.1052 4.9572-1.5746 1.5638-3.412 3.0712-5.2525 4.3111-1.9201 1.2879-3.8611 2.3701-5.9729 3.3114-2.3498 1.0736-4.5744 1.8717-6.9323 2.584-2.6776 0.81656-5.2934 1.4166-7.976 1.948-3.0309 0.56603-6.051 1.0612-9.1165 1.3921-3.5041 0.40869-6.8203 0.68433-10.336 0.90377-3.875 0.226-7.789 0.40013-11.665 0.48813-4.328 0.088-8.6314 0.15082-12.959 0.14082h-74.126c-4.328 0.01-8.6566-0.0545-12.985-0.14247-3.9049-0.0955-7.7449-0.24667-11.628-0.49085-3.4941-0.21923-7.0445-0.5149-10.452-0.92805-3.1873-0.37665-5.9337-0.7937-8.9951-1.3902-2.833-0.56139-5.3421-1.1637-7.9464-1.9566-2.4295-0.73175-4.8105-1.6266-7.0523-2.6548-2.139-0.97893-4.0617-2.0635-5.9983-3.3731-1.8405-1.2399-3.5141-2.6495-5.0886-4.2133-1.5676-1.5671-2.9061-3.1787-4.1454-5.0164-1.2884-1.9162-2.4021-3.8332-3.3518-5.9379-1.0223-2.2739-1.9238-4.5236-2.6309-6.9144-0.77585-2.6412-1.4977-5.3053-1.9996-8.0119-0.56202-3.028-1.0938-6.1087-1.4301-9.17-0.37402-3.4341-0.72617-6.8459-0.92272-10.295-0.22292-3.8613-0.42179-7.7427-0.50684-11.61-0.09185-4.3194-0.13452-8.6396-0.128-12.96v-58.21c-0.01-4.314 0.04-8.637 0.128-12.96 0.089-3.86 0.28015-7.7353 0.50615-11.596 0.197-3.448 0.54883-6.857 0.92283-10.296 0.335-3.055 0.87336-6.1638 1.4344-9.1898 0.50085-2.7102 1.1807-5.2262 1.9577-7.8705 0.70872-2.3902 1.7549-4.9868 2.7756-7.2614 0.95209-2.1037 1.9632-3.7998 3.2499-5.7172 1.2418-1.8358 2.594-3.4604 4.1593-5.0296 1.5745-1.5638 3.3273-3.0214 5.1678-4.2614 1.9201-1.2879 3.8238-2.3848 5.9356-3.3261 2.278-1.0238 4.5428-1.9236 6.9411-2.6204 2.6474-0.77617 5.2743-1.4761 7.9874-1.9764 3.0317-0.56124 6.1381-1.085 9.203-1.4208 3.443-0.373 6.8398-0.71288 10.293-0.90888 3.875-0.226 7.7331-0.41514 11.609-0.49314 4.328-0.098 8.6625-0.14613 12.991-0.13613zm0.01 4.009c4.298-0.01 8.597 0.039 12.895 0.127 3.827 0.089 7.6466 0.26854 11.474 0.48454 3.383 0.197 6.7724 0.43946 10.136 0.81246 2.971 0.315 5.9391 0.74869 8.8701 1.2987 2.5807 0.47339 5.1059 1.0723 7.6238 1.8101 2.2193 0.6492 4.4135 1.4563 6.5231 2.4032 1.9054 0.85272 3.7179 1.8543 5.4527 3.0153 1.6245 1.0927 3.1568 2.3505 4.5413 3.7347 1.3858 1.385 2.6374 2.8981 3.738 4.519 1.1601 1.7266 2.1737 3.5473 3.03 5.443 0.94487 2.1083 1.7467 4.2779 2.4 6.494 0.74152 2.5113 1.352 5.0594 1.829 7.634 0.54 2.928 0.974 5.875 1.298 8.842 0.374 3.36 0.65 6.73 0.846 10.11 0.217 3.822 0.374 7.634 0.453 11.456 0.088 4.293 0.137 8.577 0.137 12.87v58.212c0 4.293-0.049 8.577-0.137 12.87-0.082 3.8211-0.0546 7.643-0.27458 11.459-0.196 3.38-0.65042 6.7474-1.0244 10.117-0.3245 2.9589-0.75746 5.9049-1.298 8.832-0.47731 2.5747-1.0881 5.1228-1.83 7.634-0.65169 2.2166-1.4536 4.3863-2.4 6.494-0.8542 1.8968-1.8678 3.7176-3.03 5.443-1.0976 1.6263-2.349 3.1432-3.737 4.53-1.3876 1.3779-2.9027 2.6211-4.525 3.713-1.7345 1.161-3.564 2.1732-5.469 3.026-2.1078 0.95119-4.2802 1.7522-6.501 2.397-2.5179 0.7378-5.0723 1.3446-7.653 1.818-2.931 0.55-5.8828 0.98162-8.8538 1.3056-3.364 0.364-6.7562 0.64938-10.139 0.83638-3.827 0.216-7.6776 0.36018-11.505 0.43918-4.298 0.098-8.5724 0.14982-12.87 0.14982h-74.146c-4.298 0-8.5976-0.0545-12.896-0.15147-3.8291-0.082-7.6582-0.26152-11.482-0.48085-3.3834-0.19001-6.7587-0.42545-10.127-0.79268-2.97-0.32174-5.9265-0.7574-8.863-1.306-2.5807-0.47339-5.1351-1.0802-7.653-1.818-2.2208-0.64482-4.3673-1.4321-6.4751-2.3833-1.9053-0.85272-3.7547-1.8723-5.4895-3.0333-1.622-1.0922-3.1431-2.3423-4.5303-3.7205-1.3882-1.3864-2.64-2.903-3.738-4.529-1.1622-1.7254-2.1758-3.5462-3.03-5.443-0.94645-2.1077-1.7483-4.2774-2.4-6.494-0.74152-2.5113-1.352-5.0594-1.829-7.634-0.54054-2.9271-0.9735-5.8731-1.298-8.832-0.374-3.37-0.65-6.74-0.846-10.12-0.21993-3.8156-0.37096-7.6349-0.453-11.456-0.08992-4.2894-0.13559-8.5796-0.137-12.87v-58.212c0-4.293 0.049-8.577 0.137-12.87 0.079-3.822 0.236-7.634 0.453-11.456 0.197-3.38 0.472-6.75 0.846-10.11 0.324-2.967 0.757-5.914 1.298-8.842 0.47732-2.5747 1.0915-5.1375 1.8334-7.6487 0.65331-2.2161 1.4517-4.371 2.3966-6.4793 0.85634-1.8957 1.8699-3.7164 3.03-5.443 1.1003-1.6212 2.3515-3.1346 3.737-4.52 1.3849-1.3839 2.9002-2.6307 4.525-3.723 1.7345-1.161 3.564-2.1732 5.469-3.026 2.1096-0.94691 4.2817-1.7478 6.501-2.397 2.5179-0.7378 5.0723-1.3446 7.653-1.818 2.931-0.55 5.892-0.982 8.863-1.297 3.364-0.373 6.7432-0.64645 10.126-0.84345 3.8239-0.21443 7.6549-0.36667 11.484-0.45355 4.298-0.088 8.597-0.137 12.895-0.127z" fill="url(#c)" fill-rule="evenodd"/>
  </g>
</svg>
