<svg width="256" height="256" style="isolation:isolate" version="1.1" xmlns="http://www.w3.org/2000/svg">
  <g filter="url(#a)">
    <linearGradient id="b" x1="-2.0437e-5" x2="1" y1=".18728" y2="1" gradientTransform="matrix(244.65,0,0,228.34,5.676,11.947)" gradientUnits="userSpaceOnUse">
      <stop stop-color="#665c54" offset="0"/>
      <stop stop-color="#3c3836" offset="1"/>
    </linearGradient>
    <path d="m165.68 11.947c72.707 0 84.639 12.053 84.639 84.544v59.251c0 72.561-11.932 84.543-84.639 84.543h-75.37c-72.294 0-84.639-11.982-84.639-84.543v-59.251c0-72.491 12.329-84.544 84.639-84.544z" fill="url(#b)"/>
  </g>
  <defs>
    <filter id="a" x="-.042124" y="-.045133" width="1.0842" height="1.1078" color-interpolation-filters="sRGB">
      <feGaussianBlur in="SourceGraphic" stdDeviation="4.294"/>
      <feOffset dy="4" result="pf_100_offsetBlur"/>
      <feFlood flood-opacity=".4"/>
      <feComposite in2="pf_100_offsetBlur" operator="in" result="pf_100_dropShadow"/>
      <feBlend in="SourceGraphic" in2="pf_100_dropShadow"/>
    </filter>
    <filter id="IFhwPeHn75qMBbGmBdc4frxyS2Ranois" x="-.061329" y="-.061329" width="1.1227" height="1.1227" color-interpolation-filters="sRGB">
      <feGaussianBlur stdDeviation="4.294"/>
    </filter>
    <linearGradient id="_lgradient_26" x1=".5" x2=".5" y2="1" gradientTransform="matrix(168.04 0 0 168.04 45 42.333)" gradientUnits="userSpaceOnUse">
      <stop stop-color="#d5c4a1" offset="0"/>
      <stop stop-color="#665c54" offset="1"/>
    </linearGradient>
    <linearGradient id="_lgradient_27" x1=".565" x2=".56" y1="1" y2=".018" gradientTransform="matrix(143.21 0 0 143.21 57.412 54.745)" gradientUnits="userSpaceOnUse">
      <stop stop-color="#a89984" offset="0"/>
      <stop stop-color="#ebdbb2" offset="1"/>
    </linearGradient>
    <filter id="SZjG2dOTD35CZHp5UvJHRmrN1mVQNfpM" x="-.077373" y="-.2338" width="1.1547" height="1.5584" color-interpolation-filters="sRGB">
      <feGaussianBlur in="SourceGraphic" stdDeviation="4.294"/>
      <feOffset dx="0" dy="4" result="pf_100_offsetBlur"/>
      <feFlood flood-opacity=".4"/>
      <feComposite in2="pf_100_offsetBlur" operator="in" result="pf_100_dropShadow"/>
      <feBlend in="SourceGraphic" in2="pf_100_dropShadow"/>
    </filter>
    <linearGradient id="_lgradient_47" x1=".5" x2=".5" y1="1" gradientTransform="matrix(121.98 0 0 114.14 128.7 126.45)" gradientUnits="userSpaceOnUse">
      <stop stop-color="#fe8019" offset="0"/>
      <stop stop-color="#fabd2f" offset="1"/>
    </linearGradient>
  </defs>
  <g transform="translate(-1.0235 -3.6907)" style="isolation:isolate">
    <g filter="url(#IFhwPeHn75qMBbGmBdc4frxyS2Ranois)" opacity=".4">
      <path d="m129.02 45.243c-46.403 0-84.019 37.616-84.019 84.018 0 46.403 37.616 84.019 84.019 84.019 46.402 0 84.018-37.616 84.018-84.019 0-46.402-37.616-84.018-84.018-84.018z"/>
    </g>
    <path d="m45 126.35c0 46.371 37.648 84.019 84.019 84.019s84.019-37.648 84.019-84.019-37.648-84.019-84.019-84.019-84.019 37.648-84.019 84.019z" fill="url(#_lgradient_26)"/>
    <g opacity=".2">
      <path d="m129.02 199.87c-39.548 0-71.607-32.059-71.607-71.607 0-39.547 32.059-71.606 71.607-71.606 39.547 0 71.606 32.059 71.606 71.606 0 39.548-32.059 71.607-71.606 71.607z"/>
    </g>
    <path d="m129.02 197.96c-39.548 0-71.607-32.06-71.607-71.607s32.059-71.607 71.607-71.607c39.547 0 71.606 32.06 71.606 71.607s-32.059 71.607-71.606 71.607z" fill="url(#_lgradient_27)"/>
    <path d="m114.95 105.81c-0.527-0.913-0.214-2.082 0.699-2.609s2.082-0.214 2.609 0.699 0.214 2.082-0.699 2.609-2.082 0.214-2.609-0.699zm24.823 42.996c-0.527-0.913-0.214-2.082 0.699-2.609s2.082-0.214 2.609 0.699 0.214 2.082-0.699 2.609-2.082 0.214-2.609-0.699zm-33.21-33.211c-0.913-0.527-1.226-1.696-0.699-2.609s1.696-1.226 2.609-0.699 1.226 1.696 0.699 2.609-1.696 1.226-2.609 0.699zm42.996 24.824c-0.913-0.527-1.226-1.696-0.699-2.609s1.696-1.226 2.609-0.699 1.226 1.696 0.699 2.609-1.696 1.226-2.609 0.699zm-45.367-12.156c-1.054 0-1.91-0.856-1.91-1.91s0.856-1.91 1.91-1.91 1.91 0.856 1.91 1.91-0.856 1.91-1.91 1.91zm49.647 0c-1.054 0-1.91-0.856-1.91-1.91s0.856-1.91 1.91-1.91 1.91 0.856 1.91 1.91-0.856 1.91-1.91 1.91zm-45.366 12.156c-0.913 0.527-2.082 0.214-2.609-0.699s-0.214-2.082 0.699-2.609 2.082-0.214 2.609 0.699 0.214 2.082-0.699 2.609zm42.996-24.824c-0.913 0.527-2.082 0.214-2.609-0.699s-0.214-2.082 0.699-2.609 2.082-0.214 2.609 0.699 0.214 2.082-0.699 2.609zm-33.211 33.211c-0.527 0.913-1.696 1.226-2.609 0.699s-1.226-1.696-0.699-2.609 1.696-1.226 2.609-0.699 1.226 1.696 0.699 2.609zm24.823-42.996c-0.527 0.913-1.696 1.226-2.609 0.699s-1.226-1.696-0.699-2.609 1.696-1.226 2.609-0.699 1.226 1.696 0.699 2.609zm-12.155 45.367c0 1.054-0.856 1.91-1.91 1.91s-1.91-0.856-1.91-1.91 0.856-1.91 1.91-1.91 1.91 0.856 1.91 1.91zm0-49.648c0 1.054-0.856 1.91-1.91 1.91s-1.91-0.856-1.91-1.91 0.856-1.91 1.91-1.91 1.91 0.856 1.91 1.91z" fill="#a89984" fill-rule="evenodd"/>
    <circle cx="129.02" cy="126.35" r="19.095" fill="#ebdbb2" vector-effect="non-scaling-stroke"/>
    <circle cx="129.02" cy="126.35" r="3.819" fill="#504945" vector-effect="non-scaling-stroke"/>
    <g filter="url(#SZjG2dOTD35CZHp5UvJHRmrN1mVQNfpM)">
      <path d="m178.19 166.29s-112.66 42.048-118.77 43.685c-6.112 1.638-12.394-1.989-14.032-8.101-1.637-6.112 1.99-12.394 8.102-14.032s124.7-21.552 124.7-21.552zm-125.56 32.621c0-2.108 1.711-3.819 3.819-3.819s3.819 1.711 3.819 3.819-1.711 3.819-3.819 3.819-3.819-1.711-3.819-3.819z" fill="#d5c4a1" fill-rule="evenodd"/>
    </g>
    <g opacity=".2">
      <path d="m129.02 54.745c-39.548 0-71.607 32.06-71.607 71.607 0 0.32 0.02 0.635 0.024 0.955 0.514-39.106 32.356-70.652 71.583-70.652s71.069 31.546 71.582 70.652c4e-3 -0.32 0.025-0.635 0.025-0.955 0-39.547-32.06-71.607-71.607-71.607z" fill="#ebdbb2"/>
    </g>
    <g opacity=".4">
      <path d="m56.457 49.971c-1.013 0-1.984 0.403-2.7 1.119-0.717 0.716-1.119 1.688-1.119 2.7 0 2.11 1.71 3.819 3.819 3.819s3.819-1.709 3.819-3.819c0-1.012-0.402-1.984-1.118-2.7-0.717-0.716-1.688-1.119-2.701-1.119zm145.12 0c-1.013 0-1.984 0.403-2.7 1.119-0.717 0.716-1.119 1.688-1.119 2.7 0 1.013 0.402 1.985 1.119 2.701 0.716 0.716 1.687 1.118 2.7 1.118 2.109 0 3.819-1.709 3.819-3.819 0-1.012-0.402-1.984-1.118-2.7-0.717-0.716-1.688-1.119-2.701-1.119zm0 145.12c-1.013 0-1.984 0.403-2.7 1.119-0.717 0.716-1.119 1.688-1.119 2.7 0 1.013 0.402 1.985 1.119 2.701 0.716 0.716 1.687 1.118 2.7 1.118 2.109 0 3.819-1.709 3.819-3.819 0-2.109-1.71-3.819-3.819-3.819z" fill="#ebdbb2"/>
    </g>
  </g>
  <g transform="translate(-.366 -.3295)" style="isolation:isolate">
    <path d="m221.38 234.42c-10.897 3.6788-18.865 6.6876-74.442 6.1923h-17.704l-0.36-8.3255c-0.43623-10.089 0.023-42.429 0.732-50.237 1.285-14.148 3.44-23.312 7.313-31.086 7.396-14.848 20.832-21.186 49.599-23.396 3.463-0.266 19.316-0.628 35.231-0.804l28.935-0.32-7e-3 24.171c0.23363 30.303-1.1954 42.804-4.3673 55.122-3.855 15.266-12.267 23.842-24.93 28.683" fill="url(#_lgradient_47)"/>
    <path d="m189.69 148.52c-19.329 0-35 15.67-35 35s15.671 35 35 35c14.818-0.017 28.018-9.363 32.957-23.333h-12.775c-4.164 7.211-11.855 11.657-20.182 11.667-12.886 0-23.333-10.447-23.333-23.334 0-12.886 10.447-23.333 23.333-23.333 7.148 4e-3 13.9 3.285 18.321 8.902l-10.543 10.542h27.222v-27.222l-8.4 8.401c-6.643-7.79-16.362-12.28-26.6-12.29z" fill="#ebdbb2"/>
  </g>
  <g transform="translate(-.01186 -.00316)" opacity=".4">
    <linearGradient id="c" x1=".517" x2=".517" y2="1" gradientTransform="matrix(244.65,0,0,228.34,5.68,11.95)" gradientUnits="userSpaceOnUse">
      <stop stop-color="#928374" offset="0"/>
      <stop stop-color="#928374" stop-opacity=".098039" offset=".125"/>
      <stop stop-opacity=".098039" offset=".925"/>
      <stop stop-opacity=".49804" offset="1"/>
    </linearGradient>
    <path d="m165.07 11.951c4.328-0.01 8.656 0.04 12.984 0.138 3.875 0.078 7.7436 0.25854 11.62 0.48454 3.453 0.196 6.8876 0.5327 10.33 0.9057 3.06 0.335 6.0892 0.83409 9.1192 1.3941 2.7131 0.50032 5.3525 1.181 7.9999 1.9571 2.3983 0.69679 4.7544 1.61 7.0323 2.6338 2.1121 0.94124 4.0427 2.0439 5.9631 3.3319 1.8405 1.2399 3.5996 2.7014 5.1741 4.2652 1.5652 1.5692 2.886 3.1628 4.1277 4.9987 1.2864 1.9174 2.4086 3.8707 3.3603 5.9744 1.0207 2.2746 1.9193 4.5772 2.628 6.9675 0.77696 2.6443 1.4779 5.3272 1.9787 8.0374 0.56201 3.0246 1.0626 6.0601 1.3989 9.1181 0.374 3.439 0.70873 6.8493 0.90573 10.297 0.226 3.861 0.42171 7.7394 0.51071 11.6 0.088 4.323 0.138 8.646 0.128 12.96v58.21c0.01 4.324-0.04 8.637-0.128 12.96-0.085 3.8668-0.28821 7.7331-0.51114 11.595-0.19655 3.4488-0.53822 6.9467-0.91224 10.38-0.33634 3.0613-0.82936 6.0316-1.3914 9.0596-0.50199 2.7066-1.1867 5.3458-1.9626 7.987-0.7071 2.3908-1.5665 4.6263-2.5888 6.9002-0.94995 2.1048-2.1624 4.2292-3.4512 6.1454-1.2392 1.8377-2.5377 3.3902-4.1052 4.9572-1.5746 1.5638-3.412 3.0712-5.2525 4.3111-1.9201 1.2879-3.8611 2.3701-5.9729 3.3114-2.3498 1.0736-4.5744 1.8717-6.9323 2.584-2.6776 0.81656-5.2934 1.4166-7.976 1.948-3.0309 0.56603-6.051 1.0612-9.1165 1.3921-3.5041 0.40869-6.8203 0.68433-10.336 0.90377-3.875 0.226-7.789 0.40013-11.665 0.48813-4.328 0.088-8.6314 0.15082-12.959 0.14082h-74.126c-4.328 0.01-8.6566-0.0545-12.985-0.14247-3.9049-0.0955-7.7449-0.24667-11.628-0.49085-3.4941-0.21923-7.0445-0.5149-10.452-0.92805-3.1873-0.37665-5.9337-0.7937-8.9951-1.3902-2.833-0.56139-5.3421-1.1637-7.9464-1.9566-2.4295-0.73175-4.8105-1.6266-7.0523-2.6548-2.139-0.97893-4.0617-2.0635-5.9983-3.3731-1.8405-1.2399-3.5141-2.6495-5.0886-4.2133-1.5676-1.5671-2.9061-3.1787-4.1454-5.0164-1.2884-1.9162-2.4021-3.8332-3.3518-5.9379-1.0223-2.2739-1.9238-4.5236-2.6309-6.9144-0.77585-2.6412-1.4977-5.3053-1.9996-8.0119-0.56202-3.028-1.0938-6.1087-1.4301-9.17-0.37402-3.4341-0.72617-6.8459-0.92272-10.295-0.22292-3.8613-0.42179-7.7427-0.50684-11.61-0.09185-4.3194-0.13452-8.6396-0.128-12.96v-58.21c-0.01-4.314 0.04-8.637 0.128-12.96 0.089-3.86 0.28015-7.7353 0.50615-11.596 0.197-3.448 0.54883-6.857 0.92283-10.296 0.335-3.055 0.87336-6.1638 1.4344-9.1898 0.50085-2.7102 1.1807-5.2262 1.9577-7.8705 0.70872-2.3902 1.7549-4.9868 2.7756-7.2614 0.95209-2.1037 1.9632-3.7998 3.2499-5.7172 1.2418-1.8358 2.594-3.4604 4.1593-5.0296 1.5745-1.5638 3.3273-3.0214 5.1678-4.2614 1.9201-1.2879 3.8238-2.3848 5.9356-3.3261 2.278-1.0238 4.5428-1.9236 6.9411-2.6204 2.6474-0.77617 5.2743-1.4761 7.9874-1.9764 3.0317-0.56124 6.1381-1.085 9.203-1.4208 3.443-0.373 6.8398-0.71288 10.293-0.90888 3.875-0.226 7.7331-0.41514 11.609-0.49314 4.328-0.098 8.6625-0.14613 12.991-0.13613zm0.01 4.009c4.298-0.01 8.597 0.039 12.895 0.127 3.827 0.089 7.6466 0.26854 11.474 0.48454 3.383 0.197 6.7724 0.43946 10.136 0.81246 2.971 0.315 5.9391 0.74869 8.8701 1.2987 2.5807 0.47339 5.1059 1.0723 7.6238 1.8101 2.2193 0.6492 4.4135 1.4563 6.5231 2.4032 1.9054 0.85272 3.7179 1.8543 5.4527 3.0153 1.6245 1.0927 3.1568 2.3505 4.5413 3.7347 1.3858 1.385 2.6374 2.8981 3.738 4.519 1.1601 1.7266 2.1737 3.5473 3.03 5.443 0.94487 2.1083 1.7467 4.2779 2.4 6.494 0.74152 2.5113 1.352 5.0594 1.829 7.634 0.54 2.928 0.974 5.875 1.298 8.842 0.374 3.36 0.65 6.73 0.846 10.11 0.217 3.822 0.374 7.634 0.453 11.456 0.088 4.293 0.137 8.577 0.137 12.87v58.212c0 4.293-0.049 8.577-0.137 12.87-0.082 3.8211-0.0546 7.643-0.27458 11.459-0.196 3.38-0.65042 6.7474-1.0244 10.117-0.3245 2.9589-0.75746 5.9049-1.298 8.832-0.47731 2.5747-1.0881 5.1228-1.83 7.634-0.65169 2.2166-1.4536 4.3863-2.4 6.494-0.8542 1.8968-1.8678 3.7176-3.03 5.443-1.0976 1.6263-2.349 3.1432-3.737 4.53-1.3876 1.3779-2.9027 2.6211-4.525 3.713-1.7345 1.161-3.564 2.1732-5.469 3.026-2.1078 0.95119-4.2802 1.7522-6.501 2.397-2.5179 0.7378-5.0723 1.3446-7.653 1.818-2.931 0.55-5.8828 0.98162-8.8538 1.3056-3.364 0.364-6.7562 0.64938-10.139 0.83638-3.827 0.216-7.6776 0.36018-11.505 0.43918-4.298 0.098-8.5724 0.14982-12.87 0.14982h-74.146c-4.298 0-8.5976-0.0545-12.896-0.15147-3.8291-0.082-7.6582-0.26152-11.482-0.48085-3.3834-0.19001-6.7587-0.42545-10.127-0.79268-2.97-0.32174-5.9265-0.7574-8.863-1.306-2.5807-0.47339-5.1351-1.0802-7.653-1.818-2.2208-0.64482-4.3673-1.4321-6.4751-2.3833-1.9053-0.85272-3.7547-1.8723-5.4895-3.0333-1.622-1.0922-3.1431-2.3423-4.5303-3.7205-1.3882-1.3864-2.64-2.903-3.738-4.529-1.1622-1.7254-2.1758-3.5462-3.03-5.443-0.94645-2.1077-1.7483-4.2774-2.4-6.494-0.74152-2.5113-1.352-5.0594-1.829-7.634-0.54054-2.9271-0.9735-5.8731-1.298-8.832-0.374-3.37-0.65-6.74-0.846-10.12-0.21993-3.8156-0.37096-7.6349-0.453-11.456-0.08992-4.2894-0.13559-8.5796-0.137-12.87v-58.212c0-4.293 0.049-8.577 0.137-12.87 0.079-3.822 0.236-7.634 0.453-11.456 0.197-3.38 0.472-6.75 0.846-10.11 0.324-2.967 0.757-5.914 1.298-8.842 0.47732-2.5747 1.0915-5.1375 1.8334-7.6487 0.65331-2.2161 1.4517-4.371 2.3966-6.4793 0.85634-1.8957 1.8699-3.7164 3.03-5.443 1.1003-1.6212 2.3515-3.1346 3.737-4.52 1.3849-1.3839 2.9002-2.6307 4.525-3.723 1.7345-1.161 3.564-2.1732 5.469-3.026 2.1096-0.94691 4.2817-1.7478 6.501-2.397 2.5179-0.7378 5.0723-1.3446 7.653-1.818 2.931-0.55 5.892-0.982 8.863-1.297 3.364-0.373 6.7432-0.64645 10.126-0.84345 3.8239-0.21443 7.6549-0.36667 11.484-0.45355 4.298-0.088 8.597-0.137 12.895-0.127z" fill="url(#c)" fill-rule="evenodd"/>
  </g>
</svg>
