<svg width="256" height="256" style="isolation:isolate" version="1.1" xmlns="http://www.w3.org/2000/svg">
  <g transform="translate(.007136 -.1198)" filter="url(#a)">
    <linearGradient id="b" x1=".5002" x2=".5002" y2="1" gradientTransform="matrix(244,0,0,228,5.981,12.12)" gradientUnits="userSpaceOnUse">
      <stop stop-color="#ebdbb2" offset="0"/>
      <stop stop-color="#d5c4a1" offset="1"/>
    </linearGradient>
    <path d="m165 12.12c72 0 85 15 85 87v56c0 70-13 85-85 85h-74c-72 0-85-15-85-85v-56c0-72 13-87 85-87z" fill="url(#b)"/>
  </g>
  <defs>
    <linearGradient id="linearGradient31" x1=".5002" x2=".5002" y2="1" gradientTransform="matrix(244,0,0,228,5.988,12.12)" gradientUnits="userSpaceOnUse">
      <stop stop-color="#d5c4a1" offset="0"/>
      <stop stop-color="#d5c4a1" stop-opacity=".09804" offset=".1"/>
      <stop stop-color="#282828" stop-opacity=".1" offset=".9"/>
      <stop stop-color="#282828" stop-opacity=".4" offset="1"/>
    </linearGradient>
  </defs>
  <g transform="translate(.007189 -.1198)" opacity=".5">
    <path d="m91 12.12c-72 0-85 15-85 87v56c0 70 13 85 85 85h74c72 0 85-15 85-85v-56c0-72-13-87-85-87zm0 4h74c68 0 80 15 80 83v56c0 66-12 81-80 81h-74c-68 0-80-15-80-81v-56c0-68 12-83 80-83z" fill="url(#linearGradient31)" opacity="1"/>
  </g>
  <path transform="matrix(11.92 0 0 11.07 32.65 38.81)" d="m8 1.904c-0.3901 0.00215-0.7646 0.04181-1.148 0.1183-2.827 0.5496-4.821 2.364-4.142 5.319 0.334 1.454 0.8419 2.388 1.154 3.315 0.8268 2.459 0.7384 3.721 2.324 4.267 0.6376 0.218 1.153 0.3225 1.812 0.3132 0.6598 0.009276 1.175-0.09529 1.812-0.3132 1.585-0.5457 1.497-1.808 2.324-4.267 0.3119-0.9279 0.6292-1.862 0.9633-3.315 0.6791-2.955-1.124-4.77-3.951-5.319-0.3835-0.07649-0.758-0.1162-1.148-0.1183z" fill="#ebdbb2" style="isolation:isolate"/>
  <path transform="matrix(11.92 0 0 11.07 32.65 38.81)" d="m6.867 2.02-0.01491 0.002294c-2.651 0.5153-4.836 2.142-4.539 4.778 0.02035 0.176 0.05076 0.3553 0.09291 0.5388 0.00316 0.01374 0.00728 0.0257 0.01049 0.03935 0.335 1.413 1.116 2.335 1.434 3.243 2.075-0.6729 3.198-2.788 3.198-5.47 0.004127-1.025 0.2671-2.199-0.1807-3.131zm2.266 0c-0.4478 0.9316-0.1849 2.106-0.1807 3.131 0 2.682 1.122 4.797 3.198 5.47 0.3175-0.908 1.099-1.829 1.434-3.243 0.00322-0.01365 0.007288-0.02561 0.01049-0.03935 0.04216-0.1834 0.07256-0.3628 0.09291-0.5388 0.2968-2.636-1.889-4.263-4.539-4.778l-0.01491-0.002294z" fill="#fe8019" style="isolation:isolate"/>
  <path d="m123.8 161.5c-3.969 0-7.184 3.84-7.184 8.581 0 4.79 7.394 14.12 11.35 14.12s11.35-9.334 11.35-14.12c0-4.741-3.215-8.581-7.184-8.581h-4.168z" fill="#3c3836" stroke-width="11.35"/>
  <path d="m139.4 196.1c0 6.269-5.082 11.35-11.35 11.35s-11.35-5.083-11.35-11.35c0-1.351 0.236-0.3723 0.669-1.574 1.576-4.375 5.533-1.938 10.45-1.938 4.913 0 9.33-2.444 10.91 1.924 0.4362 1.206 0.674 0.2318 0.674 1.588z" fill="#d3869b" stroke-width="11.35"/>
  <path d="m150.1 184.8a2.838 2.838 0 0 0-2.111 0.5137s-5.759 4.027-9.865 5.117c-0.0221 6e-3 -2.782-0.2697-4.932-1-2.15-0.7303-3.959-1.564-3.959-1.564a2.838 2.838 0 0 0-2.383 0s-1.809 0.8342-3.959 1.564c-2.15 0.7303-4.91 1.006-4.932 1-4.106-1.091-9.865-5.117-9.865-5.117a2.838 2.838 0 0 0-3.967 0.6152 2.838 2.838 0 0 0 0.6152 3.967s5.819 4.442 11.76 6.02c3.093 0.8214 5.738-0.2679 8.215-1.109 1.824-0.6195 2.614-1.003 3.324-1.316 0.7097 0.3133 1.501 0.6969 3.324 1.316 2.477 0.8415 5.122 1.931 8.215 1.109 5.94-1.578 11.76-6.02 11.76-6.02a2.838 2.838 0 0 0 0.6152-3.967 2.838 2.838 0 0 0-1.855-1.129z" color="#000000" fill="#504945" stroke-linecap="round" stroke-linejoin="round" style="-inkscape-stroke:none"/>
  <path d="m83.66 48.54c-15.43-0.08979-34.62 3.805-43.02 10.88-4.665 3.822-3.579 7.137-2.609 11.67 3.355 15.67 12.05 55.62 13.76 56.88 2.124 1.57 44.95-54.03 44.95-54.03s15.98-17.7 4.273-22.73c-4.097-1.763-10.34-2.627-17.35-2.668zm88.68 0c-7.014 0.04081-13.25 0.9049-17.35 2.668-11.7 5.037 4.273 22.73 4.273 22.73s42.82 55.6 44.95 54.03c1.706-1.261 10.4-41.22 13.76-56.88 0.9694-4.529 2.055-7.844-2.609-11.67-8.401-7.074-27.59-10.97-43.02-10.88z" fill="#3c3836" stroke-width="11.35"/>
  <g transform="matrix(11.35 0 0 11.35 105.3 37.18)">
    <path d="m6 8a1 1 0 0 1-1 1 1 1 0 0 1-1-1 1 1 0 0 1 1-1 1 1 0 0 1 1 1z" fill="#3c3836"/>
    <path d="M 5,7.75 A 0.25,0.25 0 0 1 4.75,8 0.25,0.25 0 0 1 4.5,7.75 0.25,0.25 0 0 1 4.75,7.5 0.25,0.25 0 0 1 5,7.75 Z" fill="#ebdbb2"/>
    <path transform="translate(-6)" d="m6 8a1 1 0 0 1-1 1 1 1 0 0 1-1-1 1 1 0 0 1 1-1 1 1 0 0 1 1 1z" fill="#3c3836"/>
    <path transform="translate(-6)" d="M 5,7.75 A 0.25,0.25 0 0 1 4.75,8 0.25,0.25 0 0 1 4.5,7.75 0.25,0.25 0 0 1 4.75,7.5 0.25,0.25 0 0 1 5,7.75 Z" fill="#ebdbb2"/>
  </g>
</svg>
