<svg width="256" height="256" style="isolation:isolate" version="1.1" xmlns="http://www.w3.org/2000/svg" xmlns:xlink="http://www.w3.org/1999/xlink">
  <g filter="url(#a)">
    <linearGradient id="b" x1=".50002" x2=".50002" y1="-.00051239" y2="1" gradientTransform="matrix(244.65,0,0,228.34,5.676,11.947)" gradientUnits="userSpaceOnUse">
      <stop stop-color="#ebdbb2" offset="0"/>
      <stop stop-color="#ebdbb2" offset="1"/>
    </linearGradient>
    <path d="m165.68 11.947c72.707 0 84.639 12.053 84.639 84.544v59.251c0 72.561-11.932 84.543-84.639 84.543h-75.37c-72.294 0-84.639-11.982-84.639-84.543v-59.251c0-72.491 12.329-84.544 84.639-84.544z" fill="url(#b)"/>
  </g>
  <defs>
    <filter id="a" x="-.042124" y="-.045133" width="1.0842" height="1.1078" color-interpolation-filters="sRGB">
      <feGaussianBlur in="SourceGraphic" stdDeviation="4.294"/>
      <feOffset dy="4" result="pf_100_offsetBlur"/>
      <feFlood flood-opacity=".4"/>
      <feComposite in2="pf_100_offsetBlur" operator="in" result="pf_100_dropShadow"/>
      <feBlend in="SourceGraphic" in2="pf_100_dropShadow"/>
    </filter>
    <linearGradient id="h" x1="152" x2="152" y1="124" y2="236" gradientUnits="userSpaceOnUse">
      <stop stop-color="#1d2021" offset="0"/>
      <stop stop-color="#1d2021" stop-opacity="0" offset="1"/>
    </linearGradient>
    <clipPath id="g">
      <path d="m152 68c-48.601 0-88 39.399-88 88s39.399 88 88 88 88-39.399 88-88-39.399-88-88-88z" fill="#282828"/>
    </clipPath>
    <filter id="i" x="-.024" y="-.024" width="1.048" height="1.048" color-interpolation-filters="sRGB">
      <feGaussianBlur stdDeviation="1.5"/>
    </filter>
    <linearGradient id="j" x1="152" x2="152" y1="100" y2="212" gradientTransform="translate(-26.432,-40.432)" gradientUnits="userSpaceOnUse">
      <stop stop-opacity="0" offset="0"/>
      <stop offset=".5"/>
      <stop stop-opacity="0" offset="1"/>
    </linearGradient>
    <linearGradient id="k" x1="200" x2="200" y1="268" y2="44" gradientTransform="matrix(.26458 0 0 .26458 -6.993 221.97)" gradientUnits="userSpaceOnUse">
      <stop stop-color="#ebdbb2" offset="0"/>
      <stop stop-color="#ebdbb2" offset="1"/>
    </linearGradient>
  </defs>
  <g opacity=".4">
    <linearGradient id="c" x1=".517" x2=".517" y2="1" gradientTransform="matrix(244.65,0,0,228.34,5.68,11.95)" gradientUnits="userSpaceOnUse">
      <stop stop-color="#d5c4a1" offset="0"/>
      <stop stop-color="#ebdbb2" stop-opacity=".098" offset=".125"/>
      <stop stop-color="#282828" stop-opacity=".098039" offset=".925"/>
      <stop stop-color="#282828" stop-opacity=".49804" offset="1"/>
    </linearGradient>
    <path d="m165.07 11.951c4.328-0.01 8.656 0.04 12.984 0.138 3.875 0.078 7.7436 0.25854 11.62 0.48454 3.453 0.196 6.8876 0.5327 10.33 0.9057 3.06 0.335 6.0892 0.83409 9.1192 1.3941 2.7131 0.50032 5.3525 1.181 7.9999 1.9571 2.3983 0.69679 4.7544 1.61 7.0323 2.6338 2.1121 0.94124 4.0427 2.0439 5.9631 3.3319 1.8405 1.2399 3.5996 2.7014 5.1741 4.2652 1.5652 1.5692 2.886 3.1628 4.1277 4.9987 1.2864 1.9174 2.4086 3.8707 3.3603 5.9744 1.0207 2.2746 1.9193 4.5772 2.628 6.9675 0.77696 2.6443 1.4779 5.3272 1.9787 8.0374 0.56201 3.0246 1.0626 6.0601 1.3989 9.1181 0.374 3.439 0.70873 6.8493 0.90573 10.297 0.226 3.861 0.42171 7.7394 0.51071 11.6 0.088 4.323 0.138 8.646 0.128 12.96v58.21c0.01 4.324-0.04 8.637-0.128 12.96-0.085 3.8668-0.28821 7.7331-0.51114 11.595-0.19655 3.4488-0.53822 6.9467-0.91224 10.38-0.33634 3.0613-0.82936 6.0316-1.3914 9.0596-0.50199 2.7066-1.1867 5.3458-1.9626 7.987-0.7071 2.3908-1.5665 4.6263-2.5888 6.9002-0.94995 2.1048-2.1624 4.2292-3.4512 6.1454-1.2392 1.8377-2.5377 3.3902-4.1052 4.9572-1.5746 1.5638-3.412 3.0712-5.2525 4.3111-1.9201 1.2879-3.8611 2.3701-5.9729 3.3114-2.3498 1.0736-4.5744 1.8717-6.9323 2.584-2.6776 0.81656-5.2934 1.4166-7.976 1.948-3.0309 0.56603-6.051 1.0612-9.1165 1.3921-3.5041 0.40869-6.8203 0.68433-10.336 0.90377-3.875 0.226-7.789 0.40013-11.665 0.48813-4.328 0.088-8.6314 0.15082-12.959 0.14082h-74.126c-4.328 0.01-8.6566-0.0545-12.985-0.14247-3.9049-0.0955-7.7449-0.24667-11.628-0.49085-3.4941-0.21923-7.0445-0.5149-10.452-0.92805-3.1873-0.37665-5.9337-0.7937-8.9951-1.3902-2.833-0.56139-5.3421-1.1637-7.9464-1.9566-2.4295-0.73175-4.8105-1.6266-7.0523-2.6548-2.139-0.97893-4.0617-2.0635-5.9983-3.3731-1.8405-1.2399-3.5141-2.6495-5.0886-4.2133-1.5676-1.5671-2.9061-3.1787-4.1454-5.0164-1.2884-1.9162-2.4021-3.8332-3.3518-5.9379-1.0223-2.2739-1.9238-4.5236-2.6309-6.9144-0.77585-2.6412-1.4977-5.3053-1.9996-8.0119-0.56202-3.028-1.0938-6.1087-1.4301-9.17-0.37402-3.4341-0.72617-6.8459-0.92272-10.295-0.22292-3.8613-0.42179-7.7427-0.50684-11.61-0.09185-4.3194-0.13452-8.6396-0.128-12.96v-58.21c-0.01-4.314 0.04-8.637 0.128-12.96 0.089-3.86 0.28015-7.7353 0.50615-11.596 0.197-3.448 0.54883-6.857 0.92283-10.296 0.335-3.055 0.87336-6.1638 1.4344-9.1898 0.50085-2.7102 1.1807-5.2262 1.9577-7.8705 0.70872-2.3902 1.7549-4.9868 2.7756-7.2614 0.95209-2.1037 1.9632-3.7998 3.2499-5.7172 1.2418-1.8358 2.594-3.4604 4.1593-5.0296 1.5745-1.5638 3.3273-3.0214 5.1678-4.2614 1.9201-1.2879 3.8238-2.3848 5.9356-3.3261 2.278-1.0238 4.5428-1.9236 6.9411-2.6204 2.6474-0.77617 5.2743-1.4761 7.9874-1.9764 3.0317-0.56124 6.1381-1.085 9.203-1.4208 3.443-0.373 6.8398-0.71288 10.293-0.90888 3.875-0.226 7.7331-0.41514 11.609-0.49314 4.328-0.098 8.6625-0.14613 12.991-0.13613zm0.01 4.009c4.298-0.01 8.597 0.039 12.895 0.127 3.827 0.089 7.6466 0.26854 11.474 0.48454 3.383 0.197 6.7724 0.43946 10.136 0.81246 2.971 0.315 5.9391 0.74869 8.8701 1.2987 2.5807 0.47339 5.1059 1.0723 7.6238 1.8101 2.2193 0.6492 4.4135 1.4563 6.5231 2.4032 1.9054 0.85272 3.7179 1.8543 5.4527 3.0153 1.6245 1.0927 3.1568 2.3505 4.5413 3.7347 1.3858 1.385 2.6374 2.8981 3.738 4.519 1.1601 1.7266 2.1737 3.5473 3.03 5.443 0.94487 2.1083 1.7467 4.2779 2.4 6.494 0.74152 2.5113 1.352 5.0594 1.829 7.634 0.54 2.928 0.974 5.875 1.298 8.842 0.374 3.36 0.65 6.73 0.846 10.11 0.217 3.822 0.374 7.634 0.453 11.456 0.088 4.293 0.137 8.577 0.137 12.87v58.212c0 4.293-0.049 8.577-0.137 12.87-0.082 3.8211-0.0546 7.643-0.27458 11.459-0.196 3.38-0.65042 6.7474-1.0244 10.117-0.3245 2.9589-0.75746 5.9049-1.298 8.832-0.47731 2.5747-1.0881 5.1228-1.83 7.634-0.65169 2.2166-1.4536 4.3863-2.4 6.494-0.8542 1.8968-1.8678 3.7176-3.03 5.443-1.0976 1.6263-2.349 3.1432-3.737 4.53-1.3876 1.3779-2.9027 2.6211-4.525 3.713-1.7345 1.161-3.564 2.1732-5.469 3.026-2.1078 0.95119-4.2802 1.7522-6.501 2.397-2.5179 0.7378-5.0723 1.3446-7.653 1.818-2.931 0.55-5.8828 0.98162-8.8538 1.3056-3.364 0.364-6.7562 0.64938-10.139 0.83638-3.827 0.216-7.6776 0.36018-11.505 0.43918-4.298 0.098-8.5724 0.14982-12.87 0.14982h-74.146c-4.298 0-8.5976-0.0545-12.896-0.15147-3.8291-0.082-7.6582-0.26152-11.482-0.48085-3.3834-0.19001-6.7587-0.42545-10.127-0.79268-2.97-0.32174-5.9265-0.7574-8.863-1.306-2.5807-0.47339-5.1351-1.0802-7.653-1.818-2.2208-0.64482-4.3673-1.4321-6.4751-2.3833-1.9053-0.85272-3.7547-1.8723-5.4895-3.0333-1.622-1.0922-3.1431-2.3423-4.5303-3.7205-1.3882-1.3864-2.64-2.903-3.738-4.529-1.1622-1.7254-2.1758-3.5462-3.03-5.443-0.94645-2.1077-1.7483-4.2774-2.4-6.494-0.74152-2.5113-1.352-5.0594-1.829-7.634-0.54054-2.9271-0.9735-5.8731-1.298-8.832-0.374-3.37-0.65-6.74-0.846-10.12-0.21993-3.8156-0.37096-7.6349-0.453-11.456-0.08992-4.2894-0.13559-8.5796-0.137-12.87v-58.212c0-4.293 0.049-8.577 0.137-12.87 0.079-3.822 0.236-7.634 0.453-11.456 0.197-3.38 0.472-6.75 0.846-10.11 0.324-2.967 0.757-5.914 1.298-8.842 0.47732-2.5747 1.0915-5.1375 1.8334-7.6487 0.65331-2.2161 1.4517-4.371 2.3966-6.4793 0.85634-1.8957 1.8699-3.7164 3.03-5.443 1.1003-1.6212 2.3515-3.1346 3.737-4.52 1.3849-1.3839 2.9002-2.6307 4.525-3.723 1.7345-1.161 3.564-2.1732 5.469-3.026 2.1096-0.94691 4.2817-1.7478 6.501-2.397 2.5179-0.7378 5.0723-1.3446 7.653-1.818 2.931-0.55 5.892-0.982 8.863-1.297 3.364-0.373 6.7432-0.64645 10.126-0.84345 3.8239-0.21443 7.6549-0.36667 11.484-0.45355 4.298-0.088 8.597-0.137 12.895-0.127z" fill="url(#c)" fill-rule="evenodd"/>
  </g>
  <g transform="matrix(3.7797 0 0 3.7797 2.4247 -867)">
    <circle transform="scale(1,-1)" cx="33.223" cy="-263.25" r="23.283" fill="#282828"/>
    <path d="m9.94 263.25a23.283 23.283 0 0 1 23.283-23.284 23.283 23.283 0 0 1 23.284 23.284z" opacity=".05"/>
    <path transform="matrix(.26458 0 0 .26458 -6.993 221.97)" d="m152 70c-48.601 0-88 39.399-88 88s39.399 88 88 88 88-39.399 88-88-39.399-88-88-88z" clip-path="url(#g)" fill="#3c3836" filter="url(#filter1003)" opacity=".2" stroke="url(#h)" stroke-linejoin="round" stroke-width="10"/>
    <path transform="matrix(.26458 0 0 .26458 0 232.67)" d="m125.57 42.574c-5.394-0.06-7.28 0.14-8.04 6.662l-0.288 2.305c-0.666 4.23-0.793 6.145-4.795 7.181-0.268 0.06-0.536 0.12-0.803 0.184-0.063 0.013-0.119 0.028-0.183 0.04l8e-3 3e-3c-1.01 0.244-2.01 0.514-3 0.808l0.01-0.011c-0.166 0.056-0.316 0.101-0.473 0.15-0.15 0.046-0.3 0.09-0.45 0.137-4.02 1.128-5.085-0.468-7.786-3.81l-1.405-1.852c-1.959-2.635-3.37-3.759-4.873-3.881a3.58 3.58 0 0 0-0.57 0c-1.344 0.105-2.817 0.93-4.848 2.133-4.7 2.645-6.234 3.76-3.63 9.787l0.9 2.14c1.656 4.303 2.518 5.968-1.303 9.305l0.102-0.023a60.985 60.985 0 0 0-2.307 2.308l0.022-0.101c-3.338 3.82-5.003 2.959-9.305 1.303l-2.14-0.903c-1.884-0.814-3.288-1.223-4.409-1.258-2.466-0.077-3.56 1.657-5.379 4.889-2.749 4.641-3.52 6.375 1.748 10.293l1.852 1.404c3.343 2.702 4.938 3.766 3.81 7.787-0.047 0.15-0.09 0.3-0.136 0.45-0.05 0.156-0.092 0.307-0.149 0.472l0.01-0.01c-0.294 0.99-0.565 1.99-0.809 3l-2e-3 -8e-3c-0.012 0.065-0.028 0.12-0.04 0.184-0.064 0.267-0.124 0.534-0.184 0.803-1.037 4.002-2.952 4.129-7.182 4.795l-2.305 0.289c-6.521 0.758-6.722 2.645-6.662 8.039-0.06 5.393 0.14 7.28 6.662 8.039l2.305 0.289c4.23 0.666 6.145 0.793 7.182 4.795 0.06 0.268 0.12 0.536 0.183 0.802 0.013 0.064 0.029 0.12 0.041 0.184l2e-3 -8e-3c0.244 1.01 0.515 2.01 0.809 3l-0.012-0.01c0.057 0.165 0.102 0.316 0.15 0.473 0.046 0.15 0.09 0.3 0.137 0.449 1.128 4.021-0.467 5.085-3.81 7.787l-1.852 1.404c-5.269 3.918-4.497 5.65-1.748 10.291 2.645 4.701 3.76 6.235 9.787 3.631l2.14-0.9c4.303-1.657 5.968-2.519 9.306 1.303l-0.024-0.102a60.97 60.97 0 0 0 2.309 2.307l-0.102-0.022c3.821 3.338 2.96 5.002 1.303 9.305l-0.902 2.14c-2.604 6.028-1.07 7.145 3.63 9.79 4.642 2.748 6.375 3.518 10.293-1.75l1.405-1.852c2.701-3.343 3.765-4.939 7.787-3.81l0.449 0.136c0.157 0.049 0.307 0.094 0.473 0.15l-0.01-0.011c0.99 0.294 1.99 0.565 3 0.808l-8e-3 2e-3c0.064 0.013 0.12 0.028 0.183 0.041 0.267 0.064 0.535 0.124 0.803 0.184 4.002 1.036 4.13 2.952 4.795 7.182l0.289 2.304c0.759 6.522 2.645 6.722 8.04 6.662 5.393 0.06 7.28-0.14 8.038-6.662l0.29-2.304c0.665-4.23 0.792-6.146 4.794-7.182 0.268-0.06 0.536-0.12 0.803-0.184 0.063-0.013 0.119-0.028 0.183-0.04l-8e-3 -3e-3c1.01-0.243 2.01-0.514 3-0.808l-0.01 0.012c0.166-0.057 0.316-0.102 0.473-0.15 0.15-0.047 0.3-0.09 0.45-0.138 4.02-1.128 5.085 0.468 7.786 3.81l1.405 1.853c3.918 5.268 5.65 4.496 10.29 1.748 4.702-2.645 6.235-3.76 3.632-9.788l-0.9-2.14c-1.657-4.303-2.52-5.967 1.302-9.305l-0.102 0.024a60.963 60.963 0 0 0 2.307-2.31l-0.021 0.103c3.337-3.822 5.002-2.96 9.304-1.303l2.14 0.902c6.028 2.604 7.143 1.07 9.788-3.63 2.749-4.642 3.52-6.376-1.748-10.294l-1.852-1.404c-3.343-2.702-4.938-3.766-3.81-7.787 0.047-0.15 0.09-0.3 0.137-0.45 0.048-0.156 0.092-0.307 0.148-0.472l-0.01 0.01c0.294-0.99 0.565-1.99 0.809-3l2e-3 8e-3c0.012-0.065 0.028-0.12 0.04-0.184 0.064-0.266 0.124-0.534 0.184-0.802 1.037-4.002 2.952-4.13 7.182-4.795l2.304-0.29c6.522-0.758 6.723-2.645 6.663-8.038 0.06-5.394-0.14-7.28-6.663-8.04l-2.304-0.289c-4.23-0.665-6.145-0.792-7.182-4.794-0.06-0.269-0.12-0.536-0.183-0.803-0.014-0.063-0.029-0.119-0.041-0.184l-2e-3 8e-3a59.65 59.65 0 0 0-0.809-3l0.012 0.01c-0.057-0.165-0.102-0.316-0.15-0.472-0.047-0.15-0.09-0.3-0.137-0.45-1.129-4.021 0.467-5.085 3.81-7.787l1.852-1.404c5.268-3.918 4.496-5.65 1.748-10.291-1.819-3.232-2.914-4.968-5.38-4.89-1.12 0.034-2.524 0.445-4.407 1.26l-2.141 0.9c-4.303 1.656-5.967 2.518-9.305-1.303l0.024 0.101a60.963 60.963 0 0 0-2.309-2.306l0.102 0.021c-3.821-3.337-2.96-5.002-1.303-9.305l0.902-2.14c2.604-6.028 1.07-7.142-3.63-9.787-2.321-1.375-3.915-2.255-5.419-2.133-1.503 0.122-2.916 1.246-4.875 3.88l-1.404 1.852c-2.702 3.343-3.766 4.939-7.787 3.81l-0.45-0.136c-0.156-0.049-0.306-0.092-0.472-0.148l0.01 0.01c-0.99-0.294-1.99-0.565-3-0.809l8e-3 -2e-3c-0.065-0.013-0.12-0.028-0.183-0.04a59.969 59.969 0 0 0-0.803-0.184c-4.002-1.037-4.13-2.952-4.795-7.182l-0.29-2.305c-0.758-6.522-2.644-6.722-8.038-6.662zm-0.012 30.994h0.012c5.065 0 9.96 0.875 14.535 2.48a12 12 0 0 0 5.465 6.88 12 12 0 0 0 8.67 1.29c7.203 6.191 12.43 14.704 14.44 24.55a4 4 0 0 1-3.92 4.8h-12.38a4 4 0 0 1-3.833-2.857 23.967 23.967 0 0 0-22.967-17.141c-1.866 0.01-3.725 0.235-5.537 0.676a4 4 0 0 1-4.409-1.887l-6.18-10.701a4 4 0 0 1 2.19-5.791 43.99 43.99 0 0 1 13.914-2.299zm-26.306 10.096a4 4 0 0 1 3.277 1.996l6.18 10.701a4 4 0 0 1-0.56 4.752 23.995 23.995 0 0 0-6.579 16.457 23.995 23.995 0 0 0 6.568 16.47 4 4 0 0 1 0.56 4.75l-6.161 10.676a4 4 0 0 1-6.115 0.997 43.998 43.998 0 0 1-14.063-24.74 12 12 0 0 0 3.211-8.155 12 12 0 0 0-3.213-8.15 43.996 43.996 0 0 1 14.057-24.754 4 4 0 0 1 2.838-1zm53.138 37.904h12.328a4 4 0 0 1 3.92 4.8c-2.008 9.84-7.23 18.35-14.427 24.54a12 12 0 0 0-2.924-0.303 12 12 0 0 0-5.717 1.604 12 12 0 0 0-5.453 6.861 43.84 43.84 0 0 1-14.563 2.498c-4.73-0.019-9.425-0.8-13.906-2.314a4 4 0 0 1-2.185-5.79l6.17-10.687a4 4 0 0 1 4.408-1.887 24.02 24.02 0 0 0 5.54 0.676 23.966 23.966 0 0 0 22.975-17.14 4 4 0 0 1 3.834-2.858z" fill-opacity=".714" filter="url(#i)" opacity=".2"/>
    <path transform="matrix(.26458 0 0 .26458 0 232.67)" d="m125.57 44.574c-5.394-0.06-7.28 0.14-8.04 6.662l-0.288 2.305c-0.666 4.23-0.793 6.145-4.795 7.181-0.268 0.06-0.536 0.12-0.803 0.184-0.063 0.013-0.119 0.028-0.183 0.04l8e-3 3e-3c-1.01 0.244-2.01 0.514-3 0.808l0.01-0.011c-0.166 0.056-0.316 0.101-0.473 0.15-0.15 0.046-0.3 0.09-0.45 0.137-4.02 1.128-5.085-0.468-7.786-3.81l-1.405-1.852c-1.959-2.635-3.37-3.759-4.873-3.881a3.58 3.58 0 0 0-0.57 0c-1.344 0.105-2.817 0.93-4.848 2.133-4.7 2.645-6.234 3.76-3.63 9.787l0.9 2.14c1.656 4.303 2.518 5.968-1.303 9.305l0.102-0.023a60.985 60.985 0 0 0-2.307 2.308l0.022-0.101c-3.338 3.82-5.003 2.959-9.305 1.303l-2.14-0.903c-1.884-0.814-3.288-1.223-4.409-1.258-2.466-0.077-3.56 1.657-5.379 4.889-2.749 4.641-3.52 6.375 1.748 10.293l1.852 1.404c3.343 2.702 4.938 3.766 3.81 7.787-0.047 0.15-0.09 0.3-0.136 0.45-0.05 0.156-0.092 0.307-0.149 0.472l0.01-0.01c-0.294 0.99-0.565 1.99-0.809 3l-2e-3 -8e-3c-0.012 0.065-0.028 0.12-0.04 0.184-0.064 0.267-0.124 0.534-0.184 0.803-1.037 4.002-2.952 4.129-7.182 4.795l-2.305 0.289c-6.521 0.758-6.722 2.645-6.662 8.039-0.06 5.393 0.14 7.28 6.662 8.039l2.305 0.289c4.23 0.666 6.145 0.793 7.182 4.795 0.06 0.268 0.12 0.536 0.183 0.802 0.013 0.064 0.029 0.12 0.041 0.184l2e-3 -8e-3c0.244 1.01 0.515 2.01 0.809 3l-0.012-0.01c0.057 0.165 0.102 0.316 0.15 0.473 0.046 0.15 0.09 0.3 0.137 0.449 1.128 4.021-0.467 5.085-3.81 7.787l-1.852 1.404c-5.269 3.918-4.497 5.65-1.748 10.291 2.645 4.701 3.76 6.235 9.787 3.631l2.14-0.9c4.303-1.657 5.968-2.519 9.306 1.303l-0.024-0.102a60.97 60.97 0 0 0 2.309 2.307l-0.102-0.022c3.821 3.338 2.96 5.002 1.303 9.305l-0.902 2.14c-2.604 6.028-1.07 7.145 3.63 9.79 4.642 2.748 6.375 3.518 10.293-1.75l1.405-1.852c2.701-3.343 3.765-4.939 7.787-3.81l0.449 0.136c0.157 0.049 0.307 0.094 0.473 0.15l-0.01-0.011c0.99 0.294 1.99 0.565 3 0.808l-8e-3 2e-3c0.064 0.013 0.12 0.028 0.183 0.041 0.267 0.064 0.535 0.124 0.803 0.184 4.002 1.036 4.13 2.952 4.795 7.182l0.289 2.304c0.759 6.522 2.645 6.722 8.04 6.662 5.393 0.06 7.28-0.14 8.038-6.662l0.29-2.304c0.665-4.23 0.792-6.146 4.794-7.182 0.268-0.06 0.536-0.12 0.803-0.184 0.063-0.013 0.119-0.028 0.183-0.04l-8e-3 -3e-3c1.01-0.243 2.01-0.514 3-0.808l-0.01 0.012c0.166-0.057 0.316-0.102 0.473-0.15 0.15-0.047 0.3-0.09 0.45-0.138 4.02-1.128 5.085 0.468 7.786 3.81l1.405 1.853c3.918 5.268 5.65 4.496 10.29 1.748 4.702-2.645 6.235-3.76 3.632-9.788l-0.9-2.14c-1.657-4.303-2.52-5.967 1.302-9.305l-0.102 0.024a60.963 60.963 0 0 0 2.307-2.31l-0.021 0.103c3.337-3.822 5.002-2.96 9.304-1.303l2.14 0.902c6.028 2.604 7.143 1.07 9.788-3.63 2.749-4.642 3.52-6.376-1.748-10.294l-1.852-1.404c-3.343-2.702-4.938-3.766-3.81-7.787 0.047-0.15 0.09-0.3 0.137-0.45 0.048-0.156 0.092-0.307 0.148-0.472l-0.01 0.01c0.294-0.99 0.565-1.99 0.809-3l2e-3 8e-3c0.012-0.065 0.028-0.12 0.04-0.184 0.064-0.266 0.124-0.534 0.184-0.802 1.037-4.002 2.952-4.13 7.182-4.795l2.304-0.29c6.522-0.758 6.723-2.645 6.663-8.038 0.06-5.394-0.14-7.28-6.663-8.04l-2.304-0.289c-4.23-0.665-6.145-0.792-7.182-4.794-0.06-0.269-0.12-0.536-0.183-0.803-0.014-0.063-0.029-0.119-0.041-0.184l-2e-3 8e-3a59.65 59.65 0 0 0-0.809-3l0.012 0.01c-0.057-0.165-0.102-0.316-0.15-0.472-0.047-0.15-0.09-0.3-0.137-0.45-1.129-4.021 0.467-5.085 3.81-7.787l1.852-1.404c5.268-3.918 4.496-5.65 1.748-10.291-1.819-3.232-2.914-4.968-5.38-4.89-1.12 0.034-2.524 0.445-4.407 1.26l-2.141 0.9c-4.303 1.656-5.967 2.518-9.305-1.303l0.024 0.101a60.963 60.963 0 0 0-2.309-2.306l0.102 0.021c-3.821-3.337-2.96-5.002-1.303-9.305l0.902-2.14c2.604-6.028 1.07-7.142-3.63-9.787-2.321-1.375-3.915-2.255-5.419-2.133-1.503 0.122-2.916 1.246-4.875 3.88l-1.404 1.852c-2.702 3.343-3.766 4.939-7.787 3.81l-0.45-0.136c-0.156-0.049-0.306-0.092-0.472-0.148l0.01 0.01c-0.99-0.294-1.99-0.565-3-0.809l8e-3 -2e-3c-0.065-0.013-0.12-0.028-0.183-0.04a59.969 59.969 0 0 0-0.803-0.184c-4.002-1.037-4.13-2.952-4.795-7.182l-0.29-2.305c-0.758-6.522-2.644-6.722-8.038-6.662zm-0.012 30.994h0.012c5.065 0 9.96 0.875 14.535 2.48a12 12 0 0 0 5.465 6.88 12 12 0 0 0 8.67 1.29c7.203 6.191 12.43 14.704 14.44 24.55a4 4 0 0 1-3.92 4.8h-12.38a4 4 0 0 1-3.833-2.857 23.967 23.967 0 0 0-22.967-17.141c-1.866 0.01-3.725 0.235-5.537 0.676a4 4 0 0 1-4.409-1.887l-6.18-10.701a4 4 0 0 1 2.19-5.791 43.99 43.99 0 0 1 13.914-2.299zm-26.306 10.096a4 4 0 0 1 3.277 1.996l6.18 10.701a4 4 0 0 1-0.56 4.752 23.995 23.995 0 0 0-6.579 16.457 23.995 23.995 0 0 0 6.568 16.47 4 4 0 0 1 0.56 4.75l-6.161 10.676a4 4 0 0 1-6.115 0.997 43.998 43.998 0 0 1-14.063-24.74 12 12 0 0 0 3.211-8.155 12 12 0 0 0-3.213-8.15 43.996 43.996 0 0 1 14.057-24.754 4 4 0 0 1 2.838-1zm53.138 37.904h12.328a4 4 0 0 1 3.92 4.8c-2.008 9.84-7.23 18.35-14.427 24.54a12 12 0 0 0-2.924-0.303 12 12 0 0 0-5.717 1.604 12 12 0 0 0-5.453 6.861 43.84 43.84 0 0 1-14.563 2.498c-4.73-0.019-9.425-0.8-13.906-2.314a4 4 0 0 1-2.185-5.79l6.17-10.687a4 4 0 0 1 4.408-1.887 24.02 24.02 0 0 0 5.54 0.676 23.966 23.966 0 0 0 22.975-17.14 4 4 0 0 1 3.834-2.858z" fill="url(#j)" filter="url(#i)" opacity=".2"/>
    <path d="m33.223 243.4c-1.427-0.015-1.926 0.038-2.127 1.763l-0.076 0.61c-0.176 1.119-0.21 1.626-1.269 1.9l-0.212 0.049-0.049 0.01 2e-3 1e-3c-0.267 0.064-0.532 0.136-0.794 0.214l3e-3 -3e-3 -0.125 0.04-0.119 0.036c-1.064 0.298-1.345-0.124-2.06-1.008l-0.372-0.49c-0.518-0.697-0.891-0.995-1.29-1.027a0.95 0.95 0 0 0-0.15 0c-0.356 0.028-0.745 0.246-1.283 0.564-1.243 0.7-1.65 0.995-0.96 2.59l0.238 0.566c0.438 1.139 0.666 1.579-0.345 2.462l0.027-6e-3c-0.209 0.198-0.412 0.402-0.61 0.61l6e-3 -0.026c-0.883 1.01-1.324 0.783-2.462 0.345l-0.567-0.24c-0.498-0.214-0.87-0.323-1.166-0.332-0.652-0.02-0.942 0.438-1.423 1.294-0.727 1.228-0.932 1.686 0.462 2.723l0.49 0.371c0.885 0.715 1.307 0.997 1.008 2.06l-0.036 0.12c-0.013 0.041-0.024 0.081-0.039 0.125l3e-3 -3e-3c-0.078 0.262-0.15 0.526-0.214 0.793v-2e-3l-0.012 0.05c-0.017 0.07-0.032 0.14-0.048 0.211-0.275 1.06-0.781 1.093-1.9 1.27l-0.61 0.076c-1.726 0.2-1.779 0.7-1.763 2.127-0.016 1.427 0.037 1.926 1.763 2.127l0.61 0.076c1.119 0.176 1.625 0.21 1.9 1.269 0.016 0.07 0.031 0.142 0.048 0.212l0.011 0.049v-2e-3c0.065 0.267 0.137 0.532 0.215 0.794l-4e-3 -3e-3c0.015 0.043 0.027 0.083 0.04 0.125l0.036 0.118c0.299 1.064-0.123 1.346-1.008 2.06l-0.49 0.372c-1.394 1.037-1.19 1.495-0.462 2.723 0.7 1.244 0.995 1.65 2.59 0.96l0.566-0.237c1.138-0.439 1.579-0.667 2.462 0.344l-7e-3 -0.027c0.198 0.21 0.402 0.413 0.611 0.61l-0.027-5e-3c1.011 0.883 0.783 1.323 0.345 2.462l-0.239 0.566c-0.689 1.595-0.283 1.89 0.96 2.59 1.229 0.727 1.688 0.93 2.724-0.463l0.372-0.49c0.715-0.884 0.996-1.307 2.06-1.008l0.119 0.036 0.125 0.04-3e-3 -3e-3c0.262 0.078 0.527 0.15 0.794 0.214h-2e-3l0.049 0.011 0.212 0.049c1.059 0.274 1.093 0.78 1.269 1.9l0.076 0.61c0.201 1.725 0.7 1.778 2.127 1.762 1.427 0.016 1.927-0.037 2.127-1.762l0.077-0.61c0.176-1.12 0.21-1.626 1.268-1.9l0.213-0.049 0.048-0.01-2e-3 -1e-3c0.268-0.065 0.532-0.136 0.794-0.214l-3e-3 3e-3 0.125-0.04 0.12-0.036c1.063-0.299 1.345 0.124 2.06 1.008l0.371 0.49c1.037 1.394 1.495 1.19 2.723 0.462 1.244-0.7 1.65-0.994 0.96-2.59l-0.238-0.565c-0.438-1.139-0.666-1.58 0.345-2.462l-0.027 6e-3c0.21-0.198 0.413-0.402 0.61-0.611l-5e-3 0.027c0.883-1.011 1.323-0.783 2.462-0.345l0.566 0.239c1.595 0.689 1.89 0.283 2.59-0.96 0.727-1.229 0.931-1.688-0.463-2.724l-0.49-0.372c-0.884-0.715-1.306-0.996-1.008-2.06l0.036-0.119 0.04-0.125-3e-3 3e-3c0.078-0.262 0.15-0.526 0.214-0.794v2e-3l0.011-0.048 0.049-0.213c0.274-1.059 0.78-1.092 1.9-1.268l0.61-0.077c1.725-0.2 1.778-0.7 1.762-2.127 0.016-1.427-0.037-1.926-1.762-2.127l-0.61-0.076c-1.12-0.177-1.626-0.21-1.9-1.27l-0.049-0.211-0.01-0.05-1e-3 3e-3a15.777 15.777 0 0 0-0.214-0.794l3e-3 3e-3 -0.04-0.125-0.036-0.119c-0.298-1.064 0.124-1.345 1.008-2.06l0.49-0.372c1.394-1.036 1.19-1.494 0.463-2.722-0.482-0.856-0.771-1.315-1.424-1.294-0.296 9e-3 -0.668 0.118-1.166 0.333l-0.566 0.238c-1.139 0.438-1.58 0.666-2.462-0.345l6e-3 0.027a16.133 16.133 0 0 0-0.61-0.61l0.026 6e-3c-1.01-0.883-0.783-1.323-0.345-2.462l0.24-0.566c0.688-1.595 0.282-1.89-0.961-2.59-0.614-0.363-1.036-0.596-1.434-0.564s-0.772 0.33-1.29 1.027l-0.371 0.49c-0.715 0.884-0.997 1.306-2.06 1.008l-0.12-0.036-0.125-0.04 3e-3 3e-3c-0.262-0.077-0.526-0.149-0.794-0.214h2e-3l-0.048-0.01c-0.07-0.018-0.142-0.034-0.213-0.05-1.059-0.274-1.092-0.78-1.268-1.9l-0.077-0.61c-0.2-1.725-0.7-1.778-2.127-1.762zm-3e-3 8.201h3e-3c1.34 0 2.636 0.231 3.846 0.656a3.175 3.175 0 0 0 1.446 1.82 3.175 3.175 0 0 0 2.294 0.342 11.614 11.614 0 0 1 3.82 6.495 1.058 1.058 0 0 1-1.037 1.27h-3.275c-0.468 0-0.88-0.307-1.015-0.756a6.341 6.341 0 0 0-6.076-4.535 6.371 6.371 0 0 0-1.465 0.179 1.058 1.058 0 0 1-1.167-0.5l-1.635-2.83a1.058 1.058 0 0 1 0.58-1.533 11.64 11.64 0 0 1 3.681-0.608zm-6.96 2.671c0.36 0.017 0.687 0.216 0.867 0.528l1.635 2.832c0.234 0.405 0.174 0.917-0.148 1.257a6.349 6.349 0 0 0-1.74 4.354 6.349 6.349 0 0 0 1.737 4.358c0.322 0.34 0.382 0.851 0.148 1.257l-1.63 2.824a1.058 1.058 0 0 1-1.618 0.264 11.641 11.641 0 0 1-3.72-6.546 3.175 3.175 0 0 0 0.849-2.157 3.175 3.175 0 0 0-0.85-2.157 11.64 11.64 0 0 1 3.719-6.55c0.206-0.182 0.476-0.277 0.75-0.264zm14.06 10.029h3.261c0.67 0 1.171 0.614 1.037 1.27a11.615 11.615 0 0 1-3.817 6.493 3.175 3.175 0 0 0-0.774-0.08 3.175 3.175 0 0 0-1.512 0.424 3.175 3.175 0 0 0-1.443 1.815 11.6 11.6 0 0 1-3.848 0.661h-5e-3a11.642 11.642 0 0 1-3.68-0.612 1.058 1.058 0 0 1-0.578-1.532l1.633-2.827c0.235-0.407 0.71-0.61 1.166-0.5 0.48 0.117 0.972 0.176 1.466 0.18a6.341 6.341 0 0 0 6.079-4.536 1.058 1.058 0 0 1 1.014-0.756z" fill="url(#k)"/>
    <path d="m33.223 249.49c-6.51 0-11.965 4.53-13.391 10.607a3.175 3.175 0 0 1 1.958 0.994 11.64 11.64 0 0 1 3.719-6.55 1.058 1.058 0 0 1 1.618 0.264l1.635 2.832c0.234 0.405 0.174 0.917-0.148 1.257a6.349 6.349 0 0 0-1.74 4.354 6.349 6.349 0 0 0 1.737 4.358c0.322 0.34 0.382 0.851 0.148 1.257l-1.63 2.824a1.058 1.058 0 0 1-1.618 0.264 11.641 11.641 0 0 1-3.72-6.546 3.175 3.175 0 0 1-1.959 0.994c1.426 6.077 6.88 10.607 13.391 10.607 1.38 0 2.712-0.205 3.969-0.584a3.175 3.175 0 0 1-0.12-2.194 11.6 11.6 0 0 1-3.848 0.661h-5e-3a11.642 11.642 0 0 1-3.68-0.612 1.058 1.058 0 0 1-0.578-1.532l1.633-2.827c0.235-0.407 0.71-0.61 1.166-0.5 0.48 0.117 0.972 0.176 1.466 0.18a6.341 6.341 0 0 0 6.079-4.536 1.058 1.058 0 0 1 1.014-0.756h3.262c0.67 0 1.171 0.614 1.037 1.27a11.615 11.615 0 0 1-3.817 6.493 3.175 3.175 0 0 1 1.845 1.197 13.717 13.717 0 0 0 4.335-10.018c0-3.95-1.669-7.51-4.337-10.02a3.175 3.175 0 0 1-1.835 1.196 11.614 11.614 0 0 1 3.82 6.495 1.058 1.058 0 0 1-1.037 1.27h-3.275c-0.468 0-0.88-0.307-1.015-0.756a6.341 6.341 0 0 0-6.076-4.535 6.371 6.371 0 0 0-1.465 0.179 1.058 1.058 0 0 1-1.167-0.5l-1.635-2.83a1.058 1.058 0 0 1 0.58-1.533 11.64 11.64 0 0 1 3.681-0.608h3e-3c1.34 0 2.636 0.231 3.846 0.656a3.175 3.175 0 0 1 0.121-2.19 13.743 13.743 0 0 0-3.967-0.583zm0 9.524a4.233 4.233 0 0 1 4.234 4.234 4.233 4.233 0 0 1-4.234 4.233 4.233 4.233 0 0 1-4.233-4.233 4.233 4.233 0 0 1 4.233-4.234z" opacity=".1"/>
    <path d="m40.027 249.75a1.587 1.587 0 0 0-1.3 0.792 1.587 1.587 0 0 0 0.582 2.168 1.587 1.587 0 0 0 2.168-0.58 1.587 1.587 0 0 0-0.58-2.17 1.587 1.587 0 0 0-0.87-0.21zm-20.562 11.913a1.587 1.587 0 0 0-1.588 1.588 1.587 1.587 0 0 0 1.588 1.587 1.587 1.587 0 0 0 1.587-1.587 1.587 1.587 0 0 0-1.587-1.588zm20.6 11.916a1.587 1.587 0 0 0-0.756 0.212 1.587 1.587 0 0 0-0.581 2.168 1.587 1.587 0 0 0 2.168 0.581 1.587 1.587 0 0 0 0.581-2.168 1.587 1.587 0 0 0-1.412-0.793z" fill="#ebdbb2"/>
  </g>
</svg>
