<svg width="256" height="256" style="isolation:isolate" version="1.1" xmlns="http://www.w3.org/2000/svg">
  <g transform="translate(.007136 -.1198)" filter="url(#a)">
    <linearGradient id="b" x1=".5002" x2=".5002" y2="1" gradientTransform="matrix(244,0,0,228,5.981,12.12)" gradientUnits="userSpaceOnUse">
      <stop stop-color="#ebdbb2" offset="0"/>
      <stop stop-color="#ebdbb2" offset="1"/>
    </linearGradient>
    <path d="m165 12.12c72 0 85 15 85 87v56c0 70-13 85-85 85h-74c-72 0-85-15-85-85v-56c0-72 13-87 85-87z" fill="url(#b)"/>
  </g>
  <defs>
    <linearGradient id="linearGradient31" x1=".5002" x2=".5002" y2="1" gradientTransform="matrix(244,0,0,228,5.988,12.12)" gradientUnits="userSpaceOnUse">
      <stop stop-color="#d5c4a1" offset="0"/>
      <stop stop-color="#d5c4a1" stop-opacity=".09804" offset=".1"/>
      <stop stop-color="#282828" stop-opacity=".1" offset=".9"/>
      <stop stop-color="#282828" stop-opacity=".4" offset="1"/>
    </linearGradient>
  </defs>
  <g transform="translate(.007189 -.1198)" opacity=".5">
    <path d="m91 12.12c-72 0-85 15-85 87v56c0 70 13 85 85 85h74c72 0 85-15 85-85v-56c0-72-13-87-85-87zm0 4h74c68 0 80 15 80 83v56c0 66-12 81-80 81h-74c-68 0-80-15-80-81v-56c0-68 12-83 80-83z" fill="url(#linearGradient31)" opacity="1"/>
  </g>
  <path d="m81.46 149.3c0 9.346-7.554 16.9-16.9 16.9-9.346 0-16.9-7.554-16.9-16.9s7.554-16.9 16.9-16.9h16.9zm8.45 0c0-9.346 7.554-16.9 16.9-16.9 9.346 0 16.9 7.554 16.9 16.9v42.25c0 9.346-7.554 16.9-16.9 16.9-9.346 0-16.9-7.554-16.9-16.9z" fill="#cc241d" stroke-width="1.28"/>
  <path d="m106.8 81.4c-9.346 0-16.9-7.554-16.9-16.9s7.554-16.9 16.9-16.9c9.346 0 16.9 7.554 16.9 16.9v16.9zm0 8.578c9.346 0 16.9 7.554 16.9 16.9 0 9.346-7.554 16.9-16.9 16.9h-42.38c-9.346 0-16.9-7.554-16.9-16.9 0-9.346 7.554-16.9 16.9-16.9z" fill="#83a598" stroke-width="1.28"/>
  <path d="m174.5 106.9c0-9.346 7.554-16.9 16.9-16.9s16.9 7.554 16.9 16.9c0 9.346-7.554 16.9-16.9 16.9h-16.9zm-8.45 0c0 9.346-7.554 16.9-16.9 16.9s-16.9-7.554-16.9-16.9v-42.38c0-9.346 7.554-16.9 16.9-16.9s16.9 7.554 16.9 16.9z" fill="#689d6a" stroke-width="1.28"/>
  <path d="m149.2 174.6c9.346 0 16.9 7.554 16.9 16.9s-7.554 16.9-16.9 16.9-16.9-7.554-16.9-16.9v-16.9zm0-8.45c-9.346 0-16.9-7.554-16.9-16.9s7.554-16.9 16.9-16.9h42.38c9.346 0 16.9 7.554 16.9 16.9s-7.554 16.9-16.9 16.9z" fill="#fabd2f" stroke-width="1.28"/>
</svg>
