<svg width="256" height="256" style="isolation:isolate" version="1.1" viewBox="0 0 256 256" xmlns="http://www.w3.org/2000/svg">
  <g filter="url(#zjXZJLJ9gmpNROECVpJeWCwzlz3l0uZv)">
    <linearGradient id="_lgradient_403" x1=".51" x2=".512" y1="1.06" y2=".218" gradientTransform="matrix(244.65 0 0 228.34 5.676 11.947)" gradientUnits="userSpaceOnUse">
      <stop stop-color="#458588" offset="0"/>
      <stop stop-color="#458588" offset="1"/>
    </linearGradient>
    <path d="m165.68 11.947c74.055 0 84.639 10.557 84.639 84.544v59.251c0 73.986-10.584 84.543-84.639 84.543h-75.37c-74.055 0-84.639-10.557-84.639-84.543v-59.251c0-73.987 10.584-84.544 84.639-84.544h75.37z" fill="url(#_lgradient_403)"/>
  </g>
  <defs>
    <filter id="zjXZJLJ9gmpNROECVpJeWCwzlz3l0uZv" x="-.042124" y="-.045133" width="1.0842" height="1.1078" color-interpolation-filters="sRGB">
      <feGaussianBlur in="SourceGraphic" stdDeviation="4.294"/>
      <feOffset dx="0" dy="4" result="pf_100_offsetBlur"/>
      <feFlood flood-opacity=".4"/>
      <feComposite in2="pf_100_offsetBlur" operator="in" result="pf_100_dropShadow"/>
      <feBlend in="SourceGraphic" in2="pf_100_dropShadow"/>
    </filter>
  </defs>
  <g opacity=".1">
    <path d="m183.35 12.212c58.127 2.009 66.975 16.629 66.975 84.279v59.251c0 73.986-10.584 84.543-84.639 84.543h-75.37c-61.096 0-78.991-7.185-83.383-51.245 4.973-6.112 176.89-173.77 176.42-176.83z" fill="#ebdbb2"/>
  </g>
  <g filter="url(#5qEFZLYCMrEka4o6PYnPBdGjxprraxXX)">
    <clipPath id="_clipPath_xt2P3qG1GopvvuWllPTYYxlXUgllhJXR">
      <path d="m91.697 61.745c-11.35 0.13-19.655-0.257-26.446 3.473-3.395 1.866-6.09 5.008-7.576 8.948-1.485 3.941-2.008 8.62-2.008 14.528v37.728h144.33v-23.356c0-5.907-0.523-10.587-2.009-14.527-0.184-0.49-0.432-0.934-0.669-1.386-0.09-0.166-0.161-0.342-0.247-0.509-1.558-3.043-3.838-5.52-6.66-7.07-6.791-3.731-15.096-3.326-26.445-3.457h-36.436l-14.627-14.372h-21.21z" fill="#ebdbb2"/>
    </clipPath>
    <g clip-path="url(#_clipPath_xt2P3qG1GopvvuWllPTYYxlXUgllhJXR)">
      <defs>
        <filter id="MFGgwiJe2FsvjZzn7G29ERNzB2xlOerf" x="-.023945" y="-.030057" width="1.0479" height="1.0601" color-interpolation-filters="sRGB">
          <feGaussianBlur stdDeviation="1.44"/>
        </filter>
      </defs>
      <g filter="url(#MFGgwiJe2FsvjZzn7G29ERNzB2xlOerf)" opacity=".2">
        <path d="m163.97 76.117c11.349 0.13 19.654-0.257 26.445 3.474 3.396 1.866 6.091 5.008 7.576 8.948 1.486 3.94 2.009 8.62 2.009 14.527v61.085c0 5.907-0.523 10.587-2.009 14.527-1.485 3.94-4.18 7.1-7.576 8.965-6.791 3.731-15.096 3.326-26.445 3.457h-72.275c-11.35-0.131-19.655 0.274-26.446-3.457-3.396-1.865-6.091-5.025-7.576-8.965-1.483-3.94-2.006-8.62-2.006-14.527v-46.712c0-5.907 0.523-10.587 2.008-14.527 0.185-0.49 0.432-0.934 0.67-1.386 0.09-0.166 0.16-0.342 0.246-0.509 1.558-3.043 3.838-5.52 6.66-7.071 6.791-3.731 15.096-3.325 26.446-3.456h22.003l14.627-14.373h35.643z"/>
      </g>
    </g>
    <path d="m91.697 61.745c-11.35 0.13-19.655-0.258-26.446 3.474-3.395 1.865-6.09 5.007-7.576 8.947-1.485 3.941-2.008 8.62-2.008 14.528v37.728h144.33v-23.356c0-5.907-0.523-10.587-2.009-14.527-0.184-0.49-0.432-0.934-0.669-1.386-0.09-0.166-0.161-0.342-0.247-0.509-1.558-3.043-3.838-5.52-6.66-7.07-6.791-3.731-15.096-3.326-26.446-3.457h-36.435l-14.627-14.372h-21.21z" fill="#076678"/>
    <path d="m163.97 76.117c11.349 0.13 19.654-0.257 26.445 3.474 3.396 1.866 6.091 5.008 7.576 8.948 1.486 3.94 2.009 8.62 2.009 14.527v61.084c0 5.908-0.523 10.588-2.009 14.528-1.485 3.94-4.18 7.1-7.576 8.965-6.791 3.731-15.096 3.326-26.445 3.457h-72.275c-11.35-0.131-19.655 0.274-26.446-3.457-3.396-1.865-6.091-5.025-7.576-8.965-1.483-3.94-2.006-8.62-2.006-14.528v-46.711c0-5.907 0.523-10.587 2.008-14.527 0.185-0.49 0.432-0.934 0.67-1.386 0.09-0.166 0.16-0.342 0.246-0.509 1.558-3.043 3.838-5.52 6.66-7.071 6.791-3.731 15.096-3.325 26.446-3.456h22.002l14.627-14.373h35.644z" fill="#83a598"/>
    <g opacity=".4">
      <path d="m91.697 61.745c-11.35 0.13-19.655-0.258-26.446 3.474-3.395 1.865-6.09 5.007-7.576 8.947-1.485 3.941-2.008 8.62-2.008 14.528v1.796c0-5.907 0.523-10.587 2.008-14.527 1.486-3.94 4.181-7.082 7.576-8.948 6.791-3.731 15.096-3.344 26.446-3.474h21.209l14.109 13.864 1.311-1.288h-0.793l-14.627-14.372h-21.209z" fill="#ebdbb2"/>
    </g>
    <path d="m128.33 74.361-14.627 14.373h-22.003c-11.35 0.131-19.654-0.275-26.446 3.457-2.821 1.55-5.102 4.027-6.659 7.07-0.086 0.167-0.157 0.343-0.247 0.509-0.238 0.45201-0.485 0.89601-0.67 1.386-1.485 3.94-2.008 8.62-2.008 14.527v1.797c0-5.907 0.523-10.587 2.008-14.527 0.185-0.49 0.432-0.935 0.67-1.386 0.09-0.166 0.161-0.342 0.247-0.509 1.557-3.043 3.838-5.521 6.659-7.071 6.792-3.731 15.096-3.326 26.446-3.456h22.003l14.627-14.373h35.642c11.35 0.13 19.655-0.257 26.446 3.474 3.395 1.865 6.091 5.008 7.576 8.948s2.008 8.62 2.008 14.527v-1.797c0-5.907-0.523-10.587-2.008-14.527s-4.181-7.082-7.576-8.948c-6.791-3.731-15.096-3.343-26.446-3.474z" fill="#458588"/>
  </g>
  <defs>
    <filter id="5qEFZLYCMrEka4o6PYnPBdGjxprraxXX" x="-.071402" y="-.079669" width="1.1428" height="1.1903" color-interpolation-filters="sRGB">
      <feGaussianBlur in="SourceGraphic" stdDeviation="4.294"/>
      <feOffset dx="0" dy="4" result="pf_100_offsetBlur"/>
      <feFlood flood-opacity=".4"/>
      <feComposite in2="pf_100_offsetBlur" operator="in" result="pf_100_dropShadow"/>
      <feBlend in="SourceGraphic" in2="pf_100_dropShadow"/>
    </filter>
  </defs>
  <g opacity=".1">
    <path d="m152.6 110.68c22.64 0 41.053 18.413 41.053 41.052 0 9.872-3.502 18.939-9.328 26.027l3.913 3.913 0.967-0.968 21.553 21.553-7.741 7.74-21.553-21.552 0.968-0.968-3.926-3.925c-7.07 5.767-16.089 9.233-25.906 9.233-22.639 0-41.052-18.413-41.052-41.053 0-22.639 18.413-41.052 41.052-41.052zm0 5.566c-19.631 0-35.486 15.855-35.486 35.486 0 19.632 15.855 35.487 35.486 35.487 19.632 0 35.487-15.855 35.487-35.487 0-19.631-15.855-35.486-35.487-35.486z"/>
  </g>
  <g opacity=".3">
    <g opacity=".3">
      <linearGradient id="_lgradient_404" x1="-.082" x2=".966" y1=".985" y2=".985" gradientTransform="matrix(99.21 0 0 99.317 111.55 110.68)" gradientUnits="userSpaceOnUse">
        <stop stop-color="#282828" offset="0"/>
        <stop stop-color="#282828" offset=".41786"/>
        <stop stop-color="#282828" offset=".966"/>
      </linearGradient>
      <path d="m152.6 110.68c22.64 0 41.053 18.413 41.053 41.052 0 9.872-3.502 18.939-9.328 26.027l3.913 3.913 0.967-0.968 21.553 21.553-7.741 7.74-21.553-21.552 0.968-0.968-3.926-3.925c-7.07 5.767-16.089 9.233-25.906 9.233-22.639 0-41.052-18.413-41.052-41.053 0-22.639 18.413-41.052 41.052-41.052zm0 5.566c-19.631 0-35.486 15.855-35.486 35.486 0 19.632 15.855 35.487 35.486 35.487 19.632 0 35.487-15.855 35.487-35.487 0-19.631-15.855-35.486-35.487-35.486z" fill="url(#_lgradient_404)"/>
    </g>
  </g>
  <path d="m176.97 181.32 5.806-5.806 8.208 8.209-5.805 5.806-8.209-8.209z" fill="#b16286"/>
  <path d="m181.47 187.76 7.739-7.74 21.553 21.553-7.739 7.739-21.553-21.552z" fill="#8f3f71"/>
  <circle cx="152.6" cy="151.05" r="38.27" fill="#ebdbb2" opacity=".5" vector-effect="non-scaling-stroke"/>
  <path d="m152.61 192.1c-5.4876 6e-3 -10.92-1.092-15.975-3.228-4.8761-2.0645-9.3068-5.0527-13.048-8.8-3.7442-3.7437-6.732-8.1738-8.8-13.048-2.136-5.0548-3.2338-10.487-3.228-15.975-5e-3 -5.4875 1.0927-10.92 3.228-15.975 2.068-4.8742 5.0558-9.3043 8.8-13.048 3.7412-3.747 8.172-6.7349 13.048-8.799 5.0546-2.1368 10.487-3.235 15.975-3.229 5.4876-5e-3 10.92 1.0929 15.975 3.229 9.84 4.1736 17.673 12.007 21.847 21.847 2.1366 5.0546 3.2347 10.487 3.229 15.975 6e-3 5.4877-1.0922 10.92-3.229 15.975-4.1734 9.8403-12.007 17.674-21.847 21.848-5.055 2.1353-10.488 3.233-15.975 3.228zm0-5.564h-7e-3c-4.739 0-9.43-0.946-13.8-2.792-4.2149-1.7862-8.0458-4.3683-11.283-7.605-3.2366-3.2385-5.8205-7.069-7.611-11.283-1.8431-4.3696-2.7905-9.0646-2.786-13.807-5e-3 -4.7431 0.94423-9.4387 2.792-13.807 3.6049-8.5093 10.379-15.283 18.888-18.887 4.3693-1.8449 9.0642-2.7946 13.807-2.793 4.739 0 9.437 0.947 13.807 2.793 4.2129 1.7856 8.0416 4.3674 11.276 7.604 3.2409 3.235 5.8254 7.0664 7.611 11.283 1.8442 4.3695 2.7939 9.0643 2.793 13.807 0 4.746-0.947 9.437-2.793 13.807-1.7854 4.2168-4.3699 8.0482-7.611 11.283-3.2346 3.2366-7.0632 5.8187-11.276 7.605-4.3694 1.8445-9.0643 2.7939-13.807 2.792z" fill="#282828" fill-rule="evenodd"/>
  <circle cx="141.66" cy="140.1" r="13.684" fill="#d5c4a1" vector-effect="non-scaling-stroke"/>
  <g opacity=".4">
    <linearGradient id="_lgradient_405" x1=".517" x2=".517" y2="1" gradientTransform="matrix(244.65,0,0,228.34,5.68,11.95)" gradientUnits="userSpaceOnUse">
      <stop stop-color="#ebdbb2" offset="0"/>
      <stop stop-color="#ebdbb2" stop-opacity=".098" offset=".125"/>
      <stop stop-color="#282828" stop-opacity=".098" offset=".925"/>
      <stop stop-color="#282828" stop-opacity=".498" offset="1"/>
    </linearGradient>
    <path d="m165.07 11.951c4.328-0.009825 8.6559 0.039299 12.984 0.13755 3.8755 0.078598 7.751 0.22597 11.626 0.45194 3.4525 0.1965 6.9051 0.48141 10.348 0.85476 3.0591 0.33404 6.1182 0.78598 9.1477 1.346 2.7148 0.50106 5.4001 1.1397 8.0461 1.9158 2.4 0.69756 4.7509 1.5621 7.0231 2.5839 2.1148 0.94318 4.1411 2.0632 6.0591 3.3502 1.8394 1.2379 3.5607 2.6527 5.1345 4.2148 1.564 1.572 2.9804 3.2815 4.2198 5.1187 1.2886 1.9158 2.4099 3.9397 3.364 6.0422 1.023 2.2793 1.8886 4.6176 2.5968 7.0051 0.77706 2.6429 1.4164 5.325 1.9181 8.0367 0.56066 3.026 1.0131 6.0717 1.3476 9.1272 0.37378 3.4387 0.65903 6.8773 0.85575 10.326 0.22624 3.8611 0.37378 7.7321 0.46231 11.593 0.088537 4.3229 0.13771 8.6458 0.12788 12.959v58.212c0.009831 4.3229-0.039339 8.636-0.12788 12.959-0.088523 3.871-0.23606 7.7321-0.46231 11.593-0.19672 3.4485-0.48197 6.897-0.85575 10.326-0.33443 3.0555-0.7869 6.111-1.3476 9.137-0.50166 2.7018-1.141 5.384-1.9181 8.0269-0.70821 2.3874-1.5738 4.7355-2.5968 7.0051-0.9541 2.1123-2.0754 4.1264-3.364 6.0422-1.2394 1.8372-2.6558 3.5566-4.2198 5.1187-1.5738 1.5621-3.2952 2.9769-5.1345 4.2148-1.9181 1.287-3.9443 2.4071-6.0591 3.3502-2.2722 1.0218-4.623 1.8864-7.0231 2.5937-2.646 0.77616-5.3313 1.4148-8.0461 1.906-3.0296 0.56984-6.0886 1.012-9.1477 1.346-3.4427 0.37333-6.8952 0.65826-10.348 0.85475-3.8755 0.22597-7.751 0.37335-11.626 0.46177-4.328 0.088419-8.6559 0.13755-12.984 0.12773h-74.126c-4.328 0.009819-8.6559-0.039308-12.984-0.12773-3.8755-0.08842-7.751-0.2358-11.626-0.46177-3.4525-0.19649-6.9051-0.48142-10.348-0.85475-3.0591-0.33405-6.1182-0.77616-9.1477-1.346-2.7148-0.49124-5.4001-1.1298-8.0461-1.906-2.4-0.70737-4.7509-1.572-7.0231-2.5937-2.1148-0.94317-4.1411-2.0632-6.0591-3.3502-1.8394-1.2379-3.5607-2.6527-5.1345-4.2148-1.564-1.5621-2.9804-3.2815-4.2198-5.1187-1.2886-1.9158-2.4099-3.9299-3.364-6.0422-1.023-2.2695-1.8886-4.6176-2.5968-7.0051-0.77706-2.6429-1.4164-5.325-1.9181-8.0269-0.56067-3.026-1.0131-6.0815-1.3476-9.137-0.37378-3.4289-0.65903-6.8773-0.85576-10.326-0.22623-3.8611-0.37378-7.7223-0.4623-11.593-0.088526-4.3229-0.13771-8.636-0.12787-12.959v-58.212c-0.009836-4.3131 0.039345-8.636 0.12787-12.959 0.088527-3.8611 0.23607-7.7321 0.4623-11.593 0.19672-3.4485 0.48198-6.8872 0.85576-10.326 0.33443-3.0555 0.7869-6.1012 1.3476-9.1272 0.50165-2.7116 1.141-5.3938 1.9181-8.0367 0.70821-2.3874 1.5738-4.7257 2.5968-7.0051 0.95412-2.1025 2.0755-4.1264 3.364-6.0422 1.2394-1.8372 2.6558-3.5467 4.2198-5.1187 1.5738-1.5621 3.2951-2.9769 5.1345-4.2148 1.9181-1.287 3.9443-2.4071 6.0591-3.3502 2.2722-1.0218 4.623-1.8864 7.0231-2.5839 2.646-0.77616 5.3313-1.4148 8.0461-1.9158 3.0296-0.56001 6.0886-1.012 9.1477-1.346 3.4427-0.37334 6.8952-0.65826 10.348-0.85476 3.8755-0.22597 7.751-0.37334 11.626-0.45194 4.3279-0.098248 8.6559-0.14737 12.984-0.13755h74.126zm0.009846 4.0085c4.2984-0.009825 8.5969 0.039299 12.895 0.12772 3.8263 0.088423 7.6526 0.23579 11.479 0.45194 3.3837 0.1965 6.7674 0.47159 10.131 0.84493 2.9705 0.31439 5.9313 0.74668 8.8625 1.2969 2.5771 0.47159 5.1345 1.0807 7.6526 1.8176 2.223 0.64844 4.3968 1.4541 6.5018 2.3972 1.9082 0.85476 3.7378 1.8667 5.469 3.026 1.623 1.0906 3.1378 2.3383 4.5247 3.7236s2.6361 2.8983 3.7378 4.5194c1.1607 1.7292 2.1738 3.5467 3.0296 5.4429 0.94427 2.1123 1.7509 4.2836 2.4 6.4942 0.74756 2.5151 1.3476 5.0598 1.8295 7.6338 0.541 2.9278 0.9738 5.8752 1.2984 8.8423 0.37378 3.3601 0.6492 6.73 0.84592 10.11 0.2164 3.8218 0.37378 7.6338 0.45246 11.456 0.088538 4.2934 0.13771 8.577 0.13771 12.87v58.212c0 4.2934-0.049169 8.577-0.13771 12.87-0.078677 3.8218-0.23606 7.6437-0.45246 11.456-0.19672 3.3797-0.47214 6.7496-0.84592 10.12-0.3246 2.9573-0.7574 5.9047-1.2984 8.8325-0.48197 2.5741-1.082 5.1187-1.8295 7.6339-0.64918 2.2204-1.4558 4.3819-2.4 6.4942-0.85576 1.8962-1.8689 3.7236-3.0296 5.4429-1.1017 1.6309-2.3509 3.1439-3.7378 4.5292-1.3869 1.3755-2.9017 2.6232-4.5247 3.7138-1.7312 1.1593-3.5607 2.1713-5.469 3.026-2.105 0.953-4.2788 1.7488-6.5018 2.3972-2.5181 0.73686-5.0755 1.346-7.6526 1.8176-2.9312 0.55018-5.8919 0.98248-8.8625 1.3067-3.364 0.36351-6.7477 0.64844-10.131 0.8351-3.8263 0.21615-7.6526 0.37335-11.479 0.45195-4.2985 0.098254-8.5969 0.13755-12.895 0.13755h-0.009846-74.126-0.009838c-4.2984 0-8.5969-0.039292-12.895-0.13755-3.8263-0.0786-7.6526-0.2358-11.479-0.45195-3.3837-0.18666-6.7673-0.47158-10.131-0.8351-2.9706-0.32422-5.9313-0.75651-8.8625-1.3067-2.5771-0.47158-5.1345-1.0807-7.6526-1.8176-2.223-0.64842-4.3968-1.4442-6.5018-2.3972-1.9082-0.85475-3.7378-1.8667-5.469-3.026-1.623-1.0906-3.1378-2.3383-4.5247-3.7138-1.3869-1.3853-2.6361-2.8983-3.7378-4.5292-1.1607-1.7193-2.1738-3.5467-3.0296-5.4429-0.94428-2.1123-1.7509-4.2738-2.4-6.4942-0.74756-2.5151-1.3476-5.0598-1.8295-7.6339-0.541-2.9278-0.97379-5.8752-1.2984-8.8325-0.37378-3.3699-0.64919-6.7398-0.84592-10.12-0.2164-3.812-0.37378-7.6339-0.45247-11.456-0.088526-4.2934-0.13771-8.577-0.13771-12.87v-58.212c0-4.2934 0.049181-8.577 0.13771-12.87 0.07869-3.8218 0.23607-7.6338 0.45247-11.456 0.19672-3.3797 0.47214-6.7496 0.84592-10.11 0.3246-2.9671 0.75739-5.9145 1.2984-8.8423 0.48198-2.5741 1.082-5.1187 1.8295-7.6338 0.64919-2.2106 1.4558-4.3818 2.4-6.4942 0.85575-1.8962 1.8689-3.7138 3.0296-5.4429 1.1017-1.6211 2.3509-3.1341 3.7378-4.5194s2.9017-2.633 4.5247-3.7236c1.7312-1.1593 3.5607-2.1713 5.469-3.026 2.105-0.94318 4.2788-1.7488 6.5018-2.3972 2.5181-0.73686 5.0755-1.346 7.6526-1.8176 2.9312-0.55019 5.8919-0.98248 8.8625-1.2969 3.364-0.37334 6.7477-0.64843 10.131-0.84493 3.8263-0.21614 7.6526-0.36352 11.479-0.45194 4.2984-0.088423 8.5969-0.13755 12.895-0.12772h0.009838 74.126 0.009846z" fill="url(#_lgradient_405)" fill-rule="evenodd"/>
  </g>
</svg>
