<svg width="256" height="256" style="isolation:isolate" version="1.1" viewBox="0 0 256 256" xmlns="http://www.w3.org/2000/svg">
  <defs>
    <filter id="eXeIHjF2zYgjhzB2lq1zdbb2yao9UKvY" x="-.042124" y="-.045133" width="1.0842" height="1.1078" color-interpolation-filters="sRGB">
      <feGaussianBlur in="SourceGraphic" stdDeviation="4.294"/>
      <feOffset dx="0" dy="4" result="pf_100_offsetBlur"/>
      <feFlood flood-opacity=".4"/>
      <feComposite in2="pf_100_offsetBlur" operator="in" result="pf_100_dropShadow"/>
      <feBlend in="SourceGraphic" in2="pf_100_dropShadow"/>
    </filter>
  </defs>
  <g filter="url(#eXeIHjF2zYgjhzB2lq1zdbb2yao9UKvY)">
    <linearGradient id="_lgradient_186" x1=".5" x2=".5" y1="1" gradientTransform="matrix(244.65 0 0 228.34 5.68 11.95)" gradientUnits="userSpaceOnUse">
      <stop stop-color="#427b58" offset="0"/>
      <stop stop-color="#689d6a" offset="1"/>
    </linearGradient>
    <path d="m165.69 11.95c72.161 0 84.639 10.557 84.639 84.544v59.251c0 73.986-12.048 84.544-84.639 84.544h-75.37c-72.548 0-84.639-10.557-84.639-84.544v-59.251c0-74.401 13.22-84.544 84.639-84.544z" fill="url(#_lgradient_186)"/>
  </g>
  <g opacity=".2">
    <path d="m49.25 218.2h157.5c4.8293 0 8.75-3.9207 8.75-8.75v-157.5c0-4.8293-3.9207-8.75-8.75-8.75h-157.5c-4.8293 0-8.75 3.9207-8.75 8.75v157.5c0 4.8293 3.9207 8.75 8.75 8.75z"/>
  </g>
  <path d="m49.25 214.83h157.5c4.8293 0 8.75-3.9207 8.75-8.75v-157.5c0-4.8293-3.9207-8.75-8.75-8.75h-157.5c-4.8293 0-8.75 3.9207-8.75 8.75v157.5c0 4.8293 3.9207 8.75 8.75 8.75z" fill="#ebdbb2"/>
  <defs>
    <linearGradient id="_lgradient_187" x2="0" y2="1">
      <stop stop-color="#458588" offset="0"/>
      <stop stop-color="#83a598" offset=".5"/>
      <stop stop-color="#458588" offset="1"/>
    </linearGradient>
  </defs>
  <path d="m66.692 194.64h122.62c3.3115 0 6-2.6885 6-6v-95.692c0-3.3115-2.6885-6-6-6h-122.62c-3.3115 0-6 2.6885-6 6v95.692c0 3.3115 2.6885 6 6 6z" fill="url(#_lgradient_187)"/>
  <defs>
    <filter id="6uxokEW1Duj9j67yjO3bS1xfsv24r7Fl" x="-.14522" y="-.13384" width="1.2904" height="1.2677" color-interpolation-filters="sRGB">
      <feGaussianBlur stdDeviation="4.294"/>
    </filter>
  </defs>
  <g filter="url(#6uxokEW1Duj9j67yjO3bS1xfsv24r7Fl)" opacity=".4">
    <path d="m100.95 106v77s39.053-15.785 70.965-38.525c0-0.006934-0.003843-0.011553-0.007698-0.020797-0.004619-0.009244-0.008474-0.017717-0.014632-0.025421-0.006934-0.010008-0.012329-0.016942-0.016172-0.025416-0.004631-0.007704-0.00771-0.016172-0.00771-0.024646-33.661-23.465-70.919-38.379-70.919-38.379z"/>
  </g>
  <linearGradient id="_lgradient_188" x1="-.175" x2="1.266" y1="1.379" y2=".31" gradientTransform="matrix(70.965 0 0 77 100.95 103)" gradientUnits="userSpaceOnUse">
    <stop stop-color="#ebdbb2" offset="0"/>
    <stop stop-color="#bdae93" offset="1"/>
  </linearGradient>
  <path d="m100.95 103v77s39.053-15.785 70.965-38.525c0-0.006934-0.003843-0.011553-0.007698-0.020797-0.004619-0.009244-0.008474-0.017717-0.014632-0.025421-0.006934-0.010008-0.012329-0.016942-0.016172-0.025416-0.004631-0.007704-0.00771-0.016172-0.00771-0.024646-33.661-23.465-70.919-38.379-70.919-38.379z" fill="url(#_lgradient_188)"/>
  <linearGradient id="_lgradient_189" x2="0" y2="1" gradientTransform="matrix(243.02 0 0 56.717 6.4934 11.95)" gradientUnits="userSpaceOnUse">
    <stop stop-color="#504945" offset="0"/>
    <stop stop-color="#3c3836" offset="1"/>
  </linearGradient>
  <path d="m249.51 68.667c-3.9585-47.96-20.31-56.717-83.826-56.717h-75.37c-63.516 0-79.245 8.9842-83.826 56.717z" fill="url(#_lgradient_189)"/>
  <g opacity=".4">
    <linearGradient id="_lgradient_190" x1=".517" x2=".517" y2="1" gradientTransform="matrix(244.65,0,0,228.34,5.68,11.95)" gradientUnits="userSpaceOnUse">
      <stop stop-color="#ebdbb2" offset="0"/>
      <stop stop-color="#ebdbb2" stop-opacity=".098" offset=".125"/>
      <stop stop-color="#282828" stop-opacity=".098" offset=".925"/>
      <stop stop-color="#282828" stop-opacity=".498" offset="1"/>
    </linearGradient>
    <path d="m165.07 11.951c4.328-0.0098 8.6559 0.0393 12.984 0.13755 3.8755 0.0786 7.751 0.22597 11.626 0.45194 3.4525 0.1965 6.9051 0.48141 10.348 0.85476 3.0591 0.33404 6.1182 0.78598 9.1477 1.346 2.7148 0.50106 5.4001 1.1397 8.0461 1.9158 2.4 0.69756 4.7509 1.5621 7.0231 2.5839 2.1148 0.94318 4.1411 2.0632 6.0591 3.3502 1.8394 1.2379 3.5607 2.6527 5.1345 4.2148 1.564 1.572 2.9804 3.2815 4.2198 5.1187 1.2886 1.9158 2.4099 3.9397 3.364 6.0422 1.023 2.2793 1.8886 4.6176 2.5968 7.0051 0.77705 2.6429 1.4164 5.325 1.9181 8.0367 0.56066 3.026 1.0131 6.0717 1.3476 9.1272 0.37378 3.4387 0.65903 6.8773 0.85575 10.326 0.22624 3.8611 0.37378 7.7321 0.4623 11.593 0.0885 4.3229 0.13771 8.6458 0.12788 12.959v58.212c0.01 4.3229-0.0393 8.636-0.12788 12.959-0.0885 3.871-0.23606 7.7321-0.4623 11.593-0.19672 3.4485-0.48197 6.897-0.85575 10.326-0.33443 3.0555-0.78691 6.111-1.3476 9.137-0.50165 2.7018-1.141 5.384-1.9181 8.0268-0.70822 2.3874-1.5738 4.7355-2.5968 7.005-0.95411 2.1123-2.0754 4.1264-3.364 6.0422-1.2394 1.8372-2.6558 3.5566-4.2198 5.1187-1.5738 1.5621-3.2952 2.9769-5.1345 4.2148-1.9181 1.287-3.9443 2.4071-6.0591 3.3502-2.2722 1.0218-4.623 1.8864-7.0231 2.5937-2.646 0.77616-5.3313 1.4148-8.0461 1.906-3.0296 0.56984-6.0886 1.012-9.1477 1.346-3.4427 0.37333-6.8952 0.65826-10.348 0.85475-3.8755 0.22596-7.751 0.37335-11.626 0.46176-4.328 0.0884-8.6559 0.13755-12.984 0.12773h-74.126c-4.328 0.01-8.6559-0.0393-12.984-0.12773-3.8755-0.0884-7.751-0.2358-11.626-0.46176-3.4525-0.19649-6.9051-0.48142-10.348-0.85475-3.0591-0.33406-6.1182-0.77617-9.1477-1.346-2.7148-0.49123-5.4001-1.1298-8.0461-1.906-2.4-0.70737-4.7509-1.572-7.0231-2.5937-2.1148-0.94317-4.1411-2.0632-6.0591-3.3502-1.8394-1.2379-3.5607-2.6527-5.1345-4.2148-1.564-1.5621-2.9804-3.2815-4.2198-5.1187-1.2886-1.9158-2.4099-3.9299-3.364-6.0422-1.023-2.2695-1.8886-4.6176-2.5968-7.005-0.77706-2.6429-1.4164-5.325-1.9181-8.0268-0.56067-3.026-1.0131-6.0815-1.3476-9.137-0.37378-3.4289-0.65903-6.8774-0.85576-10.326-0.22623-3.8611-0.37378-7.7223-0.4623-11.593-0.088526-4.3229-0.13771-8.636-0.12787-12.959v-58.212c-0.009836-4.3131 0.039345-8.636 0.12787-12.959 0.088527-3.8611 0.23607-7.7321 0.4623-11.593 0.19672-3.4485 0.48198-6.8872 0.85576-10.326 0.33443-3.0555 0.7869-6.1012 1.3476-9.1272 0.50165-2.7116 1.141-5.3938 1.9181-8.0367 0.70821-2.3874 1.5738-4.7257 2.5968-7.0051 0.95412-2.1025 2.0755-4.1264 3.364-6.0422 1.2394-1.8372 2.6558-3.5467 4.2198-5.1187 1.5738-1.5621 3.2951-2.9769 5.1345-4.2148 1.9181-1.287 3.9443-2.4071 6.0591-3.3502 2.2722-1.0218 4.623-1.8864 7.0231-2.5839 2.646-0.77616 5.3313-1.4148 8.0461-1.9158 3.0296-0.56001 6.0886-1.012 9.1477-1.346 3.4427-0.37334 6.8952-0.65826 10.348-0.85476 3.8755-0.22597 7.751-0.37334 11.626-0.45194 4.3279-0.09825 8.6559-0.14737 12.984-0.13755zm0.01 4.0085c4.2984-0.0098 8.5969 0.0393 12.895 0.12772 3.8263 0.08842 7.6526 0.23579 11.479 0.45194 3.3837 0.1965 6.7674 0.47159 10.131 0.84493 2.9705 0.31439 5.9313 0.74668 8.8625 1.2969 2.5771 0.47159 5.1345 1.0807 7.6526 1.8176 2.223 0.64844 4.3968 1.4541 6.5018 2.3972 1.9082 0.85476 3.7378 1.8667 5.469 3.026 1.623 1.0906 3.1378 2.3383 4.5247 3.7236s2.6361 2.8983 3.7378 4.5194c1.1607 1.7292 2.1738 3.5467 3.0296 5.4429 0.94428 2.1123 1.7509 4.2836 2.4 6.4942 0.74756 2.5151 1.3476 5.0598 1.8295 7.6338 0.541 2.9278 0.9738 5.8752 1.2984 8.8423 0.37378 3.3601 0.64919 6.73 0.84592 10.11 0.2164 3.8218 0.37378 7.6338 0.45246 11.456 0.0885 4.2934 0.1377 8.577 0.1377 12.87v58.212c0 4.2934-0.0492 8.577-0.1377 12.87-0.0787 3.8218-0.23606 7.6437-0.45246 11.456-0.19673 3.3797-0.47214 6.7496-0.84592 10.12-0.3246 2.9572-0.7574 5.9047-1.2984 8.8325-0.48196 2.5741-1.082 5.1187-1.8295 7.6338-0.64918 2.2204-1.4558 4.3819-2.4 6.4942-0.85576 1.8962-1.8689 3.7236-3.0296 5.4429-1.1017 1.6309-2.3509 3.1439-3.7378 4.5292-1.3869 1.3755-2.9017 2.6232-4.5247 3.7138-1.7312 1.1593-3.5607 2.1713-5.469 3.026-2.105 0.95301-4.2788 1.7488-6.5018 2.3972-2.5181 0.73686-5.0755 1.346-7.6526 1.8176-2.9312 0.55018-5.8919 0.98247-8.8625 1.3067-3.364 0.36351-6.7477 0.64844-10.131 0.8351-3.8263 0.21615-7.6526 0.37335-11.479 0.45195-4.2985 0.0982-8.5969 0.13754-12.895 0.13754h-0.01-74.126-0.0098c-4.2984 0-8.5969-0.0393-12.895-0.13754-3.8263-0.0786-7.6526-0.2358-11.479-0.45195-3.3837-0.18666-6.7673-0.47159-10.131-0.8351-2.9706-0.32422-5.9313-0.75651-8.8625-1.3067-2.5771-0.47159-5.1345-1.0807-7.6526-1.8176-2.223-0.64843-4.3968-1.4442-6.5018-2.3972-1.9082-0.85475-3.7378-1.8667-5.469-3.026-1.623-1.0906-3.1378-2.3383-4.5247-3.7138-1.3869-1.3853-2.6361-2.8983-3.7378-4.5292-1.1607-1.7193-2.1738-3.5467-3.0296-5.4429-0.94428-2.1123-1.7509-4.2738-2.4-6.4942-0.74756-2.5151-1.3476-5.0598-1.8295-7.6338-0.541-2.9278-0.97379-5.8752-1.2984-8.8325-0.37378-3.3699-0.64919-6.7398-0.84592-10.12-0.21644-3.812-0.37382-7.6338-0.45251-11.456-0.088526-4.2934-0.13771-8.577-0.13771-12.87v-58.212c0-4.2934 0.049181-8.577 0.13771-12.87 0.07869-3.8218 0.23607-7.6338 0.45247-11.456 0.19672-3.3797 0.47214-6.7496 0.84592-10.11 0.3246-2.9671 0.75739-5.9145 1.2984-8.8423 0.48198-2.5741 1.082-5.1187 1.8295-7.6338 0.64919-2.2106 1.4558-4.3818 2.4-6.4942 0.85575-1.8962 1.8689-3.7138 3.0296-5.4429 1.1017-1.6211 2.3509-3.1341 3.7378-4.5194s2.9017-2.633 4.5247-3.7236c1.7312-1.1593 3.5607-2.1713 5.469-3.026 2.105-0.94318 4.2788-1.7488 6.5018-2.3972 2.5181-0.73686 5.0755-1.346 7.6526-1.8176 2.9312-0.55019 5.8919-0.98248 8.8625-1.2969 3.364-0.37334 6.7477-0.64843 10.131-0.84493 3.8263-0.21614 7.6526-0.36352 11.479-0.45194 4.2984-0.08842 8.5969-0.13755 12.895-0.12772h0.0098 74.126 0.01z" fill="url(#_lgradient_190)" fill-rule="evenodd"/>
  </g>
</svg>
