<svg width="256" height="256" style="isolation:isolate" version="1.1" xmlns="http://www.w3.org/2000/svg">
  <g transform="translate(.007136 -.1198)" filter="url(#a)">
    <linearGradient id="b" x1=".5002" x2=".5002" y2="1" gradientTransform="matrix(244,0,0,228,5.981,12.12)" gradientUnits="userSpaceOnUse">
      <stop stop-color="#ebdbb2" offset="0"/>
      <stop stop-color="#ebdbb2" offset="1"/>
    </linearGradient>
    <path d="m165 12.12c72 0 85 15 85 87v56c0 70-13 85-85 85h-74c-72 0-85-15-85-85v-56c0-72 13-87 85-87z" fill="url(#b)"/>
  </g>
  <defs>
    <linearGradient id="linearGradient31" x1=".5002" x2=".5002" y2="1" gradientTransform="matrix(244,0,0,228,5.988,12.12)" gradientUnits="userSpaceOnUse">
      <stop stop-color="#d5c4a1" offset="0"/>
      <stop stop-color="#d5c4a1" stop-opacity=".09804" offset=".1"/>
      <stop stop-color="#282828" stop-opacity=".1" offset=".9"/>
      <stop stop-color="#282828" stop-opacity=".4" offset="1"/>
    </linearGradient>
  </defs>
  <g transform="translate(.007189 -.1198)" opacity=".5">
    <path d="m91 12.12c-72 0-85 15-85 87v56c0 70 13 85 85 85h74c72 0 85-15 85-85v-56c0-72-13-87-85-87zm0 4h74c68 0 80 15 80 83v56c0 66-12 81-80 81h-74c-68 0-80-15-80-81v-56c0-68 12-83 80-83z" fill="url(#linearGradient31)" opacity="1"/>
  </g>
  <path d="m77.94 63.15c-0.719 0.02591-1.446 0.1036-2.176 0.228-3.574 0.5894-6.479 2.97-8.274 5.769s-2.816 6.065-3.517 9.666c-1.403 7.201-1.424 15.85-0.9366 24.37 0.9755 17.04 4.15 33.53 4.15 33.53 0.4625 2.47 2.846 4.093 5.314 3.618 2.46-0.4741 4.069-2.854 3.593-5.313 0 0-3.068-16.09-3.998-32.34-0.4651-8.125-0.3485-16.29 0.7851-22.11 0.5661-2.91 1.411-5.216 2.252-6.528 0.8408-1.312 1.34-1.595 2.1-1.721 2.86-0.4716 6.013 0.5117 9.463 2.809s6.969 5.844 9.994 9.564c6.051 7.44 10.12 15.33 10.12 15.33 1.149 2.218 3.876 3.09 6.098 1.948 2.228-1.14 3.111-3.869 1.974-6.098 0 0-4.389-8.578-11.16-16.9-3.385-4.162-7.372-8.335-11.99-11.41-4.044-2.692-8.759-4.612-13.79-4.403zm99.06 0c-4.628 0.07773-8.972 1.903-12.73 4.403-4.621 3.077-8.609 7.249-11.99 11.41-6.769 8.324-11.16 16.9-11.16 16.9-1.141 2.222-0.2708 4.949 1.948 6.098 2.228 1.158 4.974 0.285 6.123-1.948 0 0 4.07-7.893 10.12-15.33 3.025-3.72 6.544-7.267 9.994-9.564s6.577-3.28 9.438-2.809c0.7604 0.1296 1.284 0.4094 2.125 1.721 0.8408 1.311 1.685 3.618 2.252 6.528 1.134 5.82 1.249 13.99 0.7851 22.11-0.9302 16.25-3.998 32.34-3.998 32.34-0.4754 2.46 1.134 4.839 3.593 5.313 2.468 0.4754 4.851-1.148 5.314-3.618 0 0 3.149-16.48 4.124-33.53 0.4871-8.52 0.491-17.17-0.9107-24.37-0.7009-3.601-1.748-6.867-3.542-9.666-1.795-2.799-4.675-5.179-8.249-5.769-1.096-0.1814-2.171-0.2461-3.239-0.228zm-74.92 50.68c-7.155 0-12.95 7.25-12.95 16.19 0 8.943 5.8 16.19 12.95 16.19 7.155 0 12.95-7.25 12.95-16.19 0-8.943-5.8-16.19-12.95-16.19zm51.82 0c-7.155 0-12.95 7.25-12.95 16.19 0 8.943 5.8 16.19 12.95 16.19 7.155 0 12.95-7.25 12.95-16.19 0-8.943-5.8-16.19-12.95-16.19zm-47.26 13.61c2.502 4e-3 4.529 2.903 4.529 6.477 0 3.575-2.027 6.474-4.529 6.477-2.512 0.0133-4.554-2.889-4.554-6.477 0-3.589 2.042-6.493 4.554-6.477zm42.74 0c2.502 4e-3 4.529 2.903 4.529 6.477 0 3.575-2.027 6.474-4.529 6.477-2.502-4e-3 -4.529-2.903-4.529-6.477s2.027-6.473 4.529-6.477zm-74.19 25.66c-18.68-2e-3 -47.16 6.174-47.16 6.174-2.455 0.5208-4.02 2.936-3.492 5.389 0.5208 2.443 2.919 4.004 5.364 3.492 0 0 28.69-5.974 45.29-5.971 7.069 1e-3 11.76 1.118 14.73 2.252-4.977-1.134-11.62-1.614-19.84-0.2021-17.27 2.969-30.46 14.12-30.46 14.12-1.942 1.596-2.215 4.468-0.6076 6.401 1.604 1.934 4.475 2.195 6.401 0.5817 0 0 11.96-9.724 26.19-12.17 8.399-1.444 14.48-0.5389 18.29 0.6322-0.2967-7e-3 -0.6024-4e-3 -0.9107 0-19.11 0.2837-31.91 11.06-31.91 11.06-1.926 1.611-2.176 4.482-0.5571 6.401 1.619 1.919 4.488 2.157 6.401 0.5312 0 0 10.39-8.697 26.19-8.932 3.041-0.0388 4.051 0.6218 4.639 1.738 0.5881 1.117 2.843 2.201 5.002 1.628 2.418-0.6555 3.846-3.149 3.188-5.566 0 0-0.3044-0.9988-0.7838-1.771-0.3873-0.6231-0.982-1.309-1.746-1.974 0.0907-0.0389 0.2513-0.1036 0.2526-0.1036 0.0043-2e-3 1.136-0.8317 1.139-0.8343 0.9962-1 2.486-4.267-0.3537-6.882-0.4741-0.4366-0.9548-0.7721-1.493-1.113 0.6154-0.1827 1.184-0.4923 1.67-0.9107 1.85-1.685 1.986-4.549 0.3031-6.401 0 0-2.327-2.367-6.427-4.15-4.099-1.783-10.33-3.415-19.31-3.416zm86.33 3.416c-4.099 1.783-6.427 4.15-6.427 4.15-1.682 1.852-1.547 4.717 0.3032 6.401 0.4858 0.4184 1.056 0.7294 1.67 0.9107-0.5376 0.3407-1.018 0.6762-1.493 1.113-3.061 2.819-1.317 6.666 0.7851 7.717 1e-3 5.2e-4 0.1568 0.0648 0.2526 0.1036-0.7643 0.6646-1.359 1.35-1.746 1.974-0.4793 0.7721-0.7838 1.771-0.7838 1.771-0.6581 2.418 0.7695 4.911 3.188 5.566 2.159 0.5739 4.414-0.5117 5.314-2.555h0.0259c0.2513-0.1878 1.26-0.8537 4.301-0.8097 15.79 0.2345 26.19 8.932 26.19 8.932 1.913 1.626 4.783 1.387 6.401-0.5311 1.619-1.92 1.37-4.79-0.5571-6.401 0 0-12.8-10.77-31.91-11.06-0.3083-4e-3 -0.6141-7e-3 -0.9107 0 3.814-1.171 9.895-2.076 18.29-0.6322 14.23 2.446 26.19 12.17 26.19 12.17 1.926 1.613 4.797 1.352 6.401-0.5817 1.607-1.933 1.335-4.805-0.6076-6.401 0 0-13.19-11.15-30.46-14.12-8.213-1.412-14.86-0.9314-19.84 0.2021 2.971-1.134 7.66-2.251 14.73-2.252 16.6-2e-3 45.27 5.971 45.27 5.971 2.453 0.5273 4.869-1.036 5.389-3.492 0.5286-2.453-1.036-4.869-3.492-5.389 0 0-28.48-6.177-42.31-6.175s-20.06 1.634-24.16 3.417zm-33.53 0.0778c-7.155 0-12.95 5.075-12.95 11.34 0 6.26 5.8 11.34 12.95 11.34 7.155 0 12.95-5.075 12.95-11.34 0-6.26-5.8-11.34-12.95-11.34z" fill="#3c3836" stroke-width="12.95" style="isolation:isolate"/>
</svg>
