<svg width="256" height="256" style="isolation:isolate" version="1.1" xmlns="http://www.w3.org/2000/svg" xmlns:xlink="http://www.w3.org/1999/xlink">
  <g filter="url(#a)">
    <linearGradient id="b" x1=".50002" x2=".50002" y1="-.00051239" y2="1" gradientTransform="matrix(244.65,0,0,228.34,5.676,11.947)" gradientUnits="userSpaceOnUse">
      <stop stop-color="#8ec07c" offset="0"/>
      <stop stop-color="#83a598" offset="1"/>
    </linearGradient>
    <path d="m165.68 11.947c72.707 0 84.639 12.053 84.639 84.544v59.251c0 72.561-11.932 84.543-84.639 84.543h-75.37c-72.294 0-84.639-11.982-84.639-84.543v-59.251c0-72.491 12.329-84.544 84.639-84.544z" fill="url(#b)"/>
  </g>
  <defs>
    <filter id="a" x="-.042124" y="-.045133" width="1.0842" height="1.1078" color-interpolation-filters="sRGB">
      <feGaussianBlur in="SourceGraphic" stdDeviation="4.294"/>
      <feOffset dy="4" result="pf_100_offsetBlur"/>
      <feFlood flood-opacity=".4"/>
      <feComposite in2="pf_100_offsetBlur" operator="in" result="pf_100_dropShadow"/>
      <feBlend in="SourceGraphic" in2="pf_100_dropShadow"/>
    </filter>
    <filter id="filter1_f" x="108.06" y="73.076" width="110.92" height="162.37" color-interpolation-filters="sRGB" filterUnits="userSpaceOnUse">
      <feFlood flood-opacity="0" result="BackgroundImageFix"/>
      <feBlend in="SourceGraphic" in2="BackgroundImageFix" result="shape"/>
      <feGaussianBlur result="effect1_foregroundBlur" stdDeviation="5"/>
    </filter>
    <linearGradient id="paint1_linear" x1="118.21" x2="118.21" y1="79.787" y2="222" gradientTransform="translate(1.1449 -.051856)" gradientUnits="userSpaceOnUse">
      <stop stop-color="#ebdbb2" offset="1e-7"/>
      <stop stop-color="#d5c4a1" offset="1"/>
    </linearGradient>
    <filter id="filter2_f" x="89.483" y="71.613" width="91.274" height="66.689" color-interpolation-filters="sRGB" filterUnits="userSpaceOnUse">
      <feFlood flood-opacity="0" result="BackgroundImageFix"/>
      <feBlend in="SourceGraphic" in2="BackgroundImageFix" result="shape"/>
      <feGaussianBlur result="effect1_foregroundBlur" stdDeviation="5"/>
    </filter>
    <linearGradient id="paint2_linear" x1="99.494" x2="104.29" y1="116.51" y2="124.82" gradientTransform="translate(1.1449 -.051856)" gradientUnits="userSpaceOnUse">
      <stop stop-color="#504945" offset="1e-7"/>
      <stop stop-color="#3c3836" offset="1"/>
    </linearGradient>
    <filter id="filter3_f" x="54.97" y="40.62" width="145.93" height="103.79" color-interpolation-filters="sRGB" filterUnits="userSpaceOnUse">
      <feFlood flood-opacity="0" result="BackgroundImageFix"/>
      <feBlend in="SourceGraphic" in2="BackgroundImageFix" result="shape"/>
      <feGaussianBlur result="effect1_foregroundBlur" stdDeviation="5"/>
    </filter>
    <linearGradient id="paint3_linear" x1="64.963" x2="74.559" y1="114.28" y2="130.9" gradientTransform="translate(1.1449 -.051856)" gradientUnits="userSpaceOnUse">
      <stop stop-color="#504945" offset="1e-7"/>
      <stop stop-color="#3c3836" offset="1"/>
    </linearGradient>
    <filter id="filter4_f" x="26" y="156" width="126" height="62" color-interpolation-filters="sRGB" filterUnits="userSpaceOnUse">
      <feFlood flood-opacity="0" result="BackgroundImageFix"/>
      <feBlend in="SourceGraphic" in2="BackgroundImageFix" result="shape"/>
      <feGaussianBlur result="effect1_foregroundBlur" stdDeviation="5"/>
    </filter>
    <linearGradient id="paint4_linear" x1="36" x2="36" y1="162" y2="204" gradientUnits="userSpaceOnUse">
      <stop stop-color="#ebdbb2" offset="1e-7"/>
      <stop stop-color="#d5c4a1" offset="1"/>
    </linearGradient>
    <linearGradient id="linearGradient62253" x1="36" x2="36" y1="162" y2="204" gradientUnits="userSpaceOnUse" xlink:href="#paint4_linear"/>
  </defs>
  <g opacity=".4">
    <linearGradient id="c" x1=".517" x2=".517" y2="1" gradientTransform="matrix(244.65,0,0,228.34,5.68,11.95)" gradientUnits="userSpaceOnUse">
      <stop stop-color="#d5c4a1" offset="0"/>
      <stop stop-color="#ebdbb2" stop-opacity=".098" offset=".125"/>
      <stop stop-color="#282828" stop-opacity=".098039" offset=".925"/>
      <stop stop-color="#282828" stop-opacity=".49804" offset="1"/>
    </linearGradient>
    <path d="m165.07 11.951c4.328-0.01 8.656 0.04 12.984 0.138 3.875 0.078 7.7436 0.25854 11.62 0.48454 3.453 0.196 6.8876 0.5327 10.33 0.9057 3.06 0.335 6.0892 0.83409 9.1192 1.3941 2.7131 0.50032 5.3525 1.181 7.9999 1.9571 2.3983 0.69679 4.7544 1.61 7.0323 2.6338 2.1121 0.94124 4.0427 2.0439 5.9631 3.3319 1.8405 1.2399 3.5996 2.7014 5.1741 4.2652 1.5652 1.5692 2.886 3.1628 4.1277 4.9987 1.2864 1.9174 2.4086 3.8707 3.3603 5.9744 1.0207 2.2746 1.9193 4.5772 2.628 6.9675 0.77696 2.6443 1.4779 5.3272 1.9787 8.0374 0.56201 3.0246 1.0626 6.0601 1.3989 9.1181 0.374 3.439 0.70873 6.8493 0.90573 10.297 0.226 3.861 0.42171 7.7394 0.51071 11.6 0.088 4.323 0.138 8.646 0.128 12.96v58.21c0.01 4.324-0.04 8.637-0.128 12.96-0.085 3.8668-0.28821 7.7331-0.51114 11.595-0.19655 3.4488-0.53822 6.9467-0.91224 10.38-0.33634 3.0613-0.82936 6.0316-1.3914 9.0596-0.50199 2.7066-1.1867 5.3458-1.9626 7.987-0.7071 2.3908-1.5665 4.6263-2.5888 6.9002-0.94995 2.1048-2.1624 4.2292-3.4512 6.1454-1.2392 1.8377-2.5377 3.3902-4.1052 4.9572-1.5746 1.5638-3.412 3.0712-5.2525 4.3111-1.9201 1.2879-3.8611 2.3701-5.9729 3.3114-2.3498 1.0736-4.5744 1.8717-6.9323 2.584-2.6776 0.81656-5.2934 1.4166-7.976 1.948-3.0309 0.56603-6.051 1.0612-9.1165 1.3921-3.5041 0.40869-6.8203 0.68433-10.336 0.90377-3.875 0.226-7.789 0.40013-11.665 0.48813-4.328 0.088-8.6314 0.15082-12.959 0.14082h-74.126c-4.328 0.01-8.6566-0.0545-12.985-0.14247-3.9049-0.0955-7.7449-0.24667-11.628-0.49085-3.4941-0.21923-7.0445-0.5149-10.452-0.92805-3.1873-0.37665-5.9337-0.7937-8.9951-1.3902-2.833-0.56139-5.3421-1.1637-7.9464-1.9566-2.4295-0.73175-4.8105-1.6266-7.0523-2.6548-2.139-0.97893-4.0617-2.0635-5.9983-3.3731-1.8405-1.2399-3.5141-2.6495-5.0886-4.2133-1.5676-1.5671-2.9061-3.1787-4.1454-5.0164-1.2884-1.9162-2.4021-3.8332-3.3518-5.9379-1.0223-2.2739-1.9238-4.5236-2.6309-6.9144-0.77585-2.6412-1.4977-5.3053-1.9996-8.0119-0.56202-3.028-1.0938-6.1087-1.4301-9.17-0.37402-3.4341-0.72617-6.8459-0.92272-10.295-0.22292-3.8613-0.42179-7.7427-0.50684-11.61-0.09185-4.3194-0.13452-8.6396-0.128-12.96v-58.21c-0.01-4.314 0.04-8.637 0.128-12.96 0.089-3.86 0.28015-7.7353 0.50615-11.596 0.197-3.448 0.54883-6.857 0.92283-10.296 0.335-3.055 0.87336-6.1638 1.4344-9.1898 0.50085-2.7102 1.1807-5.2262 1.9577-7.8705 0.70872-2.3902 1.7549-4.9868 2.7756-7.2614 0.95209-2.1037 1.9632-3.7998 3.2499-5.7172 1.2418-1.8358 2.594-3.4604 4.1593-5.0296 1.5745-1.5638 3.3273-3.0214 5.1678-4.2614 1.9201-1.2879 3.8238-2.3848 5.9356-3.3261 2.278-1.0238 4.5428-1.9236 6.9411-2.6204 2.6474-0.77617 5.2743-1.4761 7.9874-1.9764 3.0317-0.56124 6.1381-1.085 9.203-1.4208 3.443-0.373 6.8398-0.71288 10.293-0.90888 3.875-0.226 7.7331-0.41514 11.609-0.49314 4.328-0.098 8.6625-0.14613 12.991-0.13613zm0.01 4.009c4.298-0.01 8.597 0.039 12.895 0.127 3.827 0.089 7.6466 0.26854 11.474 0.48454 3.383 0.197 6.7724 0.43946 10.136 0.81246 2.971 0.315 5.9391 0.74869 8.8701 1.2987 2.5807 0.47339 5.1059 1.0723 7.6238 1.8101 2.2193 0.6492 4.4135 1.4563 6.5231 2.4032 1.9054 0.85272 3.7179 1.8543 5.4527 3.0153 1.6245 1.0927 3.1568 2.3505 4.5413 3.7347 1.3858 1.385 2.6374 2.8981 3.738 4.519 1.1601 1.7266 2.1737 3.5473 3.03 5.443 0.94487 2.1083 1.7467 4.2779 2.4 6.494 0.74152 2.5113 1.352 5.0594 1.829 7.634 0.54 2.928 0.974 5.875 1.298 8.842 0.374 3.36 0.65 6.73 0.846 10.11 0.217 3.822 0.374 7.634 0.453 11.456 0.088 4.293 0.137 8.577 0.137 12.87v58.212c0 4.293-0.049 8.577-0.137 12.87-0.082 3.8211-0.0546 7.643-0.27458 11.459-0.196 3.38-0.65042 6.7474-1.0244 10.117-0.3245 2.9589-0.75746 5.9049-1.298 8.832-0.47731 2.5747-1.0881 5.1228-1.83 7.634-0.65169 2.2166-1.4536 4.3863-2.4 6.494-0.8542 1.8968-1.8678 3.7176-3.03 5.443-1.0976 1.6263-2.349 3.1432-3.737 4.53-1.3876 1.3779-2.9027 2.6211-4.525 3.713-1.7345 1.161-3.564 2.1732-5.469 3.026-2.1078 0.95119-4.2802 1.7522-6.501 2.397-2.5179 0.7378-5.0723 1.3446-7.653 1.818-2.931 0.55-5.8828 0.98162-8.8538 1.3056-3.364 0.364-6.7562 0.64938-10.139 0.83638-3.827 0.216-7.6776 0.36018-11.505 0.43918-4.298 0.098-8.5724 0.14982-12.87 0.14982h-74.146c-4.298 0-8.5976-0.0545-12.896-0.15147-3.8291-0.082-7.6582-0.26152-11.482-0.48085-3.3834-0.19001-6.7587-0.42545-10.127-0.79268-2.97-0.32174-5.9265-0.7574-8.863-1.306-2.5807-0.47339-5.1351-1.0802-7.653-1.818-2.2208-0.64482-4.3673-1.4321-6.4751-2.3833-1.9053-0.85272-3.7547-1.8723-5.4895-3.0333-1.622-1.0922-3.1431-2.3423-4.5303-3.7205-1.3882-1.3864-2.64-2.903-3.738-4.529-1.1622-1.7254-2.1758-3.5462-3.03-5.443-0.94645-2.1077-1.7483-4.2774-2.4-6.494-0.74152-2.5113-1.352-5.0594-1.829-7.634-0.54054-2.9271-0.9735-5.8731-1.298-8.832-0.374-3.37-0.65-6.74-0.846-10.12-0.21993-3.8156-0.37096-7.6349-0.453-11.456-0.08992-4.2894-0.13559-8.5796-0.137-12.87v-58.212c0-4.293 0.049-8.577 0.137-12.87 0.079-3.822 0.236-7.634 0.453-11.456 0.197-3.38 0.472-6.75 0.846-10.11 0.324-2.967 0.757-5.914 1.298-8.842 0.47732-2.5747 1.0915-5.1375 1.8334-7.6487 0.65331-2.2161 1.4517-4.371 2.3966-6.4793 0.85634-1.8957 1.8699-3.7164 3.03-5.443 1.1003-1.6212 2.3515-3.1346 3.737-4.52 1.3849-1.3839 2.9002-2.6307 4.525-3.723 1.7345-1.161 3.564-2.1732 5.469-3.026 2.1096-0.94691 4.2817-1.7478 6.501-2.397 2.5179-0.7378 5.0723-1.3446 7.653-1.818 2.931-0.55 5.892-0.982 8.863-1.297 3.364-0.373 6.7432-0.64645 10.126-0.84345 3.8239-0.21443 7.6549-0.36667 11.484-0.45355 4.298-0.088 8.597-0.137 12.895-0.127z" fill="url(#c)" fill-rule="evenodd"/>
  </g>
  <path d="m71.26 122.89-55.115-89.943c4.216-6.2989 7.8289-9.926 15.775-13.443 15.187-5.8818 24.858-6.7369 48.287-7.4661l82.033-0.09096 25.265 44.052-1.164 5.7193-66.097 36.573-16.441 8.6747-23.958 19.558z" fill="#ebdbb2" opacity=".2"/>
  <g transform="translate(1.1449 -.051856)" filter="url(#filter1_f)" opacity=".2">
    <path d="m123.05 84.426c4.778-2.7692 10.897-1.1404 13.666 3.638l70.915 122.37c2.769 4.779 1.14 10.897-3.638 13.667-4.779 2.769-10.897 1.14-13.667-3.638l-70.914-122.37c-2.769-4.7784-1.141-10.897 3.638-13.666z" clip-rule="evenodd" fill-rule="evenodd"/>
  </g>
  <path d="m128.74 79.742c-1.512 0.0628-2.989 0.4751-4.315 1.2047-1.326 0.7295-2.465 1.7564-3.327 3.0001-0.863 1.2437-1.425 2.6703-1.644 4.1679-0.218 1.4976-0.086 3.0255 0.385 4.4637l16.587-9.5709c-0.961-1.077-2.149-1.9283-3.477-2.4928-1.329-0.5645-2.766-0.8284-4.209-0.7727zm15.925 17.051-16.963 9.7966 63.943 110.34c0.633 1.135 1.485 2.132 2.508 2.934 1.022 0.803 2.194 1.393 3.447 1.738s2.562 0.437 3.851 0.271c1.289-0.167 2.532-0.588 3.656-1.239 1.125-0.651 2.109-1.52 2.894-2.555 0.786-1.036 1.357-2.217 1.682-3.475 0.324-1.259 0.395-2.569 0.208-3.855s-0.628-2.522-1.298-3.636z" fill="url(#paint1_linear)"/>
  <g transform="translate(1.1449 -.051856)" filter="url(#filter2_f)" opacity=".1">
    <path d="m161.21 84.355-56.977 32.896c-2.623 1.515-3.676 4.602-2.351 6.897 1.324 2.294 4.525 2.927 7.148 1.412l56.977-32.896c2.623-1.5145 3.676-4.6022 2.351-6.8966-1.324-2.2945-4.525-2.9267-7.148-1.4122z"/>
  </g>
  <path d="m162.37 80.824-56.978 32.896c-2.623 1.514-3.676 4.602-2.351 6.896 1.325 2.295 4.525 2.927 7.148 1.413l56.978-32.896c2.623-1.5144 3.676-4.6022 2.351-6.8966s-4.525-2.9267-7.148-1.4122z" fill="url(#paint2_linear)"/>
  <g transform="translate(1.1449 -.051856)" filter="url(#filter3_f)" opacity=".1">
    <path d="m173 55.418-99.718 57.572c-4.5889 2.649-6.1611 8.517-3.5117 13.106l0.0017 3e-3c2.6494 4.589 8.5171 6.161 13.106 3.512l99.718-57.573c4.589-2.6493 6.161-8.5171 3.512-13.106l-2e-3 -3e-3c-2.65-4.5889-8.517-6.1611-13.106-3.5118z"/>
  </g>
  <path d="m174.13 51.856-99.718 57.572c-4.5888 2.65-6.1611 8.517-3.5117 13.106l0.0017 3e-3c2.6494 4.589 8.5172 6.161 13.106 3.512l99.718-57.572c4.589-2.6494 6.161-8.5171 3.512-13.106l-2e-3 -0.0031c-2.65-4.5888-8.517-6.1611-13.106-3.5117z" fill="url(#paint3_linear)"/>
  <g transform="translate(1.1449 -.051856)" fill-opacity=".4" filter="url(#filter4_f)">
    <path d="m52.442 208c-3.9787 0-7.4114-1.044-10.298-3.133-2.8476-2.127-4.8955-5.047-6.1437-8.759l7.9576-2.959c0.9361 1.973 2.1649 3.558 3.6862 4.757 1.5213 1.16 3.1986 1.74 5.032 1.74 1.9114 0 3.4132-0.348 4.5054-1.044 1.0922-0.735 1.6383-1.779 1.6383-3.132 0-0.89-0.4096-1.683-1.2288-2.379-0.7801-0.696-1.6188-1.199-2.5159-1.508-0.8582-0.348-2.204-0.812-4.0373-1.392-1.2093-0.387-2.126-0.677-2.7501-0.871-0.5851-0.232-1.4433-0.58-2.5745-1.044s-1.9894-0.889-2.5745-1.276-1.2872-0.909-2.1064-1.566c-0.8192-0.658-1.4433-1.335-1.8724-2.031-0.3901-0.734-0.7411-1.605-1.0532-2.61-0.312-1.044-0.4681-2.147-0.4681-3.307 0-3.248 1.2873-5.975 3.8618-8.179 2.5745-2.205 6.0657-3.307 10.474-3.307 3.6668 0 6.7484 0.948 9.2449 2.843s4.1543 4.331 4.9734 7.309l-7.9575 2.552c-1.2873-2.9-3.5302-4.35-6.7289-4.35-3.3156 0-4.9734 1.102-4.9734 3.306 0 0.503 0.156 0.948 0.4681 1.334 0.312 0.387 0.8776 0.774 1.6968 1.161 0.8192 0.386 1.4823 0.676 1.9894 0.87 0.5461 0.193 1.4823 0.522 2.8085 0.986 1.4043 0.464 2.477 0.832 3.2182 1.102 0.7801 0.271 1.8333 0.696 3.1596 1.277 1.3263 0.541 2.36 1.14 3.1011 1.798 0.7802 0.619 1.5798 1.373 2.399 2.262 0.8191 0.89 1.4043 1.934 1.7553 3.133 0.3901 1.199 0.5851 2.514 0.5851 3.945 0 3.828-1.4432 6.864-4.3298 9.107s-6.5338 3.365-10.942 3.365z"/>
    <path d="m84.844 207.3-14.745-40.608h9.6543l8.8353 25.583c0.117 0.271 0.234 0.638 0.3511 1.102l0.1755 0.638c0.078-0.348 0.2535-0.928 0.5266-1.74l8.8352-25.583h9.537l-14.686 40.608z"/>
    <path d="m126.61 208c-3.042 0-5.753-0.58-8.133-1.74-2.379-1.199-4.271-2.804-5.675-4.815-1.405-2.011-2.477-4.235-3.218-6.672-0.703-2.436-1.054-5.027-1.054-7.773 0-2.552 0.371-5.028 1.112-7.425 0.741-2.437 1.814-4.68 3.218-6.73 1.444-2.049 3.355-3.693 5.734-4.931 2.38-1.276 5.052-1.914 8.016-1.914 3.628 0 6.593 0.831 8.894 2.494 2.341 1.663 4.408 3.926 6.202 6.788l-7.782 4.351c-2.184-3.442-4.622-5.163-7.314-5.163-2.106 0-3.861 0.696-5.266 2.088-1.404 1.354-2.36 2.92-2.867 4.699-0.468 1.779-0.702 3.693-0.702 5.743 0 3.519 0.722 6.497 2.165 8.934 1.482 2.397 3.706 3.596 6.67 3.596 1.678 0 3.141-0.541 4.389-1.624s1.872-2.34 1.872-3.771v-0.29h-6.67v-8.411h15.798v6.381c0 5.066-1.443 9.03-4.33 11.892-2.847 2.862-6.534 4.293-11.059 4.293z"/>
  </g>
  <g transform="translate(1.1449 -.051856)" fill="url(#linearGradient62253)">
    <path d="m52.442 204c-3.9787 0-7.4114-1.044-10.298-3.133-2.8476-2.127-4.8955-5.047-6.1437-8.759l7.9576-2.959c0.9361 1.973 2.1649 3.558 3.6862 4.757 1.5213 1.16 3.1986 1.74 5.032 1.74 1.9114 0 3.4132-0.348 4.5054-1.044 1.0922-0.735 1.6383-1.779 1.6383-3.132 0-0.89-0.4096-1.683-1.2288-2.379-0.7801-0.696-1.6188-1.199-2.5159-1.508-0.8582-0.348-2.204-0.812-4.0373-1.392-1.2093-0.387-2.126-0.677-2.7501-0.871-0.5851-0.232-1.4433-0.58-2.5745-1.044s-1.9894-0.889-2.5745-1.276-1.2872-0.909-2.1064-1.566c-0.8192-0.658-1.4433-1.335-1.8724-2.031-0.3901-0.734-0.7411-1.605-1.0532-2.61-0.312-1.044-0.4681-2.147-0.4681-3.307 0-3.248 1.2873-5.975 3.8618-8.179 2.5745-2.205 6.0657-3.307 10.474-3.307 3.6668 0 6.7484 0.948 9.2449 2.843s4.1543 4.331 4.9734 7.309l-7.9575 2.552c-1.2873-2.9-3.5302-4.35-6.7289-4.35-3.3156 0-4.9734 1.102-4.9734 3.306 0 0.503 0.156 0.948 0.4681 1.334 0.312 0.387 0.8776 0.774 1.6968 1.161 0.8192 0.386 1.4823 0.676 1.9894 0.87 0.5461 0.193 1.4823 0.522 2.8085 0.986 1.4043 0.464 2.477 0.832 3.2182 1.102 0.7801 0.271 1.8333 0.696 3.1596 1.277 1.3263 0.541 2.36 1.14 3.1011 1.798 0.7802 0.619 1.5798 1.373 2.399 2.262 0.8191 0.89 1.4043 1.934 1.7553 3.133 0.3901 1.199 0.5851 2.514 0.5851 3.945 0 3.828-1.4432 6.864-4.3298 9.107s-6.5338 3.365-10.942 3.365z"/>
    <path d="m84.844 203.3-14.745-40.608h9.6543l8.8353 25.583c0.117 0.271 0.234 0.638 0.3511 1.102l0.1755 0.638c0.078-0.348 0.2535-0.928 0.5266-1.74l8.8352-25.583h9.537l-14.686 40.608z"/>
    <path d="m126.61 204c-3.042 0-5.753-0.58-8.133-1.74-2.379-1.199-4.271-2.804-5.675-4.815-1.405-2.011-2.477-4.235-3.218-6.672-0.703-2.436-1.054-5.027-1.054-7.773 0-2.552 0.371-5.028 1.112-7.425 0.741-2.437 1.814-4.68 3.218-6.73 1.444-2.049 3.355-3.693 5.734-4.931 2.38-1.276 5.052-1.914 8.016-1.914 3.628 0 6.593 0.831 8.894 2.494 2.341 1.663 4.408 3.926 6.202 6.788l-7.782 4.351c-2.184-3.442-4.622-5.163-7.314-5.163-2.106 0-3.861 0.696-5.266 2.088-1.404 1.354-2.36 2.92-2.867 4.699-0.468 1.779-0.702 3.693-0.702 5.743 0 3.519 0.722 6.497 2.165 8.934 1.482 2.397 3.706 3.596 6.67 3.596 1.678 0 3.141-0.541 4.389-1.624s1.872-2.34 1.872-3.771v-0.29h-6.67v-8.411h15.798v6.381c0 5.066-1.443 9.03-4.33 11.892-2.847 2.862-6.534 4.293-11.059 4.293z"/>
  </g>
</svg>
