<svg width="256" height="256" style="isolation:isolate" version="1.1" xmlns="http://www.w3.org/2000/svg">
  <g transform="translate(.007136 -.1198)" filter="url(#a)">
    <linearGradient id="b" x1=".5002" x2=".5002" y2="1" gradientTransform="matrix(244,0,0,228,5.981,12.12)" gradientUnits="userSpaceOnUse">
      <stop stop-color="#ebdbb2" offset="0"/>
      <stop stop-color="#ebdbb2" offset="1"/>
    </linearGradient>
    <path d="m165 12.12c72 0 85 15 85 87v56c0 70-13 85-85 85h-74c-72 0-85-15-85-85v-56c0-72 13-87 85-87z" fill="url(#b)"/>
  </g>
  <defs>
    <linearGradient id="linearGradient31" x1=".5002" x2=".5002" y2="1" gradientTransform="matrix(244,0,0,228,5.988,12.12)" gradientUnits="userSpaceOnUse">
      <stop stop-color="#d5c4a1" offset="0"/>
      <stop stop-color="#d5c4a1" stop-opacity=".09804" offset=".1"/>
      <stop stop-color="#282828" stop-opacity=".1" offset=".9"/>
      <stop stop-color="#282828" stop-opacity=".4" offset="1"/>
    </linearGradient>
  </defs>
  <g transform="translate(.007189 -.1198)" opacity=".5">
    <path d="m91 12.12c-72 0-85 15-85 87v56c0 70 13 85 85 85h74c72 0 85-15 85-85v-56c0-72-13-87-85-87zm0 4h74c68 0 80 15 80 83v56c0 66-12 81-80 81h-74c-68 0-80-15-80-81v-56c0-68 12-83 80-83z" fill="url(#linearGradient31)" opacity="1"/>
  </g>
  <path d="m62.58 50.12c-6.903 0-12.46 5.557-12.46 12.46v49.84c0 6.903 5.557 12.46 12.46 12.46h49.84c6.903 0 12.46-5.557 12.46-12.46v-49.84c0-6.903-5.557-12.46-12.46-12.46zm80.99 0c-6.903 0-12.46 5.557-12.46 12.46v49.84c0 6.903 5.557 12.46 12.46 12.46h49.84c6.903 0 12.46-5.557 12.46-12.46v-49.84c0-6.903-5.557-12.46-12.46-12.46zm-56.07 12.46a24.92 24.92 0 0 1 24.92 24.92 24.92 24.92 0 0 1-24.92 24.92 24.92 24.92 0 0 1-24.92-24.92 24.92 24.92 0 0 1 24.92-24.92zm80.99 0a24.92 24.92 0 0 1 24.92 24.92 24.92 24.92 0 0 1-24.92 24.92 24.92 24.92 0 0 1-24.92-24.92 24.92 24.92 0 0 1 24.92-24.92zm-80.99 6.23a18.69 18.69 0 0 0-18.69 18.69 18.69 18.69 0 0 0 18.69 18.69 18.69 18.69 0 0 0 18.69-18.69 18.69 18.69 0 0 0-18.69-18.69zm80.99 0a18.69 18.69 0 0 0-18.69 18.69 18.69 18.69 0 0 0 18.69 18.69 18.69 18.69 0 0 0 18.69-18.69 18.69 18.69 0 0 0-18.69-18.69zm-24.92 62.3c-6.903 0-12.46 5.557-12.46 12.46v49.84c0 6.903 5.557 12.46 12.46 12.46h49.84c6.903 0 12.46-5.557 12.46-12.46v-49.84c0-6.903-5.557-12.46-12.46-12.46zm24.92 12.46a24.92 24.92 0 0 1 24.92 24.92 24.92 24.92 0 0 1-24.92 24.92 24.92 24.92 0 0 1-24.92-24.92 24.92 24.92 0 0 1 24.92-24.92zm0 6.23a18.69 18.69 0 0 0-18.69 18.69 18.69 18.69 0 0 0 18.69 18.69 18.69 18.69 0 0 0 18.69-18.69 18.69 18.69 0 0 0-18.69-18.69z" fill="#458588" fill-rule="evenodd" stroke-linejoin="round" stroke-width="7.061"/>
  <path d="m62.58 131.1c-6.903 0-12.46 5.557-12.46 12.46v49.84c0 6.903 5.557 12.46 12.46 12.46h49.84c6.903 0 12.46-5.557 12.46-12.46v-49.84c0-6.903-5.557-12.46-12.46-12.46zm0 12.46h49.84v49.84h-49.84zm6.23 6.23v37.38h37.38v-37.38z" fill="#689d6a" fill-rule="evenodd" stroke-linejoin="round" stroke-width="7.061" style="isolation:isolate"/>
</svg>
