<svg width="256" height="256" style="isolation:isolate" version="1.1" xmlns="http://www.w3.org/2000/svg">
  <g transform="translate(.007136 -.1198)" filter="url(#a)">
    <linearGradient id="b" x1=".5002" x2=".5002" y2="1" gradientTransform="matrix(244,0,0,228,5.981,12.12)" gradientUnits="userSpaceOnUse">
      <stop stop-color="#fe8019" offset="0"/>
      <stop stop-color="#d65d0e" offset="1"/>
    </linearGradient>
    <path d="m165 12.12c72 0 85 15 85 87v56c0 70-13 85-85 85h-74c-72 0-85-15-85-85v-56c0-72 13-87 85-87z" fill="url(#b)"/>
  </g>
  <defs>
    <linearGradient id="linearGradient31" x1=".5002" x2=".5002" y2="1" gradientTransform="matrix(244,0,0,228,5.988,12.12)" gradientUnits="userSpaceOnUse">
      <stop stop-color="#d5c4a1" offset="0"/>
      <stop stop-color="#d5c4a1" stop-opacity=".09804" offset=".1"/>
      <stop stop-color="#282828" stop-opacity=".1" offset=".9"/>
      <stop stop-color="#282828" stop-opacity=".4" offset="1"/>
    </linearGradient>
  </defs>
  <g transform="translate(.007189 -.1198)" opacity=".5">
    <path d="m91 12.12c-72 0-85 15-85 87v56c0 70 13 85 85 85h74c72 0 85-15 85-85v-56c0-72-13-87-85-87zm0 4h74c68 0 80 15 80 83v56c0 66-12 81-80 81h-74c-68 0-80-15-80-81v-56c0-68 12-83 80-83z" fill="url(#linearGradient31)" opacity="1"/>
  </g>
  <path d="m134.9 55.41a72.94 72.94 0 0 0-73.12 42.26l36.24 9.71a36.47 36.47 0 0 1 27.17-15.7zm23.48 6.339-9.715 36.24a36.47 36.47 0 0 1 15.7 27.17l36.26 9.716a72.94 72.94 0 0 0-42.26-73.12zm-102.9 59.39a72.94 72.94 0 0 0 42.26 73.12l9.71-36.24a36.47 36.47 0 0 1-15.7-27.17zm102.6 27.49a36.47 36.47 0 0 1-27.17 15.71l-9.716 36.25a72.94 72.94 0 0 0 73.12-42.25z" fill="#ebdbb2" stroke-width="12.16" style="isolation:isolate"/>
</svg>
