<svg width="256" height="256" style="isolation:isolate" version="1.1" xmlns="http://www.w3.org/2000/svg">
  <g transform="translate(.004997 -.1131)" filter="url(#a)">
    <linearGradient id="b" x1=".5002" x2=".5002" y2="1" gradientTransform="matrix(244 0 0 228 5.981 12.12)" gradientUnits="userSpaceOnUse">
      <stop stop-color="#504945" offset="0"/>
      <stop stop-color="#3c3836" offset="1"/>
    </linearGradient>
    <path d="m165 12.12c72 0 85 15 85 87v56c0 70-13 85-85 85h-74c-72 0-85-15-85-85v-56c0-72 13-87 85-87z" fill="url(#b)"/>
  </g>
  <defs>
    <linearGradient id="linearGradient31" x1=".5002" x2=".5002" y2="1" gradientTransform="matrix(244,0,0,228,5.986,12)" gradientUnits="userSpaceOnUse">
      <stop stop-color="#928374" offset="0"/>
      <stop stop-color="#928374" stop-opacity=".09804" offset=".1"/>
      <stop stop-opacity=".09804" offset=".9"/>
      <stop stop-opacity=".498" offset="1"/>
    </linearGradient>
  </defs>
  <g transform="translate(.009993 -.1091)" opacity=".4">
    <path transform="translate(-.004996 .116)" d="m91 12c-72 0-85 15-85 87v56c0 70 13 85 85 85h74c72 0 85-15 85-85v-56c0-72-13-87-85-87zm0 4h74c68 0 80 15 80 83v56c0 66-12 81-80 81h-74c-68 0-80-15-80-81v-56c0-68 12-83 80-83z" fill="url(#linearGradient31)" opacity="1"/>
  </g>
  <path d="m115.8 56.1a72.92 72.92 0 0 0-59.67 59.72h50.8a24.31 24.31 0 0 1 8.877-8.854zm24.31 0.04861v50.8a24.31 24.31 0 0 1 8.854 8.877h50.87a72.92 72.92 0 0 0-59.72-59.67zm-84.03 83.98a72.92 72.92 0 0 0 59.72 59.67v-50.8a24.31 24.31 0 0 1-8.854-8.877zm92.9 0a24.31 24.31 0 0 1-8.877 8.854v50.87a72.92 72.92 0 0 0 59.67-59.72z" fill="#fabd2f" stroke-width="12.15"/>
</svg>
