<svg width="256" height="256" style="isolation:isolate" version="1.1" viewBox="0 0 256 256" xmlns="http://www.w3.org/2000/svg">
  <defs>
    <filter id="4gf53OfKd4UcO7S00eUr1MdROaCflgZC" x="-.042124" y="-.045133" width="1.0842" height="1.1078" color-interpolation-filters="sRGB">
      <feGaussianBlur in="SourceGraphic" stdDeviation="4.294"/>
      <feOffset dx="0" dy="4" result="pf_100_offsetBlur"/>
      <feFlood flood-opacity=".4"/>
      <feComposite in2="pf_100_offsetBlur" operator="in" result="pf_100_dropShadow"/>
      <feBlend in="SourceGraphic" in2="pf_100_dropShadow"/>
    </filter>
  </defs>
  <g filter="url(#4gf53OfKd4UcO7S00eUr1MdROaCflgZC)">
    <linearGradient id="_lgradient_23" x2="0" y2="1" gradientTransform="matrix(244.65 0 0 228.34 5.807 12.075)" gradientUnits="userSpaceOnUse">
      <stop stop-color="#504945" offset="0"/>
      <stop stop-color="#3c3836" offset="1"/>
    </linearGradient>
    <path d="m165.82 12.075c74.055 0 84.639 10.557 84.639 84.544v59.251c0 73.986-10.584 84.543-84.639 84.543h-75.37c-74.056 0-84.639-10.557-84.639-84.543v-59.251c0-73.987 10.583-84.544 84.639-84.544h75.37z" fill="url(#_lgradient_23)"/>
  </g>
  <g opacity=".4">
    <linearGradient id="_lgradient_24" x1=".517" x2=".517" y2="1" gradientTransform="matrix(244.65,0,0,228.34,5.68,11.95)" gradientUnits="userSpaceOnUse">
      <stop stop-color="#ebdbb2" offset="0"/>
      <stop stop-color="#ebdbb2" stop-opacity=".098" offset=".125"/>
      <stop stop-color="#282828" stop-opacity=".098" offset=".925"/>
      <stop stop-color="#282828" stop-opacity=".498" offset="1"/>
    </linearGradient>
    <path d="m165.07 11.951c4.328-0.01 8.656 0.04 12.984 0.138 3.875 0.078 7.751 0.226 11.626 0.452 3.453 0.196 6.905 0.481 10.348 0.854 3.059 0.335 6.118 0.786 9.148 1.346 2.715 0.502 5.4 1.14 8.046 1.916 2.4 0.698 4.751 1.562 7.023 2.584 2.115 0.943 4.141 2.063 6.059 3.35 1.84 1.238 3.561 2.653 5.135 4.215 1.564 1.572 2.98 3.282 4.219 5.119 1.289 1.916 2.41 3.94 3.364 6.042 1.023 2.28 1.889 4.618 2.597 7.005 0.777 2.643 1.417 5.325 1.918 8.037 0.561 3.026 1.013 6.072 1.348 9.127 0.374 3.439 0.659 6.878 0.856 10.326 0.226 3.861 0.373 7.732 0.462 11.593 0.088 4.323 0.138 8.646 0.128 12.959v58.212c0.01 4.323-0.04 8.636-0.128 12.959-0.089 3.871-0.236 7.732-0.462 11.593-0.197 3.448-0.482 6.897-0.856 10.326-0.335 3.055-0.787 6.111-1.348 9.137-0.501 2.702-1.141 5.384-1.918 8.027-0.708 2.387-1.574 4.735-2.597 7.005-0.954 2.112-2.075 4.126-3.364 6.042-1.239 1.837-2.655 3.557-4.219 5.119-1.574 1.562-3.295 2.977-5.135 4.215-1.918 1.287-3.944 2.407-6.059 3.35-2.272 1.022-4.623 1.886-7.023 2.594-2.646 0.776-5.331 1.414-8.046 1.906-3.03 0.569-6.089 1.011-9.148 1.346-3.443 0.373-6.895 0.658-10.348 0.854-3.875 0.226-7.751 0.374-11.626 0.462-4.328 0.088-8.656 0.138-12.984 0.128h-74.126c-4.328 0.01-8.656-0.04-12.984-0.128-3.875-0.088-7.751-0.236-11.626-0.462-3.453-0.196-6.905-0.481-10.348-0.854-3.059-0.335-6.118-0.777-9.148-1.346-2.715-0.492-5.4-1.13-8.046-1.906-2.4-0.708-4.751-1.572-7.023-2.594-2.115-0.943-4.141-2.063-6.059-3.35-1.84-1.238-3.561-2.653-5.135-4.215-1.564-1.562-2.98-3.282-4.219-5.119-1.289-1.916-2.41-3.93-3.364-6.042-1.023-2.27-1.889-4.618-2.597-7.005-0.777-2.643-1.417-5.325-1.918-8.027-0.561-3.026-1.013-6.082-1.348-9.137-0.374-3.429-0.659-6.878-0.856-10.326-0.226-3.861-0.373-7.722-0.462-11.593-0.088-4.323-0.138-8.636-0.128-12.959v-58.212c-0.01-4.313 0.04-8.636 0.128-12.959 0.089-3.861 0.236-7.732 0.462-11.593 0.197-3.448 0.482-6.887 0.856-10.326 0.335-3.055 0.787-6.101 1.348-9.127 0.501-2.712 1.141-5.394 1.918-8.037 0.708-2.387 1.574-4.725 2.597-7.005 0.954-2.102 2.075-4.126 3.364-6.042 1.239-1.837 2.655-3.547 4.219-5.119 1.574-1.562 3.295-2.977 5.135-4.215 1.918-1.287 3.944-2.407 6.059-3.35 2.272-1.022 4.623-1.886 7.023-2.584 2.646-0.776 5.331-1.414 8.046-1.916 3.03-0.56 6.089-1.011 9.148-1.346 3.443-0.373 6.895-0.658 10.348-0.854 3.875-0.226 7.751-0.374 11.626-0.452 4.328-0.098 8.656-0.148 12.984-0.138h74.126zm0.01 4.009c4.298-0.01 8.597 0.039 12.895 0.127 3.827 0.089 7.653 0.236 11.479 0.452 3.384 0.197 6.767 0.472 10.131 0.845 2.971 0.315 5.932 0.747 8.863 1.297 2.577 0.472 5.134 1.081 7.653 1.818 2.223 0.648 4.396 1.454 6.501 2.397 1.909 0.855 3.738 1.867 5.469 3.026 1.623 1.091 3.138 2.338 4.525 3.724 1.387 1.385 2.636 2.898 3.738 4.519 1.16 1.729 2.174 3.547 3.029 5.443 0.945 2.112 1.751 4.284 2.4 6.494 0.748 2.515 1.348 5.06 1.83 7.634 0.541 2.928 0.974 5.875 1.298 8.842 0.374 3.36 0.65 6.73 0.846 10.11 0.217 3.822 0.374 7.634 0.453 11.456 0.088 4.293 0.137 8.577 0.137 12.87v58.212c0 4.293-0.049 8.577-0.137 12.87-0.079 3.822-0.236 7.644-0.453 11.456-0.196 3.38-0.472 6.75-0.846 10.12-0.324 2.957-0.757 5.904-1.298 8.832-0.482 2.574-1.082 5.119-1.83 7.634-0.649 2.22-1.455 4.382-2.4 6.494-0.855 1.896-1.869 3.724-3.029 5.443-1.102 1.631-2.351 3.144-3.738 4.529-1.387 1.376-2.902 2.623-4.525 3.714-1.731 1.159-3.56 2.171-5.469 3.026-2.105 0.953-4.278 1.749-6.501 2.397-2.519 0.737-5.076 1.346-7.653 1.818-2.931 0.55-5.892 0.982-8.863 1.306-3.364 0.364-6.747 0.649-10.131 0.836-3.826 0.216-7.652 0.373-11.479 0.452-4.298 0.098-8.597 0.137-12.895 0.137h-0.01-74.126-0.01c-4.298 0-8.597-0.039-12.895-0.137-3.827-0.079-7.653-0.236-11.479-0.452-3.384-0.187-6.767-0.472-10.131-0.836-2.971-0.324-5.932-0.756-8.863-1.306-2.577-0.472-5.134-1.081-7.653-1.818-2.223-0.648-4.396-1.444-6.501-2.397-1.909-0.855-3.738-1.867-5.469-3.026-1.623-1.091-3.138-2.338-4.525-3.714-1.387-1.385-2.636-2.898-3.738-4.529-1.16-1.719-2.174-3.547-3.029-5.443-0.945-2.112-1.751-4.274-2.4-6.494-0.748-2.515-1.348-5.06-1.83-7.634-0.541-2.928-0.974-5.875-1.298-8.832-0.374-3.37-0.649-6.74-0.846-10.12-0.217-3.812-0.374-7.634-0.453-11.456-0.088-4.293-0.137-8.577-0.137-12.87v-58.212c0-4.293 0.049-8.577 0.137-12.87 0.079-3.822 0.236-7.634 0.453-11.456 0.197-3.38 0.472-6.75 0.846-10.11 0.324-2.967 0.757-5.914 1.298-8.842 0.482-2.574 1.082-5.119 1.83-7.634 0.649-2.21 1.455-4.382 2.4-6.494 0.855-1.896 1.869-3.714 3.029-5.443 1.102-1.621 2.351-3.134 3.738-4.519 1.387-1.386 2.902-2.633 4.525-3.724 1.731-1.159 3.56-2.171 5.469-3.026 2.105-0.943 4.278-1.749 6.501-2.397 2.519-0.737 5.076-1.346 7.653-1.818 2.931-0.55 5.892-0.982 8.863-1.297 3.364-0.373 6.747-0.648 10.131-0.845 3.826-0.216 7.652-0.363 11.479-0.452 4.298-0.088 8.597-0.137 12.895-0.127h0.01 74.126 0.01z" fill="url(#_lgradient_24)" fill-rule="evenodd"/>
  </g>
  <defs>
    <filter id="b8yrGtSFpNDiD9mRHr2b68IY42RsjrA8" x="-.082729" y="-.23773" width="1.1655" height="1.4755" color-interpolation-filters="sRGB">
      <feGaussianBlur stdDeviation="4.294"/>
    </filter>
  </defs>
  <g filter="url(#b8yrGtSFpNDiD9mRHr2b68IY42RsjrA8)" opacity=".4">
    <ellipse cx="128" cy="179.82" rx="62.285" ry="21.675" vector-effect="non-scaling-stroke"/>
  </g>
  <ellipse cx="128" cy="177.33" rx="62.285" ry="21.675" fill="#504945" vector-effect="non-scaling-stroke"/>
  <ellipse cx="128" cy="166.62" rx="42.354" ry="12.457" fill="#282828" vector-effect="non-scaling-stroke"/>
  <defs>
    <filter id="9ksBg0y9uDian0XWegCc4ZNH1vDmzOWw" x="-.089147" y="-.10552" width="1.1783" height="1.211" color-interpolation-filters="sRGB">
      <feGaussianBlur stdDeviation="4.294"/>
    </filter>
  </defs>
  <g filter="url(#9ksBg0y9uDian0XWegCc4ZNH1vDmzOWw)" opacity=".4">
    <path d="m70.199 71.446h115.6l-40.361 97.663h-34.88l-40.361-97.663z"/>
  </g>
  <linearGradient id="_lgradient_25" x1=".5" x2=".5" y2="1" gradientTransform="matrix(115.6 0 0 97.663 70.199 68.954)" gradientUnits="userSpaceOnUse">
    <stop stop-color="#8ec07c" offset="0"/>
    <stop stop-color="#458588" offset="1"/>
  </linearGradient>
  <path d="m70.199 68.954h115.6l-37.688 91.194c-1.475 3.571-5.81 6.469-9.673 6.469h-20.88c-3.863 0-8.198-2.898-9.673-6.469l-37.688-91.194z" fill="url(#_lgradient_25)"/>
  <defs>
    <filter id="D2uzCLv4WPjqW0SQ9eTCxwSqz4NCia3W" x="-.06083" y="-.13787" width="1.1217" height="1.2757" color-interpolation-filters="sRGB">
      <feGaussianBlur stdDeviation="2.147"/>
    </filter>
  </defs>
  <g filter="url(#D2uzCLv4WPjqW0SQ9eTCxwSqz4NCia3W)" opacity=".4">
    <path d="m170.35 135.85c-0.025 2.242-0.673 4.434-1.918 6.303-1.022 1.544-2.317 2.865-3.787 3.961-1.396 0.997-2.865 1.869-4.435 2.591-1.644 0.773-3.363 1.42-5.107 1.943-4.012 1.246-8.147 2.093-12.333 2.616-4.883 0.598-9.841 0.922-14.774 0.897-4.933 0.025-9.891-0.299-14.774-0.897-4.186-0.523-8.321-1.37-12.333-2.616-1.744-0.523-3.463-1.17-5.107-1.943-1.57-0.722-3.039-1.594-4.435-2.591-1.47-1.096-2.765-2.417-3.762-3.936-1.27-1.894-1.918-4.086-1.943-6.328 0.025-2.243 0.673-4.41 1.869-6.279 0.996-1.52 2.242-2.865 3.687-3.986 1.37-1.046 2.84-1.968 4.385-2.741 1.644-0.822 3.363-1.519 5.107-2.117 4.036-1.346 8.197-2.317 12.407-2.89 4.933-0.723 9.916-1.072 14.899-1.047 4.983-0.025 9.966 0.324 14.899 1.047 4.21 0.573 8.371 1.544 12.407 2.89 1.744 0.598 3.463 1.295 5.107 2.117 1.545 0.773 3.015 1.695 4.385 2.741 1.445 1.121 2.691 2.466 3.687 3.986 1.196 1.869 1.844 4.036 1.869 6.279zm-17.739-0.15c-0.623 0.249-1.246 0.473-1.868 0.673-3.214 0.971-6.478 1.644-9.792 2.043-4.31 0.548-8.62 0.822-12.955 0.797-4.335 0.025-8.645-0.249-12.955-0.797-3.314-0.399-6.578-1.072-9.792-2.043-0.622-0.2-1.245-0.424-1.868-0.673 0.673-0.299 1.37-0.573 2.068-0.797 3.164-1.072 6.428-1.819 9.716-2.267 4.261-0.623 8.546-0.922 12.831-0.897 4.285-0.025 8.57 0.274 12.831 0.897 3.288 0.448 6.552 1.195 9.716 2.267 0.698 0.224 1.395 0.498 2.068 0.797z" fill-rule="evenodd"/>
  </g>
  <linearGradient id="_lgradient_26" x2="0" y2="1" gradientTransform="matrix(84.708 0 0 37.374 85.646 114.3)" gradientUnits="userSpaceOnUse">
    <stop stop-color="#8ec07c" offset="0"/>
    <stop stop-color="#8ec07c" offset="1"/>
  </linearGradient>
  <path d="m170.35 133.36c-0.025 2.242-0.673 4.435-1.918 6.303-1.022 1.545-2.317 2.865-3.787 3.962-1.396 0.996-2.865 1.868-4.435 2.591-1.644 0.772-3.363 1.42-5.107 1.943-4.012 1.246-8.147 2.093-12.333 2.616-4.883 0.598-9.841 0.922-14.774 0.897-4.933 0.025-9.891-0.299-14.774-0.897-4.186-0.523-8.321-1.37-12.333-2.616-1.744-0.523-3.463-1.171-5.107-1.943-1.57-0.723-3.039-1.595-4.435-2.591-1.47-1.097-2.765-2.417-3.762-3.937-1.27-1.893-1.918-4.086-1.943-6.328 0.025-2.242 0.673-4.41 1.869-6.278 0.996-1.52 2.242-2.865 3.687-3.986 1.37-1.047 2.84-1.969 4.385-2.741 1.644-0.822 3.363-1.52 5.107-2.118 4.036-1.345 8.197-2.317 12.407-2.89 4.933-0.722 9.916-1.071 14.899-1.046 4.983-0.025 9.966 0.324 14.899 1.046 4.21 0.573 8.371 1.545 12.407 2.89 1.744 0.598 3.463 1.296 5.107 2.118 1.545 0.772 3.015 1.694 4.385 2.741 1.445 1.121 2.691 2.466 3.687 3.986 1.196 1.868 1.844 4.036 1.869 6.278zm-17.739-0.149c-0.623 0.249-1.246 0.473-1.868 0.672-3.214 0.972-6.478 1.645-9.792 2.043-4.31 0.548-8.62 0.822-12.955 0.798-4.335 0.024-8.645-0.25-12.955-0.798-3.314-0.398-6.578-1.071-9.792-2.043-0.622-0.199-1.245-0.423-1.868-0.672 0.673-0.299 1.37-0.573 2.068-0.798 3.164-1.071 6.428-1.818 9.716-2.267 4.261-0.623 8.546-0.922 12.831-0.897 4.285-0.025 8.57 0.274 12.831 0.897 3.288 0.449 6.552 1.196 9.716 2.267 0.698 0.225 1.395 0.499 2.068 0.798z" fill="url(#_lgradient_26)" fill-rule="evenodd"/>
  <defs>
    <filter id="XIOfHSm5KVx2LREjUsbdSgQFu3mbqHYR" x="-.044962" y="-.11489" width="1.0899" height="1.2298" color-interpolation-filters="sRGB">
      <feGaussianBlur stdDeviation="2.147"/>
    </filter>
  </defs>
  <g filter="url(#XIOfHSm5KVx2LREjUsbdSgQFu3mbqHYR)" opacity=".4">
    <path d="m185.3 107.6c-0.049 2.591-0.847 5.132-2.342 7.25-1.22 1.794-2.74 3.363-4.509 4.684-1.769 1.345-3.687 2.541-5.705 3.513-2.243 1.121-4.535 2.117-6.901 2.94-5.581 1.918-11.311 3.313-17.141 4.185-6.852 1.071-13.778 1.595-20.704 1.57-6.926 0.025-13.852-0.499-20.704-1.57-5.83-0.872-11.56-2.267-17.141-4.185-2.366-0.823-4.658-1.819-6.901-2.94-2.018-0.972-3.936-2.168-5.705-3.513-1.769-1.321-3.289-2.89-4.534-4.709-1.42-2.068-2.243-4.509-2.317-7.026v-0.224-0.174c0.049-2.616 0.946-5.133 2.516-7.201 1.345-1.768 2.99-3.263 4.883-4.409 1.844-1.146 3.787-2.118 5.805-2.89 2.267-0.872 4.559-1.595 6.901-2.168 5.556-1.37 11.212-2.342 16.917-2.865 6.727-0.673 13.503-0.997 20.28-0.972 6.777-0.025 13.553 0.299 20.28 0.972 5.705 0.523 11.361 1.495 16.917 2.865 2.342 0.573 4.634 1.296 6.901 2.168 2.018 0.772 3.961 1.744 5.805 2.89 1.893 1.146 3.538 2.641 4.883 4.409 1.619 2.118 2.491 4.734 2.516 7.4zm-16.268 0.299c-0.922 0.673-1.919 1.271-2.94 1.769-1.67 0.847-3.389 1.569-5.158 2.192-4.708 1.62-9.567 2.791-14.5 3.538-6.104 0.947-12.257 1.42-18.436 1.395-6.179 0.025-12.332-0.448-18.436-1.395-4.933-0.747-9.792-1.918-14.5-3.538-1.769-0.623-3.488-1.345-5.158-2.192-1.021-0.498-2.018-1.096-2.94-1.769 0.723-0.374 1.495-0.723 2.268-1.022 1.694-0.647 3.413-1.195 5.182-1.644 4.833-1.196 9.766-2.018 14.724-2.491 6.278-0.623 12.557-0.922 18.86-0.897 6.303-0.025 12.582 0.274 18.86 0.897 4.958 0.473 9.891 1.295 14.724 2.491 1.769 0.449 3.488 0.997 5.182 1.644 0.773 0.299 1.545 0.648 2.268 1.022z" fill-rule="evenodd"/>
  </g>
  <linearGradient id="_lgradient_27" x2="0" y2="1" gradientTransform="matrix(114.6 0 0 44.848 70.698 84.4)" gradientUnits="userSpaceOnUse">
    <stop stop-color="#8ec07c" offset="0"/>
    <stop stop-color="#8ec07c" offset="1"/>
  </linearGradient>
  <path d="m185.3 105.1c-0.049 2.591-0.847 5.132-2.342 7.25-1.22 1.793-2.74 3.363-4.509 4.683-1.769 1.346-3.687 2.542-5.705 3.513-2.243 1.121-4.535 2.118-6.901 2.94-5.581 1.919-11.311 3.314-17.141 4.186-6.852 1.071-13.778 1.594-20.704 1.569-6.926 0.025-13.852-0.498-20.704-1.569-5.83-0.872-11.56-2.267-17.141-4.186-2.366-0.822-4.658-1.819-6.901-2.94-2.018-0.971-3.936-2.167-5.705-3.513-1.769-1.32-3.289-2.89-4.534-4.708-1.42-2.068-2.243-4.51-2.317-7.026v-0.224-0.175c0.049-2.616 0.946-5.132 2.516-7.2 1.345-1.769 2.99-3.264 4.883-4.41 1.844-1.146 3.787-2.117 5.805-2.89 2.267-0.872 4.559-1.594 6.901-2.167 5.556-1.371 11.212-2.342 16.917-2.865 6.727-0.673 13.503-0.997 20.28-0.972 6.777-0.025 13.553 0.299 20.28 0.972 5.705 0.523 11.361 1.494 16.917 2.865 2.342 0.573 4.634 1.295 6.901 2.167 2.018 0.773 3.961 1.744 5.805 2.89 1.893 1.146 3.538 2.641 4.883 4.41 1.619 2.118 2.491 4.734 2.516 7.4zm-16.268 0.299c-0.922 0.672-1.919 1.27-2.94 1.768-1.67 0.847-3.389 1.57-5.158 2.193-4.708 1.619-9.567 2.79-14.5 3.538-6.104 0.946-12.257 1.42-18.436 1.395-6.179 0.025-12.332-0.449-18.436-1.395-4.933-0.748-9.792-1.919-14.5-3.538-1.769-0.623-3.488-1.346-5.158-2.193-1.021-0.498-2.018-1.096-2.94-1.768 0.723-0.374 1.495-0.723 2.268-1.022 1.694-0.648 3.413-1.196 5.182-1.644 4.833-1.196 9.766-2.018 14.724-2.492 6.278-0.623 12.557-0.922 18.86-0.897 6.303-0.025 12.582 0.274 18.86 0.897 4.958 0.474 9.891 1.296 14.724 2.492 1.769 0.448 3.488 0.996 5.182 1.644 0.773 0.299 1.545 0.648 2.268 1.022z" fill="url(#_lgradient_27)" fill-rule="evenodd"/>
  <defs>
    <filter id="Ner18UeDKzXowwveSiPy4H69E0yeUesJ" x="-.035537" y="-.11489" width="1.0711" height="1.2298" color-interpolation-filters="sRGB">
      <feGaussianBlur stdDeviation="2.147"/>
    </filter>
  </defs>
  <g filter="url(#Ner18UeDKzXowwveSiPy4H69E0yeUesJ)" opacity=".4">
    <path d="m200.5 78.671c-0.075 3.089-1.32 6.054-3.488 8.246-1.57 1.62-3.488 3.065-5.581 4.161-2.267 1.246-4.609 2.267-7.026 3.114-2.84 1.022-5.73 1.869-8.67 2.591-7.125 1.719-14.35 2.94-21.65 3.688-8.67 0.921-17.365 1.395-26.085 1.37-8.72 0.025-17.415-0.449-26.085-1.37-7.3-0.748-14.525-1.969-21.65-3.688-2.94-0.722-5.83-1.569-8.67-2.591-2.417-0.847-4.759-1.868-7.026-3.114-2.093-1.096-4.011-2.541-5.656-4.235-2.117-2.193-3.338-5.108-3.413-8.172 0.05-3.09 1.32-6.03 3.538-8.222 1.669-1.669 3.612-3.039 5.755-4.086 2.267-1.121 4.634-2.068 7.051-2.815 2.84-0.922 5.73-1.669 8.645-2.292 7.1-1.47 14.301-2.541 21.551-3.139 8.645-0.773 17.29-1.146 25.96-1.122 8.67-0.024 17.315 0.349 25.96 1.122 7.25 0.598 14.451 1.669 21.551 3.139 2.915 0.623 5.805 1.37 8.645 2.292 2.417 0.747 4.784 1.694 7.051 2.815 2.143 1.047 4.086 2.417 5.755 4.086 2.218 2.192 3.488 5.132 3.538 8.222zm-17.963 0.174c-0.997 0.473-2.043 0.872-3.089 1.246-2.367 0.847-4.784 1.569-7.225 2.167-6.478 1.545-13.055 2.666-19.683 3.339-8.147 0.872-16.343 1.32-24.54 1.295-8.197 0.025-16.393-0.423-24.54-1.295-6.628-0.673-13.205-1.794-19.683-3.339-2.441-0.598-4.858-1.32-7.225-2.167-1.046-0.374-2.092-0.773-3.089-1.246 0.922-0.399 1.894-0.747 2.84-1.046 2.392-0.748 4.809-1.395 7.25-1.919 6.528-1.345 13.13-2.317 19.782-2.865 8.197-0.722 16.418-1.096 24.665-1.071 8.247-0.025 16.468 0.349 24.665 1.071 6.652 0.548 13.254 1.52 19.782 2.865 2.441 0.524 4.858 1.171 7.25 1.919 0.946 0.299 1.918 0.647 2.84 1.046z" fill-rule="evenodd"/>
  </g>
  <linearGradient id="_lgradient_28" x2="0" y2="1" gradientTransform="matrix(145,0,0,44.847,55.5,54.503)" gradientUnits="userSpaceOnUse">
    <stop stop-color="#8ec07c" offset="0"/>
    <stop stop-color="#8ec07c" offset="1"/>
  </linearGradient>
  <path d="m200.5 76.179c-0.075 3.09-1.32 6.054-3.488 8.247-1.57 1.619-3.488 3.064-5.581 4.16-2.267 1.246-4.609 2.268-7.026 3.115-2.84 1.021-5.73 1.868-8.67 2.591-7.125 1.719-14.35 2.94-21.65 3.687-8.67 0.922-17.365 1.395-26.085 1.37-8.72 0.025-17.415-0.448-26.085-1.37-7.3-0.747-14.525-1.968-21.65-3.687-2.94-0.723-5.83-1.57-8.67-2.591-2.417-0.847-4.759-1.869-7.026-3.115-2.093-1.096-4.011-2.541-5.656-4.235-2.117-2.192-3.338-5.107-3.413-8.172 0.05-3.089 1.32-6.029 3.538-8.221 1.669-1.67 3.612-3.04 5.755-4.086 2.267-1.121 4.634-2.068 7.051-2.816 2.84-0.921 5.73-1.669 8.645-2.292 7.1-1.47 14.301-2.541 21.551-3.139 8.645-0.772 17.29-1.146 25.96-1.121 8.67-0.025 17.315 0.349 25.96 1.121 7.25 0.598 14.451 1.669 21.551 3.139 2.915 0.623 5.805 1.371 8.645 2.292 2.417 0.748 4.784 1.695 7.051 2.816 2.143 1.046 4.086 2.416 5.755 4.086 2.218 2.192 3.488 5.132 3.538 8.221zm-17.963 0.175c-0.997 0.473-2.043 0.872-3.089 1.245-2.367 0.847-4.784 1.57-7.225 2.168-6.478 1.545-13.055 2.666-19.683 3.338-8.147 0.872-16.343 1.321-24.54 1.296-8.197 0.025-16.393-0.424-24.54-1.296-6.628-0.672-13.205-1.793-19.683-3.338-2.441-0.598-4.858-1.321-7.225-2.168-1.046-0.373-2.092-0.772-3.089-1.245 0.922-0.399 1.894-0.748 2.84-1.047 2.392-0.747 4.809-1.395 7.25-1.918 6.528-1.345 13.13-2.317 19.782-2.865 8.197-0.723 16.418-1.096 24.665-1.072 8.247-0.024 16.468 0.349 24.665 1.072 6.652 0.548 13.254 1.52 19.782 2.865 2.441 0.523 4.858 1.171 7.25 1.918 0.946 0.299 1.918 0.648 2.84 1.047z" fill="url(#_lgradient_28)" fill-rule="evenodd"/>
  <g opacity=".2">
    <path d="m128 54.504c-18.388 0-35.019 1.556-47.565 4.277-6.274 1.361-11.502 2.955-15.791 5.178-2.144 1.111-4.095 2.369-5.829 4.238s-3.314 4.711-3.314 7.98c0 0.43 0.028 0.849 0.078 1.261 0.331-2.75 1.723-5.119 3.236-6.75 1.734-1.869 3.685-3.126 5.829-4.238 4.289-2.223 9.517-3.816 15.791-5.177 12.546-2.722 29.177-4.278 47.565-4.278s35.019 1.556 47.565 4.278c6.274 1.361 11.502 2.954 15.791 5.177 2.144 1.112 4.095 2.369 5.829 4.238 1.513 1.631 2.905 4 3.236 6.75 0.05-0.412 0.078-0.831 0.078-1.261 0-3.269-1.58-6.111-3.314-7.98s-3.685-3.127-5.829-4.238c-4.289-2.223-9.517-3.817-15.791-5.178-12.546-2.721-29.177-4.277-47.565-4.277zm-50.646 23.172c-1.101 0.396-2.166 0.795-3.119 1.183 2.462 1.119 5.243 2.321 9.586 3.401 10.95 2.723 26.758 4.632 44.179 4.632s33.229-1.909 44.179-4.632c4.343-1.08 7.124-2.282 9.586-3.401-0.953-0.388-2.018-0.787-3.119-1.183-1.786 0.713-3.781 1.424-6.467 2.092-10.95 2.723-26.758 4.633-44.179 4.633s-33.229-1.91-44.179-4.633c-2.686-0.668-4.681-1.379-6.467-2.092z" fill="#ebdbb2"/>
  </g>
</svg>
