<svg width="256" height="256" style="isolation:isolate" version="1.1" viewBox="0 0 256 256" xmlns="http://www.w3.org/2000/svg">
  <defs>
    <clipPath id="_clipPath_vbbMBnrcGFY1dKwkXtJR4TUbmu4sDuao">
      <rect width="256" height="256"/>
    </clipPath>
  </defs>
  <g clip-path="url(#_clipPath_vbbMBnrcGFY1dKwkXtJR4TUbmu4sDuao)">
    <defs>
      <filter id="zfisjOFRy9tHyqOyBVvw7ygMGIW8OYn0" x="-.04212" y="-.04513" width="1.084" height="1.108" color-interpolation-filters="sRGB">
        <feGaussianBlur in="SourceGraphic" stdDeviation="4.294"/>
        <feOffset dx="0" dy="4" result="pf_100_offsetBlur"/>
        <feFlood flood-opacity=".4"/>
        <feComposite in2="pf_100_offsetBlur" operator="in" result="pf_100_dropShadow"/>
        <feBlend in="SourceGraphic" in2="pf_100_dropShadow"/>
      </filter>
    </defs>
    <g filter="url(#zfisjOFRy9tHyqOyBVvw7ygMGIW8OYn0)">
      <linearGradient id="_lgradient_335" x2="0" y2="1" gradientTransform="matrix(244.6 0 0 228.3 5.68 11.95)" gradientUnits="userSpaceOnUse">
        <stop stop-color="#504945" offset="0"/>
        <stop stop-color="#3c3836" offset="1"/>
      </linearGradient>
      <path d="m165.7 11.95c74.06 0 84.64 10.56 84.64 84.54v59.25c0 73.99-10.58 84.54-84.64 84.54h-75.37c-74.06 0-84.64-10.56-84.64-84.54v-59.25c0-73.99 10.58-84.54 84.64-84.54h75.37z" fill="url(#_lgradient_335)"/>
    </g>
    <g opacity=".4">
      <linearGradient id="_lgradient_336" x1=".517" x2=".517" y2="1" gradientTransform="matrix(244.6 0 0 228.3 5.68 11.95)" gradientUnits="userSpaceOnUse">
        <stop stop-color="#ebdbb2" offset="0"/>
        <stop stop-color="#ebdbb2" stop-opacity=".098" offset=".125"/>
        <stop stop-color="#282828" stop-opacity=".098" offset=".925"/>
        <stop stop-color="#282828" stop-opacity=".498" offset="1"/>
      </linearGradient>
      <path d="m165.1 11.95c4.328-0.01 8.656 0.04 12.98 0.138 3.875 0.078 7.751 0.226 11.63 0.452 3.453 0.196 6.905 0.481 10.35 0.854 3.059 0.335 6.118 0.786 9.148 1.346 2.715 0.502 5.4 1.14 8.046 1.916 2.4 0.698 4.751 1.562 7.023 2.584 2.115 0.943 4.141 2.063 6.059 3.35 1.84 1.238 3.561 2.653 5.135 4.215 1.564 1.572 2.98 3.282 4.219 5.119 1.289 1.916 2.41 3.94 3.364 6.042 1.023 2.28 1.889 4.618 2.597 7.005 0.777 2.643 1.417 5.325 1.918 8.037 0.561 3.026 1.013 6.072 1.348 9.127 0.374 3.439 0.659 6.878 0.856 10.33 0.226 3.861 0.373 7.732 0.462 11.59 0.088 4.323 0.138 8.646 0.128 12.96v58.21c0.01 4.323-0.04 8.636-0.128 12.96-0.089 3.871-0.236 7.732-0.462 11.59-0.197 3.448-0.482 6.897-0.856 10.33-0.335 3.055-0.787 6.111-1.348 9.137-0.501 2.702-1.141 5.384-1.918 8.027-0.708 2.387-1.574 4.735-2.597 7.005-0.954 2.112-2.075 4.126-3.364 6.042-1.239 1.837-2.655 3.557-4.219 5.119-1.574 1.562-3.295 2.977-5.135 4.215-1.918 1.287-3.944 2.407-6.059 3.35-2.272 1.022-4.623 1.886-7.023 2.594-2.646 0.776-5.331 1.414-8.046 1.906-3.03 0.569-6.089 1.011-9.148 1.346-3.443 0.373-6.895 0.658-10.35 0.854-3.875 0.226-7.751 0.374-11.63 0.462-4.328 0.088-8.656 0.138-12.98 0.128h-74.13c-4.328 0.01-8.656-0.04-12.98-0.128-3.875-0.088-7.751-0.236-11.63-0.462-3.453-0.196-6.905-0.481-10.35-0.854-3.059-0.335-6.118-0.777-9.148-1.346-2.715-0.492-5.4-1.13-8.046-1.906-2.4-0.708-4.751-1.572-7.023-2.594-2.115-0.943-4.141-2.063-6.059-3.35-1.84-1.238-3.561-2.653-5.135-4.215-1.564-1.562-2.98-3.282-4.219-5.119-1.289-1.916-2.41-3.93-3.364-6.042-1.023-2.27-1.889-4.618-2.597-7.005-0.777-2.643-1.417-5.325-1.918-8.027-0.561-3.026-1.013-6.082-1.348-9.137-0.374-3.429-0.659-6.878-0.856-10.33-0.226-3.861-0.373-7.722-0.462-11.59-0.088-4.323-0.138-8.636-0.128-12.96v-58.21c-0.01-4.313 0.04-8.636 0.128-12.96 0.089-3.861 0.236-7.732 0.462-11.59 0.197-3.448 0.482-6.887 0.856-10.33 0.335-3.055 0.787-6.101 1.348-9.127 0.501-2.712 1.141-5.394 1.918-8.037 0.708-2.387 1.574-4.725 2.597-7.005 0.954-2.102 2.075-4.126 3.364-6.042 1.239-1.837 2.655-3.547 4.219-5.119 1.574-1.562 3.295-2.977 5.135-4.215 1.918-1.287 3.944-2.407 6.059-3.35 2.272-1.022 4.623-1.886 7.023-2.584 2.646-0.776 5.331-1.414 8.046-1.916 3.03-0.56 6.089-1.011 9.148-1.346 3.443-0.373 6.895-0.658 10.35-0.854 3.875-0.226 7.751-0.374 11.63-0.452 4.328-0.098 8.656-0.148 12.98-0.138h74.13zm0.01 4.009c4.298-0.01 8.597 0.039 12.9 0.127 3.827 0.089 7.653 0.236 11.48 0.452 3.384 0.197 6.767 0.472 10.13 0.845 2.971 0.315 5.932 0.747 8.863 1.297 2.577 0.472 5.134 1.081 7.653 1.818 2.223 0.648 4.396 1.454 6.501 2.397 1.909 0.855 3.738 1.867 5.469 3.026 1.623 1.091 3.138 2.338 4.525 3.724 1.387 1.385 2.636 2.898 3.738 4.519 1.16 1.729 2.174 3.547 3.029 5.443 0.945 2.112 1.751 4.284 2.4 6.494 0.748 2.515 1.348 5.06 1.83 7.634 0.541 2.928 0.974 5.875 1.298 8.842 0.374 3.36 0.65 6.73 0.846 10.11 0.217 3.822 0.374 7.634 0.453 11.46 0.088 4.293 0.137 8.577 0.137 12.87v58.21c0 4.293-0.049 8.577-0.137 12.87-0.079 3.822-0.236 7.644-0.453 11.46-0.196 3.38-0.472 6.75-0.846 10.12-0.324 2.957-0.757 5.904-1.298 8.832-0.482 2.574-1.082 5.119-1.83 7.634-0.649 2.22-1.455 4.382-2.4 6.494-0.855 1.896-1.869 3.724-3.029 5.443-1.102 1.631-2.351 3.144-3.738 4.529-1.387 1.376-2.902 2.623-4.525 3.714-1.731 1.159-3.56 2.171-5.469 3.026-2.105 0.953-4.278 1.749-6.501 2.397-2.519 0.737-5.076 1.346-7.653 1.818-2.931 0.55-5.892 0.982-8.863 1.306-3.364 0.364-6.747 0.649-10.13 0.836-3.826 0.216-7.652 0.373-11.48 0.452-4.298 0.098-8.597 0.137-12.9 0.137h-0.01-74.13-0.01c-4.298 0-8.597-0.039-12.9-0.137-3.827-0.079-7.653-0.236-11.48-0.452-3.384-0.187-6.767-0.472-10.13-0.836-2.971-0.324-5.932-0.756-8.863-1.306-2.577-0.472-5.134-1.081-7.653-1.818-2.223-0.648-4.396-1.444-6.501-2.397-1.909-0.855-3.738-1.867-5.469-3.026-1.623-1.091-3.138-2.338-4.525-3.714-1.387-1.385-2.636-2.898-3.738-4.529-1.16-1.719-2.174-3.547-3.029-5.443-0.945-2.112-1.751-4.274-2.4-6.494-0.748-2.515-1.348-5.06-1.83-7.634-0.541-2.928-0.974-5.875-1.298-8.832-0.374-3.37-0.649-6.74-0.846-10.12-0.217-3.812-0.374-7.634-0.453-11.46-0.088-4.293-0.137-8.577-0.137-12.87v-58.21c0-4.293 0.049-8.577 0.137-12.87 0.079-3.822 0.236-7.634 0.453-11.46 0.197-3.38 0.472-6.75 0.846-10.11 0.324-2.967 0.757-5.914 1.298-8.842 0.482-2.574 1.082-5.119 1.83-7.634 0.649-2.21 1.455-4.382 2.4-6.494 0.855-1.896 1.869-3.714 3.029-5.443 1.102-1.621 2.351-3.134 3.738-4.519 1.387-1.386 2.902-2.633 4.525-3.724 1.731-1.159 3.56-2.171 5.469-3.026 2.105-0.943 4.278-1.749 6.501-2.397 2.519-0.737 5.076-1.346 7.653-1.818 2.931-0.55 5.892-0.982 8.863-1.297 3.364-0.373 6.747-0.648 10.13-0.845 3.826-0.216 7.652-0.363 11.48-0.452 4.298-0.088 8.597-0.137 12.9-0.127h0.01 74.13 0.01z" fill="url(#_lgradient_336)" fill-rule="evenodd"/>
    </g>
    <linearGradient id="_lgradient_337" x1=".187" x2=".19" y1=".005" y2=".999" gradientTransform="matrix(144.8 0 0 112.4 55.5 54.2)" gradientUnits="userSpaceOnUse">
      <stop stop-color="#83a598" offset="0"/>
      <stop stop-color="#458588" offset="1"/>
    </linearGradient>
    <path d="m59.12 54.2c-2.003 0-3.617 1.613-3.621 3.618v7e-3l0.021 29.1c0.056 1.96 1.629 3.526 3.6 3.526-1.966 0-3.537 1.56-3.6 3.512l0.022 29.32c0.111 1.906 1.645 3.419 3.578 3.419-1.933 0-3.467 1.513-3.578 3.42l-0.022 29.32c0.063 1.953 1.634 3.512 3.6 3.512-1.971 0-3.544 1.567-3.6 3.526-0.021 0.099 144.8 0.099 144.8 0.099 0-2.008-1.615-3.625-3.621-3.625 2.006 0 3.621-1.617 3.621-3.625v-14.53-14.47c0-2.008-1.615-3.625-3.621-3.625 2.006 0 3.621-1.617 3.621-3.625v-29c0-2.008-1.615-3.625-3.621-3.625h-28.97c-2.006 0-3.621 1.617-3.621 3.625v29c0 2.008 1.615 3.625 3.621 3.625-2.006 0-3.621 1.617-3.621 3.625 0-2.008-1.615-3.625-3.622-3.625h-28.97c-2.006 0-3.621 1.617-3.621 3.625 0-2.008-1.615-3.625-3.621-3.625 2.006 0 3.621-1.617 3.621-3.625v-29c0-2.008-1.615-3.625-3.621-3.625h-28.97c-2.006 0-3.621 1.617-3.621 3.625 0-2.008-1.615-3.625-3.621-3.625 2.006 0 3.621-1.616 3.621-3.625v-29c0-2.008-1.615-3.625-3.621-3.625h-14.44-14.53zm32.59 68.88c0 2.008 1.615 3.625 3.621 3.625-2.006 0-3.621 1.617-3.621 3.625 0-2.008-1.615-3.625-3.621-3.625 2.006 0 3.621-1.617 3.621-3.625zm0 36.25c0 2.008 1.615 3.625 3.621 3.625-2.006 0-3.621 1.617-3.621 3.625 0-2.008-1.615-3.625-3.621-3.625 2.006 0 3.621-1.617 3.621-3.625zm36.21 0c0 2.008 1.615 3.625 3.621 3.625-2.006 0-3.621 1.617-3.621 3.625 0-2.008-1.615-3.625-3.621-3.625 2.006 0 3.621-1.617 3.621-3.625zm36.21 0c0 2.008 1.615 3.625 3.621 3.625-2.006 0-3.621 1.617-3.621 3.625 0-2.008-1.615-3.625-3.622-3.625 2.007 0 3.622-1.617 3.622-3.625z" fill="url(#_lgradient_337)"/>
    <g fill="#ebdbb2" opacity=".3">
      <path d="m91.71 86.83v-29c0-2.008-1.615-3.625-3.621-3.625h-28.97c-2.006 0-3.621 1.617-3.621 3.625v29c0 2.009 1.615 3.625 3.621 3.625h28.97c2.006 0 3.621-1.616 3.621-3.625z"/>
      <path d="m128 123.1v-29c0-2.008-1.617-3.625-3.625-3.625h-29c-2.008 0-3.625 1.617-3.625 3.625v29c0 2.008 1.617 3.625 3.625 3.625h29c2.008 0 3.625-1.617 3.625-3.625z"/>
    </g>
    <path d="m56.18 121.6c-0.189 0.096-0.298 1.346-0.396 2.903 1e-3 2e-3 -1e-3 5e-3 0 7e-3 0.548 1.302 1.834 2.209 3.338 2.209-1.778 0-3.182 1.294-3.494 2.981-0.096 5.268-0.126 13.45-0.127 29.64v0.014c8e-3 2.002 1.62 3.611 3.621 3.611-2.006 0-3.621 1.617-3.621 3.625v13.21l3.625 11.89c0.575 1.884-0.39 3.849 1.563 3.908h27.4c1.953-0.059 3.621 1.971 3.621 0 0 1.971 1.667-0.059 3.621 0h25.35c1.953-0.059 7.242 1.971 7.242 0 0 1.971 3.792-0.059 5.746 0l24.72-7.25c1.953-0.059 5.746 5.596 5.746 3.625 0 1.971 5.288 3.566 7.242 3.625h14.48c1.954-0.059 7.275-3.965 7.513-5.922l2.112-17.43c0.111-0.915-2.369-1.953 1.238-5.649-0.04-1.973 1.981-3.625 0-3.625 1.901 0-0.157-1.764 0-3.625-0.019-4.012 3.518-7.32 3.479-10.39-0.085-6.875-0.221-11.08-0.423-11.21-0.312-0.193-0.566-0.602-0.566-0.913 0-0.312 0.254-0.412 0.566-0.22 0.313 0.194 0.565-0.215 0.565-0.92 0-1.196-0.047-1.209-0.749-0.248-0.701 0.959-0.861 0.964-2.518 0.106-0.973-0.504-2.036-0.92-2.362-0.92-0.899 0-0.713 1.692 0.226 2.053 0.452 0.173 1.114 1.203 1.471 2.287 0.566 1.715 0.515 2.07-0.396 2.761-1.542 1.17-1.895 1.015-1.895-0.835 0-1.991-0.972-2.841-1.231-1.077-0.1 0.682-0.47 1.336-0.82 1.452-0.962 0.316-1.424-1.468-0.722-2.783 0.916-1.713-0.561-3.12-2.199-2.095-1.641 1.026-2.733-0.054-3.197-3.151-0.452-3.016-1.428-3.921-3.826-3.568-1.362 0.2-2.084-0.035-2.872-0.928-0.578-0.656-1.16-0.941-1.301-0.63-0.892 1.977-1.254 2.186-2.185 1.253-0.63-0.63-1.294-0.781-2.122-0.474-0.663 0.245-1.804 0.338-2.532 0.198-1.026-0.196-1.323-0.627-1.323-1.897 0-0.903-0.234-2.086-0.523-2.627-0.288-0.541-0.672-1.445-0.849-2.011-0.228-0.733-0.768-0.977-1.874-0.849-1.318 0.152-1.604 0.51-1.902 2.364-0.044 0.273-0.041 0.45-0.057 0.687 0.605 1.153 1.773 1.961 3.169 1.961-2.006 0-3.621 1.617-3.621 3.625 0-1.506-0.907-2.793-2.207-3.342-0.337-0.024-0.668-0.017-0.997-0.077-2.739-0.502-4.28 0.171-3.805 1.663 0.416 1.307 0.415 4.902 0 5.317-0.137 0.137-0.843-0.125-1.57-0.58-0.728-0.455-2.649-0.97-4.272-1.147l-2.956-0.319-0.58 2.096c-0.787 2.836-0.728 4.069 0.268 5.983 1.229 2.357 1.11 3.722-0.289 3.356-0.625-0.164-1.551 0.045-2.059 0.467-0.799 0.664-1.049 0.575-1.831-0.644-0.497-0.775-2.042-2.476-3.438-3.781-2.768-2.59-3.604-2.51-4.186 0.403-0.44 2.202-1.164 2.128-3.508-0.361-2.225-2.361-3.65-2.258-3.65 0.262 0 0.907-0.353 1.942-0.785 2.301s-0.96 2.053-1.174 3.767c-0.276 2.21-0.798 3.525-1.789 4.517-1.719 1.721-2.109 1.735-3.176 0.127-0.768-1.158-0.973-1.198-2.298-0.488-0.799 0.428-1.831 0.633-2.299 0.453-1.073-0.412-1.503 0.699-0.799 2.067 0.296 0.575 0.379 1.658 0.191 2.408-0.276 1.103-0.704 1.359-2.249 1.359-1.132 0-2.037-0.327-2.221-0.807-0.17-0.445-1.021-0.891-1.895-0.991-1.258-0.145-1.627-0.509-1.768-1.742-0.099-0.857-0.424-1.558-0.722-1.558-0.297 0-0.833-0.637-1.188-1.416-0.811-1.782-1.471-1.791-2.136-0.042-0.446 1.175-2.594 2.517-3.104 1.94-0.094-0.106-1.071-2.146-2.165-4.531-1.149-2.507-2.587-4.732-3.416-5.275-1.297-0.851-1.593-0.86-3.104-0.078-1.91 0.989-2.595 0.672-1.691-0.779 0.342-0.548 0.461-1.415 0.262-1.933-0.307-0.802-0.911-0.884-4.081-0.559l-3.72 0.375 0.347-1.38c0.243-0.971 0.017-1.68-0.771-2.393-0.839-0.76-1.045-1.481-0.821-2.868 0.258-1.59 0.113-1.902-1.032-2.209-0.734-0.196-2.033-0.356-2.886-0.361-0.932-4e-3 -1.838-0.466-2.263-1.147-0.786-1.261-2.186-1.445-3.918-0.517-0.931 0.499-1.357 0.392-2.249-0.566-0.605-0.65-1.47-1.182-1.924-1.182s-1.781-0.856-2.949-1.905c-1.878-1.687-2.448-1.895-4.951-1.784-1.861 0.083-3.167-0.167-3.819-0.729-0.117-0.102-0.219-0.16-0.311-0.114zm98.82 21.72c0.577-0.175 1.161 0.414 0.842 1.246-0.176 0.457-0.677 0.828-1.111 0.828-0.901 0-0.986-0.505-0.276-1.628 0.157-0.248 0.353-0.388 0.545-0.446zm-5.092 0.637c0.158 0.038 0.353 0.129 0.58 0.269 0.486 0.301 0.543 0.593 0.162 0.829-0.322 0.199-0.753 0.082-0.961-0.255-0.39-0.632-0.256-0.957 0.219-0.843zm-58.2 15.39c0 2.008 1.615 3.625 3.621 3.625-2.006 0-3.621 1.617-3.621 3.625 0-2.008-1.615-3.625-3.621-3.625 2.006 0 3.621-1.617 3.621-3.625zm36.21 0c0 2.008 1.615 3.625 3.621 3.625-2.006 0-3.621 1.617-3.621 3.625 0-2.008-1.615-3.625-3.621-3.625 2.006 0 3.621-1.617 3.621-3.625zm36.21 0c0 2.008 1.615 3.625 3.621 3.625-2.006 0-3.621 1.617-3.621 3.625 0-2.008-1.615-3.625-3.622-3.625 2.007 0 3.622-1.617 3.622-3.625z" fill="#b8bb26"/>
    <path d="m163.4 129.5c-0.122 0-0.366 0.382-0.545 0.85-0.179 0.467-0.082 0.849 0.22 0.849 0.301 0 0.551-0.382 0.551-0.849 0-0.468-0.104-0.85-0.226-0.85zm-107.2 1.48c-0.259-0.161-0.474 0.077-0.474 0.531 0 0.453 0.215 0.821 0.474 0.821 0.26 0 0.474-0.238 0.474-0.531s-0.214-0.661-0.474-0.821zm103.4 1.352c-0.593 0-0.668 0.783-0.127 1.324 0.687 0.688 1.292 0.389 0.962-0.474-0.18-0.468-0.557-0.85-0.835-0.85zm-99.35 0.17c-0.677 0.155-1.278 0.849-1.295 1.671-0.015 0.743 1.524 0.457 2.249-0.418 0.569-0.685 0.52-0.908-0.268-1.211-0.223-0.085-0.461-0.094-0.686-0.042zm11.48 1.317c-0.147-0.088-0.357-0.085-0.615 0.014-0.467 0.179-0.849 0.55-0.849 0.828s0.382 0.503 0.849 0.503 0.849-0.371 0.849-0.828c0-0.254-0.086-0.429-0.234-0.517zm81.98 0.283c-0.42-0.011-0.937 5e-3 -1.585 0.043-2.796 0.161-2.943 0.252-3.126 1.862-0.185 1.634-0.157 1.658 0.892 0.708 0.596-0.541 1.523-0.985 2.058-0.985 1.226 0 3.81 2.747 3.699 3.93-0.046 0.489-0.057 1.076-0.022 1.31 0.115 0.749 1.066 0.46 1.408-0.432 0.232-0.605 0.761-0.761 1.761-0.51 1.169 0.294 1.428 0.157 1.428-0.772 0-1.538 1.297-1.929 2.836-0.849 1.122 0.786 1.321 0.792 1.74 0.042 0.261-0.466 1.636-1.286 3.048-1.826 1.413-0.541 2.418-1.216 2.242-1.501-0.505-0.819-2.046-0.61-3.203 0.439-0.781 0.707-2.236 0.993-5.531 1.076-4.182 0.105-4.535 0.019-5.382-1.275-0.599-0.915-1.005-1.225-2.263-1.26zm-85.08 1.197c-0.266-0.031-0.521 0.109-0.884 0.41-1.221 1.015-1.094 1.609 0.396 1.855 1.832 0.302 2.537-0.519 1.415-1.642-0.387-0.388-0.66-0.593-0.927-0.623zm-5.898 2.173c-0.257 0.035-0.595 0.169-1.004 0.425-0.621 0.388-1.342 0.573-1.606 0.411-0.752-0.466-1.799 1.144-1.407 2.166 0.375 0.978 2.496 1.304 2.496 0.382 0-0.299 0.554-1.067 1.231-1.699 1.087-1.013 1.061-1.79 0.29-1.685zm9.633 0.191c-0.137-0.1-0.386 0.051-0.828 0.39-0.544 0.417-1.079 0.817-1.188 0.885-0.109 0.067-0.035 0.39 0.17 0.722 0.732 1.186 2.008 0.631 2.008-0.878 0-0.663-0.025-1.018-0.162-1.119zm79.92 0.333c-0.301 0-0.545 0.382-0.545 0.85 0 0.467 0.097 0.849 0.22 0.849 0.122 0 0.372-0.382 0.551-0.849 0.18-0.468 0.075-0.85-0.226-0.85zm-85.56 0.283c-0.196-0.023-0.346 0.156-0.552 0.524-0.261 0.467-0.31 1.495-0.113 2.28l0.354 1.43 1.032-1.267c0.947-1.165 0.952-1.347 0.114-2.28-0.395-0.439-0.639-0.664-0.835-0.687zm114.3 2.068c-0.177 0.066-0.406 0.23-0.7 0.474-0.474 0.394-0.863 1.471-0.863 2.393 0 2.285 1.274 1.769 1.783-0.722 0.348-1.706 0.313-2.346-0.22-2.145zm-93.16 0.481c-0.311 0-0.72 0.255-0.912 0.567-0.192 0.311-0.099 0.566 0.212 0.566s0.727-0.255 0.92-0.566c0.192-0.312 0.092-0.567-0.22-0.567zm112.1 0.354c-0.214-0.132-0.429 0.37-0.474 1.119s0.092 1.359 0.304 1.359c0.515 0 0.664-2.172 0.17-2.478zm-130.3 0.361c-0.348 0.05-0.737 0.353-0.912 0.878-0.123 0.37 0.179 0.673 0.672 0.673s0.898-0.399 0.898-0.892c0-0.5-0.309-0.709-0.658-0.659zm82.22 0.531c-0.195-0.044-0.373-0.016-0.488 0.099-0.229 0.23-0.045 0.643 0.403 0.921 1.057 0.654 1.534 0.176 0.679-0.68-0.181-0.182-0.398-0.296-0.594-0.34zm-66.85 0.453c-1.324 0-1.338 0.063-0.467 1.976 0.481 1.056 0.785 1.26 1.117 0.736 0.853-1.345 0.528-2.712-0.65-2.712zm-29.3 0.17c-0.078 0.075-0.11 0.328-0.113 0.772-6e-3 0.846 0.298 1.184 0.983 1.083 0.544-0.08 0.926-0.313 0.848-0.517-0.077-0.203-0.303-0.352-0.502-0.325-0.198 0.026-0.578-0.292-0.841-0.708-0.174-0.274-0.298-0.379-0.375-0.305zm118.3 0.184c-0.167 0.024-0.305 0.079-0.403 0.177-0.724 0.724 0.926 3.237 2.439 3.717 0.631 0.201 1.146 0.857 1.146 1.459s0.259 1.09 0.58 1.09c0.902 0 1.34-1.696 0.623-2.414-0.353-0.353-0.637-1.083-0.637-1.621 0-1.057-2.579-2.571-3.748-2.408zm-42.1 0.269c-0.021-0.112-0.282-0.077-0.799 0.022-1.282 0.243-3.404 3.577-2.85 4.474 0.604 0.978 1.671 0.297 1.881-1.196 0.107-0.755 0.616-1.847 1.132-2.429 0.441-0.496 0.658-0.758 0.636-0.871zm54.9 0.51c-0.312 0-0.566 0.255-0.566 0.567 0 0.311 0.254 0.566 0.566 0.566 0.311 0 0.565-0.255 0.565-0.566 0-0.312-0.254-0.567-0.565-0.567zm13.35 0.567c-0.122 0-0.365 0.382-0.544 0.849s-0.082 0.85 0.219 0.85c0.302 0 0.509-0.383 0.509-0.85s-0.061-0.849-0.184-0.849zm-9.349 0.679c-0.335-0.111-0.609 0.217-0.609 0.737 0 0.519 0.274 0.855 0.609 0.743 0.334-0.112 0.608-0.447 0.608-0.743s-0.274-0.625-0.608-0.737zm-31.44 1.02c-0.43 0-0.94 0.255-1.132 0.566-0.199 0.323 0.288 0.567 1.132 0.567 0.843 0 1.33-0.244 1.131-0.567-0.192-0.311-0.701-0.566-1.131-0.566zm-20.51 0.34c-2.114 0.169-2.405 0.295-2.405 1.033 0 0.87-3.017 2.057-4.731 1.862-0.58-0.066-1.318 0.288-1.641 0.786-0.448 0.691-0.301 1.2 0.636 2.138 1.03 1.031 1.287 1.091 1.563 0.369 0.429-1.119 3.254-1.118 4.18 0 0.584 0.704 0.526 1.064-0.304 1.982-0.558 0.617-1.454 1.119-1.994 1.119-0.864 0-1.673 1.054-1.669 2.173 0 0.208 0.891 0.439 1.98 0.517 1.088 0.078 1.98-0.047 1.98-0.283 0-0.831 2.346-1.888 3.43-1.544 1.541 0.49 1.364 1.895-0.318 2.535-0.778 0.296-1.415 0.927-1.415 1.402 0 0.934-0.877 1.176-1.372 0.375-0.167-0.271-1.012-0.64-1.874-0.814s-2.033-0.499-2.609-0.722c-0.807-0.312-1.002-0.176-0.849 0.595 0.11 0.555 1.075 1.287 2.171 1.642 1.812 0.587 1.976 0.824 2.002 2.903 0.035 2.886-0.615 3.86-2.058 3.087-0.59-0.316-1.08-1.009-1.09-1.544-0.012-0.679-0.782-1.831-1.683-2.789-1.628 0.355-2.864 1.736-2.864 3.476 0-2.008-1.615-3.625-3.621-3.625 2.006 0 3.621-1.617 3.621-3.625 0 0.41 0.109 0.788 0.233 1.154 0.162-0.339 0.519-0.713 1.202-1.161 0.768-0.504 1.268-1.253 1.111-1.664-0.374-0.975-3.57-0.554-4.944 0.652-1.308 1.149-2.628 0.416-3.755-2.089-1.023-2.273-2.628-2.187-2.461 0.135 0.101 1.413-0.041 1.555-1.245 1.253-0.745-0.187-2.005-0.045-2.801 0.318-1.186 0.541-1.443 1.049-1.443 2.832 0 1.845-0.182 2.174-1.209 2.174-0.666 0-1.547 0.446-1.952 0.991-1.002 1.348-2.859 0.255-2.596-1.529 0.142-0.959-0.059-1.212-0.848-1.062-0.643 0.122-1.105 0.783-1.217 1.749-0.117 1.018-0.511 1.55-1.145 1.55-0.533 0-1.543 0.409-2.242 0.899-1.037 0.727-1.761 0.783-3.933 0.319-1.466-0.313-2.757-0.482-2.864-0.375-0.107 0.106 0.193 0.794 0.665 1.522 0.748 1.154 0.758 1.463 0.049 2.421-1.236 1.673-0.984 2.187 0.884 1.813 1.289-0.258 1.698-0.128 1.698 0.524 0 0.472 0.512 1.552 1.138 2.4 0.932 1.262 1.07 2.041 0.764 4.276-0.41 2.994-1.527 3.931-2.723 2.294-0.515-0.705-0.601-1.46-0.268-2.336 0.427-1.126 0.315-1.296-0.87-1.296-0.866 0-1.491 0.413-1.719 1.133-0.197 0.623-0.746 1.133-1.216 1.133-0.669 0-0.767-0.402-0.46-1.841 0.216-1.013 0.649-2.159 0.969-2.556 0.319-0.397 0.477-0.832 0.346-0.963-0.374-0.374-3.882 2.012-3.882 2.641 0 0.311-0.518 1.291-1.146 2.174-1.285 1.806-0.751 2.563 1.421 2.017 1.519-0.381 2.444 0.563 1.486 1.523-0.347 0.346-0.63 1.061-0.63 1.585 0 0.569-0.575 1.063-1.421 1.225-1.115 0.214-1.575-0.042-2.129-1.203-0.389-0.814-1.223-1.559-1.853-1.65-0.631-0.091-1.446-0.64-1.811-1.225-0.535-0.858-0.463-1.32 0.368-2.386 0.566-0.726 1.221-1.923 1.45-2.655 0.274-0.874 0.603-1.138 0.969-0.772 0.642 0.643 2.73 0.243 2.73-0.523 0-0.283-0.643-0.756-1.429-1.055-1.857-0.707-2.338-2.049-1.188-3.321 0.504-0.558 0.919-1.44 0.919-1.961 0-1.336-1.743-1.184-2.1 0.184-0.323 1.237-1.826 1.567-1.931 0.425-0.036-0.39-0.099-1.091-0.141-1.558-0.059-0.655-0.686-0.8-2.759-0.651-2.218 0.159-2.687 0.022-2.687-0.765 0-0.524-0.527-1.093-1.167-1.26-0.818-0.214-1.044-0.574-0.764-1.218 0.22-0.504 0.445-1.758 0.502-2.789 0.085-1.539-0.185-2.025-1.499-2.705-0.938-0.486-1.598-1.299-1.598-1.954 0-0.817-0.389-1.119-1.429-1.119h-1.422l1.832 1.636c1.607 1.437 1.728 1.753 1.04 2.584-0.713 0.86-1.004 0.708-3.268-1.657l-2.489-2.598 1.308-1.076c2.091-1.711 0.763-2.279-3.494-1.494-4.236 0.781-4.991 2.007-2.616 4.241l1.386 1.31 0.636-1.19c0.921-1.722 1.546-1.461 1.974 0.821 0.26 1.392 0.785 2.168 1.711 2.521 0.735 0.28 1.424 0.944 1.528 1.48 0.104 0.535 1.06 1.268 2.129 1.628 2.604 0.877 3.393 2.172 2.157 3.54-0.535 0.591-0.813 1.54-0.644 2.188 0.441 1.687-1.422 3.613-3.883 4.007-1.818 0.292-2.333 0.117-3.536-1.182-0.774-0.836-1.407-1.676-1.407-1.869s-0.426-0.818-0.941-1.388c-0.876-0.969-0.867-1.039 0.141-1.055 1.002-0.016 1.01-0.059 0.092-0.595-0.543-0.317-1.148-1.574-1.343-2.796-0.236-1.475-0.71-2.339-1.415-2.563-0.72-0.229-1.061-0.87-1.061-1.997 0-1.517-0.168-1.664-1.959-1.664-1.448 0-2.14 0.336-2.638 1.268-0.655 1.225-0.686 1.229-1.11 0.141-0.219-0.56-0.341-0.113-0.41 0.843 0.214 0.983 0.794 1.788 1.626 2.294 0.019-0.621 0.17-1.147 0.502-1.147 0.903 0 3.423 1.288 3.423 1.748 0 0.238 0.654 1.212 1.45 2.16l1.443 1.72-1.443 0.361c-1.708 0.43-1.956 1.94-0.318 1.94 0.629 0 1.132 0.378 1.132 0.85s0.503 0.85 1.131 0.85c1.448 0 1.474 1.152 0.036 1.529-1.849 0.484-0.677 1.818 3.182 3.625 2.518 1.178 3.86 2.181 4.321 3.235 0.369 0.841 1.146 2.239 1.733 3.109 0.873 1.291 0.957 1.835 0.439 2.973-0.349 0.766-0.881 1.388-1.181 1.388-0.708 0-2.341-2.323-2.009-2.86 0.14-0.227-0.377-0.83-1.153-1.339-0.965-0.632-1.407-1.441-1.407-2.563 0-1.815-0.893-2.414-2.419-1.628-1.267 0.653-2.108 0.148-2.108-1.267 0-0.605-0.261-1.105-0.579-1.105-0.319 0-0.824-0.627-1.118-1.402l-0.53-1.409-1.471 1.466c-1.659 1.66-1.476 3.349 0.311 2.882 1.437-0.377 1.929 0.393 0.834 1.302-0.463 0.385-0.841 1.178-0.841 1.763 0 1.611-0.988 1.286-3.098-1.019l-1.903-2.082-0.07 10.86v7e-3h-0.064v7.25c0 0.038 0.02 0.069 0.021 0.106 0.058 1.919 1.578 3.44 3.494 3.498 0.037 1e-3 0.069 0.021 0.106 0.021h28.97c0.12 0 0.222-0.059 0.339-0.071 0.914-0.089 1.72-0.48 2.306-1.118 0.074-0.078 0.117-0.179 0.184-0.262 0.2-0.261 0.399-0.518 0.523-0.829 0.17-0.414 0.269-0.864 0.269-1.345 0 0.473 0.096 0.917 0.262 1.324 0.103 0.265 0.278 0.478 0.438 0.708 0.079 0.108 0.136 0.227 0.226 0.326 0.265 0.303 0.575 0.542 0.927 0.743 0.37 0.212 0.771 0.341 1.209 0.411 0.19 0.03 0.361 0.113 0.559 0.113h28.97c0.075 0 0.138-0.038 0.212-0.042 4e-3 -1e-3 9e-3 0 0.014 0 0.017-2e-3 0.032-0.013 0.049-0.014 0.457-0.036 0.888-0.137 1.281-0.326 0.399-0.192 0.76-0.44 1.06-0.758 0.106-0.108 0.164-0.254 0.255-0.375 0.173-0.235 0.362-0.455 0.474-0.729 0.176-0.423 0.276-0.889 0.276-1.381 0 0.465 0.101 0.895 0.261 1.296 0.096 0.25 0.251 0.453 0.396 0.672 0.085 0.122 0.149 0.252 0.248 0.362 0.245 0.286 0.533 0.509 0.856 0.708 3e-3 1e-3 4e-3 5e-3 7e-3 7e-3 0.354 0.216 0.738 0.355 1.16 0.439 0.232 0.046 0.447 0.141 0.693 0.141h28.97c0.489 0 0.955-0.101 1.38-0.276h0.014c2e-3 -1e-3 4e-3 -6e-3 7e-3 -7e-3 3e-3 -2e-3 0.01 2e-3 0.014 0 0.027-0.011 0.044-0.037 0.071-0.05 0.36-0.162 0.676-0.386 0.961-0.651 0.086-0.08 0.156-0.167 0.234-0.255 0.207-0.233 0.381-0.49 0.523-0.772 0.058-0.114 0.117-0.219 0.163-0.34 0.151-0.399 0.254-0.82 0.254-1.274 0 0.454 0.103 0.872 0.255 1.267 0.056 0.151 0.137 0.278 0.212 0.418 0.122 0.224 0.259 0.432 0.424 0.623 0.126 0.149 0.249 0.284 0.396 0.411 0.147 0.123 0.309 0.219 0.474 0.318 0.206 0.127 0.399 0.257 0.63 0.34 0.387 0.141 0.794 0.248 1.231 0.248h28.97c0.046 0 0.083-0.027 0.128-0.028 0.97-0.036 1.839-0.433 2.468-1.084l7e-3 -7e-3c0.06-0.061 0.086-0.147 0.141-0.212 0.235-0.281 0.461-0.569 0.602-0.914 0.175-0.423 0.275-0.889 0.275-1.38v-7.25-15.21c-0.012-3.42-0.052-4.284-0.07-6.91-0.192-1.826-1.675-3.257-3.551-3.257 1.758 0 3.287-1.266 3.621-2.924 0 0 0.353-12.06 0-11.58-0.367 0.504-1.925 0.34-2.532 0.234-0.86-0.15-1.064 0.081-0.926 1.076 0.243 1.749-0.751 1.602-2.716-0.411-0.968-0.991-1.804-1.447-2.016-1.104-0.241 0.392-0.623 0.36-1.166-0.092-0.447-0.371-0.871-0.576-0.941-0.453-1.172 2.038-1.366 2.703-0.976 3.334 0.541 0.877 0.118 2.266-0.686 2.266-0.308 0-1.306-0.53-2.221-1.182-0.917-0.654-2.064-1.034-2.56-0.843-0.495 0.19-1.219 0.087-1.606-0.233-1.008-0.838-2.437 0.902-1.506 1.833 0.956 0.957 0.821 1.304-0.792 2.039-0.825 0.377-1.281 0.932-1.061 1.289 0.423 0.686-3.885 0.174-5.375-0.637-0.447-0.244-1.422-0.169-2.164 0.17-1.053 0.48-1.46 0.44-1.846-0.185-0.272-0.44-0.57-0.677-0.665-0.531-1.515 2.347-1.532 2.718-0.148 3.625 2.069 1.358 1.74 2.43-0.892 2.875-1.129 0.191-1.674 0.385-1.895 0.68 0.599 0.438 1.299 0.75 2.101 0.75-0.845 0-1.585 0.333-2.2 0.814-0.078 0.41-0.225 0.831-0.467 1.162-0.303 0.415-0.532 0.629-0.764 0.7-0.084 0.309-0.191 0.613-0.191 0.949 0-0.341-0.103-0.65-0.19-0.963-0.141-0.053-0.291-0.143-0.467-0.29-0.452-0.375-0.981-0.519-1.181-0.319-0.2 0.201 0.075 0.695 0.615 1.098 0.906 0.676 0.844 0.86-0.792 2.372l-1.775 1.635 0.29-2.315c0.185-1.496 0.864-2.92 1.916-4.036 0.019-0.02 0.031-0.049 0.05-0.07-0.596-0.432-1.292-0.737-2.087-0.737 2.007 0 3.622-1.617 3.622-3.625 0 0.261 0.096 0.491 0.148 0.737 0.118-0.719 0.378-1.541 0.757-2.082 0.8-1.144 0.763-1.413-0.538-3.476-0.775-1.231-1.677-2.405-2.001-2.606-0.324-0.2-0.587-0.981-0.587-1.741 0-0.761-0.229-1.388-0.502-1.388-0.812 0-1.888 1.609-1.5 2.237 0.198 0.32 0.191 1.475-0.014 2.57-0.265 1.417-0.671 1.99-1.407 1.99-0.57 0-1.194-0.255-1.386-0.567-0.193-0.311-0.973-0.566-1.733-0.566-1.38 0-1.822-0.995-0.891-2.011 0.271-0.296 0.661-1.239 0.863-2.096 0.485-2.06-0.918-2.109-2.32-0.085-0.559 0.808-1.457 1.886-2.002 2.394-0.544 0.507-0.99 1.244-0.99 1.642s-0.254 0.722-0.566 0.722c-0.311 0-0.724 5e-3 -0.912 7e-3 -0.188 3e-3 -0.412-1.162-0.502-2.591-0.118-1.878-0.496-2.836-1.358-3.441-0.656-0.459-1.188-1.171-1.188-1.586 0-0.414-0.751-0.864-1.662-0.998-1.296-0.19-1.807 0.044-2.355 1.069-0.914 1.71-2.337 1.733-2.101 0.036 0.105-0.756-0.111-1.252-0.53-1.218zm-59.56 1.083c-0.317 0.196-0.427 0.595-0.248 0.885 0.485 0.786 0.828 0.641 0.828-0.354 0-0.486-0.264-0.727-0.58-0.531zm11.08 0.474c-0.926 0.201-2.008 1.19-2.008 2.089 0 1.243 0.672 1.402 2.298 0.531 1.168-0.626 1.451-1.963 0.538-2.528-0.227-0.14-0.519-0.159-0.828-0.092zm83.68 1.204c-0.071 0.038-0.152 0.138-0.255 0.297-0.301 0.467-0.554 1.279-0.558 1.799-5e-3 0.519-0.279 1.03-0.608 1.139-0.34 0.114-0.422 0.659-0.191 1.261 0.393 1.025 0.434 1.024 1.167 0.021 0.416-0.571 0.746-1.943 0.742-3.052-5e-3 -1.132-0.084-1.581-0.297-1.465zm-117.4 0.672c-0.331-0.103-0.483 0.256-0.63 1.254-0.216 1.474-0.13 1.577 0.785 1.005 1.23-0.769 1.274-1.152 0.241-2.011-0.158-0.131-0.286-0.213-0.396-0.248zm81.49 0.758c0.293 0 0.692 0.255 0.884 0.566 0.192 0.312-0.052 0.567-0.537 0.567-0.486 0-0.877-0.255-0.877-0.567 0-0.311 0.237-0.566 0.53-0.566zm-56.51 0.602c-0.489-0.062-1.167 0.84-1.167 1.883 0 1.095 0.242 1.254 1.641 1.048 1.309-0.192 1.722 0.012 2.037 1.005 0.428 1.351 1.072 0.987 1.648-0.927 0.311-1.033 0.08-1.265-1.591-1.579-1.076-0.202-2.053-0.656-2.172-1.012-0.088-0.265-0.232-0.398-0.396-0.418zm7.037 2.23c-1.317 0-1.902 1.027-1.06 1.869 0.463 0.464 2.475-0.605 2.475-1.317 0-0.3-0.637-0.552-1.415-0.552zm55.16 0c0.312 0 0.566 0.382 0.566 0.85 0 0.467-0.254 0.849-0.566 0.849-0.311 0-0.565-0.382-0.565-0.849 0-0.468 0.254-0.85 0.565-0.85zm7.334 1.239c0.384-0.128 1.076 0.149 1.542 0.616 0.531 0.532 0.636 0.981 0.276 1.204-0.316 0.195-1.015-0.082-1.549-0.616-0.695-0.696-0.768-1.037-0.269-1.204zm-92.46 0.46c-0.138 0-0.402 0.255-0.594 0.567-0.193 0.311-0.082 0.566 0.247 0.566 0.33 0 0.601-0.255 0.601-0.566 0-0.312-0.117-0.567-0.254-0.567zm38.32 0.524c-0.226-0.023-0.512 0.264-0.636 0.637-0.125 0.374 0.079 0.578 0.452 0.454 0.73-0.244 0.861-1.021 0.184-1.091zm52.63 2.521c0.103-0.045 0.248-0.026 0.403 0.07 0.311 0.193 0.566 0.465 0.566 0.602 0 0.138-0.255 0.248-0.566 0.248s-0.566-0.265-0.566-0.595c0-0.165 0.06-0.28 0.163-0.325zm-49.54 0.198c-1.115-0.14-3.805 1.122-3.805 1.947 0 0.345 0.726 0.412 1.839 0.177 2.271-0.479 3.114-1.194 2.333-1.975-0.082-0.083-0.208-0.129-0.367-0.149zm22.86 0.765c0.279 0.112 0.488 0.493 0.488 1.09 0 0.623-0.245 1.133-0.538 1.133-0.759 0-1.289-1.031-0.877-1.699 0.296-0.479 0.647-0.636 0.927-0.524zm-13.67 1.38c-0.316 0.196-0.427 0.595-0.248 0.885 0.485 0.786 0.828 0.641 0.828-0.354 0-0.485-0.264-0.726-0.58-0.531zm19.46 1.14c0.433 0.552 0.988 0.971 1.669 1.197-0.513-0.489-1.035-0.911-1.485-1.084-0.086-0.033-0.11-0.078-0.184-0.113zm17.72 1.579c0.204-0.019 0.402 5e-3 0.608 0.071 1.317 0.418 2.032 2.497 1.202 3.497-0.36 0.435-0.385 1.393-0.071 2.585 0.516 1.952 1.178 2.17 3.911 1.309 0.901-0.283 1.614-0.013 2.596 0.97 1.566 1.568 4.224 1.708 5.029 0.269 0.847-1.516 1.461-1.105 1.746 1.176 0.22 1.754-0.188 3.594-1.018 4.58-0.087 0.103-1.311-0.454-2.716-1.239-2.15-1.201-2.652-1.303-3.204-0.637-0.762 0.92-0.293 1.968 0.884 1.968 0.449 0 0.821 0.255 0.821 0.567 0 0.853-1.282 0.687-2.787-0.368-1.249-0.876-1.39-0.876-2.029 0-0.378 0.517-1.182 0.934-1.79 0.934-0.607 0-1.672 0.765-2.362 1.7-0.69 0.934-1.575 1.699-1.973 1.699-1.278 0-2.678-1.387-2.568-2.549 0.223-2.34-0.071-3.181-1.06-3.03-1.748 0.265-4.102-0.639-4.102-1.572 0-0.667 0.346-0.812 1.35-0.559 0.936 0.235 1.464 0.065 1.698-0.546 0.225-0.587 0.723-0.764 1.478-0.524 0.727 0.232 1.672-0.057 2.624-0.807 1.085-0.854 1.233-1.175 0.559-1.175-0.651 0-0.92-0.504-0.92-1.699 0-1.971-0.567-2.174-1.57-0.567-0.389 0.623-1.212 1.133-1.832 1.133-1.189 0-1.514-0.825-0.558-1.416 0.311-0.192 0.565-0.839 0.565-1.444 0-0.617 0.383-1.105 0.877-1.105 0.485 0 1.601-0.789 2.483-1.755 0.872-0.957 1.516-1.409 2.129-1.466zm-89.08 0.347c-0.262 0.146-0.519 0.298-0.735 0.503-0.017 0.271-0.205 0.686-0.58 1.062-0.434 0.434-0.184 0.523 0.884 0.318 1.063-0.203 1.321-0.461 0.891-0.892-0.217-0.218-0.362-0.588-0.46-0.991zm113.6 0.609c0.312 0 0.566 0.255 0.566 0.566 0 0.312-0.254 0.567-0.566 0.567-0.311 0-0.565-0.255-0.565-0.567 0-0.311 0.254-0.566 0.565-0.566zm-111.5 1.133c-0.311 0-0.404 0.254-0.212 0.566 0.193 0.311 0.601 0.566 0.913 0.566 0.311 0 0.411-0.255 0.219-0.566-0.193-0.312-0.608-0.566-0.92-0.566zm53.57 0c0.137 0 0.254 0.254 0.254 0.566 0 0.311-0.271 0.566-0.601 0.566-0.329 0-0.44-0.255-0.247-0.566 0.192-0.312 0.457-0.566 0.594-0.566zm-42.75 0.566c-0.311 0-0.566 0.255-0.566 0.566 0 0.312 0.255 0.567 0.566 0.567s0.566-0.255 0.566-0.567c0-0.311-0.255-0.566-0.566-0.566zm98.59 7e-3c0.459 0.074 1.064 0.569 1.45 1.416 0.354 0.779 0.912 1.416 1.237 1.416 0.326 0 0.836-0.637 1.132-1.416 0.901-2.373 3.631-1.469 4.703 1.558 0.403 1.137 2.43 1.341 2.808 0.283 0.139-0.389 0.458-0.523 0.707-0.29 0.25 0.233-0.861 1.71-2.468 3.278-2.182 2.128-2.707 2.935-2.072 3.179 0.467 0.179 1.236 0.175 1.711-7e-3 0.571-0.22 1.238 0.281 1.966 1.479 1.528 2.515 0.516 3.402-1.584 1.388-1.919-1.84-2.506-1.923-2.27-0.319 0.241 1.645-2.717 2.093-3.225 0.489-0.443-1.397-1.896-1.671-3.827-0.722-0.863 0.424-2.009 0.698-2.546 0.609-0.722-0.121-0.93 0.161-0.799 1.104 0.257 1.851-1.382 1.633-2.015-0.269-0.395-1.186-0.263-1.981 0.572-3.398 1.158-1.964 2.503-2.411 3.042-1.006 0.435 1.137 3.034 1.126 3.034-0.014 0-0.477-0.446-1.008-0.99-1.182-2.094-0.67-3.537-1.566-3.537-2.195 0-0.36 0.608-1.227 1.351-1.926 0.852-0.801 1.241-1.675 1.061-2.364-0.214-0.82 0.1-1.164 0.559-1.091zm-113.1 0.651c-0.278 0.097-0.278 0.635-0.071 1.912 0.192 1.185 0.675 2.366 1.075 2.62 1.126 0.714 2.827 0.558 2.575-0.234-0.124-0.389-0.764-0.952-1.429-1.253-0.707-0.32-1.162-0.997-1.096-1.636 0.062-0.599-0.25-1.212-0.686-1.366-0.157-0.055-0.275-0.075-0.368-0.043zm58.06 1.041c0.329 0 0.447 0.255 0.254 0.567-0.192 0.311-0.464 0.566-0.601 0.566s-0.248-0.255-0.248-0.566c0-0.312 0.265-0.567 0.595-0.567zm-35.14 0.673c0.424-0.142 0.636 0.071 0.495 0.495-0.136 0.409-0.582 0.855-0.99 0.992-0.425 0.141-0.637-0.071-0.495-0.496 0.136-0.409 0.581-0.855 0.99-0.991zm71.72 0.099c0.103 0.039 0.17 0.141 0.17 0.297 0 0.312-0.255 0.721-0.566 0.914-0.311 0.192-0.566 0.099-0.566-0.213 0-0.311 0.255-0.728 0.566-0.92 0.156-0.096 0.294-0.117 0.396-0.078zm-20.37 0.573c0.162 0.016 0.315 0.133 0.452 0.354 0.226 0.366 0.156 0.921-0.155 1.232-0.378 0.378-0.703 0.345-0.976-0.099-0.226-0.366-0.156-0.913 0.155-1.225 0.189-0.188 0.361-0.278 0.524-0.262zm2.694 0.39c0.507-0.159 1.69 0.689 3.055 2.28 1.048 1.219 1.812 2.188 1.698 2.152s-0.715-0.19-1.337-0.347c-1.22-0.309-3.678-2.705-3.678-3.582 0-0.287 0.093-0.45 0.262-0.503zm-6.202 0.446c0.295 0 0.624 0.274 0.735 0.609 0.112 0.335-0.217 0.609-0.735 0.609-0.519 0-0.854-0.274-0.743-0.609 0.112-0.335 0.447-0.609 0.743-0.609zm-56.88 0.134c-0.137 0.021-0.313 0.09-0.523 0.22-0.337 0.208-0.454 0.647-0.255 0.97 0.235 0.38 0.527 0.317 0.828-0.17 0.421-0.682 0.362-1.08-0.05-1.02zm-14.06 1.933-0.035 1.466c-0.02 0.805 0.148 1.649 0.375 1.876 0.672 0.673 0.793-0.495 0.205-1.968l-0.545-1.374zm71.9 1.416c0.249 0 0.452 0.323 0.452 0.715 0 0.393 0.509 1.034 1.132 1.423 1.396 0.873 1.468 2.865 0.141 3.873-2.049 1.558-3.536 0.458-3.536-2.612 0-1.918 0.789-3.399 1.811-3.399zm-45.38 1.133c0.311 0 0.566 0.255 0.566 0.566 0 0.312-0.255 0.567-0.566 0.567s-0.566-0.255-0.566-0.567c0-0.311 0.255-0.566 0.566-0.566zm64.21 2.018c-0.59 0.158-1.407 0.898-1.407 1.451 0 0.274 0.222 0.496 0.495 0.496 0.737 0 1.811-1.458 1.386-1.883-0.106-0.107-0.277-0.117-0.474-0.064zm-30.45 0.354c0.401-0.031 1.056 0.245 1.881 0.913 1.074 0.871 1.135 1.115 0.431 1.699-0.655 0.545-1.008 0.471-1.754-0.354-1.183-1.308-1.227-2.206-0.558-2.258zm-1.436 1.635c0.283 0.1 0.495 0.472 0.495 1.062 0 0.605-0.26 1.258-0.573 1.452-0.691 0.427-1.376-1.13-0.863-1.961 0.3-0.485 0.658-0.653 0.941-0.553zm-32.33 0.022c0.211-4e-3 0.422 0.125 0.686 0.389 0.918 0.919-0.11 1.948-1.245 1.246-0.668-0.413-0.701-0.658-0.141-1.218 0.273-0.273 0.489-0.414 0.7-0.417zm53.08 0.502c0.987 0 2.524 1.564 2.143 2.181-0.443 0.718-1.631 0.867-2.22 0.276-0.533-0.533-0.473-2.457 0.077-2.457zm-10.88 0.567c0.493 0 0.795 0.302 0.672 0.672-0.35 1.051-1.563 1.227-1.563 0.227 0-0.493 0.398-0.899 0.891-0.899zm-58.42 0.686c0.116 0.015 0.285 0.123 0.488 0.326 0.368 0.369 0.542 0.802 0.382 0.963-0.378 0.378-1.047-0.292-1.047-1.048 0-0.177 0.06-0.255 0.177-0.241zm67.81 1.013c0.622 0 1.04 0.408 1.04 1.019 0 0.561 0.305 1.326 0.679 1.7 0.439 0.44 0.483 0.875 0.127 1.231-0.356 0.357-1.084-0.114-2.065-1.345-1.58-1.981-1.528-2.605 0.219-2.605zm-38.54 0.694c0.25-0.051 0.519-0.039 0.785 0.063 0.488 0.188 0.891 0.734 0.891 1.211 0 0.99-2.005 1.189-2.581 0.255-0.401-0.65 0.155-1.379 0.905-1.529zm70.37 0.538c0.237 0.012 0.527 0.07 0.863 0.177 0.65 0.206 1.034 0.61 0.856 0.899-0.44 0.712-1.805 0.666-2.264-0.078-0.412-0.669-0.168-1.036 0.545-0.998zm-48.38 0.184 1.16 1.338c1.181 1.362 1.429 2.678 0.814 4.283-0.189 0.493-0.703 0.892-1.146 0.892-1.083 0-1.681-1.701-0.792-2.251 0.471-0.292 0.579-1.08 0.332-2.351l-0.368-1.911zm23.59 0.283c0.434 0 0.792 0.357 0.792 0.786 0 1.052-1.498 2.266-1.931 1.565-0.502-0.814 0.24-2.351 1.139-2.351zm-11.41 0.566c0.996 0 1.198 1.438 0.283 2.004-0.394 0.244-0.284 0.845 0.325 1.777 0.508 0.775 0.791 1.772 0.623 2.209-0.424 1.105 1.58 2.047 3.388 1.593 1.137-0.286 1.441-0.187 1.244 0.411-0.142 0.433-0.825 0.875-1.52 0.977s-1.408 0.548-1.577 0.991c-0.321 0.836-1.975 1.097-2.653 0.418-0.213-0.214-1.476-0.338-2.807-0.269-2.258 0.117-2.524-0.028-3.918-2.16-0.823-1.257-1.42-2.287-1.33-2.287 0.089 0 0.909 0.379 1.825 0.836 2.408 1.203 5.587 1.37 5.587 0.297 0-0.543-0.459-0.794-1.273-0.708-1.661 0.176-1.664-1.159-7e-3 -2.818 0.695-0.696 1.189-1.716 1.096-2.265-0.102-0.601 0.183-1.006 0.714-1.006zm-30.5 0.567c0.457 0 0.834 0.382 0.834 0.849 0 0.468-0.231 0.85-0.509 0.85s-0.648-0.382-0.827-0.85c-0.199-0.517-4e-3 -0.849 0.502-0.849zm-19.46 2.57c0.441-0.122 1.053 0.132 1.053 0.58 0 0.138-0.398 0.248-0.884 0.248-0.485 0-0.725-0.257-0.53-0.573 0.081-0.131 0.214-0.214 0.361-0.255zm36 3.087c0.164-0.036 0.318-0.039 0.439 7e-3 0.161 0.06 0.264 0.192 0.269 0.425 4e-3 0.234 0.158 0.998 0.346 1.699 0.273 1.019 0.111 1.274-0.82 1.274-1.446 0-1.98-0.794-1.514-2.265 0.188-0.594 0.788-1.032 1.28-1.14zm8.607 4.828c0.317-0.195 0.58 0.046 0.58 0.531 0 0.995-0.342 1.14-0.827 0.354-0.179-0.29-0.069-0.689 0.247-0.885z" fill="#427b58"/>
    <g opacity=".3">
      <path d="m164.1 159.3v-29c0-2.008-1.615-3.625-3.622-3.625h-28.97c-2.006 0-3.621 1.617-3.621 3.625v29c0 2.008 1.615 3.625 3.621 3.625h28.97c2.007 0 3.622-1.617 3.622-3.625z" fill="#ebdbb2"/>
      <path d="m91.71 195.6v-29c0-2.008-1.615-3.625-3.621-3.625h-28.97c-2.006 0-3.621 1.617-3.621 3.625v29c0 2.008 1.615 3.625 3.621 3.625h28.97c2.006 0 3.621-1.617 3.621-3.625z"/>
      <path d="m164.1 195.6v-29c0-2.008-1.615-3.625-3.622-3.625h-28.97c-2.006 0-3.621 1.617-3.621 3.625v29c0 2.008 1.615 3.625 3.621 3.625h28.97c2.007 0 3.622-1.617 3.622-3.625z"/>
    </g>
    <g opacity=".2">
      <path d="m59.12 54.2c-2.008 0-3.621 1.613-3.621 3.621v2.59c0-2.009 1.613-3.621 3.621-3.621h29.01c2.008 0 3.621 1.612 3.621 3.621v-2.59c0-2.008-1.613-3.621-3.621-3.621h-29.01zm36.25 36.25c-2.008 0-3.621 1.613-3.621 3.621v2.59c0-2.009 1.613-3.621 3.621-3.621h29.01c2.008 0 3.621 1.612 3.621 3.621v-2.59c0-2.008-1.613-3.621-3.621-3.621h-29.01zm72.5 0c-2.008 0-3.621 1.613-3.621 3.621v2.59c0-2.009 1.613-3.621 3.621-3.621h29.01c2.008 0 3.621 1.612 3.621 3.621v-2.59c0-2.008-1.613-3.621-3.621-3.621h-29.01zm-36.25 36.25c-2.008 0-3.621 1.613-3.621 3.621v2.59c0-2.009 1.613-3.621 3.621-3.621h29.01c2.008 0 3.621 1.612 3.621 3.621v-2.59c0-2.008-1.613-3.621-3.621-3.621h-29.01z" fill="#ebdbb2"/>
    </g>
    <g opacity=".3">
      <path d="m90.88 128c-0.664 0.788-1.646 1.3-2.761 1.3h-29c-1.104 0-2.077-0.501-2.741-1.275-0.521 0.628-0.845 1.428-0.845 2.311v29c0 2.009 1.615 3.626 3.621 3.626h28.97c2.006 0 3.621-1.617 3.621-3.626v-29c0-0.895-0.332-1.705-0.865-2.336z" fill="#ebdbb2"/>
    </g>
    <defs>
      <filter id="MYgZ941xgf0N40RzFYyORVQCRGjCHPcL" x="-.07107" y="-.08964" width="1.142" height="1.179" color-interpolation-filters="sRGB">
        <feGaussianBlur stdDeviation="4.294"/>
      </filter>
    </defs>
    <g filter="url(#MYgZ941xgf0N40RzFYyORVQCRGjCHPcL)" opacity=".4">
      <path d="m55.5 86.83v2.59c0 2.008 1.618 3.626 3.626 3.626h29c2.008 0 3.626-1.618 3.626-3.626v-2.59c0 2.009-1.618 3.626-3.626 3.626h-29c-2.008 0-3.626-1.617-3.626-3.626zm0 36.25v2.59c0 2.008 1.618 3.626 3.626 3.626h29c2.008 0 3.626-1.618 3.626-3.626 0 2.008 1.618 3.626 3.626 3.626h29c2.008 0 3.626-1.618 3.626-3.626v-2.59c0 2.009-1.618 3.626-3.626 3.626h-29c-2.008 0-3.626-1.617-3.626-3.626 0 2.009-1.618 3.626-3.626 3.626h-29c-2.008 0-3.626-1.617-3.626-3.626zm108.8 0v2.59c0 2.008 1.618 3.626 3.626 3.626h29c2.008 0 3.626-1.618 3.626-3.626v-2.59c0 2.009-1.618 3.626-3.626 3.626h-29c-2.008 0-3.626-1.617-3.626-3.626zm-108.8 36.25v2.59c0 2.008 1.618 3.626 3.626 3.626h29c2.008 0 3.626-1.618 3.626-3.626 0 2.008 1.618 3.626 3.626 3.626h29c2.008 0 3.626-1.618 3.626-3.626 0 2.008 1.618 3.626 3.626 3.626h29c2.008 0 3.626-1.618 3.626-3.626 0 2.008 1.618 3.626 3.626 3.626h29c2.008 0 3.626-1.618 3.626-3.626v-2.59c0 2.009-1.618 3.626-3.626 3.626h-29c-2.008 0-3.626-1.617-3.626-3.626 0 2.009-1.618 3.626-3.626 3.626h-29c-2.008 0-3.626-1.617-3.626-3.626 0 2.009-1.618 3.626-3.626 3.626h-29c-2.008 0-3.626-1.617-3.626-3.626 0 2.009-1.618 3.626-3.626 3.626h-29c-2.008 0-3.626-1.617-3.626-3.626zm0 36.25v2.59c0 2.008 1.618 3.626 3.626 3.626h29c2.008 0 3.626-1.618 3.626-3.626 0 2.008 1.618 3.626 3.626 3.626h29c2.008 0 3.626-1.618 3.626-3.626 0 2.008 1.618 3.626 3.626 3.626h29c2.008 0 3.626-1.618 3.626-3.626 0 2.008 1.618 3.626 3.626 3.626h29c2.008 0 3.626-1.618 3.626-3.626v-2.59c0 2.009-1.618 3.626-3.626 3.626h-29c-2.008 0-3.626-1.617-3.626-3.626 0 2.009-1.618 3.626-3.626 3.626h-29c-2.008 0-3.626-1.617-3.626-3.626 0 2.009-1.618 3.626-3.626 3.626h-29c-2.008 0-3.626-1.617-3.626-3.626 0 2.009-1.618 3.626-3.626 3.626h-29c-2.008 0-3.626-1.617-3.626-3.626z"/>
    </g>
  </g>
</svg>
