<svg width="256" height="256" style="isolation:isolate" version="1.1" xmlns="http://www.w3.org/2000/svg">
  <g transform="translate(.007136 -.1198)" filter="url(#a)">
    <linearGradient id="b" x1=".5002" x2=".5002" y2="1" gradientTransform="matrix(244,0,0,228,5.981,12.12)" gradientUnits="userSpaceOnUse">
      <stop stop-color="#fb4934" offset="0"/>
      <stop stop-color="#fb4934" offset="1"/>
    </linearGradient>
    <path d="m165 12.12c72 0 85 15 85 87v56c0 70-13 85-85 85h-74c-72 0-85-15-85-85v-56c0-72 13-87 85-87z" fill="url(#b)"/>
  </g>
  <g transform="translate(0 -.0002175)" style="isolation:isolate">
    <path d="m87.4 64.2v19.22l-7.839 7.805c-10.39 6.082-19.06 9.982-26.96 16.47l17.4 8.7-29 14.5 34.8 5.8-29 34.8 34.8-10.52v10.52l14.5-5.8-2.9 11.6 26.52-12.25 8.281 0.647 8.281-0.647 26.52 12.25-2.9-11.6 14.5 5.8v-10.52l34.8 10.52-29-34.8 34.8-5.8-29-14.5 17.4-8.7c-7.906-6.489-16.57-10.39-26.96-16.47l-7.839-7.805v-19.22l-17.4 8.745v-5.845l-5.8 5.845v-5.845l-17.4 5.845-17.4-5.845v5.845l-5.8-5.845v5.845z" fill="#3c3836"/>
    <path d="m70 55.5-5.779 6.664c-0.295 10.12 2.534 19.11 5.932 27.9 5.907 14.65 21.87 20.09 31.5 29.1 6.111 5.855 7.757 11.02 8.632 16.18 1.013 5.975 1.624 12.45 2.259 22.42 2.126 12.98 3.284 34.12 4.877 41.16 1.459 1.636 10.58 1.566 10.58 1.566s9.117 0.065 10.58-1.566c1.592-7.048 2.751-28.19 4.877-41.16 0.635-9.97 1.246-16.45 2.259-22.42 0.875-5.158 2.521-10.32 8.632-16.18 9.632-9.011 25.6-14.45 31.5-29.1 3.398-8.793 6.227-17.78 5.932-27.9l-5.779-6.664v6.647l-26.07 16.78-31.93-0.458-31.93 0.458-26.07-16.78z" fill="#665c54"/>
    <path d="m94.24 89.74c-0.683 1.6-1.036 3.321-1.036 5.061 0 3.42 1.359 6.701 3.778 9.12s5.7 3.778 9.121 3.778c4.054-6e-3 7.869-1.918 10.3-5.162z" fill="url(#_lgradient_66)"/>
    <path d="m140.2 142.5c-4.228 1.616-7.836 4.182-12.18 3.859v0.088c-4.344 0.322-7.952-2.244-12.18-3.859l4.163 42.1c0.317 3.149 0.389 3.57 3.156 3.859 1.809 0.289 3.197 0.399 4.861 0.355v-0.088c1.664 0.045 3.052-0.066 4.861-0.355 2.767-0.29 2.839-0.702 3.156-3.852z" fill="#282828" style="isolation:isolate"/>
    <path d="m122.2 173.4c-1.763 1.381-1.562 3.197-2.82 5.215l0.603 6.09c0.317 3.149 0.388 3.57 3.156 3.859 0.586 0.088 1.088 0.131 1.61 0.197h5.812c0.727-0.066 1.462-0.154 2.3-0.278 2.767-0.29 2.839-0.702 3.156-3.852l0.595-6.022c-1.257-2.015-1.052-3.83-2.812-5.208v9.728h-11.6z" fill="#ebdbb2"/>
    <path d="m140.2 142.5c-4.228 1.616-7.836 4.182-12.18 3.859v0.088c-4.338 0.322-7.943-2.237-12.16-3.851 0.471 5.423 1.815 11.86 6.364 15.43v-9.719h11.6v9.719c4.574-3.583 5.935-10.08 6.38-15.52z" fill="#ebdbb2"/>
    <path d="m161.8 89.74c0.683 1.6 1.036 3.321 1.036 5.061 0 7.123-5.775 12.9-12.9 12.9-4.055-6e-3 -7.87-1.918-10.3-5.162z" fill="url(#_lgradient_67)"/>
  </g>
  <defs>
    <linearGradient id="linearGradient31" x1=".5002" x2=".5002" y2="1" gradientTransform="matrix(244,0,0,228,5.988,12.12)" gradientUnits="userSpaceOnUse">
      <stop stop-color="#d5c4a1" offset="0"/>
      <stop stop-color="#d5c4a1" stop-opacity=".09804" offset=".1"/>
      <stop stop-color="#282828" stop-opacity=".1" offset=".9"/>
      <stop stop-color="#282828" stop-opacity=".4" offset="1"/>
    </linearGradient>
    <linearGradient id="_lgradient_66" x2="0" y2="1" gradientTransform="matrix(23.2 0 0 17.96 93.2 89.74)" gradientUnits="userSpaceOnUse">
      <stop stop-color="#fe8019" offset="0"/>
      <stop stop-color="#dc5714" offset="1"/>
    </linearGradient>
    <linearGradient id="_lgradient_67" x2="0" y2="1" gradientTransform="matrix(23.2 0 0 17.96 139.6 89.74)" gradientUnits="userSpaceOnUse">
      <stop stop-color="#fe8019" offset="0"/>
      <stop stop-color="#dc5714" offset="1"/>
    </linearGradient>
  </defs>
  <g transform="translate(.007189 -.1198)" opacity=".5">
    <path d="m91 12.12c-72 0-85 15-85 87v56c0 70 13 85 85 85h74c72 0 85-15 85-85v-56c0-72-13-87-85-87zm0 4h74c68 0 80 15 80 83v56c0 66-12 81-80 81h-74c-68 0-80-15-80-81v-56c0-68 12-83 80-83z" fill="url(#linearGradient31)" opacity="1"/>
  </g>
</svg>
