<svg width="256" height="256" style="isolation:isolate" version="1.1" xmlns="http://www.w3.org/2000/svg">
  <g transform="translate(.007136 -.1198)" filter="url(#a)">
    <linearGradient id="b" x1=".5002" x2=".5002" y2="1" gradientTransform="matrix(244,0,0,228,5.981,12.12)" gradientUnits="userSpaceOnUse">
      <stop stop-color="#b8bb26" offset="0"/>
      <stop stop-color="#b8bb26" offset="1"/>
    </linearGradient>
    <path d="m165 12.12c72 0 85 15 85 87v56c0 70-13 85-85 85h-74c-72 0-85-15-85-85v-56c0-72 13-87 85-87z" fill="url(#b)"/>
  </g>
  <defs>
    <linearGradient id="linearGradient31" x1=".5002" x2=".5002" y2="1" gradientTransform="matrix(244,0,0,228,5.988,12.12)" gradientUnits="userSpaceOnUse">
      <stop stop-color="#d5c4a1" offset="0"/>
      <stop stop-color="#d5c4a1" stop-opacity=".09804" offset=".1"/>
      <stop stop-color="#282828" stop-opacity=".1" offset=".9"/>
      <stop stop-color="#282828" stop-opacity=".4" offset="1"/>
    </linearGradient>
  </defs>
  <g transform="translate(.007189 -.1198)" opacity=".5">
    <path d="m91 12.12c-72 0-85 15-85 87v56c0 70 13 85 85 85h74c72 0 85-15 85-85v-56c0-72-13-87-85-87zm0 4h74c68 0 80 15 80 83v56c0 66-12 81-80 81h-74c-68 0-80-15-80-81v-56c0-68 12-83 80-83z" fill="url(#linearGradient31)" opacity="1"/>
  </g>
  <g transform="translate(-1.871 .09947)" stroke-width="11.17">
    <path d="m85.19 60.89v22.14l-5.083 7.897c-10.67 6.164-20.3 8.06-28.42 14.64l16.75 11.17-27.92 16.75 33.51 5.585-22.34 27.92 22.34-5.388v10.97l22.34-5.585-5.585 11.17 30.58-12.41 8.508 1.243 8.508-1.243 30.58 12.41-5.585-11.17 22.34 5.585v-10.97l22.34 5.388-22.34-27.92 33.51-5.585-27.92-16.75 16.75-11.17c-8.121-6.577-17.75-8.474-28.42-14.64l-5.083-7.897v-22.14l-22.34 13.85v-8.595l-11.17 8.595v-8.595l-11.17 8.595-11.17-8.595v8.595l-11.17-8.595v8.595z" fill="#3c3836"/>
    <path d="m68.44 55.3-5.562 6.673c-0.3094 10.13 2.662 19.14 6.231 27.94 6.205 14.67 22.97 20.12 33.09 29.14 6.419 5.863 8.148 11.03 9.067 16.2 1.063 5.983 1.706 12.47 2.374 22.45 2.233 12.99 3.449 34.16 5.122 41.22 1.533 1.638 11.11 1.568 11.11 1.568s9.576 0.067 11.11-1.568c1.673-7.059 2.89-28.23 5.122-41.22 0.6679-9.984 1.31-16.47 2.374-22.45 0.9181-5.165 2.648-10.34 9.067-16.2 10.12-9.023 26.89-14.47 33.09-29.14 3.569-8.804 6.541-17.81 6.231-27.94l-5.562-6.673v6.656l-27.89 15.91-33.54-0.4591-33.54 0.4591-27.89-15.91z" fill="#504945"/>
    <path d="m143.3 138c-4.653 1.787-8.624 4.627-13.4 4.271v0.0894c-4.78 0.3563-8.751-2.484-13.4-4.271l4.581 46.58c0.3485 3.485 0.4278 3.951 3.473 4.271 1.99 0.3194 3.518 0.4412 5.349 0.392v-0.0894c1.831 0.0447 3.359-0.067 5.349-0.392 3.046-0.3194 3.124-0.7774 3.473-4.262z" fill="#282828"/>
    <path d="m125.4 167c-1.94 1.528-3.634 8.693-5.018 10.93l0.6634 6.739c0.3485 3.485 0.4278 3.951 3.473 4.271 0.6456 0.1005 1.197 0.1541 1.771 0.2167h6.396c0.7997-0.067 1.609-0.1608 2.531-0.3083 3.046-0.3194 3.124-0.7774 3.473-4.262l0.6545-6.664c-1.383-2.229-3.072-9.392-5.009-10.92v11.46h-8.936z" fill="#ebdbb2"/>
    <path d="m143.3 133.4s-8.566 5.62-13.4 5.635c-4.837 0.0111-13.39-5.535-13.39-5.535 0.5182 6.002 3.912 18.35 8.918 22.29v-11.17h8.936v11.17c5.033-3.964 8.446-16.37 8.936-22.39z" fill="#ebdbb2"/>
    <path d="m162.4 88.81a12.42 16.04 0 0 1 0.9974 6.294 12.42 16.04 0 0 1-12.42 16.04 12.42 16.04 0 0 1-9.919-6.421z" fill="#eb9f00"/>
    <path d="m97.36 88.81a12.42 16.04 0 0 0-0.9974 6.294 12.42 16.04 0 0 0 12.42 16.04 12.42 16.04 0 0 0 9.919-6.421z" fill="#eb9f00" style="isolation:isolate"/>
  </g>
</svg>
