<svg width="256" height="256" style="isolation:isolate" version="1.1" xmlns="http://www.w3.org/2000/svg">
  <g transform="translate(.007136 -.1198)" filter="url(#a)">
    <linearGradient id="b" x1=".5002" x2=".5002" y2="1" gradientTransform="matrix(244,0,0,228,5.981,12.12)" gradientUnits="userSpaceOnUse">
      <stop stop-color="#504945" offset="0"/>
      <stop stop-color="#3c3836" offset="1"/>
    </linearGradient>
    <path d="m165 12.12c72 0 85 15 85 87v56c0 70-13 85-85 85h-74c-72 0-85-15-85-85v-56c0-72 13-87 85-87z" fill="url(#b)"/>
  </g>
  <defs>
    <linearGradient id="linearGradient31" x1=".5002" x2=".5002" y2="1" gradientTransform="matrix(244,0,0,228,5.988,12.12)" gradientUnits="userSpaceOnUse">
      <stop stop-color="#d5c4a1" offset="0"/>
      <stop stop-color="#d5c4a1" stop-opacity=".09804" offset=".1"/>
      <stop stop-color="#282828" stop-opacity=".1" offset=".9"/>
      <stop stop-color="#282828" stop-opacity=".4" offset="1"/>
    </linearGradient>
  </defs>
  <g transform="translate(.007189 -.1198)" opacity=".5">
    <path d="m91 12.12c-72 0-85 15-85 87v56c0 70 13 85 85 85h74c72 0 85-15 85-85v-56c0-72-13-87-85-87zm0 4h74c68 0 80 15 80 83v56c0 66-12 81-80 81h-74c-68 0-80-15-80-81v-56c0-68 12-83 80-83z" fill="url(#linearGradient31)" opacity="1"/>
  </g>
  <g stroke-width="10.37">
    <path d="m90.67 57.47v29.04l-35.26 10.37 18.67 14.52v16.59l-18.67 31.11 35.26-2.074-8.297 33.19 45.63-29.04 45.63 29.04-8.297-33.19 35.26 2.074-18.67-31.11v-16.59l18.67-14.52-35.26-10.37v-29.04l-16.59 8.297v-10.37l-10.37 10.37v-10.37l-10.37 10.37-10.37-10.37v10.37l-10.37-10.37v14.52z" fill="#7c6f64"/>
    <path d="m72 55.4-6.222 10.37s-4.148 8.297 4.148 20.74c5.145 7.718 12.44 16.59 12.44 16.59l-37.33 14.52 29.04 10.37h22.82s6.616 0.1722 8.297 8.297l12.44 60.15s2.074 4.148 10.37 4.148 10.37-4.148 10.37-4.148l10.37-60.15c1.41-8.176 8.297-8.297 8.297-8.297h24.89l29.04-10.37-37.33-14.52s7.3-8.875 12.44-16.59c8.297-12.44 4.148-20.74 4.148-20.74l-6.222-10.37v10.37l-24.89 10.37-31.11-5.185-31.11 5.185-24.89-10.37z" fill="#d5c4a1"/>
    <path d="m96.89 86.51 24.89 16.59s0 4.148-12.44 4.148c-12.44 0-12.44-20.74-12.44-20.74z" fill="#cc241d"/>
    <path d="m159.1 86.51-24.89 16.59s0 4.148 12.44 4.148 12.44-20.74 12.44-20.74z" fill="#cc241d"/>
    <path d="m115.6 128 12.44 6.222 12.44-6.222-4.148 58.08-8.297 4.148-8.297-4.148z" fill="#3c3836"/>
    <path d="m119.7 186.1v-16.59l4.148 10.37h8.297l4.148-10.37v16.59s0 4.148-4.148 4.148h-8.297c-4.148 0-4.148-4.148-4.148-4.148z" fill="#ebdbb2"/>
    <path d="m115.6 128v18.67l6.938-8.297h10.29l7.664 8.297v-18.67s-4.148 2.074-12.44 2.074-12.44-2.074-12.44-2.074z" fill="#ebdbb2"/>
  </g>
</svg>
