<svg width="256" height="256" style="isolation:isolate" version="1.1" xmlns="http://www.w3.org/2000/svg">
  <g transform="translate(1.086e-6 -.1185)" filter="url(#a)">
    <linearGradient id="b" x1=".5002" x2=".5002" y2="1" gradientTransform="matrix(244,0,0,228,5.981,12.12)" gradientUnits="userSpaceOnUse">
      <stop stop-color="#fb4934" offset="0"/>
      <stop stop-color="#fb4934" offset="1"/>
    </linearGradient>
    <path d="m165 12.12c72 0 85 15 85 87v56c0 70-13 85-85 85h-74c-72 0-85-15-85-85v-56c0-72 13-87 85-87z" fill="url(#b)"/>
  </g>
  <g transform="matrix(1 0 0 .9998 1.02e-6 .03555)" fill="#ebdbb2">
    <path d="m6 126v29c0 70 13 85 85 85h74c72 0 85-15 85-85v-29z" fill="#ebdbb2" opacity=".1"/>
  </g>
  <defs>
    <linearGradient id="linearGradient31" x1=".5002" x2=".5002" y2="1" gradientTransform="matrix(244 0 0 228 5.986 12)" gradientUnits="userSpaceOnUse">
      <stop stop-color="#d5c4a1" offset="0"/>
      <stop stop-color="#d5c4a1" stop-opacity=".09804" offset=".1"/>
      <stop stop-color="#282828" stop-opacity=".1" offset=".9"/>
      <stop stop-color="#282828" stop-opacity=".4" offset="1"/>
    </linearGradient>
  </defs>
  <g transform="translate(.004997 -.1131)" opacity=".5">
    <path transform="translate(-.004996 .116)" d="m91 12c-72 0-85 15-85 87v56c0 70 13 85 85 85h74c72 0 85-15 85-85v-56c0-72-13-87-85-87zm0 4h74c68 0 80 15 80 83v56c0 66-12 81-80 81h-74c-68 0-80-15-80-81v-56c0-68 12-83 80-83z" fill="url(#linearGradient31)" opacity="1"/>
  </g>
  <path d="m133.6 187.5c-15.56-5.986-23.71-7.751-30.11-7.534-6.794 0.6262-12.58 2.859-19.24 5.194-3.651 1.135-3.656 1.076-0.2441-2.991 1.914-2.282 8.676-7.713 15.03-12.07 8.643-5.927 13.43-7.453 19.04-7.453 8.837 0 14.68-5.739 12.79-12.01-7.096-12.32-24.06-28.4-24.06-32.79 0-3.669 6.561-12.98 14.41-21.83 3.475-3.913 4.978-7.043 3.894-8.108-2.258-2.218-23.92-6.091-34.04-6.091-8.084 0-15.21 2.704-15.21 8.397 0 1.579 0.9912 5.966 4.146 9.748l5.736 6.876c-3.794 4.614-5.415 9.615-11.94 9.615-9.359 0-9.359-8.08-9.309-15.94 1.321-19.25 28.87-38.54 54.92-35.78 16.48 1.75 30.93 4.273 46.7 5.533 8.777 0.462 14.28-1.887 22.51-5.212 5.966-2.41 2.161 5.343-6.77 13.79-10.74 10.17-17.1 16.14-34.3 14.44-12.87-1.265-16.39-1.993-19.34 6.381-2.34 6.646 0.2142 12.98 12.37 26.51 5.993 6.67 8.609 10.98 8.568 15.19-0.0363 3.772-2.146 7.471-6.797 12.72-4.101 4.629-6.449 9.234-5.862 10.23 1.84 3.134 14.02 9.848 20.67 9.848 3.5 0 10.11-1.05 14.04-3.16 6.646-3.569 9.467-3.537 9.467 0.108 0 2.886-20.92 20.4-32.88 20.37-2.176-7e-3 -8.565-1.844-14.2-4.011z" fill="#282828" stroke-width="12.7" style="isolation:isolate"/>
</svg>
