<svg width="256" height="256" style="isolation:isolate" version="1.1" viewBox="0 0 256 256" xmlns="http://www.w3.org/2000/svg">
  <defs>
    <filter id="X8rxS7ysECrqYYstQ3lORjwsScctvpEx" x="-.04212" y="-.04513" width="1.084" height="1.108" color-interpolation-filters="sRGB">
      <feGaussianBlur in="SourceGraphic" stdDeviation="4.294"/>
      <feOffset dx="0" dy="4" result="pf_100_offsetBlur"/>
      <feFlood flood-opacity=".4"/>
      <feComposite in2="pf_100_offsetBlur" operator="in" result="pf_100_dropShadow"/>
      <feBlend in="SourceGraphic" in2="pf_100_dropShadow"/>
    </filter>
  </defs>
  <g filter="url(#X8rxS7ysECrqYYstQ3lORjwsScctvpEx)">
    <linearGradient id="_lgradient_88" x2="0" y2="1" gradientTransform="matrix(244.6 0 0 228.3 5.68 11.95)" gradientUnits="userSpaceOnUse">
      <stop stop-color="#504945" offset="0"/>
      <stop stop-color="#3c3836" offset="1"/>
    </linearGradient>
    <path d="m165.7 11.95c72.42 0 84.64 10.56 84.64 84.54v59.25c0 73.99-10.58 84.54-84.64 84.54h-75.37c-74.06 0-84.64-10.56-84.64-84.54v-59.25c0-73.99 12.41-84.54 84.64-84.54z" fill="url(#_lgradient_88)"/>
  </g>
  <g opacity=".4">
    <linearGradient id="_lgradient_89" x1=".517" x2=".517" y2="1" gradientTransform="matrix(244.6 0 0 228.3 5.68 11.95)" gradientUnits="userSpaceOnUse">
      <stop stop-color="#ebdbb2" offset="0"/>
      <stop stop-color="#ebdbb2" stop-opacity=".098" offset=".125"/>
      <stop stop-color="#282828" stop-opacity=".098" offset=".925"/>
      <stop stop-color="#282828" stop-opacity=".498" offset="1"/>
    </linearGradient>
    <path d="m165.1 11.95c4.328-0.01 8.656 0.04 12.98 0.138 3.875 0.078 7.751 0.226 11.63 0.452 3.453 0.196 6.905 0.481 10.35 0.854 3.059 0.335 6.118 0.786 9.148 1.346 2.715 0.502 5.4 1.14 8.046 1.916 2.4 0.698 4.751 1.562 7.023 2.584 2.115 0.943 4.141 2.063 6.059 3.35 1.84 1.238 3.561 2.653 5.135 4.215 1.564 1.572 2.98 3.282 4.219 5.119 1.289 1.916 2.41 3.94 3.364 6.042 1.023 2.28 1.889 4.618 2.597 7.005 0.777 2.643 1.417 5.325 1.918 8.037 0.561 3.026 1.013 6.072 1.348 9.127 0.374 3.439 0.659 6.878 0.856 10.33 0.226 3.861 0.373 7.732 0.462 11.59 0.088 4.323 0.138 8.646 0.128 12.96v58.21c0.01 4.323-0.04 8.636-0.128 12.96-0.089 3.871-0.236 7.732-0.462 11.59-0.197 3.448-0.482 6.897-0.856 10.33-0.335 3.055-0.787 6.111-1.348 9.137-0.501 2.702-1.141 5.384-1.918 8.027-0.708 2.387-1.574 4.735-2.597 7.005-0.954 2.112-2.075 4.126-3.364 6.042-1.239 1.837-2.655 3.557-4.219 5.119-1.574 1.562-3.295 2.977-5.135 4.215-1.918 1.287-3.944 2.407-6.059 3.35-2.272 1.022-4.623 1.886-7.023 2.594-2.646 0.776-5.331 1.414-8.046 1.906-3.03 0.569-6.089 1.011-9.148 1.346-3.443 0.373-6.895 0.658-10.35 0.854-3.875 0.226-7.751 0.374-11.63 0.462-4.328 0.088-8.656 0.138-12.98 0.128h-74.13c-4.328 0.01-8.656-0.04-12.98-0.128-3.875-0.088-7.751-0.236-11.63-0.462-3.453-0.196-6.905-0.481-10.35-0.854-3.059-0.335-6.118-0.777-9.148-1.346-2.715-0.492-5.4-1.13-8.046-1.906-2.4-0.708-4.751-1.572-7.023-2.594-2.115-0.943-4.141-2.063-6.059-3.35-1.84-1.238-3.561-2.653-5.135-4.215-1.564-1.562-2.98-3.282-4.219-5.119-1.289-1.916-2.41-3.93-3.364-6.042-1.023-2.27-1.889-4.618-2.597-7.005-0.777-2.643-1.417-5.325-1.918-8.027-0.561-3.026-1.013-6.082-1.348-9.137-0.374-3.429-0.659-6.878-0.856-10.33-0.226-3.861-0.373-7.722-0.462-11.59-0.088-4.323-0.138-8.636-0.128-12.96v-58.21c-0.01-4.313 0.04-8.636 0.128-12.96 0.089-3.861 0.236-7.732 0.462-11.59 0.197-3.448 0.482-6.887 0.856-10.33 0.335-3.055 0.787-6.101 1.348-9.127 0.501-2.712 1.141-5.394 1.918-8.037 0.708-2.387 1.574-4.725 2.597-7.005 0.954-2.102 2.075-4.126 3.364-6.042 1.239-1.837 2.655-3.547 4.219-5.119 1.574-1.562 3.295-2.977 5.135-4.215 1.918-1.287 3.944-2.407 6.059-3.35 2.272-1.022 4.623-1.886 7.023-2.584 2.646-0.776 5.331-1.414 8.046-1.916 3.03-0.56 6.089-1.011 9.148-1.346 3.443-0.373 6.895-0.658 10.35-0.854 3.875-0.226 7.751-0.374 11.63-0.452 4.328-0.098 8.656-0.148 12.98-0.138zm0.01 4.009c4.298-0.01 8.597 0.039 12.9 0.127 3.827 0.089 7.653 0.236 11.48 0.452 3.384 0.197 6.767 0.472 10.13 0.845 2.971 0.315 5.932 0.747 8.863 1.297 2.577 0.472 5.134 1.081 7.653 1.818 2.223 0.648 4.396 1.454 6.501 2.397 1.909 0.855 3.738 1.867 5.469 3.026 1.623 1.091 3.138 2.338 4.525 3.724 1.387 1.385 2.636 2.898 3.738 4.519 1.16 1.729 2.174 3.547 3.029 5.443 0.945 2.112 1.751 4.284 2.4 6.494 0.748 2.515 1.348 5.06 1.83 7.634 0.541 2.928 0.974 5.875 1.298 8.842 0.374 3.36 0.65 6.73 0.846 10.11 0.217 3.822 0.374 7.634 0.453 11.46 0.088 4.293 0.137 8.577 0.137 12.87v58.21c0 4.293-0.049 8.577-0.137 12.87-0.079 3.822-0.236 7.644-0.453 11.46-0.196 3.38-0.472 6.75-0.846 10.12-0.324 2.957-0.757 5.904-1.298 8.832-0.482 2.574-1.082 5.119-1.83 7.634-0.649 2.22-1.455 4.382-2.4 6.494-0.855 1.896-1.869 3.724-3.029 5.443-1.102 1.631-2.351 3.144-3.738 4.529-1.387 1.376-2.902 2.623-4.525 3.714-1.731 1.159-3.56 2.171-5.469 3.026-2.105 0.953-4.278 1.749-6.501 2.397-2.519 0.737-5.076 1.346-7.653 1.818-2.931 0.55-5.892 0.982-8.863 1.306-3.364 0.364-6.747 0.649-10.13 0.836-3.826 0.216-7.652 0.373-11.48 0.452-4.298 0.098-8.597 0.137-12.9 0.137h-74.15c-4.298 0-8.597-0.039-12.9-0.137-3.827-0.079-7.653-0.236-11.48-0.452-3.384-0.187-6.767-0.472-10.13-0.836-2.971-0.324-5.932-0.756-8.863-1.306-2.577-0.472-5.134-1.081-7.653-1.818-2.223-0.648-4.396-1.444-6.501-2.397-1.909-0.855-3.738-1.867-5.469-3.026-1.623-1.091-3.138-2.338-4.525-3.714-1.387-1.385-2.636-2.898-3.738-4.529-1.16-1.719-2.174-3.547-3.029-5.443-0.945-2.112-1.751-4.274-2.4-6.494-0.748-2.515-1.348-5.06-1.83-7.634-0.541-2.928-0.974-5.875-1.298-8.832-0.374-3.37-0.649-6.74-0.846-10.12-0.217-3.812-0.374-7.634-0.453-11.46-0.088-4.293-0.137-8.577-0.137-12.87v-58.21c0-4.293 0.049-8.577 0.137-12.87 0.079-3.822 0.236-7.634 0.453-11.46 0.197-3.38 0.472-6.75 0.846-10.11 0.324-2.967 0.757-5.914 1.298-8.842 0.482-2.574 1.082-5.119 1.83-7.634 0.649-2.21 1.455-4.382 2.4-6.494 0.855-1.896 1.869-3.714 3.029-5.443 1.102-1.621 2.351-3.134 3.738-4.519 1.387-1.386 2.902-2.633 4.525-3.724 1.731-1.159 3.56-2.171 5.469-3.026 2.105-0.943 4.278-1.749 6.501-2.397 2.519-0.737 5.076-1.346 7.653-1.818 2.931-0.55 5.892-0.982 8.863-1.297 3.364-0.373 6.747-0.648 10.13-0.845 3.826-0.216 7.652-0.363 11.48-0.452 4.298-0.088 8.597-0.137 12.9-0.127h74.14z" fill="url(#_lgradient_89)" fill-rule="evenodd"/>
  </g>
  <g transform="matrix(4.231 0 0 4.231 -7.385 -9.5)">
    <circle transform="scale(-1,1)" cx="-32" cy="33" r="19" fill="#282828"/>
    <circle transform="scale(-1,1)" cx="-32" cy="32" r="19" fill="#ebdbb2"/>
    <path d="m33.79 13.1a19 19 0 0 1 6.876 1.995c-0.09595 0.3041 0.01615 0.6471 0.3658 0.95 0.2366 0.205 0.4304 0.5243 0.4304 0.7107 0 0.5697-0.5149 1.444-0.9262 1.572-0.5462 0.1691-0.3629 0.752 0.3401 1.074 0.3249 0.1492 0.7248 0.5786 0.8882 0.9538 0.1644 0.3762 0.4056 0.7467 0.5368 0.8236 0.1302 0.0779 0.2375 0.3714 0.2375 0.6536 0 0.3942-0.1805 0.5852-0.7724 0.8218-0.4237 0.17-0.931 0.2936-1.128 0.2746-1.131-0.1064-1.21 0.5529-0.2214 1.841 0.5254 0.684 0.778 0.856 1.136 0.7695 0.3334-0.0798 0.5158 0.01425 0.6678 0.3448 0.1596 0.3506 0.4218 0.4693 1.126 0.5178 0.6926 0.04845 1.002 0.189 1.262 0.5681 0.19 0.2764 0.4636 0.5006 0.609 0.5006 0.1457 0 0.4879 0.1862 0.7608 0.4123 0.5552 0.4608 0.772 0.5073 0.9666 0.2062 0.2573-0.399 0.8123-0.1976 1.638 0.5938 0.7306 0.6992 0.819 0.8864 0.7088 1.493-0.1961 1.08-0.7819 2.039-1.451 2.373-0.5838 0.2916-0.5952 0.323-0.2412 0.6973 0.2036 0.2156 0.5529 0.4465 0.7756 0.514 0.6432 0.1957 0.2811 0.4408-0.8665 0.5871-1.175 0.1492-1.54 0.5748-0.9908 1.155 0.306 0.324 0.2888 0.3848-0.2023 0.6926-0.9595 0.6023-1.723 0.2337-0.8219-0.3971 0.5788-0.4056 0.174-0.571-0.6754-0.2764-0.6774 0.2346-0.8113 0.2214-1.211-0.1264-0.8218-0.7116-1.715 0.341-0.9633 1.135 0.4778 0.5064 0.3334 1.116-0.286 1.201-0.2736 0.03705-0.8417 0.2916-1.264 0.5662-0.4218 0.2736-0.8816 0.4988-1.02 0.4988s-0.5301 0.2784-0.8702 0.6184c-0.6897 0.6888-1.073 0.7762-1.267 0.2907-0.2337-0.5833-0.1396-0.8844 0.4902-1.571 0.5006-0.5472 1.315-2.001 1.315-2.349 0-0.2147-0.8274-0.0323-1.291 0.284-0.2898 0.1986-0.759 0.4541-1.043 0.57-0.3021 0.1235-0.6156 0.5073-0.759 0.9272-0.2232 0.6593-0.3116 0.7163-1.102 0.7163h-0.8588l-0.1302 1.544c-0.1558 1.857-0.305 2.233-0.9424 2.386-0.4693 0.113-0.97 0.8398-0.97 1.408 0 0.151 0.3372 0.5216 0.7496 0.8227 0.5111 0.3734 0.7315 0.6906 0.6973 1.001-0.04275 0.3886 0.0456 0.4494 0.5956 0.4085 0.3544-0.0266 0.97 0.09785 1.365 0.2764 0.4684 0.2109 0.9756 0.2784 1.452 0.1928 0.5472-0.09785 0.7324-0.05985 0.7324 0.1539 0 0.1577 0.1919 0.4522 0.4256 0.6555 0.5776 0.5006 0.3392 0.7657-0.5482 0.6061-0.551-0.0988-0.7657-0.0551-0.8607 0.1824-0.2024 0.5044 0.3106 1.226 0.7866 1.108 0.3021-0.076 0.4465 0.02755 0.5406 0.3838 0.0323 0.1264 0.09215 0.2337 0.1634 0.3249a19 19 0 0 1-3.007 0.8882c0.095-0.1814 0.2033-0.3468 0.3088-0.4208 0.4892-0.3458 0.1615-1.244-0.512-1.406-0.6868-0.1653-0.5786-0.6108 0.1682-0.6964 0.6546-0.0741 1.351-0.7372 1.132-1.076-0.1472-0.227-0.7733-0.1938-2.04 0.1064-0.5719 0.1349-0.9624-0.1368-2.288-1.586-0.7666-0.8398-1.357-1.189-2.004-1.189-0.247 0-1.128-0.227-1.958-0.5044-1.568-0.5254-2.18-0.5064-2.122 0.0665 0.1197 1.191-0.647 1.151-1.896-0.0969-0.5206-0.5196-0.9966-0.8958-1.058-0.837-0.2384 0.229 0.191 1.343 0.6926 1.795 0.6356 0.5719 0.6669 0.9329 0.1074 1.219-0.3059 0.1577-0.436 0.476-0.4845 1.191l-0.0646 0.9766h-0.7942c-0.2784 0-0.5092 0.038-0.6954 0.1092a19 19 0 0 1-9.206-15.68c0.2907-0.6213 0.2698-0.9966 0-1.419a19 19 0 0 1 0.0855-1.065c0.1729-0.0085 0.3496-0.01615 0.5529-0.0076 0.9576 0.0399 1.777-0.3372 1.777-0.818 0-0.1016 0.3401-0.5206 0.7552-0.93 0.4712-0.4636 0.7125-0.874 0.6422-1.087-0.0646-0.1938 0.0741-0.5064 0.3192-0.7182 0.2384-0.2071 0.4342-0.5396 0.4342-0.7391 0-0.3182 0.2024-0.3582 1.666-0.323l1.666 0.04085-0.0285 1.643c-0.0494 2.877-0.4778 3.623-1.799 3.142-0.6052-0.2214-2.092-0.05415-2.515 0.2812-0.153 0.1216-0.3743 0.5624-0.4912 0.9804-0.1178 0.417-0.5529 1.14-0.969 1.605-0.8417 0.9424-0.9072 1.31-0.4246 2.416 0.4208 0.9652 0.875 0.854 0.7847-0.1928l-0.0665-0.779 0.7125 0.133c0.3942 0.07505 0.8882 0.3658 1.11 0.6536 0.3154 0.4094 0.4626 0.4693 0.6992 0.2822 0.1653-0.1311 0.2992-0.4076 0.2992-0.6128s0.2033-0.4332 0.4503-0.5082c0.248-0.07505 0.5871-0.4484 0.7534-0.8312 0.267-0.6118 0.2603-0.799-0.05035-1.542-0.3144-0.7534-0.3173-0.8778-0.02755-1.156 0.266-0.2546 0.4038-0.2632 0.7534-0.0532 0.3515 0.21 0.5178 0.1948 0.9358-0.0855 0.2784-0.1872 0.7657-0.342 1.081-0.342 0.6412 0 0.835-0.3116 0.835-1.343 0-0.9528 0.5681-1.299 1.921-1.174 0.9386 0.08645 1.146 0.0247 1.903-0.5586 0.4684-0.36 1.207-1.226 1.644-1.928s0.9072-1.434 1.045-1.627c0.1976-0.2802 0.1492-0.5491-0.2375-1.312l-0.4883-0.9595 1.032 0.1396c1.835 0.248 2.207 0.4854 1.417 0.9092-0.3078 0.1644-0.3211 0.2489-0.0836 0.5234 0.1558 0.1786 0.229 0.4626 0.1615 0.6308-0.06745 0.1672 0.01805 0.5624 0.189 0.8768 0.172 0.3154 0.3154 0.7572 0.3211 0.9842 0.01805 0.7078 1.23 1.271 2.581 1.196 2.046-0.113 2.213-0.08075 2.939 0.5938 0.9082 0.8436 1.025 1.236 0.6023 2.019-0.4094 0.76-1.137 1.063-2.397 1-1.127-0.05605-1.254 0.0437-0.9966 0.7885 0.2194 0.6327 0.9548 0.8759 1.454 0.4807 0.3838-0.305 1.707-0.06935 2.113 0.3772 0.17 0.1862 0.4228 0.6764 0.5605 1.087 0.2375 0.7087 0.3068 0.7524 1.371 0.855 1.062 0.1036 1.165 0.06935 1.928-0.6346 0.8522-0.7847 0.9966-1.385 0.5862-2.419-0.1824-0.4579-0.3173-0.533-0.8037-0.4436-0.9633 0.1758-1.343-0.1586-1.343-1.188 0-0.4988 0.0969-0.9652 0.2156-1.036 0.1178-0.0703 0.2147-0.3344 0.2147-0.588s0.1216-0.5804 0.2688-0.7239c0.2156-0.209 0.1843-0.3211-0.1596-0.5643-0.2356-0.1662-0.6232-0.2784-0.8607-0.2498-0.2366 0.0285-0.8911-0.0741-1.454-0.227-0.8142-0.2194-1.054-0.3857-1.164-0.8142-0.209-0.8132-0.7192-1.466-1.147-1.466-0.6754 0-0.6897-1.588-0.03325-3.899 0.0969-0.341 0.3638-0.5576 0.835-0.6745 0.3819-0.095 0.797-0.3553 0.9224-0.5793 0.1244-0.224 0.3534-0.4064 0.5082-0.4064s0.4579-0.1854 0.6716-0.4119c0.2156-0.228 0.6612-0.4119 1-0.4119 0.8028 0 0.816-0.5527 0.01995-0.8442-0.8408-0.3082-2.15 0.09576-2.466 0.7607-0.4284 0.9016-0.9044 0.5254-1.057-0.8368-0.189-1.685-0.7704-2.169-2.603-2.169h-1.318l0.5776-0.577c0.1796-0.1801 0.3287-0.4002 0.4322-0.6161zm-6.83 0.5975c0.03705 0.03344 0.07315 0.0608 0.1092 0.09833 0.4408 0.4499 0.6479 0.514 1.329 0.4101 1.189-0.1814 1.036 0.2975-0.2802 0.8758-0.7116 0.3126-1.169 0.6691-1.325 1.03-0.7505 1.74-1.267 2.677-1.527 2.772-0.5244 0.1928-0.837-0.1942-0.9538-1.184-0.134-1.135-0.5178-1.376-1.207-0.7552-0.2679 0.2408-0.6422 0.4379-0.8312 0.4379-0.59 0-1.026 0.2368-1.026 0.5567 0 0.1685-0.1995 0.5747-0.4436 0.9033-0.36 0.4836-0.6042 0.5994-1.277 0.5994-0.8256 0-1.332 0.1548-2.366 0.7258-0.01615 0.0085-0.0323 0.0114-0.04845 0.01995a19 19 0 0 1 9.847-6.49zm24.03 18.22a19 19 0 0 1 0.0037 0.0817 19 19 0 0 1-0.3711 3.65c-0.6884 0.2802-0.8786 0.1691-0.95-0.4712-0.03695-0.3316-0.21-0.7068-0.386-0.837-0.2718-0.2004-0.2228-0.303 0.334-0.683 0.3604-0.246 0.7156-0.6754 0.7886-0.9538 0.07068-0.2698 0.3097-0.5643 0.5807-0.7866zm-5.98 6.28c0.1776-0.01805 0.3917 0.07695 0.6292 0.305 0.5025 0.4807 0.4266 1.447-0.1429 1.829-0.6526 0.438-0.9043 0.3106-0.987-0.4968-0.1016-0.9956 0.1112-1.596 0.5006-1.637zm-3.224 2.873c0.1938 0.0067 0.4076 0.1454 0.6213 0.438 0.227 0.3097 0.2888 0.7096 0.2024 1.317-0.1074 0.7467-0.0608 0.9063 0.3296 1.107 0.5026 0.2565 0.6099 1.02 0.1986 1.414-0.4085 0.3914-0.798 0.2888-0.9386-0.247-0.1995-0.7638-1.318-0.8531-2.081-0.1672-0.3258 0.2926-0.5918 0.4408-0.5918 0.3287s0.3392-0.5196 0.7534-0.9034c0.6336-0.589 0.7514-0.8398 0.7514-1.598 0-1.07 0.3278-1.701 0.7552-1.688zm5.295 2.453a19 19 0 0 1-0.4398 0.5548c0.1295-0.2004 0.2773-0.3924 0.4398-0.5548zm-6.403 2.916c0.09595 0.03325 0.1368 0.1539 0.1368 0.3658 0 0.2147 0.1368 0.4398 0.304 0.5006 0.2223 0.0817 0.2736 0.3392 0.1881 0.9538-0.01615 0.115-0.0209 0.2071-0.0266 0.303a19 19 0 0 1-0.7904 0.4056c0.0133-0.3287-0.04655-0.7154-0.2185-1.2-0.2916-0.8227-0.3021-1.029-0.0646-1.173 0.2223-0.1349 0.3743-0.189 0.4712-0.1558z" fill="#bdae93"/>
    <path d="m32 13a19 19 0 0 0-19 19 19 19 0 0 0 0.02148 0.4082 19 19 0 0 1 18.98-18.41 19 19 0 0 1 18.98 18.59 19 19 0 0 0 0.02148-0.5918 19 19 0 0 0-19-19z" fill="#ebdbb2" opacity=".3"/>
  </g>
</svg>
