<svg width="256" height="256" style="isolation:isolate" version="1.1" xmlns="http://www.w3.org/2000/svg">
  <g transform="translate(.007136 -.1198)" filter="url(#a)">
    <linearGradient id="b" x1=".5002" x2=".5002" y2="1" gradientTransform="matrix(244,0,0,228,5.981,12.12)" gradientUnits="userSpaceOnUse">
      <stop stop-color="#8ec07c" offset="0"/>
      <stop stop-color="#8ec07c" offset="1"/>
    </linearGradient>
    <path d="m165 12.12c72 0 85 15 85 87v56c0 70-13 85-85 85h-74c-72 0-85-15-85-85v-56c0-72 13-87 85-87z" fill="url(#b)"/>
  </g>
  <defs>
    <linearGradient id="linearGradient31" x1=".5002" x2=".5002" y2="1" gradientTransform="matrix(244,0,0,228,5.988,12.12)" gradientUnits="userSpaceOnUse">
      <stop stop-color="#d5c4a1" offset="0"/>
      <stop stop-color="#d5c4a1" stop-opacity=".09804" offset=".1"/>
      <stop stop-color="#282828" stop-opacity=".1" offset=".9"/>
      <stop stop-color="#282828" stop-opacity=".4" offset="1"/>
    </linearGradient>
  </defs>
  <g transform="translate(.007189 -.1198)" opacity=".5">
    <path d="m91 12.12c-72 0-85 15-85 87v56c0 70 13 85 85 85h74c72 0 85-15 85-85v-56c0-72-13-87-85-87zm0 4h74c68 0 80 15 80 83v56c0 66-12 81-80 81h-74c-68 0-80-15-80-81v-56c0-68 12-83 80-83z" fill="url(#linearGradient31)" opacity="1"/>
  </g>
  <path d="m79.69 98.41a3.971 3.772 0 0 0-3.032 1.451c-20.82 25.35-17.25 49.48-17.7 73.61a3.971 3.772 0 0 0 7.553 1.702s6.033-11.91 12.03-26.82c6.002-14.91 12.12-32.63 11.97-45.72a3.971 3.772 0 0 0-3.668-3.72l-6.754-0.4932a3.971 3.772 0 0 0-0.4034-0.0075z" fill="#fe8019" stroke-width="9.864" style="isolation:isolate"/>
  <path d="m176.3 98.41a3.971 3.772 0 0 1 3.032 1.451c20.82 25.35 17.25 49.48 17.7 73.61a3.971 3.772 0 0 1-7.553 1.702s-6.033-11.91-12.03-26.82c-6.002-14.91-12.12-32.63-11.97-45.72a3.971 3.772 0 0 1 3.668-3.72l6.754-0.4932a3.971 3.772 0 0 1 0.4034-0.0075z" fill="#fe8019" stroke-width="9.864" style="isolation:isolate"/>
  <path d="m128 49.09c-26.19-4.92e-4 -44.29 20.02-49.63 44.93-3.169 10.79-13.11 37.79-13.5 58.23 5.92e-4 30.19 28.26 54.66 63.13 54.66 34.86-4.9e-4 63.13-24.47 63.13-54.66-0.3916-20.43-10.33-47.43-13.5-58.23-5.339-24.91-23.43-44.93-49.63-44.93z" fill="#fabd2f" stroke-width="9.864" style="isolation:isolate"/>
  <path d="m108.3 120.5c5.655 0.4429 13.85-1.669 19.93-8.306 7.091 6.918 14.28 7.297 19.44 8.222 1.157 10.72 0.0789 27.29-18.7 27.29-18.78-1e-3 -20.92-14.38-20.67-27.2z" fill="#d65d0e" stroke-width="9.864" style="isolation:isolate"/>
  <path d="m124.1 78.68-0.6402 3.664c-6.206 0.8986-10.58 2.604-15.14 4.227 0 0 6.186-7.891 15.78-7.891z" fill="#504945" stroke-width="9.864" style="isolation:isolate"/>
  <path d="m131.9 78.68 0.6244 3.611c6.216 0.9341 10.59 2.646 15.16 4.28 0 0-6.164-7.815-15.78-7.891z" fill="#504945" stroke-width="9.864" style="isolation:isolate"/>
  <g transform="matrix(9.864 0 0 9.864 39.23 49.09)" style="isolation:isolate">
    <ellipse transform="matrix(.9715 .2372 -.2599 .9656 0 0)" cx="8.858" cy="4.038" rx="1.506" ry="2.038" fill="#ebdbb2"/>
    <ellipse transform="matrix(.973 .231 -.2668 .9638 0 0)" cx="9.391" cy="5.012" rx=".773" ry="1.021" fill="#3c3836"/>
  </g>
  <path d="m119.1 137.9s1.973-1.971 9.864-1.971 9.864 1.971 9.864 1.971" fill="none" opacity=".4" stroke="#000" stroke-linecap="round" stroke-linejoin="bevel" stroke-width="3.945px" style="isolation:isolate"/>
  <g transform="matrix(-9.864 0 0 9.864 216.9 49.09)" style="isolation:isolate">
    <ellipse transform="matrix(.9715 .2372 -.2599 .9656 0 0)" cx="8.858" cy="4.038" rx="1.506" ry="2.038" fill="#ebdbb2"/>
    <ellipse transform="matrix(.973 .231 -.2668 .9638 0 0)" cx="9.391" cy="5.012" rx=".773" ry="1.021" fill="#3c3836"/>
  </g>
</svg>
