<svg width="256" height="256" style="isolation:isolate" version="1.1" xmlns="http://www.w3.org/2000/svg">
  <g filter="url(#a)">
    <linearGradient id="b" x1=".50002" x2=".50002" y1="-.00051239" y2="1" gradientTransform="matrix(244.65,0,0,228.34,5.676,11.947)" gradientUnits="userSpaceOnUse">
      <stop stop-color="#ebdbb2" offset="0"/>
      <stop stop-color="#ebdbb2" offset="1"/>
    </linearGradient>
    <path d="m165.68 11.947c72.707 0 84.639 12.053 84.639 84.544v59.251c0 72.561-11.932 84.543-84.639 84.543h-75.37c-72.294 0-84.639-11.982-84.639-84.543v-59.251c0-72.491 12.329-84.544 84.639-84.544z" fill="url(#b)"/>
  </g>
  <defs>
    <filter id="a" x="-.042124" y="-.045133" width="1.0842" height="1.1078" color-interpolation-filters="sRGB">
      <feGaussianBlur in="SourceGraphic" stdDeviation="4.294"/>
      <feOffset dy="4" result="pf_100_offsetBlur"/>
      <feFlood flood-opacity=".4"/>
      <feComposite in2="pf_100_offsetBlur" operator="in" result="pf_100_dropShadow"/>
      <feBlend in="SourceGraphic" in2="pf_100_dropShadow"/>
    </filter>
    <linearGradient id="f" x1="150.33" x2="153.46" y1="245.59" y2="244.33" gradientTransform="matrix(.72348 0 0 .72348 -62.292 90.633)" gradientUnits="userSpaceOnUse">
      <stop stop-color="#b8bb26" offset="0"/>
      <stop stop-color="#b8bb26" offset="1"/>
    </linearGradient>
    <filter id="g" x="-.14463" y="-.50592" width="1.2893" height="2.0118" color-interpolation-filters="sRGB">
      <feGaussianBlur stdDeviation=".937"/>
    </filter>
    <filter id="h" x="-.091344" y="-.17481" width="1.1827" height="1.3496" color-interpolation-filters="sRGB">
      <feGaussianBlur stdDeviation=".404"/>
    </filter>
  </defs>
  <g opacity=".4">
    <linearGradient id="c" x1=".517" x2=".517" y2="1" gradientTransform="matrix(244.65,0,0,228.34,5.68,11.95)" gradientUnits="userSpaceOnUse">
      <stop stop-color="#d5c4a1" offset="0"/>
      <stop stop-color="#ebdbb2" stop-opacity=".098" offset=".125"/>
      <stop stop-color="#282828" stop-opacity=".098039" offset=".925"/>
      <stop stop-color="#282828" stop-opacity=".49804" offset="1"/>
    </linearGradient>
    <path d="m165.07 11.951c4.328-0.01 8.656 0.04 12.984 0.138 3.875 0.078 7.7436 0.25854 11.62 0.48454 3.453 0.196 6.8876 0.5327 10.33 0.9057 3.06 0.335 6.0892 0.83409 9.1192 1.3941 2.7131 0.50032 5.3525 1.181 7.9999 1.9571 2.3983 0.69679 4.7544 1.61 7.0323 2.6338 2.1121 0.94124 4.0427 2.0439 5.9631 3.3319 1.8405 1.2399 3.5996 2.7014 5.1741 4.2652 1.5652 1.5692 2.886 3.1628 4.1277 4.9987 1.2864 1.9174 2.4086 3.8707 3.3603 5.9744 1.0207 2.2746 1.9193 4.5772 2.628 6.9675 0.77696 2.6443 1.4779 5.3272 1.9787 8.0374 0.56201 3.0246 1.0626 6.0601 1.3989 9.1181 0.374 3.439 0.70873 6.8493 0.90573 10.297 0.226 3.861 0.42171 7.7394 0.51071 11.6 0.088 4.323 0.138 8.646 0.128 12.96v58.21c0.01 4.324-0.04 8.637-0.128 12.96-0.085 3.8668-0.28821 7.7331-0.51114 11.595-0.19655 3.4488-0.53822 6.9467-0.91224 10.38-0.33634 3.0613-0.82936 6.0316-1.3914 9.0596-0.50199 2.7066-1.1867 5.3458-1.9626 7.987-0.7071 2.3908-1.5665 4.6263-2.5888 6.9002-0.94995 2.1048-2.1624 4.2292-3.4512 6.1454-1.2392 1.8377-2.5377 3.3902-4.1052 4.9572-1.5746 1.5638-3.412 3.0712-5.2525 4.3111-1.9201 1.2879-3.8611 2.3701-5.9729 3.3114-2.3498 1.0736-4.5744 1.8717-6.9323 2.584-2.6776 0.81656-5.2934 1.4166-7.976 1.948-3.0309 0.56603-6.051 1.0612-9.1165 1.3921-3.5041 0.40869-6.8203 0.68433-10.336 0.90377-3.875 0.226-7.789 0.40013-11.665 0.48813-4.328 0.088-8.6314 0.15082-12.959 0.14082h-74.126c-4.328 0.01-8.6566-0.0545-12.985-0.14247-3.9049-0.0955-7.7449-0.24667-11.628-0.49085-3.4941-0.21923-7.0445-0.5149-10.452-0.92805-3.1873-0.37665-5.9337-0.7937-8.9951-1.3902-2.833-0.56139-5.3421-1.1637-7.9464-1.9566-2.4295-0.73175-4.8105-1.6266-7.0523-2.6548-2.139-0.97893-4.0617-2.0635-5.9983-3.3731-1.8405-1.2399-3.5141-2.6495-5.0886-4.2133-1.5676-1.5671-2.9061-3.1787-4.1454-5.0164-1.2884-1.9162-2.4021-3.8332-3.3518-5.9379-1.0223-2.2739-1.9238-4.5236-2.6309-6.9144-0.77585-2.6412-1.4977-5.3053-1.9996-8.0119-0.56202-3.028-1.0938-6.1087-1.4301-9.17-0.37402-3.4341-0.72617-6.8459-0.92272-10.295-0.22292-3.8613-0.42179-7.7427-0.50684-11.61-0.09185-4.3194-0.13452-8.6396-0.128-12.96v-58.21c-0.01-4.314 0.04-8.637 0.128-12.96 0.089-3.86 0.28015-7.7353 0.50615-11.596 0.197-3.448 0.54883-6.857 0.92283-10.296 0.335-3.055 0.87336-6.1638 1.4344-9.1898 0.50085-2.7102 1.1807-5.2262 1.9577-7.8705 0.70872-2.3902 1.7549-4.9868 2.7756-7.2614 0.95209-2.1037 1.9632-3.7998 3.2499-5.7172 1.2418-1.8358 2.594-3.4604 4.1593-5.0296 1.5745-1.5638 3.3273-3.0214 5.1678-4.2614 1.9201-1.2879 3.8238-2.3848 5.9356-3.3261 2.278-1.0238 4.5428-1.9236 6.9411-2.6204 2.6474-0.77617 5.2743-1.4761 7.9874-1.9764 3.0317-0.56124 6.1381-1.085 9.203-1.4208 3.443-0.373 6.8398-0.71288 10.293-0.90888 3.875-0.226 7.7331-0.41514 11.609-0.49314 4.328-0.098 8.6625-0.14613 12.991-0.13613zm0.01 4.009c4.298-0.01 8.597 0.039 12.895 0.127 3.827 0.089 7.6466 0.26854 11.474 0.48454 3.383 0.197 6.7724 0.43946 10.136 0.81246 2.971 0.315 5.9391 0.74869 8.8701 1.2987 2.5807 0.47339 5.1059 1.0723 7.6238 1.8101 2.2193 0.6492 4.4135 1.4563 6.5231 2.4032 1.9054 0.85272 3.7179 1.8543 5.4527 3.0153 1.6245 1.0927 3.1568 2.3505 4.5413 3.7347 1.3858 1.385 2.6374 2.8981 3.738 4.519 1.1601 1.7266 2.1737 3.5473 3.03 5.443 0.94487 2.1083 1.7467 4.2779 2.4 6.494 0.74152 2.5113 1.352 5.0594 1.829 7.634 0.54 2.928 0.974 5.875 1.298 8.842 0.374 3.36 0.65 6.73 0.846 10.11 0.217 3.822 0.374 7.634 0.453 11.456 0.088 4.293 0.137 8.577 0.137 12.87v58.212c0 4.293-0.049 8.577-0.137 12.87-0.082 3.8211-0.0546 7.643-0.27458 11.459-0.196 3.38-0.65042 6.7474-1.0244 10.117-0.3245 2.9589-0.75746 5.9049-1.298 8.832-0.47731 2.5747-1.0881 5.1228-1.83 7.634-0.65169 2.2166-1.4536 4.3863-2.4 6.494-0.8542 1.8968-1.8678 3.7176-3.03 5.443-1.0976 1.6263-2.349 3.1432-3.737 4.53-1.3876 1.3779-2.9027 2.6211-4.525 3.713-1.7345 1.161-3.564 2.1732-5.469 3.026-2.1078 0.95119-4.2802 1.7522-6.501 2.397-2.5179 0.7378-5.0723 1.3446-7.653 1.818-2.931 0.55-5.8828 0.98162-8.8538 1.3056-3.364 0.364-6.7562 0.64938-10.139 0.83638-3.827 0.216-7.6776 0.36018-11.505 0.43918-4.298 0.098-8.5724 0.14982-12.87 0.14982h-74.146c-4.298 0-8.5976-0.0545-12.896-0.15147-3.8291-0.082-7.6582-0.26152-11.482-0.48085-3.3834-0.19001-6.7587-0.42545-10.127-0.79268-2.97-0.32174-5.9265-0.7574-8.863-1.306-2.5807-0.47339-5.1351-1.0802-7.653-1.818-2.2208-0.64482-4.3673-1.4321-6.4751-2.3833-1.9053-0.85272-3.7547-1.8723-5.4895-3.0333-1.622-1.0922-3.1431-2.3423-4.5303-3.7205-1.3882-1.3864-2.64-2.903-3.738-4.529-1.1622-1.7254-2.1758-3.5462-3.03-5.443-0.94645-2.1077-1.7483-4.2774-2.4-6.494-0.74152-2.5113-1.352-5.0594-1.829-7.634-0.54054-2.9271-0.9735-5.8731-1.298-8.832-0.374-3.37-0.65-6.74-0.846-10.12-0.21993-3.8156-0.37096-7.6349-0.453-11.456-0.08992-4.2894-0.13559-8.5796-0.137-12.87v-58.212c0-4.293 0.049-8.577 0.137-12.87 0.079-3.822 0.236-7.634 0.453-11.456 0.197-3.38 0.472-6.75 0.846-10.11 0.324-2.967 0.757-5.914 1.298-8.842 0.47732-2.5747 1.0915-5.1375 1.8334-7.6487 0.65331-2.2161 1.4517-4.371 2.3966-6.4793 0.85634-1.8957 1.8699-3.7164 3.03-5.443 1.1003-1.6212 2.3515-3.1346 3.737-4.52 1.3849-1.3839 2.9002-2.6307 4.525-3.723 1.7345-1.161 3.564-2.1732 5.469-3.026 2.1096-0.94691 4.2817-1.7478 6.501-2.397 2.5179-0.7378 5.0723-1.3446 7.653-1.818 2.931-0.55 5.892-0.982 8.863-1.297 3.364-0.373 6.7432-0.64645 10.126-0.84345 3.8239-0.21443 7.6549-0.36667 11.484-0.45355 4.298-0.088 8.597-0.137 12.895-0.127z" fill="url(#c)" fill-rule="evenodd"/>
  </g>
  <g transform="matrix(3.7797 0 0 3.7797 -6.9467 -860.71)">
    <path d="m42.377 268.14c-0.549 0.71-2.196 3.996-0.03 5.21 0.816 0.457 2.74 0.432 4.746 0.204 2.955-0.335 2.553-1.712 2.28-3.631-0.23-1.623-2.235-4.04-2.512-4.768l-3.86-0.602z" fill="url(#f)" fill-rule="evenodd" stroke="#282828" stroke-width=".723"/>
    <path d="m47.845 263.91c-1.283 2.214-3.138 5.857-6.392 5.23l1.095-4.778z" fill="#282828" fill-rule="evenodd" stroke="#282828" stroke-width=".723"/>
    <path d="m47.2 256.74s4.138 0.61 5.186-3.86c0.562-2.397 1.212-3.91 3.2-5.02 2.615-0.198 3.78 4.1 6.603 6.255 0.847 0.646 1.547 1.611 1.52 2.21-0.029 0.643-0.722 1.081-1.132 1.422-0.603 0.229-5.277 1.4-6.377-0.149 0.13-0.696 0.334-1.246 0.367-1.22-0.402 0.622-0.65 1.104-1.485 1.337 0.69-0.055-0.41 6e-3 0.77-0.224 1.113 1.39 3.307 1.181 3.954 1.236-0.24 1.392-1.737 2.208-5.307 1.437-2.433 3.841-8.458 3.98-10.982 5.038-0.068-3.624-0.431-6.856 3.682-8.462z" fill="#ebdbb2" fill-rule="evenodd" stroke="#282828" stroke-width=".723"/>
    <path d="m60.542 252.08c-5.009 0.741-5.428 3.033-6.994 4.766-2.134 2.361-4.11 3.804-8.802 4.38-8e-3 0.758-1.086 2.998-1.07 3.81 2.523-1.06 8.555-1.201 10.987-5.043 3.57 0.772 5.074-0.032 5.314-1.424-0.647-0.055-2.844 0.148-3.957-1.244a3.856 3.856 0 0 0-0.475 0.113c0.592-0.258 0.83-0.684 1.176-1.22-0.033-0.025-0.231 0.524-0.362 1.22 1.1 1.548 5.773 0.387 6.376 0.159 0.41-0.341 1.102-0.781 1.13-1.425 0.027-0.599-0.667-1.57-1.515-2.215-0.689-0.526-1.272-1.192-1.808-1.877zm-5.11 5.426c0.042 0.02 0.164 0.02-0.18 0.045 0.067-0.019 0.12-0.021 0.18-0.045z" fill="#282828" fill-rule="evenodd"/>
    <ellipse cx="60.628" cy="250.2" rx="2.4" ry="3.562" fill="#ebdbb2" stroke="#282828" stroke-width=".705"/>
    <path d="m56.156 249.64c-2.572 2.23-1.71 7.292-5.788 8.253-1.228 0.028-4.46 0.555-4.612 3.074-1.264 3.638 3.268 1.181 5.132 0.588 1.401-0.412 4.579-3.229 1.356-2.645-0.273-1.232 3.298-2.314 4.521-4.165 3.994-4.543-0.907 3.978 3.415 2.085 1.91 0.19 2.64-1.05 0.746-1.967-2.674-1.292 0.121-3.069-1.918-3.758-0.074 3.317-1.34-1.78-2.852-1.465z" fill="#b8bb26" fill-rule="evenodd"/>
    <ellipse cx="61.217" cy="250.28" rx=".388" ry="1.357" fill="#282828" stroke="#282828" stroke-width=".723"/>
    <ellipse cx="57.99" cy="250.47" rx="2.568" ry="3.935" fill="#ebdbb2" stroke="#282828" stroke-width=".703"/>
    <path d="m14.966 264.43c-0.363-0.364-1.035-1.083-1.55-1.486-1.26-0.984-2.148-1.636-3.36-2.39-1.288-0.802-2.237-1.683-2.325-3.23 2.347 1.196 4.765 1.385 7.364 2.584 0.667 0.308 1.809 0.387 1.809 1.034 0 0.763 0.055 1.44-0.259 2.067-0.182 0.364-1.29 1.109-1.68 1.421z" fill="#b8bb26" fill-rule="evenodd" stroke="#282828" stroke-width=".723"/>
    <path d="m16.516 261.07c3.277-11.653 20.156-17.587 28.81-5.943 0.843 2.335-3.86 9.071-2.842 11.498-3.67 1.068-9.39-0.382-13.824 1.292 0 0-5.56-1.988-6.976-2.971-1.301-0.903-5.434-2.803-5.168-3.876z" fill="#282828" stroke="#282828" stroke-width=".723"/>
    <path d="m24.817 268.82s-0.688 1.905-0.42 2.164c0.537 0.52 1.922 1.098 3.488 1.55s1.64 0.452 2.455 0.194c0.757-0.24 0.549-3.94 0.549-3.94z" fill="#3c3836" fill-rule="evenodd" stroke="#282828" stroke-width=".723"/>
    <path d="m30.155 267.56c-1.195 2.03-2.61 3.713-2.51 5.028 0.109 1.45 1.3 2.452 1.795 2.699 0.694 0.345 2.98 0.899 6.093 1.082 2.586 0.152 3.697-1.275 3.674-5.842-0.012-2.557-0.673-2.705-0.673-2.705z" fill="#b8bb26" fill-rule="evenodd" stroke="#282828" stroke-width=".687"/>
    <path d="m15.902 263.94c-1.409 0.97-2.867 2.564-3.341 3.853-0.533 1.45-0.863 4.418 0.208 5.384 2.933 2.643 5.317 1.642 6.765 1.568 1.007-0.052 1.175-2.749 1.213-3.797l0.226-5.232z" fill="#b8bb26" fill-rule="evenodd" stroke="#282828" stroke-width=".723"/>
    <path d="m15.295 261.65c4.65-1.054 8.195 3.137 10.728 4.117 1.063 0.436 2.774 0.706 4.44-0.115 2.725-1.345 6.553-0.42 8.744 0.32 1.31 0.441 2.98-1.63 3.435-4.439 0.378-2.335 1.465-4.685 2.02-5.467 0.707-0.997 1.363-1.635 2.381-1.493 0.96 0.133 1.292 1.322 1.448 1.604-0.357 0.162-1.169-0.21-1.682 0.896-0.626 1.348-2.13 5.318-2.523 7.503-0.21 1.162-1.681 4.13-2.524 4.526-1.447 0.68-2.856 0.558-4.058 0.107-4.419-1.656-7.344-0.081-8.724 0.501-1.343 0.567-7.021-1.83-7.829-2.729-1.865-2.076-5.476-2.892-6.767-3.133-0.807-0.152-0.7-1.833 0.91-2.198z" fill="#ebdbb2" fill-rule="evenodd" stroke="#282828" stroke-width=".723"/>
    <ellipse cx="58.488" cy="250.4" rx=".487" ry="1.322" fill="#282828" stroke="#282828" stroke-width=".6"/>
    <path d="m48.894 268.7c0.415 0 0.657 0.782 0.868 1.234 0.435 0.934 0.516 2.063 0.265 2.36-0.253 0.299-1.343 0.211-1.938 0.186-0.529-0.022-0.643-0.856-0.67-1.316 0.026-1.209 0.879-2.463 1.475-2.464z" fill="#458588" fill-rule="evenodd" stroke="#282828" stroke-width=".723"/>
    <path d="m47.957 269.56c0.416 0 0.657 0.782 0.868 1.234 0.436 0.934 0.517 2.063 0.265 2.36-0.252 0.298-1.342 0.211-1.938 0.186-0.528-0.022-0.642-0.856-0.669-1.316 0.026-1.209 0.878-2.463 1.474-2.464z" fill="#458588" fill-rule="evenodd" stroke="#282828" stroke-width=".723"/>
    <path d="m46.122 270.08c0.416 0 0.657 0.781 0.868 1.234 0.435 0.934 0.517 2.063 0.265 2.36-0.253 0.298-1.342 0.21-1.938 0.186-0.529-0.022-0.643-0.857-0.67-1.317 0.026-1.208 0.879-2.463 1.475-2.463zm-7.272 0.999c0.523 0.104 1.323 1.2 1.279 3.814-0.01 0.627-1.879 1.027-2.056 0.41-0.307-1.07-0.221-4.424 0.777-4.224z" fill="#458588" fill-rule="evenodd" stroke="#282828" stroke-width=".723"/>
    <path d="m37.205 271.58c0.437-0.041 1.3 2.29 1.599 4.18 0.06 0.376-1.5 0.725-2.969 0.068-0.476-0.213 0.34-4.15 1.37-4.248z" fill="#458588" fill-rule="evenodd" stroke="#282828" stroke-width=".723"/>
    <path d="m35.182 272.86c0.414-0.036 1.993 1.584 1.987 3.334-2e-3 0.628-3.815 0.524-3.997-0.091-0.317-1.07 0.951-3.151 2.01-3.243zm-14.868-2.345c0.416 0 0.906 1.066 0.998 1.557 0.177 0.95 0.387 1.708 0.135 2.005-0.252 0.298-1.358 0.454-1.938 0.315-0.528-0.127-0.32-0.76-0.346-1.155 0.026-1.208 0.555-2.722 1.151-2.722z" fill="#458588" fill-rule="evenodd" stroke="#282828" stroke-width=".723"/>
    <path d="m18.915 270.49c0.416 0 0.749 1.06 0.804 1.557 0.08 0.724 0.213 2.307-0.059 2.586-0.478 0.492-1.422 0.099-2.002-0.04-0.529-0.127-0.32-1.084-0.346-1.478 0.025-1.209 1.007-2.625 1.603-2.626z" fill="#458588" fill-rule="evenodd" stroke="#282828" stroke-width=".723"/>
    <path d="m17.493 270.43c0.41-0.064 0.577 4.201 0.325 4.498-0.252 0.298-1.52-0.063-2.1-0.201-0.528-0.127-0.466-0.795-0.41-1.898 0.057-1.136 1.054-2.224 2.185-2.4z" fill="#458588" fill-rule="evenodd" stroke="#282828" stroke-width=".723"/>
    <path d="m43.495 266.79c1.281-0.242 2.517-0.515 3.29-1.096m-4.123 2.434c1.122 0 1.97-0.366 2.843-0.699" fill="none" stroke="#282828" stroke-width=".723"/>
    <path transform="matrix(.72348 0 0 .72348 7.334 246.18)" d="m43.227 31.823c-0.744-0.01-2.05-0.468-3.035-0.714-1.242-0.31-2.282-0.893-3.572-0.893-1.527 0-2.835-0.1-4.107 0.535l-2.857 1.429c-0.64 0.32-1 1.215-1.429 1.786-0.801 1.069 1.75 0.59 1.965 0.535l2.857-0.714c1.039-0.26 1.545-0.536 2.857-0.536h3.928c0.905 0 1.831 0.146 2.68 0.358 1.399 0.35 1.268-0.678 0.713-1.786z" fill-rule="evenodd" filter="url(#g)" opacity=".51"/>
    <path transform="matrix(.72348 0 0 .72348 7.334 246.18)" d="m19.12 28.073c1.041 0.26-1.719-1.306-2.678-1.786-1.134-0.567-2.014-1.128-3.215-1.428-1.319-0.33-2.994 0.19-3.571 0.535-1.388 0.833-1.202 1.25 0.536 1.25 1.424 0 2.445 0.454 3.75 0.715 1.621 0.324 1.516 0.266 2.5 1.25 0.455 0.455 2.014 1.479 2.142 1.607 0.521 0.52 0.157-1.512 0.536-2.143z" fill-rule="evenodd" filter="url(#h)" opacity=".534"/>
    <path d="m47.135 265.85c0.435 0.435 1.513 1.43 0 1.809-0.48 0.12-1.271 0.618-1.68 1.163-0.456 0.607-1.153 1.38-1.732 1.774-1.285 0.875-2.547 1.306-1.756 1.326 0.57 0.014-0.632-1.102-0.517-1.68 0.2-1.003-0.107-1.527 1.06-1.527 1.43-0.428 2.602-1.638 3.934-2.412 0.275-0.319 0.475-0.238 0.69-0.453z" fill-rule="evenodd" opacity=".438"/>
    <path d="m17.387 266.75c0.313 0.33 0.732 0.875 1.342 0.928 0.447 0.038 0.717 0.05 1.024-0.224m-2.718 0.352c0.018-0.02 0.61 0.544 1.055 0.767 0.345 0.172 0.783 0.16 1.247-0.064" fill="none" stroke="#282828" stroke-width=".362"/>
    <path d="m47.217 256.15c-0.817 0.041-1.393 0.643-2.012 1.515-0.554 0.782-1.634 3.114-2.012 5.449-0.454 2.809-2.126 4.895-3.437 4.454-2.19-0.739-6.023-1.662-8.75-0.317-1.665 0.822-3.367 0.55-4.43 0.113-2.533-0.98-6.088-5.169-10.74-4.115a1.85 1.85 0 0 0-1.017 0.588c1.504 0.31 4.636 1.119 6.353 3.03 0.807 0.899 6.48 3.302 7.823 2.735 1.38-0.582 4.308-2.153 8.727-0.497 1.202 0.45 2.6 0.567 4.047-0.113 0.842-0.396 2.323-3.36 2.532-4.522 0.393-2.185 1.884-6.158 2.51-7.506 0.23-0.496 0.531-0.686 0.813-0.769-0.016-2e-3 -0.028-0.019-0.045-0.021a1.982 1.982 0 0 0-0.362-0.022z" fill="#282828" fill-rule="evenodd" opacity=".87"/>
  </g>
</svg>
