<svg width="256" height="256" style="isolation:isolate" version="1.1" viewBox="0 0 256 256" xmlns="http://www.w3.org/2000/svg">
  <defs>
    <filter id="Pc1b9rq0JWlzkIo1y0M7oJkNpsVFbwVM" x="-.042124" y="-.045133" width="1.0842" height="1.1078" color-interpolation-filters="sRGB">
      <feGaussianBlur in="SourceGraphic" stdDeviation="4.294"/>
      <feOffset dx="0" dy="4" result="pf_100_offsetBlur"/>
      <feFlood flood-opacity=".4"/>
      <feComposite in2="pf_100_offsetBlur" operator="in" result="pf_100_dropShadow"/>
      <feBlend in="SourceGraphic" in2="pf_100_dropShadow"/>
    </filter>
  </defs>
  <g filter="url(#Pc1b9rq0JWlzkIo1y0M7oJkNpsVFbwVM)">
    <linearGradient id="_lgradient_71" x2="0" y2="1" gradientTransform="matrix(244.65 0 0 228.34 5.68 11.95)" gradientUnits="userSpaceOnUse">
      <stop stop-color="#504945" offset="0"/>
      <stop stop-color="#3c3836" offset="1"/>
    </linearGradient>
    <path d="m165.69 11.95c74.056 0 84.639 10.557 84.639 84.544v59.251c0 73.986-10.583 84.543-84.639 84.543h-75.37c-74.055 0-84.639-10.557-84.639-84.543v-59.251c0-73.987 10.584-84.544 84.639-84.544h75.37z" fill="url(#_lgradient_71)"/>
  </g>
  <g opacity=".4">
    <linearGradient id="_lgradient_72" x1=".517" x2=".517" y2="1" gradientTransform="matrix(244.65,0,0,228.34,5.68,11.95)" gradientUnits="userSpaceOnUse">
      <stop stop-color="#ebdbb2" offset="0"/>
      <stop stop-color="#ebdbb2" stop-opacity=".098" offset=".125"/>
      <stop stop-color="#282828" stop-opacity=".098" offset=".925"/>
      <stop stop-color="#282828" stop-opacity=".498" offset="1"/>
    </linearGradient>
    <path d="m165.07 11.951c4.328-0.01 8.656 0.04 12.984 0.138 3.875 0.078 7.751 0.226 11.626 0.452 3.453 0.196 6.905 0.481 10.348 0.854 3.059 0.335 6.118 0.786 9.148 1.346 2.715 0.502 5.4 1.14 8.046 1.916 2.4 0.698 4.751 1.562 7.023 2.584 2.115 0.943 4.141 2.063 6.059 3.35 1.84 1.238 3.561 2.653 5.135 4.215 1.564 1.572 2.98 3.282 4.219 5.119 1.289 1.916 2.41 3.94 3.364 6.042 1.023 2.28 1.889 4.618 2.597 7.005 0.777 2.643 1.417 5.325 1.918 8.037 0.561 3.026 1.013 6.072 1.348 9.127 0.374 3.439 0.659 6.878 0.856 10.326 0.226 3.861 0.373 7.732 0.462 11.593 0.088 4.323 0.138 8.646 0.128 12.959v58.212c0.01 4.323-0.04 8.636-0.128 12.959-0.089 3.871-0.236 7.732-0.462 11.593-0.197 3.448-0.482 6.897-0.856 10.326-0.335 3.055-0.787 6.111-1.348 9.137-0.501 2.702-1.141 5.384-1.918 8.027-0.708 2.387-1.574 4.735-2.597 7.005-0.954 2.112-2.075 4.126-3.364 6.042-1.239 1.837-2.655 3.557-4.219 5.119-1.574 1.562-3.295 2.977-5.135 4.215-1.918 1.287-3.944 2.407-6.059 3.35-2.272 1.022-4.623 1.886-7.023 2.594-2.646 0.776-5.331 1.414-8.046 1.906-3.03 0.569-6.089 1.011-9.148 1.346-3.443 0.373-6.895 0.658-10.348 0.854-3.875 0.226-7.751 0.374-11.626 0.462-4.328 0.088-8.656 0.138-12.984 0.128h-74.126c-4.328 0.01-8.656-0.04-12.984-0.128-3.875-0.088-7.751-0.236-11.626-0.462-3.453-0.196-6.905-0.481-10.348-0.854-3.059-0.335-6.118-0.777-9.148-1.346-2.715-0.492-5.4-1.13-8.046-1.906-2.4-0.708-4.751-1.572-7.023-2.594-2.115-0.943-4.141-2.063-6.059-3.35-1.84-1.238-3.561-2.653-5.135-4.215-1.564-1.562-2.98-3.282-4.219-5.119-1.289-1.916-2.41-3.93-3.364-6.042-1.023-2.27-1.889-4.618-2.597-7.005-0.777-2.643-1.417-5.325-1.918-8.027-0.561-3.026-1.013-6.082-1.348-9.137-0.374-3.429-0.659-6.878-0.856-10.326-0.226-3.861-0.373-7.722-0.462-11.593-0.088-4.323-0.138-8.636-0.128-12.959v-58.212c-0.01-4.313 0.04-8.636 0.128-12.959 0.089-3.861 0.236-7.732 0.462-11.593 0.197-3.448 0.482-6.887 0.856-10.326 0.335-3.055 0.787-6.101 1.348-9.127 0.501-2.712 1.141-5.394 1.918-8.037 0.708-2.387 1.574-4.725 2.597-7.005 0.954-2.102 2.075-4.126 3.364-6.042 1.239-1.837 2.655-3.547 4.219-5.119 1.574-1.562 3.295-2.977 5.135-4.215 1.918-1.287 3.944-2.407 6.059-3.35 2.272-1.022 4.623-1.886 7.023-2.584 2.646-0.776 5.331-1.414 8.046-1.916 3.03-0.56 6.089-1.011 9.148-1.346 3.443-0.373 6.895-0.658 10.348-0.854 3.875-0.226 7.751-0.374 11.626-0.452 4.328-0.098 8.656-0.148 12.984-0.138h74.126zm0.01 4.009c4.298-0.01 8.597 0.039 12.895 0.127 3.827 0.089 7.653 0.236 11.479 0.452 3.384 0.197 6.767 0.472 10.131 0.845 2.971 0.315 5.932 0.747 8.863 1.297 2.577 0.472 5.134 1.081 7.653 1.818 2.223 0.648 4.396 1.454 6.501 2.397 1.909 0.855 3.738 1.867 5.469 3.026 1.623 1.091 3.138 2.338 4.525 3.724 1.387 1.385 2.636 2.898 3.738 4.519 1.16 1.729 2.174 3.547 3.029 5.443 0.945 2.112 1.751 4.284 2.4 6.494 0.748 2.515 1.348 5.06 1.83 7.634 0.541 2.928 0.974 5.875 1.298 8.842 0.374 3.36 0.65 6.73 0.846 10.11 0.217 3.822 0.374 7.634 0.453 11.456 0.088 4.293 0.137 8.577 0.137 12.87v58.212c0 4.293-0.049 8.577-0.137 12.87-0.079 3.822-0.236 7.644-0.453 11.456-0.196 3.38-0.472 6.75-0.846 10.12-0.324 2.957-0.757 5.904-1.298 8.832-0.482 2.574-1.082 5.119-1.83 7.634-0.649 2.22-1.455 4.382-2.4 6.494-0.855 1.896-1.869 3.724-3.029 5.443-1.102 1.631-2.351 3.144-3.738 4.529-1.387 1.376-2.902 2.623-4.525 3.714-1.731 1.159-3.56 2.171-5.469 3.026-2.105 0.953-4.278 1.749-6.501 2.397-2.519 0.737-5.076 1.346-7.653 1.818-2.931 0.55-5.892 0.982-8.863 1.306-3.364 0.364-6.747 0.649-10.131 0.836-3.826 0.216-7.652 0.373-11.479 0.452-4.298 0.098-8.597 0.137-12.895 0.137h-0.01-74.126-0.01c-4.298 0-8.597-0.039-12.895-0.137-3.827-0.079-7.653-0.236-11.479-0.452-3.384-0.187-6.767-0.472-10.131-0.836-2.971-0.324-5.932-0.756-8.863-1.306-2.577-0.472-5.134-1.081-7.653-1.818-2.223-0.648-4.396-1.444-6.501-2.397-1.909-0.855-3.738-1.867-5.469-3.026-1.623-1.091-3.138-2.338-4.525-3.714-1.387-1.385-2.636-2.898-3.738-4.529-1.16-1.719-2.174-3.547-3.029-5.443-0.945-2.112-1.751-4.274-2.4-6.494-0.748-2.515-1.348-5.06-1.83-7.634-0.541-2.928-0.974-5.875-1.298-8.832-0.374-3.37-0.649-6.74-0.846-10.12-0.217-3.812-0.374-7.634-0.453-11.456-0.088-4.293-0.137-8.577-0.137-12.87v-58.212c0-4.293 0.049-8.577 0.137-12.87 0.079-3.822 0.236-7.634 0.453-11.456 0.197-3.38 0.472-6.75 0.846-10.11 0.324-2.967 0.757-5.914 1.298-8.842 0.482-2.574 1.082-5.119 1.83-7.634 0.649-2.21 1.455-4.382 2.4-6.494 0.855-1.896 1.869-3.714 3.029-5.443 1.102-1.621 2.351-3.134 3.738-4.519 1.387-1.386 2.902-2.633 4.525-3.724 1.731-1.159 3.56-2.171 5.469-3.026 2.105-0.943 4.278-1.749 6.501-2.397 2.519-0.737 5.076-1.346 7.653-1.818 2.931-0.55 5.892-0.982 8.863-1.297 3.364-0.373 6.747-0.648 10.131-0.845 3.826-0.216 7.652-0.363 11.479-0.452 4.298-0.088 8.597-0.137 12.895-0.127h0.01 74.126 0.01z" fill="url(#_lgradient_72)" fill-rule="evenodd"/>
  </g>
  <defs>
    <filter id="ux9i41acS96Nlcop25yvFZ2kHvSrXfL2" x="-.071073" y="-.071073" width="1.1421" height="1.1421" color-interpolation-filters="sRGB">
      <feGaussianBlur stdDeviation="4.294"/>
    </filter>
  </defs>
  <g filter="url(#ux9i41acS96Nlcop25yvFZ2kHvSrXfL2)" opacity=".4">
    <path d="m128 56.795c-40.165 0-72.5 32.335-72.5 72.5s32.335 72.5 72.5 72.5 72.5-32.335 72.5-72.5-32.335-72.5-72.5-72.5zm0 41.428c17.16 0 31.071 13.911 31.071 31.072 0 17.16-13.911 31.071-31.071 31.071s-31.071-13.911-31.071-31.071c0-17.161 13.911-31.072 31.071-31.072z"/>
  </g>
  <path d="m128 87.866c-21.45 0-38.839 17.389-38.839 38.839 0 21.451 17.389 38.84 38.839 38.84s38.839-17.389 38.839-38.84c0-21.45-17.389-38.839-38.839-38.839zm0 23.304c8.58 0 15.536 6.955 15.536 15.535 0 8.581-6.956 15.536-15.536 15.536s-15.536-6.955-15.536-15.536c0-8.58 6.956-15.535 15.536-15.535z" fill="#7c6f64"/>
  <path d="m128 54.205c-40.165 0-72.5 32.335-72.5 72.5s32.335 72.5 72.5 72.5 72.5-32.335 72.5-72.5-32.335-72.5-72.5-72.5zm0 41.429c17.16 0 31.071 13.911 31.071 31.071 0 17.161-13.911 31.072-31.071 31.072s-31.071-13.911-31.071-31.072c0-17.16 13.911-31.071 31.071-31.071z" fill="#ebdbb2"/>
  <g opacity=".2">
    <path d="m96.994 128c-0.031 0.431-0.053 0.863-0.065 1.295 0 17.16 13.911 31.071 31.071 31.071s31.071-13.911 31.071-31.071c-0.012-0.35-0.031-0.699-0.055-1.047-0.822 16.533-14.462 29.52-31.016 29.529-16.642-0.021-30.312-13.15-31.006-29.777zm31.006-73.795c-40.165 0-72.5 32.335-72.5 72.5 0 0.294 0.029 0.581 0.046 0.87 0.91-39.361 32.866-70.78 72.454-70.78s71.544 31.419 72.454 70.78c0.017-0.289 0.046-0.576 0.046-0.87 0-40.165-32.335-72.5-72.5-72.5z" fill="#ebdbb2"/>
  </g>
  <defs>
    <filter id="6K09HFlR4dWV3in7Y1yiTGRBV7nvnxF9" x="-.084026" y="-.090172" width="1.1681" height="1.1803" color-interpolation-filters="sRGB">
      <feGaussianBlur stdDeviation="4.294"/>
    </filter>
  </defs>
  <g filter="url(#6K09HFlR4dWV3in7Y1yiTGRBV7nvnxF9)" opacity=".4">
    <path d="m126.32 240.29-0.32-28.794c0-73.987 10.584-85.494 84.639-85.494h38.009"/>
  </g>
  <linearGradient id="_lgradient_73" x2="0" y2="1" gradientTransform="matrix(121.98 0 0 114.14 128.7 126.45)" gradientUnits="userSpaceOnUse">
    <stop stop-color="#fabd2f" offset="0"/>
    <stop stop-color="#b57614" offset="1"/>
  </linearGradient>
  <path d="m146.98 240.53-17.746-0.138-0.36-8.106c-0.448-10.088 0.023-42.429 0.732-50.237 1.285-14.148 3.44-23.312 7.313-31.086 7.396-14.848 20.832-21.186 49.599-23.396 3.463-0.266 19.316-0.628 35.231-0.804l28.935-0.32-7e-3 24.171c-0.01 32.191-0.766 42.965-3.877 55.283-3.855 15.266-11.505 24.176-24.854 28.947-13.401 4.789-29.851 6.037-74.965 5.686h-1e-3z" fill="url(#_lgradient_73)"/>
  <path d="m189.54 218.52-26.1-35h17.5v-35h17.5v35h17.5l-26.4 35z" fill="#ebdbb2"/>
</svg>
