<svg width="256" height="256" style="isolation:isolate" version="1.1" viewBox="0 0 256 256" xmlns="http://www.w3.org/2000/svg">
  <defs>
    <filter id="E8fcRnt0IE4oD40UGPq26a7MACinHTLJ" x="-.042124" y="-.045133" width="1.0842" height="1.1078" color-interpolation-filters="sRGB">
      <feGaussianBlur in="SourceGraphic" stdDeviation="4.294"/>
      <feOffset dx="0" dy="4" result="pf_100_offsetBlur"/>
      <feFlood flood-opacity=".4"/>
      <feComposite in2="pf_100_offsetBlur" operator="in" result="pf_100_dropShadow"/>
      <feBlend in="SourceGraphic" in2="pf_100_dropShadow"/>
    </filter>
  </defs>
  <g filter="url(#E8fcRnt0IE4oD40UGPq26a7MACinHTLJ)">
    <linearGradient id="_lgradient_280" x2="0" y2="1" gradientTransform="matrix(244.65 0 0 228.34 5.68 11.95)" gradientUnits="userSpaceOnUse">
      <stop stop-color="#fabd2f" offset="0"/>
      <stop stop-color="#b57614" offset="1"/>
    </linearGradient>
    <path d="m165.69 11.95c74.056 0 84.639 10.557 84.639 84.544v59.251c0 73.986-10.584 84.544-84.639 84.544h-75.37c-74.056 0-84.639-10.557-84.639-84.544v-59.251c0-73.987 10.584-84.544 84.639-84.544h75.37z" fill="url(#_lgradient_280)"/>
  </g>
  <path d="m55.149 212.4c4.9316-10.125 11.47-26.184 15.388-36.823 1.6792-4.5589 6.5349-8.9586 10.836-9.8189l18.033-7.6412c-3.0078-3.266-0.63681-8.2611 7.091-15.007l-3.0259-6.1435c-4.4304-0.75936-7.1252-2.3751-8.0871-4.8499-0.96187-2.4748-0.19083-5.8087 2.3104-10.005-1.0392-1.192-1.3375-2.5601-0.91694-4.1262l-5.5933-23.565-0.091694-3.3927 0.27508-4.6764-0.64186-2.5674 1.8339-1.5588 1.0086-1.5588 1.1003-1.192-1.2837-3.1176-0.64186-2.109 0.091693-3.301 1.6505-4.1262q4.4448-6.024 7.794-8.2524c3.3492-2.2284 3.3354-1.8381 5.2265-2.6591 1.8912-0.82104 7.8822-2.6031 12.287-3.4844q4.4048-0.88125 5.5933-0.91694l2.5674-0.18339 1.8339 0.45847 5.9601 1.5588 5.685 2.7508 4.0345 4.3096 2.2923 4.6764 1.0086 5.5016 0.73355 2.7508 1.9256 0.91694 1.7422 3.301 1.2837 0.45847-0.18339 3.6678 1.6505 4.9515 1.192 2.6591 2.2923 4.3096v1.7422l1.4671 3.0259-0.18339 2.9342-1.1003 4.0345 3.2093 1.3754-0.73355 1.2837q4.9501 4.9605 3.9428 9.0777c-1.3535 5.5323-6.9687 9.8112-7.6106 11.92q-1.4305 4.7001-5.8684 1.9256l1.9256 8.8026 3.8511 3.301 13.937 3.7594 7.5189 0.82524 4.3096 0.82524 7.9774 0.82524q1.3776-0.80066 2.2007-0.55016 0.82305 0.25049 2.109 0.64186l5.8684 3.3927q6.2869 6.6061 8.2524 11.095c1.9655 4.4889 1.6325 12.338 1.8339 19.072s1.3226 16.373-1.3754 24.757q-2.698 8.3845-3.6678 8.5275l-7.7068 19.869c-5.0294 0.20254-10.479 0.77898-15.438 0.9375-39.706 1.2694-78.081 1.5231-113.12-0.25-9.2231-0.46666-16.625-1-25.995-2.515l1.8921-4.3789 5.1349-9.2611 3.1176-8.2066" fill="#3c3836"/>
  <linearGradient id="_lgradient_281" x1=".5" x2=".5" y1="1" gradientTransform="matrix(244.65 0 0 228.34 5.68 11.95)" gradientUnits="userSpaceOnUse">
    <stop stop-color="#427b58" offset="0"/>
    <stop stop-color="#689d6a" offset="1"/>
  </linearGradient>
  <path d="m165.69 11.95c74.056 0 84.639 10.557 84.639 84.544v59.251c0 73.986-10.584 84.544-84.639 84.544h-75.37c-74.056 0-84.639-10.557-84.639-84.544v-59.251c0-73.987 10.584-84.544 84.639-84.544h75.37zm0.011081 12c4.3 0 8.59 0.04 12.88 0.13 3.78 0.08 7.56 0.23 11.33 0.45 3.27 0.18 6.53 0.45 9.79 0.81 2.77 0.3 5.53 0.71 8.28 1.22 2.28 0.42 4.55 0.96 6.78 1.61 1.82 0.54 3.61 1.19 5.34 1.97 1.42 0.64 2.78 1.39 4.07 2.26 1.12 0.75 2.17 1.61 3.13 2.57 0.95 0.95 1.81 2 2.57 3.12 0.87 1.29 1.62 2.65 2.26 4.06 0.78 1.73 1.44 3.51 1.97 5.34 0.66 2.22 1.2 4.48 1.62 6.77 0.51 2.74 0.91 5.49 1.21 8.26 0.36 3.25 0.63 6.52 0.82 9.78 0.21 3.77 0.36 7.54 0.44 11.31 0.1 4.29 0.14 8.58 0.14 12.87v0.01 59.25 0.02c0 4.29-0.04 8.58-0.14 12.87-0.08 3.77-0.23 7.54-0.44 11.31-0.19 3.26-0.46 6.52-0.82 9.78-0.3 2.77-0.7 5.52-1.21 8.26-0.42 2.29-0.96 4.55-1.62 6.77-0.53 1.82-1.19 3.61-1.97 5.34-0.64 1.41-1.39 2.77-2.26 4.06-0.76 1.12-1.62 2.16-2.57 3.12-0.96 0.95-2.01 1.81-3.13 2.57-1.29 0.87-2.65 1.62-4.07 2.26-1.73 0.77-3.52 1.43-5.34 1.97-2.23 0.65-4.5 1.19-6.78 1.61-2.75 0.51-5.51 0.92-8.28 1.22-3.26 0.35-6.52 0.62-9.79 0.81-3.77 0.22-7.55 0.36-11.33 0.44-4.29 0.1-8.58 0.14-12.88 0.14h-0.01-75.37-0.01c-4.3 0-8.59-0.04-12.89-0.14-3.77-0.08-7.55-0.22-11.32-0.44-3.27-0.19-6.53-0.46-9.79-0.81-2.77-0.3-5.53-0.71-8.28-1.22-2.28-0.42-4.55-0.96-6.78-1.61-1.82-0.54-3.61-1.2-5.34-1.97-1.42-0.64-2.78-1.39-4.08-2.26-1.12-0.76-2.16-1.62-3.12-2.57-0.96-0.96-1.82-2-2.57-3.12-0.87-1.29-1.62-2.65-2.26-4.06-0.78-1.73-1.44-3.52-1.97-5.34-0.66-2.22-1.2-4.48-1.62-6.77-0.51-2.74-0.91-5.49-1.22-8.26-0.35-3.26-0.62-6.52-0.81-9.78-0.22-3.77-0.36-7.54-0.45-11.31-0.09-4.29-0.13-8.58-0.13-12.87v-0.02-59.25-0.01c0-4.29 0.04-8.58 0.13-12.87 0.09-3.77 0.23-7.54 0.45-11.31 0.19-3.26 0.46-6.53 0.81-9.78 0.31-2.77 0.71-5.52 1.22-8.26 0.42-2.29 0.96-4.55 1.62-6.77 0.53-1.83 1.19-3.61 1.97-5.34 0.64-1.41 1.39-2.77 2.26-4.06 0.75-1.12 1.61-2.17 2.57-3.12 0.96-0.96 2-1.82 3.12-2.57 1.3-0.87 2.66-1.62 4.08-2.26 1.73-0.78 3.52-1.43 5.34-1.97 2.23-0.65 4.5-1.19 6.78-1.61 2.75-0.51 5.51-0.92 8.28-1.22 3.26-0.36 6.52-0.63 9.79-0.81 3.77-0.22 7.55-0.37 11.32-0.45 4.3-0.09 8.59-0.13 12.89-0.13h0.01 75.37 0.01z" fill="url(#_lgradient_281)" fill-rule="evenodd"/>
  <g opacity=".4">
    <linearGradient id="_lgradient_282" x1=".517" x2=".517" y2="1" gradientTransform="matrix(244.65,0,0,228.34,5.68,11.95)" gradientUnits="userSpaceOnUse">
      <stop stop-color="#ebdbb2" offset="0"/>
      <stop stop-color="#ebdbb2" stop-opacity=".098" offset=".125"/>
      <stop stop-color="#282828" stop-opacity=".098" offset=".925"/>
      <stop stop-color="#282828" stop-opacity=".498" offset="1"/>
    </linearGradient>
    <path d="m165.07 11.951c4.328-0.009825 8.6559 0.039299 12.984 0.13755 3.8755 0.078598 7.751 0.22597 11.626 0.45194 3.4525 0.1965 6.9051 0.48141 10.348 0.85476 3.0591 0.33404 6.1182 0.78598 9.1477 1.346 2.7148 0.50106 5.4001 1.1397 8.0461 1.9158 2.4 0.69756 4.7509 1.5621 7.0231 2.5839 2.1148 0.94318 4.1411 2.0632 6.0591 3.3502 1.8394 1.2379 3.5607 2.6527 5.1345 4.2148 1.564 1.572 2.9804 3.2815 4.2198 5.1187 1.2886 1.9158 2.4099 3.9397 3.364 6.0422 1.023 2.2793 1.8886 4.6176 2.5968 7.0051 0.77706 2.6429 1.4164 5.325 1.9181 8.0367 0.56066 3.026 1.0131 6.0717 1.3476 9.1272 0.37378 3.4387 0.65903 6.8773 0.85575 10.326 0.22624 3.8611 0.37378 7.7321 0.46231 11.593 0.088537 4.3229 0.13771 8.6458 0.12788 12.959v58.212c0.009831 4.3229-0.039339 8.636-0.12788 12.959-0.088523 3.871-0.23606 7.7321-0.46231 11.593-0.19672 3.4485-0.48197 6.897-0.85575 10.326-0.33443 3.0555-0.7869 6.111-1.3476 9.137-0.50166 2.7018-1.141 5.384-1.9181 8.0269-0.70821 2.3874-1.5738 4.7355-2.5968 7.0051-0.9541 2.1123-2.0754 4.1264-3.364 6.0422-1.2394 1.8372-2.6558 3.5566-4.2198 5.1187-1.5738 1.5621-3.2952 2.9769-5.1345 4.2148-1.9181 1.287-3.9443 2.4071-6.0591 3.3502-2.2722 1.0218-4.623 1.8864-7.0231 2.5937-2.646 0.77616-5.3313 1.4148-8.0461 1.906-3.0296 0.56984-6.0886 1.012-9.1477 1.346-3.4427 0.37333-6.8952 0.65826-10.348 0.85475-3.8755 0.22597-7.751 0.37335-11.626 0.46177-4.328 0.088419-8.6559 0.13755-12.984 0.12773h-74.126c-4.328 0.009819-8.6559-0.039308-12.984-0.12773-3.8755-0.08842-7.751-0.2358-11.626-0.46177-3.4525-0.19649-6.9051-0.48142-10.348-0.85475-3.0591-0.33405-6.1182-0.77616-9.1477-1.346-2.7148-0.49124-5.4001-1.1298-8.0461-1.906-2.4-0.70737-4.7509-1.572-7.0231-2.5937-2.1148-0.94317-4.1411-2.0632-6.0591-3.3502-1.8394-1.2379-3.5607-2.6527-5.1345-4.2148-1.564-1.5621-2.9804-3.2815-4.2198-5.1187-1.2886-1.9158-2.4099-3.9299-3.364-6.0422-1.023-2.2695-1.8886-4.6176-2.5968-7.0051-0.77706-2.6429-1.4164-5.325-1.9181-8.0269-0.56067-3.026-1.0131-6.0815-1.3476-9.137-0.37378-3.4289-0.65903-6.8773-0.85576-10.326-0.22623-3.8611-0.37378-7.7223-0.4623-11.593-0.088526-4.3229-0.13771-8.636-0.12787-12.959v-58.212c-0.009836-4.3131 0.039345-8.636 0.12787-12.959 0.088527-3.8611 0.23607-7.7321 0.4623-11.593 0.19672-3.4485 0.48198-6.8872 0.85576-10.326 0.33443-3.0555 0.7869-6.1012 1.3476-9.1272 0.50165-2.7116 1.141-5.3938 1.9181-8.0367 0.70821-2.3874 1.5738-4.7257 2.5968-7.0051 0.95412-2.1025 2.0755-4.1264 3.364-6.0422 1.2394-1.8372 2.6558-3.5467 4.2198-5.1187 1.5738-1.5621 3.2951-2.9769 5.1345-4.2148 1.9181-1.287 3.9443-2.4071 6.0591-3.3502 2.2722-1.0218 4.623-1.8864 7.0231-2.5839 2.646-0.77616 5.3313-1.4148 8.0461-1.9158 3.0296-0.56001 6.0886-1.012 9.1477-1.346 3.4427-0.37334 6.8952-0.65826 10.348-0.85476 3.8755-0.22597 7.751-0.37334 11.626-0.45194 4.3279-0.098248 8.6559-0.14737 12.984-0.13755h74.126zm0.009846 4.0085c4.2984-0.009825 8.5969 0.039299 12.895 0.12772 3.8263 0.088423 7.6526 0.23579 11.479 0.45194 3.3837 0.1965 6.7674 0.47159 10.131 0.84493 2.9705 0.31439 5.9313 0.74668 8.8625 1.2969 2.5771 0.47159 5.1345 1.0807 7.6526 1.8176 2.223 0.64844 4.3968 1.4541 6.5018 2.3972 1.9082 0.85476 3.7378 1.8667 5.469 3.026 1.623 1.0906 3.1378 2.3383 4.5247 3.7236s2.6361 2.8983 3.7378 4.5194c1.1607 1.7292 2.1738 3.5467 3.0296 5.4429 0.94427 2.1123 1.7509 4.2836 2.4 6.4942 0.74756 2.5151 1.3476 5.0598 1.8295 7.6338 0.541 2.9278 0.9738 5.8752 1.2984 8.8423 0.37378 3.3601 0.6492 6.73 0.84592 10.11 0.2164 3.8218 0.37378 7.6338 0.45246 11.456 0.088538 4.2934 0.13771 8.577 0.13771 12.87v58.212c0 4.2934-0.049169 8.577-0.13771 12.87-0.078677 3.8218-0.23606 7.6437-0.45246 11.456-0.19672 3.3797-0.47214 6.7496-0.84592 10.12-0.3246 2.9573-0.7574 5.9047-1.2984 8.8325-0.48197 2.5741-1.082 5.1187-1.8295 7.6339-0.64918 2.2204-1.4558 4.3819-2.4 6.4942-0.85576 1.8962-1.8689 3.7236-3.0296 5.4429-1.1017 1.6309-2.3509 3.1439-3.7378 4.5292-1.3869 1.3755-2.9017 2.6232-4.5247 3.7138-1.7312 1.1593-3.5607 2.1713-5.469 3.026-2.105 0.953-4.2788 1.7488-6.5018 2.3972-2.5181 0.73686-5.0755 1.346-7.6526 1.8176-2.9312 0.55018-5.8919 0.98248-8.8625 1.3067-3.364 0.36351-6.7477 0.64844-10.131 0.8351-3.8263 0.21615-7.6526 0.37335-11.479 0.45195-4.2985 0.098254-8.5969 0.13755-12.895 0.13755h-0.009846-74.126-0.009838c-4.2984 0-8.5969-0.039292-12.895-0.13755-3.8263-0.0786-7.6526-0.2358-11.479-0.45195-3.3837-0.18666-6.7673-0.47158-10.131-0.8351-2.9706-0.32422-5.9313-0.75651-8.8625-1.3067-2.5771-0.47158-5.1345-1.0807-7.6526-1.8176-2.223-0.64842-4.3968-1.4442-6.5018-2.3972-1.9082-0.85475-3.7378-1.8667-5.469-3.026-1.623-1.0906-3.1378-2.3383-4.5247-3.7138-1.3869-1.3853-2.6361-2.8983-3.7378-4.5292-1.1607-1.7193-2.1738-3.5467-3.0296-5.4429-0.94428-2.1123-1.7509-4.2738-2.4-6.4942-0.74756-2.5151-1.3476-5.0598-1.8295-7.6339-0.541-2.9278-0.97379-5.8752-1.2984-8.8325-0.37378-3.3699-0.64919-6.7398-0.84592-10.12-0.2164-3.812-0.37378-7.6339-0.45247-11.456-0.088526-4.2934-0.13771-8.577-0.13771-12.87v-58.212c0-4.2934 0.049181-8.577 0.13771-12.87 0.07869-3.8218 0.23607-7.6338 0.45247-11.456 0.19672-3.3797 0.47214-6.7496 0.84592-10.11 0.3246-2.9671 0.75739-5.9145 1.2984-8.8423 0.48198-2.5741 1.082-5.1187 1.8295-7.6338 0.64919-2.2106 1.4558-4.3818 2.4-6.4942 0.85575-1.8962 1.8689-3.7138 3.0296-5.4429 1.1017-1.6211 2.3509-3.1341 3.7378-4.5194s2.9017-2.633 4.5247-3.7236c1.7312-1.1593 3.5607-2.1713 5.469-3.026 2.105-0.94318 4.2788-1.7488 6.5018-2.3972 2.5181-0.73686 5.0755-1.346 7.6526-1.8176 2.9312-0.55019 5.8919-0.98248 8.8625-1.2969 3.364-0.37334 6.7477-0.64843 10.131-0.84493 3.8263-0.21614 7.6526-0.36352 11.479-0.45194 4.2984-0.088423 8.5969-0.13755 12.895-0.12772h0.009838 74.126 0.009846z" fill="url(#_lgradient_282)" fill-rule="evenodd"/>
  </g>
</svg>
