<svg width="256" height="256" style="isolation:isolate" version="1.1" xmlns="http://www.w3.org/2000/svg">
  <g transform="translate(.007136 -.1198)" filter="url(#a)">
    <linearGradient id="b" x1=".5002" x2=".5002" y2="1" gradientTransform="matrix(244,0,0,228,5.981,12.12)" gradientUnits="userSpaceOnUse">
      <stop stop-color="#8ec07c" offset="0"/>
      <stop stop-color="#689d6a" offset="1"/>
    </linearGradient>
    <path d="m165 12.12c72 0 85 15 85 87v56c0 70-13 85-85 85h-74c-72 0-85-15-85-85v-56c0-72 13-87 85-87z" fill="url(#b)"/>
  </g>
  <defs>
    <linearGradient id="linearGradient31" x1=".5002" x2=".5002" y2="1" gradientTransform="matrix(244,0,0,228,5.988,12.12)" gradientUnits="userSpaceOnUse">
      <stop stop-color="#d5c4a1" offset="0"/>
      <stop stop-color="#d5c4a1" stop-opacity=".09804" offset=".1"/>
      <stop stop-color="#282828" stop-opacity=".1" offset=".9"/>
      <stop stop-color="#282828" stop-opacity=".4" offset="1"/>
    </linearGradient>
  </defs>
  <path d="m250 131.4c-10.51 0.3928-16.97-8.875-16.97-8.875-2.142-2.808-5.056-7.628-6.494-10.69l-35.66-76.43c-1.305-2.841-4.815-4.701-7.807-4.166l-32.63 6.086c-3.141 0.6015-4.676 3.485-3.383 6.422l32.2 72.87c1.699 3.845 2.678 7.963 2.053 11.24-0.605 10.2-9.517 24.54-28.6 28.9-28.3 6.479-46.86-20.04-46.86-20.04-2.383-2.987-3.13-4.533-6.789-11.54l-26.88-67.16c-1.252-3.124-5.2-5.147-8.764-4.496l-39.13 7.297c-3.779 0.7093-5.922 3.957-4.699 7.242l55.65 149.7c2.792 7.492 6.171 15.11 9.543 22.13 2.075 0.0287 4.035 0.0898 6.217 0.0898h51.2c-7.335-14.91-14.55-31.94-14.55-31.94-1.508-3.609-3.94-9.556-5.391-13.18l-3.623-9.092c10.98 6.16 26.37 6.059 40.67 1.725 26.11-7.894 37.54-25.3 39.57-37.83 0.6258-0.1742 3.979 3.141 7.107 5.141 3.129 2.02 18.64 13.7 40.75 7.176 1.265-0.3805 2.204-0.7285 3.195-1.082 0.024-1.977 0.0781-3.845 0.0781-5.918z" fill="#ebdbb2" style="isolation:isolate"/>
  <g transform="translate(.007189 -.1198)" opacity=".5">
    <path d="m91 12.12c-72 0-85 15-85 87v56c0 70 13 85 85 85h74c72 0 85-15 85-85v-56c0-72-13-87-85-87zm0 4h74c68 0 80 15 80 83v56c0 66-12 81-80 81h-74c-68 0-80-15-80-81v-56c0-68 12-83 80-83z" fill="url(#linearGradient31)" opacity="1"/>
  </g>
</svg>
