<svg width="256" height="256" fill="none" version="1.1" viewBox="0 0 256 256" xmlns="http://www.w3.org/2000/svg">
  <g clip-path="url(#clip0)">
    <g filter="url(#filter0_d)">
      <path d="m250.32 96.491c0-73.987-10.584-84.544-84.639-84.544h-75.37c-74.056 0-84.639 10.557-84.639 84.544v59.251c0 73.986 10.584 84.543 84.639 84.543h75.37c74.055 0 84.639-10.557 84.639-84.543v-59.251z" fill="url(#paint0_linear)"/>
    </g>
    <path d="m165.07 11.951c4.328-0.0098 8.656 0.0393 12.984 0.1376 3.875 0.0786 7.751 0.226 11.626 0.4519 3.453 0.1965 6.905 0.4814 10.348 0.8548 3.059 0.334 6.118 0.786 9.148 1.346 2.715 0.501 5.4 1.1397 8.046 1.9158 2.4 0.6976 4.751 1.5622 7.023 2.5839 2.115 0.9432 4.141 2.0632 6.059 3.3503 1.839 1.2379 3.561 2.6527 5.135 4.2148 1.564 1.572 2.98 3.2815 4.219 5.1187 1.289 1.9158 2.41 3.9397 3.364 6.0422 1.023 2.2794 1.889 4.6177 2.597 7.0051 0.777 2.6429 1.417 5.325 1.918 8.0367 0.561 3.026 1.013 6.0717 1.348 9.1272 0.374 3.4386 0.659 6.8773 0.856 10.326 0.226 3.8612 0.373 7.7321 0.462 11.593 0.088 4.3228 0.138 8.6457 0.128 12.959v58.212c0.01 4.323-0.04 8.636-0.128 12.959-0.089 3.871-0.236 7.732-0.462 11.593-0.197 3.449-0.482 6.897-0.856 10.326-0.335 3.055-0.787 6.111-1.348 9.137-0.501 2.702-1.141 5.384-1.918 8.027-0.708 2.387-1.574 4.735-2.597 7.005-0.954 2.112-2.075 4.126-3.364 6.042-1.239 1.837-2.655 3.557-4.219 5.119-1.574 1.562-3.296 2.977-5.135 4.215-1.918 1.287-3.944 2.407-6.059 3.35-2.272 1.022-4.623 1.886-7.023 2.594-2.646 0.776-5.331 1.414-8.046 1.906-3.03 0.569-6.089 1.011-9.148 1.346-3.443 0.373-6.895 0.658-10.348 0.854-3.875 0.226-7.751 0.374-11.626 0.462-4.328 0.088-8.656 0.138-12.984 0.128h-74.126c-4.328 0.01-8.656-0.04-12.984-0.128-3.8755-0.088-7.751-0.236-11.626-0.462-3.4525-0.196-6.905-0.481-10.348-0.854-3.0591-0.335-6.1182-0.777-9.1477-1.346-2.7149-0.492-5.4001-1.13-8.0461-1.906-2.4001-0.708-4.7509-1.572-7.0231-2.594-2.1148-0.943-4.1411-2.063-6.0591-3.35-1.8394-1.238-3.5608-2.653-5.1346-4.215-1.5639-1.562-2.9804-3.282-4.2197-5.119-1.2886-1.916-2.4099-3.93-3.364-6.042-1.023-2.27-1.8886-4.618-2.5968-7.005-0.77706-2.643-1.4164-5.325-1.9181-8.027-0.56067-3.026-1.0131-6.082-1.3476-9.137-0.37377-3.429-0.65903-6.877-0.85575-10.326-0.22623-3.861-0.37378-7.722-0.46231-11.593-0.08852-4.323-0.1377-8.636-0.12787-12.959v-58.212c-0.00983-4.3131 0.03935-8.636 0.12787-12.959 0.08853-3.8612 0.23608-7.7321 0.46231-11.593 0.19672-3.4485 0.48198-6.8872 0.85575-10.326 0.33444-3.0555 0.7869-6.1012 1.3476-9.1272 0.50165-2.7117 1.141-5.3938 1.9181-8.0367 0.7082-2.3874 1.5738-4.7257 2.5968-7.0051 0.9541-2.1025 2.0754-4.1264 3.364-6.0422 1.2393-1.8372 2.6558-3.5467 4.2197-5.1187 1.5738-1.5621 3.2952-2.9769 5.1346-4.2148 1.918-1.2871 3.9443-2.4071 6.0591-3.3503 2.2722-1.0217 4.623-1.8863 7.0231-2.5839 2.646-0.7761 5.3312-1.4148 8.0461-1.9158 3.0295-0.56 6.0886-1.012 9.1477-1.346 3.4427-0.3734 6.8952-0.6583 10.348-0.8548 3.8755-0.2259 7.751-0.3733 11.626-0.4519 4.3279-0.0983 8.6559-0.1474 12.984-0.1376h74.126zm0.01 4.0086c4.298-0.0099 8.597 0.0393 12.895 0.1277 3.827 0.0884 7.653 0.2358 11.479 0.4519 3.384 0.1965 6.767 0.4716 10.131 0.8449 2.971 0.3144 5.932 0.7467 8.863 1.2969 2.577 0.4716 5.134 1.0807 7.653 1.8176 2.223 0.6484 4.396 1.4541 6.501 2.3972 1.909 0.8548 3.738 1.8667 5.469 3.0261 1.623 1.0905 3.138 2.3383 4.525 3.7236s2.636 2.8983 3.738 4.5194c1.16 1.7291 2.174 3.5467 3.029 5.4429 0.945 2.1123 1.751 4.2836 2.4 6.4941 0.748 2.5152 1.348 5.0598 1.83 7.6339 0.541 2.9278 0.974 5.8752 1.298 8.8423 0.374 3.3601 0.65 6.73 0.846 10.11 0.217 3.8218 0.374 7.6338 0.453 11.456 0.088 4.2934 0.137 8.577 0.137 12.87v58.212c0 4.293-0.049 8.577-0.137 12.87-0.079 3.822-0.236 7.644-0.453 11.456-0.196 3.38-0.472 6.75-0.846 10.12-0.324 2.957-0.757 5.904-1.298 8.832-0.482 2.574-1.082 5.119-1.83 7.634-0.649 2.22-1.455 4.382-2.4 6.494-0.855 1.896-1.869 3.724-3.029 5.443-1.102 1.631-2.351 3.144-3.738 4.529-1.387 1.376-2.902 2.623-4.525 3.714-1.731 1.159-3.56 2.171-5.469 3.026-2.105 0.953-4.278 1.749-6.501 2.397-2.519 0.737-5.076 1.346-7.653 1.818-2.931 0.55-5.892 0.982-8.863 1.306-3.364 0.364-6.747 0.649-10.131 0.836-3.826 0.216-7.652 0.373-11.479 0.452-4.298 0.098-8.597 0.137-12.895 0.137h-0.01-74.126-0.0099c-4.2984 0-8.5969-0.039-12.895-0.137-3.8263-0.079-7.6526-0.236-11.479-0.452-3.3837-0.187-6.7674-0.472-10.131-0.836-2.9705-0.324-5.9313-0.756-8.8625-1.306-2.5771-0.472-5.1345-1.081-7.6526-1.818-2.223-0.648-4.3968-1.444-6.5017-2.397-1.9083-0.855-3.7378-1.867-5.469-3.026-1.623-1.091-3.1378-2.338-4.5247-3.714-1.3869-1.385-2.6361-2.898-3.7378-4.529-1.1606-1.719-2.1738-3.547-3.0295-5.443-0.9443-2.112-1.7509-4.274-2.4001-6.494-0.7475-2.515-1.3476-5.06-1.8295-7.634-0.541-2.928-0.9738-5.875-1.2984-8.832-0.3738-3.37-0.6492-6.74-0.8459-10.12-0.2164-3.812-0.37381-7.634-0.4525-11.456-0.08853-4.293-0.13771-8.577-0.13771-12.87v-58.212c0-4.2934 0.04918-8.577 0.13771-12.87 0.07869-3.8219 0.2361-7.6339 0.4525-11.456 0.1967-3.3797 0.4721-6.7496 0.8459-10.11 0.3246-2.9671 0.7574-5.9145 1.2984-8.8423 0.4819-2.5741 1.082-5.1187 1.8295-7.6339 0.6492-2.2105 1.4558-4.3818 2.4001-6.4941 0.8557-1.8962 1.8689-3.7138 3.0295-5.4429 1.1017-1.6211 2.3509-3.1341 3.7378-4.5194s2.9017-2.6331 4.5247-3.7236c1.7312-1.1594 3.5607-2.1713 5.469-3.0261 2.1049-0.9431 4.2787-1.7488 6.5017-2.3972 2.5181-0.7369 5.0755-1.346 7.6526-1.8176 2.9312-0.5502 5.892-0.9825 8.8625-1.2969 3.364-0.3733 6.7477-0.6484 10.131-0.8449 3.8263-0.2161 7.6526-0.3635 11.479-0.4519 4.2984-0.0884 8.5969-0.1376 12.895-0.1277h0.0099 74.126 0.01z" clip-rule="evenodd" fill="url(#paint1_linear)" fill-rule="evenodd" opacity=".4"/>
    <path d="m128.08 48.008c-2.837-0.0666-5.638 0.6444-8.096 2.0553l-56.255 32.307c-2.3511 1.3504-4.3035 3.2925-5.661 5.6312s-2.0722 4.9915-2.0724 7.692v64.614c2e-4 2.701 0.7149 5.354 2.0724 7.692 1.3575 2.339 3.3099 4.281 5.661 5.632l56.255 32.307c2.351 1.35 5.019 2.061 7.734 2.061 2.714 0 5.382-0.711 7.733-2.061l56.261-32.307c2.351-1.351 4.303-3.293 5.661-5.632 1.357-2.338 2.072-4.991 2.072-7.692v-64.614c0-2.7005-0.715-5.3533-2.072-7.692-1.358-2.3387-3.31-4.2808-5.661-5.6312l-56.261-32.307c-2.245-1.2886-4.78-1.9953-7.371-2.0553z" fill="url(#paint2_linear)"/>
    <path d="m127.72 83.864c-9.731 0.0141-19.217 3.0551-27.142 8.7013l11.288 11.289c4.801-2.841 10.275-4.3461 15.854-4.3585 8.291 0 16.243 3.2935 22.106 9.1565 5.863 5.864 9.157 13.816 9.157 22.107-0.012 5.579-1.517 11.053-4.358 15.853l11.274 11.274c5.648-7.919 8.694-17.399 8.716-27.127 0-12.437-4.941-24.365-13.735-33.16-8.795-8.7947-20.723-13.735-33.16-13.735z" opacity=".2"/>
    <path d="m127.72 81.106c-9.731 0.0141-19.217 3.0551-27.142 8.7013l11.288 11.289c4.801-2.8409 10.275-4.3457 15.854-4.3581 8.291 0 16.243 3.2941 22.106 9.1571s9.157 13.815 9.157 22.107c-0.012 5.578-1.517 11.052-4.358 15.853l11.274 11.273c5.648-7.919 8.694-17.399 8.716-27.126 0-12.438-4.941-24.366-13.735-33.16-8.795-8.7947-20.723-13.735-33.16-13.735z" fill="#b16286"/>
    <path d="m89.546 103.63c-5.6487 7.92-8.6949 17.4-8.7166 27.127 0 12.438 4.9407 24.366 13.735 33.16 8.7946 8.795 20.723 13.736 33.161 13.736 9.731-0.014 19.216-3.055 27.142-8.701l-11.289-11.289c-4.801 2.841-10.275 4.346-15.853 4.358-8.292 0-16.244-3.294-22.107-9.157-5.8633-5.863-9.1572-13.815-9.1572-22.107 0.0124-5.578 1.5172-11.052 4.3582-15.853l-11.273-11.274z" opacity=".2"/>
    <path d="m89.546 100.88c-5.6487 7.919-8.6949 17.399-8.7166 27.127 0 12.437 4.9407 24.365 13.735 33.16 8.7946 8.794 20.723 13.735 33.161 13.735 9.731-0.014 19.216-3.055 27.142-8.701l-11.289-11.289c-4.801 2.841-10.275 4.346-15.853 4.358-8.292 0-16.244-3.293-22.107-9.157-5.8633-5.863-9.1572-13.815-9.1572-22.106 0.0124-5.579 1.5172-11.053 4.3582-15.854l-11.273-11.273z" fill="url(#paint4_linear)"/>
    <path d="m127.72 147.31c9.141 0 16.551-7.411 16.551-16.552s-7.41-16.552-16.551-16.552c-9.142 0-16.552 7.411-16.552 16.552s7.41 16.552 16.552 16.552z" opacity=".2"/>
    <path d="m127.72 144.55c9.141 0 16.551-7.41 16.551-16.552 0-9.141-7.41-16.551-16.551-16.551-9.142 0-16.552 7.41-16.552 16.551 0 9.142 7.41 16.552 16.552 16.552z" fill="#b16286"/>
    <path d="m128.09 48.004c-2.84-0.067-5.644 0.6451-8.104 2.0582l-56.25 32.306c-2.3518 1.3511-4.3045 3.2944-5.6617 5.6343s-2.0712 4.994-2.07 7.6955v2.7586c-0.0012-2.7014 0.7128-5.3556 2.07-7.6955s3.3099-4.2832 5.6617-5.6343l56.25-32.306c2.46-1.4132 5.264-2.1253 8.104-2.0582 2.591 0.0609 5.126 0.7686 7.37 2.0582l56.261 32.306c2.352 1.3511 4.305 3.2944 5.662 5.6343s2.071 4.9941 2.07 7.6955v-2.7586c1e-3 -2.7015-0.713-5.3556-2.07-7.6955s-3.31-4.2832-5.662-5.6343l-56.261-32.306c-2.244-1.2895-4.779-1.9972-7.37-2.0582z" fill="#ebdbb2" opacity=".1"/>
    <path d="m127.72 81.108c-9.732 0.0121-19.218 3.0512-27.145 8.6961l1.67 1.6703c7.58-4.9402 16.427-7.5823 25.475-7.6078 12.187 0.0125 23.891 4.7694 32.632 13.263 8.741 8.4936 13.832 20.057 14.194 32.239 0.03-0.456 0.054-0.912 0.07-1.369-1e-3 -12.437-4.942-24.364-13.737-33.158-8.795-8.7938-20.722-13.734-33.159-13.734zm31.12 49.65c-0.415 4.623-1.854 9.095-4.213 13.093l0.959 0.959c1.788-3.523 2.893-7.354 3.254-11.288 0.034 0.45 0.057 0.901 0.07 1.352 0.034-0.452 0.057-0.904 0.07-1.357-6e-3 -0.921-0.052-1.842-0.14-2.759z" fill="#ebdbb2" opacity=".2"/>
    <path d="m89.545 100.88c-5.6472 7.916-8.6937 17.393-8.7177 27.117 0.0145 0.408 0.0342 0.816 0.0593 1.223 0.3151-9.191 3.3261-18.088 8.6584-25.582l10.318 10.318c0.2976-0.613 0.6166-1.217 0.9536-1.81l-11.272-11.266zm7.0583 29.876c-0.0873 0.917-0.1341 1.838-0.1401 2.759 0.013 0.463 0.0364 0.927 0.07 1.39 0.0131-0.462 0.0365-0.924 0.0701-1.385 0.6898 7.78 4.2663 15.019 10.026 20.294 5.759 5.275 13.284 8.203 21.095 8.208 5.577-0.011 11.05-1.514 15.851-4.353l9.601 9.596c0.572-0.344 1.136-0.699 1.692-1.067l-11.293-11.293c-4.801 2.839-10.274 4.342-15.851 4.353-7.811-5e-3 -15.336-2.933-21.095-8.208-5.76-5.275-9.3365-12.514-10.026-20.294z" fill="#ebdbb2" opacity=".1"/>
    <path d="m127.72 111.45c-4.39 0-8.6 1.743-11.704 4.847-3.104 3.105-4.848 7.315-4.848 11.704 4e-3 0.459 0.027 0.918 0.07 1.374 0.347-4.133 2.233-7.986 5.285-10.795 3.053-2.808 7.049-4.369 11.197-4.372 4.149 3e-3 8.146 1.565 11.199 4.376 3.053 2.812 4.938 6.667 5.282 10.802 0.043-0.46 0.066-0.922 0.07-1.385 0-4.389-1.743-8.599-4.848-11.704-3.104-3.104-7.314-4.847-11.703-4.847z" fill="#ebdbb2" opacity=".2"/>
  </g>
  <defs>
    <filter id="filter0_d" x="-4.32" y="5.95" width="264.65" height="248.34" color-interpolation-filters="sRGB" filterUnits="userSpaceOnUse">
      <feFlood flood-opacity="0" result="BackgroundImageFix"/>
      <feColorMatrix in="SourceAlpha" values="0 0 0 0 0 0 0 0 0 0 0 0 0 0 0 0 0 0 127 0"/>
      <feOffset dy="4"/>
      <feGaussianBlur stdDeviation="5"/>
      <feColorMatrix values="0 0 0 0 0 0 0 0 0 0 0 0 0 0 0 0 0 0 0.4 0"/>
      <feBlend in2="BackgroundImageFix" result="effect1_dropShadow"/>
      <feBlend in="SourceGraphic" in2="effect1_dropShadow" result="shape"/>
    </filter>
    <linearGradient id="paint0_linear" x1="5.676" x2="5.676" y1="11.947" y2="240.28" gradientUnits="userSpaceOnUse">
      <stop stop-color="#b16286" offset="0"/>
      <stop stop-color="#b16286" offset="1"/>
    </linearGradient>
    <linearGradient id="paint1_linear" x1="132.08" x2="132.08" y1="11.95" y2="240.29" gradientUnits="userSpaceOnUse">
      <stop stop-color="#ebdbb2" offset="0"/>
      <stop stop-color="#ebdbb2" stop-opacity=".098" offset=".125"/>
      <stop stop-opacity=".098" offset=".925"/>
      <stop stop-opacity=".498" offset="1"/>
    </linearGradient>
    <linearGradient id="paint2_linear" x1="56" x2="56" y1="48.003" y2="208" gradientUnits="userSpaceOnUse">
      <stop stop-color="#504945" offset="0"/>
      <stop stop-color="#3c3836" offset="1"/>
    </linearGradient>
    <linearGradient id="paint4_linear" x1="80.829" x2="80.829" y1="100.88" y2="174.9" gradientUnits="userSpaceOnUse">
      <stop stop-color="#b16286" offset="0"/>
      <stop stop-color="#b16286" offset="1"/>
    </linearGradient>
    <clipPath id="clip0">
      <rect width="256" height="256" fill="#ebdbb2"/>
    </clipPath>
  </defs>
</svg>
