<svg width="256" height="256" style="isolation:isolate" version="1.1" xmlns="http://www.w3.org/2000/svg">
  <g filter="url(#a)">
    <linearGradient id="b" x1=".50002" x2=".50002" y1="-.00051239" y2="1" gradientTransform="matrix(244.65,0,0,228.34,5.676,11.947)" gradientUnits="userSpaceOnUse">
      <stop stop-color="#cc241d" offset="0"/>
      <stop stop-color="#cc241d" offset="1"/>
    </linearGradient>
    <path d="m165.68 11.947c72.707 0 84.639 12.053 84.639 84.544v59.251c0 72.561-11.932 84.543-84.639 84.543h-75.37c-72.294 0-84.639-11.982-84.639-84.543v-59.251c0-72.491 12.329-84.544 84.639-84.544z" fill="url(#b)"/>
  </g>
  <defs>
    <filter id="a" x="-.042124" y="-.045133" width="1.0842" height="1.1078" color-interpolation-filters="sRGB">
      <feGaussianBlur in="SourceGraphic" stdDeviation="4.294"/>
      <feOffset dy="4" result="pf_100_offsetBlur"/>
      <feFlood flood-opacity=".4"/>
      <feComposite in2="pf_100_offsetBlur" operator="in" result="pf_100_dropShadow"/>
      <feBlend in="SourceGraphic" in2="pf_100_dropShadow"/>
    </filter>
  </defs>
  <g transform="translate(-25.176 29.619)">
    <path d="m80.991-16.097c-41.975 5.0257-50.145 23.996-50.145 82.969v59.252c0 59.027 8.1787 77.963 50.145 82.975z" fill="#3c3836" style="isolation:isolate"/>
    <g transform="translate(25.167 -29.622)" opacity=".3" style="isolation:isolate">
      <path d="m183.84 82.37c-0.066 0.158-0.13 0.301-0.222 0.432-0.314 0.483-0.64 0.954-1.006 1.398-1.417 1.6785-2.8765 3.3207-4.377 4.925-2.16 2.3189-4.3637 4.5967-6.61 6.832-2.2427 2.2516-4.5115 4.4771-6.806 6.676-2.5947 2.4926-5.2118 4.9616-7.851 7.407-2.64 2.443-5.304 4.86-7.97 7.276-2.8058 2.5128-5.6272 5.0082-8.464 7.486-5.3594 4.6994-10.746 9.3675-16.16 14.004-2.5441 2.1898-5.0914 4.3758-7.642 6.558-1.986 1.698-3.972 3.396-5.97 5.095-1.9887 1.6964-3.9834 3.3857-5.984 5.068-1.0331 0.86188-2.0695 1.7199-3.109 2.574-0.6 0.496-1.24 0.954-1.907 1.359-0.61587 0.3622-1.2632 0.66811-1.934 0.914-0.666 0.248-1.358 0.431-2.064 0.562-0.757 0.117-1.515 0.196-2.273 0.196-0.31495 3e-5 -0.62935 0.0261-0.94 0.078-0.26845 0.0403-0.52615 0.13381-0.758 0.275-0.1828 0.10083-0.34632 0.2332-0.483 0.391-0.31424 0.3391-0.47485 0.79271-0.444 1.254 0 0.21 0.039 0.406 0.104 0.601 0.16641 0.48654 0.45414 0.92261 0.836 1.267 0.21 0.17 0.418 0.314 0.666 0.432 0.275 0.117 0.575 0.209 0.876 0.261 4.493 0.13 8.987 0.444 13.455 0.94 4.546 0.51 9.08 1.202 13.573 2.078 4.533 0.888 9.054 1.803 13.574 2.756 4.258 0.902 8.504 1.842 12.737 2.822 8.0917 1.871 16.2 3.6694 24.324 5.395 3.88 0.823 7.8 1.463 11.744 1.908 3.283 0.38026 6.5851 0.57191 9.89 0.574 2.0163-2e-3 4.0266-0.22084 5.996-0.653 1.541-0.34 3.03-0.901 4.429-1.672 1.3439-0.74301 2.6437-1.563 3.893-2.456 1.6419-1.185 3.2286-2.4446 4.755-3.775 1.0828-0.93921 2.104-1.9473 3.057-3.018 0.67329-0.73492 1.2766-1.531 1.802-2.378 0.523-0.836 0.967-1.724 1.307-2.652 0.23822-0.62619 0.36218-1.29 0.366-1.96 0-0.273-0.027-0.56-0.053-0.848-0.0257-0.2189-0.078-0.43384-0.156-0.64-0.0619-0.16696-0.14565-0.32499-0.249-0.47-0.13-0.184-0.3-0.34-0.496-0.458-0.25913-0.14431-0.55384-0.21227-0.85-0.196-0.234 0.013-0.47 0.065-0.679 0.183-0.39281 0.19097-0.72661 0.48468-0.966 0.85-0.275 0.417-0.51 0.874-0.667 1.358-0.30274 0.84955-0.66016 1.6786-1.07 2.482-0.35251 0.69018-0.75456 1.3539-1.203 1.986-0.4182 0.57926-0.91 1.1016-1.463 1.554-0.7408 0.60323-1.5417 1.1287-2.39 1.568-0.86584 0.445-1.7715 0.80791-2.705 1.084-1.4914 0.44542-3.0098 0.79447-4.546 1.045-1.5543 0.25024-3.1193 0.42909-4.69 0.536-2.39 0.157-4.768 0.235-7.145 0.235-3.044 0-6.088-0.105-9.119-0.3-3.5483-0.22394-7.0896-0.5464-10.62-0.967-3.5464-0.42801-7.0871-0.90272-10.621-1.424-3.3352-0.48368-6.6626-1.0194-9.981-1.607-3.3182-0.58597-6.6281-1.2174-9.929-1.894-2.7182-0.56036-5.4269-1.1658-8.125-1.816-2.7034-0.65249-5.4034-1.3188-8.1-1.999-1.4229-0.35617-2.8423-0.72619-4.258-1.11-0.18976-0.0623-0.37378-0.14097-0.55-0.235-0.0775-0.0406-0.14775-0.0936-0.208-0.157-0.0369-0.0254-0.0643-0.0624-0.078-0.105 0.19291-0.40211 0.42008-0.78686 0.679-1.15 2.782-2.9 5.591-5.773 8.452-8.595 3.764-3.7357 7.5703-7.4286 11.418-11.078 3.854-3.658 7.72-7.29 11.6-10.908 3.893-3.632 7.786-7.238 11.705-10.83 3.92-3.593 7.852-7.172 11.784-10.739 3.475-3.161 6.95-6.296 10.45-9.432 3.489-3.135 6.99-6.244 10.517-9.353 2.1967-1.9336 4.4087-3.8497 6.636-5.748 0.327-0.314 0.654-0.627 0.98-0.915 0.353-0.3 0.706-0.588 1.084-0.862 0.31897-0.24515 0.6605-0.45944 1.02-0.64 0.18184-0.09039 0.37485-0.15629 0.574-0.196 0.288-0.04 0.562-0.118 0.836-0.209 0.262-0.091 0.51-0.222 0.732-0.392 0.2747-0.20099 0.50203-0.45972 0.666-0.758 0.17-0.3 0.274-0.627 0.314-0.98 0.013-0.208 0-0.43-0.04-0.64-0.0455-0.22378-0.13381-0.43667-0.26-0.627-0.12033-0.19619-0.27556-0.3687-0.458-0.509-0.16721-0.13356-0.35193-0.24358-0.549-0.327-0.25767-0.11585-0.53033-0.19495-0.81-0.235-0.34619-0.04806-0.69552-0.06979-1.045-0.065-0.405-0.013-0.81 0-1.202 0-1.502 0.026-3.004 0.065-4.52 0.091-1.502 0.04-2.991 0.066-4.494 0.092-1.96 0.039-3.919 0.078-5.878 0.104l-5.892 0.118c-2.195 0.052-4.376 0.117-6.571 0.183-2.182 0.065-4.363 0.104-6.545 0.144-1.7631 0.03259-3.5266 0.04559-5.29 0.039-3.005 0.078-6.023 0.143-9.028 0.222l-8.922 0.274c-2.992 0.105-5.97 0.235-8.949 0.405-2.247 0.118-4.494 0.287-6.74 0.483-0.53285 0.0802-1.0576 0.20736-1.568 0.38-0.43667 0.15301-0.8568 0.34967-1.254 0.587-0.36766 0.22323-0.7097 0.48614-1.02 0.784-0.30911 0.29553-0.58477 0.62417-0.822 0.98-0.40817 0.62479-0.7918 1.2653-1.15 1.92-0.63483 1.1804-1.2361 2.3785-1.803 3.593-0.013 0.313 0 0.64 0.04 0.953 0.012 0.196 0.052 0.38 0.117 0.549 0.091 0.3 0.274 0.588 0.496 0.81 0.275 0.274 0.627 0.444 1.006 0.483 0.42525 0.03643 0.851-0.06414 1.215-0.287 0.39408-0.24964 0.76195-0.53844 1.098-0.862 0.68004-0.62831 1.4399-1.1643 2.26-1.594 1.2449-0.66176 2.5476-1.2084 3.892-1.633 1.3852-0.44358 2.7941-0.80982 4.22-1.097 1.7627-0.35479 3.5414-0.6251 5.33-0.81 2.665-0.327 5.33-0.588 7.995-0.797 3.606-0.288 7.211-0.51 10.83-0.666 3.605-0.17 7.224-0.288 10.843-0.38 3.318-0.078 6.636-0.117 9.967-0.117 0.523 0.013 1.045 0.04 1.555 0.092 0.248 0.026 0.496 0.078 0.745 0.156 0.09 0.026 0.17 0.066 0.26 0.105z" fill="#282828"/>
    </g>
    <g transform="translate(25.167 -29.622)" opacity=".2" style="isolation:isolate">
      <path d="m181.22 77.145c-0.065 0.157-0.13 0.3-0.222 0.431-0.314 0.484-0.64 0.954-1.006 1.398-1.4167 1.6785-2.8758 3.3207-4.376 4.925-2.1599 2.3193-4.3637 4.5973-6.61 6.833-2.2431 2.2513-4.5122 4.4765-6.807 6.675-2.5947 2.4926-5.2118 4.9616-7.851 7.407-2.639 2.443-5.304 4.86-7.969 7.277-2.8062 2.5125-5.6279 5.0075-8.465 7.485-5.3594 4.6994-10.746 9.3675-16.16 14.004-4.5264 3.8971-9.0637 7.7814-13.612 11.653-1.9884 1.6967-3.9827 3.3864-5.983 5.069-1.0334 0.86188-2.0701 1.7199-3.11 2.574-0.6 0.496-1.24 0.953-1.907 1.358-0.61551 0.36249-1.2625 0.66873-1.933 0.915-0.667 0.248-1.359 0.43-2.064 0.561-0.75149 0.12376-1.5114 0.18929-2.273 0.196-0.31531 3.1e-4 -0.63005 0.0267-0.941 0.079-0.26838 0.04-0.52607 0.13316-0.758 0.274-0.18288 0.10113-0.3464 0.23384-0.483 0.392-0.31424 0.3391-0.47485 0.79271-0.444 1.254 0 0.21 0.039 0.405 0.104 0.601 0.16641 0.48654 0.45414 0.92261 0.836 1.267 0.21 0.17 0.418 0.314 0.667 0.431 0.274 0.118 0.574 0.21 0.875 0.262 4.494 0.13 8.988 0.444 13.455 0.94 4.547 0.51 9.08 1.202 13.574 2.077 4.533 0.889 9.053 1.803 13.573 2.757 4.2544 0.90039 8.5003 1.8408 12.737 2.821 8.092 1.8714 16.201 3.6701 24.325 5.396 3.88 0.823 7.799 1.463 11.744 1.907 3.279 0.379 6.584 0.575 9.889 0.575 2.0163-2e-3 4.0266-0.22084 5.996-0.653 1.5488-0.34248 3.0403-0.90556 4.429-1.672 1.3439-0.74301 2.6437-1.563 3.893-2.456 1.6419-1.1853 3.2286-2.4453 4.755-3.776 1.0828-0.93921 2.104-1.9473 3.057-3.018 0.67359-0.73456 1.2772-1.5303 1.803-2.377 0.522-0.836 0.966-1.725 1.306-2.652 0.23822-0.62619 0.36218-1.29 0.366-1.96 0-0.274-0.026-0.561-0.052-0.849-0.026-0.21895-0.0787-0.43388-0.157-0.64-0.0616-0.1669-0.145-0.32494-0.248-0.47-0.131-0.183-0.3-0.34-0.497-0.457-0.25884-0.14413-0.55318-0.21208-0.849-0.196-0.235 0.013-0.47 0.065-0.68 0.183-0.39268 0.19069-0.72647 0.48405-0.966 0.849-0.274 0.418-0.51 0.875-0.666 1.358-0.30307 0.84958-0.66081 1.6786-1.071 2.482-0.35219 0.69015-0.75391 1.3539-1.202 1.986-0.41813 0.57961-0.90993 1.1023-1.463 1.555-0.732 0.6-1.542 1.123-2.391 1.567-0.862 0.444-1.777 0.81-2.704 1.085-1.49 0.444-3.018 0.796-4.546 1.045-1.5543 0.2499-3.1193 0.42842-4.69 0.535-2.391 0.157-4.769 0.235-7.146 0.235-3.044 0-6.088-0.104-9.119-0.3-3.5483-0.22394-7.0896-0.5464-10.62-0.967-3.5464-0.42801-7.0871-0.90272-10.621-1.424-3.3348-0.48369-6.6619-1.0194-9.98-1.607-3.3185-0.58597-6.6288-1.2174-9.93-1.894-2.7182-0.56036-5.4269-1.1658-8.125-1.816-2.7034-0.65216-5.4034-1.3182-8.1-1.998-1.4229-0.35617-2.8423-0.72618-4.258-1.11-0.18945-0.0627-0.37313-0.14168-0.549-0.236-0.0778-0.0405-0.14845-0.0935-0.209-0.157-0.0367-0.0252-0.0641-0.0617-0.078-0.104 0.196-0.405 0.418-0.784 0.68-1.15 2.7773-2.9041 5.5946-5.7697 8.451-8.596 3.764-3.7357 7.5703-7.4286 11.418-11.078 3.854-3.658 7.72-7.29 11.6-10.908 3.894-3.632 7.787-7.237 11.706-10.83 3.919-3.592 7.85-7.172 11.783-10.738 3.475-3.161 6.95-6.297 10.451-9.432 3.488-3.135 6.99-6.244 10.516-9.354 2.197-1.9336 4.4094-3.8497 6.637-5.748 0.326-0.313 0.653-0.627 0.98-0.914 0.352-0.3 0.705-0.588 1.084-0.862 0.31865-0.24509 0.65985-0.45939 1.019-0.64 0.18184-0.09039 0.37485-0.15629 0.574-0.196 0.288-0.04 0.562-0.118 0.837-0.21 0.26-0.09 0.509-0.222 0.731-0.391 0.274-0.196 0.497-0.458 0.666-0.758 0.17-0.3 0.275-0.627 0.314-0.98 0.013-0.209 0-0.43-0.04-0.64-0.0455-0.22378-0.13381-0.43667-0.26-0.627-0.12023-0.19655-0.27546-0.3694-0.458-0.51-0.16696-0.13313-0.35133-0.24281-0.548-0.326-0.25767-0.11585-0.53033-0.19495-0.81-0.235-0.34649-0.04845-0.69617-0.07051-1.046-0.066-0.404-0.013-0.81 0-1.201 0-1.503 0.027-3.005 0.066-4.52 0.092-1.503 0.04-2.992 0.065-4.494 0.091-1.96 0.04-3.92 0.079-5.879 0.105-1.96 0.04-3.932 0.078-5.892 0.117-2.194 0.053-4.376 0.118-6.57 0.183-2.182 0.066-4.364 0.105-6.546 0.144-1.7631 0.03292-3.5266 0.04626-5.29 0.04-3.005 0.078-6.023 0.143-9.027 0.221l-8.923 0.275c-2.992 0.104-5.97 0.235-8.949 0.405-2.247 0.117-4.494 0.287-6.74 0.483-0.53282 0.07987-1.0575 0.2067-1.568 0.379-0.43671 0.15333-0.85684 0.35032-1.254 0.588-0.36766 0.22323-0.7097 0.48614-1.02 0.784-0.30911 0.29553-0.58477 0.62417-0.822 0.98-0.40817 0.62479-0.7918 1.2653-1.15 1.92-0.63482 1.1801-1.2361 2.3779-1.803 3.592-0.013 0.314 0 0.64 0.04 0.954 0.013 0.196 0.052 0.379 0.117 0.548 0.092 0.301 0.275 0.588 0.497 0.81 0.274 0.275 0.627 0.445 1.005 0.484 0.42536 0.03613 0.85112-0.06479 1.215-0.288 0.39408-0.24964 0.76195-0.53844 1.098-0.862 0.68004-0.62831 1.4399-1.1643 2.26-1.594 1.2452-0.66182 2.5483-1.2084 3.893-1.633 1.3852-0.44358 2.7941-0.80982 4.22-1.097 1.7627-0.35479 3.5414-0.6251 5.33-0.81 2.664-0.326 5.33-0.588 7.994-0.797 3.6057-0.28746 7.2163-0.50949 10.83-0.666 3.606-0.17 7.224-0.287 10.843-0.379 3.318-0.078 6.636-0.117 9.968-0.117 0.522 0.013 1.045 0.039 1.554 0.091 0.248 0.026 0.497 0.078 0.745 0.157 0.091 0.026 0.17 0.065 0.261 0.104z" fill="#ebdbb2"/>
    </g>
    <path d="m207.7 49.843c-0.065 0.157-0.13 0.3-0.222 0.431-0.313 0.483-0.64 0.954-1.006 1.398-1.4167 1.6785-2.8758 3.3207-4.376 4.925-2.16 2.3189-4.3637 4.5967-6.61 6.832-2.2427 2.2516-4.5115 4.4771-6.806 6.676-2.595 2.4926-5.2124 4.9617-7.852 7.407-2.638 2.443-5.303 4.86-7.968 7.276-2.8065 2.5128-5.6286 5.0082-8.466 7.486-5.3594 4.6994-10.746 9.3674-16.16 14.004-2.547 2.195-5.094 4.376-7.642 6.558-1.985 1.698-3.971 3.397-5.97 5.095-1.9884 1.6967-3.9827 3.3864-5.983 5.069-1.0334 0.86154-2.0701 1.7192-3.11 2.573-0.6 0.497-1.24 0.954-1.907 1.359-0.61555 0.36215-1.2625 0.66805-1.933 0.914-0.67054 0.24639-1.3611 0.43442-2.064 0.562-0.758 0.117-1.515 0.196-2.273 0.196-0.31495 3e-5 -0.62935 0.0261-0.94 0.078-0.26845 0.0403-0.52615 0.13381-0.758 0.275-0.18315 0.10073-0.34702 0.23311-0.484 0.391-0.31424 0.3391-0.47485 0.79271-0.444 1.254 0 0.21 0.04 0.406 0.105 0.602 0.16641 0.48654 0.45414 0.92261 0.836 1.267 0.209 0.17 0.418 0.313 0.666 0.43 0.274 0.118 0.575 0.21 0.875 0.262 4.494 0.13 8.988 0.444 13.456 0.94 4.546 0.51 9.08 1.203 13.573 2.078 4.533 0.888 9.053 1.803 13.573 2.756 4.259 0.902 8.505 1.842 12.737 2.822 8.092 1.871 16.201 3.6694 24.325 5.395 3.88 0.823 7.799 1.463 11.744 1.908 3.28 0.378 6.584 0.574 9.89 0.574 2.0163-2e-3 4.0266-0.22084 5.996-0.653 1.541-0.34 3.03-0.901 4.428-1.672 1.3439-0.74301 2.6437-1.563 3.893-2.456 1.6419-1.185 3.2286-2.4446 4.755-3.775 1.0828-0.93921 2.104-1.9473 3.057-3.018 0.67364-0.73488 1.2772-1.531 1.803-2.378 0.523-0.836 0.967-1.724 1.306-2.652 0.23822-0.62619 0.36218-1.29 0.366-1.96 0-0.273-0.026-0.56-0.052-0.848-0.026-0.21895-0.0787-0.43388-0.157-0.64-0.0616-0.1669-0.145-0.32494-0.248-0.47-0.13-0.184-0.3-0.34-0.496-0.458-0.25913-0.14431-0.55384-0.21227-0.85-0.196-0.235 0.013-0.47 0.065-0.679 0.183-0.39317 0.19082-0.72733 0.48455-0.967 0.85-0.274 0.417-0.51 0.874-0.666 1.358-0.30307 0.84958-0.66081 1.6786-1.071 2.482-0.35219 0.69015-0.75391 1.3539-1.202 1.986-0.4182 0.57926-0.91 1.1016-1.463 1.554-0.74112 0.60278-1.542 1.1282-2.39 1.568-0.86584 0.445-1.7715 0.80791-2.705 1.084-1.49 0.444-3.018 0.797-4.546 1.045-1.5543 0.25024-3.1193 0.42909-4.69 0.536-2.39 0.157-4.768 0.235-7.146 0.235-3.044 0-6.087-0.105-9.118-0.3-3.5486-0.22392-7.0903-0.54638-10.621-0.967-3.5461-0.42802-7.0864-0.90273-10.62-1.424-3.3352-0.48368-6.6626-1.0194-9.981-1.607-3.3182-0.58597-6.6281-1.2174-9.929-1.894-2.7185-0.56034-5.4276-1.1658-8.126-1.816-2.7031-0.65249-5.4028-1.3188-8.099-1.999-1.4232-0.35616-2.843-0.72618-4.259-1.11-0.18908-0.0625-0.37242-0.14108-0.548-0.235-0.0782-0.0404-0.14915-0.0934-0.21-0.157-0.0369-0.0254-0.0643-0.0624-0.078-0.105 0.196-0.405 0.418-0.783 0.68-1.15 2.782-2.9 5.59-5.773 8.452-8.595 3.7637-3.7357 7.5696-7.4286 11.417-11.078 3.854-3.658 7.721-7.29 11.6-10.908 3.8862-3.627 7.7883-7.237 11.706-10.83 3.92-3.593 7.851-7.172 11.783-10.739 3.475-3.16 6.95-6.296 10.451-9.432 3.488-3.135 6.99-6.244 10.517-9.353 2.1967-1.9336 4.4087-3.8497 6.636-5.748 0.327-0.314 0.653-0.627 0.98-0.915 0.353-0.3 0.705-0.587 1.084-0.862 0.31865-0.24509 0.65985-0.45939 1.019-0.64 0.18216-0.09047 0.37551-0.15638 0.575-0.196 0.287-0.04 0.562-0.117 0.836-0.209 0.261-0.091 0.51-0.222 0.731-0.392 0.27528-0.20064 0.50301-0.45943 0.667-0.758 0.17-0.3 0.274-0.627 0.313-0.98 0.013-0.208 0-0.43-0.039-0.64-0.046-0.2235-0.13457-0.43605-0.261-0.626-0.11994-0.19646-0.27482-0.36931-0.457-0.51-0.16752-0.13364-0.35258-0.24366-0.55-0.327-0.25767-0.11585-0.53033-0.19495-0.81-0.235-0.34586-0.04801-0.69486-0.06974-1.044-0.065-0.405-0.013-0.81 0-1.202 0-1.502 0.026-3.005 0.065-4.52 0.091-1.502 0.04-2.992 0.066-4.494 0.092-1.96 0.04-3.92 0.078-5.879 0.104l-5.891 0.118c-2.195 0.052-4.377 0.118-6.571 0.183-2.1814 0.06106-4.3631 0.10906-6.545 0.144-1.764 0.026-3.527 0.052-5.291 0.039-3.005 0.078-6.022 0.143-9.027 0.222l-8.923 0.274c-2.991 0.105-5.97 0.235-8.948 0.405-2.2496 0.12233-4.497 0.28369-6.741 0.484-0.53278 0.07955-1.0575 0.20604-1.568 0.378-0.43671 0.15333-0.85684 0.35032-1.254 0.588-0.36731 0.22329-0.70902 0.4862-1.019 0.784-0.313 0.3-0.588 0.627-0.823 0.98-0.40817 0.62479-0.7918 1.2653-1.15 1.92-0.6345 1.1804-1.2354 2.3785-1.802 3.593-0.013 0.313 0 0.64 0.039 0.953 0.013 0.196 0.052 0.38 0.118 0.549 0.091 0.3 0.274 0.588 0.496 0.81 0.274 0.274 0.627 0.444 1.006 0.483 0.42525 0.03643 0.851-0.06414 1.215-0.287 0.39373-0.2497 0.76126-0.5385 1.097-0.862 0.68004-0.62831 1.4399-1.1643 2.26-1.594 1.2452-0.66182 2.5483-1.2084 3.893-1.633 1.3852-0.44358 2.7941-0.80982 4.22-1.097 1.7627-0.35479 3.5414-0.6251 5.33-0.81 2.665-0.327 5.33-0.588 7.995-0.797 3.605-0.288 7.21-0.51 10.83-0.666 3.605-0.17 7.224-0.288 10.842-0.38 3.319-0.078 6.637-0.117 9.968-0.117 0.522 0.013 1.045 0.04 1.555 0.092 0.248 0.026 0.496 0.078 0.744 0.156 0.092 0.026 0.17 0.066 0.261 0.105z" fill="#ebdbb2" style="isolation:isolate"/>
  </g>
  <g opacity=".4">
    <linearGradient id="c" x1=".517" x2=".517" y2="1" gradientTransform="matrix(244.65,0,0,228.34,5.68,11.95)" gradientUnits="userSpaceOnUse">
      <stop stop-color="#928374" offset="0"/>
      <stop stop-color="#928374" stop-opacity=".098039" offset=".125"/>
      <stop stop-opacity=".098039" offset=".925"/>
      <stop stop-opacity=".49804" offset="1"/>
    </linearGradient>
    <path d="m165.07 11.951c4.328-0.01 8.656 0.04 12.984 0.138 3.875 0.078 7.7436 0.25854 11.62 0.48454 3.453 0.196 6.8876 0.5327 10.33 0.9057 3.06 0.335 6.0892 0.83409 9.1192 1.3941 2.7131 0.50032 5.3525 1.181 7.9999 1.9571 2.3983 0.69679 4.7544 1.61 7.0323 2.6338 2.1121 0.94124 4.0427 2.0439 5.9631 3.3319 1.8405 1.2399 3.5996 2.7014 5.1741 4.2652 1.5652 1.5692 2.886 3.1628 4.1277 4.9987 1.2864 1.9174 2.4086 3.8707 3.3603 5.9744 1.0207 2.2746 1.9193 4.5772 2.628 6.9675 0.77696 2.6443 1.4779 5.3272 1.9787 8.0374 0.56201 3.0246 1.0626 6.0601 1.3989 9.1181 0.374 3.439 0.70873 6.8493 0.90573 10.297 0.226 3.861 0.42171 7.7394 0.51071 11.6 0.088 4.323 0.138 8.646 0.128 12.96v58.21c0.01 4.324-0.04 8.637-0.128 12.96-0.085 3.8668-0.28821 7.7331-0.51114 11.595-0.19655 3.4488-0.53822 6.9467-0.91224 10.38-0.33634 3.0613-0.82936 6.0316-1.3914 9.0596-0.50199 2.7066-1.1867 5.3458-1.9626 7.987-0.7071 2.3908-1.5665 4.6263-2.5888 6.9002-0.94995 2.1048-2.1624 4.2292-3.4512 6.1454-1.2392 1.8377-2.5377 3.3902-4.1052 4.9572-1.5746 1.5638-3.412 3.0712-5.2525 4.3111-1.9201 1.2879-3.8611 2.3701-5.9729 3.3114-2.3498 1.0736-4.5744 1.8717-6.9323 2.584-2.6776 0.81656-5.2934 1.4166-7.976 1.948-3.0309 0.56603-6.051 1.0612-9.1165 1.3921-3.5041 0.40869-6.8203 0.68433-10.336 0.90377-3.875 0.226-7.789 0.40013-11.665 0.48813-4.328 0.088-8.6314 0.15082-12.959 0.14082h-74.126c-4.328 0.01-8.6566-0.0545-12.985-0.14247-3.9049-0.0955-7.7449-0.24667-11.628-0.49085-3.4941-0.21923-7.0445-0.5149-10.452-0.92805-3.1873-0.37665-5.9337-0.7937-8.9951-1.3902-2.833-0.56139-5.3421-1.1637-7.9464-1.9566-2.4295-0.73175-4.8105-1.6266-7.0523-2.6548-2.139-0.97893-4.0617-2.0635-5.9983-3.3731-1.8405-1.2399-3.5141-2.6495-5.0886-4.2133-1.5676-1.5671-2.9061-3.1787-4.1454-5.0164-1.2884-1.9162-2.4021-3.8332-3.3518-5.9379-1.0223-2.2739-1.9238-4.5236-2.6309-6.9144-0.77585-2.6412-1.4977-5.3053-1.9996-8.0119-0.56202-3.028-1.0938-6.1087-1.4301-9.17-0.37402-3.4341-0.72617-6.8459-0.92272-10.295-0.22292-3.8613-0.42179-7.7427-0.50684-11.61-0.09185-4.3194-0.13452-8.6396-0.128-12.96v-58.21c-0.01-4.314 0.04-8.637 0.128-12.96 0.089-3.86 0.28015-7.7353 0.50615-11.596 0.197-3.448 0.54883-6.857 0.92283-10.296 0.335-3.055 0.87336-6.1638 1.4344-9.1898 0.50085-2.7102 1.1807-5.2262 1.9577-7.8705 0.70872-2.3902 1.7549-4.9868 2.7756-7.2614 0.95209-2.1037 1.9632-3.7998 3.2499-5.7172 1.2418-1.8358 2.594-3.4604 4.1593-5.0296 1.5745-1.5638 3.3273-3.0214 5.1678-4.2614 1.9201-1.2879 3.8238-2.3848 5.9356-3.3261 2.278-1.0238 4.5428-1.9236 6.9411-2.6204 2.6474-0.77617 5.2743-1.4761 7.9874-1.9764 3.0317-0.56124 6.1381-1.085 9.203-1.4208 3.443-0.373 6.8398-0.71288 10.293-0.90888 3.875-0.226 7.7331-0.41514 11.609-0.49314 4.328-0.098 8.6625-0.14613 12.991-0.13613zm0.01 4.009c4.298-0.01 8.597 0.039 12.895 0.127 3.827 0.089 7.6466 0.26854 11.474 0.48454 3.383 0.197 6.7724 0.43946 10.136 0.81246 2.971 0.315 5.9391 0.74869 8.8701 1.2987 2.5807 0.47339 5.1059 1.0723 7.6238 1.8101 2.2193 0.6492 4.4135 1.4563 6.5231 2.4032 1.9054 0.85272 3.7179 1.8543 5.4527 3.0153 1.6245 1.0927 3.1568 2.3505 4.5413 3.7347 1.3858 1.385 2.6374 2.8981 3.738 4.519 1.1601 1.7266 2.1737 3.5473 3.03 5.443 0.94487 2.1083 1.7467 4.2779 2.4 6.494 0.74152 2.5113 1.352 5.0594 1.829 7.634 0.54 2.928 0.974 5.875 1.298 8.842 0.374 3.36 0.65 6.73 0.846 10.11 0.217 3.822 0.374 7.634 0.453 11.456 0.088 4.293 0.137 8.577 0.137 12.87v58.212c0 4.293-0.049 8.577-0.137 12.87-0.082 3.8211-0.0546 7.643-0.27458 11.459-0.196 3.38-0.65042 6.7474-1.0244 10.117-0.3245 2.9589-0.75746 5.9049-1.298 8.832-0.47731 2.5747-1.0881 5.1228-1.83 7.634-0.65169 2.2166-1.4536 4.3863-2.4 6.494-0.8542 1.8968-1.8678 3.7176-3.03 5.443-1.0976 1.6263-2.349 3.1432-3.737 4.53-1.3876 1.3779-2.9027 2.6211-4.525 3.713-1.7345 1.161-3.564 2.1732-5.469 3.026-2.1078 0.95119-4.2802 1.7522-6.501 2.397-2.5179 0.7378-5.0723 1.3446-7.653 1.818-2.931 0.55-5.8828 0.98162-8.8538 1.3056-3.364 0.364-6.7562 0.64938-10.139 0.83638-3.827 0.216-7.6776 0.36018-11.505 0.43918-4.298 0.098-8.5724 0.14982-12.87 0.14982h-74.146c-4.298 0-8.5976-0.0545-12.896-0.15147-3.8291-0.082-7.6582-0.26152-11.482-0.48085-3.3834-0.19001-6.7587-0.42545-10.127-0.79268-2.97-0.32174-5.9265-0.7574-8.863-1.306-2.5807-0.47339-5.1351-1.0802-7.653-1.818-2.2208-0.64482-4.3673-1.4321-6.4751-2.3833-1.9053-0.85272-3.7547-1.8723-5.4895-3.0333-1.622-1.0922-3.1431-2.3423-4.5303-3.7205-1.3882-1.3864-2.64-2.903-3.738-4.529-1.1622-1.7254-2.1758-3.5462-3.03-5.443-0.94645-2.1077-1.7483-4.2774-2.4-6.494-0.74152-2.5113-1.352-5.0594-1.829-7.634-0.54054-2.9271-0.9735-5.8731-1.298-8.832-0.374-3.37-0.65-6.74-0.846-10.12-0.21993-3.8156-0.37096-7.6349-0.453-11.456-0.08992-4.2894-0.13559-8.5796-0.137-12.87v-58.212c0-4.293 0.049-8.577 0.137-12.87 0.079-3.822 0.236-7.634 0.453-11.456 0.197-3.38 0.472-6.75 0.846-10.11 0.324-2.967 0.757-5.914 1.298-8.842 0.47732-2.5747 1.0915-5.1375 1.8334-7.6487 0.65331-2.2161 1.4517-4.371 2.3966-6.4793 0.85634-1.8957 1.8699-3.7164 3.03-5.443 1.1003-1.6212 2.3515-3.1346 3.737-4.52 1.3849-1.3839 2.9002-2.6307 4.525-3.723 1.7345-1.161 3.564-2.1732 5.469-3.026 2.1096-0.94691 4.2817-1.7478 6.501-2.397 2.5179-0.7378 5.0723-1.3446 7.653-1.818 2.931-0.55 5.892-0.982 8.863-1.297 3.364-0.373 6.7432-0.64645 10.126-0.84345 3.8239-0.21443 7.6549-0.36667 11.484-0.45355 4.298-0.088 8.597-0.137 12.895-0.127z" fill="url(#c)" fill-rule="evenodd"/>
  </g>
</svg>
