<svg width="256" height="256" style="isolation:isolate" version="1.1" xmlns="http://www.w3.org/2000/svg">
  <g transform="translate(.007136 -.1198)" filter="url(#a)">
    <linearGradient id="b" x1=".5002" x2=".5002" y2="1" gradientTransform="matrix(244,0,0,228,5.981,12.12)" gradientUnits="userSpaceOnUse">
      <stop stop-color="#689d6a" offset="0"/>
      <stop stop-color="#427b58" offset="1"/>
    </linearGradient>
    <path d="m165 12.12c72 0 85 15 85 87v56c0 70-13 85-85 85h-74c-72 0-85-15-85-85v-56c0-72 13-87 85-87z" fill="url(#b)"/>
  </g>
  <defs>
    <linearGradient id="linearGradient31" x1=".5002" x2=".5002" y2="1" gradientTransform="matrix(244,0,0,228,5.988,12.12)" gradientUnits="userSpaceOnUse">
      <stop stop-color="#d5c4a1" offset="0"/>
      <stop stop-color="#d5c4a1" stop-opacity=".09804" offset=".1"/>
      <stop stop-color="#282828" stop-opacity=".1" offset=".9"/>
      <stop stop-color="#282828" stop-opacity=".4" offset="1"/>
    </linearGradient>
  </defs>
  <g transform="translate(.007189 -.1198)" opacity=".5">
    <path d="m91 12.12c-72 0-85 15-85 87v56c0 70 13 85 85 85h74c72 0 85-15 85-85v-56c0-72-13-87-85-87zm0 4h74c68 0 80 15 80 83v56c0 66-12 81-80 81h-74c-68 0-80-15-80-81v-56c0-68 12-83 80-83z" fill="url(#linearGradient31)" opacity="1"/>
  </g>
  <path d="m80.69 196.8c-7.921-2.25-9.856-11.81-6.681-18.35 4.803-11.81 15.21-20.17 25.58-27.39-6.381-2.081-4.889-9.389-3.313-10.96 1.006-1.006-3.779-2.448-5.729-3.254-18.64-10.75-35.98-25.89-43.94-45.83-3.608-9.624-3.525-22.68 6.188-28.98 11.31-7.253 25.87-2.214 36.31 4.202 13.48 8.29 23.77 20.49 32.19 33.43 3.757-4.776 11.86-3.439 13.76 0.1393 11.34-17.59 27.29-35.27 48.8-40.63 10.16-2.658 22.98 1.184 26.38 11.64 4.549 13.87-3.334 28.04-11.91 38.8-10.3 12.61-23.74 22.62-38.38 30.12 4.004 4.263 1.152 9.67-3.218 11.13 11.13 7.944 23.99 18.46 26.56 32.35 2.206 9.547-8.797 17.23-17.77 13.46-16.07-5.357-27.2-19.24-35.51-32.91-1.297-3.57-2.603-3.641-3.916-0.0418-8.31 13.67-19.29 27.49-35.27 32.95-3.276 0.9026-6.868 1.202-10.14 0.1393zm13.54-13.21c10.32-5.765 17.05-16.18 21.16-26.74-10.52 2.542-20.21 8.89-26.95 17.1-5.503 5.837-3.697 15.07 5.793 9.638zm75.78 0.3413c3.408-6.95-5.702-14.53-10.76-18.73-4.683-3.89-18.12-8.497-18.12-8.497 4.649 10.75 11.48 22.89 22.81 27.94 1.942 0.7062 5.077 1.3 6.065-0.7146zm-74.02-75.15c-15.07 9.237 22.11 27.03 23.05 23.69 1.888 0.6073-10.73-31.25-23.05-23.69zm50.05 21.8c7.645-2.919 17.03-8.558 17.02-17.47-3.169-9.083-14.93-2.022-18.33 3.442-2.606 3.943-7.687 13.6-6.478 16.01 2.484-0.4067 5.413-1.173 7.784-1.98zm-47.66-32.45c-5.677-4.465-13.13-11.19-20.36-8.331-7.117 2.814 1.305 15.13 4.455 20.12 2.453-12.37 12.57-11.23 15.91-11.79zm74.48-8.23c-4.957 0.8399-14.7 6.333-15.24 8.887 6.441-0.7689 14.76 0.95 16.6 11.22 0 0 15.55-23.44-1.369-20.11zm-108.9-2.359c2.499-7.159 10.38-10.58 17.78-10.15 5.57 0.2647-4.785-3.443-5.716-4.324-5.753-2.815-17.2-5.14-18.72 3.484-1.042 5.495 1.994 15.31 5.336 17.23 0.1964-2.119 0.5725-4.235 1.319-6.242zm128.3-16.91c-7.421-0.6881-14.13 3.068-20.24 6.647 15.38-2.147 22.2 8.438 22.08 16.99 7.972-14.03 5.657-22.29-1.839-23.64z" fill="#ebdbb2" stroke-width="13.93"/>
</svg>
