<svg width="22" height="22" version="1.1" viewBox="0 0 5.816 5.816" xmlns="http://www.w3.org/2000/svg">
  <path d="m2.324 1.398c-0.05607 2.345e-4 -0.5199 0.01343-1.009 0.377 0 0-0.522 0.9388-0.522 2.095 0 0 0.3045 0.522 1.106 0.5473 0 0 0.1341-0.1595 0.2429-0.2972-0.4603-0.1377-0.6343-0.4241-0.6343-0.4241s0.03625 0.02537 0.1015 0.0616c0.00363 0 0.00723 0.00426 0.01449 0.00746 0.01087 0.00746 0.02175 0.01087 0.03263 0.01812 0.09062 0.05073 0.1812 0.0906 0.2646 0.1232 0.1486 0.06171 0.3262 0.116 0.5328 0.1559 0.2719 0.05073 0.5908 0.06885 0.9388 0.00426 0.1704-0.03261 0.3444-0.07972 0.5256-0.1559 0.1269-0.04711 0.2682-0.116 0.4168-0.2138 0 0-0.1812 0.2936-0.6561 0.4277 0.1087 0.1341 0.2392 0.29 0.2392 0.29 0.8011-0.02537 1.106-0.5473 1.106-0.5437 0-1.156-0.522-2.095-0.522-2.095-0.5183-0.3878-1.015-0.377-1.015-0.377l-0.05074 0.05798c0.6162 0.1848 0.9025 0.4567 0.9025 0.4567-0.377-0.203-0.7467-0.3045-1.091-0.3444-0.261-0.02899-0.5111-0.02174-0.7322 0.00746-0.02175 0-0.03987 0.00426-0.06162 0.00746-0.1269 0.0145-0.435 0.05798-0.8228 0.2284-0.1341 0.05798-0.2139 0.1015-0.2139 0.1015s0.2972-0.2864 0.9497-0.4712l-0.03625-0.04349s-0.00192-3.2e-5 -0.00566-2.13e-5zm-0.09221 1.338c0.2066 0 0.3733 0.1776 0.3697 0.3987 0 0.2211-0.1631 0.3987-0.3697 0.3987-0.203 0-0.3697-0.1776-0.3697-0.3987s0.1631-0.3987 0.3697-0.3987zm1.323 0c0.203 0 0.3697 0.1776 0.3697 0.3987s-0.1631 0.3987-0.3697 0.3987c-0.203 0-0.3697-0.1776-0.3697-0.3987s0.1631-0.3987 0.3697-0.3987z" fill="#ebdbb2" stroke-width="1.066"/>
</svg>
