<svg width="22" height="22" version="1.1" xmlns="http://www.w3.org/2000/svg">
  <defs>
    <style type="text/css">.ColorScheme-Text { color:#ebdbb2; } .ColorScheme-Highlight { color:#458588; }</style>
  </defs>
  <circle class="ColorScheme-Highlight" cx="17.5" cy="4.5" r="1.5" fill="currentColor"/>
  <path d="m8.79 5.29c-0.2121 8.87e-4 -1.967 0.0508-3.817 1.426 0 0-1.974 3.551-1.974 7.924 0 0 1.152 1.974 4.183 2.07 0 0 0.5072-0.6033 0.9188-1.124-1.741-0.5209-2.399-1.604-2.399-1.604s0.1371 0.09596 0.3839 0.233c0.01372 0 0.02736 0.01611 0.05481 0.02822 0.04112 0.02822 0.08227 0.04112 0.1234 0.06854 0.3428 0.1919 0.6854 0.3427 1.001 0.466 0.5621 0.2334 1.234 0.4388 2.015 0.5897 1.028 0.1919 2.235 0.2604 3.551 0.01611 0.6445-0.1233 1.303-0.3015 1.988-0.5897 0.48-0.1782 1.014-0.4388 1.577-0.8087 0 0-0.6854 1.111-2.482 1.618 0.4112 0.5072 0.9048 1.097 0.9048 1.097 3.03-0.09596 4.183-2.07 4.183-2.057 0-4.373-1.974-7.924-1.974-7.924-1.96-1.467-3.839-1.426-3.839-1.426l-0.1919 0.2193c2.331 0.699 3.414 1.727 3.414 1.727-1.426-0.7678-2.824-1.152-4.127-1.303-0.9872-0.1097-1.933-0.08223-2.77 0.02822-0.08227 0-0.1508 0.01613-0.2331 0.02822-0.48 0.05485-1.645 0.2193-3.112 0.8639-0.5072 0.2193-0.8091 0.3839-0.8091 0.3839s1.124-1.083 3.592-1.782l-0.1371-0.1645s-0.00726-1.21e-4 -0.02141-8.1e-5zm-0.3488 5.061c0.7815 0 1.412 0.6718 1.398 1.508 0 0.8363-0.6169 1.508-1.398 1.508-0.7678 0-1.398-0.6718-1.398-1.508s0.6169-1.508 1.398-1.508zm5.004 0c0.7678 0 1.398 0.6718 1.398 1.508s-0.6169 1.508-1.398 1.508c-0.7678 0-1.398-0.6718-1.398-1.508s0.6169-1.508 1.398-1.508z" fill="#ebdbb2" stroke-width="4.032"/>
</svg>
