<svg width="16" height="16" style="isolation:isolate" version="1.1" viewBox="0 0 16 16" xmlns="http://www.w3.org/2000/svg">
  <path d="m8.003 1c-3.137 0-5.689 2.304-5.689 5.132 0 1.455 0.647 3.633 1.609 5.422 1.197 2.223 2.645 3.446 4.077 3.446s2.883-1.223 4.077-3.446c0.962-1.789 1.609-3.971 1.609-5.422 6e-3 -2.828-2.546-5.132-5.683-5.132zm-5.042 5.135c0-2.474 2.262-4.488 5.045-4.488 2.784 0 5.046 2.014 5.046 4.488 0 2.639-2.388 8.228-5.046 8.228-2.657 0-5.045-5.589-5.045-8.228zm4.473 3.015-0.023-0.218c-6e-3 -0.068-0.174-1.654-1.213-2.221-1.042-0.566-2.465 0.155-2.526 0.184l-0.193 0.099 0.023 0.219c6e-3 0.068 0.173 1.654 1.213 2.224 0.293 0.157 0.614 0.215 0.926 0.215 0.805 0 1.555-0.379 1.596-0.402l0.197-0.1zm-2.414-0.28c-0.553-0.302-0.769-1.103-0.846-1.496 0.428-0.174 1.197-0.38 1.715-0.096 0.55 0.299 0.769 1.1 0.846 1.493-0.373 0.151-1.161 0.402-1.715 0.099zm5.393 0.782c0.312 0 0.637-0.058 0.927-0.215 1.039-0.567 1.207-2.156 1.213-2.224l0.022-0.219-0.193-0.099c-0.061-0.032-1.483-0.753-2.525-0.184-1.04 0.567-1.207 2.156-1.213 2.221l-0.023 0.218 0.193 0.1c0.045 0.023 0.795 0.402 1.599 0.402zm1.464-2.275c-0.077 0.393-0.293 1.194-0.846 1.493-0.55 0.3-1.342 0.052-1.715-0.099 0.077-0.393 0.293-1.194 0.846-1.493 0.554-0.3 1.345-0.049 1.715 0.099zm-5.045 4.109h2.304v0.644h-2.304v-0.644z" fill="#ebdbb2" style="isolation:isolate"/>
</svg>
