<svg width="16" height="16" version="1.1" xmlns="http://www.w3.org/2000/svg">
  <defs>
    <style type="text/css">.ColorScheme-Text { color:#ebdbb2; } .ColorScheme-Highlight { color:#458588; }</style>
  </defs>
  <path class="ColorScheme-Text" transform="translate(-512 -200)" d="m518.8 201c-0.4848 1.01-0.9501 2.033-1.395 3.07-0.4444 1.024-0.8956 2.101-1.354 3.232-0.2098 0.534-0.4328 1.133-0.6484 1.697h-0.8594c-0.831 0-1.5 0.669-1.5 1.5 0 0.7412 0.5336 1.349 1.238 1.473-0.3611 0.9689-0.7215 1.934-1.119 3.027h2.658l1.068-3h7.359c0.122 0.3391 0.2415 0.672 0.3672 1.02 0.229 0.633 0.4707 1.294 0.7266 1.98h1.516c-0.4103-1.081-0.7756-2.049-1.141-3.018 0.7474-0.0867 1.326-0.711 1.326-1.482 0-0.831-0.669-1.5-1.5-1.5h-0.9707c-0.2156-0.5521-0.4319-1.118-0.6445-1.637-0.4444-1.131-0.8896-2.215-1.334-3.252-0.4444-1.037-0.9157-2.074-1.414-3.111h-1.197zm1.734 1.576c0.5118 1.158 1.011 2.337 1.496 3.535 0.3611 0.8927 0.7375 1.891 1.113 2.889h-5.186c0.3184-0.8781 0.637-1.755 0.9551-2.586 0.3441-0.8818 0.7004-1.733 1.07-2.555v-0.0156c0.182-0.4253 0.3652-0.8476 0.5508-1.268zm-5.99 7.424h11.07c0.2403 0 0.4336 0.1933 0.4336 0.4336v0.1328c0 0.2403-0.1933 0.4336-0.4336 0.4336h-11.07c-0.277 0-0.5-0.223-0.5-0.5s0.223-0.5 0.5-0.5z" fill="currentColor"/>
  <path class="ColorScheme-Text" transform="matrix(-1 0 0 1 -512 -200)" d="m-521.5 210h7c0.277 0 0.5 0.223 0.5 0.5s-0.223 0.5-0.5 0.5h-7c-0.277 0-0.5-0.223-0.5-0.5s0.223-0.5 0.5-0.5z" color="#ebdbb2" fill="currentColor" opacity=".5"/>
</svg>
