<svg width="16" height="16" version="1.1" viewBox="0 0 16 16" xml:space="preserve" xmlns="http://www.w3.org/2000/svg">
<defs>
  <style type="text/css">
   .ColorScheme-Text { color:#ebdbb2; } .ColorScheme-Highlight { color:#458588; }
  </style>
  
  
  
  
  
  
  
  
  
  
 </defs>
 <path class="ColorScheme-Text" transform="matrix(.001531 0 0 -.001531 .3469 3.821)" d="m5130 1755-394.3-3.828c-219.3 0-546.3-35.66-733.7-71.46-1088-227.3-1946-753.4-2747-1698-546.2-641.9-973.5-1619-1105-2532-179.4-1268 120.2-2469 913.6-3657 223.3-334.9 271.3-381.9 506.6-501.5 454.5-239.2 884.6-375.9 1547-483.6 67.8-12 127.6-15.66 127.6-7.656 0 7.9-99.53 92.05-227.1 183.7-358.8 271.2-936.5 881.7-1196 1265-641.9 937-841.4 1630-797.5 2763 16 458.5 44.07 645.5 123.8 904.7 530.2 1734 1969 2923 3556 2939l326.7 3.828 24.24 259c16 143.5 35.04 342.8 51.04 450.4l24.24 187.6zm-104.6-1173c-230 0.2953-442-7.215-525.7-19.14-1252-203.3-2324-1013-2870-2165-498.4-1045-450.3-2392 123.8-3521 414.7-813.4 1124-1514 1965-1937l315.2-155.7h1395c1503 0 1763 23.91 2361 223.3 287.1 91.7 542.1 215.5 322.8 155.7-191.4-55.8-1766-28.07-2213 35.73-2312 338.9-3704 1710-3704 3652 0 450.5 12.35 533.7 119.9 844.7 223.3 649.9 629.7 1185 1160 1524 522.3 334.9 1025 478.9 1663 470.9 466.5 0 841.2-76.32 1252-243.7 163.5-67.8 303.5-114.9 307.5-111 8 4 95.53 179.4 195.2 382.8 211.3 426.6 211.8 425.9-139.1 561.5-518.3 203.3-917.3 284-1496 299.9-76.68 1.95-155.6 2.454-232.2 2.552zm215.6-1143c-193.6 0.2178-392.9-20.1-601-59.97-350.9-67.8-937.8-343.6-1197-558.9-626-518.3-932.8-1212-932.8-2089 0-546.3 64.67-837.6 299.9-1304 458.5-913 1423-1534 2886-1849 350.9-79.7 554.4-92.46 1723-108.5l1327-15.31 187.6 111c179.4 103.7 1001 877.9 964.7 909.8-7.9 4-158.9-0.5164-334.3-20.42-175.4-16-726.8-51.39-1221-75.29-1890-87.7-3017 95.47-3930 645.7-267.1 163.5-685.7 594-801.3 833.2-410.7 853.3-175.6 1858 550 2344 857.2 570.2 2030 351.1 2584-486.2l99.53-148 382.8 204.2c211.3 115.6 390.2 210.2 398.1 218.2 47.9 39.9-171.2 347.2-454.3 634.2-263.2 271.1-383.1 358.7-698 514.2-408.4 200.2-806.8 299.4-1233 299.9z" fill="currentColor"/>
</svg>
