<svg width="16" height="16" style="isolation:isolate" version="1.1" viewBox="0 0 16 16" xmlns="http://www.w3.org/2000/svg">
  <defs>
    <style type="text/css">.ColorScheme-Text { color:#ebdbb2; } .ColorScheme-Highlight { color:#458588; }</style>
  </defs>
  <path class="ColorScheme-Text" d="m14.52 3.504c0.048 0.425-0.035 0.868 0.013 1.3 0.05 0.47-0.015 0.964-0.1 1.427-0.01-0.376-0.02-0.756-0.04-1.124-0.021-0.387-0.176-0.785-0.281-1.163 0.113 0.795 0.163 1.601 0.183 2.398 0.015 0.617 0.017 1.258-0.086 1.859-0.1 0.587-0.408 1.176-0.601 1.72-0.286 0.805-0.196 1.881-0.264 2.766 0 0-0.067 0.154-0.183-0.596-0.155-1.014-0.242-2.125-0.222-3.157v-0.024c0-0.013-2e-3 -0.035-2e-3 -0.035s-0.033 0.094-0.038 0.122c-2e-3 0.01-7e-3 0.037-7e-3 0.044v3e-3c-3e-3 0.012-5e-3 0.027-8e-3 0.044-2e-3 0.01-2e-3 0.018-5e-3 0.028-2e-3 0.017-7e-3 0.04-0.01 0.059-2e-3 0.01-5e-3 0.023-5e-3 0.033-0.015 0.082-0.035 0.184-0.06 0.305-0.123 0.584-0.867 0.848-0.949 1.437-3e-3 0.013-1.131 0.104-5e-3 0.035-0.068 0.407-0.105 0.548-0.358 0.834-0.268 0.303-0.099-0.186-0.462 0.028 0.347 0.09 0.015-0.01 0 0-0.487 0.328 0.996-0.297 0.487-0.023-0.035 0.019 0.255-0.281-0.025-5e-3 0.926-0.403-0.57 0.837-0.553 0.817 0.131-0.139-0.085 0.156 0 0 0.705-0.971-2e-3 5e-3 0 0 0.281-0.567-0.162-0.205 0.091-0.789 0 0-0.07 0.105-0.158 0.229-0.11 0.154-0.256 0.343-0.316 0.415-0.477 0.571-0.813 1.401-1.312 1.946-0.18 0.196-0.489 0.271-0.692 0.462-0.19 0.179-0.464 0.296-0.712 0.338-0.401 0.067-0.827 0.311-1.236 0.46 0 0 0.241-0.286 0.416-0.512 0.366-0.477 0.705-0.979 1.013-1.499-7e-3 5e-3 -0.215 0.174-0.351 0.465-0.236 0.514-0.825 0.9-1.234 1.297-0.301 0.294-0.724 0.465-1.133 0.552-0.69-0.027-1.392-0.102-2.061-0.266-0.557-0.139-1.573-0.46-1.776-0.84-0.027-0.055-0.04-0.273 0.076-0.482 0.2-0.363 0.604-0.664 0.85-1.017 0.461-0.668 1.121-1.682 1.785-2.077 0.369-0.219 0.863-0.351 1.294-0.525 0.198-0.067 0.293-0.101 0.489-0.174-0.487 0.107-0.955 0.289-1.419 0.463 0 0 2e-3 5e-3 0.25-0.323 0.276-0.363 0.64-0.664 0.961-0.982 0.564-0.559 1.938-1.464 1.938-1.464s-0.73 0.433-1.111 0.438c-0.23 2e-3 -0.456 0.136-0.647 0.256 0.236-0.264 0.489-0.52 0.733-0.773 0.491-0.517 1.166-0.888 1.767-1.275-0.298 0.062-0.629 0.032-0.927-0.013 0.566-0.353 1.118-0.753 1.592-1.213 1.166-1.135 1.74-2.8 2.643-4.115 0.414-0.602 0.986-1.126 1.535-1.618 0 0 0.366 0.055 0.421 0.263 0.135 0.52 0.366 1.037 0.544 1.554 0.186 0.529 0.206 1.13 0.268 1.687z" fill="currentColor"/>
</svg>
