<svg width="16" height="16" style="isolation:isolate" version="1.1" viewBox="0 0 16 16" xmlns="http://www.w3.org/2000/svg">
  <path d="m6.567 1.001c-0.1479 0.01575-0.2791 0.1374-0.3062 0.2844l-0.2949 1.498c-0.5302 0.2074-1.028 0.4918-1.466 0.8418l-1.454-0.4918c-0.1514-0.0525-0.3342 0.01575-0.4156 0.1531l-1.4 2.428c-0.07875 0.14-0.0455 0.3325 0.07612 0.4375l1.159 1.017c-0.04025 0.273-0.06562 0.5478-0.06562 0.8312 0 0.2844 0.02538 0.5582 0.06562 0.8312l-1.159 1.018c-0.1216 0.1041-0.1549 0.2975-0.07612 0.4375l1.4 2.428c0.08138 0.1374 0.2642 0.2048 0.4156 0.1531l1.454-0.4926c0.4375 0.35 0.9354 0.6352 1.466 0.8426l0.2958 1.498c0.02975 0.1566 0.1794 0.2826 0.3386 0.2844h2.8c0.1592-0.0017 0.3089-0.1278 0.3386-0.2844l0.2957-1.498c0.5302-0.2074 1.028-0.4926 1.466-0.8426l1.454 0.4926c0.1514 0.05162 0.3342-0.01575 0.4156-0.1531l1.4-2.428c0.07875-0.14 0.0455-0.3334-0.07613-0.4375l-1.159-1.018c0.04025-0.2721 0.06562-0.5469 0.06562-0.8312 0-0.2835-0.02538-0.5582-0.06563-0.8312l1.159-1.017c0.1216-0.105 0.1549-0.2975 0.07613-0.4375l-1.4-2.428c-0.08138-0.1374-0.2643-0.2056-0.4156-0.1531l-1.454 0.4918c-0.4375-0.35-0.9354-0.6344-1.466-0.8418l-0.2957-1.499c-0.02975-0.1566-0.1794-0.2818-0.3386-0.2844h-2.8-0.03238zm-1.192 6.999c0-1.449 1.176-2.625 2.625-2.625s2.625 1.176 2.625 2.625-1.176 2.625-2.625 2.625-2.625-1.176-2.625-2.625z" fill="#ebdbb2" fill-rule="evenodd" stroke-width=".875"/>
</svg>
