<svg width="16" height="16" version="1.1" viewBox="0 0 16 16" xml:space="preserve" xmlns="http://www.w3.org/2000/svg">
<defs>
  <style type="text/css">
   .ColorScheme-Text { color:#ebdbb2; } .ColorScheme-Highlight { color:#458588; }
  </style>
  
  
  
  
  
  
  
  
  
  
 </defs>
 
<path d="m5 0.9801h6v9.492h-6z" fill="#ebdbb2" fill-rule="evenodd" opacity=".3" stroke-width=".2014" style="isolation:isolate"/><path d="m8.489 5.238c-0.2695 8.32e-5 -0.488 0.2186-0.4881 0.4881 8.26e-5 0.2695 0.2186 0.488 0.4881 0.4881 0.2695-8.22e-5 0.488-0.2186 0.4881-0.4881-8.25e-5 -0.2695-0.2186-0.488-0.4881-0.4881zm5.694 2.928c-0.1769 0.00394-0.3181 0.1485-0.3181 0.3254 0 0.1769 0.1412 0.3214 0.3181 0.3254 0.1769-0.00394 0.3181-0.1485 0.3181-0.3254 0-0.1769-0.1412-0.3214-0.3181-0.3254zm-11.55-1.952c-0.2695 8.32e-5 -0.488 0.2186-0.4881 0.4881 8.25e-5 0.2695 0.2186 0.488 0.4881 0.4881 0.2695-8.23e-5 0.488-0.2186 0.4881-0.4881-8.25e-5 -0.2695-0.2186-0.488-0.4881-0.4881zm3.831 0.3579c-0.02179 0.00255-0.04292 0.00875-0.06339 0.01791-0.1647 0.07222-0.2203 0.3071-0.00396 0.8007 0.2167 0.4936 0.5255 0.8355 0.6901 0.7633 0.1647-0.07222 0.1224-0.5306-0.09401-1.024-0.1893-0.4321-0.3751-0.5763-0.5287-0.5574m-1.948 0.2066c-0.1285-0.01106-0.3048 0.1168-0.1448 0.2987 0.2131 0.2427 0.3254 0.6748 0.1354 0.7613-0.191 0.08658-0.177-0.3221-0.1939-0.5395-0.01659-0.2173-0.5457-0.3481-0.7409-0.07874-0.1953 0.2694 0.00123 0.5597 0.1945 0.6182 0.1933 0.05893 0.2232 0.2801 0.3381 0.5102 0.1151 0.23 0.6754 0.1725 0.8121 0 0.1367-0.1724 0.2216-0.4929-0.04457-0.7887-0.2662-0.2957-0.1855-0.5704-0.2574-0.7214-0.01791-0.03772-0.05563-0.05662-0.09863-0.0605m6.343 0.02542c-0.1728-0.04069-0.244 0.2847-0.2847 0.5899-0.04069 0.3051-0.1932 0.6201-0.06116 0.6813 0.1832 0.08138 0.2766-0.419 0.4835-0.6062 0.2069-0.1874 0.03484-0.6241-0.138-0.6647m-5.46 0.06116c-0.1769 0.00394-0.3181 0.1485-0.3181 0.3254 0 0.1769 0.1412 0.3214 0.3181 0.3254 0.1769-0.00394 0.3181-0.1485 0.3181-0.3254 0-0.1769-0.1412-0.3214-0.3181-0.3254zm3.954 0.07676c-0.2115 0.0156-0.422 0.3765-0.5255 0.6266-0.1184 0.2857 0.02476 0.8427-0.2541 1.052-0.2789 0.2092-0.4829 0.2151-0.6222 0.1315-0.1392-0.08369 0.1194-0.07288-0.03607-0.3915-0.1558-0.3185-0.5284-0.219-0.6261 0.0293-0.09756 0.2483 0.1048 0.2369 0.03483 0.3833-0.06958 0.1464-0.6625 0.3045-0.7948-0.1347-0.1325-0.4393-0.6029-0.9173-0.7494-0.7988-0.1464 0.1184 0.01758 0.5551 0.4009 0.9035 0.3833 0.3485-0.0983 0.5363-0.4314 0.2739-0.3332-0.2626-0.7249 0.1995-1.028 0.5086-0.3036 0.3088-0.5746 0.3299-0.7906 0.1448-0.2158-0.1848-0.026-0.6879-0.2753-1.194-0.2489-0.5055-0.7438-0.2537-0.8134 0.0879-0.06966 0.3416 0.6247 0.5717 0.49 0.7613-0.1347 0.1897-0.6733 0.1468-0.832-0.2108-0.1585-0.3576-0.504-0.2418-0.5108 0.05076-0.006852 0.2928 0.2674 0.08848 0.4815 0.3026l5.531 5.531 5.531-5.531c0.6507-0.6507-0.09434-0.3719-0.2479-0.2255-0.1533 0.1464-0.6273 0.2652-0.6833 0.1047-0.05564-0.1604 0.531-0.4294 0.6983-0.6107 0.1672-0.1812 0.3309-0.696 0.0605-0.8846-0.2704-0.1888-0.654 0.152-0.8203 0.4028-0.1672 0.2508-0.02213 0.8902-0.2453 1.085-0.2233 0.1952-0.3459 0.07644-0.3875-0.09079-0.042-0.1672 0.4815-0.4025 0.2619-0.8186-0.22-0.4162-0.6261-0.2275-0.8141-0.0326-0.1881 0.1953 0.1132 0.4959 0.1832 0.8028 0.06967 0.3068-0.6439 0.299-0.9227 0.1874-0.2789-0.1116-0.3696-0.8128-0.488-0.8548-0.1184-0.04193-0.4204 0.2323-0.804 0.1139-0.3833-0.1184-0.06504-0.3547 0.0534-0.6335 0.1184-0.2788 0.3055-0.9508 0.06603-1.056-0.02823-0.01279-0.05926-0.01832-0.09013-0.01593m3.367-0.4021c-0.2695 8.3e-5 -0.488 0.2186-0.4881 0.4881 8.2e-5 0.2695 0.2186 0.488 0.4881 0.4881 0.2695-8.23e-5 0.488-0.2186 0.4881-0.4881-8.2e-5 -0.2695-0.2186-0.488-0.4881-0.4881zm-11.23 1.301c-0.1769 0.00395-0.3181 0.1485-0.3181 0.3254 0 0.1769 0.1412 0.3214 0.3181 0.3254 0.1769-0.00395 0.3181-0.1485 0.3181-0.3254 0-0.1769-0.1412-0.3214-0.3181-0.3254z" fill="#ebdbb2" fill-rule="evenodd" stroke-width=".08254" style="isolation:isolate"/></svg>
