<svg width="16" height="16" version="1.1" xmlns="http://www.w3.org/2000/svg">
  <defs>
    <style type="text/css">.ColorScheme-Text { color:#ebdbb2; } .ColorScheme-Highlight { color:#458588; }</style>
  </defs>
  <path transform="matrix(.35 0 0 .35 -135.3 -175.3)" d="m389.6 503.8v40h2.857v-17.79c4.256 0.8844 7.028 3.708 9.442 6.763 1.458 1.846 2.728 3.753 4.085 5.296 1.357 1.543 2.925 2.863 4.994 2.879s3.581-1.393 4.683-2.968c1.102-1.575 2.018-3.482 3.131-5.318 2.224-3.672 4.866-6.942 10.81-6.942v-3.839c-2.92 0-4.934-0.9622-6.613-2.467-1.679-1.504-2.974-3.604-4.079-5.798-1.105-2.194-2.008-4.45-3.08-6.289-0.59-1.012-2.097-3.535-4.727-3.516-2.182 0.0179-3.734 1.604-5.089 3.415-1.355 1.812-2.633 4.066-4.113 6.267-2.443 3.632-5.251 6.976-9.442 8.036v-17.73zm21.52 2.868c1.168 0.1903 1.573 1.223 2.232 2.093 0.9007 1.545 1.823 3.809 2.997 6.138 1.174 2.33 2.616 4.755 4.727 6.646 0.3244 0.2907 0.6683 0.5657 1.027 0.8259h-1.936v-1.429h-1.998v1.429h-7.573v-1.429h-1.998v1.429h-7.573v-1.429h-1.719c1.981-1.724 3.593-3.827 4.955-5.854 1.554-2.311 2.851-4.568 4.035-6.15s2.136-2.266 2.824-2.271zm-12.09 14.5v1.2h-1.602c0.5605-0.3685 1.091-0.7726 1.602-1.2zm-1.06 4.057h1.06v0.7031c-0.3412-0.2457-0.6969-0.4789-1.06-0.7031zm3.058 0h7.573v1.429h1.998v-1.429h7.573v1.429h1.73c-1.47 1.384-2.621 2.984-3.555 4.526-1.198 1.977-2.136 3.879-3.03 5.156-0.8938 1.277-1.515 1.758-2.316 1.752-0.8057-7e-3 -1.715-0.5962-2.874-1.914-1.159-1.318-2.439-3.217-3.984-5.173-1.174-1.487-2.538-3.018-4.163-4.347h1.049zm19.14 0h1.501c-0.5342 0.3663-1.034 0.7628-1.501 1.183z" color="#000000" fill="#ebdbb2" stroke-width="2.857" style="-inkscape-stroke:none"/>
</svg>
