<svg width="16" height="16" version="1.1" xmlns="http://www.w3.org/2000/svg">
  <defs>
    <style type="text/css">.ColorScheme-Text { color:#ebdbb2; } .ColorScheme-Highlight { color:#458588; }</style>
  </defs>
  <path d="m10 3-4 10h10v-10zm2 2c0.1846 0 0.334 0.1524 0.334 0.3418v0.6914c-0.2211-0.03744-0.4469-0.03744-0.668 0v-0.6914c0-0.1894 0.1494-0.3418 0.334-0.3418zm-1.645 0.8848 0.4863 0.4863c-0.09113 0.06435-0.1767 0.1362-0.2559 0.2148-0.07863 0.07914-0.1505 0.1647-0.2148 0.2559l-0.4863-0.4863c-0.1339-0.1339-0.1364-0.346-0.005859-0.4766 0.1322-0.1322 0.3459-0.1248 0.4766 0.005859zm3.766-0.00586c0.1305 0.1306 0.1281 0.3426-0.0059 0.4766l-0.4863 0.4863c-0.06435-0.09113-0.1362-0.1767-0.2148-0.2559-0.07914-0.07863-0.1647-0.1505-0.2559-0.2148l0.4863-0.4863c0.1306-0.1306 0.3444-0.138 0.4766-0.00586zm-1.061 1.061c0.5856 0.5858 0.5856 1.535 0 2.121-0.5858 0.5856-1.535 0.5856-2.121 0-0.5856-0.5858-0.5856-1.535 0-2.121 0.5812-0.5813 1.533-0.5877 2.121 0zm-3.719 0.7266h0.6914c-0.03744 0.2211-0.03744 0.4469 0 0.668h-0.6914c-0.1894-1e-7 -0.3418-0.1494-0.3418-0.334s0.1524-0.334 0.3418-0.334zm4.629 0h0.6875c0.1894 0 0.3418 0.1494 0.3418 0.334 0 0.1846-0.1524 0.334-0.3418 0.334h-0.6875c0.03744-0.2211 0.03744-0.4469 0-0.668zm-3.6 1.492c0.06435 0.09113 0.1362 0.1767 0.2148 0.2559 0.07914 0.07862 0.1647 0.1505 0.2559 0.2148l-0.4863 0.4863c-0.1339 0.134-0.346 0.1364-0.4766 0.0059-0.1306-0.1306-0.1281-0.3426 0.00586-0.4766zm3.258 0 0.4863 0.4863c0.134 0.1339 0.1364 0.346 0.0059 0.4766-0.1306 0.1305-0.3426 0.1281-0.4766-0.0059l-0.4864-0.4863c0.09113-0.06435 0.1767-0.1362 0.2559-0.2148 0.07863-0.07914 0.1505-0.1647 0.2148-0.2559zm-1.963 0.8086c0.2211 0.03744 0.4469 0.03744 0.668 0v0.6914c-1e-6 0.1894-0.1494 0.3418-0.334 0.3418s-0.334-0.1524-0.334-0.3418zm-8.666-4.967c-1.657 0-3 1.343-3 3 0 1.657 1.343 3 3 3 1.657 0 3-1.343 3-3 0-0.1775-0.0158-0.3532-0.04688-0.5273-0.2051 0.9341-1.032 1.598-1.988 1.598-1.124 0-2.035-0.911-2.035-2.035 0-0.9568 0.6635-1.783 1.598-1.988-0.1741-0.03097-0.3499-0.04688-0.5273-0.04688z" fill="#ebdbb2" stroke-width="1.333"/>
</svg>
