<svg width="16" height="16" version="1.1" xmlns="http://www.w3.org/2000/svg">
  <path transform="translate(-492 -180)" d="m505.5 181c-0.1153-8e-3 -0.2505 2e-3 -0.4102 0.0156l-7.209 1.125c-0.8133 0.0828-0.9018 0.4625-0.8945 0.9355v8.576c-0.4134-0.2716-0.8558-0.4648-1.445-0.4648-0.7591 0-1.212 0.291-1.486 0.6738-0.274 0.3828-0.3652 0.8652-0.3652 1.238 0 0.4498 0.1551 0.9291 0.4883 1.295s0.8455 0.623 1.582 0.623c0.8317 0 1.415-0.232 1.746-0.6856 0.2604-0.3571 0.4056-0.8353 0.457-1.424 7e-3 -0.0714 0.0111-0.1452 0.0156-0.2207 4e-3 -0.0599 3e-3 -0.1018 4e-3 -0.1719h0.00384v-6.76c0.0221-0.6194 0.584-0.7109 0.584-0.7109l5.854-0.9141c0.5619-0.1718 0.5625 0.5234 0.5625 0.5234v5.998c-0.4134-0.2716-0.8558-0.4648-1.445-0.4648-0.7591 0-1.212 0.291-1.486 0.6738-0.274 0.3828-0.3652 0.8652-0.3652 1.238 0 0.4498 0.1551 0.9291 0.4883 1.295 0.3332 0.3658 0.8455 0.623 1.582 0.623 0.8317 0 1.415-0.232 1.746-0.6855 0.2604-0.3571 0.4056-0.8354 0.457-1.424 7e-3 -0.0714 0.0111-0.1452 0.0156-0.2207 4e-3 -0.0599 3e-3 -0.1018 4e-3 -0.1719h0.00384v-9.625c0.0119-0.6856-0.1405-0.8662-0.4863-0.8906z" fill="#ebdbb2" fill-rule="evenodd" solid-color="#ebdbb2"/>
</svg>
