<svg width="16" height="16" style="isolation:isolate" version="1.1" viewBox="0 0 16 16" xmlns="http://www.w3.org/2000/svg">
  <path d="m8 1c-3.866 0-7 3.134-7 7 0 3.866 3.134 7 7 7 0.5049-0.0026 1.008-0.06024 1.5-0.1709-3.209-0.7042-5.497-3.544-5.5-6.829 0.002657-3.281 2.283-6.12 5.487-6.829-0.488-0.1098-0.9867-0.1674-1.487-0.1709z" fill="#ebdbb2" fill-rule="evenodd" stroke-width=".8857" style="isolation:isolate"/>
  <path class="ColorScheme-Text" d="m8.74 3-0.1112 1.317a3.965 3.928 0 0 0-1.159 0.664l-1.208-0.5635-1.262 2.165 1.097 0.7546a3.965 3.928 0 0 0-0.06055 0.6626 3.965 3.928 0 0 0 0.05773 0.6654l-1.094 0.7518 1.262 2.165 1.205-0.5621a3.965 3.928 0 0 0 1.162 0.6598l0.1084 1.321h2.523l0.1112-1.317a3.965 3.928 0 0 0 1.159-0.664l1.208 0.5635 1.262-2.165-1.097-0.7546a3.965 3.928 0 0 0 0.06055-0.6626 3.965 3.928 0 0 0-0.05774-0.6654l1.094-0.7518-1.262-2.165-1.205 0.5621a3.965 3.928 0 0 0-1.162-0.6598l-0.1084-1.321zm1.262 3.571a1.442 1.428 0 0 1 1.442 1.428 1.442 1.428 0 0 1-1.442 1.428 1.442 1.428 0 0 1-1.442-1.428 1.442 1.428 0 0 1 1.442-1.428z" color="#ebdbb2" fill="currentColor" stroke-width=".7175"/>
</svg>
