<svg width="16" height="16" version="1.1" xmlns="http://www.w3.org/2000/svg">
  <defs>
    <style type="text/css">.ColorScheme-Text { color:#ebdbb2; } .ColorScheme-Highlight { color:#458588; }</style>
  </defs>
  <path class="ColorScheme-Text" d="m5.494 2e-4c-1.258 0.0145-2.179-0.0306-2.932 0.3848-0.3764 0.2077-0.6732 0.5594-0.8379 0.998-0.1647 0.4387-0.2246 0.9596-0.2246 1.617v10c0 0.6576 0.0599 1.179 0.2246 1.617 0.1647 0.4387 0.4615 0.7904 0.8379 0.998 0.7528 0.4153 1.673 0.3702 2.932 0.3848h5.012c1.258-0.0145 2.179 0.0306 2.932-0.3848 0.3764-0.2077 0.6732-0.5594 0.8379-0.998 0.1645-0.4387 0.2246-0.9596 0.2246-1.617v-10c0-0.6576-0.0599-1.179-0.2246-1.617-0.1647-0.4387-0.4615-0.7904-0.8379-0.998-0.7528-0.4153-1.673-0.3702-2.932-0.3848zm0.00586 1h5c1.259 0.0147 2.087 0.0598 2.453 0.2617 0.1834 0.1012 0.2892 0.2127 0.3867 0.4726 0.09743 0.2599 0.1602 0.6732 0.1602 1.266v10c0 0.5924-0.0626 1.006-0.1602 1.266-0.0976 0.2599-0.2033 0.3715-0.3867 0.4727-0.366 0.2019-1.195 0.247-2.453 0.2617h-5c-1.259-0.0147-2.089-0.0598-2.455-0.2617-0.1834-0.1012-0.2872-0.2128-0.3848-0.4727-0.09757-0.2599-0.1602-0.6732-0.1602-1.266v-10c0-0.5924 0.0626-1.006 0.1602-1.266 0.0976-0.2599 0.2014-0.3715 0.3848-0.4726 0.366-0.2019 1.197-0.247 2.455-0.2617zm2 2-1 2h1v4.486c-0.2558-0.1625-0.5196-0.3057-0.7754-0.4336-0.375-0.1875-0.7215-0.3685-0.9356-0.5469s-0.2891-0.2975-0.2891-0.5059a1 1 0 0 0 1-1 1 1 0 0 0-1-1 1 1 0 0 0-1 1v1c0 0.5417 0.3 0.985 0.6484 1.275 0.3484 0.2904 0.7539 0.4844 1.129 0.6719s0.7195 0.3685 0.9336 0.5469 0.2891 0.2975 0.2891 0.5059c-0.277 0-0.5 0.223-0.5 0.5v1c0 0.277 0.223 0.5 0.5 0.5h1c0.277 0 0.5-0.223 0.5-0.5v-1c0-0.277-0.223-0.5-0.5-0.5v-1c0-0.2083 0.075-0.3275 0.2891-0.5059s0.5606-0.3594 0.9356-0.5469 0.7785-0.3815 1.127-0.6719c0.3484-0.2904 0.6484-0.7337 0.6484-1.275v-1.5c0-0.277-0.223-0.5-0.5-0.5h-1c-0.277 0-0.5 0.223-0.5 0.5v1c0 0.277 0.223 0.5 0.5 0.5h0.5c0 0.2083-0.075 0.3275-0.2891 0.5059s-0.5586 0.3594-0.9336 0.5469c-0.2561 0.128-0.5207 0.2709-0.7773 0.4336v-3.486h1l-1-2h-1z" fill="currentColor"/>
</svg>
