<svg width="16" height="16" version="1.1" viewBox="0 0 4.233 4.233" xmlns="http://www.w3.org/2000/svg">
  <path d="m2.117 0.2646c-1.023-4e-8 -1.852 0.8292-1.852 1.852 0.001601 0.389 0.1256 0.7676 0.3545 1.082 0.05699-0.4281 0.3633-0.8667 0.79-0.9302 0.1846-0.4364 0.6425-0.6428 1.146-0.6428 0.5901 0 1.082 0.4226 1.193 0.9803 0.05029 0.00577 0.09903 0.01641 0.1462 0.03049 0.04937-0.1689 0.07443-0.3439 0.07441-0.5199 0-1.023-0.8292-1.852-1.852-1.852zm0.3969 1.778c-0.3768 0-0.6975 0.2307-0.8356 0.5571-0.3507 0.05214-0.6196 0.351-0.6196 0.7162 0 0.4019 0.3258 0.7276 0.7276 0.7276h1.546c0.3514 0 0.6366-0.285 0.6366-0.6366 0-0.3267-0.2455-0.5946-0.5627-0.631-0.0827-0.4171-0.451-0.7333-0.8924-0.7333z" fill="#ebdbb2" fill-rule="evenodd" stroke-linejoin="round"/>
</svg>
