<svg width="16" height="16" style="isolation:isolate" version="1.1" viewBox="0 0 16 16" xmlns="http://www.w3.org/2000/svg">
  <defs>
    <style type="text/css">.ColorScheme-Text { color:#ebdbb2; } .ColorScheme-Highlight { color:#458588; }</style>
  </defs>
  <path class="ColorScheme-Text" d="m2 2s-1 4e-6 -1 1v9c0 1 1 1 1 1h2l1 1h3.67c-1.235 3.25e-4 -2.321-0.8147-2.666-2l-1.004-1h-2v-7h1.5v2h1v-2h1v2h1v-2h1v2h1v-2h1v2h1v-2h1.5v2.016c0.07463-0.008244 0.1496-0.01346 0.2246-0.01562 0.6489 7.188e-4 1.277 0.2288 1.775 0.6445v-3.645c0-1-1-1-1-1z" color="#ebdbb2" fill="#ebdbb2" style="isolation:isolate"/>
  <path class="ColorScheme-Text" d="m11.57 8.714c8.63e-4 0.07057 0.0061 0.141 0.01562 0.2109l-1.684 0.8418c-0.3193-0.3083-0.7455-0.4821-1.189-0.4824-0.9468 0-1.715 0.768-1.715 1.715 0 0.9468 0.768 1.715 1.715 1.715 0.4428-0.0015 0.8673-0.1745 1.186-0.4824l1.688 0.8418c-0.0096 0.06994-0.01476 0.1404-0.01562 0.2109 0 0.9468 0.7661 1.715 1.713 1.715 0.9468 0 1.715-0.768 1.715-1.715s-0.768-1.713-1.715-1.713c-0.4428 0.0015-0.8673 0.1745-1.186 0.4824l-1.686-0.8438c0.0096-0.06994 0.01477-0.1404 0.01563-0.2109-1.23e-4 -0.07051-0.0049-0.141-0.01367-0.2109l1.684-0.8438c0.3183 0.3079 0.7427 0.4809 1.186 0.4824 0.9468 0 1.715-0.7661 1.715-1.713-3e-6 -0.9468-0.768-1.715-1.715-1.715s-1.714 0.768-1.714 1.715z" fill="#ebdbb2"/>
</svg>
