<svg width="16" height="16" version="1.1" xmlns="http://www.w3.org/2000/svg">
  <path d="m5 1-0.707 0.707 2.104 2.104h-5.797c-0.3326 0-0.5996 0.2689-0.5996 0.6016v9.988c0 0.3326 0.267 0.5996 0.5996 0.5996h14.8c0.3326 0 0.5996-0.267 0.5996-0.5996v-9.988c0-0.3326-0.267-0.6016-0.5996-0.6016h-6.797l2.104-2.104-0.707-0.707-2.5 2.5-2.5-2.5zm9.25 4.088a0.5963 0.5963 0 0 1 0.5566 0.5957 0.5967 0.5967 0 1 1-1.193 0 0.5963 0.5963 0 0 1 0.5254-0.5918 0.5963 0.5963 0 0 1 0.1113-0.003906zm-12.25 0.127h9.988c0.3324 0 0.6016 0.2668 0.6016 0.5996v7.189c0 0.3328-0.2692 0.6016-0.6016 0.6016h-9.988c-0.3328 0-0.6016-0.2688-0.6016-0.6016v-7.189c0-0.3328 0.2688-0.5996 0.6016-0.5996zm4.994 0.3672c-1.581 0-2.865 1.284-2.865 2.865 0 0.9098 0.4261 1.721 1.088 2.246-0.8575 0.5654-1.397 1.536-1.744 2.545h7.045c-0.328-1.019-0.8503-2.006-1.686-2.594 0.6279-0.5256 1.027-1.315 1.027-2.197 0-1.582-1.284-2.865-2.865-2.865zm7.148 1.355a0.5963 0.5963 0 0 1 0.668 0.5918 0.5967 0.5967 0 1 1-1.193 0 0.5963 0.5963 0 0 1 0.5254-0.5918zm0 1.846a0.5963 0.5963 0 0 1 0.668 0.5918 0.5967 0.5967 0 1 1-1.193 0 0.5963 0.5963 0 0 1 0.5254-0.5918z" fill="#ebdbb2"/>
</svg>
