<svg width="16" height="16" style="isolation:isolate" version="1.1" viewBox="0 0 16 16" xmlns="http://www.w3.org/2000/svg">
  <path d="m8 1a7 7 0 0 0-7 7 7 7 0 0 0 7 7 7 7 0 0 0 7-7 7 7 0 0 0-7-7zm-0.834 2.068v3.49a1.668 1.668 0 0 0-0.6094 0.6074h-3.486a5.004 5.004 0 0 1 4.096-4.098zm1.668 0.001953a5.004 5.004 0 0 1 4.098 4.096h-3.49a1.668 1.668 0 0 0-0.6074-0.6094v-3.486zm-5.766 5.764h3.49a1.668 1.668 0 0 0 0.6074 0.6094v3.486a5.004 5.004 0 0 1-4.098-4.096zm6.375 0h3.486a5.004 5.004 0 0 1-4.096 4.098v-3.49a1.668 1.668 0 0 0 0.6094-0.6074z" fill="#ebdbb2" fill-rule="evenodd" stroke-linejoin="round" stroke-width="5.667"/>
</svg>
