<svg width="16" height="16" style="isolation:isolate" version="1.1" viewBox="0 0 16 16" xmlns="http://www.w3.org/2000/svg">
  <path d="m8 1c-3.878 0-7 3.122-7 7 0 3.878 3.122 7 7 7 3.878 0 7-3.122 7-7 0-3.878-3.122-7-7-7zm-0.2148 1.98a5.025 5.025 0 0 1 0.6875 0.01758l-0.6699 2.498a2.513 2.513 0 0 0-1.871 1.082l-2.496-0.6699a5.025 5.025 0 0 1 4.35-2.928zm2.305 0.4531a5.025 5.025 0 0 1 2.912 5.039l-2.498-0.6699a2.513 2.513 0 0 0-1.082-1.871l0.668-2.498zm-7.092 4.092 2.498 0.6699a2.513 2.513 0 0 0 1.082 1.871l-0.668 2.498a5.025 5.025 0 0 1-2.912-5.039zm7.07 1.895 2.496 0.6699a5.025 5.025 0 0 1-5.037 2.91l0.6699-2.498a2.513 2.513 0 0 0 1.871-1.082z" fill="#ebdbb2" stroke-width=".875"/>
</svg>
