<svg width="16" height="16" style="isolation:isolate" version="1.1" viewBox="0 0 16 16" xmlns="http://www.w3.org/2000/svg">
  <path d="m4 2v0.9512l0.998 0.5703 3.002-0.04297 3.002 0.04297 0.998-0.5703v-0.9512l-2 1.24v-0.7695l-1 0.7695v-0.7695l-1 0.7695-1-0.7695v0.7695l-1-0.7695v0.7695l-2-1.24zm-1.188 3.059c-0.6664 0.2998-1.276 0.5071-1.812 0.9414l1.5 1-2.5 1.5 3 0.5-2 2.5 2-0.4824v0.9824l2-0.5-0.5 1 2.178-0.8828c-0.03964-0.3396-0.0824-0.6653-0.1309-0.9473-0.05978-0.8939-0.1176-1.476-0.2129-2.012-0.08223-0.4625-0.2358-0.9243-0.8105-1.449-0.7914-0.7058-2.038-1.169-2.711-2.15zm10.38 0c-0.6727 0.9813-1.92 1.445-2.711 2.15-0.5747 0.5249-0.7283 0.9868-0.8105 1.449-0.09526 0.5357-0.1531 1.118-0.2129 2.012-0.04846 0.282-0.09122 0.6077-0.1309 0.9473l2.178 0.8828-0.5-1 2 0.5v-0.9824l2 0.4824-2-2.5 3-0.5-2.5-1.5 1.5-1c-0.5362-0.4343-1.146-0.6416-1.812-0.9414zm-3.988 3.844c-0.02341 0.008991-0.04531 0.01978-0.06836 0.0293-0.1207 0.565-0.3812 1.293-0.7305 1.568v-1h-0.8008v1c-0.3474-0.2736-0.6072-0.9979-0.7285-1.561-0.0236-0.009761-0.04633-0.02009-0.07031-0.0293l0.3516 3.584c0.1235-0.2037 0.2746-0.8386 0.4473-0.9746v1.025h0.8008v-1.025c0.1728 0.1361 0.3218 0.7727 0.4453 0.9746l0.3535-3.592z" fill="#ebdbb9" opacity=".3"/>
  <path d="m2.5 1.5-0.498 0.5977c-0.02775 0.9074 0.2391 1.714 0.5586 2.502 0.5556 1.314 2.057 1.802 2.963 2.609 0.5747 0.5249 0.7283 0.987 0.8105 1.449 0.09526 0.5357 0.1531 1.118 0.2129 2.012 0.1999 1.163 0.3092 3.057 0.459 3.689 0.1372 0.1467 0.9941 0.1406 0.9941 0.1406s0.8569 0.005945 0.9941-0.1406c0.1498-0.632 0.2591-2.526 0.459-3.689 0.05978-0.8939 0.1176-1.476 0.2129-2.012 0.08223-0.4625 0.2358-0.9245 0.8105-1.449 0.9059-0.8078 2.407-1.296 2.963-2.609 0.3195-0.7883 0.5863-1.595 0.5586-2.502l-0.498-0.5977v0.5957l-2.498 1.426-3.002-0.04297-3.002 0.04297-2.498-1.426v-0.5957zm2.59 3 1.91 1.426a1.112 1.436 0 0 1-0.8887 0.5742 1.112 1.436 0 0 1-1.111-1.436 1.112 1.436 0 0 1 0.08984-0.5645zm5.82 0a1.112 1.436 0 0 1 0.08984 0.5645 1.112 1.436 0 0 1-1.111 1.436 1.112 1.436 0 0 1-0.8887-0.5742l1.91-1.426zm-1.838 4.074c-0.07859 0.04714-0.1877 0.1109-0.3105 0.1738-0.06141 0.03145-0.1254 0.06228-0.1914 0.0918 0.06546-0.0293 0.1305-0.0606 0.1914-0.0918 0.1228-0.06291 0.232-0.1267 0.3105-0.1738zm-2.145 0.007812c0.07859 0.04661 0.1877 0.1078 0.3105 0.1699 0.06141 0.03105 0.1254 0.06272 0.1914 0.0918-0.06603-0.02908-0.13-0.06075-0.1914-0.0918-0.1228-0.06209-0.232-0.1233-0.3105-0.1699zm1.641 0.2578c-0.0655 0.02924-0.1334 0.05662-0.1992 0.08008-0.06635 0.02365-0.131 0.04473-0.1934 0.05859 0.06238-0.01387 0.127-0.03494 0.1934-0.05859 0.06635-0.02365 0.1332-0.05057 0.1992-0.08008zm0.6309 0.0625-0.3535 3.59c-0.1234-0.2033-0.2729-0.8368-0.4453-0.9727v1.023h-0.8008v-1.023c-0.1726 0.136-0.3237 0.771-0.4473 0.9746l-0.3516-3.584c0.0243 0.009331 0.04641 0.02135 0.07031 0.03125 0.1217 0.5624 0.3818 1.286 0.7285 1.559v-1h0.8008v1c0.3492-0.2751 0.6101-1.004 0.7305-1.568 0.02312-0.009553 0.04487-0.02028 0.06836-0.0293zm-1.555 0.02539c0.06094 0.0208 0.1223 0.03837 0.1797 0.05078-0.05805-0.01254-0.1181-0.02968-0.1797-0.05078zm-0.334 4.504c0.004836 0.003174 0.0102 0.006966 0.01562 0.009765-0.005385-0.002832-0.01083-0.006553-0.01562-0.009765zm0.03125 0.01758c0.01225 0.005085 0.02782 0.0078 0.04297 0.01172-0.01439-0.003849-0.03125-0.00677-0.04297-0.01172z" fill="#ebdbb2"/>
</svg>
