<svg width="16" height="16" style="isolation:isolate" version="1.1" viewBox="0 0 16 16" xmlns="http://www.w3.org/2000/svg">
  <path d="m4 2v0.9512l0.998 0.5703 3.002-0.04297 3.002 0.04297 0.998-0.5703v-0.9512l-2 1.24v-0.7695l-1 0.7695v-0.7695l-1 0.7695-1-0.7695v0.7695l-1-0.7695v0.7695l-2-1.24zm1.09 2.5c-0.05918 0.1784-0.08974 0.3704-0.08984 0.5645-2e-7 0.7926 0.4976 1.435 1.111 1.436 0.3497-3.184e-4 0.6788-0.213 0.8887-0.5742l-1.91-1.426zm5.82 0-1.91 1.426c0.2098 0.3612 0.539 0.5739 0.8887 0.5742 0.6137-7.127e-4 1.111-0.643 1.111-1.436-1e-4 -0.1941-0.03066-0.3861-0.08984-0.5645zm-8.098 0.5586c-0.6664 0.2998-1.277 0.5071-1.812 0.9414l1.5 1-2.5 1.5 3 0.5-2 2.5 2-0.4824v0.9824l2-0.5-0.5 1 2.178-0.8828c-0.03964-0.3396-0.08236-0.6653-0.1309-0.9473-0.05978-0.8939-0.1176-1.476-0.2129-2.012-0.08223-0.4625-0.2358-0.9245-0.8105-1.449-0.7914-0.7058-2.038-1.169-2.711-2.15zm10.38 0c-0.6727 0.9813-1.92 1.445-2.711 2.15-0.5747 0.5249-0.7283 0.987-0.8105 1.449-0.09526 0.5357-0.1531 1.118-0.2129 2.012-0.04846 0.282-0.09118 0.6077-0.1309 0.9473l2.178 0.8828-0.5-1 2 0.5v-0.9824l2 0.4824-2-2.5 3-0.5-2.5-1.5 1.5-1c-0.5362-0.4343-1.145-0.6416-1.811-0.9414h-0.001953zm-3.992 3.438s-0.7663 0.5026-1.199 0.5039-1.199-0.4961-1.199-0.4961c0.04641 0.5373 0.3506 1.643 0.7988 1.996v-1h0.8008v1c0.4506-0.355 0.755-1.465 0.7988-2.004zm-1.6 3.023c-0.1736 0.1368-0.3253 0.7786-0.4492 0.9785l0.06055 0.6035c0.03125 0.312 0.03792 0.3542 0.3105 0.3828 0.05778 0.0092 0.1068 0.01195 0.1582 0.01758h0.5723c0.0716-0.0059 0.144-0.01408 0.2266-0.02734 0.2727-0.02863 0.2793-0.0688 0.3105-0.3809l0.05859-0.5977c-0.1238-0.1996-0.2739-0.84-0.4473-0.9766v1.023h-0.8008v-1.023z" fill="#ebdbb5"/>
  <path d="m2.5 1.5-0.498 0.5977c-0.02775 0.9074 0.2391 1.714 0.5586 2.502 0.5556 1.314 2.057 1.802 2.963 2.609 0.5747 0.5249 0.7283 0.9868 0.8105 1.449 0.09526 0.5357 0.1531 1.118 0.2129 2.012 0.1999 1.163 0.3092 3.057 0.459 3.689 0.1372 0.1467 0.9941 0.1406 0.9941 0.1406s0.8569 6e-3 0.9941-0.1406c0.1498-0.632 0.2591-2.526 0.459-3.689 0.05978-0.8939 0.1176-1.476 0.2129-2.012 0.08223-0.4625 0.2358-0.9243 0.8105-1.449 0.9059-0.8078 2.407-1.296 2.963-2.609 0.3195-0.7883 0.5863-1.595 0.5586-2.502l-0.498-0.5977v0.5957l-2.498 1.426-3.002-0.04297-3.002 0.04297-2.498-1.426v-0.5957zm6.699 6.996c-0.009859 0.1213-0.03333 0.2715-0.06836 0.4355 0.02312-0.009553 0.04487-0.02028 0.06836-0.0293l-0.3535 3.592 0.00195 2e-3 -0.05859 0.5977c-0.03125 0.312-0.03787 0.3522-0.3105 0.3809-0.08255 0.01326-0.155 0.02144-0.2266 0.02734h-0.5723c-0.05142-0.0056-0.1004-0.0084-0.1582-0.01758-0.2727-0.02864-0.2793-0.07079-0.3105-0.3828l-0.06055-0.6035c6.905e-4 -0.0011 0.00126-0.0028 0.00195-0.0039l-0.3516-3.584c0.0243 0.00933 0.04641 0.02135 0.07031 0.03125-0.03544-0.1641-0.05983-0.3161-0.07031-0.4375 0 1e-7 0.7661 0.4974 1.199 0.4961s1.199-0.5039 1.199-0.5039z" fill="#ebdbb2" opacity=".3"/>
</svg>
