<svg width="16" height="16" version="1.1" xmlns="http://www.w3.org/2000/svg">
  <path d="m6 1v1.4l-1.6-1.201v1.551l0.5996 0.25 3-0.5 3 0.5 0.5996-0.25v-1.551l-1.6 0.8008v-1l-1 1v-1l-1 1-1-1v1l-1-1zm-1 3s-7.801e-4 2 1.199 2c1.2 0 1.201-0.4004 1.201-0.4004l-2.4-1.6zm6 0-2.4 1.6s0.001393 0.4004 1.201 0.4004 1.199-2 1.199-2zm-8.258 0.4883-1.742 0.5117 1.381 1.074 1.219-0.4746s-0.4317-0.5259-0.8574-1.111zm10.52 0c-0.4258 0.5857-0.8574 1.111-0.8574 1.111l1.219 0.4746 1.381-1.074-1.742-0.5117zm-10.46 3.512-1.801 3 3.398-0.1992-0.8008 3.199 2.896-1.844-0.6934-3.355c-0.1621-0.7834-0.8008-0.8008-0.8008-0.8008h-2.199zm8 0s-0.6649 0.0124-0.8008 0.8008l-0.5703 3.309 2.971 1.891-0.8008-3.197 3.4 0.1992-1.803-3h-2.396v-0.001953zm-2.057 4.188c-0.05837 0.01741-0.1638 0.2475-0.3457 0.8105h-0.8008c-0.6331-1.581-0.3163-0.5184-0.4004 0.6016h1.602c0-0.6995 0.05674-1.445-0.05469-1.412z" fill="#ebdbb2"/>
  <path d="m2.6 1-0.5996 1s-0.3996 0.8 0.4004 2c0.4961 0.7442 1.199 1.6 1.199 1.6l-3.6 1.4 2.801 1h2.199s0.6387 0.01738 0.8008 0.8008l1.199 5.799s0.2 0.4004 1 0.4004 1-0.4004 1-0.4004l1-5.799c0.1359-0.7884 0.8008-0.8008 0.8008-0.8008h2.398l2.801-1-3.6-1.4s0.7031-0.8554 1.199-1.6c0.8-1.2 0.4004-2 0.4004-2l-0.5996-1v1l-2.4 1-3-0.5-3 0.5-2.4-1v-1zm4.201 7c1e-7 0 0.3992 0.1992 1.199 0.1992 0.7 0 1.094-0.1531 1.182-0.1914 0.00625-0.00273 0.00664-0.00244 0.00977-0.00391l0.00781-0.00391h0.00195v1.801l-0.1211-0.1309-0.2793 3.93s-3.918e-4 0.4004-0.4004 0.4004h-0.8008c-0.4 0-0.4004-0.4004-0.4004-0.4004l-0.2812-3.939-0.1172 0.1406v-1.801z" fill="#ebdbb2" opacity=".3"/>
  <path d="m6.801 8v1.801l0.668-0.8008h0.9921l0.7383 0.8008v-1.801s-0.3992 0.1992-1.199 0.1992-1.199-0.1992-1.199-0.1992zm0.3984 4v1.6c-1e-7 0 3.91e-4 0.4004 0.4004 0.4004h0.8008c0.4 0 0.4004-0.4004 0.4004-0.4004v-1.6l-0.4004 1h-0.8008l-0.4004-1z" fill="#ebdbb2"/>
</svg>
