<svg width="16" height="16" style="isolation:isolate" version="1.1" viewBox="0 0 16 16" xmlns="http://www.w3.org/2000/svg">
  <defs>
    <style type="text/css">.ColorScheme-Text { color:#ebdbb2; } .ColorScheme-Highlight { color:#458588; }</style>
  </defs>
  <path d="m1 1c-0.554 0-1 0.446-1 1v12c0 0.554 0.446 1 1 1h6c0.554 0 1-0.446 1-1v-12c0-0.554-0.446-1-1-1h-6zm9 0c-0.554 0-1 0.446-1 1v4c0 0.554 0.446 1 1 1h5c0.554 0 1-0.446 1-1v-4c0-0.554-0.446-1-1-1h-5zm0 7c-0.554 0-1 0.446-1 1v5c0 0.554 0.446 1 1 1h5c0.554 0 1-0.446 1-1v-5c0-0.554-0.446-1-1-1h-5z" fill="#ebdbb2" fill-rule="evenodd" stroke-linejoin="round" stroke-width="5.667"/>
</svg>
