<svg width="16" height="16" enable-background="new" version="1.1" xmlns="http://www.w3.org/2000/svg">
  <path d="m3 1c-1.108 0-2 0.892-2 2v10c0 1.108 0.892 2 2 2h10c1.108 0 2-0.892 2-2v-10c0-1.108-0.892-2-2-2h-10zm2 2h6c1.108 0 2 0.892 2 2s-0.892 2-2 2h-6c-1.108 0-2-0.892-2-2s0.892-2 2-2zm0 0.5a1.5 1.5 0 0 0-1.5 1.5 1.5 1.5 0 0 0 1.5 1.5 1.5 1.5 0 0 0 1.5-1.5 1.5 1.5 0 0 0-1.5-1.5zm0 5.5h6c1.108 0 2 0.892 2 2 0 1.108-0.892 2-2 2h-6c-1.108 0-2-0.892-2-2 0-1.108 0.892-2 2-2zm6 0.5a1.5 1.5 0 0 0-1.5 1.5 1.5 1.5 0 0 0 1.5 1.5 1.5 1.5 0 0 0 1.5-1.5 1.5 1.5 0 0 0-1.5-1.5z" fill="#ebdbb2" fill-rule="evenodd" stroke-linejoin="round" stroke-width="3.78"/>
</svg>
