<svg width="16" height="16" style="isolation:isolate" version="1.1" viewBox="0 0 16 16" xmlns="http://www.w3.org/2000/svg">
  <defs>
    <style type="text/css">.ColorScheme-Text { color:#ebdbb2; } .ColorScheme-Highlight { color:#458588; }</style>
  </defs>
  <path d="m2.4 9.4 5.6 5.6 5.6-5.601-2.8 6.02e-4v-2.101c0 0.7-0.9863 0.7006-0.9863 0.7006s-1.009 0-1.009-0.7-0.8237-0.7-0.8237-0.7-0.8237 0-0.8237 0.7-0.8237 0.7-0.8237 0.7-1.133 0-1.133-0.7006v2.101z" fill="#ebdbb2" stroke-width="1.4"/>
  <path d="m7.981 1s-0.8237 0-0.8237 0.7-0.8237 0.7-0.8237 0.7-1.133 5.88e-4 -1.133-0.7v9.8l5.6-6.02e-4v-9.8c0 0.7-0.9863 0.7006-0.9863 0.7006s-1.009 0-1.009-0.7-0.8237-0.7-0.8237-0.7z" fill="#ebdbb2" opacity=".3" stroke-width="1.4"/>
  <path d="m6.333 3.8s-1.133-6.02e-4 -1.133 0.7v4.2l5.6-6.02e-4v-4.2c0-0.7-0.9863-0.6994-0.9863-0.6994s-1.009 0-1.009 0.7-0.8237 0.7-0.8237 0.7-0.8237 0-0.8237-0.7-0.8237-0.7-0.8237-0.7z" fill="#ebdbb2" opacity=".6" stroke-width="1.4"/>
</svg>
