<svg width="16" height="16" style="isolation:isolate" version="1.1" viewBox="0 0 16 16" xmlns="http://www.w3.org/2000/svg">
  <defs>
    <style type="text/css">.ColorScheme-Text { color:#ebdbb2; } .ColorScheme-Highlight { color:#458588; }</style>
  </defs>
  <path class="ColorScheme-Text" d="m1.039 0c-0.574 1e-3 -1.038 0.465-1.039 1.039v7.768c0 0.573 0.466 1.039 1.039 1.039h1.423v1.846l1.846 1.846h1.846v1.424c0 0.572 0.466 1.038 1.039 1.038h7.768c0.574-1e-3 1.038-0.465 1.039-1.039v-7.768c-1e-3 -0.574-0.465-1.038-1.039-1.039h-5.115v-5.116c-1e-3 -0.573-0.465-1.037-1.039-1.038h-7.768zm0.192 1.231h7.384v4.923h-1.423c-0.238 0-0.459 0.077-0.634 0.212-0.252-0.148-0.484-0.282-0.693-0.424 0.557-0.574 1.024-1.228 1.385-1.942 0.053-0.094 0.079-0.2 0.077-0.308h0.673v-1.23h-2.462v-0.616h-1.23v0.616h-2.462v1.23h1.308c-0.164 0.06-0.295 0.185-0.361 0.347-0.066 0.161-0.061 0.342 0.014 0.499 0 0 0.205 0.433 0.693 0.981 0.128 0.142 0.274 0.301 0.443 0.462-0.873 0.637-1.616 0.923-1.616 0.923-0.233 0.051-0.414 0.232-0.467 0.464-0.052 0.231 0.032 0.472 0.218 0.619s0.44 0.175 0.652 0.071c0 0 1.034-0.385 2.193-1.289 0.32 0.233 0.663 0.476 1.077 0.712 0.048 0.026 0.1 0.045 0.154 0.057v1.077h-2.462l-0.307-0.307-0.308 0.307h-1.846v-7.384zm2.346 2.461h2.423c-0.302 0.543-0.677 1.041-1.116 1.481-0.161-0.146-0.315-0.3-0.461-0.462-0.401-0.449-0.5-0.672-0.5-0.672-0.062-0.159-0.188-0.284-0.346-0.347zm6.865 4.501h1.288l2.116 5.73h-1.327l-0.423-1.231h-2.038l-0.424 1.231h-1.326l2.134-5.73zm0.616 1.576-0.692 2.019h1.422l-0.692-2.019h-0.038zm-6.75 0.077h1.846v1.846h-1.846v-1.846z" fill="currentColor"/>
</svg>
