<svg width="16" height="16" style="isolation:isolate" version="1.1" viewBox="0 0 16 16" xmlns="http://www.w3.org/2000/svg">
  <path class="ColorScheme-Text" d="m7.951 1-0.4989 1.029c0.1615-0.01327 0.3341-0.03113 0.4989-0.03113h0.4989zm0 1.996c-2.755 0-4.989 2.234-4.989 4.989 0 0.469 0.07853 0.915 0.2008 1.343 0.5138-0.5308 1.169-0.9289 1.91-1.121 0.8217-1.403 2.235-2.436 3.974-2.436 1.638 0 3.052 0.8604 3.889 2.142-0.03891-2.722-2.254-4.917-4.985-4.917zm-4.927 0.06236 0.3429 1.06c0.2186-0.2587 0.4586-0.4986 0.7172-0.7172zm9.854 0-1.092 0.3742h-0.06286c0.1387 0.1107 0.2744 0.2246 0.4061 0.3429 0.1307 0.1183 0.2564 0.2413 0.3742 0.3742zm-3.832 3.71c-1.55 0-2.87 0.9488-3.438 2.292-1.443 0.2145-2.549 1.445-2.549 2.946 0 1.653 1.34 2.993 2.993 2.993h6.361c1.446 0 2.619-1.172 2.619-2.619 0-1.344-1.011-2.446-2.316-2.595-0.3402-1.716-1.855-3.017-3.671-3.017zm-7.082 0.7172-0.9978 0.4989 1.029 0.4989c-0.01477-0.1686-0.03113-0.3253-0.03113-0.4989 0-0.02744-2e-3 -0.08342 0-0.156 0.00599-0.1155 0.02235-0.2317 0.03113-0.3429zm11.94 0c0.01497 0.1689 0.03093 0.3257 0.03093 0.4989 0 0.02694 2e-3 0.08381 0 0.1557-6e-3 0.1157-0.02195 0.2315-0.03093 0.3432h0.03093l0.9978-0.4989z" color="#dfdfdf" fill="#ebdbb2" stroke-width=".9978"/>
</svg>
