<svg width="16" height="16" style="isolation:isolate" version="1.1" viewBox="0 0 16 16" xmlns="http://www.w3.org/2000/svg">
  <path d="m1 1 3.268 8.578-1.326 3.422h2.297l4.613-12h-2.264l-1.906 5.021c-0.1475 0.4425-0.2334 0.7098-0.2559 0.8008-0.068-0.284-0.1539-0.5513-0.2559-0.8008l-1.906-5.021h-2.264zm10 6c-2.209 0-4 1.791-4 4 0 2.209 1.791 4 4 4 2.209 0 4-1.791 4-4 0-2.209-1.791-4-4-4zm-1.5 1.75h3a0.5 0.5 0 0 1 0.5 0.5v2a0.5 0.5 0 0 1-0.5 0.5h-2.5v1a0.4999 0.4999 0 0 1-0.5 0.5 0.4999 0.4999 0 0 1-0.5-0.5v-1.5-2a0.5 0.5 0 0 1 0.5-0.5zm0.5 1v1h2v-1h-2z" fill="#ebdbb2" stroke-width=".75"/>
</svg>
