<svg width="16" height="16" version="1.1" viewBox="0 0 16 16" xmlns="http://www.w3.org/2000/svg">
  <defs>
    <style type="text/css">.ColorScheme-Text { color:#ebdbb2; } .ColorScheme-Highlight { color:#458588; }</style>
  </defs>
  <path class="ColorScheme-Text" d="m3 2c-2 0-2 1-2 1v7s0-1 2-1c2 0 4 2 4 2v-7s-2-2-4-2zm10 0c-2 0-4 2-4 2v7s2-2 4-2 2 1 2 1v-7s0-1-2-1zm-10 8c-2 0-2 1-2 1v2s0-1 2-1c2 0 4 2 4 2v-2s-2-2-4-2zm10 0c-2 0-4.005 1.993-4 2v2s2-2 4-2 2 1 2 1v-2s0-1-2-1z" fill="currentColor"/>
</svg>
