<svg width="16" height="16" version="1.1" viewBox="0 0 16 16" xmlns="http://www.w3.org/2000/svg">
  <defs>
    <style type="text/css">.ColorScheme-Text { color:#ebdbb2; } .ColorScheme-Highlight { color:#458588; }</style>
  </defs>
  <path class="ColorScheme-Text" d="m14.12 14.99c-0.1373-0.0185-0.2535-0.08143-0.3478-0.1824-0.2078-0.2231-0.5494-0.8778-0.8298-1.591-0.1574-0.4001-0.4586-1.281-0.4586-1.341 0-0.0185 0.1988-0.1502 0.4417-0.2915l0.4417-0.2571 0.06939 0.06509c0.2743 0.2575 1.064 1.437 1.525 2.278 0.1842 0.3359 0.2027 0.3839 0.202 0.5225-9.6e-4 0.1846-0.05901 0.3133-0.2232 0.496-0.1968 0.219-0.536 0.3437-0.82 0.3019zm-13.13-0.2194 0.5899-2.663 1.425 0.9997-2.015 1.664zm0.7866-3.055s3.387-5.752 3.415-5.781c0.01556-0.01478 1.492 0.9121 1.561 0.9813 0.01478 0.01478-3.526 5.808-3.526 5.808zm9.499-1.824 1.08-0.6211 0.8619 1.717-0.9465 0.5645zm-10.61-1.969h2.84l-1.673 2.833h-1.172zm4.249 2.833 1.694-2.833h3.05l1.693 2.833zm7.209-2.833h3.213v2.833h-1.847zm-1.274 1.313c-0.6218-0.9797-2.016-3.664-2.016-3.664s-1.185-2.474-1.425-3.084c-0.3475-0.883-0.4304-1.432-0.2242-1.484 0.3299-0.0829 0.9756 0.6665 1.895 2.199 1.266 2.11 3.177 5.815 3.177 5.815l-1.118 0.6377s-0.1421-0.1887-0.2885-0.4193zm-5.524-3.539 0.8963-1.426 1.522 0.9888-0.86 1.401zm1.019-1.629c0-0.1091 0.3273-0.4126 0.4886-0.453 0.2654-0.06655 0.7007 0.1036 0.9432 0.3688 0.1874 0.2049 0.2284 0.3052 0.2109 0.5153-0.01331 0.1583-0.1423 0.5363-0.1833 0.5363-0.02384 0-1.459-0.9305-1.459-0.9674z" fill="currentColor"/>
</svg>
