<svg width="16" height="16" version="1.1" viewBox="0 0 16 16" xmlns="http://www.w3.org/2000/svg">
  <defs>
    <style type="text/css">.ColorScheme-Text { color:#ebdbb2; } .ColorScheme-Highlight { color:#458588; }</style>
  </defs>
  <path class="ColorScheme-Text" d="m15 8.875v-0.875c0-3.866-3.134-7-7-7-3.866 0-7 3.134-7 7 0 3.866 3.134 7 7 7h4.135s0.865-0.124 0.865-1-0.865-1-0.865-1h-4.135c-2.761 0-5-2.239-5-5 0-2.761 2.239-5 5-5 2.761 0 5 2.239 5 5-2e-3 0.6887-0.146 1.37-0.424 2h-1.117c0.353-0.6076 0.539-1.297 0.541-2 0-2.209-1.791-4-4-4-2.209 0-4 1.791-4 4 0 2.209 1.791 4 4 4h4.275c1.462 0 2.725-1.675 2.725-3.125zm-7-2.875c1.105 0 2 0.8954 2 2s-0.8954 2-2 2-2-0.8954-2-2 0.8954-2 2-2z" fill="currentColor"/>
</svg>
