<svg width="256" height="256" style="isolation:isolate" version="1.1" viewBox="0 0 256 256" xmlns="http://www.w3.org/2000/svg">
  <defs>
    <linearGradient id="linearGradient31" x1=".5002" x2=".5002" y2="1" gradientTransform="matrix(244,0,0,228,5.986,12)" gradientUnits="userSpaceOnUse">
      <stop stop-color="#ebdbb2" offset="0"/>
      <stop stop-color="#ebdbb2" stop-opacity=".09804" offset=".1"/>
      <stop stop-color="#282828" stop-opacity=".1" offset=".9"/>
      <stop stop-color="#282828" stop-opacity=".4" offset="1"/>
    </linearGradient>
    <filter id="a-3" x="-.04224" y="-.0452" width="1.084" height="1.108" color-interpolation-filters="sRGB">
      <feGaussianBlur in="SourceGraphic" stdDeviation="4.294"/>
      <feOffset dy="4" result="pf_100_offsetBlur"/>
      <feFlood flood-opacity=".4"/>
      <feComposite in2="pf_100_offsetBlur" operator="in" result="pf_100_dropShadow"/>
      <feBlend in="SourceGraphic" in2="pf_100_dropShadow"/>
    </filter>
    <linearGradient id="b-5" x1=".5002" x2=".5002" y2="1" gradientTransform="matrix(244,0,0,228,5.981,12.12)" gradientUnits="userSpaceOnUse">
      <stop stop-color="#83a598" offset="0"/>
      <stop stop-color="#458588" offset="1"/>
    </linearGradient>
  </defs>
  <g transform="translate(2.933 2.621)" filter="url(#a-3)">
    <path d="m165 12.12c72 0 85 15 85 87v56c0 70-13 85-85 85h-74c-72 0-85-15-85-85v-56c0-72 13-87 85-87z" fill="url(#b-5)"/>
  </g>
  <g transform="translate(9.09e-6 -.12)" opacity=".5">
    <path transform="translate(-.004996 .116)" d="m91 12c-72 0-85 15-85 87v56c0 70 13 85 85 85h74c72 0 85-15 85-85v-56c0-72-13-87-85-87zm0 4h74c68 0 80 15 80 83v56c0 66-12 81-80 81h-74c-68 0-80-15-80-81v-56c0-68 12-83 80-83z" fill="url(#linearGradient31)" opacity="1"/>
  </g>
  <path d="m128 71.27c-14.65 0-28.25 5.634-38.45 15.87-10.2 10.22-15.71 23.92-15.71 38.58v6.197c0 0.579 0.0052 1.136 0.1602 1.666-9.343 0.74-16.81 10.7-16.81 22.85 0 12.2 7.469 22.2 16.87 22.86 2.514 3.387 6.569 5.445 10.89 5.445 7.506 0 13.6-6.109 13.6-13.62v-29.37c0-7.277-5.579-13.24-12.75-13.6v-2.42c-1e-3 -23.83 18.5-42.49 42.28-42.49 23.78 0 42.22 18.66 42.22 42.49v2.42c-7.171 0.36-12.75 6.323-12.75 13.6v29.37c0 7.51 6.094 13.62 13.6 13.62 4.322 0 8.377-2.058 10.89-5.445 9.4-0.66 16.87-10.66 16.87-22.86 1e-5 -12.15-7.466-22.11-16.81-22.85 0.155-0.53 0.1582-1.087 0.1582-1.666v-6.197c0-14.66-5.607-28.36-15.81-38.58-10.2-10.23-23.8-15.87-38.45-15.87z" fill="#ebdbb2"/>
</svg>
