<svg width="256" height="256" version="1.1" viewBox="0 0 67.73 67.73" xmlns="http://www.w3.org/2000/svg">
  <defs>
    <filter id="a-3-9" x="-.04224" y="-.0452" width="1.084" height="1.108" color-interpolation-filters="sRGB">
      <feGaussianBlur in="SourceGraphic" stdDeviation="4.294"/>
      <feOffset dy="4" result="pf_100_offsetBlur"/>
      <feFlood flood-opacity=".4"/>
      <feComposite in2="pf_100_offsetBlur" operator="in" result="pf_100_dropShadow"/>
      <feBlend in="SourceGraphic" in2="pf_100_dropShadow"/>
    </filter>
    <linearGradient id="b-5" x1=".5002" x2=".5002" y2="1" gradientTransform="matrix(244,0,0,228,5.981,12.12)" gradientUnits="userSpaceOnUse">
      <stop stop-color="#83a598" offset="0"/>
      <stop stop-color="#458588" offset="1"/>
    </linearGradient>
    <linearGradient id="linearGradient31" x1=".5002" x2=".5002" y2="1" gradientTransform="matrix(244,0,0,228,5.986,12)" gradientUnits="userSpaceOnUse">
      <stop stop-color="#ebdbb2" offset="0"/>
      <stop stop-color="#ebdbb2" stop-opacity=".09804" offset=".1"/>
      <stop stop-color="#282828" stop-opacity=".1" offset=".9"/>
      <stop stop-color="#282828" stop-opacity=".4" offset="1"/>
    </linearGradient>
  </defs>
  <g transform="matrix(.2646 0 0 .2646 2.725e-6 -.03175)" filter="url(#a-3-9)" style="isolation:isolate">
    <path d="m165 12.12c72 0 85 15 85 87v56c0 70-13 85-85 85h-74c-72 0-85-15-85-85v-56c0-72 13-87 85-87z" fill="url(#b-5)"/>
  </g>
  <g transform="matrix(.2646 0 0 .2646 2.725e-6 -.03175)" opacity=".5">
    <path transform="translate(-.004996 .116)" d="m91 12c-72 0-85 15-85 87v56c0 70 13 85 85 85h74c72 0 85-15 85-85v-56c0-72-13-87-85-87zm0 4h74c68 0 80 15 80 83v56c0 66-12 81-80 81h-74c-68 0-80-15-80-81v-56c0-68 12-83 80-83z" fill="url(#linearGradient31)" opacity="1"/>
  </g>
  <g fill="none" stroke-linecap="square" stroke-width="2.739">
    <path d="m24.26 25.79 19.17 17.8-9.587 9.587v-36.98l9.587 9.587-19.17 17.8" opacity=".2" stroke="#282828"/>
    <path d="m24.26 24.42 19.17 17.8-9.587 9.587v-36.98l9.587 9.587-19.17 17.8" stroke="#ebdbb2"/>
  </g>
</svg>
