<svg width="256" height="256" style="isolation:isolate" version="1.1" viewBox="0 0 256 256" xmlns="http://www.w3.org/2000/svg">
  <defs>
    <clipPath id="_clipPath_YkspjaV4MlMWk5gBXyXl7uZWmiyZb1UH">
      <rect width="256" height="256"/>
    </clipPath>
    <filter id="a-3" x="-.04224" y="-.0452" width="1.084" height="1.108" color-interpolation-filters="sRGB">
      <feGaussianBlur in="SourceGraphic" stdDeviation="4.294"/>
      <feOffset dy="4" result="pf_100_offsetBlur"/>
      <feFlood flood-opacity=".4"/>
      <feComposite in2="pf_100_offsetBlur" operator="in" result="pf_100_dropShadow"/>
      <feBlend in="SourceGraphic" in2="pf_100_dropShadow"/>
    </filter>
    <linearGradient id="b-5" x1=".5002" x2=".5002" y2="1" gradientTransform="matrix(244,0,0,228,5.981,12.12)" gradientUnits="userSpaceOnUse">
      <stop stop-color="#83a598" offset="0"/>
      <stop stop-color="#458588" offset="1"/>
    </linearGradient>
    <linearGradient id="linearGradient31" x1=".5002" x2=".5002" y2="1" gradientTransform="matrix(244,0,0,228,5.986,12)" gradientUnits="userSpaceOnUse">
      <stop stop-color="#ebdbb2" offset="0"/>
      <stop stop-color="#ebdbb2" stop-opacity=".09804" offset=".1"/>
      <stop stop-color="#282828" stop-opacity=".1" offset=".9"/>
      <stop stop-color="#282828" stop-opacity=".4" offset="1"/>
    </linearGradient>
  </defs>
  <g transform="translate(9.09e-6 -.12)" filter="url(#a-3)" style="isolation:isolate">
    <path d="m165 12.12c72 0 85 15 85 87v56c0 70-13 85-85 85h-74c-72 0-85-15-85-85v-56c0-72 13-87 85-87z" fill="url(#b-5)"/>
  </g>
  <g transform="translate(9.09e-6 -.12)" opacity=".5" style="isolation:isolate">
    <path transform="translate(-.004996 .116)" d="m91 12c-72 0-85 15-85 87v56c0 70 13 85 85 85h74c72 0 85-15 85-85v-56c0-72-13-87-85-87zm0 4h74c68 0 80 15 80 83v56c0 66-12 81-80 81h-74c-68 0-80-15-80-81v-56c0-68 12-83 80-83z" fill="url(#linearGradient31)" opacity="1"/>
  </g>
  <g clip-path="url(#_clipPath_YkspjaV4MlMWk5gBXyXl7uZWmiyZb1UH)" style="isolation:isolate">
    <linearGradient id="_lgradient_143" x1=".5" x2=".5" y2="1" gradientTransform="matrix(105.4 0 0 121.2 76.11 62.58)" gradientUnits="userSpaceOnUse">
      <stop stop-color="#83a598" offset="0"/>
      <stop stop-color="#458588" offset="1"/>
    </linearGradient>
    <rect x="76.11" y="62.58" width="105.4" height="121.2" fill="url(#_lgradient_143)"/>
    <linearGradient id="_lgradient_144" x2="0" y2="1" gradientTransform="matrix(120.9 0 0 145 67.55 54.5)" gradientUnits="userSpaceOnUse">
      <stop stop-color="#665c54" offset="0"/>
      <stop stop-color="#3c3836" offset="1"/>
    </linearGradient>
    <path d="m73.55 54.5h108.9c3.311 0 6 2.689 6 6v133c0 3.311-2.689 6-6 6h-108.9c-3.311 0-6-2.689-6-6v-133c0-3.311 2.689-6 6-6zm103.1 122h-97.3c-1.103 0-2-0.896-2-2v-106.2c0-1.103 0.897-2 2-2h97.3c1.104 0 2 0.897 2 2v106.2c0 1.104-0.896 2-2 2z" fill="url(#_lgradient_144)" fill-rule="evenodd"/>
    <g opacity=".4">
      <ellipse cx="128" cy="188.8" rx="5.986" ry="6.258" fill="#1d2021" vector-effect="non-scaling-stroke"/>
    </g>
    <path class="ColorScheme-Text" transform="matrix(8.118 0 0 8.118 65.41 63.9)" d="m7.089 4.63c-0.6129 0-0.6129 0.408-0.6144 0.8164-0.00399 0.2522-0.00299 0.7786 0.00149 1.556 0.00796 1.241 0.00547 1.631-0.00945 1.685-0.4234-0.04478-1.063-0.2159-1.35-0.4423-0.1871-0.1488-0.3731-0.2846-0.4124-0.3025-0.1642-0.07264-0.3975-0.02687-0.5313 0.1055-0.09254 0.09154-0.1264 0.1731-0.1348 0.3199-0.00597 0.1119-0.00249 0.1383 0.03184 0.2129 0.02189 0.04676 0.06119 0.1094 0.08706 0.1393s0.3826 0.492 0.792 1.028c0.7587 0.9915 1.513 1.36 1.643 1.396 0.0796 0.02289 4.18 0.02338 4.262 9.95e-4 0.03731-0.01044 0.09154-0.04477 0.1298-0.08308 0.05423-0.05373 0.07463-0.09304 0.1164-0.2224 0.1204-0.3711 0.2403-0.9358 0.2746-1.249 0.01492-0.3647 7e-3 -0.3786 0-0.6741 0-0.00547-0.0015-0.01045-0.0015-0.01592 4.97e-4 -0.2622 2e-3 -0.4841 0-0.596 9.95e-4 -0.4084 2e-3 -0.8164-0.6094-0.8164-0.5517 0-0.6035 0.3343-0.6094 0.699-9.95e-4 0.00995-4e-3 0.0199-4e-3 0.02935 0-0.0985 9.95e-4 -0.2602 0-0.3204 9.95e-4 -0.408 9.95e-4 -0.8164-0.6104-0.8164-0.5482 0-0.6025 0.3303-0.6094 0.692-0.00149 9.95e-4 -0.00299 0.00149-0.00448 0.00249 0-0.00199-9.951e-4 -0.02189-9.951e-4 -0.02637 0-0.07313 9.951e-4 -0.2109 0-0.2597 0.00149-0.4084 0.00149-0.8164-0.6099-0.8164-0.4652 0-0.5766 0.2358-0.604 0.5284-9.95e-4 0-0.01045 0.00249-0.01045 0.00249-0.00895 0.00299-0.00149-0.496-0.00149-1.033 0-0.3682 0.00249-0.5866 0-0.7224 9.951e-4 -0.4084 0.00149-0.8164-0.6109-0.8164z" color="#ebdbb2" fill="currentColor" stroke-width=".4975" style="isolation:isolate"/>
  </g>
</svg>
