<svg width="256" height="256" style="isolation:isolate" version="1.1" viewBox="0 0 256 256" xmlns="http://www.w3.org/2000/svg">
  <defs>
    <filter id="a-3" x="-.04224" y="-.0452" width="1.084" height="1.108" color-interpolation-filters="sRGB">
      <feGaussianBlur in="SourceGraphic" stdDeviation="4.294"/>
      <feOffset dy="4" result="pf_100_offsetBlur"/>
      <feFlood flood-opacity=".4"/>
      <feComposite in2="pf_100_offsetBlur" operator="in" result="pf_100_dropShadow"/>
      <feBlend in="SourceGraphic" in2="pf_100_dropShadow"/>
    </filter>
    <linearGradient id="b-5" x1=".5002" x2=".5002" y2="1" gradientTransform="matrix(244,0,0,228,5.981,12.12)" gradientUnits="userSpaceOnUse">
      <stop stop-color="#83a598" offset="0"/>
      <stop stop-color="#458588" offset="1"/>
    </linearGradient>
    <linearGradient id="linearGradient31" x1=".5002" x2=".5002" y2="1" gradientTransform="matrix(244,0,0,228,5.986,12)" gradientUnits="userSpaceOnUse">
      <stop stop-color="#ebdbb2" offset="0"/>
      <stop stop-color="#ebdbb2" stop-opacity=".09804" offset=".1"/>
      <stop stop-color="#282828" stop-opacity=".1" offset=".9"/>
      <stop stop-color="#282828" stop-opacity=".4" offset="1"/>
    </linearGradient>
  </defs>
  <g transform="translate(9.09e-6 -.12)" filter="url(#a-3)" style="isolation:isolate">
    <path d="m165 12.12c72 0 85 15 85 87v56c0 70-13 85-85 85h-74c-72 0-85-15-85-85v-56c0-72 13-87 85-87z" fill="url(#b-5)"/>
  </g>
  <g transform="translate(9.09e-6 -.12)" opacity=".5" style="isolation:isolate">
    <path transform="translate(-.004996 .116)" d="m91 12c-72 0-85 15-85 87v56c0 70 13 85 85 85h74c72 0 85-15 85-85v-56c0-72-13-87-85-87zm0 4h74c68 0 80 15 80 83v56c0 66-12 81-80 81h-74c-68 0-80-15-80-81v-56c0-68 12-83 80-83z" fill="url(#linearGradient31)" opacity="1"/>
  </g>
  <g style="isolation:isolate">
    <linearGradient id="_lgradient_155" x2="0" y2="1" gradientTransform="matrix(47.64 0 0 29.44 104.2 144.9)" gradientUnits="userSpaceOnUse">
      <stop stop-color="#665c54" offset="0"/>
      <stop stop-color="#3c3836" offset="1"/>
    </linearGradient>
    <path d="m104.2 144.9 4.557 29.44h38.53l4.557-29.44h-47.64z" fill="url(#_lgradient_155)"/>
    <linearGradient id="_lgradient_156" x2="0" y2="1" gradientTransform="matrix(51.74 0 0 3.285 102.1 171.7)" gradientUnits="userSpaceOnUse">
      <stop stop-color="#665c54" offset="0"/>
      <stop stop-color="#3c3836" offset="1"/>
    </linearGradient>
    <path d="m103.8 171.7h48.45c0.906 0 1.642 0.736 1.642 1.642 0 0.907-0.736 1.642-1.642 1.642h-48.45c-0.906 0-1.642-0.735-1.642-1.642 0-0.906 0.736-1.642 1.642-1.642z" fill="url(#_lgradient_156)"/>
    <defs>
      <linearGradient id="_lgradient_157" x2="0" y2="1">
        <stop stop-color="#665c54" offset="0"/>
        <stop stop-color="#282828" offset="1"/>
      </linearGradient>
    </defs>
    <path d="m58.5 81.02h139c1.656 0 3 1.344 3 3v73.89c0 1.655-1.344 3-3 3h-139c-1.656 0-3-1.345-3-3v-73.89c0-1.656 1.344-3 3-3z" fill="url(#_lgradient_157)"/>
    <defs>
      <linearGradient id="_lgradient_158" x2="0" y2="1">
        <stop stop-color="#d3869b" offset="0"/>
        <stop stop-color="#b16286" offset=".5"/>
        <stop stop-color="#8f3f71" offset="1"/>
      </linearGradient>
    </defs>
    <path d="m64.92 84.95h126.2c1.104 0 2 0.897 2 2v68.07c0 1.104-0.896 2-2 2h-126.2c-1.104 0-2-0.896-2-2v-68.07c0-1.103 0.896-2 2-2z" fill="url(#_lgradient_158)"/>
  </g>
</svg>
