<svg width="24" height="24" version="1.1" xmlns="http://www.w3.org/2000/svg">
  <defs>
    <style type="text/css">.ColorScheme-Text { color:#ebdbb2; } .ColorScheme-Highlight { color:#458588; }</style>
  </defs>
  <path class="ColorScheme-Text" d="m12 5c-3.866 0-7 3.134-7 7 0 3.866 3.134 7 7 7 3.866 0 7-3.134 7-7 0-3.866-3.134-7-7-7zm-1.061 3.5c0.3588-0.00291 0.7328 0.00839 1.117 0.03516 1.603 0.1116 3.214 0.5039 4.674 1.299 0.308 0.1671 0.4233 0.5516 0.2559 0.8594-0.1676 0.3075-0.5538 0.4215-0.8613 0.2539-2.534-1.379-5.776-1.399-8.412-0.791-0.3409 0.07858-0.6807-0.1338-0.7598-0.4746-0.07852-0.3413 0.1353-0.6813 0.4766-0.7598 0.6789-0.1567 1.955-0.4093 3.51-0.4219zm-0.0039 2.541c0.4669-0.0095 0.859 0.01191 1.123 0.0332 1.403 0.1131 2.832 0.4968 3.918 1.354 0.2753 0.2169 0.3208 0.6176 0.1035 0.8926-0.2169 0.2753-0.6156 0.3208-0.8906 0.1035-0.7959-0.628-1.998-0.9864-3.232-1.086-1.234-0.09954-2.496 0.05847-3.34 0.3398-0.3321 0.1108-0.6918-0.06837-0.8027-0.4004-0.1107-0.3324 0.06983-0.6923 0.4023-0.8027 0.9534-0.3178 1.941-0.4178 2.719-0.4336zm0.2812 2.518c0.4078-0.0034 0.8019 0.0141 1.168 0.04687 1.062 0.0951 2.011 0.3038 2.699 0.7168 0.3004 0.1802 0.3971 0.5688 0.2168 0.8691-0.1802 0.3004-0.5688 0.399-0.8691 0.2188-0.3685-0.2211-1.218-0.4565-2.162-0.541s-2.001-0.04208-2.865 0.1504c-0.3416 0.07592-0.6796-0.139-0.7559-0.4805-0.07592-0.3416 0.139-0.6816 0.4805-0.7578 0.6897-0.1536 1.408-0.217 2.088-0.2227z" fill="currentColor"/>
</svg>
