<svg width="16" height="16" version="1.1" xmlns="http://www.w3.org/2000/svg">
  <path d="m4.5 0c-1.933 0-3.5 1.567-3.5 3.5 4.187e-4 0.4295 0.07988 0.8552 0.2344 1.256 1.252-1.987 3.347-3.388 5.781-3.69-0.6594-0.6816-1.567-1.066-2.516-1.066zm7 0c-0.947 0.001021-1.853 0.3858-2.512 1.066 2.432 0.3023 4.524 1.703 5.776 3.688 0.1548-0.4 0.2348-0.825 0.236-1.254 0-1.933-1.567-3.5-3.5-3.5zm-3.5 2c-3.866 0-7 3.134-7 7-1.63e-6 1.65 0.5832 3.248 1.646 4.51 0.1455 0.1727 0.2994 0.3382 0.4609 0.496-0.3009-0.03251-0.6004 0.07302-0.8144 0.287-0.3904 0.3905-0.3904 1.024 0 1.414 0.3905 0.3904 1.024 0.3904 1.414 0 0.2628-0.2634 0.3576-0.651 0.2461-1.006 2.381 1.686 5.605 1.759 8.07 0.022 0.05455-0.03512-0.1914 0.521 0.27 0.984 0.3905 0.3904 1.024 0.3904 1.414 0 0.3904-0.3905 0.3904-1.024 0-1.414-0.2171-0.2166-0.5215-0.3217-0.826-0.285 1.572-1.541 2.108-3.451 2.119-5.008 0-3.866-3.134-7-7-7zm0 2c2.761 0 5 2.239 5 5 0 2.761-2.239 5-5 5-2.761 0-5-2.239-5-5 0.001559-2.324 1.847-5 5-5zm2.146 2.146-2.146 2.146-1.646-1.646c-0.4712-0.4928-1.2 0.2358-0.707 0.707l2 2c0.1953 0.1952 0.5117 0.1952 0.707 0l2.5-2.5c0.484-0.4732-0.255-1.171-0.708-0.707z" fill="#ebdbb2"/>
</svg>
