<svg width="16" height="16" version="1.1" xmlns="http://www.w3.org/2000/svg">
  <path d="m8 0.001953c-0.2556 0-0.5112 0.0971-0.707 0.293l-7 7c-0.3917 0.3917-0.3917 1.02 0 1.412l7 6.998c0.3917 0.392 1.022 0.392 1.414 0l6.998-6.998c0.392-0.3917 0.392-1.02 0-1.412l-6.998-7c-0.1958-0.1959-0.4514-0.293-0.707-0.293zm0 3.498c1.421 0 2.572 1.152 2.572 2.572 0 0.5657-0.2312 1.079-0.5977 1.445l-0.5801 0.5918c-0.4629 0.4693-0.752 0.8541-0.752 1.818h-1.285v-0.3203c0-0.7071 0.2891-1.351 0.752-1.82l0.7969-0.8086c0.2379-0.2314 0.3789-0.5527 0.3789-0.9062 1e-7 -0.7071-0.578-1.287-1.285-1.287-0.7071 0-1.285 0.58-1.285 1.287h-1.287c0-1.421 1.152-2.572 2.572-2.572zm-0.6426 7.715h1.285v1.285h-1.285v-1.285z" fill="#ebdbb2"/>
</svg>
