<svg width="16" height="16" version="1.1" viewBox="0 0 16 16" xmlns="http://www.w3.org/2000/svg">
  <defs>
    <style type="text/css">.ColorScheme-Text { color:#ebdbb2; } .ColorScheme-Highlight { color:#458588; }</style>
  </defs>
  <path class="ColorScheme-Text" d="m2.414 1-1.414 1.414 12.59 12.59 1.414-1.414-12.59-12.59zm5.586 0c-1.134 0-2.115 0.6238-2.625 1.547l5.617 5.617c0.002778-0.05318 0.007812-0.1063 0.007812-0.1602v-4.004c0-1.662-1.338-3-3-3zm-6 6.006v0.998c1e-5 2.965 2.168 5.428 5 5.906v2.092h2v-2.092c0.5562-0.09401 1.087-0.2662 1.58-0.502l-1.541-1.541c-0.3307 0.0865-0.6787 0.1348-1.039 0.1348-2.233 0-4-1.765-4-3.998v-0.998h-2zm10 0v0.998c0 0.3589-0.04692 0.7058-0.1328 1.035l1.547 1.547c0.3757-0.7816 0.5859-1.658 0.5859-2.582v-0.998h-2zm-7 0.8223v0.1758c0 1.662 1.338 2.998 3 2.998 0.05623 0 0.1106-0.004793 0.166-0.007812l-3.166-3.166z" fill="currentColor"/>
</svg>
