<svg width="16" height="16" version="1.1" xmlns="http://www.w3.org/2000/svg">
  <path class="ColorScheme-Text" d="m3.625 1c-0.8923-2.987e-4 -1.642 0.6484-1.74 1.506l-0.875 7.615c-0.1153 1.003 0.6969 1.879 1.74 1.879h10.5c1.043 4.15e-4 1.856-0.8763 1.74-1.879l-0.875-7.615c-0.09809-0.8575-0.848-1.506-1.74-1.506h-8.75zm5.486 2v1.555 3.891h1.555v1.555h-4.666v-1.555h1.555v-3.5l-1.555 0.3887v-1.557l3.111-0.7773zm5.887 9.301c-0.4655 0.4244-1.072 0.6973-1.75 0.6973h-10.5c-0.6767 0-1.283-0.272-1.748-0.6953v0.4766c0 1.06 0.9101 2.221 1.971 2.221h10.06c1.06 0 1.969-1.16 1.969-2.221v-0.4785z" fill="#ebdbb2" opacity=".3"/>
</svg>
