<svg width="16" height="16" version="1" xmlns="http://www.w3.org/2000/svg">
  <path d="m7.994 0c-1.08 4.572e-4 -2.149 0.2197-3.143 0.6445 0.597 0.4688 0.9942 1.146 1.111 1.896 0.1142 0.4141 0.03099 3.728-3.441 3.416-0.7402-0.1188-1.409-0.5104-1.875-1.098-0.4272 0.9921-0.6492 2.06-0.6523 3.141 0 4.418 3.582 8 8 8 2.11-0.0024 4.134-0.8385 5.631-2.326-0.6073-0.2413-1.182-0.5108-1.697-0.8438 0.1819 0.4601 6.1e-5 0.984-0.4277 1.232-0.4784 0.2754-1.09 0.1111-1.365-0.3672-0.2757-0.4779-0.1123-1.089 0.3652-1.365 0.2261-0.13 0.4588-0.1482 0.6348-0.123-0.5502-0.5225-0.964-1.225-1.084-2.02-0.5556 0.5214-1.289 0.8119-2.051 0.8125-1.657 0-3-1.343-3-3s1.343-3 3-3c2.161 0 3.055 1.995 2.998 3.041 0.3226-0.07412 0.504-0.03695 0.7793 0.02539 0.4369 0.1088 0.8726 0.2234 1.309 0.3359-0.279-0.6287 0.1641-1.402 0.9141-1.402 0.5523 0 1 0.4477 1 1-2.96e-4 0.312-0.1462 0.606-0.3945 0.7949l1.299 0.3359c0.05667-0.3744 0.08669-0.7523 0.08984-1.131 0-4.418-3.582-8-8-8zm0.005859 1c0.5523 0 1 0.4477 1 1s-0.4477 1-1 1-1-0.4477-1-1 0.4477-1 1-1zm3.5 0.9375c0.4787 0.2764 0.6423 0.8888 0.3652 1.367-0.2764 0.4775-0.8873 0.641-1.365 0.3652-0.4775-0.2764-0.641-0.8873-0.3652-1.365 0.2797-0.486 0.8962-0.6379 1.365-0.3672zm2.562 2.562c0.2754 0.4784 0.1111 1.09-0.3672 1.365-0.4779 0.2757-1.089 0.1123-1.365-0.3652-0.2757-0.4779-0.1123-1.089 0.3652-1.365 0.4639-0.2692 1.084-0.1257 1.367 0.3652zm-12.06 2.5c0.5523 0 1 0.4477 1 1s-0.4477 1-1 1-1-0.4477-1-1 0.4477-1 1-1zm9.307 2c-0.1887-0.00627-0.2138 0.09714-0.2695 0.3711-0.2803 1.804 1.354 2.804 3.502 3.584 0.2562 0.09097 0.2781 0.04569 0.4336-0.1484 0.5015-0.6765 0.7002-1.502 0.9551-2.291 0.1391-0.3287 0.08912-0.3219-0.2598-0.4121-1.45-0.379-2.906-0.7575-4.361-1.104zm-7.637 1.5c0.2757 0.4779 0.1123 1.089-0.3652 1.365-0.4783 0.2771-1.091 0.1135-1.367-0.3652-0.2754-0.4784-0.1111-1.09 0.3672-1.365 0.4653-0.2701 1.083-0.1236 1.365 0.3652zm1.83 1.83c0.4775 0.2764 0.641 0.8873 0.3652 1.365-0.2757 0.4782-0.8868 0.6426-1.365 0.3672-0.4787-0.2764-0.6423-0.8888-0.3652-1.367 0.281-0.4857 0.8977-0.6351 1.365-0.3652zm2.5 0.6699c0.5523 0 1 0.4477 1 1s-0.4477 1-1 1-1-0.4477-1-1 0.4477-1 1-1z" fill="#ebdbb2"/>
  <path class="warning" d="m3 1a2 2 0 0 0-2 2 2 2 0 0 0 2 2 2 2 0 0 0 2-2 2 2 0 0 0-2-2z" fill="#458588"/>
</svg>
