<svg width="16" height="16" version="1.1" xmlns="http://www.w3.org/2000/svg">
  <path d="m1 0c-0.554 0-1 0.446-1 1v14c0 0.554 0.446 1 1 1h14c0.554 0 1-0.446 1-1v-14c0-0.554-0.446-1-1-1zm0.5 1c0.2761 0 0.5 0.2239 0.5 0.5s-0.2239 0.5-0.5 0.5-0.5-0.2239-0.5-0.5 0.2239-0.5 0.5-0.5zm6.5 0c3.866 0 7 3.134 7 7 0 3.866-3.134 7-7 7-3.866 0-7-3.134-7-7 0-3.866 3.134-7 7-7zm6.5 0c0.2761 0 0.5 0.2239 0.5 0.5s-0.2239 0.5-0.5 0.5-0.5-0.2239-0.5-0.5 0.2239-0.5 0.5-0.5zm-5.498 1.102c-0.5531-0.0011-1.002 0.4469-1.002 1v1.898c0.9123 3.015e-4 1.775 0.4158 2.344 1.129 0.789-0.1705 1.455-0.3276 2.129-0.4863 0.894-0.2108 0.533-0.9895 0.175-1.43-1.554-1.911-3.619-2.111-3.646-2.111zm-3.988 0.8711c-0.2761 0.0231-0.5807 0.2022-0.8008 0.3808-1.911 1.555-2.111 3.621-2.111 3.646-1e-3 0.5531 0.447 1.002 1 1.002h1.898c3.624e-4 -0.9123 0.4158-1.775 1.129-2.344-0.1705-0.7895-0.3276-1.455-0.4863-2.129-0.1055-0.4471-0.3529-0.5798-0.6289-0.5566zm2.986 3.027c-1.105 0-2 0.8954-2 2s0.8954 2 2 2 2-0.8954 2-2-0.8954-2-2-2zm2.998 1.998c-3.02e-4 0.9123-0.4158 1.775-1.129 2.344 0.1709 0.789 0.3279 1.455 0.4859 2.129 0.211 0.894 0.99 0.533 1.43 0.175 1.909-1.551 2.111-3.614 2.111-3.646 1e-3 -0.5531-0.446-1.002-1-1.002zm-5.344 1.875c-0.7895 0.171-1.455 0.328-2.129 0.486-0.8942 0.211-0.533 0.99-0.1758 1.43 1.552 1.908 3.612 2.111 3.646 2.111 0.5531 1e-3 1.002-0.447 1.002-1v-1.898c-0.9123-4.17e-4 -1.775-0.4159-2.344-1.129zm-4.154 4.127c0.2761 0 0.5 0.2239 0.5 0.5s-0.2239 0.5-0.5 0.5-0.5-0.2239-0.5-0.5 0.2239-0.5 0.5-0.5zm13 0c0.2761 0 0.5 0.2239 0.5 0.5s-0.2239 0.5-0.5 0.5-0.5-0.2239-0.5-0.5 0.2239-0.5 0.5-0.5z" fill="#ebdbb2"/>
</svg>
