<svg width="16" height="16" version="1.1" viewBox="0 0 16 16" xmlns="http://www.w3.org/2000/svg">
  <defs>
    <style type="text/css">.ColorScheme-Text { color:#ebdbb2; } .ColorScheme-Highlight { color:#458588; }</style>
  </defs>
  <path class="ColorScheme-Text" d="m14 1a2 2 0 0 0-2 2 2 2 0 0 0 2 2 2 2 0 0 0 2-2 2 2 0 0 0-2-2zm0 5a2 2 0 0 0-2 2 2 2 0 0 0 2 2 2 2 0 0 0 2-2 2 2 0 0 0-2-2zm0 5a2 2 0 0 0-2 2 2 2 0 0 0 2 2 2 2 0 0 0 2-2 2 2 0 0 0-2-2z" fill="currentColor"/>
  <path class="ColorScheme-Text" d="m8 1c-1.933-4.82e-6 -3.5 1.567-3.5 3.5 1.46e-5 1.933 1.567 3.5 3.5 3.5 1.933 5.2e-6 3.5-1.567 3.5-3.5s-1.567-3.5-3.5-3.5zm0 7.875c-3.557 0.0042-6.555 2.628-7 6.125h10.77a3 3 0 0 1-0.7676-2 3 3 0 0 1 1.443-2.559c-1.219-0.9812-2.769-1.565-4.443-1.566z" fill="currentColor" opacity=".3"/>
</svg>
