<svg width="16" height="16" version="1.1" xmlns="http://www.w3.org/2000/svg">
  <defs>
    <style type="text/css">.ColorScheme-Text { color:#ebdbb2; } .ColorScheme-Highlight { color:#458588; }</style>
  </defs>
  <path class="ColorScheme-Text" d="m5 6v2.002c0 1.662 1.338 2.998 3 2.998 1.662 0 3-1.336 3-2.998v-2.002z" fill="currentColor"/>
  <path class="ColorScheme-Text" d="m2 7v0.999c0 2.966 2 6.001 5 6.001v2h2v-2c3 0 5-3.035 5-6.001v-0.999h-2v0.999c0 2.234-1.767 4.001-4 4.001-2.233 0-4-1.767-4-4.001v-0.999z" fill="currentColor"/>
  <path class="ColorScheme-Text" d="m8 1c-1.662 0-3 1.338-3 3v2h6v-2c0-1.662-1.338-3-3-3z" fill="currentColor" opacity=".3"/>
</svg>
