<svg width="16" height="16" style="isolation:isolate" version="1.1" viewBox="0 0 16 16" xmlns="http://www.w3.org/2000/svg">
  <defs>
    <style type="text/css">.ColorScheme-Text { color:#ebdbb2; } .ColorScheme-Highlight { color:#458588; }</style>
  </defs>
  <path class="ColorScheme-Text" d="m8 2.086e-6c-1.584-9.086e-4 -2.86 0.2951-3.898 0.7705-0.2122 0.09356-0.4189 0.195-0.6177 0.3078-0.05387 0.03153-0.1027 0.06635-0.155 0.09895-0.1313 0.07957-0.2634 0.1589-0.3874 0.2475-0.1026 0.0733-0.1947 0.1545-0.2906 0.2325-0.675 0.5491-1.169 1.215-1.537 1.939-0.01829 0.03637-0.04278 0.07107-0.0603 0.1077-0.01806 0.03758-0.03006 0.07625-0.04738 0.1141-0.2252 0.489-0.4112 0.994-0.5209 1.52-0.02048 0.0984-0.02391 0.2-0.04086 0.2992-0.0497 0.2704-0.08784 0.5374-0.1119 0.8006-0.002219 0.02381-0.004404 0.04716-0.006626 0.07108-0.02657 0.3166-0.01873 0.6052-0.0151 0.9018 0.00222 0.1101-8.74e-4 0.2193 0.004405 0.3293 0.01456 0.317 0.03837 0.6002 0.07748 0.876 0.02347 0.1927 0.05421 0.382 0.08606 0.5725 0.005515 0.02536 0.007701 0.06139 0.01288 0.08607v0.00219l0.02371 0.1075c0.03417 0.1872 0.05972 0.3779 0.1012 0.5617l0.1205 0.5381 0.008811-0.0022 1.162 5.518 1.294-0.2281c0.7277-0.129 1.246-0.2423 1.487-0.4348 0.1209-0.09663 0.1902-0.2011 0.226-0.3874 0.03582-0.1863 0.02667-0.4578-0.05169-0.8286l-0.8717-4.122c-0.07836-0.3708-0.1795-0.6264-0.2906-0.7899-0.111-0.1635-0.2232-0.2409-0.3788-0.2906-0.3112-0.09939-0.8367-0.02645-1.569 0.1033l-0.1786 0.03228c-0.2006-1.178-0.2402-2.394-0.011-3.493 0.2718-1.303 0.885-2.431 2.017-3.239 1.115-0.7963 2.772-1.198 4.419-1.195 1.647-0.00331 3.304 0.3982 4.419 1.195 1.132 0.8085 1.745 1.936 2.017 3.239 0.2291 1.1 0.1899 2.316-0.011 3.493l-0.1786-0.03228c-0.7323-0.1297-1.258-0.2027-1.569-0.1033-0.1556 0.0497-0.2678 0.1271-0.3788 0.2906-0.111 0.1635-0.2122 0.4191-0.2906 0.7899l-0.8717 4.122c-0.07832 0.3708-0.08747 0.6424-0.05166 0.8286s0.1051 0.2908 0.226 0.3874c0.2408 0.1925 0.7596 0.3057 1.487 0.4348l1.293 0.2281 1.162-5.518 0.0089 0.0022 0.1205-0.5381c0.04143-0.1839 0.06698-0.3745 0.1012-0.5617l0.02367-0.1075v-0.0022c0.0056-0.02468 0.0078-0.06072 0.01291-0.08607 0.03184-0.1905 0.06259-0.3798 0.08606-0.5725 0.03911-0.2757 0.06292-0.559 0.07748-0.876 0.0055-0.11 0.0022-0.2192 0.0044-0.3293 0.0032-0.2966 0.01147-0.5852-0.0151-0.9018-0.0022-0.02391-0.0043-0.04716-0.0067-0.07108-0.02408-0.2632-0.06222-0.5302-0.1119-0.8006-0.01695-0.09919-0.02038-0.2008-0.04086-0.2992-0.1097-0.5255-0.2957-1.031-0.5209-1.52-0.01728-0.0378-0.02929-0.07647-0.04738-0.1141-0.01752-0.03659-0.04197-0.07129-0.06027-0.1077-0.3677-0.7242-0.8617-1.39-1.537-1.939-0.09588-0.07802-0.188-0.1592-0.2906-0.2325-0.1241-0.0886-0.2561-0.1679-0.3874-0.2475-0.05223-0.0326-0.1011-0.06743-0.155-0.09895-0.1988-0.1128-0.4055-0.2142-0.6177-0.3078-1.037-0.4755-2.314-0.7714-3.897-0.7705z" fill="currentColor" stroke-width=".9615"/>
</svg>
