<svg width="16" height="16" style="isolation:isolate" version="1.1" viewBox="0 0 16 16" xmlns="http://www.w3.org/2000/svg">
  <defs>
    <style type="text/css">.ColorScheme-Text { color:#ebdbb2; } .ColorScheme-Highlight { color:#458588; }</style>
  </defs>
  <path class="ColorScheme-Text" fill="currentColor" d="m4.273 2.27v2.133h2.131v-2.133zm3.197 0v2.133h2.131v-2.133zm-5.33 3.199v2.131h2.133v-2.131zm3.197 0v2.131h2.133v-2.131zm3.199 0v2.131h2.131v-2.131zm3.621 0.248c-0.566 0.388-0.7013 1.091-0.5254 1.754 0.1791 0.663 0.6291 1.142 1.314 1.195 0.2287 0.6476 0.8405 1.081 1.527 1.082 0.6864-0.001066 1.297-0.435 1.525-1.082-0.2286-0.6466-0.8396-1.079-1.525-1.08-0.328 5.79e-4 -0.6481 0.1007-0.918 0.2871 0.3547-1.004-0.3375-2.071-1.398-2.156zm0.7891 2.949h-12.94c0 3.581 2.904 5.406 6.486 5.406 3.581 0 6.453-1.824 6.453-5.406zm-10.25 0.7188c1.187 0 1.187 1.781 0 1.781s-1.187-1.781 0-1.781z"/>
</svg>
