<svg width="16" height="16" version="1.1" viewBox="0 0 16 16" xmlns="http://www.w3.org/2000/svg">
  <defs>
    <style type="text/css">.ColorScheme-Text { color:#ebdbb2; } .ColorScheme-Highlight { color:#458588; }</style>
  </defs>
  <path class="ColorScheme-Text" d="m2 1s-1 1e-6 -1 1v11s9e-7 1 1 1l9.281 2e-3c-2.043 0-3.713-1.682-3.713-3.725s1.67-3.719 3.713-3.719c1.979 5.9e-6 3.625 1.57 3.725 3.525-0.0059-3e-3 -0.0059-6.088-0.0059-6.088 0-1-1-1-1-1l-5 0.0039-2-2zm9.281 6.561c-1.496-5e-6 -2.719 1.225-2.719 2.721 0 1.496 1.223 2.719 2.719 2.719 0.4906 0 0.9643-0.1549 1.375-0.4141 0.0269 0.04313 0.05815 0.08353 0.0957 0.1211l2.094 2.094c0.2647 0.2647 0.6904 0.2647 0.9551 0 0.2647-0.2647 0.2647-0.6904 0-0.9551l-2.094-2.094c-0.03796-0.03796-0.07945-0.06863-0.123-0.0957 0.2609-0.4137 0.416-0.888 0.416-1.375 0-1.496-1.223-2.721-2.719-2.721zm0 1c0.9552 0 1.719 0.7652 1.719 1.721 0 0.9552-0.7632 1.719-1.719 1.719-0.9552 0-1.719-0.7633-1.719-1.719 0-0.9552 0.7633-1.721 1.719-1.721z" fill="currentColor"/>
</svg>
