<svg width="16" height="16" version="1.1" viewBox="0 0 16 16" xmlns="http://www.w3.org/2000/svg">
  <defs>
    <style type="text/css">.ColorScheme-Text { color:#ebdbb2; } .ColorScheme-Highlight { color:#458588; }</style>
  </defs>
  <path class="ColorScheme-Text" d="m1.6 13.1c-0.07924-0.02272-0.2163-0.129-0.3781-0.2935-0.2038-0.207-0.2897-0.3315-0.4355-0.631-1.059-2.175-1.047-6.135 0.02582-8.304 0.3055-0.6181 0.6571-0.9684 1.012-1.008 0.3755-0.0423 1.187 0.282 1.902 0.7602 0.986 0.6594 2.04 1.674 2.54 2.446 0.1284 0.1981 0.1564 0.2764 0.1907 0.5326 0.0221 0.1652 0.04018 0.4258 0.04018 0.579v0.2785l-0.2413-0.1022c-0.3355-0.1421-0.8895-0.3074-1.317-0.393-0.442-0.08853-1.2-0.1575-1.351-0.123-0.1086 0.02474-0.1062 0.02683 0.08491 0.07498 0.6167 0.1553 2.746 0.8496 2.814 0.9175 0.0324 0.03239-0.07003 0.8624-0.1095 0.8875-0.08925 0.05674-0.7198 0.2497-1.434 0.4389-0.412 0.1091-0.7578 0.2074-0.7686 0.2184-0.01077 0.011 0.0528 0.0106 0.1413-8.54e-4 0.08848-0.0114 0.3941-0.04556 0.6792-0.07586 0.2851-0.03034 0.6986-0.08678 0.9189-0.1255 0.2203-0.03876 0.4072-0.07038 0.4153-0.07038 0.02621 0-0.08271 0.4371-0.1959 0.786-0.1286 0.3964-0.1606 0.435-0.892 1.075-1.323 1.158-2.339 1.863-3.005 2.085-0.2897 0.09647-0.4331 0.1076-0.6363 0.04931zm12.19-0.0145c-0.4816-0.1269-1.297-0.6159-2.017-1.209-0.463-0.3817-1.099-0.9714-1.381-1.281l-0.221-0.2422 0.06049-0.2401c0.03327-0.1321 0.06975-0.382 0.08106-0.5555 0.01951-0.2992 0.02442-0.3142 0.09554-0.2934 0.4763 0.1396 1.1 0.2568 1.809 0.34 0.1868 0.02196 0.3879 0.0472 0.4469 0.0562 0.1048 0.01596 0.1052 0.01547 0.01788-0.02236-0.04916-0.02128-0.4031-0.1259-0.7865-0.2325-0.3834-0.1066-0.891-0.2593-1.128-0.3394l-0.4307-0.1456-0.0649-0.5062c-0.03569-0.2784-0.06709-0.5464-0.06977-0.5956-0.00442-0.08035 0.04891-0.117 0.5314-0.3649 0.2949-0.1516 0.8376-0.4158 1.206-0.5872 0.3683-0.1714 0.665-0.3163 0.6594-0.3219-0.02879-0.02877-0.9268 0.2364-1.664 0.4913-0.4593 0.1589-0.8475 0.2754-0.8625 0.2589-0.01505-0.01648-0.05548-0.1184-0.08984-0.2264-0.03436-0.1081-0.1168-0.3081-0.1831-0.4444-0.06637-0.1364-0.1207-0.2622-0.1207-0.2795 0-0.0174 0.07422-0.147 0.1649-0.288 0.5862-0.9111 1.834-2.091 2.84-2.685 0.5928-0.3501 1.24-0.5633 1.538-0.5067 0.3356 0.06376 0.6671 0.4101 0.9626 1.006 0.555 1.119 0.8625 2.828 0.8101 4.501-0.04732 1.512-0.3255 2.861-0.7838 3.803-0.1457 0.2993-0.2318 0.424-0.4347 0.63-0.3368 0.3419-0.5361 0.3985-0.9859 0.28zm-6.13-2.555c-0.4356-0.06341-0.8531-0.229-1.017-0.4033-0.07162-0.07618-0.07162-0.0774-0.00262-0.3436 0.1906-0.7353 0.2997-1.969 0.2497-2.822-0.02712-0.4624-0.02403-0.5229 0.02881-0.5637 0.1962-0.1516 1.248-0.3556 1.628-0.3159 0.2537 0.02647 0.4733 0.1208 0.6027 0.2588 0.2218 0.2367 0.4952 1.019 0.6245 1.787 0.09246 0.5493 0.09137 1.652-0.00193 1.966-0.06282 0.2111-0.07332 0.2239-0.2435 0.297-0.09781 0.04206-0.2985 0.09954-0.4461 0.1277-0.2935 0.05614-1.073 0.06245-1.422 0.01156z" fill="currentColor"/>
</svg>
