<svg width="16" height="16" version="1.1" viewBox="0 0 16 16" xmlns="http://www.w3.org/2000/svg">
  <defs>
    <style type="text/css">.ColorScheme-Text { color:#ebdbb2; } .ColorScheme-Highlight { color:#458588; }</style>
  </defs>
  <path class="ColorScheme-Text" d="m3.92 7.385-1.089 2.905c-0.1551 0.3483-0.08619 0.7543 0.1811 1.029l1.685 2.097c0.8806-1.981 0.7943-3.367 0.3913-4.341v-0.00341c-0.3133-0.7687-0.731-1.307-1.169-1.687zm3.616-6.142-2.7 2.526c-0.159 0.1432-0.2681 0.3407-0.2991 0.5537l-0.3315 2.17c0.646 0.4762 1.266 1.202 1.692 2.247v0.00175c0.04821 0.1166 0.09048 0.2388 0.1299 0.364 0.5128-0.1241 1.041-0.2089 1.567-0.2273-0.3693-1.087-0.4969-1.967-0.4648-2.707 0.03824-0.881 0.3029-1.56 0.5742-2.114l0.2034-0.3965c0.1977-0.3796 0.3634-0.7047 0.4478-1.036 0.09267-0.3637 0.06554-0.6523-0.0581-1.184l-0.1025-0.4409c-0.1943 0.01399-0.4443 0.04282-0.658 0.2427zm1.735 0.5879c0.04086 0.3658 0.01155 0.6966-0.06834 1.01-0.117 0.458-0.3224 0.845-0.5196 1.224l-0.1948 0.3828c-0.2474 0.5056-0.4537 1.034-0.4854 1.762-0.02905 0.6725 0.122 1.559 0.5537 2.719 0.3152 0.04454 0.6263 0.1174 0.9281 0.2291h0.00166c0.9991 0.3752 1.896 1.203 2.614 2.64 0.3308-0.5189 0.9258-1.453 1.089-1.728 0.09713-0.1628 0.07612-0.3717-0.03588-0.5226-0.3019-0.3987-0.9354-1.263-1.253-2.01-0.3176-0.7702-0.3675-1.966-0.371-2.546 0-0.2245-0.06826-0.4376-0.2083-0.6118zm-1.5 7.923c-0.4877 0.00355-0.9963 0.07788-1.502 0.1978-0.0182 7e-3 -0.03658 0.01576-0.05644 0.02626 0.1287 1.104-0.08041 2.463-0.8494 4.083 0.091 0.03938 0.1898 0.063 0.2906 0.07 0 0 0.6648 0.05338 1.463 0.1111 0.7981 0.05862 2.031 0.5031 2.831 0.7236 0.6195 0.1741 1.246-0.3299 1.331-0.9634 0.05426-0.4016 0.1505-0.8531 0.3176-1.285-0.09713-0.1811-0.1829-0.3334-0.1829-0.3334-0.6685-1.433-1.421-2.102-2.232-2.406-0.4324-0.1601-0.9107-0.2275-1.41-0.224z" fill="currentColor"/>
</svg>
