<svg width="16" height="16" version="1.1" viewBox="0 0 16 16" xmlns="http://www.w3.org/2000/svg">
  <defs>
    <style type="text/css">.ColorScheme-Text { color:#ebdbb2; } .ColorScheme-Highlight { color:#458588; }</style>
  </defs>
  <path class="ColorScheme-Text" d="m5 3v2h2v-2zm3 0v2h2v-2zm-5 3v2h2v-2zm3 0v2h2v-2zm3 0v2h2v-2zm3.396 0.2324c-0.531 0.364-0.6591 1.024-0.4941 1.646 0.168 0.622 0.5914 1.071 1.234 1.121 0.2143 0.6073 0.7876 1.014 1.432 1.016 0.644-1e-3 1.218-0.4086 1.432-1.016-0.2144-0.607-0.7879-1.013-1.432-1.014-0.3073 0.00154-0.6069 0.09619-0.8594 0.2715 0.3332-0.9418-0.3166-1.944-1.312-2.023zm0.7402 2.768h-12.17c0 3.36 2.725 5.072 6.086 5.072 3.36 0 6.084-1.711 6.084-5.072zm-9.648 0.6758c1.103 0.01066 1.103 1.659 0 1.67-1.103-0.01066-1.103-1.659 0-1.67z" fill="currentColor"/>
</svg>
