<svg width="16" height="16" version="1.1" viewBox="0 0 16 16" xmlns="http://www.w3.org/2000/svg">
  <defs>
    <style type="text/css">.ColorScheme-Text { color:#ebdbb2; } .ColorScheme-Highlight { color:#458588; }</style>
  </defs>
  <path class="ColorScheme-Text" d="m5.506 0c-0.2798 0-0.5059 0.2261-0.5059 0.5059v1.988c0 0.2798 0.2261 0.5059 0.5059 0.5059h1.988c0.2798 0 0.5059-0.2261 0.5059-0.5059v-1.988c0-0.2798-0.2261-0.5059-0.5059-0.5059zm0 4c-0.2798 1e-7 -0.5059 0.2261-0.5059 0.5059v1.988c0 0.2798 0.2261 0.5059 0.5059 0.5059h1.988c0.2798 0 0.5059-0.2261 0.5059-0.5059v-1.988c0-0.2798-0.2261-0.5059-0.5059-0.5059zm4 0c-0.2798 1e-7 -0.5059 0.2261-0.5059 0.5059v1.988c0 0.2798 0.2261 0.5059 0.5059 0.5059h1.988c0.2798 0 0.5059-0.2261 0.5059-0.5059v-1.988c0-0.2798-0.2261-0.5059-0.5059-0.5059zm-4 4c-0.2798 0-0.5059 0.2261-0.5059 0.5059v1.988c0 0.2798 0.2261 0.5059 0.5059 0.5059h1.988c0.2798 0 0.5059-0.2261 0.5059-0.5059v-1.988c0-0.2798-0.2261-0.5059-0.5059-0.5059zm4 0c-0.2798 0-0.5059 0.2261-0.5059 0.5059v1.988c0 0.2798 0.2261 0.5059 0.5059 0.5059h1.988c0.2798 0 0.5059-0.2261 0.5059-0.5059v-1.988c0-0.2798-0.2261-0.5059-0.5059-0.5059zm-4 4c-0.2798 0-0.5059 0.2261-0.5059 0.5059v1.988c0 0.2798 0.2261 0.5059 0.5059 0.5059h1.988c0.2798 0 0.5059-0.2261 0.5059-0.5059v-1.988c0-0.2798-0.2261-0.5059-0.5059-0.5059zm4 0c-0.2798 0-0.5059 0.2261-0.5059 0.5059v1.988c0 0.2798 0.2261 0.5059 0.5059 0.5059h1.988c0.2798 0 0.5059-0.2261 0.5059-0.5059v-1.988c0-0.2798-0.2261-0.5059-0.5059-0.5059z" fill="currentColor"/>
</svg>
